<?xml version="1.0" encoding="UTF-8" standalone="no"?>
<!DOCTYPE svg PUBLIC "-//W3C//DTD SVG 1.1//EN"
 "http://www.w3.org/Graphics/SVG/1.1/DTD/svg11.dtd">
<!-- Generated by graphviz version 14.1.2 (20260124.0452)
 -->
<!-- Title: asn_tlv_codec.hpp Pages: 1 -->
<svg width="509pt" height="140pt"
 viewBox="0.00 0.00 509.00 140.00" xmlns="http://www.w3.org/2000/svg" xmlns:xlink="http://www.w3.org/1999/xlink">
<g id="graph0" class="graph" transform="scale(1 1) rotate(0) translate(4 136)">
<title>asn_tlv_codec.hpp</title>
<!-- Node1 -->
<g id="Node000001" class="node">
<title>Node1</title>
<g id="a_Node000001"><a xlink:title="ASN.1 BER/TLV codec for SER record payloads.">
<polygon fill="#999999" stroke="#666666" points="189,-132 91.25,-132 91.25,-112 189,-112 189,-132"/>
<text xml:space="preserve" text-anchor="middle" x="140.12" y="-118.5" font-family="Helvetica,sans-Serif" font-size="10.00">asn_tlv_codec.hpp</text>
</a>
</g>
</g>
<!-- Node2 -->
<g id="Node000002" class="node">
<title>Node2</title>
<g id="a_Node000002"><a xlink:title=" ">
<polygon fill="#e0e0e0" stroke="#999999" points="48.25,-76 0,-76 0,-56 48.25,-56 48.25,-76"/>
<text xml:space="preserve" text-anchor="middle" x="24.12" y="-62.5" font-family="Helvetica,sans-Serif" font-size="10.00">cstddef</text>
</a>
</g>
</g>
<!-- Node1&#45;&gt;Node2 -->
<g id="edge1_Node000001_Node000002" class="edge">
<title>Node1&#45;&gt;Node2</title>
<g id="a_edge1_Node000001_Node000002"><a xlink:title=" ">
<path fill="none" stroke="#63b8ff" d="M119.92,-111.59C101.9,-103.21 75.26,-90.8 54.64,-81.21"/>
<polygon fill="#63b8ff" stroke="#63b8ff" points="56.4,-78.17 45.86,-77.12 53.45,-84.51 56.4,-78.17"/>
</a>
</g>
</g>
<!-- Node3 -->
<g id="Node000003" class="node">
<title>Node3</title>
<g id="a_Node000003"><a xlink:title=" ">
<polygon fill="#e0e0e0" stroke="#999999" points="111.75,-76 66.5,-76 66.5,-56 111.75,-56 111.75,-76"/>
<text xml:space="preserve" text-anchor="middle" x="89.12" y="-62.5" font-family="Helvetica,sans-Serif" font-size="10.00">cstdint</text>
</a>
</g>
</g>
<!-- Node1&#45;&gt;Node3 -->
<g id="edge2_Node000001_Node000003" class="edge">
<title>Node1&#45;&gt;Node3</title>
<g id="a_edge2_Node000001_Node000003"><a xlink:title=" ">
<path fill="none" stroke="#63b8ff" d="M131.24,-111.59C124.22,-104.16 114.22,-93.58 105.73,-84.58"/>
<polygon fill="#63b8ff" stroke="#63b8ff" points="108.36,-82.27 98.95,-77.4 103.27,-87.07 108.36,-82.27"/>
</a>
</g>
</g>
<!-- Node4 -->
<g id="Node000004" class="node">
<title>Node4</title>
<g id="a_Node000004"><a xlink:title=" ">
<polygon fill="#e0e0e0" stroke="#999999" points="138.12,-20 98.12,-20 98.12,0 138.12,0 138.12,-20"/>
<text xml:space="preserve" text-anchor="middle" x="118.12" y="-6.5" font-family="Helvetica,sans-Serif" font-size="10.00">string</text>
</a>
</g>
</g>
<!-- Node1&#45;&gt;Node4 -->
<g id="edge3_Node000001_Node000004" class="edge">
<title>Node1&#45;&gt;Node4</title>
<g id="a_edge3_Node000001_Node000004"><a xlink:title=" ">
<path fill="none" stroke="#63b8ff" d="M138.25,-111.62C134.71,-93.92 126.97,-55.24 122.19,-31.32"/>
<polygon fill="#63b8ff" stroke="#63b8ff" points="125.69,-30.96 120.29,-21.84 118.82,-32.33 125.69,-30.96"/>
</a>
</g>
</g>
<!-- Node5 -->
<g id="Node000005" class="node">
<title>Node5</title>
<g id="a_Node000005"><a xlink:title=" ">
<polygon fill="#e0e0e0" stroke="#999999" points="199.62,-20 156.62,-20 156.62,0 199.62,0 199.62,-20"/>
<text xml:space="preserve" text-anchor="middle" x="178.12" y="-6.5" font-family="Helvetica,sans-Serif" font-size="10.00">vector</text>
</a>
</g>
</g>
<!-- Node1&#45;&gt;Node5 -->
<g id="edge4_Node000001_Node000005" class="edge">
<title>Node1&#45;&gt;Node5</title>
<g id="a_edge4_Node000001_Node000005"><a xlink:title=" ">
<path fill="none" stroke="#63b8ff" d="M143.36,-111.62C149.51,-93.84 162.97,-54.88 171.22,-31"/>
<polygon fill="#63b8ff" stroke="#63b8ff" points="174.44,-32.38 174.4,-21.79 167.83,-30.09 174.44,-32.38"/>
</a>
</g>
</g>
<!-- Node6 -->
<g id="Node000006" class="node">
<title>Node6</title>
<g id="a_Node000006"><a xlink:href="ser__record_8hpp.html" target="_top" xlink:title="System Event Record (SER) data structure and parser.">
<polygon fill="white" stroke="#666666" points="286.38,-76 205.88,-76 205.88,-56 286.38,-56 286.38,-76"/>
<text xml:space="preserve" text-anchor="middle" x="246.12" y="-62.5" font-family="Helvetica,sans-Serif" font-size="10.00">ser_record.hpp</text>
</a>
</g>
</g>
<!-- Node1&#45;&gt;Node6 -->
<g id="edge5_Node000001_Node000006" class="edge">
<title>Node1&#45;&gt;Node6</title>
<g id="a_edge5_Node000001_Node000006"><a xlink:title=" ">
<path fill="none" stroke="#63b8ff" d="M158.59,-111.59C174.83,-103.32 198.73,-91.14 217.46,-81.6"/>
<polygon fill="#63b8ff" stroke="#63b8ff" points="218.85,-84.82 226.17,-77.17 215.67,-78.59 218.85,-84.82"/>
</a>
</g>
</g>
<!-- Node6&#45;&gt;Node4 -->
<g id="edge7_Node000006_Node000004" class="edge">
<title>Node6&#45;&gt;Node4</title>
<g id="a_edge7_Node000006_Node000004"><a xlink:title=" ">
<path fill="none" stroke="#63b8ff" d="M223.83,-55.59C203.05,-46.83 171.89,-33.68 148.78,-23.93"/>
<polygon fill="#63b8ff" stroke="#63b8ff" points="150.45,-20.84 139.87,-20.17 147.73,-27.29 150.45,-20.84"/>
</a>
</g>
</g>
<!-- Node6&#45;&gt;Node5 -->
<g id="edge8_Node000006_Node000005" class="edge">
<title>Node6&#45;&gt;Node5</title>
<g id="a_edge8_Node000006_Node000005"><a xlink:title=" ">
<path fill="none" stroke="#63b8ff" d="M234.28,-55.59C224.43,-47.77 210.19,-36.46 198.52,-27.19"/>
<polygon fill="#63b8ff" stroke="#63b8ff" points="201.03,-24.72 191.02,-21.24 196.67,-30.2 201.03,-24.72"/>
</a>
</g>
</g>
<!-- Node7 -->
<g id="Node000007" class="node">
<title>Node7</title>
<g id="a_Node000007"><a xlink:href="dll__export_8hpp.html" target="_top" xlink:title="DLL Export/Import Macros for Windows.">
<polygon fill="white" stroke="#666666" points="431.5,-20 354.75,-20 354.75,0 431.5,0 431.5,-20"/>
<text xml:space="preserve" text-anchor="middle" x="393.12" y="-6.5" font-family="Helvetica,sans-Serif" font-size="10.00">dll_export.hpp</text>
</a>
</g>
</g>
<!-- Node6&#45;&gt;Node7 -->
<g id="edge6_Node000006_Node000007" class="edge">
<title>Node6&#45;&gt;Node7</title>
<g id="a_edge6_Node000006_Node000007"><a xlink:title=" ">
<path fill="none" stroke="#63b8ff" d="M271.73,-55.59C295.19,-46.97 330.19,-34.12 356.59,-24.42"/>
<polygon fill="#63b8ff" stroke="#63b8ff" points="357.72,-27.73 365.9,-21 355.31,-21.16 357.72,-27.73"/>
</a>
</g>
</g>
<!-- Node8 -->
<g id="Node000008" class="node">
<title>Node8</title>
<g id="a_Node000008"><a xlink:title=" ">
<polygon fill="#e0e0e0" stroke="#999999" points="500.75,-20 449.5,-20 449.5,0 500.75,0 500.75,-20"/>
<text xml:space="preserve" text-anchor="middle" x="475.12" y="-6.5" font-family="Helvetica,sans-Serif" font-size="10.00">sstream</text>
</a>
</g>
</g>
<!-- Node6&#45;&gt;Node8 -->
<g id="edge9_Node000006_Node000008" class="edge">
<title>Node6&#45;&gt;Node8</title>
<g id="a_edge9_Node000006_Node000008"><a xlink:title=" ">
<path fill="none" stroke="#63b8ff" d="M286.69,-55.89C323.69,-47.51 380.13,-34.56 438.28,-20.41"/>
<polygon fill="#63b8ff" stroke="#63b8ff" points="438.79,-23.89 447.68,-18.11 437.13,-17.09 438.79,-23.89"/>
</a>
</g>
</g>
<!-- Node9 -->
<g id="Node000009" class="node">
<title>Node9</title>
<g id="a_Node000009"><a xlink:title=" ">
<polygon fill="#e0e0e0" stroke="#999999" points="273,-20 217.25,-20 217.25,0 273,0 273,-20"/>
<text xml:space="preserve" text-anchor="middle" x="245.12" y="-6.5" font-family="Helvetica,sans-Serif" font-size="10.00">algorithm</text>
</a>
</g>
</g>
<!-- Node6&#45;&gt;Node9 -->
<g id="edge10_Node000006_Node000009" class="edge">
<title>Node6&#45;&gt;Node9</title>
<g id="a_edge10_Node000006_Node000009"><a xlink:title=" ">
<path fill="none" stroke="#63b8ff" d="M245.95,-55.59C245.83,-49.01 245.66,-39.96 245.51,-31.73"/>
<polygon fill="#63b8ff" stroke="#63b8ff" points="249.01,-31.75 245.33,-21.81 242.01,-31.87 249.01,-31.75"/>
</a>
</g>
</g>
<!-- Node10 -->
<g id="Node000010" class="node">
<title>Node10</title>
<g id="a_Node000010"><a xlink:title=" ">
<polygon fill="#e0e0e0" stroke="#999999" points="336.75,-20 291.5,-20 291.5,0 336.75,0 336.75,-20"/>
<text xml:space="preserve" text-anchor="middle" x="314.12" y="-6.5" font-family="Helvetica,sans-Serif" font-size="10.00">cctype</text>
</a>
</g>
</g>
<!-- Node6&#45;&gt;Node10 -->
<g id="edge11_Node000006_Node000010" class="edge">
<title>Node6&#45;&gt;Node10</title>
<g id="a_edge11_Node000006_Node000010"><a xlink:title=" ">
<path fill="none" stroke="#63b8ff" d="M257.97,-55.59C267.82,-47.77 282.06,-36.46 293.73,-27.19"/>
<polygon fill="#63b8ff" stroke="#63b8ff" points="295.58,-30.2 301.23,-21.24 291.22,-24.72 295.58,-30.2"/>
</a>
</g>
</g>
</g>
</svg>
