<?xml version="1.0" encoding="UTF-8" standalone="no"?>
<!DOCTYPE svg PUBLIC "-//W3C//DTD SVG 1.1//EN"
 "http://www.w3.org/Graphics/SVG/1.1/DTD/svg11.dtd">
<!-- Generated by graphviz version 14.1.2 (20260124.0452)
 -->
<!-- Title: asn_tlv_codec.hpp Pages: 1 -->
<svg width="461pt" height="196pt"
 viewBox="0.00 0.00 461.00 196.00" xmlns="http://www.w3.org/2000/svg" xmlns:xlink="http://www.w3.org/1999/xlink">

<svg id="main" version="1.1" xmlns="http://www.w3.org/2000/svg" xmlns:xlink="http://www.w3.org/1999/xlink" xml:space="preserve">

<style type="text/css"><![CDATA[
.node, .edge {opacity: 0.7;}
.node.selected, .edge.selected {opacity: 1;}
.edge:hover path { stroke: red; }
.edge:hover polygon { stroke: red; fill: red; }
]]></style>
<script type="application/ecmascript" xlink:href="svg.min.js"/>
<svg id="graph" class="graph">
<g id="graph0" class="graph" transform="scale(1 1) rotate(0) translate(4 192)">
<title>asn_tlv_codec.hpp</title>
<!-- Node1 -->
<g id="Node000001" class="node">
<title>Node1</title>
<g id="a_Node000001"><a xlink:title="ASN.1 BER/TLV codec for SER record payloads.">
<polygon fill="#999999" stroke="#666666" points="215.57,-188 117.82,-188 117.82,-168 215.57,-168 215.57,-188"/>
<text xml:space="preserve" text-anchor="middle" x="166.69" y="-174.5" font-family="Helvetica,sans-Serif" font-size="10.00">asn_tlv_codec.hpp</text>
</a>
</g>
</g>
<!-- Node2 -->
<g id="Node000002" class="node">
<title>Node2</title>
<g id="a_Node000002"><a xlink:href="password__manager_8hpp.html" target="_top" xlink:title="Password management for relay LEVEL1 / LEVEL2 password changes.">
<polygon fill="white" stroke="#666666" points="138.44,-76 18.94,-76 18.94,-56 138.44,-56 138.44,-76"/>
<text xml:space="preserve" text-anchor="middle" x="78.69" y="-62.5" font-family="Helvetica,sans-Serif" font-size="10.00">password_manager.hpp</text>
</a>
</g>
</g>
<!-- Node1&#45;&gt;Node2 -->
<g id="edge1_Node000001_Node000002" class="edge">
<title>Node1&#45;&gt;Node2</title>
<g id="a_edge1_Node000001_Node000002"><a xlink:title=" ">
<path fill="none" stroke="#63b8ff" d="M143.07,-161.11C132.56,-153.23 120.57,-143.04 111.69,-132 97.41,-114.25 86.9,-89.33 81.92,-76.09"/>
<polygon fill="#63b8ff" stroke="#63b8ff" points="140.79,-163.78 150.95,-166.78 144.87,-158.1 140.79,-163.78"/>
</a>
</g>
</g>
<!-- Node3 -->
<g id="Node000003" class="node">
<title>Node3</title>
<g id="a_Node000003"><a xlink:href="telnet__sml__app_8cpp.html" target="_top" xlink:title="Telnet SML Application &#45; Main orchestrator implementation.">
<polygon fill="white" stroke="#666666" points="261.07,-20 160.32,-20 160.32,0 261.07,0 261.07,-20"/>
<text xml:space="preserve" text-anchor="middle" x="210.69" y="-6.5" font-family="Helvetica,sans-Serif" font-size="10.00">telnet_sml_app.cpp</text>
</a>
</g>
</g>
<!-- Node1&#45;&gt;Node3 -->
<g id="edge10_Node000001_Node000003" class="edge">
<title>Node1&#45;&gt;Node3</title>
<g id="a_edge10_Node000001_Node000003"><a xlink:title=" ">
<path fill="none" stroke="#63b8ff" d="M123.07,-164.09C64.22,-144.49 -29.01,-104.32 9.69,-56 28.19,-32.9 106.78,-20.86 160.03,-15.24"/>
<polygon fill="#63b8ff" stroke="#63b8ff" points="121.94,-167.41 132.53,-167.16 124.1,-160.75 121.94,-167.41"/>
</a>
</g>
</g>
<!-- Node4 -->
<g id="Node000004" class="node">
<title>Node4</title>
<g id="a_Node000004"><a xlink:href="relay__service_8hpp.html" target="_top" xlink:title="Thread&#45;safe relay communication service for DATE operations.">
<polygon fill="white" stroke="#666666" points="212.94,-132 120.44,-132 120.44,-112 212.94,-112 212.94,-132"/>
<text xml:space="preserve" text-anchor="middle" x="166.69" y="-118.5" font-family="Helvetica,sans-Serif" font-size="10.00">relay_service.hpp</text>
</a>
</g>
</g>
<!-- Node1&#45;&gt;Node4 -->
<g id="edge3_Node000001_Node000004" class="edge">
<title>Node1&#45;&gt;Node4</title>
<g id="a_edge3_Node000001_Node000004"><a xlink:title=" ">
<path fill="none" stroke="#63b8ff" d="M166.69,-156.13C166.69,-147.9 166.69,-138.85 166.69,-132.3"/>
<polygon fill="#63b8ff" stroke="#63b8ff" points="163.19,-156.08 166.69,-166.08 170.19,-156.08 163.19,-156.08"/>
</a>
</g>
</g>
<!-- Node6 -->
<g id="Node000006" class="node">
<title>Node6</title>
<g id="a_Node000006"><a xlink:href="telnet__fsm_8hpp.html" target="_top" xlink:title="Boost.SML Finite State Machine for Telnet Communication.">
<polygon fill="white" stroke="#666666" points="347.94,-132 267.44,-132 267.44,-112 347.94,-112 347.94,-132"/>
<text xml:space="preserve" text-anchor="middle" x="307.69" y="-118.5" font-family="Helvetica,sans-Serif" font-size="10.00">telnet_fsm.hpp</text>
</a>
</g>
</g>
<!-- Node1&#45;&gt;Node6 -->
<g id="edge8_Node000001_Node000006" class="edge">
<title>Node1&#45;&gt;Node6</title>
<g id="a_edge8_Node000001_Node000006"><a xlink:title=" ">
<path fill="none" stroke="#63b8ff" d="M201.86,-163.53C227.09,-153.87 260.47,-141.08 282.94,-132.48"/>
<polygon fill="#63b8ff" stroke="#63b8ff" points="200.75,-160.21 192.67,-167.05 203.26,-166.74 200.75,-160.21"/>
</a>
</g>
</g>
<!-- Node7 -->
<g id="Node000007" class="node">
<title>Node7</title>
<g id="a_Node000007"><a xlink:href="ws__server_8hpp.html" target="_top" xlink:title="WebSocket Server for Real&#45;time SER Data Access.">
<polygon fill="white" stroke="#666666" points="452.57,-76 372.82,-76 372.82,-56 452.57,-56 452.57,-76"/>
<text xml:space="preserve" text-anchor="middle" x="412.69" y="-62.5" font-family="Helvetica,sans-Serif" font-size="10.00">ws_server.hpp</text>
</a>
</g>
</g>
<!-- Node1&#45;&gt;Node7 -->
<g id="edge11_Node000001_Node000007" class="edge">
<title>Node1&#45;&gt;Node7</title>
<g id="a_edge11_Node000001_Node000007"><a xlink:title=" ">
<path fill="none" stroke="#63b8ff" d="M227.16,-172.34C266.43,-167.08 317.41,-155.88 356.69,-132 380.11,-117.77 398.8,-90.41 407.45,-76.15"/>
<polygon fill="#63b8ff" stroke="#63b8ff" points="226.9,-168.85 217.4,-173.55 227.76,-175.8 226.9,-168.85"/>
</a>
</g>
</g>
<!-- Node2&#45;&gt;Node3 -->
<g id="edge2_Node000002_Node000003" class="edge">
<title>Node2&#45;&gt;Node3</title>
<g id="a_edge2_Node000002_Node000003"><a xlink:title=" ">
<path fill="none" stroke="#63b8ff" d="M112.25,-51.27C135.8,-41.64 166.68,-29.01 187.52,-20.48"/>
<polygon fill="#63b8ff" stroke="#63b8ff" points="111.02,-48 103.09,-55.02 113.67,-54.47 111.02,-48"/>
</a>
</g>
</g>
<!-- Node4&#45;&gt;Node2 -->
<g id="edge4_Node000004_Node000002" class="edge">
<title>Node4&#45;&gt;Node2</title>
<g id="a_edge4_Node000004_Node000002"><a xlink:title=" ">
<path fill="none" stroke="#63b8ff" d="M141.94,-105.81C126.59,-96.39 107.35,-84.58 94.14,-76.48"/>
<polygon fill="#63b8ff" stroke="#63b8ff" points="139.72,-108.56 150.07,-110.8 143.38,-102.59 139.72,-108.56"/>
</a>
</g>
</g>
<!-- Node4&#45;&gt;Node3 -->
<g id="edge5_Node000004_Node000003" class="edge">
<title>Node4&#45;&gt;Node3</title>
<g id="a_edge5_Node000004_Node000003"><a xlink:title=" ">
<path fill="none" stroke="#63b8ff" d="M171.43,-100.51C174.74,-87.5 179.65,-70.47 185.69,-56 191.07,-43.14 199.18,-29.24 204.69,-20.35"/>
<polygon fill="#63b8ff" stroke="#63b8ff" points="168.08,-99.5 169.12,-110.05 174.88,-101.15 168.08,-99.5"/>
</a>
</g>
</g>
<!-- Node5 -->
<g id="Node000005" class="node">
<title>Node5</title>
<g id="a_Node000005"><a xlink:href="time__sync__manager_8hpp.html" target="_top" xlink:title="DATE synchronization manager for relay ↔ local&#45;PC time operations.">
<polygon fill="white" stroke="#666666" points="316.94,-76 194.44,-76 194.44,-56 316.94,-56 316.94,-76"/>
<text xml:space="preserve" text-anchor="middle" x="255.69" y="-62.5" font-family="Helvetica,sans-Serif" font-size="10.00">time_sync_manager.hpp</text>
</a>
</g>
</g>
<!-- Node4&#45;&gt;Node5 -->
<g id="edge6_Node000004_Node000005" class="edge">
<title>Node4&#45;&gt;Node5</title>
<g id="a_edge6_Node000004_Node000005"><a xlink:title=" ">
<path fill="none" stroke="#63b8ff" d="M191.73,-105.81C207.25,-96.39 226.71,-84.58 240.07,-76.48"/>
<polygon fill="#63b8ff" stroke="#63b8ff" points="190.22,-102.63 183.49,-110.81 193.85,-108.61 190.22,-102.63"/>
</a>
</g>
</g>
<!-- Node5&#45;&gt;Node3 -->
<g id="edge7_Node000005_Node000003" class="edge">
<title>Node5&#45;&gt;Node3</title>
<g id="a_edge7_Node000005_Node000003"><a xlink:title=" ">
<path fill="none" stroke="#63b8ff" d="M240.7,-47C233.24,-38.06 224.55,-27.62 218.44,-20.3"/>
<polygon fill="#63b8ff" stroke="#63b8ff" points="237.79,-48.99 246.89,-54.43 243.17,-44.51 237.79,-48.99"/>
</a>
</g>
</g>
<!-- Node6&#45;&gt;Node3 -->
<g id="edge9_Node000006_Node000003" class="edge">
<title>Node6&#45;&gt;Node3</title>
<g id="a_edge9_Node000006_Node000003"><a xlink:title=" ">
<path fill="none" stroke="#63b8ff" d="M320.56,-102.4C328.37,-88.61 335.16,-69.87 325.69,-56 311.19,-34.75 285.01,-23.53 261.3,-17.62"/>
<polygon fill="#63b8ff" stroke="#63b8ff" points="317.81,-100.21 315.46,-110.54 323.74,-103.93 317.81,-100.21"/>
</a>
</g>
</g>
<!-- Node7&#45;&gt;Node3 -->
<g id="edge12_Node000007_Node000003" class="edge">
<title>Node7&#45;&gt;Node3</title>
<g id="a_edge12_Node000007_Node000003"><a xlink:title=" ">
<path fill="none" stroke="#63b8ff" d="M366.63,-52.69C330.05,-42.91 279.64,-29.43 246.15,-20.48"/>
<polygon fill="#63b8ff" stroke="#63b8ff" points="365.48,-56 376.05,-55.2 367.29,-49.24 365.48,-56"/>
</a>
</g>
</g>
</g>
</svg>
</svg>

<style type='text/css'>
<![CDATA[
[data-mouse-over-selected='false'] { opacity: 0.7; }
[data-mouse-over-selected='true']  { opacity: 1.0; }
]]>
</style>
<script type="application/ecmascript"><![CDATA[
document.addEventListener('DOMContentLoaded', (event) => {
  highlightEdges();
  highlightAdjacentNodes();
});
]]></script>
</svg>
