<?xml version="1.0" encoding="UTF-8" standalone="no"?>
<!DOCTYPE svg PUBLIC "-//W3C//DTD SVG 1.1//EN"
 "http://www.w3.org/Graphics/SVG/1.1/DTD/svg11.dtd">
<!-- Generated by graphviz version 14.1.2 (20260124.0452)
 -->
<!-- Title: WebSocketListener::run Pages: 1 -->
<svg width="414pt" height="40pt"
 viewBox="0.00 0.00 414.00 40.00" xmlns="http://www.w3.org/2000/svg" xmlns:xlink="http://www.w3.org/1999/xlink">
<g id="graph0" class="graph" transform="scale(1 1) rotate(0) translate(4 36)">
<title>WebSocketListener::run</title>
<!-- Node1 -->
<g id="Node000001" class="node">
<title>Node1</title>
<g id="a_Node000001"><a xlink:title="Start the accept loop.">
<polygon fill="#999999" stroke="#666666" points="120.25,-26 0,-26 0,-6 120.25,-6 120.25,-26"/>
<text xml:space="preserve" text-anchor="middle" x="60.12" y="-12.5" font-family="Helvetica,sans-Serif" font-size="10.00">WebSocketListener::run</text>
</a>
</g>
</g>
<!-- Node2 -->
<g id="Node000002" class="node">
<title>Node2</title>
<g id="a_Node000002"><a xlink:href="class_web_socket_listener.html#a4a02860b171ce2a28c38c07b8a241763" target="_top" xlink:title="Initiate async accept for next connection.">
<polygon fill="white" stroke="#666666" points="263,-32 156.25,-32 156.25,0 263,0 263,-32"/>
<text xml:space="preserve" text-anchor="start" x="164.25" y="-18.5" font-family="Helvetica,sans-Serif" font-size="10.00">WebSocketListener::</text>
<text xml:space="preserve" text-anchor="middle" x="209.62" y="-6.5" font-family="Helvetica,sans-Serif" font-size="10.00">do_accept</text>
</a>
</g>
</g>
<!-- Node1&#45;&gt;Node2 -->
<g id="edge1_Node000001_Node000002" class="edge">
<title>Node1&#45;&gt;Node2</title>
<g id="a_edge1_Node000001_Node000002"><a xlink:title=" ">
<path fill="none" stroke="#63b8ff" d="M120.69,-16C128.54,-16 136.6,-16 144.52,-16"/>
<polygon fill="#63b8ff" stroke="#63b8ff" points="144.45,-19.5 154.45,-16 144.45,-12.5 144.45,-19.5"/>
</a>
</g>
</g>
<!-- Node3 -->
<g id="Node000003" class="node">
<title>Node3</title>
<g id="a_Node000003"><a xlink:href="class_web_socket_listener.html#a0bc0ecdf40bbd64fe6b8c8317c3dd9bf" target="_top" xlink:title="Handle accepted connection.">
<polygon fill="white" stroke="#666666" points="405.75,-32 299,-32 299,0 405.75,0 405.75,-32"/>
<text xml:space="preserve" text-anchor="start" x="307" y="-18.5" font-family="Helvetica,sans-Serif" font-size="10.00">WebSocketListener::</text>
<text xml:space="preserve" text-anchor="middle" x="352.38" y="-6.5" font-family="Helvetica,sans-Serif" font-size="10.00">on_accept</text>
</a>
</g>
</g>
<!-- Node2&#45;&gt;Node3 -->
<g id="edge2_Node000002_Node000003" class="edge">
<title>Node2&#45;&gt;Node3</title>
<g id="a_edge2_Node000002_Node000003"><a xlink:title=" ">
<path fill="none" stroke="#63b8ff" d="M263.44,-9.44C271.28,-9.27 279.44,-9.21 287.48,-9.28"/>
<polygon fill="#63b8ff" stroke="#63b8ff" points="287.17,-12.77 297.22,-9.42 287.28,-5.77 287.17,-12.77"/>
</a>
</g>
</g>
<!-- Node3&#45;&gt;Node2 -->
<g id="edge3_Node000003_Node000002" class="edge">
<title>Node3&#45;&gt;Node2</title>
<g id="a_edge3_Node000003_Node000002"><a xlink:title=" ">
<path fill="none" stroke="#63b8ff" d="M298.74,-22.56C290.89,-22.73 282.74,-22.79 274.69,-22.73"/>
<polygon fill="#63b8ff" stroke="#63b8ff" points="275,-19.23 264.95,-22.58 274.9,-26.23 275,-19.23"/>
</a>
</g>
</g>
</g>
</svg>
