<?xml version="1.0" encoding="UTF-8" standalone="no"?>
<!DOCTYPE svg PUBLIC "-//W3C//DTD SVG 1.1//EN"
 "http://www.w3.org/Graphics/SVG/1.1/DTD/svg11.dtd">
<!-- Generated by graphviz version 14.1.1 (20251213.1925)
 -->
<!-- Title: WebSocketSession::on_read Pages: 1 -->
<svg width="1021pt" height="203pt"
 viewBox="0.00 0.00 1021.00 203.00" xmlns="http://www.w3.org/2000/svg" xmlns:xlink="http://www.w3.org/1999/xlink">
<g id="graph0" class="graph" transform="scale(1 1) rotate(0) translate(4 199)">
<title>WebSocketSession::on_read</title>
<!-- Node1 -->
<g id="Node000001" class="node">
<title>Node1</title>
<g id="a_Node000001"><a xlink:title="Handle received client message.">
<polygon fill="#999999" stroke="#666666" points="142,-142 0,-142 0,-122 142,-122 142,-142"/>
<text xml:space="preserve" text-anchor="middle" x="71" y="-128.5" font-family="Helvetica,sans-Serif" font-size="10.00">WebSocketSession::on_read</text>
</a>
</g>
</g>
<!-- Node2 -->
<g id="Node000002" class="node">
<title>Node2</title>
<g id="a_Node000002"><a xlink:href="class_web_socket_session.html#a2bc079950c2e39e8ff745f0da57646ba" target="_top" xlink:title="Initiate async read for next client message.">
<polygon fill="white" stroke="#666666" points="685.75,-195 543.75,-195 543.75,-175 685.75,-175 685.75,-195"/>
<text xml:space="preserve" text-anchor="middle" x="614.75" y="-181.5" font-family="Helvetica,sans-Serif" font-size="10.00">WebSocketSession::do_read</text>
</a>
</g>
</g>
<!-- Node1&#45;&gt;Node2 -->
<g id="edge1_Node000001_Node000002" class="edge">
<title>Node1&#45;&gt;Node2</title>
<g id="a_edge1_Node000001_Node000002"><a xlink:title=" ">
<path fill="none" stroke="#63b8ff" d="M142.38,-141.46C154.21,-143.92 166.41,-146.27 178,-148 300.53,-166.25 444.18,-172.61 532.07,-177.17"/>
<polygon fill="#63b8ff" stroke="#63b8ff" points="531.88,-180.66 542.05,-177.69 532.25,-173.67 531.88,-180.66"/>
</a>
</g>
</g>
<!-- Node3 -->
<g id="Node000003" class="node">
<title>Node3</title>
<g id="a_Node000003"><a xlink:href="class_web_socket_session.html#a43bf9b3aa8c9ed23d031c7ae8059da22" target="_top" xlink:title="Extract the &quot;action&quot; value from a simple JSON object.">
<polygon fill="white" stroke="#666666" points="321.5,-148 184,-148 184,-116 321.5,-116 321.5,-148"/>
<text xml:space="preserve" text-anchor="start" x="192" y="-134.5" font-family="Helvetica,sans-Serif" font-size="10.00">WebSocketSession::extract</text>
<text xml:space="preserve" text-anchor="middle" x="252.75" y="-122.5" font-family="Helvetica,sans-Serif" font-size="10.00">Action</text>
</a>
</g>
</g>
<!-- Node1&#45;&gt;Node3 -->
<g id="edge3_Node000001_Node000003" class="edge">
<title>Node1&#45;&gt;Node3</title>
<g id="a_edge3_Node000001_Node000003"><a xlink:title=" ">
<path fill="none" stroke="#63b8ff" d="M142.27,-132C152.14,-132 162.35,-132 172.37,-132"/>
<polygon fill="#63b8ff" stroke="#63b8ff" points="172.08,-135.5 182.08,-132 172.08,-128.5 172.08,-135.5"/>
</a>
</g>
</g>
<!-- Node4 -->
<g id="Node000004" class="node">
<title>Node4</title>
<g id="a_Node000004"><a xlink:href="class_web_socket_session.html#a606e227b631d765ac0191c0535df607f" target="_top" xlink:title="Check if a message is a JSON action (contains &quot;action&quot; key).">
<polygon fill="white" stroke="#666666" points="320.75,-98 184.75,-98 184.75,-66 320.75,-66 320.75,-98"/>
<text xml:space="preserve" text-anchor="start" x="192.75" y="-84.5" font-family="Helvetica,sans-Serif" font-size="10.00">WebSocketSession::isJson</text>
<text xml:space="preserve" text-anchor="middle" x="252.75" y="-72.5" font-family="Helvetica,sans-Serif" font-size="10.00">Action</text>
</a>
</g>
</g>
<!-- Node1&#45;&gt;Node4 -->
<g id="edge4_Node000001_Node000004" class="edge">
<title>Node1&#45;&gt;Node4</title>
<g id="a_edge4_Node000001_Node000004"><a xlink:title=" ">
<path fill="none" stroke="#63b8ff" d="M109.68,-121.52C130.48,-115.73 156.99,-108.36 181.46,-101.55"/>
<polygon fill="#63b8ff" stroke="#63b8ff" points="182.38,-104.93 191.08,-98.88 180.51,-98.18 182.38,-104.93"/>
</a>
</g>
</g>
<!-- Node5 -->
<g id="Node000005" class="node">
<title>Node5</title>
<g id="a_Node000005"><a xlink:href="class_web_socket_session.html#a2529887f34770366fc2c225bd085edba" target="_top" xlink:title="Send current database records to client as ASN.1 BER/TLV.">
<polygon fill="white" stroke="#666666" points="327.5,-48 178,-48 178,-28 327.5,-28 327.5,-48"/>
<text xml:space="preserve" text-anchor="middle" x="252.75" y="-34.5" font-family="Helvetica,sans-Serif" font-size="10.00">WebSocketSession::sendData</text>
</a>
</g>
</g>
<!-- Node1&#45;&gt;Node5 -->
<g id="edge5_Node000001_Node000005" class="edge">
<title>Node1&#45;&gt;Node5</title>
<g id="a_edge5_Node000001_Node000005"><a xlink:title=" ">
<path fill="none" stroke="#63b8ff" d="M83.51,-121.68C102.07,-105.56 140.37,-74.44 178,-57 181.94,-55.18 186.08,-53.51 190.3,-51.98"/>
<polygon fill="#63b8ff" stroke="#63b8ff" points="191.07,-55.42 199.47,-48.97 188.88,-48.77 191.07,-55.42"/>
</a>
</g>
</g>
<!-- Node2&#45;&gt;Node1 -->
<g id="edge2_Node000002_Node000001" class="edge">
<title>Node2&#45;&gt;Node1</title>
<g id="a_edge2_Node000002_Node000001"><a xlink:title=" ">
<path fill="none" stroke="#63b8ff" d="M543.56,-190.43C457.12,-191.16 306.03,-185.07 178,-166 150.23,-161.86 119.01,-154.11 97.69,-146.58"/>
<polygon fill="#63b8ff" stroke="#63b8ff" points="98.94,-143.31 88.35,-142.98 96.43,-149.84 98.94,-143.31"/>
</a>
</g>
</g>
<!-- Node6 -->
<g id="Node000006" class="node">
<title>Node6</title>
<g id="a_Node000006"><a xlink:href="namespaceasn__tlv.html#a03c61eaf7c30d4bb4e8f50d6cd2f5f03" target="_top" xlink:title="Encode SER records to ASN.1 BER/TLV format.">
<polygon fill="white" stroke="#666666" points="500.25,-32 363.5,-32 363.5,0 500.25,0 500.25,-32"/>
<text xml:space="preserve" text-anchor="start" x="371.5" y="-18.5" font-family="Helvetica,sans-Serif" font-size="10.00">asn_tlv::encodeSerRecords</text>
<text xml:space="preserve" text-anchor="middle" x="431.88" y="-6.5" font-family="Helvetica,sans-Serif" font-size="10.00">ToTlv</text>
</a>
</g>
</g>
<!-- Node5&#45;&gt;Node6 -->
<g id="edge6_Node000005_Node000006" class="edge">
<title>Node5&#45;&gt;Node6</title>
<g id="a_edge6_Node000005_Node000006"><a xlink:title=" ">
<path fill="none" stroke="#63b8ff" d="M327.84,-28.8C335.77,-27.81 343.85,-26.81 351.83,-25.82"/>
<polygon fill="#63b8ff" stroke="#63b8ff" points="352.02,-29.32 361.51,-24.62 351.16,-22.37 352.02,-29.32"/>
</a>
</g>
</g>
<!-- Node10 -->
<g id="Node000010" class="node">
<title>Node10</title>
<g id="a_Node000010"><a xlink:href="class_web_socket_session.html#a0fed81151d5dcbe23dbee79f1bf12c66" target="_top" xlink:title="Handle write completion.">
<polygon fill="white" stroke="#666666" points="490.88,-120 372.88,-120 372.88,-88 490.88,-88 490.88,-120"/>
<text xml:space="preserve" text-anchor="start" x="380.88" y="-106.5" font-family="Helvetica,sans-Serif" font-size="10.00">WebSocketSession::on</text>
<text xml:space="preserve" text-anchor="middle" x="431.88" y="-94.5" font-family="Helvetica,sans-Serif" font-size="10.00">_write</text>
</a>
</g>
</g>
<!-- Node5&#45;&gt;Node10 -->
<g id="edge11_Node000005_Node000010" class="edge">
<title>Node5&#45;&gt;Node10</title>
<g id="a_edge11_Node000005_Node000010"><a xlink:title=" ">
<path fill="none" stroke="#63b8ff" d="M299.8,-48.43C309.07,-50.93 318.67,-53.81 327.5,-57 344.14,-63.01 347.42,-66.62 363.5,-74 369.92,-76.94 376.69,-80.01 383.38,-83.01"/>
<polygon fill="#63b8ff" stroke="#63b8ff" points="381.8,-86.14 392.36,-87.03 384.66,-79.75 381.8,-86.14"/>
</a>
</g>
</g>
<!-- Node7 -->
<g id="Node000007" class="node">
<title>Node7</title>
<g id="a_Node000007"><a xlink:href="namespaceasn__tlv.html#a0cc9af3d4e8aba5f164c66bb47750767" target="_top" xlink:title="Append a string as a TLV structure.">
<polygon fill="white" stroke="#666666" points="677.5,-45 552,-45 552,-25 677.5,-25 677.5,-45"/>
<text xml:space="preserve" text-anchor="middle" x="614.75" y="-31.5" font-family="Helvetica,sans-Serif" font-size="10.00">asn_tlv::berAppendString</text>
</a>
</g>
</g>
<!-- Node6&#45;&gt;Node7 -->
<g id="edge7_Node000006_Node000007" class="edge">
<title>Node6&#45;&gt;Node7</title>
<g id="a_edge7_Node000006_Node000007"><a xlink:title=" ">
<path fill="none" stroke="#63b8ff" d="M500.74,-23.13C513.69,-24.49 527.3,-25.92 540.41,-27.3"/>
<polygon fill="#63b8ff" stroke="#63b8ff" points="539.95,-30.77 550.26,-28.33 540.68,-23.81 539.95,-30.77"/>
</a>
</g>
</g>
<!-- Node8 -->
<g id="Node000008" class="node">
<title>Node8</title>
<g id="a_Node000008"><a xlink:href="namespaceasn__tlv.html#a4a9f3333d71c851f9002020ffd417b18" target="_top" xlink:title="Append a complete TLV structure to an output buffer.">
<polygon fill="white" stroke="#666666" points="845,-42 731.5,-42 731.5,-22 845,-22 845,-42"/>
<text xml:space="preserve" text-anchor="middle" x="788.25" y="-28.5" font-family="Helvetica,sans-Serif" font-size="10.00">asn_tlv::berAppendTlv</text>
</a>
</g>
</g>
<!-- Node6&#45;&gt;Node8 -->
<g id="edge10_Node000006_Node000008" class="edge">
<title>Node6&#45;&gt;Node8</title>
<g id="a_edge10_Node000006_Node000008"><a xlink:title=" ">
<path fill="none" stroke="#63b8ff" d="M500.71,-12.88C553.34,-11.21 628.05,-10.49 693.25,-16 703.2,-16.84 713.67,-18.17 723.88,-19.72"/>
<polygon fill="#63b8ff" stroke="#63b8ff" points="723.32,-23.17 733.75,-21.3 724.43,-16.26 723.32,-23.17"/>
</a>
</g>
</g>
<!-- Node7&#45;&gt;Node8 -->
<g id="edge8_Node000007_Node000008" class="edge">
<title>Node7&#45;&gt;Node8</title>
<g id="a_edge8_Node000007_Node000008"><a xlink:title=" ">
<path fill="none" stroke="#63b8ff" d="M677.67,-33.92C691.31,-33.68 705.82,-33.42 719.68,-33.18"/>
<polygon fill="#63b8ff" stroke="#63b8ff" points="719.67,-36.68 729.61,-33.01 719.55,-29.68 719.67,-36.68"/>
</a>
</g>
</g>
<!-- Node9 -->
<g id="Node000009" class="node">
<title>Node9</title>
<g id="a_Node000009"><a xlink:href="namespaceasn__tlv.html#af1ae5498c52c5e99d18f2cd5cb4f2609" target="_top" xlink:title="Append BER length encoding to an output buffer.">
<polygon fill="white" stroke="#666666" points="1012.5,-42 883.25,-42 883.25,-22 1012.5,-22 1012.5,-42"/>
<text xml:space="preserve" text-anchor="middle" x="947.88" y="-28.5" font-family="Helvetica,sans-Serif" font-size="10.00">asn_tlv::berAppendLength</text>
</a>
</g>
</g>
<!-- Node8&#45;&gt;Node9 -->
<g id="edge9_Node000008_Node000009" class="edge">
<title>Node8&#45;&gt;Node9</title>
<g id="a_edge9_Node000008_Node000009"><a xlink:title=" ">
<path fill="none" stroke="#63b8ff" d="M845.27,-32C853.85,-32 862.83,-32 871.75,-32"/>
<polygon fill="#63b8ff" stroke="#63b8ff" points="871.47,-35.5 881.47,-32 871.47,-28.5 871.47,-35.5"/>
</a>
</g>
</g>
<!-- Node10&#45;&gt;Node2 -->
<g id="edge12_Node000010_Node000002" class="edge">
<title>Node10&#45;&gt;Node2</title>
<g id="a_edge12_Node000010_Node000002"><a xlink:title=" ">
<path fill="none" stroke="#63b8ff" d="M469.48,-120.39C501.8,-134.86 548.54,-155.8 579.98,-169.88"/>
<polygon fill="#63b8ff" stroke="#63b8ff" points="578.47,-173.04 589.03,-173.93 581.33,-166.65 578.47,-173.04"/>
</a>
</g>
</g>
<!-- Node11 -->
<g id="Node000011" class="node">
<title>Node11</title>
<g id="a_Node000011"><a xlink:href="class_web_socket_session.html#a124943db6c094918e372c94bfb7ec533" target="_top" xlink:title="Send the next queued message (if any).">
<polygon fill="white" stroke="#666666" points="693.25,-100 536.25,-100 536.25,-80 693.25,-80 693.25,-100"/>
<text xml:space="preserve" text-anchor="middle" x="614.75" y="-86.5" font-family="Helvetica,sans-Serif" font-size="10.00">WebSocketSession::drainQueue</text>
</a>
</g>
</g>
<!-- Node10&#45;&gt;Node11 -->
<g id="edge13_Node000010_Node000011" class="edge">
<title>Node10&#45;&gt;Node11</title>
<g id="a_edge13_Node000010_Node000011"><a xlink:title=" ">
<path fill="none" stroke="#63b8ff" d="M491.1,-99.49C501.79,-98.67 513.17,-97.79 524.52,-96.91"/>
<polygon fill="#63b8ff" stroke="#63b8ff" points="524.63,-100.41 534.33,-96.15 524.09,-93.43 524.63,-100.41"/>
</a>
</g>
</g>
<!-- Node11&#45;&gt;Node5 -->
<g id="edge16_Node000011_Node000005" class="edge">
<title>Node11&#45;&gt;Node5</title>
<g id="a_edge16_Node000011_Node000005"><a xlink:title=" ">
<path fill="none" stroke="#63b8ff" d="M541.14,-79.51C482.23,-71 399.13,-59 337.43,-50.09"/>
<polygon fill="#63b8ff" stroke="#63b8ff" points="338.06,-46.64 327.67,-48.68 337.06,-53.57 338.06,-46.64"/>
</a>
</g>
</g>
<!-- Node12 -->
<g id="Node000012" class="node">
<title>Node12</title>
<g id="a_Node000012"><a xlink:href="class_web_socket_session.html#afe8845301daa6254f51e87dd9dd4cc3d" target="_top" xlink:title="Handle broadcast write completion — drains pending queue.">
<polygon fill="white" stroke="#666666" points="847.25,-106 729.25,-106 729.25,-74 847.25,-74 847.25,-106"/>
<text xml:space="preserve" text-anchor="start" x="737.25" y="-92.5" font-family="Helvetica,sans-Serif" font-size="10.00">WebSocketSession::on</text>
<text xml:space="preserve" text-anchor="middle" x="788.25" y="-80.5" font-family="Helvetica,sans-Serif" font-size="10.00">_broadcast_write</text>
</a>
</g>
</g>
<!-- Node11&#45;&gt;Node12 -->
<g id="edge14_Node000011_Node000012" class="edge">
<title>Node11&#45;&gt;Node12</title>
<g id="a_edge14_Node000011_Node000012"><a xlink:title=" ">
<path fill="none" stroke="#63b8ff" d="M693.72,-83.27C701.69,-83.22 709.74,-83.25 717.61,-83.36"/>
<polygon fill="#63b8ff" stroke="#63b8ff" points="717.4,-86.85 727.46,-83.54 717.53,-79.85 717.4,-86.85"/>
</a>
</g>
</g>
<!-- Node12&#45;&gt;Node11 -->
<g id="edge15_Node000012_Node000011" class="edge">
<title>Node12&#45;&gt;Node11</title>
<g id="a_edge15_Node000012_Node000011"><a xlink:title=" ">
<path fill="none" stroke="#63b8ff" d="M728.98,-96.43C721.27,-96.62 713.23,-96.72 705.15,-96.74"/>
<polygon fill="#63b8ff" stroke="#63b8ff" points="705.24,-93.24 695.24,-96.73 705.23,-100.24 705.24,-93.24"/>
</a>
</g>
</g>
</g>
</svg>
