<?xml version="1.0" encoding="UTF-8" standalone="no"?>
<!DOCTYPE svg PUBLIC "-//W3C//DTD SVG 1.1//EN"
 "http://www.w3.org/Graphics/SVG/1.1/DTD/svg11.dtd">
<!-- Generated by graphviz version 14.1.1 (20251213.1925)
 -->
<!-- Title: ThreadManager Pages: 1 -->
<svg width="700pt" height="1483pt"
 viewBox="0.00 0.00 700.00 1483.00" xmlns="http://www.w3.org/2000/svg" xmlns:xlink="http://www.w3.org/1999/xlink">
<g id="graph0" class="graph" transform="scale(1 1) rotate(0) translate(4 1479)">
<title>ThreadManager</title>
<!-- Node1 -->
<g id="Node000001" class="node">
<title>Node1</title>
<g id="a_Node000001"><a xlink:title="Centralized thread management for the application.">
<polygon fill="#999999" stroke="none" points="597.5,-148 492.5,-148 492.5,0 597.5,0 597.5,-148"/>
<text xml:space="preserve" text-anchor="start" x="511.25" y="-134.5" font-family="Helvetica,sans-Serif" font-size="10.00">ThreadManager</text>
<text xml:space="preserve" text-anchor="start" x="543.5" y="-118.5" font-family="Helvetica,sans-Serif" font-size="10.00"> </text>
<text xml:space="preserve" text-anchor="start" x="496.5" y="-102.5" font-family="Helvetica,sans-Serif" font-size="10.00">+</text>
<text xml:space="preserve" text-anchor="start" x="506.5" y="-102.5" font-family="Helvetica,sans-Serif" font-size="10.00">ThreadManager()</text>
<text xml:space="preserve" text-anchor="start" x="496.5" y="-86.5" font-family="Helvetica,sans-Serif" font-size="10.00">+</text>
<text xml:space="preserve" text-anchor="start" x="506.5" y="-86.5" font-family="Helvetica,sans-Serif" font-size="10.00">setPollingCallback()</text>
<text xml:space="preserve" text-anchor="start" x="496.5" y="-70.5" font-family="Helvetica,sans-Serif" font-size="10.00">+</text>
<text xml:space="preserve" text-anchor="start" x="506.5" y="-70.5" font-family="Helvetica,sans-Serif" font-size="10.00">startAll()</text>
<text xml:space="preserve" text-anchor="start" x="496.5" y="-54.5" font-family="Helvetica,sans-Serif" font-size="10.00">+</text>
<text xml:space="preserve" text-anchor="start" x="506.5" y="-54.5" font-family="Helvetica,sans-Serif" font-size="10.00">stopAll()</text>
<text xml:space="preserve" text-anchor="start" x="496.5" y="-38.5" font-family="Helvetica,sans-Serif" font-size="10.00">+</text>
<text xml:space="preserve" text-anchor="start" x="506.5" y="-38.5" font-family="Helvetica,sans-Serif" font-size="10.00">getWriter()</text>
<text xml:space="preserve" text-anchor="start" x="496.5" y="-22.5" font-family="Helvetica,sans-Serif" font-size="10.00">+</text>
<text xml:space="preserve" text-anchor="start" x="506.5" y="-22.5" font-family="Helvetica,sans-Serif" font-size="10.00">getPoller()</text>
<text xml:space="preserve" text-anchor="start" x="496.5" y="-6.5" font-family="Helvetica,sans-Serif" font-size="10.00">+</text>
<text xml:space="preserve" text-anchor="start" x="506.5" y="-6.5" font-family="Helvetica,sans-Serif" font-size="10.00">isRunning()</text>
<polygon fill="#666666" stroke="#666666" points="492.5,-130 492.5,-130 597.5,-130 597.5,-130 492.5,-130"/>
<polygon fill="#666666" stroke="#666666" points="492.5,-114 492.5,-114 597.5,-114 597.5,-114 492.5,-114"/>
<polygon fill="none" stroke="#666666" points="492.5,0 492.5,-148 597.5,-148 597.5,0 492.5,0"/>
</a>
</g>
</g>
<!-- Node2 -->
<g id="Node000002" class="node">
<title>Node2</title>
<g id="a_Node000002"><a xlink:title=" ">
<polygon fill="white" stroke="none" points="428.75,-266 305.25,-266 305.25,-202 428.75,-202 428.75,-266"/>
<text xml:space="preserve" text-anchor="start" x="309.25" y="-252.5" font-family="Helvetica,sans-Serif" font-size="10.00">std::unique_ptr&lt; Database</text>
<text xml:space="preserve" text-anchor="start" x="349.75" y="-240.5" font-family="Helvetica,sans-Serif" font-size="10.00">Writer &gt;</text>
<text xml:space="preserve" text-anchor="start" x="365.5" y="-224.5" font-family="Helvetica,sans-Serif" font-size="10.00"> </text>
<text xml:space="preserve" text-anchor="start" x="323.06" y="-208.5" font-family="Helvetica,sans-Serif" font-size="10.00">+</text>
<text xml:space="preserve" text-anchor="start" x="346.88" y="-208.5" font-family="Helvetica,sans-Serif" font-size="10.00">operator&#45;&gt;()</text>
<polygon fill="#666666" stroke="#666666" points="305.25,-236 305.25,-236 428.75,-236 428.75,-236 305.25,-236"/>
<polygon fill="#666666" stroke="#666666" points="305.25,-220 305.25,-220 428.75,-220 428.75,-220 305.25,-220"/>
<polygon fill="none" stroke="#666666" points="305.25,-202 305.25,-266 428.75,-266 428.75,-202 305.25,-202"/>
</a>
</g>
</g>
<!-- Node2&#45;&gt;Node1 -->
<g id="edge1_Node000001_Node000002" class="edge">
<title>Node2&#45;&gt;Node1</title>
<g id="a_edge1_Node000001_Node000002"><a xlink:title=" ">
<path fill="none" stroke="#63b8ff" d="M401.74,-202.16C424.91,-181.6 456.01,-153.99 483.32,-129.75"/>
<polygon fill="none" stroke="#63b8ff" points="483.15,-129.9 484.98,-122.93 492.12,-121.94 490.29,-128.91 483.15,-129.9"/>
</a>
</g>
<text xml:space="preserve" text-anchor="start" x="443.06" y="-171.5" font-family="Helvetica,sans-Serif" font-size="10.00" fill="grey">&#45;db_writer_</text>
</g>
<!-- Node3 -->
<g id="Node000003" class="node">
<title>Node3</title>
<g id="a_Node000003"><a xlink:href="class_database_writer.html" target="_top" xlink:title="Asynchronous database writer thread.">
<polygon fill="white" stroke="none" points="351.25,-484 244.75,-484 244.75,-320 351.25,-320 351.25,-484"/>
<text xml:space="preserve" text-anchor="start" x="264.25" y="-470.5" font-family="Helvetica,sans-Serif" font-size="10.00">DatabaseWriter</text>
<text xml:space="preserve" text-anchor="start" x="296.5" y="-454.5" font-family="Helvetica,sans-Serif" font-size="10.00"> </text>
<text xml:space="preserve" text-anchor="start" x="248.75" y="-438.5" font-family="Helvetica,sans-Serif" font-size="10.00">+</text>
<text xml:space="preserve" text-anchor="start" x="258.75" y="-438.5" font-family="Helvetica,sans-Serif" font-size="10.00">DatabaseWriter()</text>
<text xml:space="preserve" text-anchor="start" x="248.75" y="-422.5" font-family="Helvetica,sans-Serif" font-size="10.00">+</text>
<text xml:space="preserve" text-anchor="start" x="258.75" y="-422.5" font-family="Helvetica,sans-Serif" font-size="10.00">~DatabaseWriter()</text>
<text xml:space="preserve" text-anchor="start" x="248.75" y="-406.5" font-family="Helvetica,sans-Serif" font-size="10.00">+</text>
<text xml:space="preserve" text-anchor="start" x="258.75" y="-406.5" font-family="Helvetica,sans-Serif" font-size="10.00">start()</text>
<text xml:space="preserve" text-anchor="start" x="248.75" y="-390.5" font-family="Helvetica,sans-Serif" font-size="10.00">+</text>
<text xml:space="preserve" text-anchor="start" x="258.75" y="-390.5" font-family="Helvetica,sans-Serif" font-size="10.00">stop()</text>
<text xml:space="preserve" text-anchor="start" x="248.75" y="-374.5" font-family="Helvetica,sans-Serif" font-size="10.00">+</text>
<text xml:space="preserve" text-anchor="start" x="258.75" y="-374.5" font-family="Helvetica,sans-Serif" font-size="10.00">queueRecord()</text>
<text xml:space="preserve" text-anchor="start" x="248.75" y="-358.5" font-family="Helvetica,sans-Serif" font-size="10.00">+</text>
<text xml:space="preserve" text-anchor="start" x="258.75" y="-358.5" font-family="Helvetica,sans-Serif" font-size="10.00">queueRecords()</text>
<text xml:space="preserve" text-anchor="start" x="248.75" y="-342.5" font-family="Helvetica,sans-Serif" font-size="10.00">+</text>
<text xml:space="preserve" text-anchor="start" x="258.75" y="-342.5" font-family="Helvetica,sans-Serif" font-size="10.00">getDatabaseMutex()</text>
<text xml:space="preserve" text-anchor="start" x="248.75" y="-326.5" font-family="Helvetica,sans-Serif" font-size="10.00">+</text>
<text xml:space="preserve" text-anchor="start" x="258.75" y="-326.5" font-family="Helvetica,sans-Serif" font-size="10.00">pendingWrites()</text>
<polygon fill="#666666" stroke="#666666" points="244.75,-466 244.75,-466 351.25,-466 351.25,-466 244.75,-466"/>
<polygon fill="#666666" stroke="#666666" points="244.75,-450 244.75,-450 351.25,-450 351.25,-450 244.75,-450"/>
<polygon fill="none" stroke="#666666" points="244.75,-320 244.75,-484 351.25,-484 351.25,-320 244.75,-320"/>
</a>
</g>
</g>
<!-- Node3&#45;&gt;Node2 -->
<g id="edge2_Node000002_Node000003" class="edge">
<title>Node3&#45;&gt;Node2</title>
<g id="a_edge2_Node000002_Node000003"><a xlink:title=" ">
<path fill="none" stroke="#63b8ff" d="M331.49,-320.43C337.63,-305.66 343.81,-290.78 349.26,-277.68"/>
<polygon fill="none" stroke="#63b8ff" points="349.28,-277.63 347.89,-270.55 353.89,-266.55 355.28,-273.62 349.28,-277.63"/>
</a>
</g>
<text xml:space="preserve" text-anchor="start" x="349.61" y="-289.5" font-family="Helvetica,sans-Serif" font-size="10.00" fill="grey">+ptr</text>
</g>
<!-- Node4 -->
<g id="Node000004" class="node">
<title>Node4</title>
<g id="a_Node000004"><a xlink:href="class_s_e_r_database.html" target="_top" xlink:title="SQLite database handler for storing and retrieving SER records.">
<polygon fill="white" stroke="none" points="138,-1086 0,-1086 0,-778 138,-778 138,-1086"/>
<text xml:space="preserve" text-anchor="start" x="37.5" y="-1072.5" font-family="Helvetica,sans-Serif" font-size="10.00">SERDatabase</text>
<text xml:space="preserve" text-anchor="start" x="5.5" y="-1056.5" font-family="Helvetica,sans-Serif" font-size="10.00">&#45;</text>
<text xml:space="preserve" text-anchor="start" x="14" y="-1056.5" font-family="Helvetica,sans-Serif" font-size="10.00">db_</text>
<text xml:space="preserve" text-anchor="start" x="4" y="-1040.5" font-family="Helvetica,sans-Serif" font-size="10.00">+</text>
<text xml:space="preserve" text-anchor="start" x="14" y="-1040.5" font-family="Helvetica,sans-Serif" font-size="10.00">SERDatabase()</text>
<text xml:space="preserve" text-anchor="start" x="4" y="-1024.5" font-family="Helvetica,sans-Serif" font-size="10.00">+</text>
<text xml:space="preserve" text-anchor="start" x="14" y="-1024.5" font-family="Helvetica,sans-Serif" font-size="10.00">~SERDatabase()</text>
<text xml:space="preserve" text-anchor="start" x="4" y="-1008.5" font-family="Helvetica,sans-Serif" font-size="10.00">+</text>
<text xml:space="preserve" text-anchor="start" x="14" y="-1008.5" font-family="Helvetica,sans-Serif" font-size="10.00">open()</text>
<text xml:space="preserve" text-anchor="start" x="4" y="-992.5" font-family="Helvetica,sans-Serif" font-size="10.00">+</text>
<text xml:space="preserve" text-anchor="start" x="14" y="-992.5" font-family="Helvetica,sans-Serif" font-size="10.00">close()</text>
<text xml:space="preserve" text-anchor="start" x="4" y="-976.5" font-family="Helvetica,sans-Serif" font-size="10.00">+</text>
<text xml:space="preserve" text-anchor="start" x="14" y="-976.5" font-family="Helvetica,sans-Serif" font-size="10.00">isOpen()</text>
<text xml:space="preserve" text-anchor="start" x="4" y="-960.5" font-family="Helvetica,sans-Serif" font-size="10.00">+</text>
<text xml:space="preserve" text-anchor="start" x="14" y="-960.5" font-family="Helvetica,sans-Serif" font-size="10.00">insertRecord()</text>
<text xml:space="preserve" text-anchor="start" x="4" y="-944.5" font-family="Helvetica,sans-Serif" font-size="10.00">+</text>
<text xml:space="preserve" text-anchor="start" x="14" y="-944.5" font-family="Helvetica,sans-Serif" font-size="10.00">insertRecords()</text>
<text xml:space="preserve" text-anchor="start" x="4" y="-928.5" font-family="Helvetica,sans-Serif" font-size="10.00">+</text>
<text xml:space="preserve" text-anchor="start" x="14" y="-928.5" font-family="Helvetica,sans-Serif" font-size="10.00">insertAndGetNewRecords()</text>
<text xml:space="preserve" text-anchor="start" x="4" y="-912.5" font-family="Helvetica,sans-Serif" font-size="10.00">+</text>
<text xml:space="preserve" text-anchor="start" x="14" y="-912.5" font-family="Helvetica,sans-Serif" font-size="10.00">getAllRecords()</text>
<text xml:space="preserve" text-anchor="start" x="4" y="-896.5" font-family="Helvetica,sans-Serif" font-size="10.00">+</text>
<text xml:space="preserve" text-anchor="start" x="14" y="-896.5" font-family="Helvetica,sans-Serif" font-size="10.00">getRecordsByStatus()</text>
<text xml:space="preserve" text-anchor="start" x="14" y="-880.5" font-family="Helvetica,sans-Serif" font-size="10.00">and 6 more...</text>
<text xml:space="preserve" text-anchor="start" x="4" y="-864.5" font-family="Helvetica,sans-Serif" font-size="10.00">+</text>
<text xml:space="preserve" text-anchor="start" x="14" y="-864.5" font-family="Helvetica,sans-Serif" font-size="10.00">SERDatabase()</text>
<text xml:space="preserve" text-anchor="start" x="4" y="-848.5" font-family="Helvetica,sans-Serif" font-size="10.00">+</text>
<text xml:space="preserve" text-anchor="start" x="14" y="-848.5" font-family="Helvetica,sans-Serif" font-size="10.00">operator=()</text>
<text xml:space="preserve" text-anchor="start" x="5.5" y="-832.5" font-family="Helvetica,sans-Serif" font-size="10.00">&#45;</text>
<text xml:space="preserve" text-anchor="start" x="14" y="-832.5" font-family="Helvetica,sans-Serif" font-size="10.00">createTable()</text>
<text xml:space="preserve" text-anchor="start" x="5.5" y="-816.5" font-family="Helvetica,sans-Serif" font-size="10.00">&#45;</text>
<text xml:space="preserve" text-anchor="start" x="14" y="-816.5" font-family="Helvetica,sans-Serif" font-size="10.00">recordExists()</text>
<text xml:space="preserve" text-anchor="start" x="5.12" y="-800.5" font-family="Helvetica,sans-Serif" font-size="10.00">*</text>
<text xml:space="preserve" text-anchor="start" x="14" y="-800.5" font-family="Helvetica,sans-Serif" font-size="10.00">SERDatabase()</text>
<text xml:space="preserve" text-anchor="start" x="5.12" y="-784.5" font-family="Helvetica,sans-Serif" font-size="10.00">*</text>
<text xml:space="preserve" text-anchor="start" x="14" y="-784.5" font-family="Helvetica,sans-Serif" font-size="10.00">operator=()</text>
<polygon fill="#666666" stroke="#666666" points="0,-1068 0,-1068 138,-1068 138,-1068 0,-1068"/>
<polygon fill="#666666" stroke="#666666" points="0,-1052 0,-1052 12,-1052 12,-1052 0,-1052"/>
<polygon fill="#666666" stroke="#666666" points="12,-1052 12,-1052 138,-1052 138,-1052 12,-1052"/>
<polygon fill="none" stroke="#666666" points="0,-778 0,-1086 138,-1086 138,-778 0,-778"/>
</a>
</g>
</g>
<!-- Node4&#45;&gt;Node3 -->
<g id="edge3_Node000003_Node000004" class="edge">
<title>Node4&#45;&gt;Node3</title>
<g id="a_edge3_Node000003_Node000004"><a xlink:title=" ">
<path fill="none" stroke="#63b8ff" d="M44.26,-778.1C39.39,-701.28 45.67,-609.57 87,-538 118.94,-482.68 183.7,-446.4 233.09,-425.52"/>
<polygon fill="none" stroke="#63b8ff" points="233.03,-425.55 237.07,-419.57 244.14,-421.01 240.09,-426.98 233.03,-425.55"/>
</a>
</g>
<text xml:space="preserve" text-anchor="start" x="48.87" y="-677.5" font-family="Helvetica,sans-Serif" font-size="10.00" fill="grey">&#45;db_</text>
</g>
<!-- Node5 -->
<g id="Node000005" class="node">
<title>Node5</title>
<g id="a_Node000005"><a xlink:title=" ">
<polygon fill="white" stroke="none" points="140.75,-1374 89.25,-1374 89.25,-1322 140.75,-1322 140.75,-1374"/>
<text xml:space="preserve" text-anchor="start" x="93.25" y="-1360.5" font-family="Helvetica,sans-Serif" font-size="10.00">std::string</text>
<text xml:space="preserve" text-anchor="start" x="113.5" y="-1344.5" font-family="Helvetica,sans-Serif" font-size="10.00"> </text>
<text xml:space="preserve" text-anchor="start" x="113.5" y="-1328.5" font-family="Helvetica,sans-Serif" font-size="10.00"> </text>
<polygon fill="#666666" stroke="#666666" points="89.25,-1356 89.25,-1356 140.75,-1356 140.75,-1356 89.25,-1356"/>
<polygon fill="#666666" stroke="#666666" points="89.25,-1340 89.25,-1340 140.75,-1340 140.75,-1340 89.25,-1340"/>
<polygon fill="none" stroke="#666666" points="89.25,-1322 89.25,-1374 140.75,-1374 140.75,-1322 89.25,-1322"/>
</a>
</g>
</g>
<!-- Node5&#45;&gt;Node4 -->
<g id="edge4_Node000004_Node000005" class="edge">
<title>Node5&#45;&gt;Node4</title>
<g id="a_edge4_Node000004_Node000005"><a xlink:title=" ">
<path fill="none" stroke="#63b8ff" d="M89.43,-1324.57C84.1,-1318.48 79.21,-1311.48 76.25,-1304 50.88,-1239.84 45.47,-1164.43 47.76,-1098.41"/>
<polygon fill="none" stroke="#63b8ff" points="47.75,-1098.66 44.01,-1092.5 48.26,-1086.67 52,-1092.84 47.75,-1098.66"/>
</a>
</g>
<text xml:space="preserve" text-anchor="start" x="79.25" y="-1259.5" font-family="Helvetica,sans-Serif" font-size="10.00" fill="grey">&#45;db_path_</text>
<text xml:space="preserve" text-anchor="start" x="79.25" y="-1243.5" font-family="Helvetica,sans-Serif" font-size="10.00" fill="grey">&#45;last_error_</text>
</g>
<!-- Node9 -->
<g id="Node000009" class="node">
<title>Node9</title>
<g id="a_Node000009"><a xlink:href="struct_s_e_r_record.html" target="_top" xlink:title="Structure representing a System Event Record (SER).">
<polygon fill="white" stroke="none" points="199.25,-1188 122.75,-1188 122.75,-1104 199.25,-1104 199.25,-1188"/>
<text xml:space="preserve" text-anchor="start" x="134.75" y="-1174.5" font-family="Helvetica,sans-Serif" font-size="10.00">SERRecord</text>
<text xml:space="preserve" text-anchor="start" x="159.5" y="-1158.5" font-family="Helvetica,sans-Serif" font-size="10.00"> </text>
<text xml:space="preserve" text-anchor="start" x="126.75" y="-1142.5" font-family="Helvetica,sans-Serif" font-size="10.00">+</text>
<text xml:space="preserve" text-anchor="start" x="136.75" y="-1142.5" font-family="Helvetica,sans-Serif" font-size="10.00">SERRecord()</text>
<text xml:space="preserve" text-anchor="start" x="126.75" y="-1126.5" font-family="Helvetica,sans-Serif" font-size="10.00">+</text>
<text xml:space="preserve" text-anchor="start" x="136.75" y="-1126.5" font-family="Helvetica,sans-Serif" font-size="10.00">SERRecord()</text>
<text xml:space="preserve" text-anchor="start" x="126.75" y="-1110.5" font-family="Helvetica,sans-Serif" font-size="10.00">+</text>
<text xml:space="preserve" text-anchor="start" x="136.75" y="-1110.5" font-family="Helvetica,sans-Serif" font-size="10.00">SERRecord()</text>
<polygon fill="#666666" stroke="#666666" points="122.75,-1170 122.75,-1170 199.25,-1170 199.25,-1170 122.75,-1170"/>
<polygon fill="#666666" stroke="#666666" points="122.75,-1154 122.75,-1154 199.25,-1154 199.25,-1154 122.75,-1154"/>
<polygon fill="none" stroke="#666666" points="122.75,-1104 122.75,-1188 199.25,-1188 199.25,-1104 122.75,-1104"/>
</a>
</g>
</g>
<!-- Node5&#45;&gt;Node9 -->
<g id="edge9_Node000009_Node000005" class="edge">
<title>Node5&#45;&gt;Node9</title>
<g id="a_edge9_Node000009_Node000005"><a xlink:title=" ">
<path fill="none" stroke="#63b8ff" d="M127.81,-1322.44C130.51,-1316.52 133.1,-1310.14 135,-1304 145.42,-1270.28 151.92,-1231.12 155.81,-1200.34"/>
<polygon fill="none" stroke="#63b8ff" points="155.79,-1200.51 152.53,-1194.08 157.21,-1188.6 160.47,-1195.03 155.79,-1200.51"/>
</a>
</g>
<text xml:space="preserve" text-anchor="start" x="157.85" y="-1291.5" font-family="Helvetica,sans-Serif" font-size="10.00" fill="grey">+description</text>
<text xml:space="preserve" text-anchor="start" x="157.85" y="-1275.5" font-family="Helvetica,sans-Serif" font-size="10.00" fill="grey">+record_id</text>
<text xml:space="preserve" text-anchor="start" x="157.85" y="-1259.5" font-family="Helvetica,sans-Serif" font-size="10.00" fill="grey">+relay_id</text>
<text xml:space="preserve" text-anchor="start" x="157.85" y="-1243.5" font-family="Helvetica,sans-Serif" font-size="10.00" fill="grey">+relay_name</text>
<text xml:space="preserve" text-anchor="start" x="157.85" y="-1227.5" font-family="Helvetica,sans-Serif" font-size="10.00" fill="grey">+status</text>
<text xml:space="preserve" text-anchor="start" x="157.85" y="-1211.5" font-family="Helvetica,sans-Serif" font-size="10.00" fill="grey">+timestamp</text>
</g>
<!-- Node6 -->
<g id="Node000006" class="node">
<title>Node6</title>
<g id="a_Node000006"><a xlink:title=" ">
<polygon fill="white" stroke="none" points="158,-1475 72,-1475 72,-1411 158,-1411 158,-1475"/>
<text xml:space="preserve" text-anchor="start" x="76" y="-1461.5" font-family="Helvetica,sans-Serif" font-size="10.00">std::basic_string&lt;</text>
<text xml:space="preserve" text-anchor="start" x="98.5" y="-1449.5" font-family="Helvetica,sans-Serif" font-size="10.00"> Char &gt;</text>
<text xml:space="preserve" text-anchor="start" x="113.5" y="-1433.5" font-family="Helvetica,sans-Serif" font-size="10.00"> </text>
<text xml:space="preserve" text-anchor="start" x="113.5" y="-1417.5" font-family="Helvetica,sans-Serif" font-size="10.00"> </text>
<polygon fill="#666666" stroke="#666666" points="72,-1445 72,-1445 158,-1445 158,-1445 72,-1445"/>
<polygon fill="#666666" stroke="#666666" points="72,-1429 72,-1429 158,-1429 158,-1429 72,-1429"/>
<polygon fill="none" stroke="#666666" points="72,-1411 72,-1475 158,-1475 158,-1411 72,-1411"/>
</a>
</g>
</g>
<!-- Node6&#45;&gt;Node5 -->
<g id="edge5_Node000005_Node000006" class="edge">
<title>Node6&#45;&gt;Node5</title>
<g id="a_edge5_Node000005_Node000006"><a xlink:title=" ">
<path fill="none" stroke="#63b8ff" d="M115,-1399.69C115,-1390.89 115,-1381.89 115,-1373.96"/>
<polygon fill="none" stroke="#63b8ff" points="111.5,-1399.52 115,-1409.52 118.5,-1399.52 111.5,-1399.52"/>
</a>
</g>
</g>
<!-- Node7 -->
<g id="Node000007" class="node">
<title>Node7</title>
<g id="a_Node000007"><a xlink:href="class_thread_safe_queue.html" target="_top" xlink:title=" ">
<polygon fill="white" stroke="none" points="253.62,-654 96.38,-654 96.38,-538 253.62,-538 253.62,-654"/>
<text xml:space="preserve" text-anchor="start" x="100.38" y="-640.5" font-family="Helvetica,sans-Serif" font-size="10.00">ThreadSafeQueue&lt; SERRecord &gt;</text>
<text xml:space="preserve" text-anchor="start" x="125.44" y="-624.5" font-family="Helvetica,sans-Serif" font-size="10.00">&#45;</text>
<text xml:space="preserve" text-anchor="start" x="157.5" y="-624.5" font-family="Helvetica,sans-Serif" font-size="10.00">cv_</text>
<text xml:space="preserve" text-anchor="start" x="123.94" y="-608.5" font-family="Helvetica,sans-Serif" font-size="10.00">+</text>
<text xml:space="preserve" text-anchor="start" x="157.5" y="-608.5" font-family="Helvetica,sans-Serif" font-size="10.00">push()</text>
<text xml:space="preserve" text-anchor="start" x="123.94" y="-592.5" font-family="Helvetica,sans-Serif" font-size="10.00">+</text>
<text xml:space="preserve" text-anchor="start" x="157.5" y="-592.5" font-family="Helvetica,sans-Serif" font-size="10.00">pop()</text>
<text xml:space="preserve" text-anchor="start" x="123.94" y="-576.5" font-family="Helvetica,sans-Serif" font-size="10.00">+</text>
<text xml:space="preserve" text-anchor="start" x="157.5" y="-576.5" font-family="Helvetica,sans-Serif" font-size="10.00">empty()</text>
<text xml:space="preserve" text-anchor="start" x="123.94" y="-560.5" font-family="Helvetica,sans-Serif" font-size="10.00">+</text>
<text xml:space="preserve" text-anchor="start" x="157.5" y="-560.5" font-family="Helvetica,sans-Serif" font-size="10.00">size()</text>
<text xml:space="preserve" text-anchor="start" x="123.94" y="-544.5" font-family="Helvetica,sans-Serif" font-size="10.00">+</text>
<text xml:space="preserve" text-anchor="start" x="157.5" y="-544.5" font-family="Helvetica,sans-Serif" font-size="10.00">notify_all()</text>
<polygon fill="#666666" stroke="#666666" points="96.38,-636 96.38,-636 253.62,-636 253.62,-636 96.38,-636"/>
<polygon fill="#666666" stroke="#666666" points="96.38,-620 96.38,-620 155.5,-620 155.5,-620 96.38,-620"/>
<polygon fill="#666666" stroke="#666666" points="155.5,-620 155.5,-620 253.62,-620 253.62,-620 155.5,-620"/>
<polygon fill="none" stroke="#666666" points="96.38,-538 96.38,-654 253.62,-654 253.62,-538 96.38,-538"/>
</a>
</g>
</g>
<!-- Node7&#45;&gt;Node3 -->
<g id="edge6_Node000003_Node000007" class="edge">
<title>Node7&#45;&gt;Node3</title>
<g id="a_edge6_Node000003_Node000007"><a xlink:title=" ">
<path fill="none" stroke="#63b8ff" d="M191.98,-538.34C196.75,-525.95 202.51,-513.2 209.25,-502 217.02,-489.1 226.59,-476.34 236.54,-464.5"/>
<polygon fill="none" stroke="#63b8ff" points="236.51,-464.53 237.41,-457.38 244.37,-455.46 243.46,-462.62 236.51,-464.53"/>
</a>
</g>
<text xml:space="preserve" text-anchor="start" x="212.25" y="-507.5" font-family="Helvetica,sans-Serif" font-size="10.00" fill="grey">&#45;write_queue_</text>
</g>
<!-- Node8 -->
<g id="Node000008" class="node">
<title>Node8</title>
<g id="a_Node000008"><a xlink:title=" ">
<polygon fill="white" stroke="none" points="229.12,-760 104.88,-760 104.88,-708 229.12,-708 229.12,-760"/>
<text xml:space="preserve" text-anchor="start" x="108.88" y="-746.5" font-family="Helvetica,sans-Serif" font-size="10.00">std::queue&lt; SERRecord &gt;</text>
<text xml:space="preserve" text-anchor="start" x="165.5" y="-730.5" font-family="Helvetica,sans-Serif" font-size="10.00"> </text>
<text xml:space="preserve" text-anchor="start" x="165.5" y="-714.5" font-family="Helvetica,sans-Serif" font-size="10.00"> </text>
<polygon fill="#666666" stroke="#666666" points="104.88,-742 104.88,-742 229.12,-742 229.12,-742 104.88,-742"/>
<polygon fill="#666666" stroke="#666666" points="104.88,-726 104.88,-726 229.12,-726 229.12,-726 104.88,-726"/>
<polygon fill="none" stroke="#666666" points="104.88,-708 104.88,-760 229.12,-760 229.12,-708 104.88,-708"/>
</a>
</g>
</g>
<!-- Node8&#45;&gt;Node7 -->
<g id="edge7_Node000007_Node000008" class="edge">
<title>Node8&#45;&gt;Node7</title>
<g id="a_edge7_Node000007_Node000008"><a xlink:title=" ">
<path fill="none" stroke="#63b8ff" d="M168.42,-708.07C169.05,-697.02 169.8,-683.86 170.5,-672 170.6,-670.26 170.71,-668.5 170.81,-666.72"/>
<polygon fill="none" stroke="#63b8ff" points="170.81,-666.8 167.17,-660.57 171.52,-654.82 175.15,-661.05 170.81,-666.8"/>
</a>
</g>
<text xml:space="preserve" text-anchor="start" x="173.5" y="-677.5" font-family="Helvetica,sans-Serif" font-size="10.00" fill="grey">&#45;queue_</text>
</g>
<!-- Node9&#45;&gt;Node8 -->
<g id="edge8_Node000008_Node000009" class="edge">
<title>Node9&#45;&gt;Node8</title>
<g id="a_edge8_Node000008_Node000009"><a xlink:title=" ">
<path fill="none" stroke="#63b8ff" d="M161.6,-1104.19C162.76,-1024.51 165.33,-849.33 166.45,-772.44"/>
<polygon fill="none" stroke="#63b8ff" points="166.45,-772.59 162.54,-766.53 166.63,-760.59 170.54,-766.65 166.45,-772.59"/>
</a>
</g>
<text xml:space="preserve" text-anchor="start" x="169.26" y="-928.5" font-family="Helvetica,sans-Serif" font-size="10.00" fill="grey">+elements</text>
</g>
<!-- Node10 -->
<g id="Node000010" class="node">
<title>Node10</title>
<g id="a_Node000010"><a xlink:title=" ">
<polygon fill="white" stroke="none" points="309.25,-760 254.75,-760 254.75,-708 309.25,-708 309.25,-760"/>
<text xml:space="preserve" text-anchor="start" x="258.75" y="-746.5" font-family="Helvetica,sans-Serif" font-size="10.00">std::mutex</text>
<text xml:space="preserve" text-anchor="start" x="280.5" y="-730.5" font-family="Helvetica,sans-Serif" font-size="10.00"> </text>
<text xml:space="preserve" text-anchor="start" x="280.5" y="-714.5" font-family="Helvetica,sans-Serif" font-size="10.00"> </text>
<polygon fill="#666666" stroke="#666666" points="254.75,-742 254.75,-742 309.25,-742 309.25,-742 254.75,-742"/>
<polygon fill="#666666" stroke="#666666" points="254.75,-726 254.75,-726 309.25,-726 309.25,-726 254.75,-726"/>
<polygon fill="none" stroke="#666666" points="254.75,-708 254.75,-760 309.25,-760 309.25,-708 254.75,-708"/>
</a>
</g>
</g>
<!-- Node10&#45;&gt;Node3 -->
<g id="edge13_Node000003_Node000010" class="edge">
<title>Node10&#45;&gt;Node3</title>
<g id="a_edge13_Node000003_Node000010"><a xlink:title=" ">
<path fill="none" stroke="#63b8ff" d="M283.2,-708.2C285.35,-663.87 289.96,-568.92 293.46,-496.62"/>
<polygon fill="none" stroke="#63b8ff" points="293.45,-496.75 289.75,-490.56 294.04,-484.76 297.74,-490.95 293.45,-496.75"/>
</a>
</g>
<text xml:space="preserve" text-anchor="start" x="294.33" y="-592.5" font-family="Helvetica,sans-Serif" font-size="10.00" fill="grey">&#45;db_mutex_</text>
</g>
<!-- Node10&#45;&gt;Node7 -->
<g id="edge10_Node000007_Node000010" class="edge">
<title>Node10&#45;&gt;Node7</title>
<g id="a_edge10_Node000007_Node000010"><a xlink:title=" ">
<path fill="none" stroke="#63b8ff" d="M254.82,-710.49C247.92,-704.19 240.76,-697.12 234.75,-690 228.06,-682.08 221.53,-673.36 215.39,-664.53"/>
<polygon fill="none" stroke="#63b8ff" points="215.33,-664.45 208.66,-661.71 208.62,-654.5 215.29,-657.24 215.33,-664.45"/>
</a>
</g>
<text xml:space="preserve" text-anchor="start" x="237.75" y="-677.5" font-family="Helvetica,sans-Serif" font-size="10.00" fill="grey">&#45;mutex_</text>
</g>
<!-- Node11 -->
<g id="Node000011" class="node">
<title>Node11</title>
<g id="a_Node000011"><a xlink:title=" ">
<polygon fill="white" stroke="none" points="432.25,-622 377.75,-622 377.75,-570 432.25,-570 432.25,-622"/>
<text xml:space="preserve" text-anchor="start" x="381.75" y="-608.5" font-family="Helvetica,sans-Serif" font-size="10.00">std::thread</text>
<text xml:space="preserve" text-anchor="start" x="403.5" y="-592.5" font-family="Helvetica,sans-Serif" font-size="10.00"> </text>
<text xml:space="preserve" text-anchor="start" x="403.5" y="-576.5" font-family="Helvetica,sans-Serif" font-size="10.00"> </text>
<polygon fill="#666666" stroke="#666666" points="377.75,-604 377.75,-604 432.25,-604 432.25,-604 377.75,-604"/>
<polygon fill="#666666" stroke="#666666" points="377.75,-588 377.75,-588 432.25,-588 432.25,-588 377.75,-588"/>
<polygon fill="none" stroke="#666666" points="377.75,-570 377.75,-622 432.25,-622 432.25,-570 377.75,-570"/>
</a>
</g>
</g>
<!-- Node11&#45;&gt;Node3 -->
<g id="edge11_Node000003_Node000011" class="edge">
<title>Node11&#45;&gt;Node3</title>
<g id="a_edge11_Node000003_Node000011"><a xlink:title=" ">
<path fill="none" stroke="#63b8ff" d="M383.49,-570C374,-559.6 362.42,-547.71 351,-538 340.15,-528.78 332.52,-531.76 324.5,-520 319.48,-512.63 315.39,-504.45 312.07,-495.95"/>
<polygon fill="none" stroke="#63b8ff" points="312.07,-495.94 306.34,-491.57 308.16,-484.6 313.9,-488.97 312.07,-495.94"/>
</a>
</g>
<text xml:space="preserve" text-anchor="start" x="327.5" y="-507.5" font-family="Helvetica,sans-Serif" font-size="10.00" fill="grey">&#45;writer_thread_</text>
</g>
<!-- Node14 -->
<g id="Node000014" class="node">
<title>Node14</title>
<g id="a_Node000014"><a xlink:href="class_s_e_r_poller.html" target="_top" xlink:title="Periodic SER data polling thread.">
<polygon fill="white" stroke="none" points="584.75,-484 505.25,-484 505.25,-320 584.75,-320 584.75,-484"/>
<text xml:space="preserve" text-anchor="start" x="522.12" y="-470.5" font-family="Helvetica,sans-Serif" font-size="10.00">SERPoller</text>
<text xml:space="preserve" text-anchor="start" x="510.75" y="-454.5" font-family="Helvetica,sans-Serif" font-size="10.00">&#45;</text>
<text xml:space="preserve" text-anchor="start" x="519.25" y="-454.5" font-family="Helvetica,sans-Serif" font-size="10.00">poll_interval_</text>
<text xml:space="preserve" text-anchor="start" x="510.75" y="-438.5" font-family="Helvetica,sans-Serif" font-size="10.00">&#45;</text>
<text xml:space="preserve" text-anchor="start" x="519.25" y="-438.5" font-family="Helvetica,sans-Serif" font-size="10.00">poll_callback_</text>
<text xml:space="preserve" text-anchor="start" x="509.25" y="-422.5" font-family="Helvetica,sans-Serif" font-size="10.00">+</text>
<text xml:space="preserve" text-anchor="start" x="519.25" y="-422.5" font-family="Helvetica,sans-Serif" font-size="10.00">SERPoller()</text>
<text xml:space="preserve" text-anchor="start" x="509.25" y="-406.5" font-family="Helvetica,sans-Serif" font-size="10.00">+</text>
<text xml:space="preserve" text-anchor="start" x="519.25" y="-406.5" font-family="Helvetica,sans-Serif" font-size="10.00">~SERPoller()</text>
<text xml:space="preserve" text-anchor="start" x="509.25" y="-390.5" font-family="Helvetica,sans-Serif" font-size="10.00">+</text>
<text xml:space="preserve" text-anchor="start" x="519.25" y="-390.5" font-family="Helvetica,sans-Serif" font-size="10.00">setCallback()</text>
<text xml:space="preserve" text-anchor="start" x="509.25" y="-374.5" font-family="Helvetica,sans-Serif" font-size="10.00">+</text>
<text xml:space="preserve" text-anchor="start" x="519.25" y="-374.5" font-family="Helvetica,sans-Serif" font-size="10.00">start()</text>
<text xml:space="preserve" text-anchor="start" x="509.25" y="-358.5" font-family="Helvetica,sans-Serif" font-size="10.00">+</text>
<text xml:space="preserve" text-anchor="start" x="519.25" y="-358.5" font-family="Helvetica,sans-Serif" font-size="10.00">stop()</text>
<text xml:space="preserve" text-anchor="start" x="509.25" y="-342.5" font-family="Helvetica,sans-Serif" font-size="10.00">+</text>
<text xml:space="preserve" text-anchor="start" x="519.25" y="-342.5" font-family="Helvetica,sans-Serif" font-size="10.00">isRunning()</text>
<text xml:space="preserve" text-anchor="start" x="509.25" y="-326.5" font-family="Helvetica,sans-Serif" font-size="10.00">+</text>
<text xml:space="preserve" text-anchor="start" x="519.25" y="-326.5" font-family="Helvetica,sans-Serif" font-size="10.00">setInterval()</text>
<polygon fill="#666666" stroke="#666666" points="505.25,-466 505.25,-466 584.75,-466 584.75,-466 505.25,-466"/>
<polygon fill="#666666" stroke="#666666" points="505.25,-434 505.25,-434 517.25,-434 517.25,-434 505.25,-434"/>
<polygon fill="#666666" stroke="#666666" points="517.25,-434 517.25,-434 584.75,-434 584.75,-434 517.25,-434"/>
<polygon fill="none" stroke="#666666" points="505.25,-320 505.25,-484 584.75,-484 584.75,-320 505.25,-320"/>
</a>
</g>
</g>
<!-- Node11&#45;&gt;Node14 -->
<g id="edge16_Node000014_Node000011" class="edge">
<title>Node11&#45;&gt;Node14</title>
<g id="a_edge16_Node000014_Node000011"><a xlink:title=" ">
<path fill="none" stroke="#63b8ff" d="M403.63,-570.06C403.66,-550.33 406.24,-522.75 418.25,-502 436.01,-471.31 467.35,-446.7 494.41,-429.7"/>
<polygon fill="none" stroke="#63b8ff" points="494.27,-429.78 497.34,-423.26 504.54,-423.57 501.48,-430.1 494.27,-429.78"/>
</a>
</g>
<text xml:space="preserve" text-anchor="start" x="421.25" y="-507.5" font-family="Helvetica,sans-Serif" font-size="10.00" fill="grey">&#45;poller_thread_</text>
</g>
<!-- Node12 -->
<g id="Node000012" class="node">
<title>Node12</title>
<g id="a_Node000012"><a xlink:title=" ">
<polygon fill="white" stroke="none" points="633.38,-622 540.62,-622 540.62,-570 633.38,-570 633.38,-622"/>
<text xml:space="preserve" text-anchor="start" x="544.62" y="-608.5" font-family="Helvetica,sans-Serif" font-size="10.00">std::atomic&lt; bool &gt;</text>
<text xml:space="preserve" text-anchor="start" x="560.5" y="-592.5" font-family="Helvetica,sans-Serif" font-size="10.00">+</text>
<text xml:space="preserve" text-anchor="start" x="586.38" y="-592.5" font-family="Helvetica,sans-Serif" font-size="10.00">ptr</text>
<text xml:space="preserve" text-anchor="start" x="585.5" y="-576.5" font-family="Helvetica,sans-Serif" font-size="10.00"> </text>
<polygon fill="#666666" stroke="#666666" points="540.62,-604 540.62,-604 633.38,-604 633.38,-604 540.62,-604"/>
<polygon fill="#666666" stroke="#666666" points="540.62,-588 540.62,-588 584.38,-588 584.38,-588 540.62,-588"/>
<polygon fill="#666666" stroke="#666666" points="584.38,-588 584.38,-588 633.38,-588 633.38,-588 584.38,-588"/>
<polygon fill="none" stroke="#666666" points="540.62,-570 540.62,-622 633.38,-622 633.38,-570 540.62,-570"/>
</a>
</g>
</g>
<!-- Node12&#45;&gt;Node1 -->
<g id="edge18_Node000001_Node000012" class="edge">
<title>Node12&#45;&gt;Node1</title>
<g id="a_edge18_Node000001_Node000012"><a xlink:title=" ">
<path fill="none" stroke="#63b8ff" d="M604.61,-570.3C613.53,-556.27 623.41,-537.97 628,-520 662.99,-383.04 661.41,-337.75 622,-202 617.66,-187.05 611.09,-172.09 603.57,-157.96"/>
<polygon fill="none" stroke="#63b8ff" points="603.65,-158.09 597.23,-154.79 597.81,-147.6 604.22,-150.9 603.65,-158.09"/>
</a>
</g>
<text xml:space="preserve" text-anchor="start" x="649.48" y="-289.5" font-family="Helvetica,sans-Serif" font-size="10.00" fill="grey">&#45;running_</text>
</g>
<!-- Node12&#45;&gt;Node3 -->
<g id="edge12_Node000003_Node000012" class="edge">
<title>Node12&#45;&gt;Node3</title>
<g id="a_edge12_Node000003_Node000012"><a xlink:title=" ">
<path fill="none" stroke="#63b8ff" d="M561.37,-570.23C534.77,-544.64 495.93,-507.63 488,-502 448.69,-474.1 400.49,-449.08 362.47,-431.17"/>
<polygon fill="none" stroke="#63b8ff" points="362.72,-431.28 355.6,-432.38 351.84,-426.22 358.97,-425.13 362.72,-431.28"/>
</a>
</g>
<text xml:space="preserve" text-anchor="start" x="510.49" y="-507.5" font-family="Helvetica,sans-Serif" font-size="10.00" fill="grey">&#45;stop_flag_</text>
</g>
<!-- Node12&#45;&gt;Node14 -->
<g id="edge17_Node000014_Node000012" class="edge">
<title>Node12&#45;&gt;Node14</title>
<g id="a_edge17_Node000014_Node000012"><a xlink:title=" ">
<path fill="none" stroke="#63b8ff" d="M581.6,-570.29C577.43,-551.23 571.38,-523.59 565.4,-496.24"/>
<polygon fill="none" stroke="#63b8ff" points="565.42,-496.33 560.23,-491.32 562.85,-484.6 568.04,-489.61 565.42,-496.33"/>
</a>
</g>
<text xml:space="preserve" text-anchor="start" x="572.76" y="-507.5" font-family="Helvetica,sans-Serif" font-size="10.00" fill="grey">&#45;stop_flag_</text>
</g>
<!-- Node13 -->
<g id="Node000013" class="node">
<title>Node13</title>
<g id="a_Node000013"><a xlink:title=" ">
<polygon fill="white" stroke="none" points="613.12,-260 476.88,-260 476.88,-208 613.12,-208 613.12,-260"/>
<text xml:space="preserve" text-anchor="start" x="480.88" y="-246.5" font-family="Helvetica,sans-Serif" font-size="10.00">std::unique_ptr&lt; SERPoller &gt;</text>
<text xml:space="preserve" text-anchor="start" x="543.5" y="-230.5" font-family="Helvetica,sans-Serif" font-size="10.00"> </text>
<text xml:space="preserve" text-anchor="start" x="497.88" y="-214.5" font-family="Helvetica,sans-Serif" font-size="10.00">+</text>
<text xml:space="preserve" text-anchor="start" x="524.88" y="-214.5" font-family="Helvetica,sans-Serif" font-size="10.00">operator&#45;&gt;()</text>
<polygon fill="#666666" stroke="#666666" points="476.88,-242 476.88,-242 613.12,-242 613.12,-242 476.88,-242"/>
<polygon fill="#666666" stroke="#666666" points="476.88,-226 476.88,-226 613.12,-226 613.12,-226 476.88,-226"/>
<polygon fill="none" stroke="#666666" points="476.88,-208 476.88,-260 613.12,-260 613.12,-208 476.88,-208"/>
</a>
</g>
</g>
<!-- Node13&#45;&gt;Node1 -->
<g id="edge14_Node000001_Node000013" class="edge">
<title>Node13&#45;&gt;Node1</title>
<g id="a_edge14_Node000001_Node000013"><a xlink:title=" ">
<path fill="none" stroke="#63b8ff" d="M545,-208.31C545,-195.25 545,-178.34 545,-160.98"/>
<polygon fill="none" stroke="#63b8ff" points="545,-160.89 541,-154.89 545,-148.89 549,-154.89 545,-160.89"/>
</a>
</g>
<text xml:space="preserve" text-anchor="start" x="548" y="-171.5" font-family="Helvetica,sans-Serif" font-size="10.00" fill="grey">&#45;poller_</text>
</g>
<!-- Node14&#45;&gt;Node13 -->
<g id="edge15_Node000013_Node000014" class="edge">
<title>Node14&#45;&gt;Node13</title>
<g id="a_edge15_Node000013_Node000014"><a xlink:title=" ">
<path fill="none" stroke="#63b8ff" d="M545,-320.43C545,-303.78 545,-287 545,-272.77"/>
<polygon fill="none" stroke="#63b8ff" points="545,-272.9 541,-266.9 545,-260.9 549,-266.9 545,-272.9"/>
</a>
</g>
<text xml:space="preserve" text-anchor="start" x="548" y="-289.5" font-family="Helvetica,sans-Serif" font-size="10.00" fill="grey">+ptr</text>
</g>
</g>
</svg>
