<?xml version="1.0" encoding="UTF-8" standalone="no"?>
<!DOCTYPE svg PUBLIC "-//W3C//DTD SVG 1.1//EN"
 "http://www.w3.org/Graphics/SVG/1.1/DTD/svg11.dtd">
<!-- Generated by graphviz version 14.1.2 (20260124.0452)
 -->
<!-- Title: RelayService::syncRelayTime Pages: 1 -->
<svg width="810pt" height="28pt"
 viewBox="0.00 0.00 810.00 28.00" xmlns="http://www.w3.org/2000/svg" xmlns:xlink="http://www.w3.org/1999/xlink">
<g id="graph0" class="graph" transform="scale(1 1) rotate(0) translate(4 24)">
<title>RelayService::syncRelayTime</title>
<!-- Node1 -->
<g id="Node000001" class="node">
<title>Node1</title>
<g id="a_Node000001"><a xlink:title="Send SETTIME command with the given datetime to the relay.">
<polygon fill="#999999" stroke="#666666" points="148.75,-20 0,-20 0,0 148.75,0 148.75,-20"/>
<text xml:space="preserve" text-anchor="middle" x="74.38" y="-6.5" font-family="Helvetica,sans-Serif" font-size="10.00">RelayService::syncRelayTime</text>
</a>
</g>
</g>
<!-- Node2 -->
<g id="Node000002" class="node">
<title>Node2</title>
<g id="a_Node000002"><a xlink:href="namespaceasn__date.html#a27b4dc67aa0799ad11cb2d32d2183ded" target="_top" xlink:title="Encode a datetime string as ASN.1 BER TLV with Tag 33.">
<polygon fill="white" stroke="#666666" points="325.25,-20 184.75,-20 184.75,0 325.25,0 325.25,-20"/>
<text xml:space="preserve" text-anchor="middle" x="255" y="-6.5" font-family="Helvetica,sans-Serif" font-size="10.00">asn_date::encodeASN1Date</text>
</a>
</g>
</g>
<!-- Node1&#45;&gt;Node2 -->
<g id="edge1_Node000001_Node000002" class="edge">
<title>Node1&#45;&gt;Node2</title>
<g id="a_edge1_Node000001_Node000002"><a xlink:title=" ">
<path fill="none" stroke="#63b8ff" d="M149.06,-10C157.03,-10 165.17,-10 173.22,-10"/>
<polygon fill="#63b8ff" stroke="#63b8ff" points="172.99,-13.5 182.99,-10 172.99,-6.5 172.99,-13.5"/>
</a>
</g>
</g>
<!-- Node3 -->
<g id="Node000003" class="node">
<title>Node3</title>
<g id="a_Node000003"><a xlink:href="namespaceasn__tlv.html#a0cc9af3d4e8aba5f164c66bb47750767" target="_top" xlink:title="Append a string as a TLV structure.">
<polygon fill="white" stroke="#666666" points="486.75,-20 361.25,-20 361.25,0 486.75,0 486.75,-20"/>
<text xml:space="preserve" text-anchor="middle" x="424" y="-6.5" font-family="Helvetica,sans-Serif" font-size="10.00">asn_tlv::berAppendString</text>
</a>
</g>
</g>
<!-- Node2&#45;&gt;Node3 -->
<g id="edge2_Node000002_Node000003" class="edge">
<title>Node2&#45;&gt;Node3</title>
<g id="a_edge2_Node000002_Node000003"><a xlink:title=" ">
<path fill="none" stroke="#63b8ff" d="M325.37,-10C333.35,-10 341.51,-10 349.54,-10"/>
<polygon fill="#63b8ff" stroke="#63b8ff" points="349.26,-13.5 359.26,-10 349.26,-6.5 349.26,-13.5"/>
</a>
</g>
</g>
<!-- Node4 -->
<g id="Node000004" class="node">
<title>Node4</title>
<g id="a_Node000004"><a xlink:href="namespaceasn__tlv.html#a4a9f3333d71c851f9002020ffd417b18" target="_top" xlink:title="Append a complete TLV structure to an output buffer.">
<polygon fill="white" stroke="#666666" points="636.25,-20 522.75,-20 522.75,0 636.25,0 636.25,-20"/>
<text xml:space="preserve" text-anchor="middle" x="579.5" y="-6.5" font-family="Helvetica,sans-Serif" font-size="10.00">asn_tlv::berAppendTlv</text>
</a>
</g>
</g>
<!-- Node3&#45;&gt;Node4 -->
<g id="edge3_Node000003_Node000004" class="edge">
<title>Node3&#45;&gt;Node4</title>
<g id="a_edge3_Node000003_Node000004"><a xlink:title=" ">
<path fill="none" stroke="#63b8ff" d="M486.99,-10C495.02,-10 503.28,-10 511.39,-10"/>
<polygon fill="#63b8ff" stroke="#63b8ff" points="511.2,-13.5 521.2,-10 511.2,-6.5 511.2,-13.5"/>
</a>
</g>
</g>
<!-- Node5 -->
<g id="Node000005" class="node">
<title>Node5</title>
<g id="a_Node000005"><a xlink:href="namespaceasn__tlv.html#af1ae5498c52c5e99d18f2cd5cb4f2609" target="_top" xlink:title="Append BER length encoding to an output buffer.">
<polygon fill="white" stroke="#666666" points="801.5,-20 672.25,-20 672.25,0 801.5,0 801.5,-20"/>
<text xml:space="preserve" text-anchor="middle" x="736.88" y="-6.5" font-family="Helvetica,sans-Serif" font-size="10.00">asn_tlv::berAppendLength</text>
</a>
</g>
</g>
<!-- Node4&#45;&gt;Node5 -->
<g id="edge4_Node000004_Node000005" class="edge">
<title>Node4&#45;&gt;Node5</title>
<g id="a_edge4_Node000004_Node000005"><a xlink:title=" ">
<path fill="none" stroke="#63b8ff" d="M636.59,-10C644.39,-10 652.51,-10 660.59,-10"/>
<polygon fill="#63b8ff" stroke="#63b8ff" points="660.44,-13.5 670.44,-10 660.44,-6.5 660.44,-13.5"/>
</a>
</g>
</g>
</g>
</svg>
