<?xml version="1.0" encoding="UTF-8" standalone="no"?>
<!DOCTYPE svg PUBLIC "-//W3C//DTD SVG 1.1//EN"
 "http://www.w3.org/Graphics/SVG/1.1/DTD/svg11.dtd">
<!-- Generated by graphviz version 14.1.2 (20260124.0452)
 -->
<!-- Title: TimeSyncManager Pages: 1 -->
<!--zoomable 879 -->

<svg id="main" version="1.1" xmlns="http://www.w3.org/2000/svg" xmlns:xlink="http://www.w3.org/1999/xlink" xml:space="preserve" onload="init(evt)">

<style type="text/css"><![CDATA[
.node, .edge {opacity: 0.7;}
.node.selected, .edge.selected {opacity: 1;}
.edge:hover path { stroke: red; }
.edge:hover polygon { stroke: red; fill: red; }
]]></style>

<defs>
  <circle id="rim" cx="0" cy="0" r="7"/>
  <circle id="rim2" cx="0" cy="0" r="3.5"/>
  <g id="zoomPlus">
    <use xlink:href="#rim" fill="#404040"><set attributeName="fill" to="#808080" begin="zoomplus.mouseover" end="zoomplus.mouseout"/></use>
    <path d="M-4,0h8M0,-4v8" fill="none" stroke="white" stroke-width="1.5" pointer-events="none"/>
  </g>
  <g id="zoomMin">
    <use xlink:href="#rim" fill="#404040"><set attributeName="fill" to="#808080" begin="zoomminus.mouseover" end="zoomminus.mouseout"/></use>
    <path d="M-4,0h8" fill="none" stroke="white" stroke-width="1.5" pointer-events="none"/>
  </g>
  <g id="arrowUp" transform="translate(30 24)">
    <use xlink:href="#rim"/>
    <path pointer-events="none" fill="none" stroke="white" stroke-width="1.5" d="M0,-3.0v7 M-2.5,-0.5L0,-3.0L2.5,-0.5"/>
  </g>
  <g id="arrowRight" transform="rotate(90) translate(36 -43)">
    <use xlink:href="#rim"/>
    <path pointer-events="none" fill="none" stroke="white" stroke-width="1.5" d="M0,-3.0v7 M-2.5,-0.5L0,-3.0L2.5,-0.5"/>
  </g>
  <g id="arrowDown" transform="rotate(180) translate(-30 -48)">
    <use xlink:href="#rim"/>
    <path pointer-events="none" fill="none" stroke="white" stroke-width="1.5" d="M0,-3.0v7 M-2.5,-0.5L0,-3.0L2.5,-0.5"/>
  </g>
  <g id="arrowLeft" transform="rotate(270) translate(-36 17)">
    <use xlink:href="#rim"/>
    <path pointer-events="none" fill="none" stroke="white" stroke-width="1.5" d="M0,-3.0v7 M-2.5,-0.5L0,-3.0L2.5,-0.5"/>
  </g>
  <g id="resetDef">
    <use xlink:href="#rim2" fill="#404040"><set attributeName="fill" to="#808080" begin="reset.mouseover" end="reset.mouseout"/></use>
  </g>
</defs>
<script type="application/ecmascript">
var viewWidth = 206;
var viewHeight = 879;
var sectionId = 'dynsection-0';
</script>
<script type="application/ecmascript" xlink:href="svg.min.js"/>
<svg id="graph" class="graph">
<g id="viewport">
<title>TimeSyncManager</title>
<!-- Node1 -->
<g id="Node000001" class="node">
<title>Node1</title>
<g id="a_Node000001"><a xlink:title="High&#45;level orchestrator for DATE synchronization.">
<polygon fill="#999999" stroke="none" points="169.12,-180 63.38,-180 63.38,0 169.12,0 169.12,-180"/>
<text xml:space="preserve" text-anchor="start" x="75.38" y="-166.5" font-family="Helvetica,sans-Serif" font-size="10.00">TimeSyncManager</text>
<text xml:space="preserve" text-anchor="start" x="114.75" y="-150.5" font-family="Helvetica,sans-Serif" font-size="10.00"> </text>
<text xml:space="preserve" text-anchor="start" x="67.38" y="-134.5" font-family="Helvetica,sans-Serif" font-size="10.00">+</text>
<text xml:space="preserve" text-anchor="start" x="77.38" y="-134.5" font-family="Helvetica,sans-Serif" font-size="10.00">TimeSyncManager()</text>
<text xml:space="preserve" text-anchor="start" x="67.38" y="-118.5" font-family="Helvetica,sans-Serif" font-size="10.00">+</text>
<text xml:space="preserve" text-anchor="start" x="77.38" y="-118.5" font-family="Helvetica,sans-Serif" font-size="10.00">handleAction()</text>
<text xml:space="preserve" text-anchor="start" x="67.38" y="-102.5" font-family="Helvetica,sans-Serif" font-size="10.00">+</text>
<text xml:space="preserve" text-anchor="start" x="77.38" y="-102.5" font-family="Helvetica,sans-Serif" font-size="10.00">getLocalPCTime()</text>
<text xml:space="preserve" text-anchor="start" x="67.38" y="-86.5" font-family="Helvetica,sans-Serif" font-size="10.00">+</text>
<text xml:space="preserve" text-anchor="start" x="77.38" y="-86.5" font-family="Helvetica,sans-Serif" font-size="10.00">compareTime()</text>
<text xml:space="preserve" text-anchor="start" x="68.88" y="-70.5" font-family="Helvetica,sans-Serif" font-size="10.00">&#45;</text>
<text xml:space="preserve" text-anchor="start" x="77.38" y="-70.5" font-family="Helvetica,sans-Serif" font-size="10.00">handleReadTime()</text>
<text xml:space="preserve" text-anchor="start" x="68.88" y="-54.5" font-family="Helvetica,sans-Serif" font-size="10.00">&#45;</text>
<text xml:space="preserve" text-anchor="start" x="77.38" y="-54.5" font-family="Helvetica,sans-Serif" font-size="10.00">handleSyncTime()</text>
<text xml:space="preserve" text-anchor="start" x="68.88" y="-38.5" font-family="Helvetica,sans-Serif" font-size="10.00">&#45;</text>
<text xml:space="preserve" text-anchor="start" x="77.38" y="-38.5" font-family="Helvetica,sans-Serif" font-size="10.00">parseToTimePoint()</text>
<text xml:space="preserve" text-anchor="start" x="68.88" y="-22.5" font-family="Helvetica,sans-Serif" font-size="10.00">&#45;</text>
<text xml:space="preserve" text-anchor="start" x="77.38" y="-22.5" font-family="Helvetica,sans-Serif" font-size="10.00">escapeJson()</text>
<text xml:space="preserve" text-anchor="start" x="68.88" y="-6.5" font-family="Helvetica,sans-Serif" font-size="10.00">&#45;</text>
<text xml:space="preserve" text-anchor="start" x="77.38" y="-6.5" font-family="Helvetica,sans-Serif" font-size="10.00">buildErrorJson()</text>
<polygon fill="#666666" stroke="#666666" points="63.38,-162 63.38,-162 169.12,-162 169.12,-162 63.38,-162"/>
<polygon fill="#666666" stroke="#666666" points="63.38,-146 63.38,-146 169.12,-146 169.12,-146 63.38,-146"/>
<polygon fill="none" stroke="#666666" points="63.38,0 63.38,-180 169.12,-180 169.12,0 63.38,0"/>
</a>
</g>
</g>
<!-- Node2 -->
<g id="Node000002" class="node">
<title>Node2</title>
<g id="a_Node000002"><a xlink:href="class_relay_service.html" target="_top" xlink:title="Thread&#45;safe wrapper around TelnetClient for DATE operations.">
<polygon fill="white" stroke="none" points="174,-350 58.5,-350 58.5,-234 174,-234 174,-350"/>
<text xml:space="preserve" text-anchor="start" x="87" y="-336.5" font-family="Helvetica,sans-Serif" font-size="10.00">RelayService</text>
<text xml:space="preserve" text-anchor="start" x="114.75" y="-320.5" font-family="Helvetica,sans-Serif" font-size="10.00"> </text>
<text xml:space="preserve" text-anchor="start" x="62.5" y="-304.5" font-family="Helvetica,sans-Serif" font-size="10.00">+</text>
<text xml:space="preserve" text-anchor="start" x="72.5" y="-304.5" font-family="Helvetica,sans-Serif" font-size="10.00">RelayService()</text>
<text xml:space="preserve" text-anchor="start" x="62.5" y="-288.5" font-family="Helvetica,sans-Serif" font-size="10.00">+</text>
<text xml:space="preserve" text-anchor="start" x="72.5" y="-288.5" font-family="Helvetica,sans-Serif" font-size="10.00">readRelayTime()</text>
<text xml:space="preserve" text-anchor="start" x="62.5" y="-272.5" font-family="Helvetica,sans-Serif" font-size="10.00">+</text>
<text xml:space="preserve" text-anchor="start" x="72.5" y="-272.5" font-family="Helvetica,sans-Serif" font-size="10.00">syncRelayTime()</text>
<text xml:space="preserve" text-anchor="start" x="62.5" y="-256.5" font-family="Helvetica,sans-Serif" font-size="10.00">+</text>
<text xml:space="preserve" text-anchor="start" x="72.5" y="-256.5" font-family="Helvetica,sans-Serif" font-size="10.00">sendRelayCommand()</text>
<text xml:space="preserve" text-anchor="start" x="64" y="-240.5" font-family="Helvetica,sans-Serif" font-size="10.00">&#45;</text>
<text xml:space="preserve" text-anchor="start" x="72.5" y="-240.5" font-family="Helvetica,sans-Serif" font-size="10.00">cleanRelayText()</text>
<polygon fill="#666666" stroke="#666666" points="58.5,-332 58.5,-332 174,-332 174,-332 58.5,-332"/>
<polygon fill="#666666" stroke="#666666" points="58.5,-316 58.5,-316 174,-316 174,-316 58.5,-316"/>
<polygon fill="none" stroke="#666666" points="58.5,-234 58.5,-350 174,-350 174,-234 58.5,-234"/>
</a>
</g>
</g>
<!-- Node2&#45;&gt;Node1 -->
<g id="edge1_Node000001_Node000002" class="edge">
<title>Node2&#45;&gt;Node1</title>
<g id="a_edge1_Node000001_Node000002"><a xlink:title=" ">
<path fill="none" stroke="#63b8ff" d="M116.25,-234.22C116.25,-221.09 116.25,-206.73 116.25,-192.33"/>
<polygon fill="none" stroke="#63b8ff" points="116.25,-192.6 112.25,-186.6 116.25,-180.6 120.25,-186.6 116.25,-192.6"/>
</a>
</g>
<text xml:space="preserve" text-anchor="start" x="119.25" y="-203.5" font-family="Helvetica,sans-Serif" font-size="10.00" fill="grey">&#45;relay_</text>
</g>
<!-- Node3 -->
<g id="Node000003" class="node">
<title>Node3</title>
<g id="a_Node000003"><a xlink:href="class_telnet_client.html" target="_top" xlink:title="TCP/Telnet client for substation relay communication.">
<polygon fill="white" stroke="none" points="124.5,-664 0,-664 0,-404 124.5,-404 124.5,-664"/>
<text xml:space="preserve" text-anchor="start" x="36.38" y="-650.5" font-family="Helvetica,sans-Serif" font-size="10.00">TelnetClient</text>
<text xml:space="preserve" text-anchor="start" x="5.5" y="-634.5" font-family="Helvetica,sans-Serif" font-size="10.00">&#45;</text>
<text xml:space="preserve" text-anchor="start" x="14" y="-634.5" font-family="Helvetica,sans-Serif" font-size="10.00">io_</text>
<text xml:space="preserve" text-anchor="start" x="5.5" y="-618.5" font-family="Helvetica,sans-Serif" font-size="10.00">&#45;</text>
<text xml:space="preserve" text-anchor="start" x="14" y="-618.5" font-family="Helvetica,sans-Serif" font-size="10.00">socket_</text>
<text xml:space="preserve" text-anchor="start" x="5.5" y="-602.5" font-family="Helvetica,sans-Serif" font-size="10.00">&#45;</text>
<text xml:space="preserve" text-anchor="start" x="14" y="-602.5" font-family="Helvetica,sans-Serif" font-size="10.00">connected_</text>
<text xml:space="preserve" text-anchor="start" x="5.5" y="-586.5" font-family="Helvetica,sans-Serif" font-size="10.00">&#45;</text>
<text xml:space="preserve" text-anchor="start" x="14" y="-586.5" font-family="Helvetica,sans-Serif" font-size="10.00">last_io_ok_</text>
<text xml:space="preserve" text-anchor="start" x="5.5" y="-570.5" font-family="Helvetica,sans-Serif" font-size="10.00">&#45;</text>
<text xml:space="preserve" text-anchor="start" x="14" y="-570.5" font-family="Helvetica,sans-Serif" font-size="10.00">io_timeout_</text>
<text xml:space="preserve" text-anchor="start" x="4" y="-554.5" font-family="Helvetica,sans-Serif" font-size="10.00">+</text>
<text xml:space="preserve" text-anchor="start" x="14" y="-554.5" font-family="Helvetica,sans-Serif" font-size="10.00">TelnetClient()</text>
<text xml:space="preserve" text-anchor="start" x="4" y="-538.5" font-family="Helvetica,sans-Serif" font-size="10.00">+</text>
<text xml:space="preserve" text-anchor="start" x="14" y="-538.5" font-family="Helvetica,sans-Serif" font-size="10.00">connectCheck()</text>
<text xml:space="preserve" text-anchor="start" x="4" y="-522.5" font-family="Helvetica,sans-Serif" font-size="10.00">+</text>
<text xml:space="preserve" text-anchor="start" x="14" y="-522.5" font-family="Helvetica,sans-Serif" font-size="10.00">isConnected()</text>
<text xml:space="preserve" text-anchor="start" x="4" y="-506.5" font-family="Helvetica,sans-Serif" font-size="10.00">+</text>
<text xml:space="preserve" text-anchor="start" x="14" y="-506.5" font-family="Helvetica,sans-Serif" font-size="10.00">SendCmdReceiveData()</text>
<text xml:space="preserve" text-anchor="start" x="4" y="-490.5" font-family="Helvetica,sans-Serif" font-size="10.00">+</text>
<text xml:space="preserve" text-anchor="start" x="14" y="-490.5" font-family="Helvetica,sans-Serif" font-size="10.00">LoginLevel1Function()</text>
<text xml:space="preserve" text-anchor="start" x="4" y="-474.5" font-family="Helvetica,sans-Serif" font-size="10.00">+</text>
<text xml:space="preserve" text-anchor="start" x="14" y="-474.5" font-family="Helvetica,sans-Serif" font-size="10.00">getLastResponse()</text>
<text xml:space="preserve" text-anchor="start" x="4" y="-458.5" font-family="Helvetica,sans-Serif" font-size="10.00">+</text>
<text xml:space="preserve" text-anchor="start" x="14" y="-458.5" font-family="Helvetica,sans-Serif" font-size="10.00">getLastIoResult()</text>
<text xml:space="preserve" text-anchor="start" x="4" y="-442.5" font-family="Helvetica,sans-Serif" font-size="10.00">+</text>
<text xml:space="preserve" text-anchor="start" x="14" y="-442.5" font-family="Helvetica,sans-Serif" font-size="10.00">clearLastResponse()</text>
<text xml:space="preserve" text-anchor="start" x="5.5" y="-426.5" font-family="Helvetica,sans-Serif" font-size="10.00">&#45;</text>
<text xml:space="preserve" text-anchor="start" x="14" y="-426.5" font-family="Helvetica,sans-Serif" font-size="10.00">isResponseComplete()</text>
<text xml:space="preserve" text-anchor="start" x="5.5" y="-410.5" font-family="Helvetica,sans-Serif" font-size="10.00">&#45;</text>
<text xml:space="preserve" text-anchor="start" x="14" y="-410.5" font-family="Helvetica,sans-Serif" font-size="10.00">endsWithPrompt()</text>
<polygon fill="#666666" stroke="#666666" points="0,-646 0,-646 124.5,-646 124.5,-646 0,-646"/>
<polygon fill="#666666" stroke="#666666" points="0,-566 0,-566 12,-566 12,-566 0,-566"/>
<polygon fill="#666666" stroke="#666666" points="12,-566 12,-566 124.5,-566 124.5,-566 12,-566"/>
<polygon fill="none" stroke="#666666" points="0,-404 0,-664 124.5,-664 124.5,-404 0,-404"/>
</a>
</g>
</g>
<!-- Node3&#45;&gt;Node2 -->
<g id="edge2_Node000002_Node000003" class="edge">
<title>Node3&#45;&gt;Node2</title>
<g id="a_edge2_Node000002_Node000003"><a xlink:title=" ">
<path fill="none" stroke="#63b8ff" d="M91.23,-404.22C94.47,-389.81 97.67,-375.57 100.65,-362.33"/>
<polygon fill="none" stroke="#63b8ff" points="100.6,-362.57 98.01,-355.84 103.23,-350.86 105.82,-357.59 100.6,-362.57"/>
</a>
</g>
<text xml:space="preserve" text-anchor="start" x="101.78" y="-373.5" font-family="Helvetica,sans-Serif" font-size="10.00" fill="grey">&#45;client_</text>
</g>
<!-- Node4 -->
<g id="Node000004" class="node">
<title>Node4</title>
<g id="a_Node000004"><a xlink:title=" ">
<polygon fill="white" stroke="none" points="88,-770 36.5,-770 36.5,-718 88,-718 88,-770"/>
<text xml:space="preserve" text-anchor="start" x="40.5" y="-756.5" font-family="Helvetica,sans-Serif" font-size="10.00">std::string</text>
<text xml:space="preserve" text-anchor="start" x="60.75" y="-740.5" font-family="Helvetica,sans-Serif" font-size="10.00"> </text>
<text xml:space="preserve" text-anchor="start" x="60.75" y="-724.5" font-family="Helvetica,sans-Serif" font-size="10.00"> </text>
<polygon fill="#666666" stroke="#666666" points="36.5,-752 36.5,-752 88,-752 88,-752 36.5,-752"/>
<polygon fill="#666666" stroke="#666666" points="36.5,-736 36.5,-736 88,-736 88,-736 36.5,-736"/>
<polygon fill="none" stroke="#666666" points="36.5,-718 36.5,-770 88,-770 88,-718 36.5,-718"/>
</a>
</g>
</g>
<!-- Node4&#45;&gt;Node3 -->
<g id="edge3_Node000003_Node000004" class="edge">
<title>Node4&#45;&gt;Node3</title>
<g id="a_edge3_Node000003_Node000004"><a xlink:title=" ">
<path fill="none" stroke="#63b8ff" d="M62.25,-718.32C62.25,-706.94 62.25,-692.45 62.25,-676.61"/>
<polygon fill="none" stroke="#63b8ff" points="62.25,-676.55 58.25,-670.55 62.25,-664.55 66.25,-670.55 62.25,-676.55"/>
</a>
</g>
<text xml:space="preserve" text-anchor="start" x="65.25" y="-687.5" font-family="Helvetica,sans-Serif" font-size="10.00" fill="grey">&#45;last_response_</text>
</g>
<!-- Node5 -->
<g id="Node000005" class="node">
<title>Node5</title>
<g id="a_Node000005"><a xlink:title=" ">
<polygon fill="white" stroke="none" points="105.25,-871 19.25,-871 19.25,-807 105.25,-807 105.25,-871"/>
<text xml:space="preserve" text-anchor="start" x="23.25" y="-857.5" font-family="Helvetica,sans-Serif" font-size="10.00">std::basic_string&lt;</text>
<text xml:space="preserve" text-anchor="start" x="45.75" y="-845.5" font-family="Helvetica,sans-Serif" font-size="10.00"> Char &gt;</text>
<text xml:space="preserve" text-anchor="start" x="60.75" y="-829.5" font-family="Helvetica,sans-Serif" font-size="10.00"> </text>
<text xml:space="preserve" text-anchor="start" x="60.75" y="-813.5" font-family="Helvetica,sans-Serif" font-size="10.00"> </text>
<polygon fill="#666666" stroke="#666666" points="19.25,-841 19.25,-841 105.25,-841 105.25,-841 19.25,-841"/>
<polygon fill="#666666" stroke="#666666" points="19.25,-825 19.25,-825 105.25,-825 105.25,-825 19.25,-825"/>
<polygon fill="none" stroke="#666666" points="19.25,-807 19.25,-871 105.25,-871 105.25,-807 19.25,-807"/>
</a>
</g>
</g>
<!-- Node5&#45;&gt;Node4 -->
<g id="edge4_Node000004_Node000005" class="edge">
<title>Node5&#45;&gt;Node4</title>
<g id="a_edge4_Node000004_Node000005"><a xlink:title=" ">
<path fill="none" stroke="#63b8ff" d="M62.25,-795.69C62.25,-786.89 62.25,-777.89 62.25,-769.96"/>
<polygon fill="none" stroke="#63b8ff" points="58.75,-795.52 62.25,-805.52 65.75,-795.52 58.75,-795.52"/>
</a>
</g>
</g>
<!-- Node6 -->
<g id="Node000006" class="node">
<title>Node6</title>
<g id="a_Node000006"><a xlink:title=" ">
<polygon fill="white" stroke="none" points="197.5,-560 143,-560 143,-508 197.5,-508 197.5,-560"/>
<text xml:space="preserve" text-anchor="start" x="147" y="-546.5" font-family="Helvetica,sans-Serif" font-size="10.00">std::mutex</text>
<text xml:space="preserve" text-anchor="start" x="168.75" y="-530.5" font-family="Helvetica,sans-Serif" font-size="10.00"> </text>
<text xml:space="preserve" text-anchor="start" x="168.75" y="-514.5" font-family="Helvetica,sans-Serif" font-size="10.00"> </text>
<polygon fill="#666666" stroke="#666666" points="143,-542 143,-542 197.5,-542 197.5,-542 143,-542"/>
<polygon fill="#666666" stroke="#666666" points="143,-526 143,-526 197.5,-526 197.5,-526 143,-526"/>
<polygon fill="none" stroke="#666666" points="143,-508 143,-560 197.5,-560 197.5,-508 143,-508"/>
</a>
</g>
</g>
<!-- Node6&#45;&gt;Node2 -->
<g id="edge5_Node000002_Node000006" class="edge">
<title>Node6&#45;&gt;Node2</title>
<g id="a_edge5_Node000002_Node000006"><a xlink:title=" ">
<path fill="none" stroke="#63b8ff" d="M166.77,-508.19C161.97,-475.71 152.53,-417.15 140.25,-368 139.76,-366.04 139.25,-364.06 138.72,-362.06"/>
<polygon fill="none" stroke="#63b8ff" points="138.73,-362.12 133.26,-357.42 135.49,-350.57 140.96,-355.26 138.73,-362.12"/>
</a>
</g>
<text xml:space="preserve" text-anchor="start" x="147.46" y="-373.5" font-family="Helvetica,sans-Serif" font-size="10.00" fill="grey">&#45;mutex_</text>
</g>
</g>
</svg>

<g id="navigator" transform="translate(0 0)" fill="#404254">
  <rect fill="#f2f5e9" fill-opacity="0.5" stroke="#606060" stroke-width=".5" x="0" y="0" width="60" height="60"/>
  <use id="zoomplus" xlink:href="#zoomPlus" x="17" y="9" onmousedown="handleZoom(evt,'in')"/>
  <use id="zoomminus" xlink:href="#zoomMin" x="42" y="9" onmousedown="handleZoom(evt,'out')"/>
  <use id="reset" xlink:href="#resetDef" x="30" y="36" onmousedown="handleReset()"/>
   <use id="arrowup" xlink:href="#arrowUp" x="0" y="0" onmousedown="handlePan(0,-1)"/>
  <use id="arrowright" xlink:href="#arrowRight" x="0" y="0" onmousedown="handlePan(1,0)"/>
  <use id="arrowdown" xlink:href="#arrowDown" x="0" y="0" onmousedown="handlePan(0,1)"/>
  <use id="arrowleft" xlink:href="#arrowLeft" x="0" y="0" onmousedown="handlePan(-1,0)"/>
</g>
<svg viewBox="0 0 15 15" width="100%" height="30px" preserveAspectRatio="xMaxYMin meet">
 <g id="arrow_out" transform="scale(0.3 0.3)">
  <a xlink:href="class_time_sync_manager__coll__graph_org.svg" target="_base">
   <rect id="button" ry="5" rx="5" y="6" x="6" height="38" width="38"
        fill="#f2f5e9" fill-opacity="0.5" stroke="#606060" stroke-width="1.0"/>
   <path id="arrow"
     d="M 11.500037,31.436501 C 11.940474,20.09759 22.043105,11.32322 32.158766,21.979434 L 37.068811,17.246167 C 37.068811,17.246167 37.088388,32 37.088388,32 L 22.160133,31.978069 C 22.160133,31.978069 26.997745,27.140456 26.997745,27.140456 C 18.528582,18.264221 13.291696,25.230495 11.500037,31.436501 z"
     style="fill:#404040;"/>
  </a>
 </g>
</svg>

<style type='text/css'>
<![CDATA[
[data-mouse-over-selected='false'] { opacity: 0.7; }
[data-mouse-over-selected='true']  { opacity: 1.0; }
]]>
</style>
<script type="application/ecmascript"><![CDATA[
document.addEventListener('DOMContentLoaded', (event) => {
  highlightEdges();
  highlightAdjacentNodes();
});
]]></script>
</svg>
