<?xml version="1.0" encoding="UTF-8" standalone="no"?>
<!DOCTYPE svg PUBLIC "-//W3C//DTD SVG 1.1//EN"
 "http://www.w3.org/Graphics/SVG/1.1/DTD/svg11.dtd">
<!-- Generated by graphviz version 14.1.2 (20260124.0452)
 -->
<!-- Title: DatabaseWriter Pages: 1 -->
<svg width="488pt" height="1163pt"
 viewBox="0.00 0.00 488.00 1163.00" xmlns="http://www.w3.org/2000/svg" xmlns:xlink="http://www.w3.org/1999/xlink">
<g id="graph0" class="graph" transform="scale(1 1) rotate(0) translate(4 1159)">
<title>DatabaseWriter</title>
<!-- Node1 -->
<g id="Node000001" class="node">
<title>Node1</title>
<g id="a_Node000001"><a xlink:title="Asynchronous database writer thread.">
<polygon fill="#999999" stroke="none" points="269.62,-164 163.12,-164 163.12,0 269.62,0 269.62,-164"/>
<text xml:space="preserve" text-anchor="start" x="182.62" y="-150.5" font-family="Helvetica,sans-Serif" font-size="10.00">DatabaseWriter</text>
<text xml:space="preserve" text-anchor="start" x="214.88" y="-134.5" font-family="Helvetica,sans-Serif" font-size="10.00"> </text>
<text xml:space="preserve" text-anchor="start" x="167.12" y="-118.5" font-family="Helvetica,sans-Serif" font-size="10.00">+</text>
<text xml:space="preserve" text-anchor="start" x="177.12" y="-118.5" font-family="Helvetica,sans-Serif" font-size="10.00">DatabaseWriter()</text>
<text xml:space="preserve" text-anchor="start" x="167.12" y="-102.5" font-family="Helvetica,sans-Serif" font-size="10.00">+</text>
<text xml:space="preserve" text-anchor="start" x="177.12" y="-102.5" font-family="Helvetica,sans-Serif" font-size="10.00">~DatabaseWriter()</text>
<text xml:space="preserve" text-anchor="start" x="167.12" y="-86.5" font-family="Helvetica,sans-Serif" font-size="10.00">+</text>
<text xml:space="preserve" text-anchor="start" x="177.12" y="-86.5" font-family="Helvetica,sans-Serif" font-size="10.00">start()</text>
<text xml:space="preserve" text-anchor="start" x="167.12" y="-70.5" font-family="Helvetica,sans-Serif" font-size="10.00">+</text>
<text xml:space="preserve" text-anchor="start" x="177.12" y="-70.5" font-family="Helvetica,sans-Serif" font-size="10.00">stop()</text>
<text xml:space="preserve" text-anchor="start" x="167.12" y="-54.5" font-family="Helvetica,sans-Serif" font-size="10.00">+</text>
<text xml:space="preserve" text-anchor="start" x="177.12" y="-54.5" font-family="Helvetica,sans-Serif" font-size="10.00">queueRecord()</text>
<text xml:space="preserve" text-anchor="start" x="167.12" y="-38.5" font-family="Helvetica,sans-Serif" font-size="10.00">+</text>
<text xml:space="preserve" text-anchor="start" x="177.12" y="-38.5" font-family="Helvetica,sans-Serif" font-size="10.00">queueRecords()</text>
<text xml:space="preserve" text-anchor="start" x="167.12" y="-22.5" font-family="Helvetica,sans-Serif" font-size="10.00">+</text>
<text xml:space="preserve" text-anchor="start" x="177.12" y="-22.5" font-family="Helvetica,sans-Serif" font-size="10.00">getDatabaseMutex()</text>
<text xml:space="preserve" text-anchor="start" x="167.12" y="-6.5" font-family="Helvetica,sans-Serif" font-size="10.00">+</text>
<text xml:space="preserve" text-anchor="start" x="177.12" y="-6.5" font-family="Helvetica,sans-Serif" font-size="10.00">pendingWrites()</text>
<polygon fill="#666666" stroke="#666666" points="163.12,-146 163.12,-146 269.62,-146 269.62,-146 163.12,-146"/>
<polygon fill="#666666" stroke="#666666" points="163.12,-130 163.12,-130 269.62,-130 269.62,-130 163.12,-130"/>
<polygon fill="none" stroke="#666666" points="163.12,0 163.12,-164 269.62,-164 269.62,0 163.12,0"/>
</a>
</g>
</g>
<!-- Node2 -->
<g id="Node000002" class="node">
<title>Node2</title>
<g id="a_Node000002"><a xlink:href="class_s_e_r_database.html" target="_top" xlink:title="SQLite database handler for storing and retrieving SER records.">
<polygon fill="white" stroke="none" points="114.75,-814 0,-814 0,-458 114.75,-458 114.75,-814"/>
<text xml:space="preserve" text-anchor="start" x="25.88" y="-800.5" font-family="Helvetica,sans-Serif" font-size="10.00">SERDatabase</text>
<text xml:space="preserve" text-anchor="start" x="5.5" y="-784.5" font-family="Helvetica,sans-Serif" font-size="10.00">&#45;</text>
<text xml:space="preserve" text-anchor="start" x="14" y="-784.5" font-family="Helvetica,sans-Serif" font-size="10.00">db_</text>
<text xml:space="preserve" text-anchor="start" x="4" y="-768.5" font-family="Helvetica,sans-Serif" font-size="10.00">+</text>
<text xml:space="preserve" text-anchor="start" x="14" y="-768.5" font-family="Helvetica,sans-Serif" font-size="10.00">SERDatabase()</text>
<text xml:space="preserve" text-anchor="start" x="4" y="-752.5" font-family="Helvetica,sans-Serif" font-size="10.00">+</text>
<text xml:space="preserve" text-anchor="start" x="14" y="-752.5" font-family="Helvetica,sans-Serif" font-size="10.00">~SERDatabase()</text>
<text xml:space="preserve" text-anchor="start" x="4" y="-736.5" font-family="Helvetica,sans-Serif" font-size="10.00">+</text>
<text xml:space="preserve" text-anchor="start" x="14" y="-736.5" font-family="Helvetica,sans-Serif" font-size="10.00">open()</text>
<text xml:space="preserve" text-anchor="start" x="4" y="-720.5" font-family="Helvetica,sans-Serif" font-size="10.00">+</text>
<text xml:space="preserve" text-anchor="start" x="14" y="-720.5" font-family="Helvetica,sans-Serif" font-size="10.00">close()</text>
<text xml:space="preserve" text-anchor="start" x="4" y="-704.5" font-family="Helvetica,sans-Serif" font-size="10.00">+</text>
<text xml:space="preserve" text-anchor="start" x="14" y="-704.5" font-family="Helvetica,sans-Serif" font-size="10.00">isOpen()</text>
<text xml:space="preserve" text-anchor="start" x="4" y="-688.5" font-family="Helvetica,sans-Serif" font-size="10.00">+</text>
<text xml:space="preserve" text-anchor="start" x="14" y="-688.5" font-family="Helvetica,sans-Serif" font-size="10.00">insertRecord()</text>
<text xml:space="preserve" text-anchor="start" x="4" y="-672.5" font-family="Helvetica,sans-Serif" font-size="10.00">+</text>
<text xml:space="preserve" text-anchor="start" x="14" y="-672.5" font-family="Helvetica,sans-Serif" font-size="10.00">insertRecords()</text>
<text xml:space="preserve" text-anchor="start" x="4" y="-656.5" font-family="Helvetica,sans-Serif" font-size="10.00">+</text>
<text xml:space="preserve" text-anchor="start" x="14" y="-656.5" font-family="Helvetica,sans-Serif" font-size="10.00">getAllRecords()</text>
<text xml:space="preserve" text-anchor="start" x="4" y="-640.5" font-family="Helvetica,sans-Serif" font-size="10.00">+</text>
<text xml:space="preserve" text-anchor="start" x="14" y="-640.5" font-family="Helvetica,sans-Serif" font-size="10.00">getRecordsByStatus()</text>
<text xml:space="preserve" text-anchor="start" x="4" y="-624.5" font-family="Helvetica,sans-Serif" font-size="10.00">+</text>
<text xml:space="preserve" text-anchor="start" x="14" y="-624.5" font-family="Helvetica,sans-Serif" font-size="10.00">getRecordCount()</text>
<text xml:space="preserve" text-anchor="start" x="4" y="-608.5" font-family="Helvetica,sans-Serif" font-size="10.00">+</text>
<text xml:space="preserve" text-anchor="start" x="14" y="-608.5" font-family="Helvetica,sans-Serif" font-size="10.00">clearAllRecords()</text>
<text xml:space="preserve" text-anchor="start" x="4" y="-592.5" font-family="Helvetica,sans-Serif" font-size="10.00">+</text>
<text xml:space="preserve" text-anchor="start" x="14" y="-592.5" font-family="Helvetica,sans-Serif" font-size="10.00">exportToJSON()</text>
<text xml:space="preserve" text-anchor="start" x="4" y="-576.5" font-family="Helvetica,sans-Serif" font-size="10.00">+</text>
<text xml:space="preserve" text-anchor="start" x="14" y="-576.5" font-family="Helvetica,sans-Serif" font-size="10.00">getLastError()</text>
<text xml:space="preserve" text-anchor="start" x="4" y="-560.5" font-family="Helvetica,sans-Serif" font-size="10.00">+</text>
<text xml:space="preserve" text-anchor="start" x="14" y="-560.5" font-family="Helvetica,sans-Serif" font-size="10.00">getDbHandle()</text>
<text xml:space="preserve" text-anchor="start" x="4" y="-544.5" font-family="Helvetica,sans-Serif" font-size="10.00">+</text>
<text xml:space="preserve" text-anchor="start" x="14" y="-544.5" font-family="Helvetica,sans-Serif" font-size="10.00">SERDatabase()</text>
<text xml:space="preserve" text-anchor="start" x="4" y="-528.5" font-family="Helvetica,sans-Serif" font-size="10.00">+</text>
<text xml:space="preserve" text-anchor="start" x="14" y="-528.5" font-family="Helvetica,sans-Serif" font-size="10.00">operator=()</text>
<text xml:space="preserve" text-anchor="start" x="5.5" y="-512.5" font-family="Helvetica,sans-Serif" font-size="10.00">&#45;</text>
<text xml:space="preserve" text-anchor="start" x="14" y="-512.5" font-family="Helvetica,sans-Serif" font-size="10.00">createTable()</text>
<text xml:space="preserve" text-anchor="start" x="5.5" y="-496.5" font-family="Helvetica,sans-Serif" font-size="10.00">&#45;</text>
<text xml:space="preserve" text-anchor="start" x="14" y="-496.5" font-family="Helvetica,sans-Serif" font-size="10.00">recordExists()</text>
<text xml:space="preserve" text-anchor="start" x="5.12" y="-480.5" font-family="Helvetica,sans-Serif" font-size="10.00">*</text>
<text xml:space="preserve" text-anchor="start" x="14" y="-480.5" font-family="Helvetica,sans-Serif" font-size="10.00">SERDatabase()</text>
<text xml:space="preserve" text-anchor="start" x="5.12" y="-464.5" font-family="Helvetica,sans-Serif" font-size="10.00">*</text>
<text xml:space="preserve" text-anchor="start" x="14" y="-464.5" font-family="Helvetica,sans-Serif" font-size="10.00">operator=()</text>
<polygon fill="#666666" stroke="#666666" points="0,-796 0,-796 114.75,-796 114.75,-796 0,-796"/>
<polygon fill="#666666" stroke="#666666" points="0,-780 0,-780 12,-780 12,-780 0,-780"/>
<polygon fill="#666666" stroke="#666666" points="12,-780 12,-780 114.75,-780 114.75,-780 12,-780"/>
<polygon fill="none" stroke="#666666" points="0,-458 0,-814 114.75,-814 114.75,-458 0,-458"/>
</a>
</g>
</g>
<!-- Node2&#45;&gt;Node1 -->
<g id="edge1_Node000001_Node000002" class="edge">
<title>Node2&#45;&gt;Node1</title>
<g id="a_edge1_Node000001_Node000002"><a xlink:title=" ">
<path fill="none" stroke="#63b8ff" d="M31.9,-458.14C27.23,-382.44 30.24,-294.14 55.38,-218 70.73,-171.5 114.25,-136.64 152.18,-114.01"/>
<polygon fill="none" stroke="#63b8ff" points="152.03,-114.09 155.24,-107.63 162.44,-108.11 159.23,-114.57 152.03,-114.09"/>
</a>
</g>
<text xml:space="preserve" text-anchor="start" x="34.32" y="-357.5" font-family="Helvetica,sans-Serif" font-size="10.00" fill="grey">&#45;db_</text>
</g>
<!-- Node3 -->
<g id="Node000003" class="node">
<title>Node3</title>
<g id="a_Node000003"><a xlink:title=" ">
<polygon fill="white" stroke="none" points="123.12,-1054 71.62,-1054 71.62,-1002 123.12,-1002 123.12,-1054"/>
<text xml:space="preserve" text-anchor="start" x="75.62" y="-1040.5" font-family="Helvetica,sans-Serif" font-size="10.00">std::string</text>
<text xml:space="preserve" text-anchor="start" x="95.88" y="-1024.5" font-family="Helvetica,sans-Serif" font-size="10.00"> </text>
<text xml:space="preserve" text-anchor="start" x="95.88" y="-1008.5" font-family="Helvetica,sans-Serif" font-size="10.00"> </text>
<polygon fill="#666666" stroke="#666666" points="71.62,-1036 71.62,-1036 123.12,-1036 123.12,-1036 71.62,-1036"/>
<polygon fill="#666666" stroke="#666666" points="71.62,-1020 71.62,-1020 123.12,-1020 123.12,-1020 71.62,-1020"/>
<polygon fill="none" stroke="#666666" points="71.62,-1002 71.62,-1054 123.12,-1054 123.12,-1002 71.62,-1002"/>
</a>
</g>
</g>
<!-- Node3&#45;&gt;Node2 -->
<g id="edge2_Node000002_Node000003" class="edge">
<title>Node3&#45;&gt;Node2</title>
<g id="a_edge2_Node000002_Node000003"><a xlink:title=" ">
<path fill="none" stroke="#63b8ff" d="M71.92,-1007.15C65.35,-1000.57 59.14,-992.68 55.62,-984 35.8,-935.13 29.74,-879.12 30.35,-826.55"/>
<polygon fill="none" stroke="#63b8ff" points="30.35,-826.52 26.48,-820.44 30.61,-814.53 34.48,-820.61 30.35,-826.52"/>
</a>
</g>
<text xml:space="preserve" text-anchor="start" x="58.62" y="-955.5" font-family="Helvetica,sans-Serif" font-size="10.00" fill="grey">&#45;db_path_</text>
<text xml:space="preserve" text-anchor="start" x="58.62" y="-939.5" font-family="Helvetica,sans-Serif" font-size="10.00" fill="grey">&#45;last_error_</text>
</g>
<!-- Node7 -->
<g id="Node000007" class="node">
<title>Node7</title>
<g id="a_Node000007"><a xlink:href="struct_s_e_r_record.html" target="_top" xlink:title="Structure representing a System Event Record (SER).">
<polygon fill="white" stroke="none" points="184.62,-900 108.12,-900 108.12,-832 184.62,-832 184.62,-900"/>
<text xml:space="preserve" text-anchor="start" x="120.12" y="-886.5" font-family="Helvetica,sans-Serif" font-size="10.00">SERRecord</text>
<text xml:space="preserve" text-anchor="start" x="144.88" y="-870.5" font-family="Helvetica,sans-Serif" font-size="10.00"> </text>
<text xml:space="preserve" text-anchor="start" x="112.12" y="-854.5" font-family="Helvetica,sans-Serif" font-size="10.00">+</text>
<text xml:space="preserve" text-anchor="start" x="122.12" y="-854.5" font-family="Helvetica,sans-Serif" font-size="10.00">SERRecord()</text>
<text xml:space="preserve" text-anchor="start" x="112.12" y="-838.5" font-family="Helvetica,sans-Serif" font-size="10.00">+</text>
<text xml:space="preserve" text-anchor="start" x="122.12" y="-838.5" font-family="Helvetica,sans-Serif" font-size="10.00">SERRecord()</text>
<polygon fill="#666666" stroke="#666666" points="108.12,-882 108.12,-882 184.62,-882 184.62,-882 108.12,-882"/>
<polygon fill="#666666" stroke="#666666" points="108.12,-866 108.12,-866 184.62,-866 184.62,-866 108.12,-866"/>
<polygon fill="none" stroke="#666666" points="108.12,-832 108.12,-900 184.62,-900 184.62,-832 108.12,-832"/>
</a>
</g>
</g>
<!-- Node3&#45;&gt;Node7 -->
<g id="edge7_Node000007_Node000003" class="edge">
<title>Node3&#45;&gt;Node7</title>
<g id="a_edge7_Node000007_Node000003"><a xlink:title=" ">
<path fill="none" stroke="#63b8ff" d="M107.73,-1002.16C110.04,-996.25 112.4,-989.94 114.38,-984 122.16,-960.65 129.51,-934.22 135.19,-912.4"/>
<polygon fill="none" stroke="#63b8ff" points="135.22,-912.31 132.83,-905.51 138.2,-900.69 140.58,-907.5 135.22,-912.31"/>
</a>
</g>
<text xml:space="preserve" text-anchor="start" x="136" y="-971.5" font-family="Helvetica,sans-Serif" font-size="10.00" fill="grey">+description</text>
<text xml:space="preserve" text-anchor="start" x="136" y="-955.5" font-family="Helvetica,sans-Serif" font-size="10.00" fill="grey">+record_id</text>
<text xml:space="preserve" text-anchor="start" x="136" y="-939.5" font-family="Helvetica,sans-Serif" font-size="10.00" fill="grey">+status</text>
<text xml:space="preserve" text-anchor="start" x="136" y="-923.5" font-family="Helvetica,sans-Serif" font-size="10.00" fill="grey">+timestamp</text>
</g>
<!-- Node4 -->
<g id="Node000004" class="node">
<title>Node4</title>
<g id="a_Node000004"><a xlink:title=" ">
<polygon fill="white" stroke="none" points="140.38,-1155 54.38,-1155 54.38,-1091 140.38,-1091 140.38,-1155"/>
<text xml:space="preserve" text-anchor="start" x="58.38" y="-1141.5" font-family="Helvetica,sans-Serif" font-size="10.00">std::basic_string&lt;</text>
<text xml:space="preserve" text-anchor="start" x="80.88" y="-1129.5" font-family="Helvetica,sans-Serif" font-size="10.00"> Char &gt;</text>
<text xml:space="preserve" text-anchor="start" x="95.88" y="-1113.5" font-family="Helvetica,sans-Serif" font-size="10.00"> </text>
<text xml:space="preserve" text-anchor="start" x="95.88" y="-1097.5" font-family="Helvetica,sans-Serif" font-size="10.00"> </text>
<polygon fill="#666666" stroke="#666666" points="54.38,-1125 54.38,-1125 140.38,-1125 140.38,-1125 54.38,-1125"/>
<polygon fill="#666666" stroke="#666666" points="54.38,-1109 54.38,-1109 140.38,-1109 140.38,-1109 54.38,-1109"/>
<polygon fill="none" stroke="#666666" points="54.38,-1091 54.38,-1155 140.38,-1155 140.38,-1091 54.38,-1091"/>
</a>
</g>
</g>
<!-- Node4&#45;&gt;Node3 -->
<g id="edge3_Node000003_Node000004" class="edge">
<title>Node4&#45;&gt;Node3</title>
<g id="a_edge3_Node000003_Node000004"><a xlink:title=" ">
<path fill="none" stroke="#63b8ff" d="M97.38,-1079.69C97.38,-1070.89 97.38,-1061.89 97.38,-1053.96"/>
<polygon fill="none" stroke="#63b8ff" points="93.88,-1079.52 97.38,-1089.52 100.88,-1079.52 93.88,-1079.52"/>
</a>
</g>
</g>
<!-- Node5 -->
<g id="Node000005" class="node">
<title>Node5</title>
<g id="a_Node000005"><a xlink:href="class_thread_safe_queue.html" target="_top" xlink:title=" ">
<polygon fill="white" stroke="none" points="295,-334 137.75,-334 137.75,-218 295,-218 295,-334"/>
<text xml:space="preserve" text-anchor="start" x="141.75" y="-320.5" font-family="Helvetica,sans-Serif" font-size="10.00">ThreadSafeQueue&lt; SERRecord &gt;</text>
<text xml:space="preserve" text-anchor="start" x="166.81" y="-304.5" font-family="Helvetica,sans-Serif" font-size="10.00">&#45;</text>
<text xml:space="preserve" text-anchor="start" x="198.88" y="-304.5" font-family="Helvetica,sans-Serif" font-size="10.00">cv_</text>
<text xml:space="preserve" text-anchor="start" x="165.31" y="-288.5" font-family="Helvetica,sans-Serif" font-size="10.00">+</text>
<text xml:space="preserve" text-anchor="start" x="198.88" y="-288.5" font-family="Helvetica,sans-Serif" font-size="10.00">push()</text>
<text xml:space="preserve" text-anchor="start" x="165.31" y="-272.5" font-family="Helvetica,sans-Serif" font-size="10.00">+</text>
<text xml:space="preserve" text-anchor="start" x="198.88" y="-272.5" font-family="Helvetica,sans-Serif" font-size="10.00">pop()</text>
<text xml:space="preserve" text-anchor="start" x="165.31" y="-256.5" font-family="Helvetica,sans-Serif" font-size="10.00">+</text>
<text xml:space="preserve" text-anchor="start" x="198.88" y="-256.5" font-family="Helvetica,sans-Serif" font-size="10.00">empty()</text>
<text xml:space="preserve" text-anchor="start" x="165.31" y="-240.5" font-family="Helvetica,sans-Serif" font-size="10.00">+</text>
<text xml:space="preserve" text-anchor="start" x="198.88" y="-240.5" font-family="Helvetica,sans-Serif" font-size="10.00">size()</text>
<text xml:space="preserve" text-anchor="start" x="165.31" y="-224.5" font-family="Helvetica,sans-Serif" font-size="10.00">+</text>
<text xml:space="preserve" text-anchor="start" x="198.88" y="-224.5" font-family="Helvetica,sans-Serif" font-size="10.00">notify_all()</text>
<polygon fill="#666666" stroke="#666666" points="137.75,-316 137.75,-316 295,-316 295,-316 137.75,-316"/>
<polygon fill="#666666" stroke="#666666" points="137.75,-300 137.75,-300 196.88,-300 196.88,-300 137.75,-300"/>
<polygon fill="#666666" stroke="#666666" points="196.88,-300 196.88,-300 295,-300 295,-300 196.88,-300"/>
<polygon fill="none" stroke="#666666" points="137.75,-218 137.75,-334 295,-334 295,-218 137.75,-218"/>
</a>
</g>
</g>
<!-- Node5&#45;&gt;Node1 -->
<g id="edge4_Node000001_Node000005" class="edge">
<title>Node5&#45;&gt;Node1</title>
<g id="a_edge4_Node000001_Node000005"><a xlink:title=" ">
<path fill="none" stroke="#63b8ff" d="M216.38,-218.17C216.38,-205.14 216.38,-190.93 216.38,-176.8"/>
<polygon fill="none" stroke="#63b8ff" points="216.38,-176.77 212.38,-170.77 216.38,-164.77 220.38,-170.77 216.38,-176.77"/>
</a>
</g>
<text xml:space="preserve" text-anchor="start" x="219.38" y="-187.5" font-family="Helvetica,sans-Serif" font-size="10.00" fill="grey">&#45;write_queue_</text>
</g>
<!-- Node6 -->
<g id="Node000006" class="node">
<title>Node6</title>
<g id="a_Node000006"><a xlink:title=" ">
<polygon fill="white" stroke="none" points="268.5,-440 144.25,-440 144.25,-388 268.5,-388 268.5,-440"/>
<text xml:space="preserve" text-anchor="start" x="148.25" y="-426.5" font-family="Helvetica,sans-Serif" font-size="10.00">std::queue&lt; SERRecord &gt;</text>
<text xml:space="preserve" text-anchor="start" x="204.88" y="-410.5" font-family="Helvetica,sans-Serif" font-size="10.00"> </text>
<text xml:space="preserve" text-anchor="start" x="204.88" y="-394.5" font-family="Helvetica,sans-Serif" font-size="10.00"> </text>
<polygon fill="#666666" stroke="#666666" points="144.25,-422 144.25,-422 268.5,-422 268.5,-422 144.25,-422"/>
<polygon fill="#666666" stroke="#666666" points="144.25,-406 144.25,-406 268.5,-406 268.5,-406 144.25,-406"/>
<polygon fill="none" stroke="#666666" points="144.25,-388 144.25,-440 268.5,-440 268.5,-388 144.25,-388"/>
</a>
</g>
</g>
<!-- Node6&#45;&gt;Node5 -->
<g id="edge5_Node000005_Node000006" class="edge">
<title>Node6&#45;&gt;Node5</title>
<g id="a_edge5_Node000005_Node000006"><a xlink:title=" ">
<path fill="none" stroke="#63b8ff" d="M208.21,-388.06C209.07,-376.31 210.15,-361.66 211.24,-346.89"/>
<polygon fill="none" stroke="#63b8ff" points="211.24,-346.81 207.69,-340.53 212.12,-334.84 215.67,-341.12 211.24,-346.81"/>
</a>
</g>
<text xml:space="preserve" text-anchor="start" x="213.78" y="-357.5" font-family="Helvetica,sans-Serif" font-size="10.00" fill="grey">&#45;queue_</text>
</g>
<!-- Node7&#45;&gt;Node6 -->
<g id="edge6_Node000006_Node000007" class="edge">
<title>Node7&#45;&gt;Node6</title>
<g id="a_edge6_Node000006_Node000007"><a xlink:title=" ">
<path fill="none" stroke="#63b8ff" d="M150.74,-832.27C161.6,-750.78 189.83,-539.11 201.36,-452.64"/>
<polygon fill="none" stroke="#63b8ff" points="201.35,-452.66 198.18,-446.19 202.94,-440.77 206.11,-447.24 201.35,-452.66"/>
</a>
</g>
<text xml:space="preserve" text-anchor="start" x="203.13" y="-632.5" font-family="Helvetica,sans-Serif" font-size="10.00" fill="grey">+elements</text>
</g>
<!-- Node8 -->
<g id="Node000008" class="node">
<title>Node8</title>
<g id="a_Node000008"><a xlink:title=" ">
<polygon fill="white" stroke="none" points="117.62,-440 63.12,-440 63.12,-388 117.62,-388 117.62,-440"/>
<text xml:space="preserve" text-anchor="start" x="67.12" y="-426.5" font-family="Helvetica,sans-Serif" font-size="10.00">std::mutex</text>
<text xml:space="preserve" text-anchor="start" x="88.88" y="-410.5" font-family="Helvetica,sans-Serif" font-size="10.00"> </text>
<text xml:space="preserve" text-anchor="start" x="88.88" y="-394.5" font-family="Helvetica,sans-Serif" font-size="10.00"> </text>
<polygon fill="#666666" stroke="#666666" points="63.12,-422 63.12,-422 117.62,-422 117.62,-422 63.12,-422"/>
<polygon fill="#666666" stroke="#666666" points="63.12,-406 63.12,-406 117.62,-406 117.62,-406 63.12,-406"/>
<polygon fill="none" stroke="#666666" points="63.12,-388 63.12,-440 117.62,-440 117.62,-388 63.12,-388"/>
</a>
</g>
</g>
<!-- Node8&#45;&gt;Node1 -->
<g id="edge11_Node000001_Node000008" class="edge">
<title>Node8&#45;&gt;Node1</title>
<g id="a_edge11_Node000001_Node000008"><a xlink:title=" ">
<path fill="none" stroke="#63b8ff" d="M80.45,-388.08C66.8,-349.78 46.6,-274.92 71.38,-218 88.21,-179.32 122.19,-146.72 153.03,-123.25"/>
<polygon fill="none" stroke="#63b8ff" points="152.95,-123.31 155.41,-116.52 162.61,-116.18 160.16,-122.96 152.95,-123.31"/>
</a>
</g>
<text xml:space="preserve" text-anchor="start" x="74.38" y="-272.5" font-family="Helvetica,sans-Serif" font-size="10.00" fill="grey">&#45;db_mutex_</text>
</g>
<!-- Node8&#45;&gt;Node5 -->
<g id="edge8_Node000005_Node000008" class="edge">
<title>Node8&#45;&gt;Node5</title>
<g id="a_edge8_Node000005_Node000008"><a xlink:title=" ">
<path fill="none" stroke="#63b8ff" d="M113.49,-388.06C125.24,-375.36 140.15,-359.27 154.95,-343.3"/>
<polygon fill="none" stroke="#63b8ff" points="154.85,-343.41 155.99,-336.29 163.01,-334.6 161.86,-341.72 154.85,-343.41"/>
</a>
</g>
<text xml:space="preserve" text-anchor="start" x="148.83" y="-357.5" font-family="Helvetica,sans-Serif" font-size="10.00" fill="grey">&#45;mutex_</text>
</g>
<!-- Node9 -->
<g id="Node000009" class="node">
<title>Node9</title>
<g id="a_Node000009"><a xlink:title=" ">
<polygon fill="white" stroke="none" points="367.62,-302 313.12,-302 313.12,-250 367.62,-250 367.62,-302"/>
<text xml:space="preserve" text-anchor="start" x="317.12" y="-288.5" font-family="Helvetica,sans-Serif" font-size="10.00">std::thread</text>
<text xml:space="preserve" text-anchor="start" x="338.88" y="-272.5" font-family="Helvetica,sans-Serif" font-size="10.00"> </text>
<text xml:space="preserve" text-anchor="start" x="338.88" y="-256.5" font-family="Helvetica,sans-Serif" font-size="10.00"> </text>
<polygon fill="#666666" stroke="#666666" points="313.12,-284 313.12,-284 367.62,-284 367.62,-284 313.12,-284"/>
<polygon fill="#666666" stroke="#666666" points="313.12,-268 313.12,-268 367.62,-268 367.62,-268 313.12,-268"/>
<polygon fill="none" stroke="#666666" points="313.12,-250 313.12,-302 367.62,-302 367.62,-250 313.12,-250"/>
</a>
</g>
</g>
<!-- Node9&#45;&gt;Node1 -->
<g id="edge9_Node000001_Node000009" class="edge">
<title>Node9&#45;&gt;Node1</title>
<g id="a_edge9_Node000001_Node000009"><a xlink:title=" ">
<path fill="none" stroke="#63b8ff" d="M327.11,-250.11C316.78,-231.14 301.82,-204.53 287.38,-182 283.97,-176.68 280.39,-171.26 276.72,-165.83"/>
<polygon fill="none" stroke="#63b8ff" points="276.87,-166.05 270.19,-163.35 270.1,-156.14 276.79,-158.84 276.87,-166.05"/>
</a>
</g>
<text xml:space="preserve" text-anchor="start" x="301.18" y="-187.5" font-family="Helvetica,sans-Serif" font-size="10.00" fill="grey">&#45;writer_thread_</text>
</g>
<!-- Node10 -->
<g id="Node000010" class="node">
<title>Node10</title>
<g id="a_Node000010"><a xlink:title=" ">
<polygon fill="white" stroke="none" points="479.75,-302 387,-302 387,-250 479.75,-250 479.75,-302"/>
<text xml:space="preserve" text-anchor="start" x="391" y="-288.5" font-family="Helvetica,sans-Serif" font-size="10.00">std::atomic&lt; bool &gt;</text>
<text xml:space="preserve" text-anchor="start" x="406.88" y="-272.5" font-family="Helvetica,sans-Serif" font-size="10.00">+</text>
<text xml:space="preserve" text-anchor="start" x="432.75" y="-272.5" font-family="Helvetica,sans-Serif" font-size="10.00">ptr</text>
<text xml:space="preserve" text-anchor="start" x="431.88" y="-256.5" font-family="Helvetica,sans-Serif" font-size="10.00"> </text>
<polygon fill="#666666" stroke="#666666" points="387,-284 387,-284 479.75,-284 479.75,-284 387,-284"/>
<polygon fill="#666666" stroke="#666666" points="387,-268 387,-268 430.75,-268 430.75,-268 387,-268"/>
<polygon fill="#666666" stroke="#666666" points="430.75,-268 430.75,-268 479.75,-268 479.75,-268 430.75,-268"/>
<polygon fill="none" stroke="#666666" points="387,-250 387,-302 479.75,-302 479.75,-250 387,-250"/>
</a>
</g>
</g>
<!-- Node10&#45;&gt;Node1 -->
<g id="edge10_Node000001_Node000010" class="edge">
<title>Node10&#45;&gt;Node1</title>
<g id="a_edge10_Node000001_Node000010"><a xlink:title=" ">
<path fill="none" stroke="#63b8ff" d="M420.84,-250.02C409.94,-230 392.73,-202.05 372.38,-182 345.63,-155.65 310.73,-132.7 280.72,-115.55"/>
<polygon fill="none" stroke="#63b8ff" points="280.75,-115.57 273.56,-116.13 270.28,-109.71 277.46,-109.14 280.75,-115.57"/>
</a>
</g>
<text xml:space="preserve" text-anchor="start" x="389.57" y="-187.5" font-family="Helvetica,sans-Serif" font-size="10.00" fill="grey">&#45;stop_flag_</text>
</g>
</g>
</svg>
