<?xml version="1.0" encoding="UTF-8" standalone="no"?>
<!DOCTYPE svg PUBLIC "-//W3C//DTD SVG 1.1//EN"
 "http://www.w3.org/Graphics/SVG/1.1/DTD/svg11.dtd">
<!-- Generated by graphviz version 14.1.2 (20260124.0452)
 -->
<!-- Title: TelnetClient::LoginLevel1Function Pages: 1 -->
<svg width="688pt" height="40pt"
 viewBox="0.00 0.00 688.00 40.00" xmlns="http://www.w3.org/2000/svg" xmlns:xlink="http://www.w3.org/1999/xlink">
<g id="graph0" class="graph" transform="scale(1 1) rotate(0) translate(4 36)">
<title>TelnetClient::LoginLevel1Function</title>
<!-- Node1 -->
<g id="Node000001" class="node">
<title>Node1</title>
<g id="a_Node000001"><a xlink:title="Perform Level 1 login authentication.">
<polygon fill="#999999" stroke="#666666" points="125.5,-32 0,-32 0,0 125.5,0 125.5,-32"/>
<text xml:space="preserve" text-anchor="start" x="8" y="-18.5" font-family="Helvetica,sans-Serif" font-size="10.00">TelnetClient::LoginLevel1</text>
<text xml:space="preserve" text-anchor="middle" x="62.75" y="-6.5" font-family="Helvetica,sans-Serif" font-size="10.00">Function</text>
</a>
</g>
</g>
<!-- Node2 -->
<g id="Node000002" class="node">
<title>Node2</title>
<g id="a_Node000002"><a xlink:href="class_telnet_client.html#a39aee6a66b79184a3c7fe5072c2f422f" target="_top" xlink:title="Send command and receive response data.">
<polygon fill="white" stroke="#666666" points="335.75,-26 161.5,-26 161.5,-6 335.75,-6 335.75,-26"/>
<text xml:space="preserve" text-anchor="middle" x="248.62" y="-12.5" font-family="Helvetica,sans-Serif" font-size="10.00">TelnetClient::SendCmdReceiveData</text>
</a>
</g>
</g>
<!-- Node1&#45;&gt;Node2 -->
<g id="edge1_Node000001_Node000002" class="edge">
<title>Node1&#45;&gt;Node2</title>
<g id="a_edge1_Node000001_Node000002"><a xlink:title=" ">
<path fill="none" stroke="#63b8ff" d="M125.75,-16C133.47,-16 141.51,-16 149.61,-16"/>
<polygon fill="#63b8ff" stroke="#63b8ff" points="149.57,-19.5 159.57,-16 149.57,-12.5 149.57,-19.5"/>
</a>
</g>
</g>
<!-- Node3 -->
<g id="Node000003" class="node">
<title>Node3</title>
<g id="a_Node000003"><a xlink:href="class_telnet_client.html#afe6fcd4467c705692d781379926881e0" target="_top" xlink:title="Check if response is complete.">
<polygon fill="white" stroke="#666666" points="497.25,-32 371.75,-32 371.75,0 497.25,0 497.25,-32"/>
<text xml:space="preserve" text-anchor="start" x="379.75" y="-18.5" font-family="Helvetica,sans-Serif" font-size="10.00">TelnetClient::isResponse</text>
<text xml:space="preserve" text-anchor="middle" x="434.5" y="-6.5" font-family="Helvetica,sans-Serif" font-size="10.00">Complete</text>
</a>
</g>
</g>
<!-- Node2&#45;&gt;Node3 -->
<g id="edge2_Node000002_Node000003" class="edge">
<title>Node2&#45;&gt;Node3</title>
<g id="a_edge2_Node000002_Node000003"><a xlink:title=" ">
<path fill="none" stroke="#63b8ff" d="M336.18,-16C344.19,-16 352.25,-16 360.13,-16"/>
<polygon fill="#63b8ff" stroke="#63b8ff" points="359.99,-19.5 369.99,-16 359.99,-12.5 359.99,-19.5"/>
</a>
</g>
</g>
<!-- Node4 -->
<g id="Node000004" class="node">
<title>Node4</title>
<g id="a_Node000004"><a xlink:href="class_telnet_client.html#a9406bd467aec4aed263851fc076c360b" target="_top" xlink:title="Check if buffer ends with a command prompt.">
<polygon fill="white" stroke="#666666" points="679.75,-26 533.25,-26 533.25,-6 679.75,-6 679.75,-26"/>
<text xml:space="preserve" text-anchor="middle" x="606.5" y="-12.5" font-family="Helvetica,sans-Serif" font-size="10.00">TelnetClient::endsWithPrompt</text>
</a>
</g>
</g>
<!-- Node3&#45;&gt;Node4 -->
<g id="edge3_Node000003_Node000004" class="edge">
<title>Node3&#45;&gt;Node4</title>
<g id="a_edge3_Node000003_Node000004"><a xlink:title=" ">
<path fill="none" stroke="#63b8ff" d="M497.35,-16C505.23,-16 513.39,-16 521.53,-16"/>
<polygon fill="#63b8ff" stroke="#63b8ff" points="521.5,-19.5 531.5,-16 521.5,-12.5 521.5,-19.5"/>
</a>
</g>
</g>
</g>
</svg>
