<?xml version="1.0" encoding="UTF-8" standalone="no"?>
<!DOCTYPE svg PUBLIC "-//W3C//DTD SVG 1.1//EN"
 "http://www.w3.org/Graphics/SVG/1.1/DTD/svg11.dtd">
<!-- Generated by graphviz version 14.1.1 (20251213.1925)
 -->
<!-- Title: TelnetClient::isResponseComplete Pages: 1 -->
<svg width="671pt" height="306pt"
 viewBox="0.00 0.00 671.00 306.00" xmlns="http://www.w3.org/2000/svg" xmlns:xlink="http://www.w3.org/1999/xlink">
<g id="graph0" class="graph" transform="scale(1 1) rotate(0) translate(4 302)">
<title>TelnetClient::isResponseComplete</title>
<!-- Node1 -->
<g id="Node000001" class="node">
<title>Node1</title>
<g id="a_Node000001"><a xlink:title="Check if response is complete.">
<polygon fill="#999999" stroke="#666666" points="662.5,-159 537,-159 537,-127 662.5,-127 662.5,-159"/>
<text xml:space="preserve" text-anchor="start" x="545" y="-145.5" font-family="Helvetica,sans-Serif" font-size="10.00">TelnetClient::isResponse</text>
<text xml:space="preserve" text-anchor="middle" x="599.75" y="-133.5" font-family="Helvetica,sans-Serif" font-size="10.00">Complete</text>
</a>
</g>
</g>
<!-- Node2 -->
<g id="Node000002" class="node">
<title>Node2</title>
<g id="a_Node000002"><a xlink:href="class_telnet_client.html#a39aee6a66b79184a3c7fe5072c2f422f" target="_top" xlink:title="Send command and receive response data.">
<polygon fill="white" stroke="#666666" points="501,-153 326.75,-153 326.75,-133 501,-133 501,-153"/>
<text xml:space="preserve" text-anchor="middle" x="413.88" y="-139.5" font-family="Helvetica,sans-Serif" font-size="10.00">TelnetClient::SendCmdReceiveData</text>
</a>
</g>
</g>
<!-- Node1&#45;&gt;Node2 -->
<g id="edge1_Node000001_Node000002" class="edge">
<title>Node1&#45;&gt;Node2</title>
<g id="a_edge1_Node000001_Node000002"><a xlink:title=" ">
<path fill="none" stroke="#63b8ff" d="M525.38,-143C517.5,-143 509.43,-143 501.41,-143"/>
<polygon fill="#63b8ff" stroke="#63b8ff" points="525.24,-146.5 535.24,-143 525.24,-139.5 525.24,-146.5"/>
</a>
</g>
</g>
<!-- Node3 -->
<g id="Node000003" class="node">
<title>Node3</title>
<g id="a_Node000003"><a xlink:href="class_telnet_client.html#a78c1579f7e5e5d21d3332e30c83092f8" target="_top" xlink:title="Perform Level 1 login authentication.">
<polygon fill="white" stroke="#666666" points="285.88,-298 160.38,-298 160.38,-266 285.88,-266 285.88,-298"/>
<text xml:space="preserve" text-anchor="start" x="168.38" y="-284.5" font-family="Helvetica,sans-Serif" font-size="10.00">TelnetClient::LoginLevel1</text>
<text xml:space="preserve" text-anchor="middle" x="223.12" y="-272.5" font-family="Helvetica,sans-Serif" font-size="10.00">Function</text>
</a>
</g>
</g>
<!-- Node2&#45;&gt;Node3 -->
<g id="edge2_Node000002_Node000003" class="edge">
<title>Node2&#45;&gt;Node3</title>
<g id="a_edge2_Node000002_Node000003"><a xlink:title=" ">
<path fill="none" stroke="#63b8ff" d="M397.1,-161.74C375.39,-186.52 334.03,-230.17 290.75,-257 285.6,-260.19 279.99,-263.07 274.27,-265.65"/>
<polygon fill="#63b8ff" stroke="#63b8ff" points="399.56,-164.25 403.44,-154.39 394.26,-159.68 399.56,-164.25"/>
</a>
</g>
</g>
<!-- Node5 -->
<g id="Node000005" class="node">
<title>Node5</title>
<g id="a_Node000005"><a xlink:href="struct_cmd_ctrl_c_action.html#a1fc0d4d32ecc40edc7746f91e7de0fa9" target="_top" xlink:title=" ">
<polygon fill="white" stroke="#666666" points="290.75,-248 155.5,-248 155.5,-228 290.75,-228 290.75,-248"/>
<text xml:space="preserve" text-anchor="middle" x="223.12" y="-234.5" font-family="Helvetica,sans-Serif" font-size="10.00">CmdCtrlCAction::operator()</text>
</a>
</g>
</g>
<!-- Node2&#45;&gt;Node5 -->
<g id="edge4_Node000002_Node000005" class="edge">
<title>Node2&#45;&gt;Node5</title>
<g id="a_edge4_Node000002_Node000005"><a xlink:title=" ">
<path fill="none" stroke="#63b8ff" d="M389.7,-160.18C365.91,-177.13 327.31,-202.8 290.75,-219 283.38,-222.27 275.31,-225.12 267.4,-227.56"/>
<polygon fill="#63b8ff" stroke="#63b8ff" points="391.66,-163.08 397.71,-154.38 387.56,-157.41 391.66,-163.08"/>
</a>
</g>
</g>
<!-- Node6 -->
<g id="Node000006" class="node">
<title>Node6</title>
<g id="a_Node000006"><a xlink:href="struct_cmd_ctrl_d_action.html#a677af90b092885826ae673c9dc3c97c7" target="_top" xlink:title=" ">
<polygon fill="white" stroke="#666666" points="290.75,-210 155.5,-210 155.5,-190 290.75,-190 290.75,-210"/>
<text xml:space="preserve" text-anchor="middle" x="223.12" y="-196.5" font-family="Helvetica,sans-Serif" font-size="10.00">CmdCtrlDAction::operator()</text>
</a>
</g>
</g>
<!-- Node2&#45;&gt;Node6 -->
<g id="edge5_Node000002_Node000006" class="edge">
<title>Node2&#45;&gt;Node6</title>
<g id="a_edge5_Node000002_Node000006"><a xlink:title=" ">
<path fill="none" stroke="#63b8ff" d="M369.12,-156.89C345.88,-164.2 316.81,-173.23 290.75,-181 281.3,-183.82 271.07,-186.78 261.52,-189.5"/>
<polygon fill="#63b8ff" stroke="#63b8ff" points="370.1,-160.25 378.58,-153.91 367.99,-153.58 370.1,-160.25"/>
</a>
</g>
</g>
<!-- Node7 -->
<g id="Node000007" class="node">
<title>Node7</title>
<g id="a_Node000007"><a xlink:href="struct_cmd_eve_action.html#a860e63786f705adfb8ff1f5e297aad6e" target="_top" xlink:title=" ">
<polygon fill="white" stroke="#666666" points="287.75,-172 158.5,-172 158.5,-152 287.75,-152 287.75,-172"/>
<text xml:space="preserve" text-anchor="middle" x="223.12" y="-158.5" font-family="Helvetica,sans-Serif" font-size="10.00">CmdEveAction::operator()</text>
</a>
</g>
</g>
<!-- Node2&#45;&gt;Node7 -->
<g id="edge6_Node000002_Node000007" class="edge">
<title>Node2&#45;&gt;Node7</title>
<g id="a_edge6_Node000002_Node000007"><a xlink:title=" ">
<path fill="none" stroke="#63b8ff" d="M315.29,-152.82C306.08,-153.75 296.92,-154.67 288.15,-155.56"/>
<polygon fill="#63b8ff" stroke="#63b8ff" points="315.4,-156.33 325,-151.85 314.7,-149.36 315.4,-156.33"/>
</a>
</g>
</g>
<!-- Node8 -->
<g id="Node000008" class="node">
<title>Node8</title>
<g id="a_Node000008"><a xlink:href="struct_cmd_ser_action.html#a28443f0e27ed60d7005818b47370676b" target="_top" xlink:title=" ">
<polygon fill="white" stroke="#666666" points="286.62,-134 159.62,-134 159.62,-114 286.62,-114 286.62,-134"/>
<text xml:space="preserve" text-anchor="middle" x="223.12" y="-120.5" font-family="Helvetica,sans-Serif" font-size="10.00">CmdSerAction::operator()</text>
</a>
</g>
</g>
<!-- Node2&#45;&gt;Node8 -->
<g id="edge7_Node000002_Node000008" class="edge">
<title>Node2&#45;&gt;Node8</title>
<g id="a_edge7_Node000002_Node000008"><a xlink:title=" ">
<path fill="none" stroke="#63b8ff" d="M315.26,-133.17C305.68,-132.21 296.14,-131.25 287.04,-130.33"/>
<polygon fill="#63b8ff" stroke="#63b8ff" points="314.7,-136.64 325,-134.15 315.4,-129.67 314.7,-136.64"/>
</a>
</g>
</g>
<!-- Node9 -->
<g id="Node000009" class="node">
<title>Node9</title>
<g id="a_Node000009"><a xlink:href="struct_cmd_set_action.html#ac6e6d8730b740d8e4dad53b3f4634757" target="_top" xlink:title=" ">
<polygon fill="white" stroke="#666666" points="286.62,-96 159.62,-96 159.62,-76 286.62,-76 286.62,-96"/>
<text xml:space="preserve" text-anchor="middle" x="223.12" y="-82.5" font-family="Helvetica,sans-Serif" font-size="10.00">CmdSetAction::operator()</text>
</a>
</g>
</g>
<!-- Node2&#45;&gt;Node9 -->
<g id="edge8_Node000002_Node000009" class="edge">
<title>Node2&#45;&gt;Node9</title>
<g id="a_edge8_Node000002_Node000009"><a xlink:title=" ">
<path fill="none" stroke="#63b8ff" d="M369.12,-129.11C345.88,-121.8 316.81,-112.77 290.75,-105 281.3,-102.18 271.07,-99.22 261.52,-96.5"/>
<polygon fill="#63b8ff" stroke="#63b8ff" points="367.99,-132.42 378.58,-132.09 370.1,-125.75 367.99,-132.42"/>
</a>
</g>
</g>
<!-- Node10 -->
<g id="Node000010" class="node">
<title>Node10</title>
<g id="a_Node000010"><a xlink:href="struct_cmd_tar_action.html#a1373a600f0abc74796356d52f70e45e3" target="_top" xlink:title=" ">
<polygon fill="white" stroke="#666666" points="285.88,-58 160.38,-58 160.38,-38 285.88,-38 285.88,-58"/>
<text xml:space="preserve" text-anchor="middle" x="223.12" y="-44.5" font-family="Helvetica,sans-Serif" font-size="10.00">CmdTarAction::operator()</text>
</a>
</g>
</g>
<!-- Node2&#45;&gt;Node10 -->
<g id="edge9_Node000002_Node000010" class="edge">
<title>Node2&#45;&gt;Node10</title>
<g id="a_edge9_Node000002_Node000010"><a xlink:title=" ">
<path fill="none" stroke="#63b8ff" d="M389.7,-125.82C365.91,-108.87 327.31,-83.2 290.75,-67 283.38,-63.73 275.31,-60.88 267.4,-58.44"/>
<polygon fill="#63b8ff" stroke="#63b8ff" points="387.56,-128.59 397.71,-131.62 391.66,-122.92 387.56,-128.59"/>
</a>
</g>
</g>
<!-- Node11 -->
<g id="Node000011" class="node">
<title>Node11</title>
<g id="a_Node000011"><a xlink:href="struct_poll_ser_action.html#a80290394273450b8c46083cc224c529f" target="_top" xlink:title="Execute SER polling and storage.">
<polygon fill="white" stroke="#666666" points="284.38,-20 161.88,-20 161.88,0 284.38,0 284.38,-20"/>
<text xml:space="preserve" text-anchor="middle" x="223.12" y="-6.5" font-family="Helvetica,sans-Serif" font-size="10.00">PollSerAction::operator()</text>
</a>
</g>
</g>
<!-- Node2&#45;&gt;Node11 -->
<g id="edge10_Node000002_Node000011" class="edge">
<title>Node2&#45;&gt;Node11</title>
<g id="a_edge10_Node000002_Node000011"><a xlink:title=" ">
<path fill="none" stroke="#63b8ff" d="M397.74,-124.11C376.46,-98.81 335.31,-54.18 290.75,-29 284.78,-25.63 278.17,-22.81 271.49,-20.48"/>
<polygon fill="#63b8ff" stroke="#63b8ff" points="394.86,-126.13 403.92,-131.62 400.26,-121.67 394.86,-126.13"/>
</a>
</g>
</g>
<!-- Node4 -->
<g id="Node000004" class="node">
<title>Node4</title>
<g id="a_Node000004"><a xlink:href="struct_login1_action.html#a06a25a6ed5a30f931e8259a5afc311b1" target="_top" xlink:title="Execute Level 1 login sequence.">
<polygon fill="white" stroke="#666666" points="119.5,-292 0,-292 0,-272 119.5,-272 119.5,-292"/>
<text xml:space="preserve" text-anchor="middle" x="59.75" y="-278.5" font-family="Helvetica,sans-Serif" font-size="10.00">Login1Action::operator()</text>
</a>
</g>
</g>
<!-- Node3&#45;&gt;Node4 -->
<g id="edge3_Node000003_Node000004" class="edge">
<title>Node3&#45;&gt;Node4</title>
<g id="a_edge3_Node000003_Node000004"><a xlink:title=" ">
<path fill="none" stroke="#63b8ff" d="M148.89,-282C139.17,-282 129.3,-282 119.86,-282"/>
<polygon fill="#63b8ff" stroke="#63b8ff" points="148.68,-285.5 158.68,-282 148.68,-278.5 148.68,-285.5"/>
</a>
</g>
</g>
</g>
</svg>
