<?xml version="1.0" encoding="UTF-8" standalone="no"?>
<!DOCTYPE svg PUBLIC "-//W3C//DTD SVG 1.1//EN"
 "http://www.w3.org/Graphics/SVG/1.1/DTD/svg11.dtd">
<!-- Generated by graphviz version 14.1.1 (20251213.1925)
 -->
<!-- Title: TimeSyncManager::handleSyncTime Pages: 1 -->
<svg width="518pt" height="40pt"
 viewBox="0.00 0.00 518.00 40.00" xmlns="http://www.w3.org/2000/svg" xmlns:xlink="http://www.w3.org/1999/xlink">
<g id="graph0" class="graph" transform="scale(1 1) rotate(0) translate(4 36)">
<title>TimeSyncManager::handleSyncTime</title>
<!-- Node1 -->
<g id="Node000001" class="node">
<title>Node1</title>
<g id="a_Node000001"><a xlink:title="Handle the &quot;sync_time&quot; action.">
<polygon fill="#999999" stroke="#666666" points="510,-26 333.5,-26 333.5,-6 510,-6 510,-26"/>
<text xml:space="preserve" text-anchor="middle" x="421.75" y="-12.5" font-family="Helvetica,sans-Serif" font-size="10.00">TimeSyncManager::handleSyncTime</text>
</a>
</g>
</g>
<!-- Node2 -->
<g id="Node000002" class="node">
<title>Node2</title>
<g id="a_Node000002"><a xlink:href="class_time_sync_manager.html#ab7e1061ae8a4a1bae60ed0411ff4b825" target="_top" xlink:title="Process a JSON action string from WebSocket and return a JSON response.">
<polygon fill="white" stroke="#666666" points="297.5,-26 137.5,-26 137.5,-6 297.5,-6 297.5,-26"/>
<text xml:space="preserve" text-anchor="middle" x="217.5" y="-12.5" font-family="Helvetica,sans-Serif" font-size="10.00">TimeSyncManager::handleAction</text>
</a>
</g>
</g>
<!-- Node1&#45;&gt;Node2 -->
<g id="edge1_Node000001_Node000002" class="edge">
<title>Node1&#45;&gt;Node2</title>
<g id="a_edge1_Node000001_Node000002"><a xlink:title=" ">
<path fill="none" stroke="#63b8ff" d="M321.88,-16C313.83,-16 305.77,-16 297.89,-16"/>
<polygon fill="#63b8ff" stroke="#63b8ff" points="321.7,-19.5 331.7,-16 321.7,-12.5 321.7,-19.5"/>
</a>
</g>
</g>
<!-- Node3 -->
<g id="Node000003" class="node">
<title>Node3</title>
<g id="a_Node000003"><a xlink:href="class_telnet_sml_app_1_1_impl.html#a64957945d93500acea2140ec59b07802" target="_top" xlink:title="Starts all application components.">
<polygon fill="white" stroke="#666666" points="101.5,-32 0,-32 0,0 101.5,0 101.5,-32"/>
<text xml:space="preserve" text-anchor="start" x="8" y="-18.5" font-family="Helvetica,sans-Serif" font-size="10.00">TelnetSmlApp::Impl</text>
<text xml:space="preserve" text-anchor="middle" x="50.75" y="-6.5" font-family="Helvetica,sans-Serif" font-size="10.00">::start</text>
</a>
</g>
</g>
<!-- Node2&#45;&gt;Node3 -->
<g id="edge2_Node000002_Node000003" class="edge">
<title>Node2&#45;&gt;Node3</title>
<g id="a_edge2_Node000002_Node000003"><a xlink:title=" ">
<path fill="none" stroke="#63b8ff" d="M125.76,-16C117.54,-16 109.43,-16 101.76,-16"/>
<polygon fill="#63b8ff" stroke="#63b8ff" points="125.51,-19.5 135.51,-16 125.51,-12.5 125.51,-19.5"/>
</a>
</g>
</g>
</g>
</svg>
