<?xml version="1.0" encoding="UTF-8" standalone="no"?>
<!DOCTYPE svg PUBLIC "-//W3C//DTD SVG 1.1//EN"
 "http://www.w3.org/Graphics/SVG/1.1/DTD/svg11.dtd">
<!-- Generated by graphviz version 14.1.2 (20260124.0452)
 -->
<!-- Title: PasswordManager::changePassword Pages: 1 -->
<svg width="841pt" height="140pt"
 viewBox="0.00 0.00 841.00 140.00" xmlns="http://www.w3.org/2000/svg" xmlns:xlink="http://www.w3.org/1999/xlink">
<g id="graph0" class="graph" transform="scale(1 1) rotate(0) translate(4 136)">
<title>PasswordManager::changePassword</title>
<!-- Node1 -->
<g id="Node000001" class="node">
<title>Node1</title>
<g id="a_Node000001"><a xlink:title="Change relay password for specified access level.">
<polygon fill="#999999" stroke="#666666" points="178,-76 0,-76 0,-56 178,-56 178,-76"/>
<text xml:space="preserve" text-anchor="middle" x="89" y="-62.5" font-family="Helvetica,sans-Serif" font-size="10.00">PasswordManager::changePassword</text>
</a>
</g>
</g>
<!-- Node2 -->
<g id="Node000002" class="node">
<title>Node2</title>
<g id="a_Node000002"><a xlink:href="namespaceasn__password.html#aeb64a1d95d10374e93a21d05ba30acfd" target="_top" xlink:title="Encode a password string as ASN.1 BER TLV with Tag 34.">
<polygon fill="white" stroke="#666666" points="356.75,-132 214,-132 214,-100 356.75,-100 356.75,-132"/>
<text xml:space="preserve" text-anchor="start" x="222" y="-118.5" font-family="Helvetica,sans-Serif" font-size="10.00">asn_password::encodeASN1</text>
<text xml:space="preserve" text-anchor="middle" x="285.38" y="-106.5" font-family="Helvetica,sans-Serif" font-size="10.00">Password</text>
</a>
</g>
</g>
<!-- Node1&#45;&gt;Node2 -->
<g id="edge1_Node000001_Node000002" class="edge">
<title>Node1&#45;&gt;Node2</title>
<g id="a_edge1_Node000001_Node000002"><a xlink:title=" ">
<path fill="none" stroke="#63b8ff" d="M130.75,-76.48C153.54,-82.35 182.68,-89.84 209.44,-96.72"/>
<polygon fill="#63b8ff" stroke="#63b8ff" points="208.32,-100.05 218.88,-99.15 210.06,-93.27 208.32,-100.05"/>
</a>
</g>
</g>
<!-- Node6 -->
<g id="Node000006" class="node">
<title>Node6</title>
<g id="a_Node000006"><a xlink:href="class_password_manager.html#afa2143161c200f78502b42877349093d" target="_top" xlink:title="Validate that a level string is valid.">
<polygon fill="white" stroke="#666666" points="353.75,-82 217,-82 217,-50 353.75,-50 353.75,-82"/>
<text xml:space="preserve" text-anchor="start" x="225" y="-68.5" font-family="Helvetica,sans-Serif" font-size="10.00">PasswordManager::validate</text>
<text xml:space="preserve" text-anchor="middle" x="285.38" y="-56.5" font-family="Helvetica,sans-Serif" font-size="10.00">Level</text>
</a>
</g>
</g>
<!-- Node1&#45;&gt;Node6 -->
<g id="edge5_Node000001_Node000006" class="edge">
<title>Node1&#45;&gt;Node6</title>
<g id="a_edge5_Node000001_Node000006"><a xlink:title=" ">
<path fill="none" stroke="#63b8ff" d="M178.37,-66C187.3,-66 196.32,-66 205.14,-66"/>
<polygon fill="#63b8ff" stroke="#63b8ff" points="205.08,-69.5 215.08,-66 205.08,-62.5 205.08,-69.5"/>
</a>
</g>
</g>
<!-- Node7 -->
<g id="Node000007" class="node">
<title>Node7</title>
<g id="a_Node000007"><a xlink:href="class_password_manager.html#a0f7ac1b3e9a22cf7ffbfe84f51dd44ce" target="_top" xlink:title="Validate that a password value is in the allowed set.">
<polygon fill="white" stroke="#666666" points="353.75,-32 217,-32 217,0 353.75,0 353.75,-32"/>
<text xml:space="preserve" text-anchor="start" x="225" y="-18.5" font-family="Helvetica,sans-Serif" font-size="10.00">PasswordManager::validate</text>
<text xml:space="preserve" text-anchor="middle" x="285.38" y="-6.5" font-family="Helvetica,sans-Serif" font-size="10.00">Password</text>
</a>
</g>
</g>
<!-- Node1&#45;&gt;Node7 -->
<g id="edge6_Node000001_Node000007" class="edge">
<title>Node1&#45;&gt;Node7</title>
<g id="a_edge6_Node000001_Node000007"><a xlink:title=" ">
<path fill="none" stroke="#63b8ff" d="M130.75,-55.52C153.54,-49.65 182.68,-42.16 209.44,-35.28"/>
<polygon fill="#63b8ff" stroke="#63b8ff" points="210.06,-38.73 218.88,-32.85 208.32,-31.95 210.06,-38.73"/>
</a>
</g>
</g>
<!-- Node3 -->
<g id="Node000003" class="node">
<title>Node3</title>
<g id="a_Node000003"><a xlink:href="namespaceasn__tlv.html#a0cc9af3d4e8aba5f164c66bb47750767" target="_top" xlink:title="Append a string as a TLV structure.">
<polygon fill="white" stroke="#666666" points="518.25,-126 392.75,-126 392.75,-106 518.25,-106 518.25,-126"/>
<text xml:space="preserve" text-anchor="middle" x="455.5" y="-112.5" font-family="Helvetica,sans-Serif" font-size="10.00">asn_tlv::berAppendString</text>
</a>
</g>
</g>
<!-- Node2&#45;&gt;Node3 -->
<g id="edge2_Node000002_Node000003" class="edge">
<title>Node2&#45;&gt;Node3</title>
<g id="a_edge2_Node000002_Node000003"><a xlink:title=" ">
<path fill="none" stroke="#63b8ff" d="M357.19,-116C365.03,-116 373.02,-116 380.89,-116"/>
<polygon fill="#63b8ff" stroke="#63b8ff" points="380.79,-119.5 390.79,-116 380.79,-112.5 380.79,-119.5"/>
</a>
</g>
</g>
<!-- Node4 -->
<g id="Node000004" class="node">
<title>Node4</title>
<g id="a_Node000004"><a xlink:href="namespaceasn__tlv.html#a4a9f3333d71c851f9002020ffd417b18" target="_top" xlink:title="Append a complete TLV structure to an output buffer.">
<polygon fill="white" stroke="#666666" points="667.75,-126 554.25,-126 554.25,-106 667.75,-106 667.75,-126"/>
<text xml:space="preserve" text-anchor="middle" x="611" y="-112.5" font-family="Helvetica,sans-Serif" font-size="10.00">asn_tlv::berAppendTlv</text>
</a>
</g>
</g>
<!-- Node3&#45;&gt;Node4 -->
<g id="edge3_Node000003_Node000004" class="edge">
<title>Node3&#45;&gt;Node4</title>
<g id="a_edge3_Node000003_Node000004"><a xlink:title=" ">
<path fill="none" stroke="#63b8ff" d="M518.49,-116C526.52,-116 534.78,-116 542.89,-116"/>
<polygon fill="#63b8ff" stroke="#63b8ff" points="542.7,-119.5 552.7,-116 542.7,-112.5 542.7,-119.5"/>
</a>
</g>
</g>
<!-- Node5 -->
<g id="Node000005" class="node">
<title>Node5</title>
<g id="a_Node000005"><a xlink:href="namespaceasn__tlv.html#af1ae5498c52c5e99d18f2cd5cb4f2609" target="_top" xlink:title="Append BER length encoding to an output buffer.">
<polygon fill="white" stroke="#666666" points="833,-126 703.75,-126 703.75,-106 833,-106 833,-126"/>
<text xml:space="preserve" text-anchor="middle" x="768.38" y="-112.5" font-family="Helvetica,sans-Serif" font-size="10.00">asn_tlv::berAppendLength</text>
</a>
</g>
</g>
<!-- Node4&#45;&gt;Node5 -->
<g id="edge4_Node000004_Node000005" class="edge">
<title>Node4&#45;&gt;Node5</title>
<g id="a_edge4_Node000004_Node000005"><a xlink:title=" ">
<path fill="none" stroke="#63b8ff" d="M668.09,-116C675.89,-116 684.01,-116 692.09,-116"/>
<polygon fill="#63b8ff" stroke="#63b8ff" points="691.94,-119.5 701.94,-116 691.94,-112.5 691.94,-119.5"/>
</a>
</g>
</g>
</g>
</svg>
