<?xml version="1.0" encoding="UTF-8" standalone="no"?>
<!DOCTYPE svg PUBLIC "-//W3C//DTD SVG 1.1//EN"
 "http://www.w3.org/Graphics/SVG/1.1/DTD/svg11.dtd">
<!-- Generated by graphviz version 14.1.2 (20260124.0452)
 -->
<!-- Title: TimeSyncManager::handleReadTime Pages: 1 -->
<svg width="559pt" height="122pt"
 viewBox="0.00 0.00 559.00 122.00" xmlns="http://www.w3.org/2000/svg" xmlns:xlink="http://www.w3.org/1999/xlink">
<g id="graph0" class="graph" transform="scale(1 1) rotate(0) translate(4 118)">
<title>TimeSyncManager::handleReadTime</title>
<!-- Node1 -->
<g id="Node000001" class="node">
<title>Node1</title>
<g id="a_Node000001"><a xlink:title=" ">
<polygon fill="#999999" stroke="#666666" points="177.25,-70 0,-70 0,-50 177.25,-50 177.25,-70"/>
<text xml:space="preserve" text-anchor="middle" x="88.62" y="-56.5" font-family="Helvetica,sans-Serif" font-size="10.00">TimeSyncManager::handleReadTime</text>
</a>
</g>
</g>
<!-- Node2 -->
<g id="Node000002" class="node">
<title>Node2</title>
<g id="a_Node000002"><a xlink:href="class_time_sync_manager.html#a2b382a0cca1fcf4d52890ccaac8c2a0f" target="_top" xlink:title="Compare relay time and PC time.">
<polygon fill="white" stroke="#666666" points="376.25,-108 213.25,-108 213.25,-88 376.25,-88 376.25,-108"/>
<text xml:space="preserve" text-anchor="middle" x="294.75" y="-94.5" font-family="Helvetica,sans-Serif" font-size="10.00">TimeSyncManager::compareTime</text>
</a>
</g>
</g>
<!-- Node1&#45;&gt;Node2 -->
<g id="edge1_Node000001_Node000002" class="edge">
<title>Node1&#45;&gt;Node2</title>
<g id="a_edge1_Node000001_Node000002"><a xlink:title=" ">
<path fill="none" stroke="#63b8ff" d="M145.94,-70.48C170.82,-75.12 200.27,-80.6 226.31,-85.44"/>
<polygon fill="#63b8ff" stroke="#63b8ff" points="225.66,-88.88 236.13,-87.27 226.94,-82 225.66,-88.88"/>
</a>
</g>
</g>
<!-- Node4 -->
<g id="Node000004" class="node">
<title>Node4</title>
<g id="a_Node000004"><a xlink:href="ser__json__writer_8hpp.html#a5c077d95f29d39a73aa9b32b93ceddda" target="_top" xlink:title="Escape special characters for JSON string values.">
<polygon fill="white" stroke="#666666" points="329,-70 260.5,-70 260.5,-50 329,-50 329,-70"/>
<text xml:space="preserve" text-anchor="middle" x="294.75" y="-56.5" font-family="Helvetica,sans-Serif" font-size="10.00">escapeJson</text>
</a>
</g>
</g>
<!-- Node1&#45;&gt;Node4 -->
<g id="edge3_Node000001_Node000004" class="edge">
<title>Node1&#45;&gt;Node4</title>
<g id="a_edge3_Node000001_Node000004"><a xlink:title=" ">
<path fill="none" stroke="#63b8ff" d="M177.67,-60C202.23,-60 227.89,-60 248.83,-60"/>
<polygon fill="#63b8ff" stroke="#63b8ff" points="248.73,-63.5 258.73,-60 248.73,-56.5 248.73,-63.5"/>
</a>
</g>
</g>
<!-- Node5 -->
<g id="Node000005" class="node">
<title>Node5</title>
<g id="a_Node000005"><a xlink:href="class_time_sync_manager.html#aed76e580fcce7cd534a760a3daf56af7" target="_top" xlink:title="Get current local PC time formatted as &quot;YYYY&#45;MM&#45;DD HH:MM:SS&quot;.">
<polygon fill="white" stroke="#666666" points="365,-32 224.5,-32 224.5,0 365,0 365,-32"/>
<text xml:space="preserve" text-anchor="start" x="232.5" y="-18.5" font-family="Helvetica,sans-Serif" font-size="10.00">TimeSyncManager::getLocal</text>
<text xml:space="preserve" text-anchor="middle" x="294.75" y="-6.5" font-family="Helvetica,sans-Serif" font-size="10.00">PCTime</text>
</a>
</g>
</g>
<!-- Node1&#45;&gt;Node5 -->
<g id="edge4_Node000001_Node000005" class="edge">
<title>Node1&#45;&gt;Node5</title>
<g id="a_edge4_Node000001_Node000005"><a xlink:title=" ">
<path fill="none" stroke="#63b8ff" d="M138.26,-49.52C160.65,-44.69 187.82,-38.83 213.15,-33.37"/>
<polygon fill="#63b8ff" stroke="#63b8ff" points="213.73,-36.83 222.77,-31.3 212.26,-29.99 213.73,-36.83"/>
</a>
</g>
</g>
<!-- Node3 -->
<g id="Node000003" class="node">
<title>Node3</title>
<g id="a_Node000003"><a xlink:href="class_time_sync_manager.html#aaf4fd3f687f474548d24b78bf3233164" target="_top" xlink:title="Parse &quot;YYYY&#45;MM&#45;DD HH:MM:SS&quot; to system_clock::time_point.">
<polygon fill="white" stroke="#666666" points="550.5,-114 412.25,-114 412.25,-82 550.5,-82 550.5,-114"/>
<text xml:space="preserve" text-anchor="start" x="420.25" y="-100.5" font-family="Helvetica,sans-Serif" font-size="10.00">TimeSyncManager::parseTo</text>
<text xml:space="preserve" text-anchor="middle" x="481.38" y="-88.5" font-family="Helvetica,sans-Serif" font-size="10.00">TimePoint</text>
</a>
</g>
</g>
<!-- Node2&#45;&gt;Node3 -->
<g id="edge2_Node000002_Node000003" class="edge">
<title>Node2&#45;&gt;Node3</title>
<g id="a_edge2_Node000002_Node000003"><a xlink:title=" ">
<path fill="none" stroke="#63b8ff" d="M376.73,-98C384.61,-98 392.59,-98 400.46,-98"/>
<polygon fill="#63b8ff" stroke="#63b8ff" points="400.36,-101.5 410.36,-98 400.36,-94.5 400.36,-101.5"/>
</a>
</g>
</g>
</g>
</svg>
