<?xml version="1.0" encoding="UTF-8" standalone="no"?>
<!DOCTYPE svg PUBLIC "-//W3C//DTD SVG 1.1//EN"
 "http://www.w3.org/Graphics/SVG/1.1/DTD/svg11.dtd">
<!-- Generated by graphviz version 14.1.1 (20251213.1925)
 -->
<!-- Title: WebSocketSession::do_read Pages: 1 -->
<svg width="1199pt" height="176pt"
 viewBox="0.00 0.00 1199.00 176.00" xmlns="http://www.w3.org/2000/svg" xmlns:xlink="http://www.w3.org/1999/xlink">
<g id="graph0" class="graph" transform="scale(1 1) rotate(0) translate(4 172)">
<title>WebSocketSession::do_read</title>
<!-- Node1 -->
<g id="Node000001" class="node">
<title>Node1</title>
<g id="a_Node000001"><a xlink:title="Initiate async read for next client message.">
<polygon fill="#999999" stroke="#666666" points="142,-87 0,-87 0,-67 142,-67 142,-87"/>
<text xml:space="preserve" text-anchor="middle" x="71" y="-73.5" font-family="Helvetica,sans-Serif" font-size="10.00">WebSocketSession::do_read</text>
</a>
</g>
</g>
<!-- Node2 -->
<g id="Node000002" class="node">
<title>Node2</title>
<g id="a_Node000002"><a xlink:href="class_web_socket_session.html#a6c0557f87f9f6050a8848237ace942bb" target="_top" xlink:title="Handle received client message.">
<polygon fill="white" stroke="#666666" points="320,-87 178,-87 178,-67 320,-67 320,-87"/>
<text xml:space="preserve" text-anchor="middle" x="249" y="-73.5" font-family="Helvetica,sans-Serif" font-size="10.00">WebSocketSession::on_read</text>
</a>
</g>
</g>
<!-- Node1&#45;&gt;Node2 -->
<g id="edge1_Node000001_Node000002" class="edge">
<title>Node1&#45;&gt;Node2</title>
<g id="a_edge1_Node000001_Node000002"><a xlink:title=" ">
<path fill="none" stroke="#63b8ff" d="M142.32,-70.37C150.19,-70.26 158.26,-70.23 166.27,-70.27"/>
<polygon fill="#63b8ff" stroke="#63b8ff" points="165.96,-73.76 175.99,-70.36 166.03,-66.76 165.96,-73.76"/>
</a>
</g>
</g>
<!-- Node2&#45;&gt;Node1 -->
<g id="edge2_Node000002_Node000001" class="edge">
<title>Node2&#45;&gt;Node1</title>
<g id="a_edge2_Node000002_Node000001"><a xlink:title=" ">
<path fill="none" stroke="#63b8ff" d="M177.51,-83.63C169.72,-83.74 161.74,-83.77 153.83,-83.74"/>
<polygon fill="#63b8ff" stroke="#63b8ff" points="153.86,-80.24 143.83,-83.64 153.8,-87.24 153.86,-80.24"/>
</a>
</g>
</g>
<!-- Node3 -->
<g id="Node000003" class="node">
<title>Node3</title>
<g id="a_Node000003"><a xlink:href="class_web_socket_session.html#a43bf9b3aa8c9ed23d031c7ae8059da22" target="_top" xlink:title="Extract the &quot;action&quot; value from a simple JSON object.">
<polygon fill="white" stroke="#666666" points="499.5,-168 362,-168 362,-136 499.5,-136 499.5,-168"/>
<text xml:space="preserve" text-anchor="start" x="370" y="-154.5" font-family="Helvetica,sans-Serif" font-size="10.00">WebSocketSession::extract</text>
<text xml:space="preserve" text-anchor="middle" x="430.75" y="-142.5" font-family="Helvetica,sans-Serif" font-size="10.00">Action</text>
</a>
</g>
</g>
<!-- Node2&#45;&gt;Node3 -->
<g id="edge3_Node000002_Node000003" class="edge">
<title>Node2&#45;&gt;Node3</title>
<g id="a_edge3_Node000002_Node000003"><a xlink:title=" ">
<path fill="none" stroke="#63b8ff" d="M270.41,-87.48C291.53,-98.12 325.62,-114.73 356,-127 359.86,-128.56 363.86,-130.11 367.91,-131.62"/>
<polygon fill="#63b8ff" stroke="#63b8ff" points="366.67,-134.89 377.27,-135.02 369.07,-128.31 366.67,-134.89"/>
</a>
</g>
</g>
<!-- Node4 -->
<g id="Node000004" class="node">
<title>Node4</title>
<g id="a_Node000004"><a xlink:href="class_web_socket_session.html#a606e227b631d765ac0191c0535df607f" target="_top" xlink:title="Check if a message is a JSON action (contains &quot;action&quot; key).">
<polygon fill="white" stroke="#666666" points="498.75,-118 362.75,-118 362.75,-86 498.75,-86 498.75,-118"/>
<text xml:space="preserve" text-anchor="start" x="370.75" y="-104.5" font-family="Helvetica,sans-Serif" font-size="10.00">WebSocketSession::isJson</text>
<text xml:space="preserve" text-anchor="middle" x="430.75" y="-92.5" font-family="Helvetica,sans-Serif" font-size="10.00">Action</text>
</a>
</g>
</g>
<!-- Node2&#45;&gt;Node4 -->
<g id="edge4_Node000002_Node000004" class="edge">
<title>Node2&#45;&gt;Node4</title>
<g id="a_edge4_Node000002_Node000004"><a xlink:title=" ">
<path fill="none" stroke="#63b8ff" d="M320.27,-86.77C330.46,-88.19 341.01,-89.66 351.36,-91.1"/>
<polygon fill="#63b8ff" stroke="#63b8ff" points="350.59,-94.52 360.97,-92.43 351.55,-87.59 350.59,-94.52"/>
</a>
</g>
</g>
<!-- Node5 -->
<g id="Node000005" class="node">
<title>Node5</title>
<g id="a_Node000005"><a xlink:href="class_web_socket_session.html#a2529887f34770366fc2c225bd085edba" target="_top" xlink:title="Send current database records to client as ASN.1 BER/TLV.">
<polygon fill="white" stroke="#666666" points="505.5,-68 356,-68 356,-48 505.5,-48 505.5,-68"/>
<text xml:space="preserve" text-anchor="middle" x="430.75" y="-54.5" font-family="Helvetica,sans-Serif" font-size="10.00">WebSocketSession::sendData</text>
</a>
</g>
</g>
<!-- Node2&#45;&gt;Node5 -->
<g id="edge5_Node000002_Node000005" class="edge">
<title>Node2&#45;&gt;Node5</title>
<g id="a_edge5_Node000002_Node000005"><a xlink:title=" ">
<path fill="none" stroke="#63b8ff" d="M320.27,-69.57C328.17,-68.74 336.28,-67.88 344.34,-67.03"/>
<polygon fill="#63b8ff" stroke="#63b8ff" points="344.59,-70.52 354.17,-65.99 343.86,-63.56 344.59,-70.52"/>
</a>
</g>
</g>
<!-- Node6 -->
<g id="Node000006" class="node">
<title>Node6</title>
<g id="a_Node000006"><a xlink:href="namespaceasn__tlv.html#a03c61eaf7c30d4bb4e8f50d6cd2f5f03" target="_top" xlink:title="Encode SER records to ASN.1 BER/TLV format.">
<polygon fill="white" stroke="#666666" points="678.25,-120 541.5,-120 541.5,-88 678.25,-88 678.25,-120"/>
<text xml:space="preserve" text-anchor="start" x="549.5" y="-106.5" font-family="Helvetica,sans-Serif" font-size="10.00">asn_tlv::encodeSerRecords</text>
<text xml:space="preserve" text-anchor="middle" x="609.88" y="-94.5" font-family="Helvetica,sans-Serif" font-size="10.00">ToTlv</text>
</a>
</g>
</g>
<!-- Node5&#45;&gt;Node6 -->
<g id="edge6_Node000005_Node000006" class="edge">
<title>Node5&#45;&gt;Node6</title>
<g id="a_edge6_Node000005_Node000006"><a xlink:title=" ">
<path fill="none" stroke="#63b8ff" d="M472.33,-68.43C483.11,-71.21 494.75,-74.21 505.5,-77 515.02,-79.47 525.04,-82.08 534.93,-84.65"/>
<polygon fill="#63b8ff" stroke="#63b8ff" points="533.99,-88.03 544.55,-87.16 535.76,-81.25 533.99,-88.03"/>
</a>
</g>
</g>
<!-- Node10 -->
<g id="Node000010" class="node">
<title>Node10</title>
<g id="a_Node000010"><a xlink:href="class_web_socket_session.html#a0fed81151d5dcbe23dbee79f1bf12c66" target="_top" xlink:title="Handle write completion.">
<polygon fill="white" stroke="#666666" points="668.88,-32 550.88,-32 550.88,0 668.88,0 668.88,-32"/>
<text xml:space="preserve" text-anchor="start" x="558.88" y="-18.5" font-family="Helvetica,sans-Serif" font-size="10.00">WebSocketSession::on</text>
<text xml:space="preserve" text-anchor="middle" x="609.88" y="-6.5" font-family="Helvetica,sans-Serif" font-size="10.00">_write</text>
</a>
</g>
</g>
<!-- Node5&#45;&gt;Node10 -->
<g id="edge11_Node000005_Node000010" class="edge">
<title>Node5&#45;&gt;Node10</title>
<g id="a_edge11_Node000005_Node000010"><a xlink:title=" ">
<path fill="none" stroke="#63b8ff" d="M475.99,-47.51C495.19,-42.96 518.13,-37.52 539.5,-32.45"/>
<polygon fill="#63b8ff" stroke="#63b8ff" points="540.11,-35.9 549.03,-30.19 538.5,-29.09 540.11,-35.9"/>
</a>
</g>
</g>
<!-- Node7 -->
<g id="Node000007" class="node">
<title>Node7</title>
<g id="a_Node000007"><a xlink:href="namespaceasn__tlv.html#a0cc9af3d4e8aba5f164c66bb47750767" target="_top" xlink:title="Append a string as a TLV structure.">
<polygon fill="white" stroke="#666666" points="855.5,-133 730,-133 730,-113 855.5,-113 855.5,-133"/>
<text xml:space="preserve" text-anchor="middle" x="792.75" y="-119.5" font-family="Helvetica,sans-Serif" font-size="10.00">asn_tlv::berAppendString</text>
</a>
</g>
</g>
<!-- Node6&#45;&gt;Node7 -->
<g id="edge7_Node000006_Node000007" class="edge">
<title>Node6&#45;&gt;Node7</title>
<g id="a_edge7_Node000006_Node000007"><a xlink:title=" ">
<path fill="none" stroke="#63b8ff" d="M678.74,-111.13C691.69,-112.49 705.3,-113.92 718.41,-115.3"/>
<polygon fill="#63b8ff" stroke="#63b8ff" points="717.95,-118.77 728.26,-116.33 718.68,-111.81 717.95,-118.77"/>
</a>
</g>
</g>
<!-- Node8 -->
<g id="Node000008" class="node">
<title>Node8</title>
<g id="a_Node000008"><a xlink:href="namespaceasn__tlv.html#a4a9f3333d71c851f9002020ffd417b18" target="_top" xlink:title="Append a complete TLV structure to an output buffer.">
<polygon fill="white" stroke="#666666" points="1023,-111 909.5,-111 909.5,-91 1023,-91 1023,-111"/>
<text xml:space="preserve" text-anchor="middle" x="966.25" y="-97.5" font-family="Helvetica,sans-Serif" font-size="10.00">asn_tlv::berAppendTlv</text>
</a>
</g>
</g>
<!-- Node6&#45;&gt;Node8 -->
<g id="edge10_Node000006_Node000008" class="edge">
<title>Node6&#45;&gt;Node8</title>
<g id="a_edge10_Node000006_Node000008"><a xlink:title=" ">
<path fill="none" stroke="#63b8ff" d="M678.36,-103.43C741.32,-102.9 834.73,-102.1 897.7,-101.57"/>
<polygon fill="#63b8ff" stroke="#63b8ff" points="897.61,-105.07 907.58,-101.49 897.55,-98.07 897.61,-105.07"/>
</a>
</g>
</g>
<!-- Node7&#45;&gt;Node8 -->
<g id="edge8_Node000007_Node000008" class="edge">
<title>Node7&#45;&gt;Node8</title>
<g id="a_edge8_Node000007_Node000008"><a xlink:title=" ">
<path fill="none" stroke="#63b8ff" d="M855.67,-115.06C869.44,-113.29 884.11,-111.41 898.09,-109.61"/>
<polygon fill="#63b8ff" stroke="#63b8ff" points="898.15,-113.14 907.62,-108.39 897.26,-106.19 898.15,-113.14"/>
</a>
</g>
</g>
<!-- Node9 -->
<g id="Node000009" class="node">
<title>Node9</title>
<g id="a_Node000009"><a xlink:href="namespaceasn__tlv.html#af1ae5498c52c5e99d18f2cd5cb4f2609" target="_top" xlink:title="Append BER length encoding to an output buffer.">
<polygon fill="white" stroke="#666666" points="1190.5,-111 1061.25,-111 1061.25,-91 1190.5,-91 1190.5,-111"/>
<text xml:space="preserve" text-anchor="middle" x="1125.88" y="-97.5" font-family="Helvetica,sans-Serif" font-size="10.00">asn_tlv::berAppendLength</text>
</a>
</g>
</g>
<!-- Node8&#45;&gt;Node9 -->
<g id="edge9_Node000008_Node000009" class="edge">
<title>Node8&#45;&gt;Node9</title>
<g id="a_edge9_Node000008_Node000009"><a xlink:title=" ">
<path fill="none" stroke="#63b8ff" d="M1023.27,-101C1031.85,-101 1040.83,-101 1049.75,-101"/>
<polygon fill="#63b8ff" stroke="#63b8ff" points="1049.47,-104.5 1059.47,-101 1049.47,-97.5 1049.47,-104.5"/>
</a>
</g>
</g>
<!-- Node10&#45;&gt;Node1 -->
<g id="edge12_Node000010_Node000001" class="edge">
<title>Node10&#45;&gt;Node1</title>
<g id="a_edge12_Node000010_Node000001"><a xlink:title=" ">
<path fill="none" stroke="#63b8ff" d="M550.48,-20.03C467.46,-26.13 310.63,-39.06 178,-58 164.77,-59.89 150.66,-62.21 137.2,-64.56"/>
<polygon fill="#63b8ff" stroke="#63b8ff" points="136.8,-61.08 127.57,-66.28 138.03,-67.97 136.8,-61.08"/>
</a>
</g>
</g>
<!-- Node11 -->
<g id="Node000011" class="node">
<title>Node11</title>
<g id="a_Node000011"><a xlink:href="class_web_socket_session.html#a124943db6c094918e372c94bfb7ec533" target="_top" xlink:title="Send the next queued message (if any).">
<polygon fill="white" stroke="#666666" points="871.25,-51 714.25,-51 714.25,-31 871.25,-31 871.25,-51"/>
<text xml:space="preserve" text-anchor="middle" x="792.75" y="-37.5" font-family="Helvetica,sans-Serif" font-size="10.00">WebSocketSession::drainQueue</text>
</a>
</g>
</g>
<!-- Node10&#45;&gt;Node11 -->
<g id="edge13_Node000010_Node000011" class="edge">
<title>Node10&#45;&gt;Node11</title>
<g id="a_edge13_Node000010_Node000011"><a xlink:title=" ">
<path fill="none" stroke="#63b8ff" d="M669.1,-24.05C680.49,-25.62 692.66,-27.3 704.74,-28.97"/>
<polygon fill="#63b8ff" stroke="#63b8ff" points="703.91,-32.39 714.3,-30.29 704.87,-25.46 703.91,-32.39"/>
</a>
</g>
</g>
<!-- Node11&#45;&gt;Node5 -->
<g id="edge16_Node000011_Node000005" class="edge">
<title>Node11&#45;&gt;Node5</title>
<g id="a_edge16_Node000011_Node000005"><a xlink:title=" ">
<path fill="none" stroke="#63b8ff" d="M713.96,-44.67C656,-47.41 576.91,-51.15 517.2,-53.96"/>
<polygon fill="#63b8ff" stroke="#63b8ff" points="517.24,-50.46 507.42,-54.43 517.57,-57.45 517.24,-50.46"/>
</a>
</g>
</g>
<!-- Node12 -->
<g id="Node000012" class="node">
<title>Node12</title>
<g id="a_Node000012"><a xlink:href="class_web_socket_session.html#afe8845301daa6254f51e87dd9dd4cc3d" target="_top" xlink:title="Handle broadcast write completion — drains pending queue.">
<polygon fill="white" stroke="#666666" points="1025.25,-57 907.25,-57 907.25,-25 1025.25,-25 1025.25,-57"/>
<text xml:space="preserve" text-anchor="start" x="915.25" y="-43.5" font-family="Helvetica,sans-Serif" font-size="10.00">WebSocketSession::on</text>
<text xml:space="preserve" text-anchor="middle" x="966.25" y="-31.5" font-family="Helvetica,sans-Serif" font-size="10.00">_broadcast_write</text>
</a>
</g>
</g>
<!-- Node11&#45;&gt;Node12 -->
<g id="edge14_Node000011_Node000012" class="edge">
<title>Node11&#45;&gt;Node12</title>
<g id="a_edge14_Node000011_Node000012"><a xlink:title=" ">
<path fill="none" stroke="#63b8ff" d="M871.72,-34.27C879.69,-34.22 887.74,-34.25 895.61,-34.36"/>
<polygon fill="#63b8ff" stroke="#63b8ff" points="895.4,-37.85 905.46,-34.54 895.53,-30.85 895.4,-37.85"/>
</a>
</g>
</g>
<!-- Node12&#45;&gt;Node11 -->
<g id="edge15_Node000012_Node000011" class="edge">
<title>Node12&#45;&gt;Node11</title>
<g id="a_edge15_Node000012_Node000011"><a xlink:title=" ">
<path fill="none" stroke="#63b8ff" d="M906.98,-47.43C899.27,-47.62 891.23,-47.72 883.15,-47.74"/>
<polygon fill="#63b8ff" stroke="#63b8ff" points="883.24,-44.24 873.24,-47.73 883.23,-51.24 883.24,-44.24"/>
</a>
</g>
</g>
</g>
</svg>
