<?xml version="1.0" encoding="UTF-8" standalone="no"?>
<!DOCTYPE svg PUBLIC "-//W3C//DTD SVG 1.1//EN"
 "http://www.w3.org/Graphics/SVG/1.1/DTD/svg11.dtd">
<!-- Generated by graphviz version 14.1.1 (20251213.1925)
 -->
<!-- Title: TelnetSmlApp::Impl::start Pages: 1 -->
<svg width="895pt" height="255pt"
 viewBox="0.00 0.00 895.00 255.00" xmlns="http://www.w3.org/2000/svg" xmlns:xlink="http://www.w3.org/1999/xlink">
<g id="graph0" class="graph" transform="scale(1 1) rotate(0) translate(4 251)">
<title>TelnetSmlApp::Impl::start</title>
<!-- Node1 -->
<g id="Node000001" class="node">
<title>Node1</title>
<g id="a_Node000001"><a xlink:title="Starts all application components.">
<polygon fill="#999999" stroke="#666666" points="101.5,-83 0,-83 0,-51 101.5,-51 101.5,-83"/>
<text xml:space="preserve" text-anchor="start" x="8" y="-69.5" font-family="Helvetica,sans-Serif" font-size="10.00">TelnetSmlApp::Impl</text>
<text xml:space="preserve" text-anchor="middle" x="50.75" y="-57.5" font-family="Helvetica,sans-Serif" font-size="10.00">::start</text>
</a>
</g>
</g>
<!-- Node2 -->
<g id="Node000002" class="node">
<title>Node2</title>
<g id="a_Node000002"><a xlink:href="class_telnet_sml_app_1_1_impl.html#a085f4b9e76192f05c219c0d3d5165ece" target="_top" xlink:title="Extract a string field value from a simple JSON object.">
<polygon fill="white" stroke="#666666" points="268.25,-146 166.75,-146 166.75,-114 268.25,-114 268.25,-146"/>
<text xml:space="preserve" text-anchor="start" x="174.75" y="-132.5" font-family="Helvetica,sans-Serif" font-size="10.00">TelnetSmlApp::Impl</text>
<text xml:space="preserve" text-anchor="middle" x="217.5" y="-120.5" font-family="Helvetica,sans-Serif" font-size="10.00">::extractJsonField</text>
</a>
</g>
</g>
<!-- Node1&#45;&gt;Node2 -->
<g id="edge1_Node000001_Node000002" class="edge">
<title>Node1&#45;&gt;Node2</title>
<g id="a_edge1_Node000001_Node000002"><a xlink:title=" ">
<path fill="none" stroke="#63b8ff" d="M86.43,-83.42C101.9,-90.46 120.44,-98.54 137.5,-105 143.45,-107.25 149.7,-109.47 155.96,-111.6"/>
<polygon fill="#63b8ff" stroke="#63b8ff" points="154.45,-114.79 165.05,-114.62 156.66,-108.14 154.45,-114.79"/>
</a>
</g>
</g>
<!-- Node3 -->
<g id="Node000003" class="node">
<title>Node3</title>
<g id="a_Node000003"><a xlink:href="class_time_sync_manager.html#ab7e1061ae8a4a1bae60ed0411ff4b825" target="_top" xlink:title="Process a JSON action string from WebSocket and return a JSON response.">
<polygon fill="white" stroke="#666666" points="297.5,-96 137.5,-96 137.5,-76 297.5,-76 297.5,-96"/>
<text xml:space="preserve" text-anchor="middle" x="217.5" y="-82.5" font-family="Helvetica,sans-Serif" font-size="10.00">TimeSyncManager::handleAction</text>
</a>
</g>
</g>
<!-- Node1&#45;&gt;Node3 -->
<g id="edge2_Node000001_Node000003" class="edge">
<title>Node1&#45;&gt;Node3</title>
<g id="a_edge2_Node000001_Node000003"><a xlink:title=" ">
<path fill="none" stroke="#63b8ff" d="M101.63,-72.75C109.38,-73.65 117.58,-74.59 125.9,-75.55"/>
<polygon fill="#63b8ff" stroke="#63b8ff" points="125.44,-79.02 135.78,-76.69 126.24,-72.07 125.44,-79.02"/>
</a>
</g>
</g>
<!-- Node11 -->
<g id="Node000011" class="node">
<title>Node11</title>
<g id="a_Node000011"><a xlink:href="ser__json__writer_8hpp.html#a0201bcca7300a0ca2317b4b737232aa0" target="_top" xlink:title="Convert SER records to a JSON array string.">
<polygon fill="white" stroke="#666666" points="473.62,-39 370.62,-39 370.62,-19 473.62,-19 473.62,-39"/>
<text xml:space="preserve" text-anchor="middle" x="422.12" y="-25.5" font-family="Helvetica,sans-Serif" font-size="10.00">recordsToJsonTable</text>
</a>
</g>
</g>
<!-- Node1&#45;&gt;Node11 -->
<g id="edge14_Node000001_Node000011" class="edge">
<title>Node1&#45;&gt;Node11</title>
<g id="a_edge14_Node000001_Node000011"><a xlink:title=" ">
<path fill="none" stroke="#63b8ff" d="M101.95,-61.84C168.7,-54.97 286.64,-42.84 358.95,-35.4"/>
<polygon fill="#63b8ff" stroke="#63b8ff" points="359.05,-38.9 368.64,-34.4 358.33,-31.94 359.05,-38.9"/>
</a>
</g>
</g>
<!-- Node12 -->
<g id="Node000012" class="node">
<title>Node12</title>
<g id="a_Node000012"><a xlink:href="ser__json__writer_8hpp.html#afee0f26302c2f0c76230d5fcaecb067b" target="_top" xlink:title="Write JSON string to a file.">
<polygon fill="white" stroke="#666666" points="259.62,-20 175.38,-20 175.38,0 259.62,0 259.62,-20"/>
<text xml:space="preserve" text-anchor="middle" x="217.5" y="-6.5" font-family="Helvetica,sans-Serif" font-size="10.00">writeJsonToFile</text>
</a>
</g>
</g>
<!-- Node1&#45;&gt;Node12 -->
<g id="edge16_Node000001_Node000012" class="edge">
<title>Node1&#45;&gt;Node12</title>
<g id="a_edge16_Node000001_Node000012"><a xlink:title=" ">
<path fill="none" stroke="#63b8ff" d="M92.53,-50.61C106.69,-45.11 122.72,-39.08 137.5,-34 147.76,-30.47 158.86,-26.93 169.41,-23.69"/>
<polygon fill="#63b8ff" stroke="#63b8ff" points="170.14,-27.13 178.69,-20.88 168.11,-20.43 170.14,-27.13"/>
</a>
</g>
</g>
<!-- Node4 -->
<g id="Node000004" class="node">
<title>Node4</title>
<g id="a_Node000004"><a xlink:href="class_time_sync_manager.html#a729b318dd4e664a91323c6096211fa82" target="_top" xlink:title="Build a JSON error response.">
<polygon fill="white" stroke="#666666" points="712.75,-77 546.75,-77 546.75,-57 712.75,-57 712.75,-77"/>
<text xml:space="preserve" text-anchor="middle" x="629.75" y="-63.5" font-family="Helvetica,sans-Serif" font-size="10.00">TimeSyncManager::buildErrorJson</text>
</a>
</g>
</g>
<!-- Node3&#45;&gt;Node4 -->
<g id="edge3_Node000003_Node000004" class="edge">
<title>Node3&#45;&gt;Node4</title>
<g id="a_edge3_Node000003_Node000004"><a xlink:title=" ">
<path fill="none" stroke="#63b8ff" d="M297.6,-82.34C365.45,-79.19 463.34,-74.66 535.09,-71.34"/>
<polygon fill="#63b8ff" stroke="#63b8ff" points="535.04,-74.84 544.87,-70.88 534.71,-67.85 535.04,-74.84"/>
</a>
</g>
</g>
<!-- Node6 -->
<g id="Node000006" class="node">
<title>Node6</title>
<g id="a_Node000006"><a xlink:href="class_time_sync_manager.html#a6d7aefdf9577ff2f38b502ddbe603d66" target="_top" xlink:title="Handle the &quot;read_time&quot; action.">
<polygon fill="white" stroke="#666666" points="510.75,-181 333.5,-181 333.5,-161 510.75,-161 510.75,-181"/>
<text xml:space="preserve" text-anchor="middle" x="422.12" y="-167.5" font-family="Helvetica,sans-Serif" font-size="10.00">TimeSyncManager::handleReadTime</text>
</a>
</g>
</g>
<!-- Node3&#45;&gt;Node6 -->
<g id="edge5_Node000003_Node000006" class="edge">
<title>Node3&#45;&gt;Node6</title>
<g id="a_edge5_Node000003_Node000006"><a xlink:title=" ">
<path fill="none" stroke="#63b8ff" d="M270.07,-96.4C279.33,-98.83 288.8,-101.69 297.5,-105 298.74,-105.47 355.6,-135.89 391.76,-155.27"/>
<polygon fill="#63b8ff" stroke="#63b8ff" points="389.99,-158.29 400.46,-159.93 393.3,-152.12 389.99,-158.29"/>
</a>
</g>
</g>
<!-- Node10 -->
<g id="Node000010" class="node">
<title>Node10</title>
<g id="a_Node000010"><a xlink:href="class_time_sync_manager.html#ab03b40ab388284d44f5a30a63fa0f432" target="_top" xlink:title="Handle the &quot;sync_time&quot; action.">
<polygon fill="white" stroke="#666666" points="510.38,-115 333.88,-115 333.88,-95 510.38,-95 510.38,-115"/>
<text xml:space="preserve" text-anchor="middle" x="422.12" y="-101.5" font-family="Helvetica,sans-Serif" font-size="10.00">TimeSyncManager::handleSyncTime</text>
</a>
</g>
</g>
<!-- Node3&#45;&gt;Node10 -->
<g id="edge10_Node000003_Node000010" class="edge">
<title>Node3&#45;&gt;Node10</title>
<g id="a_edge10_Node000003_Node000010"><a xlink:title=" ">
<path fill="none" stroke="#63b8ff" d="M297.71,-93.43C305.8,-94.19 314.09,-94.96 322.35,-95.74"/>
<polygon fill="#63b8ff" stroke="#63b8ff" points="321.79,-99.2 332.08,-96.65 322.45,-92.23 321.79,-99.2"/>
</a>
</g>
</g>
<!-- Node5 -->
<g id="Node000005" class="node">
<title>Node5</title>
<g id="a_Node000005"><a xlink:href="ser__json__writer_8hpp.html#a5c077d95f29d39a73aa9b32b93ceddda" target="_top" xlink:title="Escape special characters for JSON string values.">
<polygon fill="white" stroke="#666666" points="852.12,-96 783.62,-96 783.62,-76 852.12,-76 852.12,-96"/>
<text xml:space="preserve" text-anchor="middle" x="817.88" y="-82.5" font-family="Helvetica,sans-Serif" font-size="10.00">escapeJson</text>
</a>
</g>
</g>
<!-- Node4&#45;&gt;Node5 -->
<g id="edge4_Node000004_Node000005" class="edge">
<title>Node4&#45;&gt;Node5</title>
<g id="a_edge4_Node000004_Node000005"><a xlink:title=" ">
<path fill="none" stroke="#63b8ff" d="M713.2,-75.42C733.36,-77.47 754.2,-79.6 771.86,-81.4"/>
<polygon fill="#63b8ff" stroke="#63b8ff" points="771.43,-84.88 781.74,-82.41 772.15,-77.92 771.43,-84.88"/>
</a>
</g>
</g>
<!-- Node6&#45;&gt;Node5 -->
<g id="edge8_Node000006_Node000005" class="edge">
<title>Node6&#45;&gt;Node5</title>
<g id="a_edge8_Node000006_Node000005"><a xlink:title=" ">
<path fill="none" stroke="#63b8ff" d="M470.75,-181.5C529.6,-192.25 631.88,-203.6 712.75,-174 750.31,-160.25 783.66,-126.31 801.98,-104.82"/>
<polygon fill="#63b8ff" stroke="#63b8ff" points="804.47,-107.31 808.13,-97.37 799.07,-102.86 804.47,-107.31"/>
</a>
</g>
</g>
<!-- Node7 -->
<g id="Node000007" class="node">
<title>Node7</title>
<g id="a_Node000007"><a xlink:href="class_time_sync_manager.html#a2b382a0cca1fcf4d52890ccaac8c2a0f" target="_top" xlink:title="Compare relay time and PC time.">
<polygon fill="white" stroke="#666666" points="711.25,-241 548.25,-241 548.25,-221 711.25,-221 711.25,-241"/>
<text xml:space="preserve" text-anchor="middle" x="629.75" y="-227.5" font-family="Helvetica,sans-Serif" font-size="10.00">TimeSyncManager::compareTime</text>
</a>
</g>
</g>
<!-- Node6&#45;&gt;Node7 -->
<g id="edge6_Node000006_Node000007" class="edge">
<title>Node6&#45;&gt;Node7</title>
<g id="a_edge6_Node000006_Node000007"><a xlink:title=" ">
<path fill="none" stroke="#63b8ff" d="M458.94,-181.45C493.19,-191.44 545,-206.56 582.38,-217.47"/>
<polygon fill="#63b8ff" stroke="#63b8ff" points="580.97,-220.7 591.55,-220.14 582.93,-213.98 580.97,-220.7"/>
</a>
</g>
</g>
<!-- Node9 -->
<g id="Node000009" class="node">
<title>Node9</title>
<g id="a_Node000009"><a xlink:href="class_time_sync_manager.html#aed76e580fcce7cd534a760a3daf56af7" target="_top" xlink:title="Get current local PC time formatted as &quot;YYYY&#45;MM&#45;DD HH:MM:SS&quot;.">
<polygon fill="white" stroke="#666666" points="700,-165 559.5,-165 559.5,-133 700,-133 700,-165"/>
<text xml:space="preserve" text-anchor="start" x="567.5" y="-151.5" font-family="Helvetica,sans-Serif" font-size="10.00">TimeSyncManager::getLocal</text>
<text xml:space="preserve" text-anchor="middle" x="629.75" y="-139.5" font-family="Helvetica,sans-Serif" font-size="10.00">PCTime</text>
</a>
</g>
</g>
<!-- Node6&#45;&gt;Node9 -->
<g id="edge9_Node000006_Node000009" class="edge">
<title>Node6&#45;&gt;Node9</title>
<g id="a_edge9_Node000006_Node000009"><a xlink:title=" ">
<path fill="none" stroke="#63b8ff" d="M511.22,-161.57C523.37,-160.28 535.79,-158.95 547.79,-157.66"/>
<polygon fill="#63b8ff" stroke="#63b8ff" points="548.08,-161.15 557.65,-156.61 547.33,-154.19 548.08,-161.15"/>
</a>
</g>
</g>
<!-- Node8 -->
<g id="Node000008" class="node">
<title>Node8</title>
<g id="a_Node000008"><a xlink:href="class_time_sync_manager.html#aaf4fd3f687f474548d24b78bf3233164" target="_top" xlink:title="Parse &quot;YYYY&#45;MM&#45;DD HH:MM:SS&quot; to system_clock::time_point.">
<polygon fill="white" stroke="#666666" points="887,-247 748.75,-247 748.75,-215 887,-215 887,-247"/>
<text xml:space="preserve" text-anchor="start" x="756.75" y="-233.5" font-family="Helvetica,sans-Serif" font-size="10.00">TimeSyncManager::parseTo</text>
<text xml:space="preserve" text-anchor="middle" x="817.88" y="-221.5" font-family="Helvetica,sans-Serif" font-size="10.00">TimePoint</text>
</a>
</g>
</g>
<!-- Node7&#45;&gt;Node8 -->
<g id="edge7_Node000007_Node000008" class="edge">
<title>Node7&#45;&gt;Node8</title>
<g id="a_edge7_Node000007_Node000008"><a xlink:title=" ">
<path fill="none" stroke="#63b8ff" d="M711.58,-231C720.01,-231 728.57,-231 736.99,-231"/>
<polygon fill="#63b8ff" stroke="#63b8ff" points="736.84,-234.5 746.84,-231 736.84,-227.5 736.84,-234.5"/>
</a>
</g>
</g>
<!-- Node10&#45;&gt;Node4 -->
<g id="edge11_Node000010_Node000004" class="edge">
<title>Node10&#45;&gt;Node4</title>
<g id="a_edge11_Node000010_Node000004"><a xlink:title=" ">
<path fill="none" stroke="#63b8ff" d="M479.86,-94.52C505.03,-89.86 534.85,-84.35 561.16,-79.49"/>
<polygon fill="#63b8ff" stroke="#63b8ff" points="561.52,-82.98 570.71,-77.73 560.24,-76.1 561.52,-82.98"/>
</a>
</g>
</g>
<!-- Node10&#45;&gt;Node5 -->
<g id="edge12_Node000010_Node000005" class="edge">
<title>Node10&#45;&gt;Node5</title>
<g id="a_edge12_Node000010_Node000005"><a xlink:title=" ">
<path fill="none" stroke="#63b8ff" d="M510.51,-100.78C591.56,-96.87 708.91,-91.21 772.27,-88.15"/>
<polygon fill="#63b8ff" stroke="#63b8ff" points="772.12,-91.66 781.94,-87.69 771.78,-84.67 772.12,-91.66"/>
</a>
</g>
</g>
<!-- Node10&#45;&gt;Node9 -->
<g id="edge13_Node000010_Node000009" class="edge">
<title>Node10&#45;&gt;Node9</title>
<g id="a_edge13_Node000010_Node000009"><a xlink:title=" ">
<path fill="none" stroke="#63b8ff" d="M472.12,-115.48C494.78,-120.33 522.3,-126.22 547.91,-131.7"/>
<polygon fill="#63b8ff" stroke="#63b8ff" points="547.14,-135.12 557.65,-133.79 548.6,-128.27 547.14,-135.12"/>
</a>
</g>
</g>
<!-- Node11&#45;&gt;Node5 -->
<g id="edge15_Node000011_Node000005" class="edge">
<title>Node11&#45;&gt;Node5</title>
<g id="a_edge15_Node000011_Node000005"><a xlink:title=" ">
<path fill="none" stroke="#63b8ff" d="M473.94,-28C532.25,-27.85 630.41,-30.65 712.75,-48 737.22,-53.16 763.67,-62.87 783.79,-71.18"/>
<polygon fill="#63b8ff" stroke="#63b8ff" points="782.3,-74.35 792.87,-75.03 785.03,-67.91 782.3,-74.35"/>
</a>
</g>
</g>
</g>
</svg>
