<?xml version="1.0" encoding="UTF-8" standalone="no"?>
<!DOCTYPE svg PUBLIC "-//W3C//DTD SVG 1.1//EN"
 "http://www.w3.org/Graphics/SVG/1.1/DTD/svg11.dtd">
<!-- Generated by graphviz version 14.1.1 (20251213.1925)
 -->
<!-- Title: WebSocketSession::drainQueue Pages: 1 -->
<svg width="1053pt" height="144pt"
 viewBox="0.00 0.00 1053.00 144.00" xmlns="http://www.w3.org/2000/svg" xmlns:xlink="http://www.w3.org/1999/xlink">
<g id="graph0" class="graph" transform="scale(1 1) rotate(0) translate(4 140)">
<title>WebSocketSession::drainQueue</title>
<!-- Node1 -->
<g id="Node000001" class="node">
<title>Node1</title>
<g id="a_Node000001"><a xlink:title="Send the next queued message (if any).">
<polygon fill="#999999" stroke="#666666" points="157,-98 0,-98 0,-78 157,-78 157,-98"/>
<text xml:space="preserve" text-anchor="middle" x="78.5" y="-84.5" font-family="Helvetica,sans-Serif" font-size="10.00">WebSocketSession::drainQueue</text>
</a>
</g>
</g>
<!-- Node2 -->
<g id="Node000002" class="node">
<title>Node2</title>
<g id="a_Node000002"><a xlink:href="class_web_socket_session.html#afe8845301daa6254f51e87dd9dd4cc3d" target="_top" xlink:title="Handle broadcast write completion — drains pending queue.">
<polygon fill="white" stroke="#666666" points="326.75,-126 208.75,-126 208.75,-94 326.75,-94 326.75,-126"/>
<text xml:space="preserve" text-anchor="start" x="216.75" y="-112.5" font-family="Helvetica,sans-Serif" font-size="10.00">WebSocketSession::on</text>
<text xml:space="preserve" text-anchor="middle" x="267.75" y="-100.5" font-family="Helvetica,sans-Serif" font-size="10.00">_broadcast_write</text>
</a>
</g>
</g>
<!-- Node1&#45;&gt;Node2 -->
<g id="edge1_Node000001_Node000002" class="edge">
<title>Node1&#45;&gt;Node2</title>
<g id="a_edge1_Node000001_Node000002"><a xlink:title=" ">
<path fill="none" stroke="#63b8ff" d="M157.28,-90.48C170.5,-91.88 184.14,-93.52 197.13,-95.27"/>
<polygon fill="#63b8ff" stroke="#63b8ff" points="196.45,-98.71 206.84,-96.62 197.42,-91.78 196.45,-98.71"/>
</a>
</g>
</g>
<!-- Node3 -->
<g id="Node000003" class="node">
<title>Node3</title>
<g id="a_Node000003"><a xlink:href="class_web_socket_session.html#a2529887f34770366fc2c225bd085edba" target="_top" xlink:title="Send current database records to client as ASN.1 BER/TLV.">
<polygon fill="white" stroke="#666666" points="342.5,-76 193,-76 193,-56 342.5,-56 342.5,-76"/>
<text xml:space="preserve" text-anchor="middle" x="267.75" y="-62.5" font-family="Helvetica,sans-Serif" font-size="10.00">WebSocketSession::sendData</text>
</a>
</g>
</g>
<!-- Node1&#45;&gt;Node3 -->
<g id="edge3_Node000001_Node000003" class="edge">
<title>Node1&#45;&gt;Node3</title>
<g id="a_edge3_Node000001_Node000003"><a xlink:title=" ">
<path fill="none" stroke="#63b8ff" d="M157.28,-78.86C165.21,-77.93 173.28,-76.98 181.28,-76.04"/>
<polygon fill="#63b8ff" stroke="#63b8ff" points="181.49,-79.54 191.01,-74.9 180.67,-72.59 181.49,-79.54"/>
</a>
</g>
</g>
<!-- Node2&#45;&gt;Node1 -->
<g id="edge2_Node000002_Node000001" class="edge">
<title>Node2&#45;&gt;Node1</title>
<g id="a_edge2_Node000002_Node000001"><a xlink:title=" ">
<path fill="none" stroke="#63b8ff" d="M208.43,-109.45C183.81,-107.21 155.36,-103.81 131.46,-100.22"/>
<polygon fill="#63b8ff" stroke="#63b8ff" points="132.05,-96.77 121.63,-98.69 130.97,-103.69 132.05,-96.77"/>
</a>
</g>
</g>
<!-- Node4 -->
<g id="Node000004" class="node">
<title>Node4</title>
<g id="a_Node000004"><a xlink:href="namespaceasn__tlv.html#a03c61eaf7c30d4bb4e8f50d6cd2f5f03" target="_top" xlink:title="Encode SER records to ASN.1 BER/TLV format.">
<polygon fill="white" stroke="#666666" points="515.25,-128 378.5,-128 378.5,-96 515.25,-96 515.25,-128"/>
<text xml:space="preserve" text-anchor="start" x="386.5" y="-114.5" font-family="Helvetica,sans-Serif" font-size="10.00">asn_tlv::encodeSerRecords</text>
<text xml:space="preserve" text-anchor="middle" x="446.88" y="-102.5" font-family="Helvetica,sans-Serif" font-size="10.00">ToTlv</text>
</a>
</g>
</g>
<!-- Node3&#45;&gt;Node4 -->
<g id="edge4_Node000003_Node000004" class="edge">
<title>Node3&#45;&gt;Node4</title>
<g id="a_edge4_Node000003_Node000004"><a xlink:title=" ">
<path fill="none" stroke="#63b8ff" d="M309.33,-76.43C320.11,-79.21 331.75,-82.21 342.5,-85 352.02,-87.47 362.04,-90.08 371.93,-92.65"/>
<polygon fill="#63b8ff" stroke="#63b8ff" points="370.99,-96.03 381.55,-95.16 372.76,-89.25 370.99,-96.03"/>
</a>
</g>
</g>
<!-- Node8 -->
<g id="Node000008" class="node">
<title>Node8</title>
<g id="a_Node000008"><a xlink:href="class_web_socket_session.html#a0fed81151d5dcbe23dbee79f1bf12c66" target="_top" xlink:title="Handle write completion.">
<polygon fill="white" stroke="#666666" points="505.88,-40 387.88,-40 387.88,-8 505.88,-8 505.88,-40"/>
<text xml:space="preserve" text-anchor="start" x="395.88" y="-26.5" font-family="Helvetica,sans-Serif" font-size="10.00">WebSocketSession::on</text>
<text xml:space="preserve" text-anchor="middle" x="446.88" y="-14.5" font-family="Helvetica,sans-Serif" font-size="10.00">_write</text>
</a>
</g>
</g>
<!-- Node3&#45;&gt;Node8 -->
<g id="edge9_Node000003_Node000008" class="edge">
<title>Node3&#45;&gt;Node8</title>
<g id="a_edge9_Node000003_Node000008"><a xlink:title=" ">
<path fill="none" stroke="#63b8ff" d="M312.99,-55.51C332.19,-50.96 355.13,-45.52 376.5,-40.45"/>
<polygon fill="#63b8ff" stroke="#63b8ff" points="377.11,-43.9 386.03,-38.19 375.5,-37.09 377.11,-43.9"/>
</a>
</g>
</g>
<!-- Node5 -->
<g id="Node000005" class="node">
<title>Node5</title>
<g id="a_Node000005"><a xlink:href="namespaceasn__tlv.html#a0cc9af3d4e8aba5f164c66bb47750767" target="_top" xlink:title="Append a string as a TLV structure.">
<polygon fill="white" stroke="#666666" points="685,-119 559.5,-119 559.5,-99 685,-99 685,-119"/>
<text xml:space="preserve" text-anchor="middle" x="622.25" y="-105.5" font-family="Helvetica,sans-Serif" font-size="10.00">asn_tlv::berAppendString</text>
</a>
</g>
</g>
<!-- Node4&#45;&gt;Node5 -->
<g id="edge5_Node000004_Node000005" class="edge">
<title>Node4&#45;&gt;Node5</title>
<g id="a_edge5_Node000004_Node000005"><a xlink:title=" ">
<path fill="none" stroke="#63b8ff" d="M515.4,-110.83C525.95,-110.65 536.89,-110.46 547.56,-110.28"/>
<polygon fill="#63b8ff" stroke="#63b8ff" points="547.55,-113.78 557.49,-110.1 547.43,-106.78 547.55,-113.78"/>
</a>
</g>
</g>
<!-- Node6 -->
<g id="Node000006" class="node">
<title>Node6</title>
<g id="a_Node000006"><a xlink:href="namespaceasn__tlv.html#a4a9f3333d71c851f9002020ffd417b18" target="_top" xlink:title="Append a complete TLV structure to an output buffer.">
<polygon fill="white" stroke="#666666" points="857,-136 743.5,-136 743.5,-116 857,-116 857,-136"/>
<text xml:space="preserve" text-anchor="middle" x="800.25" y="-122.5" font-family="Helvetica,sans-Serif" font-size="10.00">asn_tlv::berAppendTlv</text>
</a>
</g>
</g>
<!-- Node4&#45;&gt;Node6 -->
<g id="edge8_Node000004_Node000006" class="edge">
<title>Node4&#45;&gt;Node6</title>
<g id="a_edge8_Node000004_Node000006"><a xlink:title=" ">
<path fill="none" stroke="#63b8ff" d="M515.54,-124C527.41,-125.66 539.66,-127.11 551.25,-128 612.19,-132.69 681.79,-131.56 731.72,-129.63"/>
<polygon fill="#63b8ff" stroke="#63b8ff" points="731.65,-133.13 741.5,-129.23 731.37,-126.14 731.65,-133.13"/>
</a>
</g>
</g>
<!-- Node5&#45;&gt;Node6 -->
<g id="edge6_Node000005_Node000006" class="edge">
<title>Node5&#45;&gt;Node6</title>
<g id="a_edge6_Node000005_Node000006"><a xlink:title=" ">
<path fill="none" stroke="#63b8ff" d="M685.3,-114.99C700.29,-116.44 716.37,-117.99 731.6,-119.47"/>
<polygon fill="#63b8ff" stroke="#63b8ff" points="731.25,-122.95 741.54,-120.43 731.92,-115.98 731.25,-122.95"/>
</a>
</g>
</g>
<!-- Node7 -->
<g id="Node000007" class="node">
<title>Node7</title>
<g id="a_Node000007"><a xlink:href="namespaceasn__tlv.html#af1ae5498c52c5e99d18f2cd5cb4f2609" target="_top" xlink:title="Append BER length encoding to an output buffer.">
<polygon fill="white" stroke="#666666" points="1040.62,-136 911.38,-136 911.38,-116 1040.62,-116 1040.62,-136"/>
<text xml:space="preserve" text-anchor="middle" x="976" y="-122.5" font-family="Helvetica,sans-Serif" font-size="10.00">asn_tlv::berAppendLength</text>
</a>
</g>
</g>
<!-- Node6&#45;&gt;Node7 -->
<g id="edge7_Node000006_Node000007" class="edge">
<title>Node6&#45;&gt;Node7</title>
<g id="a_edge7_Node000006_Node000007"><a xlink:title=" ">
<path fill="none" stroke="#63b8ff" d="M857.18,-126C870.72,-126 885.42,-126 899.69,-126"/>
<polygon fill="#63b8ff" stroke="#63b8ff" points="899.5,-129.5 909.5,-126 899.5,-122.5 899.5,-129.5"/>
</a>
</g>
</g>
<!-- Node8&#45;&gt;Node1 -->
<g id="edge16_Node000008_Node000001" class="edge">
<title>Node8&#45;&gt;Node1</title>
<g id="a_edge16_Node000008_Node000001"><a xlink:title=" ">
<path fill="none" stroke="#63b8ff" d="M387.48,-25.09C335.8,-27.05 258.63,-32.42 193,-47 165.53,-53.1 135.64,-64.09 113.44,-73.15"/>
<polygon fill="#63b8ff" stroke="#63b8ff" points="112.17,-69.89 104.28,-76.97 114.86,-76.35 112.17,-69.89"/>
</a>
</g>
</g>
<!-- Node9 -->
<g id="Node000009" class="node">
<title>Node9</title>
<g id="a_Node000009"><a xlink:href="class_web_socket_session.html#a2bc079950c2e39e8ff745f0da57646ba" target="_top" xlink:title="Initiate async read for next client message.">
<polygon fill="white" stroke="#666666" points="693.25,-37 551.25,-37 551.25,-17 693.25,-17 693.25,-37"/>
<text xml:space="preserve" text-anchor="middle" x="622.25" y="-23.5" font-family="Helvetica,sans-Serif" font-size="10.00">WebSocketSession::do_read</text>
</a>
</g>
</g>
<!-- Node8&#45;&gt;Node9 -->
<g id="edge10_Node000008_Node000009" class="edge">
<title>Node8&#45;&gt;Node9</title>
<g id="a_edge10_Node000008_Node000009"><a xlink:title=" ">
<path fill="none" stroke="#63b8ff" d="M506.09,-25.01C516.86,-25.19 528.29,-25.39 539.61,-25.59"/>
<polygon fill="#63b8ff" stroke="#63b8ff" points="539.29,-29.08 549.35,-25.76 539.41,-22.08 539.29,-29.08"/>
</a>
</g>
</g>
<!-- Node10 -->
<g id="Node000010" class="node">
<title>Node10</title>
<g id="a_Node000010"><a xlink:href="class_web_socket_session.html#a6c0557f87f9f6050a8848237ace942bb" target="_top" xlink:title="Handle received client message.">
<polygon fill="white" stroke="#666666" points="871.25,-37 729.25,-37 729.25,-17 871.25,-17 871.25,-37"/>
<text xml:space="preserve" text-anchor="middle" x="800.25" y="-23.5" font-family="Helvetica,sans-Serif" font-size="10.00">WebSocketSession::on_read</text>
</a>
</g>
</g>
<!-- Node9&#45;&gt;Node10 -->
<g id="edge11_Node000009_Node000010" class="edge">
<title>Node9&#45;&gt;Node10</title>
<g id="a_edge11_Node000009_Node000010"><a xlink:title=" ">
<path fill="none" stroke="#63b8ff" d="M693.57,-20.37C701.44,-20.26 709.51,-20.23 717.52,-20.27"/>
<polygon fill="#63b8ff" stroke="#63b8ff" points="717.21,-23.76 727.24,-20.36 717.28,-16.76 717.21,-23.76"/>
</a>
</g>
</g>
<!-- Node10&#45;&gt;Node3 -->
<g id="edge15_Node000010_Node000003" class="edge">
<title>Node10&#45;&gt;Node3</title>
<g id="a_edge15_Node000010_Node000003"><a xlink:title=" ">
<path fill="none" stroke="#63b8ff" d="M748.5,-37.48C731.06,-40.72 711.36,-43.96 693.25,-46 576.25,-59.19 440.16,-63.7 354.25,-65.24"/>
<polygon fill="#63b8ff" stroke="#63b8ff" points="354.44,-61.73 344.5,-65.4 354.55,-68.73 354.44,-61.73"/>
</a>
</g>
</g>
<!-- Node10&#45;&gt;Node9 -->
<g id="edge12_Node000010_Node000009" class="edge">
<title>Node10&#45;&gt;Node9</title>
<g id="a_edge12_Node000010_Node000009"><a xlink:title=" ">
<path fill="none" stroke="#63b8ff" d="M728.76,-33.63C720.97,-33.74 712.99,-33.77 705.08,-33.74"/>
<polygon fill="#63b8ff" stroke="#63b8ff" points="705.11,-30.24 695.08,-33.64 705.05,-37.24 705.11,-30.24"/>
</a>
</g>
</g>
<!-- Node11 -->
<g id="Node000011" class="node">
<title>Node11</title>
<g id="a_Node000011"><a xlink:href="class_web_socket_session.html#a43bf9b3aa8c9ed23d031c7ae8059da22" target="_top" xlink:title="Extract the &quot;action&quot; value from a simple JSON object.">
<polygon fill="white" stroke="#666666" points="1044.75,-32 907.25,-32 907.25,0 1044.75,0 1044.75,-32"/>
<text xml:space="preserve" text-anchor="start" x="915.25" y="-18.5" font-family="Helvetica,sans-Serif" font-size="10.00">WebSocketSession::extract</text>
<text xml:space="preserve" text-anchor="middle" x="976" y="-6.5" font-family="Helvetica,sans-Serif" font-size="10.00">Action</text>
</a>
</g>
</g>
<!-- Node10&#45;&gt;Node11 -->
<g id="edge13_Node000010_Node000011" class="edge">
<title>Node10&#45;&gt;Node11</title>
<g id="a_edge13_Node000010_Node000011"><a xlink:title=" ">
<path fill="none" stroke="#63b8ff" d="M871.67,-22.54C879.6,-22.04 887.72,-21.53 895.75,-21.02"/>
<polygon fill="#63b8ff" stroke="#63b8ff" points="895.74,-24.52 905.5,-20.4 895.3,-17.54 895.74,-24.52"/>
</a>
</g>
</g>
<!-- Node12 -->
<g id="Node000012" class="node">
<title>Node12</title>
<g id="a_Node000012"><a xlink:href="class_web_socket_session.html#a606e227b631d765ac0191c0535df607f" target="_top" xlink:title="Check if a message is a JSON action (contains &quot;action&quot; key).">
<polygon fill="white" stroke="#666666" points="1044,-82 908,-82 908,-50 1044,-50 1044,-82"/>
<text xml:space="preserve" text-anchor="start" x="916" y="-68.5" font-family="Helvetica,sans-Serif" font-size="10.00">WebSocketSession::isJson</text>
<text xml:space="preserve" text-anchor="middle" x="976" y="-56.5" font-family="Helvetica,sans-Serif" font-size="10.00">Action</text>
</a>
</g>
</g>
<!-- Node10&#45;&gt;Node12 -->
<g id="edge14_Node000010_Node000012" class="edge">
<title>Node10&#45;&gt;Node12</title>
<g id="a_edge14_Node000010_Node000012"><a xlink:title=" ">
<path fill="none" stroke="#63b8ff" d="M847.81,-37.45C862.9,-40.84 880.08,-44.69 896.82,-48.45"/>
<polygon fill="#63b8ff" stroke="#63b8ff" points="895.73,-51.79 906.25,-50.57 897.26,-44.96 895.73,-51.79"/>
</a>
</g>
</g>
</g>
</svg>
