<?xml version="1.0" encoding="UTF-8" standalone="no"?>
<!DOCTYPE svg PUBLIC "-//W3C//DTD SVG 1.1//EN"
 "http://www.w3.org/Graphics/SVG/1.1/DTD/svg11.dtd">
<!-- Generated by graphviz version 14.1.1 (20251213.1925)
 -->
<!-- Title: WebSocketSession::do_broadcast Pages: 1 -->
<svg width="1361pt" height="144pt"
 viewBox="0.00 0.00 1361.00 144.00" xmlns="http://www.w3.org/2000/svg" xmlns:xlink="http://www.w3.org/1999/xlink">
<g id="graph0" class="graph" transform="scale(1 1) rotate(0) translate(4 140)">
<title>WebSocketSession::do_broadcast</title>
<!-- Node1 -->
<g id="Node000001" class="node">
<title>Node1</title>
<g id="a_Node000001"><a xlink:title="Perform broadcast write operation (called on strand).">
<polygon fill="#999999" stroke="#666666" points="118,-62 0,-62 0,-30 118,-30 118,-62"/>
<text xml:space="preserve" text-anchor="start" x="8" y="-48.5" font-family="Helvetica,sans-Serif" font-size="10.00">WebSocketSession::do</text>
<text xml:space="preserve" text-anchor="middle" x="59" y="-36.5" font-family="Helvetica,sans-Serif" font-size="10.00">_broadcast</text>
</a>
</g>
</g>
<!-- Node2 -->
<g id="Node000002" class="node">
<title>Node2</title>
<g id="a_Node000002"><a xlink:href="class_web_socket_session.html#afe8845301daa6254f51e87dd9dd4cc3d" target="_top" xlink:title="Handle broadcast write completion — drains pending queue.">
<polygon fill="white" stroke="#666666" points="272,-62 154,-62 154,-30 272,-30 272,-62"/>
<text xml:space="preserve" text-anchor="start" x="162" y="-48.5" font-family="Helvetica,sans-Serif" font-size="10.00">WebSocketSession::on</text>
<text xml:space="preserve" text-anchor="middle" x="213" y="-36.5" font-family="Helvetica,sans-Serif" font-size="10.00">_broadcast_write</text>
</a>
</g>
</g>
<!-- Node1&#45;&gt;Node2 -->
<g id="edge1_Node000001_Node000002" class="edge">
<title>Node1&#45;&gt;Node2</title>
<g id="a_edge1_Node000001_Node000002"><a xlink:title=" ">
<path fill="none" stroke="#63b8ff" d="M118.33,-46C126.19,-46 134.3,-46 142.33,-46"/>
<polygon fill="#63b8ff" stroke="#63b8ff" points="142.06,-49.5 152.06,-46 142.06,-42.5 142.06,-49.5"/>
</a>
</g>
</g>
<!-- Node3 -->
<g id="Node000003" class="node">
<title>Node3</title>
<g id="a_Node000003"><a xlink:href="class_web_socket_session.html#a124943db6c094918e372c94bfb7ec533" target="_top" xlink:title="Send the next queued message (if any).">
<polygon fill="white" stroke="#666666" points="465,-56 308,-56 308,-36 465,-36 465,-56"/>
<text xml:space="preserve" text-anchor="middle" x="386.5" y="-42.5" font-family="Helvetica,sans-Serif" font-size="10.00">WebSocketSession::drainQueue</text>
</a>
</g>
</g>
<!-- Node2&#45;&gt;Node3 -->
<g id="edge2_Node000002_Node000003" class="edge">
<title>Node2&#45;&gt;Node3</title>
<g id="a_edge2_Node000002_Node000003"><a xlink:title=" ">
<path fill="none" stroke="#63b8ff" d="M272.06,-39.57C279.95,-39.38 288.18,-39.28 296.45,-39.25"/>
<polygon fill="#63b8ff" stroke="#63b8ff" points="296.21,-42.75 306.22,-39.27 296.22,-35.75 296.21,-42.75"/>
</a>
</g>
</g>
<!-- Node3&#45;&gt;Node2 -->
<g id="edge3_Node000003_Node000002" class="edge">
<title>Node3&#45;&gt;Node2</title>
<g id="a_edge3_Node000003_Node000002"><a xlink:title=" ">
<path fill="none" stroke="#63b8ff" d="M307.73,-52.72C299.67,-52.78 291.52,-52.75 283.55,-52.64"/>
<polygon fill="#63b8ff" stroke="#63b8ff" points="283.64,-49.14 273.58,-52.46 283.51,-56.14 283.64,-49.14"/>
</a>
</g>
</g>
<!-- Node4 -->
<g id="Node000004" class="node">
<title>Node4</title>
<g id="a_Node000004"><a xlink:href="class_web_socket_session.html#a2529887f34770366fc2c225bd085edba" target="_top" xlink:title="Send current database records to client as ASN.1 BER/TLV.">
<polygon fill="white" stroke="#666666" points="650.5,-76 501,-76 501,-56 650.5,-56 650.5,-76"/>
<text xml:space="preserve" text-anchor="middle" x="575.75" y="-62.5" font-family="Helvetica,sans-Serif" font-size="10.00">WebSocketSession::sendData</text>
</a>
</g>
</g>
<!-- Node3&#45;&gt;Node4 -->
<g id="edge4_Node000003_Node000004" class="edge">
<title>Node3&#45;&gt;Node4</title>
<g id="a_edge4_Node000003_Node000004"><a xlink:title=" ">
<path fill="none" stroke="#63b8ff" d="M465.28,-54.31C473.21,-55.15 481.28,-56.02 489.28,-56.87"/>
<polygon fill="#63b8ff" stroke="#63b8ff" points="488.69,-60.33 499.01,-57.91 489.44,-53.37 488.69,-60.33"/>
</a>
</g>
</g>
<!-- Node5 -->
<g id="Node000005" class="node">
<title>Node5</title>
<g id="a_Node000005"><a xlink:href="namespaceasn__tlv.html#a03c61eaf7c30d4bb4e8f50d6cd2f5f03" target="_top" xlink:title="Encode SER records to ASN.1 BER/TLV format.">
<polygon fill="white" stroke="#666666" points="823.25,-128 686.5,-128 686.5,-96 823.25,-96 823.25,-128"/>
<text xml:space="preserve" text-anchor="start" x="694.5" y="-114.5" font-family="Helvetica,sans-Serif" font-size="10.00">asn_tlv::encodeSerRecords</text>
<text xml:space="preserve" text-anchor="middle" x="754.88" y="-102.5" font-family="Helvetica,sans-Serif" font-size="10.00">ToTlv</text>
</a>
</g>
</g>
<!-- Node4&#45;&gt;Node5 -->
<g id="edge5_Node000004_Node000005" class="edge">
<title>Node4&#45;&gt;Node5</title>
<g id="a_edge5_Node000004_Node000005"><a xlink:title=" ">
<path fill="none" stroke="#63b8ff" d="M616.94,-76.44C635.46,-81.25 658.04,-87.11 679.48,-92.68"/>
<polygon fill="#63b8ff" stroke="#63b8ff" points="678.54,-96.05 689.1,-95.18 680.3,-89.28 678.54,-96.05"/>
</a>
</g>
</g>
<!-- Node9 -->
<g id="Node000009" class="node">
<title>Node9</title>
<g id="a_Node000009"><a xlink:href="class_web_socket_session.html#a0fed81151d5dcbe23dbee79f1bf12c66" target="_top" xlink:title="Handle write completion.">
<polygon fill="white" stroke="#666666" points="813.88,-40 695.88,-40 695.88,-8 813.88,-8 813.88,-40"/>
<text xml:space="preserve" text-anchor="start" x="703.88" y="-26.5" font-family="Helvetica,sans-Serif" font-size="10.00">WebSocketSession::on</text>
<text xml:space="preserve" text-anchor="middle" x="754.88" y="-14.5" font-family="Helvetica,sans-Serif" font-size="10.00">_write</text>
</a>
</g>
</g>
<!-- Node4&#45;&gt;Node9 -->
<g id="edge10_Node000004_Node000009" class="edge">
<title>Node4&#45;&gt;Node9</title>
<g id="a_edge10_Node000004_Node000009"><a xlink:title=" ">
<path fill="none" stroke="#63b8ff" d="M620.99,-55.51C640.19,-50.96 663.13,-45.52 684.5,-40.45"/>
<polygon fill="#63b8ff" stroke="#63b8ff" points="685.11,-43.9 694.03,-38.19 683.5,-37.09 685.11,-43.9"/>
</a>
</g>
</g>
<!-- Node6 -->
<g id="Node000006" class="node">
<title>Node6</title>
<g id="a_Node000006"><a xlink:href="namespaceasn__tlv.html#a0cc9af3d4e8aba5f164c66bb47750767" target="_top" xlink:title="Append a string as a TLV structure.">
<polygon fill="white" stroke="#666666" points="993,-119 867.5,-119 867.5,-99 993,-99 993,-119"/>
<text xml:space="preserve" text-anchor="middle" x="930.25" y="-105.5" font-family="Helvetica,sans-Serif" font-size="10.00">asn_tlv::berAppendString</text>
</a>
</g>
</g>
<!-- Node5&#45;&gt;Node6 -->
<g id="edge6_Node000005_Node000006" class="edge">
<title>Node5&#45;&gt;Node6</title>
<g id="a_edge6_Node000005_Node000006"><a xlink:title=" ">
<path fill="none" stroke="#63b8ff" d="M823.4,-110.83C833.95,-110.65 844.89,-110.46 855.56,-110.28"/>
<polygon fill="#63b8ff" stroke="#63b8ff" points="855.55,-113.78 865.49,-110.1 855.43,-106.78 855.55,-113.78"/>
</a>
</g>
</g>
<!-- Node7 -->
<g id="Node000007" class="node">
<title>Node7</title>
<g id="a_Node000007"><a xlink:href="namespaceasn__tlv.html#a4a9f3333d71c851f9002020ffd417b18" target="_top" xlink:title="Append a complete TLV structure to an output buffer.">
<polygon fill="white" stroke="#666666" points="1165,-136 1051.5,-136 1051.5,-116 1165,-116 1165,-136"/>
<text xml:space="preserve" text-anchor="middle" x="1108.25" y="-122.5" font-family="Helvetica,sans-Serif" font-size="10.00">asn_tlv::berAppendTlv</text>
</a>
</g>
</g>
<!-- Node5&#45;&gt;Node7 -->
<g id="edge9_Node000005_Node000007" class="edge">
<title>Node5&#45;&gt;Node7</title>
<g id="a_edge9_Node000005_Node000007"><a xlink:title=" ">
<path fill="none" stroke="#63b8ff" d="M823.54,-124C835.41,-125.66 847.66,-127.11 859.25,-128 920.19,-132.69 989.79,-131.56 1039.72,-129.63"/>
<polygon fill="#63b8ff" stroke="#63b8ff" points="1039.65,-133.13 1049.5,-129.23 1039.37,-126.14 1039.65,-133.13"/>
</a>
</g>
</g>
<!-- Node6&#45;&gt;Node7 -->
<g id="edge7_Node000006_Node000007" class="edge">
<title>Node6&#45;&gt;Node7</title>
<g id="a_edge7_Node000006_Node000007"><a xlink:title=" ">
<path fill="none" stroke="#63b8ff" d="M993.3,-114.99C1008.29,-116.44 1024.37,-117.99 1039.6,-119.47"/>
<polygon fill="#63b8ff" stroke="#63b8ff" points="1039.25,-122.95 1049.54,-120.43 1039.92,-115.98 1039.25,-122.95"/>
</a>
</g>
</g>
<!-- Node8 -->
<g id="Node000008" class="node">
<title>Node8</title>
<g id="a_Node000008"><a xlink:href="namespaceasn__tlv.html#af1ae5498c52c5e99d18f2cd5cb4f2609" target="_top" xlink:title="Append BER length encoding to an output buffer.">
<polygon fill="white" stroke="#666666" points="1348.62,-136 1219.38,-136 1219.38,-116 1348.62,-116 1348.62,-136"/>
<text xml:space="preserve" text-anchor="middle" x="1284" y="-122.5" font-family="Helvetica,sans-Serif" font-size="10.00">asn_tlv::berAppendLength</text>
</a>
</g>
</g>
<!-- Node7&#45;&gt;Node8 -->
<g id="edge8_Node000007_Node000008" class="edge">
<title>Node7&#45;&gt;Node8</title>
<g id="a_edge8_Node000007_Node000008"><a xlink:title=" ">
<path fill="none" stroke="#63b8ff" d="M1165.18,-126C1178.72,-126 1193.42,-126 1207.69,-126"/>
<polygon fill="#63b8ff" stroke="#63b8ff" points="1207.5,-129.5 1217.5,-126 1207.5,-122.5 1207.5,-129.5"/>
</a>
</g>
</g>
<!-- Node9&#45;&gt;Node3 -->
<g id="edge17_Node000009_Node000003" class="edge">
<title>Node9&#45;&gt;Node3</title>
<g id="a_edge17_Node000009_Node000003"><a xlink:title=" ">
<path fill="none" stroke="#63b8ff" d="M695.52,-27.5C636.48,-31.05 544.44,-36.58 476.34,-40.67"/>
<polygon fill="#63b8ff" stroke="#63b8ff" points="476.48,-37.15 466.71,-41.24 476.9,-44.14 476.48,-37.15"/>
</a>
</g>
</g>
<!-- Node10 -->
<g id="Node000010" class="node">
<title>Node10</title>
<g id="a_Node000010"><a xlink:href="class_web_socket_session.html#a2bc079950c2e39e8ff745f0da57646ba" target="_top" xlink:title="Initiate async read for next client message.">
<polygon fill="white" stroke="#666666" points="1001.25,-37 859.25,-37 859.25,-17 1001.25,-17 1001.25,-37"/>
<text xml:space="preserve" text-anchor="middle" x="930.25" y="-23.5" font-family="Helvetica,sans-Serif" font-size="10.00">WebSocketSession::do_read</text>
</a>
</g>
</g>
<!-- Node9&#45;&gt;Node10 -->
<g id="edge11_Node000009_Node000010" class="edge">
<title>Node9&#45;&gt;Node10</title>
<g id="a_edge11_Node000009_Node000010"><a xlink:title=" ">
<path fill="none" stroke="#63b8ff" d="M814.09,-25.01C824.86,-25.19 836.29,-25.39 847.61,-25.59"/>
<polygon fill="#63b8ff" stroke="#63b8ff" points="847.29,-29.08 857.35,-25.76 847.41,-22.08 847.29,-29.08"/>
</a>
</g>
</g>
<!-- Node11 -->
<g id="Node000011" class="node">
<title>Node11</title>
<g id="a_Node000011"><a xlink:href="class_web_socket_session.html#a6c0557f87f9f6050a8848237ace942bb" target="_top" xlink:title="Handle received client message.">
<polygon fill="white" stroke="#666666" points="1179.25,-37 1037.25,-37 1037.25,-17 1179.25,-17 1179.25,-37"/>
<text xml:space="preserve" text-anchor="middle" x="1108.25" y="-23.5" font-family="Helvetica,sans-Serif" font-size="10.00">WebSocketSession::on_read</text>
</a>
</g>
</g>
<!-- Node10&#45;&gt;Node11 -->
<g id="edge12_Node000010_Node000011" class="edge">
<title>Node10&#45;&gt;Node11</title>
<g id="a_edge12_Node000010_Node000011"><a xlink:title=" ">
<path fill="none" stroke="#63b8ff" d="M1001.57,-20.37C1009.44,-20.26 1017.51,-20.23 1025.52,-20.27"/>
<polygon fill="#63b8ff" stroke="#63b8ff" points="1025.21,-23.76 1035.24,-20.36 1025.28,-16.76 1025.21,-23.76"/>
</a>
</g>
</g>
<!-- Node11&#45;&gt;Node4 -->
<g id="edge16_Node000011_Node000004" class="edge">
<title>Node11&#45;&gt;Node4</title>
<g id="a_edge16_Node000011_Node000004"><a xlink:title=" ">
<path fill="none" stroke="#63b8ff" d="M1056.5,-37.48C1039.06,-40.72 1019.36,-43.96 1001.25,-46 884.25,-59.19 748.16,-63.7 662.25,-65.24"/>
<polygon fill="#63b8ff" stroke="#63b8ff" points="662.44,-61.73 652.5,-65.4 662.55,-68.73 662.44,-61.73"/>
</a>
</g>
</g>
<!-- Node11&#45;&gt;Node10 -->
<g id="edge13_Node000011_Node000010" class="edge">
<title>Node11&#45;&gt;Node10</title>
<g id="a_edge13_Node000011_Node000010"><a xlink:title=" ">
<path fill="none" stroke="#63b8ff" d="M1036.76,-33.63C1028.97,-33.74 1020.99,-33.77 1013.08,-33.74"/>
<polygon fill="#63b8ff" stroke="#63b8ff" points="1013.11,-30.24 1003.08,-33.64 1013.05,-37.24 1013.11,-30.24"/>
</a>
</g>
</g>
<!-- Node12 -->
<g id="Node000012" class="node">
<title>Node12</title>
<g id="a_Node000012"><a xlink:href="class_web_socket_session.html#a43bf9b3aa8c9ed23d031c7ae8059da22" target="_top" xlink:title="Extract the &quot;action&quot; value from a simple JSON object.">
<polygon fill="white" stroke="#666666" points="1352.75,-32 1215.25,-32 1215.25,0 1352.75,0 1352.75,-32"/>
<text xml:space="preserve" text-anchor="start" x="1223.25" y="-18.5" font-family="Helvetica,sans-Serif" font-size="10.00">WebSocketSession::extract</text>
<text xml:space="preserve" text-anchor="middle" x="1284" y="-6.5" font-family="Helvetica,sans-Serif" font-size="10.00">Action</text>
</a>
</g>
</g>
<!-- Node11&#45;&gt;Node12 -->
<g id="edge14_Node000011_Node000012" class="edge">
<title>Node11&#45;&gt;Node12</title>
<g id="a_edge14_Node000011_Node000012"><a xlink:title=" ">
<path fill="none" stroke="#63b8ff" d="M1179.67,-22.54C1187.6,-22.04 1195.72,-21.53 1203.75,-21.02"/>
<polygon fill="#63b8ff" stroke="#63b8ff" points="1203.74,-24.52 1213.5,-20.4 1203.3,-17.54 1203.74,-24.52"/>
</a>
</g>
</g>
<!-- Node13 -->
<g id="Node000013" class="node">
<title>Node13</title>
<g id="a_Node000013"><a xlink:href="class_web_socket_session.html#a606e227b631d765ac0191c0535df607f" target="_top" xlink:title="Check if a message is a JSON action (contains &quot;action&quot; key).">
<polygon fill="white" stroke="#666666" points="1352,-82 1216,-82 1216,-50 1352,-50 1352,-82"/>
<text xml:space="preserve" text-anchor="start" x="1224" y="-68.5" font-family="Helvetica,sans-Serif" font-size="10.00">WebSocketSession::isJson</text>
<text xml:space="preserve" text-anchor="middle" x="1284" y="-56.5" font-family="Helvetica,sans-Serif" font-size="10.00">Action</text>
</a>
</g>
</g>
<!-- Node11&#45;&gt;Node13 -->
<g id="edge15_Node000011_Node000013" class="edge">
<title>Node11&#45;&gt;Node13</title>
<g id="a_edge15_Node000011_Node000013"><a xlink:title=" ">
<path fill="none" stroke="#63b8ff" d="M1155.81,-37.45C1170.9,-40.84 1188.08,-44.69 1204.82,-48.45"/>
<polygon fill="#63b8ff" stroke="#63b8ff" points="1203.73,-51.79 1214.25,-50.57 1205.26,-44.96 1203.73,-51.79"/>
</a>
</g>
</g>
</g>
</svg>
