<?xml version="1.0" encoding="UTF-8" standalone="no"?>
<!DOCTYPE svg PUBLIC "-//W3C//DTD SVG 1.1//EN"
 "http://www.w3.org/Graphics/SVG/1.1/DTD/svg11.dtd">
<!-- Generated by graphviz version 14.1.2 (20260124.0452)
 -->
<!-- Title: SharedSerReader Pages: 1 -->
<svg width="286pt" height="331pt"
 viewBox="0.00 0.00 286.00 331.00" xmlns="http://www.w3.org/2000/svg" xmlns:xlink="http://www.w3.org/1999/xlink">

<svg id="main" version="1.1" xmlns="http://www.w3.org/2000/svg" xmlns:xlink="http://www.w3.org/1999/xlink" xml:space="preserve">

<style type="text/css"><![CDATA[
.node, .edge {opacity: 0.7;}
.node.selected, .edge.selected {opacity: 1;}
.edge:hover path { stroke: red; }
.edge:hover polygon { stroke: red; fill: red; }
]]></style>
<script type="application/ecmascript" xlink:href="svg.min.js"/>
<svg id="graph" class="graph">
<g id="graph0" class="graph" transform="scale(1 1) rotate(0) translate(4 327)">
<title>SharedSerReader</title>
<!-- Node1 -->
<g id="Node000001" class="node">
<title>Node1</title>
<g id="a_Node000001"><a xlink:title="Thread 5 &#45; Reads from SharedRingBuffer and writes JSON to file.">
<polygon fill="#999999" stroke="none" points="183.62,-116 82.38,-116 82.38,0 183.62,0 183.62,-116"/>
<text xml:space="preserve" text-anchor="start" x="94.38" y="-102.5" font-family="Helvetica,sans-Serif" font-size="10.00">SharedSerReader</text>
<text xml:space="preserve" text-anchor="start" x="87.88" y="-86.5" font-family="Helvetica,sans-Serif" font-size="10.00">&#45;</text>
<text xml:space="preserve" text-anchor="start" x="96.38" y="-86.5" font-family="Helvetica,sans-Serif" font-size="10.00">ring_</text>
<text xml:space="preserve" text-anchor="start" x="87.88" y="-70.5" font-family="Helvetica,sans-Serif" font-size="10.00">&#45;</text>
<text xml:space="preserve" text-anchor="start" x="96.38" y="-70.5" font-family="Helvetica,sans-Serif" font-size="10.00">readerId_</text>
<text xml:space="preserve" text-anchor="start" x="86.38" y="-54.5" font-family="Helvetica,sans-Serif" font-size="10.00">+</text>
<text xml:space="preserve" text-anchor="start" x="96.38" y="-54.5" font-family="Helvetica,sans-Serif" font-size="10.00">SharedSerReader()</text>
<text xml:space="preserve" text-anchor="start" x="86.38" y="-38.5" font-family="Helvetica,sans-Serif" font-size="10.00">+</text>
<text xml:space="preserve" text-anchor="start" x="96.38" y="-38.5" font-family="Helvetica,sans-Serif" font-size="10.00">start()</text>
<text xml:space="preserve" text-anchor="start" x="86.38" y="-22.5" font-family="Helvetica,sans-Serif" font-size="10.00">+</text>
<text xml:space="preserve" text-anchor="start" x="96.38" y="-22.5" font-family="Helvetica,sans-Serif" font-size="10.00">stop()</text>
<text xml:space="preserve" text-anchor="start" x="87.88" y="-6.5" font-family="Helvetica,sans-Serif" font-size="10.00">&#45;</text>
<text xml:space="preserve" text-anchor="start" x="96.38" y="-6.5" font-family="Helvetica,sans-Serif" font-size="10.00">runLoop()</text>
<polygon fill="#666666" stroke="#666666" points="82.38,-98 82.38,-98 183.62,-98 183.62,-98 82.38,-98"/>
<polygon fill="#666666" stroke="#666666" points="82.38,-66 82.38,-66 94.38,-66 94.38,-66 82.38,-66"/>
<polygon fill="#666666" stroke="#666666" points="94.38,-66 94.38,-66 183.62,-66 183.62,-66 94.38,-66"/>
<polygon fill="none" stroke="#666666" points="82.38,0 82.38,-116 183.62,-116 183.62,0 82.38,0"/>
</a>
</g>
</g>
<!-- Node2 -->
<g id="Node000002" class="node">
<title>Node2</title>
<g id="a_Node000002"><a xlink:title=" ">
<polygon fill="white" stroke="none" points="68.75,-222 17.25,-222 17.25,-170 68.75,-170 68.75,-222"/>
<text xml:space="preserve" text-anchor="start" x="21.25" y="-208.5" font-family="Helvetica,sans-Serif" font-size="10.00">std::string</text>
<text xml:space="preserve" text-anchor="start" x="41.5" y="-192.5" font-family="Helvetica,sans-Serif" font-size="10.00"> </text>
<text xml:space="preserve" text-anchor="start" x="41.5" y="-176.5" font-family="Helvetica,sans-Serif" font-size="10.00"> </text>
<polygon fill="#666666" stroke="#666666" points="17.25,-204 17.25,-204 68.75,-204 68.75,-204 17.25,-204"/>
<polygon fill="#666666" stroke="#666666" points="17.25,-188 17.25,-188 68.75,-188 68.75,-188 17.25,-188"/>
<polygon fill="none" stroke="#666666" points="17.25,-170 17.25,-222 68.75,-222 68.75,-170 17.25,-170"/>
</a>
</g>
</g>
<!-- Node2&#45;&gt;Node1 -->
<g id="edge1_Node000001_Node000002" class="edge">
<title>Node2&#45;&gt;Node1</title>
<g id="a_edge1_Node000001_Node000002"><a xlink:title=" ">
<path fill="none" stroke="#63b8ff" d="M48.88,-170.23C52.23,-158.72 57.12,-145.15 63.75,-134 67.01,-128.52 70.72,-123.11 74.69,-117.84"/>
<polygon fill="none" stroke="#63b8ff" points="74.55,-118.01 75.16,-110.83 82.03,-108.63 81.42,-115.81 74.55,-118.01"/>
</a>
</g>
<text xml:space="preserve" text-anchor="start" x="66.75" y="-139.5" font-family="Helvetica,sans-Serif" font-size="10.00" fill="grey">&#45;output_path_</text>
</g>
<!-- Node3 -->
<g id="Node000003" class="node">
<title>Node3</title>
<g id="a_Node000003"><a xlink:title=" ">
<polygon fill="white" stroke="none" points="86,-323 0,-323 0,-259 86,-259 86,-323"/>
<text xml:space="preserve" text-anchor="start" x="4" y="-309.5" font-family="Helvetica,sans-Serif" font-size="10.00">std::basic_string&lt;</text>
<text xml:space="preserve" text-anchor="start" x="26.5" y="-297.5" font-family="Helvetica,sans-Serif" font-size="10.00"> Char &gt;</text>
<text xml:space="preserve" text-anchor="start" x="41.5" y="-281.5" font-family="Helvetica,sans-Serif" font-size="10.00"> </text>
<text xml:space="preserve" text-anchor="start" x="41.5" y="-265.5" font-family="Helvetica,sans-Serif" font-size="10.00"> </text>
<polygon fill="#666666" stroke="#666666" points="0,-293 0,-293 86,-293 86,-293 0,-293"/>
<polygon fill="#666666" stroke="#666666" points="0,-277 0,-277 86,-277 86,-277 0,-277"/>
<polygon fill="none" stroke="#666666" points="0,-259 0,-323 86,-323 86,-259 0,-259"/>
</a>
</g>
</g>
<!-- Node3&#45;&gt;Node2 -->
<g id="edge2_Node000002_Node000003" class="edge">
<title>Node3&#45;&gt;Node2</title>
<g id="a_edge2_Node000002_Node000003"><a xlink:title=" ">
<path fill="none" stroke="#63b8ff" d="M43,-247.69C43,-238.89 43,-229.89 43,-221.96"/>
<polygon fill="none" stroke="#63b8ff" points="39.5,-247.52 43,-257.52 46.5,-247.52 39.5,-247.52"/>
</a>
</g>
</g>
<!-- Node4 -->
<g id="Node000004" class="node">
<title>Node4</title>
<g id="a_Node000004"><a xlink:title=" ">
<polygon fill="white" stroke="none" points="179.38,-222 86.62,-222 86.62,-170 179.38,-170 179.38,-222"/>
<text xml:space="preserve" text-anchor="start" x="90.62" y="-208.5" font-family="Helvetica,sans-Serif" font-size="10.00">std::atomic&lt; bool &gt;</text>
<text xml:space="preserve" text-anchor="start" x="106.5" y="-192.5" font-family="Helvetica,sans-Serif" font-size="10.00">+</text>
<text xml:space="preserve" text-anchor="start" x="132.38" y="-192.5" font-family="Helvetica,sans-Serif" font-size="10.00">ptr</text>
<text xml:space="preserve" text-anchor="start" x="131.5" y="-176.5" font-family="Helvetica,sans-Serif" font-size="10.00"> </text>
<polygon fill="#666666" stroke="#666666" points="86.62,-204 86.62,-204 179.38,-204 179.38,-204 86.62,-204"/>
<polygon fill="#666666" stroke="#666666" points="86.62,-188 86.62,-188 130.38,-188 130.38,-188 86.62,-188"/>
<polygon fill="#666666" stroke="#666666" points="130.38,-188 130.38,-188 179.38,-188 179.38,-188 130.38,-188"/>
<polygon fill="none" stroke="#666666" points="86.62,-170 86.62,-222 179.38,-222 179.38,-170 86.62,-170"/>
</a>
</g>
</g>
<!-- Node4&#45;&gt;Node1 -->
<g id="edge3_Node000001_Node000004" class="edge">
<title>Node4&#45;&gt;Node1</title>
<g id="a_edge3_Node000001_Node000004"><a xlink:title=" ">
<path fill="none" stroke="#63b8ff" d="M133,-170.06C133,-158.31 133,-143.66 133,-128.89"/>
<polygon fill="none" stroke="#63b8ff" points="133,-128.84 129,-122.85 133,-116.84 137,-122.84 133,-128.84"/>
</a>
</g>
<text xml:space="preserve" text-anchor="start" x="136" y="-139.5" font-family="Helvetica,sans-Serif" font-size="10.00" fill="grey">&#45;stop_flag_</text>
</g>
<!-- Node5 -->
<g id="Node000005" class="node">
<title>Node5</title>
<g id="a_Node000005"><a xlink:title=" ">
<polygon fill="white" stroke="none" points="252.25,-222 197.75,-222 197.75,-170 252.25,-170 252.25,-222"/>
<text xml:space="preserve" text-anchor="start" x="201.75" y="-208.5" font-family="Helvetica,sans-Serif" font-size="10.00">std::thread</text>
<text xml:space="preserve" text-anchor="start" x="223.5" y="-192.5" font-family="Helvetica,sans-Serif" font-size="10.00"> </text>
<text xml:space="preserve" text-anchor="start" x="223.5" y="-176.5" font-family="Helvetica,sans-Serif" font-size="10.00"> </text>
<polygon fill="#666666" stroke="#666666" points="197.75,-204 197.75,-204 252.25,-204 252.25,-204 197.75,-204"/>
<polygon fill="#666666" stroke="#666666" points="197.75,-188 197.75,-188 252.25,-188 252.25,-188 197.75,-188"/>
<polygon fill="none" stroke="#666666" points="197.75,-170 197.75,-222 252.25,-222 252.25,-170 197.75,-170"/>
</a>
</g>
</g>
<!-- Node5&#45;&gt;Node1 -->
<g id="edge4_Node000001_Node000005" class="edge">
<title>Node5&#45;&gt;Node1</title>
<g id="a_edge4_Node000001_Node000005"><a xlink:title=" ">
<path fill="none" stroke="#63b8ff" d="M212.25,-170.16C206.19,-158.89 198.61,-145.54 191,-134 189.32,-131.45 187.57,-128.88 185.79,-126.29"/>
<polygon fill="none" stroke="#63b8ff" points="185.72,-126.19 178.98,-123.62 178.76,-116.41 185.5,-118.99 185.72,-126.19"/>
</a>
</g>
<text xml:space="preserve" text-anchor="start" x="205.08" y="-139.5" font-family="Helvetica,sans-Serif" font-size="10.00" fill="grey">&#45;worker_thread_</text>
</g>
</g>
</svg>
</svg>

<style type='text/css'>
<![CDATA[
[data-mouse-over-selected='false'] { opacity: 0.7; }
[data-mouse-over-selected='true']  { opacity: 1.0; }
]]>
</style>
<script type="application/ecmascript"><![CDATA[
document.addEventListener('DOMContentLoaded', (event) => {
  highlightEdges();
  highlightAdjacentNodes();
});
]]></script>
</svg>
