<?xml version="1.0" encoding="UTF-8" standalone="no"?>
<!DOCTYPE svg PUBLIC "-//W3C//DTD SVG 1.1//EN"
 "http://www.w3.org/Graphics/SVG/1.1/DTD/svg11.dtd">
<!-- Generated by graphviz version 14.1.2 (20260124.0452)
 -->
<!-- Title: WebSocketListener Pages: 1 -->
<svg width="667pt" height="1605pt"
 viewBox="0.00 0.00 667.00 1605.00" xmlns="http://www.w3.org/2000/svg" xmlns:xlink="http://www.w3.org/1999/xlink">
<g id="graph0" class="graph" transform="scale(1 1) rotate(0) translate(4 1601)">
<title>WebSocketListener</title>
<!-- Node1 -->
<g id="Node000001" class="node">
<title>Node1</title>
<g id="a_Node000001"><a xlink:title="Listens for and accepts incoming WebSocket connections.">
<polygon fill="#999999" stroke="none" points="238.62,-148 129.88,-148 129.88,0 238.62,0 238.62,-148"/>
<text xml:space="preserve" text-anchor="start" x="141.88" y="-134.5" font-family="Helvetica,sans-Serif" font-size="10.00">WebSocketListener</text>
<text xml:space="preserve" text-anchor="start" x="135.38" y="-118.5" font-family="Helvetica,sans-Serif" font-size="10.00">&#45;</text>
<text xml:space="preserve" text-anchor="start" x="143.88" y="-118.5" font-family="Helvetica,sans-Serif" font-size="10.00">ioc_</text>
<text xml:space="preserve" text-anchor="start" x="135.38" y="-102.5" font-family="Helvetica,sans-Serif" font-size="10.00">&#45;</text>
<text xml:space="preserve" text-anchor="start" x="143.88" y="-102.5" font-family="Helvetica,sans-Serif" font-size="10.00">acceptor_</text>
<text xml:space="preserve" text-anchor="start" x="135.38" y="-86.5" font-family="Helvetica,sans-Serif" font-size="10.00">&#45;</text>
<text xml:space="preserve" text-anchor="start" x="143.88" y="-86.5" font-family="Helvetica,sans-Serif" font-size="10.00">cmdHandler_</text>
<text xml:space="preserve" text-anchor="start" x="135.38" y="-70.5" font-family="Helvetica,sans-Serif" font-size="10.00">&#45;</text>
<text xml:space="preserve" text-anchor="start" x="143.88" y="-70.5" font-family="Helvetica,sans-Serif" font-size="10.00">actionHandler_</text>
<text xml:space="preserve" text-anchor="start" x="133.88" y="-54.5" font-family="Helvetica,sans-Serif" font-size="10.00">+</text>
<text xml:space="preserve" text-anchor="start" x="143.88" y="-54.5" font-family="Helvetica,sans-Serif" font-size="10.00">WebSocketListener()</text>
<text xml:space="preserve" text-anchor="start" x="133.88" y="-38.5" font-family="Helvetica,sans-Serif" font-size="10.00">+</text>
<text xml:space="preserve" text-anchor="start" x="143.88" y="-38.5" font-family="Helvetica,sans-Serif" font-size="10.00">run()</text>
<text xml:space="preserve" text-anchor="start" x="135.38" y="-22.5" font-family="Helvetica,sans-Serif" font-size="10.00">&#45;</text>
<text xml:space="preserve" text-anchor="start" x="143.88" y="-22.5" font-family="Helvetica,sans-Serif" font-size="10.00">do_accept()</text>
<text xml:space="preserve" text-anchor="start" x="135.38" y="-6.5" font-family="Helvetica,sans-Serif" font-size="10.00">&#45;</text>
<text xml:space="preserve" text-anchor="start" x="143.88" y="-6.5" font-family="Helvetica,sans-Serif" font-size="10.00">on_accept()</text>
<polygon fill="#666666" stroke="#666666" points="129.88,-130 129.88,-130 238.62,-130 238.62,-130 129.88,-130"/>
<polygon fill="#666666" stroke="#666666" points="129.88,-66 129.88,-66 141.88,-66 141.88,-66 129.88,-66"/>
<polygon fill="#666666" stroke="#666666" points="141.88,-66 141.88,-66 238.62,-66 238.62,-66 141.88,-66"/>
<polygon fill="none" stroke="#666666" points="129.88,0 129.88,-148 238.62,-148 238.62,0 129.88,0"/>
</a>
</g>
</g>
<!-- Node2 -->
<g id="Node000002" class="node">
<title>Node2</title>
<g id="a_Node000002"><a xlink:title=" ">
<polygon fill="white" stroke="none" points="156.5,-284 0,-284 0,-220 156.5,-220 156.5,-284"/>
<text xml:space="preserve" text-anchor="start" x="4" y="-270.5" font-family="Helvetica,sans-Serif" font-size="10.00">std::enable_shared</text>
<text xml:space="preserve" text-anchor="start" x="4" y="-258.5" font-family="Helvetica,sans-Serif" font-size="10.00">_from_this&lt; WebSocketListener &gt;</text>
<text xml:space="preserve" text-anchor="start" x="76.75" y="-242.5" font-family="Helvetica,sans-Serif" font-size="10.00"> </text>
<text xml:space="preserve" text-anchor="start" x="76.75" y="-226.5" font-family="Helvetica,sans-Serif" font-size="10.00"> </text>
<polygon fill="#666666" stroke="#666666" points="0,-254 0,-254 156.5,-254 156.5,-254 0,-254"/>
<polygon fill="#666666" stroke="#666666" points="0,-238 0,-238 156.5,-238 156.5,-238 0,-238"/>
<polygon fill="none" stroke="#666666" points="0,-220 0,-284 156.5,-284 156.5,-220 0,-220"/>
</a>
</g>
</g>
<!-- Node2&#45;&gt;Node1 -->
<g id="edge1_Node000001_Node000002" class="edge">
<title>Node2&#45;&gt;Node1</title>
<g id="a_edge1_Node000001_Node000002"><a xlink:title=" ">
<path fill="none" stroke="#63b8ff" d="M102.52,-210.7C113.77,-192.02 127.5,-169.23 140.47,-147.7"/>
<polygon fill="none" stroke="#63b8ff" points="99.66,-208.67 97.49,-219.05 105.65,-212.29 99.66,-208.67"/>
</a>
</g>
</g>
<!-- Node3 -->
<g id="Node000003" class="node">
<title>Node3</title>
<g id="a_Node000003"><a xlink:href="class_s_e_r_database.html" target="_top" xlink:title="SQLite database handler for storing and retrieving SER records.">
<polygon fill="white" stroke="none" points="241.62,-1374 126.88,-1374 126.88,-1018 241.62,-1018 241.62,-1374"/>
<text xml:space="preserve" text-anchor="start" x="152.75" y="-1360.5" font-family="Helvetica,sans-Serif" font-size="10.00">SERDatabase</text>
<text xml:space="preserve" text-anchor="start" x="132.38" y="-1344.5" font-family="Helvetica,sans-Serif" font-size="10.00">&#45;</text>
<text xml:space="preserve" text-anchor="start" x="140.88" y="-1344.5" font-family="Helvetica,sans-Serif" font-size="10.00">db_</text>
<text xml:space="preserve" text-anchor="start" x="130.88" y="-1328.5" font-family="Helvetica,sans-Serif" font-size="10.00">+</text>
<text xml:space="preserve" text-anchor="start" x="140.88" y="-1328.5" font-family="Helvetica,sans-Serif" font-size="10.00">SERDatabase()</text>
<text xml:space="preserve" text-anchor="start" x="130.88" y="-1312.5" font-family="Helvetica,sans-Serif" font-size="10.00">+</text>
<text xml:space="preserve" text-anchor="start" x="140.88" y="-1312.5" font-family="Helvetica,sans-Serif" font-size="10.00">~SERDatabase()</text>
<text xml:space="preserve" text-anchor="start" x="130.88" y="-1296.5" font-family="Helvetica,sans-Serif" font-size="10.00">+</text>
<text xml:space="preserve" text-anchor="start" x="140.88" y="-1296.5" font-family="Helvetica,sans-Serif" font-size="10.00">open()</text>
<text xml:space="preserve" text-anchor="start" x="130.88" y="-1280.5" font-family="Helvetica,sans-Serif" font-size="10.00">+</text>
<text xml:space="preserve" text-anchor="start" x="140.88" y="-1280.5" font-family="Helvetica,sans-Serif" font-size="10.00">close()</text>
<text xml:space="preserve" text-anchor="start" x="130.88" y="-1264.5" font-family="Helvetica,sans-Serif" font-size="10.00">+</text>
<text xml:space="preserve" text-anchor="start" x="140.88" y="-1264.5" font-family="Helvetica,sans-Serif" font-size="10.00">isOpen()</text>
<text xml:space="preserve" text-anchor="start" x="130.88" y="-1248.5" font-family="Helvetica,sans-Serif" font-size="10.00">+</text>
<text xml:space="preserve" text-anchor="start" x="140.88" y="-1248.5" font-family="Helvetica,sans-Serif" font-size="10.00">insertRecord()</text>
<text xml:space="preserve" text-anchor="start" x="130.88" y="-1232.5" font-family="Helvetica,sans-Serif" font-size="10.00">+</text>
<text xml:space="preserve" text-anchor="start" x="140.88" y="-1232.5" font-family="Helvetica,sans-Serif" font-size="10.00">insertRecords()</text>
<text xml:space="preserve" text-anchor="start" x="130.88" y="-1216.5" font-family="Helvetica,sans-Serif" font-size="10.00">+</text>
<text xml:space="preserve" text-anchor="start" x="140.88" y="-1216.5" font-family="Helvetica,sans-Serif" font-size="10.00">getAllRecords()</text>
<text xml:space="preserve" text-anchor="start" x="130.88" y="-1200.5" font-family="Helvetica,sans-Serif" font-size="10.00">+</text>
<text xml:space="preserve" text-anchor="start" x="140.88" y="-1200.5" font-family="Helvetica,sans-Serif" font-size="10.00">getRecordsByStatus()</text>
<text xml:space="preserve" text-anchor="start" x="130.88" y="-1184.5" font-family="Helvetica,sans-Serif" font-size="10.00">+</text>
<text xml:space="preserve" text-anchor="start" x="140.88" y="-1184.5" font-family="Helvetica,sans-Serif" font-size="10.00">getRecordCount()</text>
<text xml:space="preserve" text-anchor="start" x="130.88" y="-1168.5" font-family="Helvetica,sans-Serif" font-size="10.00">+</text>
<text xml:space="preserve" text-anchor="start" x="140.88" y="-1168.5" font-family="Helvetica,sans-Serif" font-size="10.00">clearAllRecords()</text>
<text xml:space="preserve" text-anchor="start" x="130.88" y="-1152.5" font-family="Helvetica,sans-Serif" font-size="10.00">+</text>
<text xml:space="preserve" text-anchor="start" x="140.88" y="-1152.5" font-family="Helvetica,sans-Serif" font-size="10.00">exportToJSON()</text>
<text xml:space="preserve" text-anchor="start" x="130.88" y="-1136.5" font-family="Helvetica,sans-Serif" font-size="10.00">+</text>
<text xml:space="preserve" text-anchor="start" x="140.88" y="-1136.5" font-family="Helvetica,sans-Serif" font-size="10.00">getLastError()</text>
<text xml:space="preserve" text-anchor="start" x="130.88" y="-1120.5" font-family="Helvetica,sans-Serif" font-size="10.00">+</text>
<text xml:space="preserve" text-anchor="start" x="140.88" y="-1120.5" font-family="Helvetica,sans-Serif" font-size="10.00">getDbHandle()</text>
<text xml:space="preserve" text-anchor="start" x="130.88" y="-1104.5" font-family="Helvetica,sans-Serif" font-size="10.00">+</text>
<text xml:space="preserve" text-anchor="start" x="140.88" y="-1104.5" font-family="Helvetica,sans-Serif" font-size="10.00">SERDatabase()</text>
<text xml:space="preserve" text-anchor="start" x="130.88" y="-1088.5" font-family="Helvetica,sans-Serif" font-size="10.00">+</text>
<text xml:space="preserve" text-anchor="start" x="140.88" y="-1088.5" font-family="Helvetica,sans-Serif" font-size="10.00">operator=()</text>
<text xml:space="preserve" text-anchor="start" x="132.38" y="-1072.5" font-family="Helvetica,sans-Serif" font-size="10.00">&#45;</text>
<text xml:space="preserve" text-anchor="start" x="140.88" y="-1072.5" font-family="Helvetica,sans-Serif" font-size="10.00">createTable()</text>
<text xml:space="preserve" text-anchor="start" x="132.38" y="-1056.5" font-family="Helvetica,sans-Serif" font-size="10.00">&#45;</text>
<text xml:space="preserve" text-anchor="start" x="140.88" y="-1056.5" font-family="Helvetica,sans-Serif" font-size="10.00">recordExists()</text>
<text xml:space="preserve" text-anchor="start" x="132" y="-1040.5" font-family="Helvetica,sans-Serif" font-size="10.00">*</text>
<text xml:space="preserve" text-anchor="start" x="140.88" y="-1040.5" font-family="Helvetica,sans-Serif" font-size="10.00">SERDatabase()</text>
<text xml:space="preserve" text-anchor="start" x="132" y="-1024.5" font-family="Helvetica,sans-Serif" font-size="10.00">*</text>
<text xml:space="preserve" text-anchor="start" x="140.88" y="-1024.5" font-family="Helvetica,sans-Serif" font-size="10.00">operator=()</text>
<polygon fill="#666666" stroke="#666666" points="126.88,-1356 126.88,-1356 241.62,-1356 241.62,-1356 126.88,-1356"/>
<polygon fill="#666666" stroke="#666666" points="126.88,-1340 126.88,-1340 138.88,-1340 138.88,-1340 126.88,-1340"/>
<polygon fill="#666666" stroke="#666666" points="138.88,-1340 138.88,-1340 241.62,-1340 241.62,-1340 138.88,-1340"/>
<polygon fill="none" stroke="#666666" points="126.88,-1018 126.88,-1374 241.62,-1374 241.62,-1018 126.88,-1018"/>
</a>
</g>
</g>
<!-- Node3&#45;&gt;Node1 -->
<g id="edge2_Node000001_Node000003" class="edge">
<title>Node3&#45;&gt;Node1</title>
<g id="a_edge2_Node000001_Node000003"><a xlink:title=" ">
<path fill="none" stroke="#63b8ff" d="M184.25,-1018.1C184.25,-942.05 184.25,-852.16 184.25,-771 184.25,-771 184.25,-771 184.25,-251 184.25,-221.59 184.25,-189.41 184.25,-160.71"/>
<polygon fill="none" stroke="#63b8ff" points="184.25,-160.69 180.25,-154.69 184.25,-148.69 188.25,-154.69 184.25,-160.69"/>
</a>
</g>
<text xml:space="preserve" text-anchor="start" x="187.25" y="-443.5" font-family="Helvetica,sans-Serif" font-size="10.00" fill="grey">&#45;db_</text>
</g>
<!-- Node10 -->
<g id="Node000010" class="node">
<title>Node10</title>
<g id="a_Node000010"><a xlink:href="class_web_socket_session.html" target="_top" xlink:title="Handles a single WebSocket client connection.">
<polygon fill="white" stroke="none" points="369,-948 253.5,-948 253.5,-592 369,-592 369,-948"/>
<text xml:space="preserve" text-anchor="start" x="268.5" y="-934.5" font-family="Helvetica,sans-Serif" font-size="10.00">WebSocketSession</text>
<text xml:space="preserve" text-anchor="start" x="259" y="-918.5" font-family="Helvetica,sans-Serif" font-size="10.00">&#45;</text>
<text xml:space="preserve" text-anchor="start" x="267.5" y="-918.5" font-family="Helvetica,sans-Serif" font-size="10.00">ws_</text>
<text xml:space="preserve" text-anchor="start" x="259" y="-902.5" font-family="Helvetica,sans-Serif" font-size="10.00">&#45;</text>
<text xml:space="preserve" text-anchor="start" x="267.5" y="-902.5" font-family="Helvetica,sans-Serif" font-size="10.00">buffer_</text>
<text xml:space="preserve" text-anchor="start" x="259" y="-886.5" font-family="Helvetica,sans-Serif" font-size="10.00">&#45;</text>
<text xml:space="preserve" text-anchor="start" x="267.5" y="-886.5" font-family="Helvetica,sans-Serif" font-size="10.00">writing_</text>
<text xml:space="preserve" text-anchor="start" x="259" y="-870.5" font-family="Helvetica,sans-Serif" font-size="10.00">&#45;</text>
<text xml:space="preserve" text-anchor="start" x="267.5" y="-870.5" font-family="Helvetica,sans-Serif" font-size="10.00">pending_read_</text>
<text xml:space="preserve" text-anchor="start" x="259" y="-854.5" font-family="Helvetica,sans-Serif" font-size="10.00">&#45;</text>
<text xml:space="preserve" text-anchor="start" x="267.5" y="-854.5" font-family="Helvetica,sans-Serif" font-size="10.00">cmdHandler_</text>
<text xml:space="preserve" text-anchor="start" x="259" y="-838.5" font-family="Helvetica,sans-Serif" font-size="10.00">&#45;</text>
<text xml:space="preserve" text-anchor="start" x="267.5" y="-838.5" font-family="Helvetica,sans-Serif" font-size="10.00">actionHandler_</text>
<text xml:space="preserve" text-anchor="start" x="257.5" y="-822.5" font-family="Helvetica,sans-Serif" font-size="10.00">+</text>
<text xml:space="preserve" text-anchor="start" x="267.5" y="-822.5" font-family="Helvetica,sans-Serif" font-size="10.00">WebSocketSession()</text>
<text xml:space="preserve" text-anchor="start" x="257.5" y="-806.5" font-family="Helvetica,sans-Serif" font-size="10.00">+</text>
<text xml:space="preserve" text-anchor="start" x="267.5" y="-806.5" font-family="Helvetica,sans-Serif" font-size="10.00">~WebSocketSession()</text>
<text xml:space="preserve" text-anchor="start" x="257.5" y="-790.5" font-family="Helvetica,sans-Serif" font-size="10.00">+</text>
<text xml:space="preserve" text-anchor="start" x="267.5" y="-790.5" font-family="Helvetica,sans-Serif" font-size="10.00">sendBroadcast()</text>
<text xml:space="preserve" text-anchor="start" x="257.5" y="-774.5" font-family="Helvetica,sans-Serif" font-size="10.00">+</text>
<text xml:space="preserve" text-anchor="start" x="267.5" y="-774.5" font-family="Helvetica,sans-Serif" font-size="10.00">sendTextBroadcast()</text>
<text xml:space="preserve" text-anchor="start" x="257.5" y="-758.5" font-family="Helvetica,sans-Serif" font-size="10.00">+</text>
<text xml:space="preserve" text-anchor="start" x="267.5" y="-758.5" font-family="Helvetica,sans-Serif" font-size="10.00">run()</text>
<text xml:space="preserve" text-anchor="start" x="259" y="-742.5" font-family="Helvetica,sans-Serif" font-size="10.00">&#45;</text>
<text xml:space="preserve" text-anchor="start" x="267.5" y="-742.5" font-family="Helvetica,sans-Serif" font-size="10.00">on_accept()</text>
<text xml:space="preserve" text-anchor="start" x="259" y="-726.5" font-family="Helvetica,sans-Serif" font-size="10.00">&#45;</text>
<text xml:space="preserve" text-anchor="start" x="267.5" y="-726.5" font-family="Helvetica,sans-Serif" font-size="10.00">do_broadcast()</text>
<text xml:space="preserve" text-anchor="start" x="259" y="-710.5" font-family="Helvetica,sans-Serif" font-size="10.00">&#45;</text>
<text xml:space="preserve" text-anchor="start" x="267.5" y="-710.5" font-family="Helvetica,sans-Serif" font-size="10.00">on_broadcast_write()</text>
<text xml:space="preserve" text-anchor="start" x="259" y="-694.5" font-family="Helvetica,sans-Serif" font-size="10.00">&#45;</text>
<text xml:space="preserve" text-anchor="start" x="267.5" y="-694.5" font-family="Helvetica,sans-Serif" font-size="10.00">do_read()</text>
<text xml:space="preserve" text-anchor="start" x="259" y="-678.5" font-family="Helvetica,sans-Serif" font-size="10.00">&#45;</text>
<text xml:space="preserve" text-anchor="start" x="267.5" y="-678.5" font-family="Helvetica,sans-Serif" font-size="10.00">on_read()</text>
<text xml:space="preserve" text-anchor="start" x="259" y="-662.5" font-family="Helvetica,sans-Serif" font-size="10.00">&#45;</text>
<text xml:space="preserve" text-anchor="start" x="267.5" y="-662.5" font-family="Helvetica,sans-Serif" font-size="10.00">sendData()</text>
<text xml:space="preserve" text-anchor="start" x="259" y="-646.5" font-family="Helvetica,sans-Serif" font-size="10.00">&#45;</text>
<text xml:space="preserve" text-anchor="start" x="267.5" y="-646.5" font-family="Helvetica,sans-Serif" font-size="10.00">on_write()</text>
<text xml:space="preserve" text-anchor="start" x="259" y="-630.5" font-family="Helvetica,sans-Serif" font-size="10.00">&#45;</text>
<text xml:space="preserve" text-anchor="start" x="267.5" y="-630.5" font-family="Helvetica,sans-Serif" font-size="10.00">sendTextResponse()</text>
<text xml:space="preserve" text-anchor="start" x="259" y="-614.5" font-family="Helvetica,sans-Serif" font-size="10.00">&#45;</text>
<text xml:space="preserve" text-anchor="start" x="267.5" y="-614.5" font-family="Helvetica,sans-Serif" font-size="10.00">isJsonAction()</text>
<text xml:space="preserve" text-anchor="start" x="259" y="-598.5" font-family="Helvetica,sans-Serif" font-size="10.00">&#45;</text>
<text xml:space="preserve" text-anchor="start" x="267.5" y="-598.5" font-family="Helvetica,sans-Serif" font-size="10.00">extractAction()</text>
<polygon fill="#666666" stroke="#666666" points="253.5,-930 253.5,-930 369,-930 369,-930 253.5,-930"/>
<polygon fill="#666666" stroke="#666666" points="253.5,-834 253.5,-834 265.5,-834 265.5,-834 253.5,-834"/>
<polygon fill="#666666" stroke="#666666" points="265.5,-834 265.5,-834 369,-834 369,-834 265.5,-834"/>
<polygon fill="none" stroke="#666666" points="253.5,-592 253.5,-948 369,-948 369,-592 253.5,-592"/>
</a>
</g>
</g>
<!-- Node3&#45;&gt;Node10 -->
<g id="edge11_Node000010_Node000003" class="edge">
<title>Node3&#45;&gt;Node10</title>
<g id="a_edge11_Node000010_Node000003"><a xlink:title=" ">
<path fill="none" stroke="#63b8ff" d="M223.82,-1018.12C228.47,-1000.43 233.39,-982.81 238.5,-966 241.85,-954.96 245.5,-943.63 249.32,-932.27"/>
<polygon fill="none" stroke="#63b8ff" points="249.37,-932.14 247.52,-925.18 253.24,-920.79 255.09,-927.76 249.37,-932.14"/>
</a>
</g>
<text xml:space="preserve" text-anchor="start" x="241.5" y="-979.5" font-family="Helvetica,sans-Serif" font-size="10.00" fill="grey">&#45;db_</text>
</g>
<!-- Node4 -->
<g id="Node000004" class="node">
<title>Node4</title>
<g id="a_Node000004"><a xlink:title=" ">
<polygon fill="white" stroke="none" points="257,-1496 205.5,-1496 205.5,-1444 257,-1444 257,-1496"/>
<text xml:space="preserve" text-anchor="start" x="209.5" y="-1482.5" font-family="Helvetica,sans-Serif" font-size="10.00">std::string</text>
<text xml:space="preserve" text-anchor="start" x="229.75" y="-1466.5" font-family="Helvetica,sans-Serif" font-size="10.00"> </text>
<text xml:space="preserve" text-anchor="start" x="229.75" y="-1450.5" font-family="Helvetica,sans-Serif" font-size="10.00"> </text>
<polygon fill="#666666" stroke="#666666" points="205.5,-1478 205.5,-1478 257,-1478 257,-1478 205.5,-1478"/>
<polygon fill="#666666" stroke="#666666" points="205.5,-1462 205.5,-1462 257,-1462 257,-1462 205.5,-1462"/>
<polygon fill="none" stroke="#666666" points="205.5,-1444 205.5,-1496 257,-1496 257,-1444 205.5,-1444"/>
</a>
</g>
</g>
<!-- Node4&#45;&gt;Node3 -->
<g id="edge3_Node000003_Node000004" class="edge">
<title>Node4&#45;&gt;Node3</title>
<g id="a_edge3_Node000003_Node000004"><a xlink:title=" ">
<path fill="none" stroke="#63b8ff" d="M216.1,-1444.22C213.14,-1438.42 210.37,-1432.14 208.5,-1426 204.59,-1413.19 201.29,-1399.81 198.51,-1386.24"/>
<polygon fill="none" stroke="#63b8ff" points="198.54,-1386.39 193.47,-1381.25 196.26,-1374.61 201.33,-1379.74 198.54,-1386.39"/>
</a>
</g>
<text xml:space="preserve" text-anchor="start" x="211.5" y="-1413.5" font-family="Helvetica,sans-Serif" font-size="10.00" fill="grey">&#45;db_path_</text>
<text xml:space="preserve" text-anchor="start" x="211.5" y="-1397.5" font-family="Helvetica,sans-Serif" font-size="10.00" fill="grey">&#45;last_error_</text>
</g>
<!-- Node4&#45;&gt;Node10 -->
<g id="edge14_Node000010_Node000004" class="edge">
<title>Node4&#45;&gt;Node10</title>
<g id="a_edge14_Node000010_Node000004"><a xlink:title=" ">
<path fill="none" stroke="#63b8ff" d="M253.54,-1444.05C257.44,-1438.46 260.97,-1432.3 263.25,-1426 294.19,-1340.63 278.85,-1108.53 286,-1018 287.46,-999.49 289.15,-980.22 290.94,-960.97"/>
<polygon fill="none" stroke="#63b8ff" points="290.95,-960.84 287.53,-954.49 292.07,-948.89 295.49,-955.24 290.95,-960.84"/>
</a>
</g>
<text xml:space="preserve" text-anchor="start" x="289" y="-1192.5" font-family="Helvetica,sans-Serif" font-size="10.00" fill="grey">&#45;text_write_buffer_</text>
</g>
<!-- Node5 -->
<g id="Node000005" class="node">
<title>Node5</title>
<g id="a_Node000005"><a xlink:title=" ">
<polygon fill="white" stroke="none" points="274.25,-1597 188.25,-1597 188.25,-1533 274.25,-1533 274.25,-1597"/>
<text xml:space="preserve" text-anchor="start" x="192.25" y="-1583.5" font-family="Helvetica,sans-Serif" font-size="10.00">std::basic_string&lt;</text>
<text xml:space="preserve" text-anchor="start" x="214.75" y="-1571.5" font-family="Helvetica,sans-Serif" font-size="10.00"> Char &gt;</text>
<text xml:space="preserve" text-anchor="start" x="229.75" y="-1555.5" font-family="Helvetica,sans-Serif" font-size="10.00"> </text>
<text xml:space="preserve" text-anchor="start" x="229.75" y="-1539.5" font-family="Helvetica,sans-Serif" font-size="10.00"> </text>
<polygon fill="#666666" stroke="#666666" points="188.25,-1567 188.25,-1567 274.25,-1567 274.25,-1567 188.25,-1567"/>
<polygon fill="#666666" stroke="#666666" points="188.25,-1551 188.25,-1551 274.25,-1551 274.25,-1551 188.25,-1551"/>
<polygon fill="none" stroke="#666666" points="188.25,-1533 188.25,-1597 274.25,-1597 274.25,-1533 188.25,-1533"/>
</a>
</g>
</g>
<!-- Node5&#45;&gt;Node4 -->
<g id="edge4_Node000004_Node000005" class="edge">
<title>Node5&#45;&gt;Node4</title>
<g id="a_edge4_Node000004_Node000005"><a xlink:title=" ">
<path fill="none" stroke="#63b8ff" d="M231.25,-1521.69C231.25,-1512.89 231.25,-1503.89 231.25,-1495.96"/>
<polygon fill="none" stroke="#63b8ff" points="227.75,-1521.52 231.25,-1531.52 234.75,-1521.52 227.75,-1521.52"/>
</a>
</g>
</g>
<!-- Node6 -->
<g id="Node000006" class="node">
<title>Node6</title>
<g id="a_Node000006"><a xlink:href="class_session_manager.html" target="_top" xlink:title="Manages all active WebSocket sessions for broadcast.">
<polygon fill="white" stroke="none" points="310.62,-302 229.88,-302 229.88,-202 310.62,-202 310.62,-302"/>
<text xml:space="preserve" text-anchor="start" x="233.88" y="-288.5" font-family="Helvetica,sans-Serif" font-size="10.00">SessionManager</text>
<text xml:space="preserve" text-anchor="start" x="268.75" y="-272.5" font-family="Helvetica,sans-Serif" font-size="10.00"> </text>
<text xml:space="preserve" text-anchor="start" x="234.56" y="-256.5" font-family="Helvetica,sans-Serif" font-size="10.00">+</text>
<text xml:space="preserve" text-anchor="start" x="245.25" y="-256.5" font-family="Helvetica,sans-Serif" font-size="10.00">add()</text>
<text xml:space="preserve" text-anchor="start" x="234.56" y="-240.5" font-family="Helvetica,sans-Serif" font-size="10.00">+</text>
<text xml:space="preserve" text-anchor="start" x="245.25" y="-240.5" font-family="Helvetica,sans-Serif" font-size="10.00">remove()</text>
<text xml:space="preserve" text-anchor="start" x="234.56" y="-224.5" font-family="Helvetica,sans-Serif" font-size="10.00">+</text>
<text xml:space="preserve" text-anchor="start" x="245.25" y="-224.5" font-family="Helvetica,sans-Serif" font-size="10.00">getSessions()</text>
<text xml:space="preserve" text-anchor="start" x="234.56" y="-208.5" font-family="Helvetica,sans-Serif" font-size="10.00">+</text>
<text xml:space="preserve" text-anchor="start" x="245.25" y="-208.5" font-family="Helvetica,sans-Serif" font-size="10.00">count()</text>
<polygon fill="#666666" stroke="#666666" points="229.88,-284 229.88,-284 310.62,-284 310.62,-284 229.88,-284"/>
<polygon fill="#666666" stroke="#666666" points="229.88,-268 229.88,-268 310.62,-268 310.62,-268 229.88,-268"/>
<polygon fill="none" stroke="#666666" points="229.88,-202 229.88,-302 310.62,-302 310.62,-202 229.88,-202"/>
</a>
</g>
</g>
<!-- Node6&#45;&gt;Node1 -->
<g id="edge5_Node000001_Node000006" class="edge">
<title>Node6&#45;&gt;Node1</title>
<g id="a_edge5_Node000001_Node000006"><a xlink:title=" ">
<path fill="none" stroke="#63b8ff" d="M246.52,-202.44C239.95,-188.98 232.61,-173.97 225.35,-159.11"/>
<polygon fill="none" stroke="#63b8ff" points="225.49,-159.39 219.26,-155.76 220.22,-148.61 226.45,-152.24 225.49,-159.39"/>
</a>
</g>
<text xml:space="preserve" text-anchor="start" x="240.48" y="-171.5" font-family="Helvetica,sans-Serif" font-size="10.00" fill="grey">&#45;sessionMgr_</text>
</g>
<!-- Node6&#45;&gt;Node10 -->
<g id="edge12_Node000010_Node000006" class="edge">
<title>Node6&#45;&gt;Node10</title>
<g id="a_edge12_Node000010_Node000006"><a xlink:title=" ">
<path fill="none" stroke="#63b8ff" d="M259.33,-301.99C256.04,-319 252.87,-338.25 251.25,-356 244.54,-429.34 252.62,-509.55 264.8,-579.62"/>
<polygon fill="none" stroke="#63b8ff" points="264.77,-579.42 269.76,-584.62 266.88,-591.24 261.88,-586.03 264.77,-579.42"/>
</a>
</g>
<text xml:space="preserve" text-anchor="start" x="252.9" y="-443.5" font-family="Helvetica,sans-Serif" font-size="10.00" fill="grey">&#45;sessionMgr_</text>
</g>
<!-- Node7 -->
<g id="Node000007" class="node">
<title>Node7</title>
<g id="a_Node000007"><a xlink:title=" ">
<polygon fill="white" stroke="none" points="314.5,-414 260,-414 260,-362 314.5,-362 314.5,-414"/>
<text xml:space="preserve" text-anchor="start" x="264" y="-400.5" font-family="Helvetica,sans-Serif" font-size="10.00">std::mutex</text>
<text xml:space="preserve" text-anchor="start" x="285.75" y="-384.5" font-family="Helvetica,sans-Serif" font-size="10.00"> </text>
<text xml:space="preserve" text-anchor="start" x="285.75" y="-368.5" font-family="Helvetica,sans-Serif" font-size="10.00"> </text>
<polygon fill="#666666" stroke="#666666" points="260,-396 260,-396 314.5,-396 314.5,-396 260,-396"/>
<polygon fill="#666666" stroke="#666666" points="260,-380 260,-380 314.5,-380 314.5,-380 260,-380"/>
<polygon fill="none" stroke="#666666" points="260,-362 260,-414 314.5,-414 314.5,-362 260,-362"/>
</a>
</g>
</g>
<!-- Node7&#45;&gt;Node6 -->
<g id="edge6_Node000006_Node000007" class="edge">
<title>Node7&#45;&gt;Node6</title>
<g id="a_edge6_Node000006_Node000007"><a xlink:title=" ">
<path fill="none" stroke="#63b8ff" d="M284.09,-362.11C282.39,-348.66 280.2,-331.4 278.07,-314.6"/>
<polygon fill="none" stroke="#63b8ff" points="278.08,-314.71 273.36,-309.26 276.57,-302.81 281.29,-308.26 278.08,-314.71"/>
</a>
</g>
<text xml:space="preserve" text-anchor="start" x="283.77" y="-325.5" font-family="Helvetica,sans-Serif" font-size="10.00" fill="grey">&#45;mutex_</text>
</g>
<!-- Node8 -->
<g id="Node000008" class="node">
<title>Node8</title>
<g id="a_Node000008"><a xlink:title=" ">
<polygon fill="white" stroke="none" points="469.75,-420 332.75,-420 332.75,-356 469.75,-356 469.75,-420"/>
<text xml:space="preserve" text-anchor="start" x="336.75" y="-406.5" font-family="Helvetica,sans-Serif" font-size="10.00">std::set&lt; std::shared</text>
<text xml:space="preserve" text-anchor="start" x="336.75" y="-394.5" font-family="Helvetica,sans-Serif" font-size="10.00">_ptr&lt; WebSocketSession &gt; &gt;</text>
<text xml:space="preserve" text-anchor="start" x="399.75" y="-378.5" font-family="Helvetica,sans-Serif" font-size="10.00"> </text>
<text xml:space="preserve" text-anchor="start" x="399.75" y="-362.5" font-family="Helvetica,sans-Serif" font-size="10.00"> </text>
<polygon fill="#666666" stroke="#666666" points="332.75,-390 332.75,-390 469.75,-390 469.75,-390 332.75,-390"/>
<polygon fill="#666666" stroke="#666666" points="332.75,-374 332.75,-374 469.75,-374 469.75,-374 332.75,-374"/>
<polygon fill="none" stroke="#666666" points="332.75,-356 332.75,-420 469.75,-420 469.75,-356 332.75,-356"/>
</a>
</g>
</g>
<!-- Node8&#45;&gt;Node6 -->
<g id="edge7_Node000006_Node000008" class="edge">
<title>Node8&#45;&gt;Node6</title>
<g id="a_edge7_Node000006_Node000008"><a xlink:title=" ">
<path fill="none" stroke="#63b8ff" d="M371.2,-356.26C355.89,-340.6 336.88,-321.16 319.5,-303.38"/>
<polygon fill="none" stroke="#63b8ff" points="319.61,-303.49 312.56,-302 311.22,-294.91 318.28,-296.4 319.61,-303.49"/>
</a>
</g>
<text xml:space="preserve" text-anchor="start" x="354.34" y="-325.5" font-family="Helvetica,sans-Serif" font-size="10.00" fill="grey">&#45;sessions_</text>
</g>
<!-- Node9 -->
<g id="Node000009" class="node">
<title>Node9</title>
<g id="a_Node000009"><a xlink:title=" ">
<polygon fill="white" stroke="none" points="411.5,-538 279,-538 279,-474 411.5,-474 411.5,-538"/>
<text xml:space="preserve" text-anchor="start" x="283" y="-524.5" font-family="Helvetica,sans-Serif" font-size="10.00">std::shared_ptr&lt; WebSocket</text>
<text xml:space="preserve" text-anchor="start" x="323.12" y="-512.5" font-family="Helvetica,sans-Serif" font-size="10.00">Session &gt;</text>
<text xml:space="preserve" text-anchor="start" x="343.75" y="-496.5" font-family="Helvetica,sans-Serif" font-size="10.00"> </text>
<text xml:space="preserve" text-anchor="start" x="299.06" y="-480.5" font-family="Helvetica,sans-Serif" font-size="10.00">+</text>
<text xml:space="preserve" text-anchor="start" x="325.12" y="-480.5" font-family="Helvetica,sans-Serif" font-size="10.00">operator&#45;&gt;()</text>
<polygon fill="#666666" stroke="#666666" points="279,-508 279,-508 411.5,-508 411.5,-508 279,-508"/>
<polygon fill="#666666" stroke="#666666" points="279,-492 279,-492 411.5,-492 411.5,-492 279,-492"/>
<polygon fill="none" stroke="#666666" points="279,-474 279,-538 411.5,-538 411.5,-474 279,-474"/>
</a>
</g>
</g>
<!-- Node9&#45;&gt;Node8 -->
<g id="edge8_Node000008_Node000009" class="edge">
<title>Node9&#45;&gt;Node8</title>
<g id="a_edge8_Node000008_Node000009"><a xlink:title=" ">
<path fill="none" stroke="#63b8ff" d="M360.11,-474.22C366.44,-461.11 373.93,-445.6 380.77,-431.43"/>
<polygon fill="none" stroke="#63b8ff" points="380.71,-431.54 379.72,-424.4 385.93,-420.74 386.92,-427.88 380.71,-431.54"/>
</a>
</g>
<text xml:space="preserve" text-anchor="start" x="379.6" y="-443.5" font-family="Helvetica,sans-Serif" font-size="10.00" fill="grey">+keys</text>
</g>
<!-- Node10&#45;&gt;Node9 -->
<g id="edge9_Node000009_Node000010" class="edge">
<title>Node10&#45;&gt;Node9</title>
<g id="a_edge9_Node000009_Node000010"><a xlink:title=" ">
<path fill="none" stroke="#63b8ff" d="M334.21,-592.06C336.15,-577.1 337.97,-563.06 339.56,-550.86"/>
<polygon fill="none" stroke="#63b8ff" points="339.58,-550.72 336.38,-544.25 341.12,-538.82 344.32,-545.28 339.58,-550.72"/>
</a>
</g>
<text xml:space="preserve" text-anchor="start" x="341.75" y="-561.5" font-family="Helvetica,sans-Serif" font-size="10.00" fill="grey">+ptr</text>
</g>
<!-- Node11 -->
<g id="Node000011" class="node">
<title>Node11</title>
<g id="a_Node000011"><a xlink:title=" ">
<polygon fill="white" stroke="none" points="538.88,-1228 381.62,-1228 381.62,-1164 538.88,-1164 538.88,-1228"/>
<text xml:space="preserve" text-anchor="start" x="385.62" y="-1214.5" font-family="Helvetica,sans-Serif" font-size="10.00">std::enable_shared</text>
<text xml:space="preserve" text-anchor="start" x="385.62" y="-1202.5" font-family="Helvetica,sans-Serif" font-size="10.00">_from_this&lt; WebSocketSession &gt;</text>
<text xml:space="preserve" text-anchor="start" x="458.75" y="-1186.5" font-family="Helvetica,sans-Serif" font-size="10.00"> </text>
<text xml:space="preserve" text-anchor="start" x="458.75" y="-1170.5" font-family="Helvetica,sans-Serif" font-size="10.00"> </text>
<polygon fill="#666666" stroke="#666666" points="381.62,-1198 381.62,-1198 538.88,-1198 538.88,-1198 381.62,-1198"/>
<polygon fill="#666666" stroke="#666666" points="381.62,-1182 381.62,-1182 538.88,-1182 538.88,-1182 381.62,-1182"/>
<polygon fill="none" stroke="#666666" points="381.62,-1164 381.62,-1228 538.88,-1228 538.88,-1164 381.62,-1164"/>
</a>
</g>
</g>
<!-- Node11&#45;&gt;Node10 -->
<g id="edge10_Node000010_Node000011" class="edge">
<title>Node11&#45;&gt;Node10</title>
<g id="a_edge10_Node000010_Node000011"><a xlink:title=" ">
<path fill="none" stroke="#63b8ff" d="M445.62,-1153.36C427.84,-1102.76 396.77,-1014.36 368.98,-935.29"/>
<polygon fill="none" stroke="#63b8ff" points="442.29,-1154.46 448.91,-1162.74 448.9,-1152.14 442.29,-1154.46"/>
</a>
</g>
</g>
<!-- Node12 -->
<g id="Node000012" class="node">
<title>Node12</title>
<g id="a_Node000012"><a xlink:title=" ">
<polygon fill="white" stroke="none" points="659.12,-1222 557.38,-1222 557.38,-1170 659.12,-1170 659.12,-1222"/>
<text xml:space="preserve" text-anchor="start" x="561.38" y="-1208.5" font-family="Helvetica,sans-Serif" font-size="10.00">std::vector&lt; uint8_t &gt;</text>
<text xml:space="preserve" text-anchor="start" x="572.38" y="-1192.5" font-family="Helvetica,sans-Serif" font-size="10.00">+</text>
<text xml:space="preserve" text-anchor="start" x="593.38" y="-1192.5" font-family="Helvetica,sans-Serif" font-size="10.00">elements</text>
<text xml:space="preserve" text-anchor="start" x="606.75" y="-1176.5" font-family="Helvetica,sans-Serif" font-size="10.00"> </text>
<polygon fill="#666666" stroke="#666666" points="557.38,-1204 557.38,-1204 659.12,-1204 659.12,-1204 557.38,-1204"/>
<polygon fill="#666666" stroke="#666666" points="557.38,-1188 557.38,-1188 591.38,-1188 591.38,-1188 557.38,-1188"/>
<polygon fill="#666666" stroke="#666666" points="591.38,-1188 591.38,-1188 659.12,-1188 659.12,-1188 591.38,-1188"/>
<polygon fill="none" stroke="#666666" points="557.38,-1170 557.38,-1222 659.12,-1222 659.12,-1170 557.38,-1170"/>
</a>
</g>
</g>
<!-- Node12&#45;&gt;Node10 -->
<g id="edge13_Node000010_Node000012" class="edge">
<title>Node12&#45;&gt;Node10</title>
<g id="a_edge13_Node000010_Node000012"><a xlink:title=" ">
<path fill="none" stroke="#63b8ff" d="M603.41,-1170.07C595.72,-1134.4 578.4,-1067.64 548.25,-1018 502.8,-943.16 431.17,-872.66 378.54,-826.28"/>
<polygon fill="none" stroke="#63b8ff" points="378.67,-826.39 371.52,-825.46 369.63,-818.5 376.78,-819.43 378.67,-826.39"/>
</a>
</g>
<text xml:space="preserve" text-anchor="start" x="536.23" y="-987.5" font-family="Helvetica,sans-Serif" font-size="10.00" fill="grey">&#45;broadcast_buffer_</text>
<text xml:space="preserve" text-anchor="start" x="536.23" y="-971.5" font-family="Helvetica,sans-Serif" font-size="10.00" fill="grey">&#45;write_buffer_</text>
</g>
</g>
</svg>
