<?xml version="1.0" encoding="UTF-8" standalone="no"?>
<!DOCTYPE svg PUBLIC "-//W3C//DTD SVG 1.1//EN"
 "http://www.w3.org/Graphics/SVG/1.1/DTD/svg11.dtd">
<!-- Generated by graphviz version 14.1.2 (20260124.0452)
 -->
<!-- Title: WebSocketSession::do_read Pages: 1 -->
<svg width="825pt" height="125pt"
 viewBox="0.00 0.00 825.00 125.00" xmlns="http://www.w3.org/2000/svg" xmlns:xlink="http://www.w3.org/1999/xlink">
<g id="graph0" class="graph" transform="scale(1 1) rotate(0) translate(4 121)">
<title>WebSocketSession::do_read</title>
<!-- Node1 -->
<g id="Node000001" class="node">
<title>Node1</title>
<g id="a_Node000001"><a xlink:title="Initiate async read for next client message.">
<polygon fill="#999999" stroke="#666666" points="816.5,-117 674.5,-117 674.5,-97 816.5,-97 816.5,-117"/>
<text xml:space="preserve" text-anchor="middle" x="745.5" y="-103.5" font-family="Helvetica,sans-Serif" font-size="10.00">WebSocketSession::do_read</text>
</a>
</g>
</g>
<!-- Node2 -->
<g id="Node000002" class="node">
<title>Node2</title>
<g id="a_Node000002"><a xlink:href="class_web_socket_session.html#a6c0557f87f9f6050a8848237ace942bb" target="_top" xlink:title="Handle received client message.">
<polygon fill="white" stroke="#666666" points="299,-117 157,-117 157,-97 299,-97 299,-117"/>
<text xml:space="preserve" text-anchor="middle" x="228" y="-103.5" font-family="Helvetica,sans-Serif" font-size="10.00">WebSocketSession::on_read</text>
</a>
</g>
</g>
<!-- Node1&#45;&gt;Node2 -->
<g id="edge1_Node000001_Node000002" class="edge">
<title>Node1&#45;&gt;Node2</title>
<g id="a_edge1_Node000001_Node000002"><a xlink:title=" ">
<path fill="none" stroke="#63b8ff" d="M662.89,-101.91C562.57,-99.61 394.03,-99.7 299.24,-102.19"/>
<polygon fill="#63b8ff" stroke="#63b8ff" points="662.58,-105.41 672.66,-102.15 662.75,-98.41 662.58,-105.41"/>
</a>
</g>
</g>
<!-- Node3 -->
<g id="Node000003" class="node">
<title>Node3</title>
<g id="a_Node000003"><a xlink:href="class_web_socket_session.html#a0fed81151d5dcbe23dbee79f1bf12c66" target="_top" xlink:title="Handle write completion.">
<polygon fill="white" stroke="#666666" points="638.5,-70 520.5,-70 520.5,-38 638.5,-38 638.5,-70"/>
<text xml:space="preserve" text-anchor="start" x="528.5" y="-56.5" font-family="Helvetica,sans-Serif" font-size="10.00">WebSocketSession::on</text>
<text xml:space="preserve" text-anchor="middle" x="579.5" y="-44.5" font-family="Helvetica,sans-Serif" font-size="10.00">_write</text>
</a>
</g>
</g>
<!-- Node1&#45;&gt;Node3 -->
<g id="edge3_Node000001_Node000003" class="edge">
<title>Node1&#45;&gt;Node3</title>
<g id="a_edge3_Node000001_Node000003"><a xlink:title=" ">
<path fill="none" stroke="#63b8ff" d="M701.32,-93.05C679.82,-86.1 653.69,-77.65 631.24,-70.4"/>
<polygon fill="#63b8ff" stroke="#63b8ff" points="700.07,-96.32 710.66,-96.06 702.22,-89.66 700.07,-96.32"/>
</a>
</g>
</g>
<!-- Node2&#45;&gt;Node1 -->
<g id="edge2_Node000002_Node000001" class="edge">
<title>Node2&#45;&gt;Node1</title>
<g id="a_edge2_Node000002_Node000001"><a xlink:title=" ">
<path fill="none" stroke="#63b8ff" d="M310.52,-112.08C410.79,-114.39 579.33,-114.3 674.17,-111.81"/>
<polygon fill="#63b8ff" stroke="#63b8ff" points="310.83,-108.59 300.75,-111.84 310.66,-115.59 310.83,-108.59"/>
</a>
</g>
</g>
<!-- Node4 -->
<g id="Node000004" class="node">
<title>Node4</title>
<g id="a_Node000004"><a xlink:href="class_web_socket_session.html#a2529887f34770366fc2c225bd085edba" target="_top" xlink:title="Send current database records to client as JSON.">
<polygon fill="white" stroke="#666666" points="484.5,-70 335,-70 335,-50 484.5,-50 484.5,-70"/>
<text xml:space="preserve" text-anchor="middle" x="409.75" y="-56.5" font-family="Helvetica,sans-Serif" font-size="10.00">WebSocketSession::sendData</text>
</a>
</g>
</g>
<!-- Node3&#45;&gt;Node4 -->
<g id="edge4_Node000003_Node000004" class="edge">
<title>Node3&#45;&gt;Node4</title>
<g id="a_edge4_Node000003_Node000004"><a xlink:title=" ">
<path fill="none" stroke="#63b8ff" d="M508.83,-56.49C500.9,-56.78 492.79,-57.07 484.8,-57.35"/>
<polygon fill="#63b8ff" stroke="#63b8ff" points="508.92,-59.99 518.79,-56.14 508.67,-53 508.92,-59.99"/>
</a>
</g>
</g>
<!-- Node7 -->
<g id="Node000007" class="node">
<title>Node7</title>
<g id="a_Node000007"><a xlink:href="class_web_socket_session.html#a6c789e228fc7a6101f1e586dc67ad8da" target="_top" xlink:title="Send a plain text response to this client (for FIL DIR etc.)">
<polygon fill="white" stroke="#666666" points="483.38,-32 336.12,-32 336.12,0 483.38,0 483.38,-32"/>
<text xml:space="preserve" text-anchor="start" x="344.12" y="-18.5" font-family="Helvetica,sans-Serif" font-size="10.00">WebSocketSession::sendText</text>
<text xml:space="preserve" text-anchor="middle" x="409.75" y="-6.5" font-family="Helvetica,sans-Serif" font-size="10.00">Response</text>
</a>
</g>
</g>
<!-- Node3&#45;&gt;Node7 -->
<g id="edge8_Node000003_Node000007" class="edge">
<title>Node3&#45;&gt;Node7</title>
<g id="a_edge8_Node000003_Node000007"><a xlink:title=" ">
<path fill="none" stroke="#63b8ff" d="M509.22,-38.31C500.68,-36.37 491.92,-34.39 483.33,-32.44"/>
<polygon fill="#63b8ff" stroke="#63b8ff" points="508.3,-41.69 518.82,-40.48 509.84,-34.86 508.3,-41.69"/>
</a>
</g>
</g>
<!-- Node4&#45;&gt;Node2 -->
<g id="edge7_Node000004_Node000002" class="edge">
<title>Node4&#45;&gt;Node2</title>
<g id="a_edge7_Node000004_Node000002"><a xlink:title=" ">
<path fill="none" stroke="#63b8ff" d="M358.02,-73.27C329.86,-80.63 295.34,-89.65 269.09,-96.52"/>
<polygon fill="#63b8ff" stroke="#63b8ff" points="358.6,-76.73 367.39,-70.81 356.83,-69.96 358.6,-76.73"/>
</a>
</g>
</g>
<!-- Node5 -->
<g id="Node000005" class="node">
<title>Node5</title>
<g id="a_Node000005"><a xlink:href="class_web_socket_session.html#a7b82f2e9c71f6822c2d2f6dcc1a251c5" target="_top" xlink:title="Handle WebSocket handshake completion.">
<polygon fill="white" stroke="#666666" points="287,-76 169,-76 169,-44 287,-44 287,-76"/>
<text xml:space="preserve" text-anchor="start" x="177" y="-62.5" font-family="Helvetica,sans-Serif" font-size="10.00">WebSocketSession::on</text>
<text xml:space="preserve" text-anchor="middle" x="228" y="-50.5" font-family="Helvetica,sans-Serif" font-size="10.00">_accept</text>
</a>
</g>
</g>
<!-- Node4&#45;&gt;Node5 -->
<g id="edge5_Node000004_Node000005" class="edge">
<title>Node4&#45;&gt;Node5</title>
<g id="a_edge5_Node000004_Node000005"><a xlink:title=" ">
<path fill="none" stroke="#63b8ff" d="M323.43,-60C311.21,-60 298.88,-60 287.33,-60"/>
<polygon fill="#63b8ff" stroke="#63b8ff" points="323.09,-63.5 333.09,-60 323.09,-56.5 323.09,-63.5"/>
</a>
</g>
</g>
<!-- Node6 -->
<g id="Node000006" class="node">
<title>Node6</title>
<g id="a_Node000006"><a xlink:href="class_web_socket_session.html#aa60a520432526e90b74fd97713469a56" target="_top" xlink:title="Start the session by accepting WebSocket handshake.">
<polygon fill="white" stroke="#666666" points="121,-70 0,-70 0,-50 121,-50 121,-70"/>
<text xml:space="preserve" text-anchor="middle" x="60.5" y="-56.5" font-family="Helvetica,sans-Serif" font-size="10.00">WebSocketSession::run</text>
</a>
</g>
</g>
<!-- Node5&#45;&gt;Node6 -->
<g id="edge6_Node000005_Node000006" class="edge">
<title>Node5&#45;&gt;Node6</title>
<g id="a_edge6_Node000005_Node000006"><a xlink:title=" ">
<path fill="none" stroke="#63b8ff" d="M157.31,-60C145.33,-60 132.97,-60 121.28,-60"/>
<polygon fill="#63b8ff" stroke="#63b8ff" points="157.14,-63.5 167.14,-60 157.14,-56.5 157.14,-63.5"/>
</a>
</g>
</g>
</g>
</svg>
