<?xml version="1.0" encoding="UTF-8" standalone="no"?>
<!DOCTYPE svg PUBLIC "-//W3C//DTD SVG 1.1//EN"
 "http://www.w3.org/Graphics/SVG/1.1/DTD/svg11.dtd">
<!-- Generated by graphviz version 14.1.2 (20260124.0452)
 -->
<!-- Title: TimeSyncManager::getLocalPCTime Pages: 1 -->
<svg width="558pt" height="66pt"
 viewBox="0.00 0.00 558.00 66.00" xmlns="http://www.w3.org/2000/svg" xmlns:xlink="http://www.w3.org/1999/xlink">
<g id="graph0" class="graph" transform="scale(1 1) rotate(0) translate(4 62)">
<title>TimeSyncManager::getLocalPCTime</title>
<!-- Node1 -->
<g id="Node000001" class="node">
<title>Node1</title>
<g id="a_Node000001"><a xlink:title="Get current local PC time formatted as &quot;YYYY&#45;MM&#45;DD HH:MM:SS&quot;.">
<polygon fill="#999999" stroke="#666666" points="549.75,-45 409.25,-45 409.25,-13 549.75,-13 549.75,-45"/>
<text xml:space="preserve" text-anchor="start" x="417.25" y="-31.5" font-family="Helvetica,sans-Serif" font-size="10.00">TimeSyncManager::getLocal</text>
<text xml:space="preserve" text-anchor="middle" x="479.5" y="-19.5" font-family="Helvetica,sans-Serif" font-size="10.00">PCTime</text>
</a>
</g>
</g>
<!-- Node2 -->
<g id="Node000002" class="node">
<title>Node2</title>
<g id="a_Node000002"><a xlink:href="class_time_sync_manager.html#a6d7aefdf9577ff2f38b502ddbe603d66" target="_top" xlink:title=" ">
<polygon fill="white" stroke="#666666" points="373.25,-58 196,-58 196,-38 373.25,-38 373.25,-58"/>
<text xml:space="preserve" text-anchor="middle" x="284.62" y="-44.5" font-family="Helvetica,sans-Serif" font-size="10.00">TimeSyncManager::handleReadTime</text>
</a>
</g>
</g>
<!-- Node1&#45;&gt;Node2 -->
<g id="edge1_Node000001_Node000002" class="edge">
<title>Node1&#45;&gt;Node2</title>
<g id="a_edge1_Node000001_Node000002"><a xlink:title=" ">
<path fill="none" stroke="#63b8ff" d="M397.46,-36.98C389.58,-37.76 381.57,-38.55 373.63,-39.33"/>
<polygon fill="#63b8ff" stroke="#63b8ff" points="397.75,-40.47 407.36,-36.01 397.07,-33.51 397.75,-40.47"/>
</a>
</g>
</g>
<!-- Node4 -->
<g id="Node000004" class="node">
<title>Node4</title>
<g id="a_Node000004"><a xlink:href="class_time_sync_manager.html#ab03b40ab388284d44f5a30a63fa0f432" target="_top" xlink:title=" ">
<polygon fill="white" stroke="#666666" points="372.88,-20 196.38,-20 196.38,0 372.88,0 372.88,-20"/>
<text xml:space="preserve" text-anchor="middle" x="284.62" y="-6.5" font-family="Helvetica,sans-Serif" font-size="10.00">TimeSyncManager::handleSyncTime</text>
</a>
</g>
</g>
<!-- Node1&#45;&gt;Node4 -->
<g id="edge3_Node000001_Node000004" class="edge">
<title>Node1&#45;&gt;Node4</title>
<g id="a_edge3_Node000001_Node000004"><a xlink:title=" ">
<path fill="none" stroke="#63b8ff" d="M397.63,-21.03C389.59,-20.24 381.4,-19.43 373.3,-18.64"/>
<polygon fill="#63b8ff" stroke="#63b8ff" points="397.07,-24.49 407.36,-21.99 397.75,-17.53 397.07,-24.49"/>
</a>
</g>
</g>
<!-- Node3 -->
<g id="Node000003" class="node">
<title>Node3</title>
<g id="a_Node000003"><a xlink:href="class_time_sync_manager.html#ab7e1061ae8a4a1bae60ed0411ff4b825" target="_top" xlink:title="Process a JSON action string from WebSocket and return a JSON response.">
<polygon fill="white" stroke="#666666" points="160,-39 0,-39 0,-19 160,-19 160,-39"/>
<text xml:space="preserve" text-anchor="middle" x="80" y="-25.5" font-family="Helvetica,sans-Serif" font-size="10.00">TimeSyncManager::handleAction</text>
</a>
</g>
</g>
<!-- Node2&#45;&gt;Node3 -->
<g id="edge2_Node000002_Node000003" class="edge">
<title>Node2&#45;&gt;Node3</title>
<g id="a_edge2_Node000002_Node000003"><a xlink:title=" ">
<path fill="none" stroke="#63b8ff" d="M184.29,-38.69C176.25,-37.93 168.18,-37.18 160.31,-36.44"/>
<polygon fill="#63b8ff" stroke="#63b8ff" points="183.84,-42.16 194.13,-39.61 184.5,-35.19 183.84,-42.16"/>
</a>
</g>
</g>
<!-- Node4&#45;&gt;Node3 -->
<g id="edge4_Node000004_Node000003" class="edge">
<title>Node4&#45;&gt;Node3</title>
<g id="a_edge4_Node000004_Node000003"><a xlink:title=" ">
<path fill="none" stroke="#63b8ff" d="M184.74,-19.27C176.52,-20.04 168.27,-20.82 160.22,-21.57"/>
<polygon fill="#63b8ff" stroke="#63b8ff" points="184.79,-22.78 194.42,-18.36 184.14,-15.81 184.79,-22.78"/>
</a>
</g>
</g>
</g>
</svg>
