<?xml version="1.0" encoding="UTF-8" standalone="no"?>
<!DOCTYPE svg PUBLIC "-//W3C//DTD SVG 1.1//EN"
 "http://www.w3.org/Graphics/SVG/1.1/DTD/svg11.dtd">
<!-- Generated by graphviz version 14.1.2 (20260124.0452)
 -->
<!-- Title: SERDatabase::insertRecord Pages: 1 -->
<svg width="493pt" height="66pt"
 viewBox="0.00 0.00 493.00 66.00" xmlns="http://www.w3.org/2000/svg" xmlns:xlink="http://www.w3.org/1999/xlink">
<g id="graph0" class="graph" transform="scale(1 1) rotate(0) translate(4 62)">
<title>SERDatabase::insertRecord</title>
<!-- Node1 -->
<g id="Node000001" class="node">
<title>Node1</title>
<g id="a_Node000001"><a xlink:title="Insert a single SER record into the database.">
<polygon fill="#999999" stroke="#666666" points="484.5,-39 344,-39 344,-19 484.5,-19 484.5,-39"/>
<text xml:space="preserve" text-anchor="middle" x="414.25" y="-25.5" font-family="Helvetica,sans-Serif" font-size="10.00">SERDatabase::insertRecord</text>
</a>
</g>
</g>
<!-- Node2 -->
<g id="Node000002" class="node">
<title>Node2</title>
<g id="a_Node000002"><a xlink:href="class_s_e_r_database.html#ac4611fbd8ff79ee0d8ec51cb04a171fc" target="_top" xlink:title="Insert multiple SER records with transaction support.">
<polygon fill="white" stroke="#666666" points="308,-58 162.25,-58 162.25,-38 308,-38 308,-58"/>
<text xml:space="preserve" text-anchor="middle" x="235.12" y="-44.5" font-family="Helvetica,sans-Serif" font-size="10.00">SERDatabase::insertRecords</text>
</a>
</g>
</g>
<!-- Node1&#45;&gt;Node2 -->
<g id="edge1_Node000001_Node000002" class="edge">
<title>Node1&#45;&gt;Node2</title>
<g id="a_edge1_Node000001_Node000002"><a xlink:title=" ">
<path fill="none" stroke="#63b8ff" d="M332.46,-37.67C324.42,-38.53 316.29,-39.4 308.34,-40.25"/>
<polygon fill="#63b8ff" stroke="#63b8ff" points="332.68,-41.16 342.25,-36.62 331.93,-34.2 332.68,-41.16"/>
</a>
</g>
</g>
<!-- Node4 -->
<g id="Node000004" class="node">
<title>Node4</title>
<g id="a_Node000004"><a xlink:href="class_s_e_r_database.html#ab9a60e734536bd80a75f9e8bacf86882" target="_top" xlink:title=" ">
<polygon fill="white" stroke="#666666" points="126.25,-20 0,-20 0,0 126.25,0 126.25,-20"/>
<text xml:space="preserve" text-anchor="middle" x="63.12" y="-6.5" font-family="Helvetica,sans-Serif" font-size="10.00">SERDatabase::operator=</text>
</a>
</g>
</g>
<!-- Node1&#45;&gt;Node4 -->
<g id="edge4_Node000001_Node000004" class="edge">
<title>Node1&#45;&gt;Node4</title>
<g id="a_edge4_Node000001_Node000004"><a xlink:title=" ">
<path fill="none" stroke="#63b8ff" d="M332.43,-24.6C269.76,-21.19 184.16,-16.53 126.65,-13.4"/>
<polygon fill="#63b8ff" stroke="#63b8ff" points="332.17,-28.09 342.35,-25.14 332.55,-21.1 332.17,-28.09"/>
</a>
</g>
</g>
<!-- Node3 -->
<g id="Node000003" class="node">
<title>Node3</title>
<g id="a_Node000003"><a xlink:href="struct_poll_ser_action.html#a80290394273450b8c46083cc224c529f" target="_top" xlink:title="Execute SER polling and storage.">
<polygon fill="white" stroke="#666666" points="124.38,-58 1.88,-58 1.88,-38 124.38,-38 124.38,-58"/>
<text xml:space="preserve" text-anchor="middle" x="63.12" y="-44.5" font-family="Helvetica,sans-Serif" font-size="10.00">PollSerAction::operator()</text>
</a>
</g>
</g>
<!-- Node2&#45;&gt;Node3 -->
<g id="edge2_Node000002_Node000003" class="edge">
<title>Node2&#45;&gt;Node3</title>
<g id="a_edge2_Node000002_Node000003"><a xlink:title=" ">
<path fill="none" stroke="#63b8ff" d="M150.62,-48C141.91,-48 133.18,-48 124.8,-48"/>
<polygon fill="#63b8ff" stroke="#63b8ff" points="150.52,-51.5 160.52,-48 150.52,-44.5 150.52,-51.5"/>
</a>
</g>
</g>
<!-- Node2&#45;&gt;Node4 -->
<g id="edge3_Node000002_Node000004" class="edge">
<title>Node2&#45;&gt;Node4</title>
<g id="a_edge3_Node000002_Node000004"><a xlink:title=" ">
<path fill="none" stroke="#63b8ff" d="M176.04,-35.02C154.78,-30.26 131.02,-24.95 110.88,-20.45"/>
<polygon fill="#63b8ff" stroke="#63b8ff" points="175.22,-38.42 185.74,-37.19 176.75,-31.59 175.22,-38.42"/>
</a>
</g>
</g>
</g>
</svg>
