<?xml version="1.0" encoding="UTF-8" standalone="no"?>
<!DOCTYPE svg PUBLIC "-//W3C//DTD SVG 1.1//EN"
 "http://www.w3.org/Graphics/SVG/1.1/DTD/svg11.dtd">
<!-- Generated by graphviz version 14.1.1 (20251213.1925)
 -->
<!-- Title: TimeSyncManager::getLocalPCTime Pages: 1 -->
<svg width="695pt" height="66pt"
 viewBox="0.00 0.00 695.00 66.00" xmlns="http://www.w3.org/2000/svg" xmlns:xlink="http://www.w3.org/1999/xlink">
<g id="graph0" class="graph" transform="scale(1 1) rotate(0) translate(4 62)">
<title>TimeSyncManager::getLocalPCTime</title>
<!-- Node1 -->
<g id="Node000001" class="node">
<title>Node1</title>
<g id="a_Node000001"><a xlink:title="Get current local PC time formatted as &quot;YYYY&#45;MM&#45;DD HH:MM:SS&quot;.">
<polygon fill="#999999" stroke="#666666" points="687.25,-45 546.75,-45 546.75,-13 687.25,-13 687.25,-45"/>
<text xml:space="preserve" text-anchor="start" x="554.75" y="-31.5" font-family="Helvetica,sans-Serif" font-size="10.00">TimeSyncManager::getLocal</text>
<text xml:space="preserve" text-anchor="middle" x="617" y="-19.5" font-family="Helvetica,sans-Serif" font-size="10.00">PCTime</text>
</a>
</g>
</g>
<!-- Node2 -->
<g id="Node000002" class="node">
<title>Node2</title>
<g id="a_Node000002"><a xlink:href="class_time_sync_manager.html#a6d7aefdf9577ff2f38b502ddbe603d66" target="_top" xlink:title="Handle the &quot;read_time&quot; action.">
<polygon fill="white" stroke="#666666" points="510.75,-58 333.5,-58 333.5,-38 510.75,-38 510.75,-58"/>
<text xml:space="preserve" text-anchor="middle" x="422.12" y="-44.5" font-family="Helvetica,sans-Serif" font-size="10.00">TimeSyncManager::handleReadTime</text>
</a>
</g>
</g>
<!-- Node1&#45;&gt;Node2 -->
<g id="edge1_Node000001_Node000002" class="edge">
<title>Node1&#45;&gt;Node2</title>
<g id="a_edge1_Node000001_Node000002"><a xlink:title=" ">
<path fill="none" stroke="#63b8ff" d="M534.96,-36.98C527.08,-37.76 519.07,-38.55 511.13,-39.33"/>
<polygon fill="#63b8ff" stroke="#63b8ff" points="535.25,-40.47 544.86,-36.01 534.57,-33.51 535.25,-40.47"/>
</a>
</g>
</g>
<!-- Node5 -->
<g id="Node000005" class="node">
<title>Node5</title>
<g id="a_Node000005"><a xlink:href="class_time_sync_manager.html#ab03b40ab388284d44f5a30a63fa0f432" target="_top" xlink:title="Handle the &quot;sync_time&quot; action.">
<polygon fill="white" stroke="#666666" points="510.38,-20 333.88,-20 333.88,0 510.38,0 510.38,-20"/>
<text xml:space="preserve" text-anchor="middle" x="422.12" y="-6.5" font-family="Helvetica,sans-Serif" font-size="10.00">TimeSyncManager::handleSyncTime</text>
</a>
</g>
</g>
<!-- Node1&#45;&gt;Node5 -->
<g id="edge4_Node000001_Node000005" class="edge">
<title>Node1&#45;&gt;Node5</title>
<g id="a_edge4_Node000001_Node000005"><a xlink:title=" ">
<path fill="none" stroke="#63b8ff" d="M535.13,-21.03C527.09,-20.24 518.9,-19.43 510.8,-18.64"/>
<polygon fill="#63b8ff" stroke="#63b8ff" points="534.57,-24.49 544.86,-21.99 535.25,-17.53 534.57,-24.49"/>
</a>
</g>
</g>
<!-- Node3 -->
<g id="Node000003" class="node">
<title>Node3</title>
<g id="a_Node000003"><a xlink:href="class_time_sync_manager.html#ab7e1061ae8a4a1bae60ed0411ff4b825" target="_top" xlink:title="Process a JSON action string from WebSocket and return a JSON response.">
<polygon fill="white" stroke="#666666" points="297.5,-39 137.5,-39 137.5,-19 297.5,-19 297.5,-39"/>
<text xml:space="preserve" text-anchor="middle" x="217.5" y="-25.5" font-family="Helvetica,sans-Serif" font-size="10.00">TimeSyncManager::handleAction</text>
</a>
</g>
</g>
<!-- Node2&#45;&gt;Node3 -->
<g id="edge2_Node000002_Node000003" class="edge">
<title>Node2&#45;&gt;Node3</title>
<g id="a_edge2_Node000002_Node000003"><a xlink:title=" ">
<path fill="none" stroke="#63b8ff" d="M321.79,-38.69C313.75,-37.93 305.68,-37.18 297.81,-36.44"/>
<polygon fill="#63b8ff" stroke="#63b8ff" points="321.34,-42.16 331.63,-39.61 322,-35.19 321.34,-42.16"/>
</a>
</g>
</g>
<!-- Node4 -->
<g id="Node000004" class="node">
<title>Node4</title>
<g id="a_Node000004"><a xlink:href="class_telnet_sml_app_1_1_impl.html#a64957945d93500acea2140ec59b07802" target="_top" xlink:title="Starts all application components.">
<polygon fill="white" stroke="#666666" points="101.5,-45 0,-45 0,-13 101.5,-13 101.5,-45"/>
<text xml:space="preserve" text-anchor="start" x="8" y="-31.5" font-family="Helvetica,sans-Serif" font-size="10.00">TelnetSmlApp::Impl</text>
<text xml:space="preserve" text-anchor="middle" x="50.75" y="-19.5" font-family="Helvetica,sans-Serif" font-size="10.00">::start</text>
</a>
</g>
</g>
<!-- Node3&#45;&gt;Node4 -->
<g id="edge3_Node000003_Node000004" class="edge">
<title>Node3&#45;&gt;Node4</title>
<g id="a_edge3_Node000003_Node000004"><a xlink:title=" ">
<path fill="none" stroke="#63b8ff" d="M125.76,-29C117.54,-29 109.43,-29 101.76,-29"/>
<polygon fill="#63b8ff" stroke="#63b8ff" points="125.51,-32.5 135.51,-29 125.51,-25.5 125.51,-32.5"/>
</a>
</g>
</g>
<!-- Node5&#45;&gt;Node3 -->
<g id="edge5_Node000005_Node000003" class="edge">
<title>Node5&#45;&gt;Node3</title>
<g id="a_edge5_Node000005_Node000003"><a xlink:title=" ">
<path fill="none" stroke="#63b8ff" d="M322.24,-19.27C314.02,-20.04 305.77,-20.82 297.72,-21.57"/>
<polygon fill="#63b8ff" stroke="#63b8ff" points="322.29,-22.78 331.92,-18.36 321.64,-15.81 322.29,-22.78"/>
</a>
</g>
</g>
</g>
</svg>
