<?xml version="1.0" encoding="UTF-8" standalone="no"?>
<!DOCTYPE svg PUBLIC "-//W3C//DTD SVG 1.1//EN"
 "http://www.w3.org/Graphics/SVG/1.1/DTD/svg11.dtd">
<!-- Generated by graphviz version 14.1.1 (20251213.1925)
 -->
<!-- Title: PipelineReceptionWorker Pages: 1 -->
<svg width="1083pt" height="1481pt"
 viewBox="0.00 0.00 1083.00 1481.00" xmlns="http://www.w3.org/2000/svg" xmlns:xlink="http://www.w3.org/1999/xlink">
<g id="graph0" class="graph" transform="scale(1 1) rotate(0) translate(4 1477)">
<title>PipelineReceptionWorker</title>
<!-- Node1 -->
<g id="Node000001" class="node">
<title>Node1</title>
<g id="a_Node000001"><a xlink:title="Non&#45;blocking Telnet I/O worker for a single relay pipeline.">
<polygon fill="#999999" stroke="none" points="562.12,-260 428.62,-260 428.62,0 562.12,0 562.12,-260"/>
<text xml:space="preserve" text-anchor="start" x="440.62" y="-246.5" font-family="Helvetica,sans-Serif" font-size="10.00">PipelineReceptionWorker</text>
<text xml:space="preserve" text-anchor="start" x="434.12" y="-230.5" font-family="Helvetica,sans-Serif" font-size="10.00">&#45;</text>
<text xml:space="preserve" text-anchor="start" x="442.62" y="-230.5" font-family="Helvetica,sans-Serif" font-size="10.00">queue_cv_</text>
<text xml:space="preserve" text-anchor="start" x="434.12" y="-214.5" font-family="Helvetica,sans-Serif" font-size="10.00">&#45;</text>
<text xml:space="preserve" text-anchor="start" x="442.62" y="-214.5" font-family="Helvetica,sans-Serif" font-size="10.00">fsm_</text>
<text xml:space="preserve" text-anchor="start" x="434.12" y="-198.5" font-family="Helvetica,sans-Serif" font-size="10.00">&#45;</text>
<text xml:space="preserve" text-anchor="start" x="442.62" y="-198.5" font-family="Helvetica,sans-Serif" font-size="10.00">cmdFsm_</text>
<text xml:space="preserve" text-anchor="start" x="434.12" y="-182.5" font-family="Helvetica,sans-Serif" font-size="10.00">&#45;</text>
<text xml:space="preserve" text-anchor="start" x="442.62" y="-182.5" font-family="Helvetica,sans-Serif" font-size="10.00">MAX_RETRIES</text>
<text xml:space="preserve" text-anchor="start" x="434.12" y="-166.5" font-family="Helvetica,sans-Serif" font-size="10.00">&#45;</text>
<text xml:space="preserve" text-anchor="start" x="442.62" y="-166.5" font-family="Helvetica,sans-Serif" font-size="10.00">RETRY_DELAY_SEC</text>
<text xml:space="preserve" text-anchor="start" x="432.62" y="-150.5" font-family="Helvetica,sans-Serif" font-size="10.00">+</text>
<text xml:space="preserve" text-anchor="start" x="442.62" y="-150.5" font-family="Helvetica,sans-Serif" font-size="10.00">PipelineReceptionWorker()</text>
<text xml:space="preserve" text-anchor="start" x="432.62" y="-134.5" font-family="Helvetica,sans-Serif" font-size="10.00">+</text>
<text xml:space="preserve" text-anchor="start" x="442.62" y="-134.5" font-family="Helvetica,sans-Serif" font-size="10.00">start()</text>
<text xml:space="preserve" text-anchor="start" x="432.62" y="-118.5" font-family="Helvetica,sans-Serif" font-size="10.00">+</text>
<text xml:space="preserve" text-anchor="start" x="442.62" y="-118.5" font-family="Helvetica,sans-Serif" font-size="10.00">stop()</text>
<text xml:space="preserve" text-anchor="start" x="432.62" y="-102.5" font-family="Helvetica,sans-Serif" font-size="10.00">+</text>
<text xml:space="preserve" text-anchor="start" x="442.62" y="-102.5" font-family="Helvetica,sans-Serif" font-size="10.00">queueCommand()</text>
<text xml:space="preserve" text-anchor="start" x="432.62" y="-86.5" font-family="Helvetica,sans-Serif" font-size="10.00">+</text>
<text xml:space="preserve" text-anchor="start" x="442.62" y="-86.5" font-family="Helvetica,sans-Serif" font-size="10.00">handleUserCommand()</text>
<text xml:space="preserve" text-anchor="start" x="432.62" y="-70.5" font-family="Helvetica,sans-Serif" font-size="10.00">+</text>
<text xml:space="preserve" text-anchor="start" x="442.62" y="-70.5" font-family="Helvetica,sans-Serif" font-size="10.00">resetConnection()</text>
<text xml:space="preserve" text-anchor="start" x="434.12" y="-54.5" font-family="Helvetica,sans-Serif" font-size="10.00">&#45;</text>
<text xml:space="preserve" text-anchor="start" x="442.62" y="-54.5" font-family="Helvetica,sans-Serif" font-size="10.00">driveToOperational()</text>
<text xml:space="preserve" text-anchor="start" x="434.12" y="-38.5" font-family="Helvetica,sans-Serif" font-size="10.00">&#45;</text>
<text xml:space="preserve" text-anchor="start" x="442.62" y="-38.5" font-family="Helvetica,sans-Serif" font-size="10.00">fireCommandEvent()</text>
<text xml:space="preserve" text-anchor="start" x="434.12" y="-22.5" font-family="Helvetica,sans-Serif" font-size="10.00">&#45;</text>
<text xml:space="preserve" text-anchor="start" x="442.62" y="-22.5" font-family="Helvetica,sans-Serif" font-size="10.00">executeCommand()</text>
<text xml:space="preserve" text-anchor="start" x="434.12" y="-6.5" font-family="Helvetica,sans-Serif" font-size="10.00">&#45;</text>
<text xml:space="preserve" text-anchor="start" x="442.62" y="-6.5" font-family="Helvetica,sans-Serif" font-size="10.00">runLoop()</text>
<polygon fill="#666666" stroke="#666666" points="428.62,-242 428.62,-242 562.12,-242 562.12,-242 428.62,-242"/>
<polygon fill="#666666" stroke="#666666" points="428.62,-162 428.62,-162 440.62,-162 440.62,-162 428.62,-162"/>
<polygon fill="#666666" stroke="#666666" points="440.62,-162 440.62,-162 562.12,-162 562.12,-162 440.62,-162"/>
<polygon fill="none" stroke="#666666" points="428.62,0 428.62,-260 562.12,-260 562.12,0 428.62,0"/>
</a>
</g>
</g>
<!-- Node2 -->
<g id="Node000002" class="node">
<title>Node2</title>
<g id="a_Node000002"><a xlink:title=" ">
<polygon fill="white" stroke="none" points="92.75,-542 0,-542 0,-490 92.75,-490 92.75,-542"/>
<text xml:space="preserve" text-anchor="start" x="4" y="-528.5" font-family="Helvetica,sans-Serif" font-size="10.00">std::atomic&lt; bool &gt;</text>
<text xml:space="preserve" text-anchor="start" x="19.88" y="-512.5" font-family="Helvetica,sans-Serif" font-size="10.00">+</text>
<text xml:space="preserve" text-anchor="start" x="45.75" y="-512.5" font-family="Helvetica,sans-Serif" font-size="10.00">ptr</text>
<text xml:space="preserve" text-anchor="start" x="44.88" y="-496.5" font-family="Helvetica,sans-Serif" font-size="10.00"> </text>
<polygon fill="#666666" stroke="#666666" points="0,-524 0,-524 92.75,-524 92.75,-524 0,-524"/>
<polygon fill="#666666" stroke="#666666" points="0,-508 0,-508 43.75,-508 43.75,-508 0,-508"/>
<polygon fill="#666666" stroke="#666666" points="43.75,-508 43.75,-508 92.75,-508 92.75,-508 43.75,-508"/>
<polygon fill="none" stroke="#666666" points="0,-490 0,-542 92.75,-542 92.75,-490 0,-490"/>
</a>
</g>
</g>
<!-- Node2&#45;&gt;Node1 -->
<g id="edge1_Node000001_Node000002" class="edge">
<title>Node2&#45;&gt;Node1</title>
<g id="a_edge1_Node000001_Node000002"><a xlink:title=" ">
<path fill="none" stroke="#63b8ff" d="M38.62,-490.23C25.67,-443.58 5.42,-341.63 52.62,-278 137.2,-164 313.48,-137.2 416.26,-131.62"/>
<polygon fill="none" stroke="#63b8ff" points="416.15,-131.63 421.95,-127.35 428.13,-131.06 422.33,-135.34 416.15,-131.63"/>
</a>
</g>
<text xml:space="preserve" text-anchor="start" x="55.62" y="-299.5" font-family="Helvetica,sans-Serif" font-size="10.00" fill="grey">&#45;app_running_</text>
<text xml:space="preserve" text-anchor="start" x="55.62" y="-283.5" font-family="Helvetica,sans-Serif" font-size="10.00" fill="grey">&#45;stop_flag_</text>
</g>
<!-- Node3 -->
<g id="Node000003" class="node">
<title>Node3</title>
<g id="a_Node000003"><a xlink:title=" ">
<polygon fill="white" stroke="none" points="165.62,-542 111.12,-542 111.12,-490 165.62,-490 165.62,-542"/>
<text xml:space="preserve" text-anchor="start" x="115.12" y="-528.5" font-family="Helvetica,sans-Serif" font-size="10.00">std::thread</text>
<text xml:space="preserve" text-anchor="start" x="136.88" y="-512.5" font-family="Helvetica,sans-Serif" font-size="10.00"> </text>
<text xml:space="preserve" text-anchor="start" x="136.88" y="-496.5" font-family="Helvetica,sans-Serif" font-size="10.00"> </text>
<polygon fill="#666666" stroke="#666666" points="111.12,-524 111.12,-524 165.62,-524 165.62,-524 111.12,-524"/>
<polygon fill="#666666" stroke="#666666" points="111.12,-508 111.12,-508 165.62,-508 165.62,-508 111.12,-508"/>
<polygon fill="none" stroke="#666666" points="111.12,-490 111.12,-542 165.62,-542 165.62,-490 111.12,-490"/>
</a>
</g>
</g>
<!-- Node3&#45;&gt;Node1 -->
<g id="edge2_Node000001_Node000003" class="edge">
<title>Node3&#45;&gt;Node1</title>
<g id="a_edge2_Node000001_Node000003"><a xlink:title=" ">
<path fill="none" stroke="#63b8ff" d="M130.3,-490.26C116.88,-444.09 95.53,-343.55 139.62,-278 201.26,-186.36 331.58,-151.78 416.21,-138.77"/>
<polygon fill="none" stroke="#63b8ff" points="416.1,-138.79 421.47,-133.97 427.98,-137.07 422.62,-141.89 416.1,-138.79"/>
</a>
</g>
<text xml:space="preserve" text-anchor="start" x="142.62" y="-291.5" font-family="Helvetica,sans-Serif" font-size="10.00" fill="grey">&#45;worker_thread_</text>
</g>
<!-- Node4 -->
<g id="Node000004" class="node">
<title>Node4</title>
<g id="a_Node000004"><a xlink:title=" ">
<polygon fill="white" stroke="none" points="784.62,-1072 730.12,-1072 730.12,-1020 784.62,-1020 784.62,-1072"/>
<text xml:space="preserve" text-anchor="start" x="734.12" y="-1058.5" font-family="Helvetica,sans-Serif" font-size="10.00">std::mutex</text>
<text xml:space="preserve" text-anchor="start" x="755.88" y="-1042.5" font-family="Helvetica,sans-Serif" font-size="10.00"> </text>
<text xml:space="preserve" text-anchor="start" x="755.88" y="-1026.5" font-family="Helvetica,sans-Serif" font-size="10.00"> </text>
<polygon fill="#666666" stroke="#666666" points="730.12,-1054 730.12,-1054 784.62,-1054 784.62,-1054 730.12,-1054"/>
<polygon fill="#666666" stroke="#666666" points="730.12,-1038 730.12,-1038 784.62,-1038 784.62,-1038 730.12,-1038"/>
<polygon fill="none" stroke="#666666" points="730.12,-1020 730.12,-1072 784.62,-1072 784.62,-1020 730.12,-1020"/>
</a>
</g>
</g>
<!-- Node4&#45;&gt;Node1 -->
<g id="edge3_Node000001_Node000004" class="edge">
<title>Node4&#45;&gt;Node1</title>
<g id="a_edge3_Node000001_Node000004"><a xlink:title=" ">
<path fill="none" stroke="#63b8ff" d="M757.58,-1020.07C758.41,-901.01 760.16,-393.46 730.38,-330 697.79,-260.58 627.95,-206.48 572.82,-172.32"/>
<polygon fill="none" stroke="#63b8ff" points="573.04,-172.45 565.84,-172.76 562.78,-166.23 569.99,-165.92 573.04,-172.45"/>
</a>
</g>
<text xml:space="preserve" text-anchor="start" x="759.18" y="-520.5" font-family="Helvetica,sans-Serif" font-size="10.00" fill="grey">&#45;queue_mutex_</text>
<text xml:space="preserve" text-anchor="start" x="759.18" y="-504.5" font-family="Helvetica,sans-Serif" font-size="10.00" fill="grey">&#45;sync_cmd_mutex_</text>
</g>
<!-- Node13 -->
<g id="Node000013" class="node">
<title>Node13</title>
<g id="a_Node000013"><a xlink:href="class_raw_data_ring_buffer.html" target="_top" xlink:title="MPMC ring buffer for decoupling Telnet reception from multiple consumers.">
<polygon fill="white" stroke="none" points="977.88,-702 866.88,-702 866.88,-330 977.88,-330 977.88,-702"/>
<text xml:space="preserve" text-anchor="start" x="878.88" y="-688.5" font-family="Helvetica,sans-Serif" font-size="10.00">RawDataRingBuffer</text>
<text xml:space="preserve" text-anchor="start" x="870.88" y="-672.5" font-family="Helvetica,sans-Serif" font-size="10.00">+</text>
<text xml:space="preserve" text-anchor="start" x="880.88" y="-672.5" font-family="Helvetica,sans-Serif" font-size="10.00">kMaxReaders</text>
<text xml:space="preserve" text-anchor="start" x="870.88" y="-656.5" font-family="Helvetica,sans-Serif" font-size="10.00">+</text>
<text xml:space="preserve" text-anchor="start" x="880.88" y="-656.5" font-family="Helvetica,sans-Serif" font-size="10.00">kInvalidReader</text>
<text xml:space="preserve" text-anchor="start" x="872.38" y="-640.5" font-family="Helvetica,sans-Serif" font-size="10.00">&#45;</text>
<text xml:space="preserve" text-anchor="start" x="880.88" y="-640.5" font-family="Helvetica,sans-Serif" font-size="10.00">max_size_</text>
<text xml:space="preserve" text-anchor="start" x="872.38" y="-624.5" font-family="Helvetica,sans-Serif" font-size="10.00">&#45;</text>
<text xml:space="preserve" text-anchor="start" x="880.88" y="-624.5" font-family="Helvetica,sans-Serif" font-size="10.00">base_index_</text>
<text xml:space="preserve" text-anchor="start" x="872.38" y="-608.5" font-family="Helvetica,sans-Serif" font-size="10.00">&#45;</text>
<text xml:space="preserve" text-anchor="start" x="880.88" y="-608.5" font-family="Helvetica,sans-Serif" font-size="10.00">total_writes_</text>
<text xml:space="preserve" text-anchor="start" x="872.38" y="-592.5" font-family="Helvetica,sans-Serif" font-size="10.00">&#45;</text>
<text xml:space="preserve" text-anchor="start" x="880.88" y="-592.5" font-family="Helvetica,sans-Serif" font-size="10.00">drop_count_</text>
<text xml:space="preserve" text-anchor="start" x="872.38" y="-576.5" font-family="Helvetica,sans-Serif" font-size="10.00">&#45;</text>
<text xml:space="preserve" text-anchor="start" x="880.88" y="-576.5" font-family="Helvetica,sans-Serif" font-size="10.00">cv_</text>
<text xml:space="preserve" text-anchor="start" x="870.88" y="-560.5" font-family="Helvetica,sans-Serif" font-size="10.00">+</text>
<text xml:space="preserve" text-anchor="start" x="880.88" y="-560.5" font-family="Helvetica,sans-Serif" font-size="10.00">RawDataRingBuffer()</text>
<text xml:space="preserve" text-anchor="start" x="870.88" y="-544.5" font-family="Helvetica,sans-Serif" font-size="10.00">+</text>
<text xml:space="preserve" text-anchor="start" x="880.88" y="-544.5" font-family="Helvetica,sans-Serif" font-size="10.00">registerReader()</text>
<text xml:space="preserve" text-anchor="start" x="870.88" y="-528.5" font-family="Helvetica,sans-Serif" font-size="10.00">+</text>
<text xml:space="preserve" text-anchor="start" x="880.88" y="-528.5" font-family="Helvetica,sans-Serif" font-size="10.00">unregisterReader()</text>
<text xml:space="preserve" text-anchor="start" x="870.88" y="-512.5" font-family="Helvetica,sans-Serif" font-size="10.00">+</text>
<text xml:space="preserve" text-anchor="start" x="880.88" y="-512.5" font-family="Helvetica,sans-Serif" font-size="10.00">push()</text>
<text xml:space="preserve" text-anchor="start" x="870.88" y="-496.5" font-family="Helvetica,sans-Serif" font-size="10.00">+</text>
<text xml:space="preserve" text-anchor="start" x="880.88" y="-496.5" font-family="Helvetica,sans-Serif" font-size="10.00">waitPop()</text>
<text xml:space="preserve" text-anchor="start" x="870.88" y="-480.5" font-family="Helvetica,sans-Serif" font-size="10.00">+</text>
<text xml:space="preserve" text-anchor="start" x="880.88" y="-480.5" font-family="Helvetica,sans-Serif" font-size="10.00">tryPop()</text>
<text xml:space="preserve" text-anchor="start" x="870.88" y="-464.5" font-family="Helvetica,sans-Serif" font-size="10.00">+</text>
<text xml:space="preserve" text-anchor="start" x="880.88" y="-464.5" font-family="Helvetica,sans-Serif" font-size="10.00">size()</text>
<text xml:space="preserve" text-anchor="start" x="870.88" y="-448.5" font-family="Helvetica,sans-Serif" font-size="10.00">+</text>
<text xml:space="preserve" text-anchor="start" x="880.88" y="-448.5" font-family="Helvetica,sans-Serif" font-size="10.00">empty()</text>
<text xml:space="preserve" text-anchor="start" x="870.88" y="-432.5" font-family="Helvetica,sans-Serif" font-size="10.00">+</text>
<text xml:space="preserve" text-anchor="start" x="880.88" y="-432.5" font-family="Helvetica,sans-Serif" font-size="10.00">notifyAll()</text>
<text xml:space="preserve" text-anchor="start" x="870.88" y="-416.5" font-family="Helvetica,sans-Serif" font-size="10.00">+</text>
<text xml:space="preserve" text-anchor="start" x="880.88" y="-416.5" font-family="Helvetica,sans-Serif" font-size="10.00">clear()</text>
<text xml:space="preserve" text-anchor="start" x="870.88" y="-400.5" font-family="Helvetica,sans-Serif" font-size="10.00">+</text>
<text xml:space="preserve" text-anchor="start" x="880.88" y="-400.5" font-family="Helvetica,sans-Serif" font-size="10.00">activeReaderCount()</text>
<text xml:space="preserve" text-anchor="start" x="870.88" y="-384.5" font-family="Helvetica,sans-Serif" font-size="10.00">+</text>
<text xml:space="preserve" text-anchor="start" x="880.88" y="-384.5" font-family="Helvetica,sans-Serif" font-size="10.00">totalWrites()</text>
<text xml:space="preserve" text-anchor="start" x="870.88" y="-368.5" font-family="Helvetica,sans-Serif" font-size="10.00">+</text>
<text xml:space="preserve" text-anchor="start" x="880.88" y="-368.5" font-family="Helvetica,sans-Serif" font-size="10.00">totalReads()</text>
<text xml:space="preserve" text-anchor="start" x="870.88" y="-352.5" font-family="Helvetica,sans-Serif" font-size="10.00">+</text>
<text xml:space="preserve" text-anchor="start" x="880.88" y="-352.5" font-family="Helvetica,sans-Serif" font-size="10.00">dropCount()</text>
<text xml:space="preserve" text-anchor="start" x="872.38" y="-336.5" font-family="Helvetica,sans-Serif" font-size="10.00">&#45;</text>
<text xml:space="preserve" text-anchor="start" x="880.88" y="-336.5" font-family="Helvetica,sans-Serif" font-size="10.00">trimConsumed()</text>
<polygon fill="#666666" stroke="#666666" points="866.88,-684 866.88,-684 977.88,-684 977.88,-684 866.88,-684"/>
<polygon fill="#666666" stroke="#666666" points="866.88,-572 866.88,-572 878.88,-572 878.88,-572 866.88,-572"/>
<polygon fill="#666666" stroke="#666666" points="878.88,-572 878.88,-572 977.88,-572 977.88,-572 878.88,-572"/>
<polygon fill="none" stroke="#666666" points="866.88,-330 866.88,-702 977.88,-702 977.88,-330 866.88,-330"/>
</a>
</g>
</g>
<!-- Node4&#45;&gt;Node13 -->
<g id="edge21_Node000013_Node000004" class="edge">
<title>Node4&#45;&gt;Node13</title>
<g id="a_edge21_Node000013_Node000004"><a xlink:title=" ">
<path fill="none" stroke="#63b8ff" d="M762.98,-1020.2C779.15,-949.02 825.6,-747.43 839.12,-720 843.64,-710.85 848.36,-710.89 853.38,-702 856.03,-697.3 858.61,-692.47 861.13,-687.56"/>
<polygon fill="none" stroke="#63b8ff" points="861.16,-687.51 860.24,-680.35 866.49,-676.76 867.41,-683.91 861.16,-687.51"/>
</a>
</g>
<text xml:space="preserve" text-anchor="start" x="842.12" y="-846.5" font-family="Helvetica,sans-Serif" font-size="10.00" fill="grey">&#45;mutex_</text>
</g>
<!-- Node5 -->
<g id="Node000005" class="node">
<title>Node5</title>
<g id="a_Node000005"><a xlink:title=" ">
<polygon fill="white" stroke="none" points="296,-1250 180.75,-1250 180.75,-1198 296,-1198 296,-1250"/>
<text xml:space="preserve" text-anchor="start" x="184.75" y="-1236.5" font-family="Helvetica,sans-Serif" font-size="10.00">std::deque&lt; std::string &gt;</text>
<text xml:space="preserve" text-anchor="start" x="236.88" y="-1220.5" font-family="Helvetica,sans-Serif" font-size="10.00"> </text>
<text xml:space="preserve" text-anchor="start" x="236.88" y="-1204.5" font-family="Helvetica,sans-Serif" font-size="10.00"> </text>
<polygon fill="#666666" stroke="#666666" points="180.75,-1232 180.75,-1232 296,-1232 296,-1232 180.75,-1232"/>
<polygon fill="#666666" stroke="#666666" points="180.75,-1216 180.75,-1216 296,-1216 296,-1216 180.75,-1216"/>
<polygon fill="none" stroke="#666666" points="180.75,-1198 180.75,-1250 296,-1250 296,-1198 180.75,-1198"/>
</a>
</g>
</g>
<!-- Node5&#45;&gt;Node1 -->
<g id="edge4_Node000001_Node000005" class="edge">
<title>Node5&#45;&gt;Node1</title>
<g id="a_edge4_Node000001_Node000005"><a xlink:title=" ">
<path fill="none" stroke="#63b8ff" d="M233.17,-1198.03C210.6,-1082.95 130.5,-595.78 319.38,-278 343.44,-237.51 382.86,-203.04 418.3,-177.69"/>
<polygon fill="none" stroke="#63b8ff" points="418.08,-177.84 420.71,-171.12 427.92,-170.96 425.29,-177.68 418.08,-177.84"/>
</a>
</g>
<text xml:space="preserve" text-anchor="start" x="206.51" y="-846.5" font-family="Helvetica,sans-Serif" font-size="10.00" fill="grey">&#45;command_queue_</text>
</g>
<!-- Node6 -->
<g id="Node000006" class="node">
<title>Node6</title>
<g id="a_Node000006"><a xlink:title=" ">
<polygon fill="white" stroke="none" points="544.12,-1372 492.62,-1372 492.62,-1320 544.12,-1320 544.12,-1372"/>
<text xml:space="preserve" text-anchor="start" x="496.62" y="-1358.5" font-family="Helvetica,sans-Serif" font-size="10.00">std::string</text>
<text xml:space="preserve" text-anchor="start" x="516.88" y="-1342.5" font-family="Helvetica,sans-Serif" font-size="10.00"> </text>
<text xml:space="preserve" text-anchor="start" x="516.88" y="-1326.5" font-family="Helvetica,sans-Serif" font-size="10.00"> </text>
<polygon fill="#666666" stroke="#666666" points="492.62,-1354 492.62,-1354 544.12,-1354 544.12,-1354 492.62,-1354"/>
<polygon fill="#666666" stroke="#666666" points="492.62,-1338 492.62,-1338 544.12,-1338 544.12,-1338 492.62,-1338"/>
<polygon fill="none" stroke="#666666" points="492.62,-1320 492.62,-1372 544.12,-1372 544.12,-1320 492.62,-1320"/>
</a>
</g>
</g>
<!-- Node6&#45;&gt;Node1 -->
<g id="edge22_Node000001_Node000006" class="edge">
<title>Node6&#45;&gt;Node1</title>
<g id="a_edge22_Node000001_Node000006"><a xlink:title=" ">
<path fill="none" stroke="#63b8ff" d="M492.65,-1340.68C441.82,-1330.51 333.38,-1300.03 333.38,-1225 333.38,-1225 333.38,-1225 333.38,-515 333.38,-416.41 379.27,-313.99 422.2,-239.74"/>
<polygon fill="none" stroke="#63b8ff" points="422.25,-239.66 421.84,-232.46 428.33,-229.31 428.74,-236.51 422.25,-239.66"/>
</a>
</g>
<text xml:space="preserve" text-anchor="start" x="336.38" y="-1042.5" font-family="Helvetica,sans-Serif" font-size="10.00" fill="grey">&#45;relay_tag_</text>
</g>
<!-- Node6&#45;&gt;Node5 -->
<g id="edge5_Node000005_Node000006" class="edge">
<title>Node6&#45;&gt;Node5</title>
<g id="a_edge5_Node000005_Node000006"><a xlink:title=" ">
<path fill="none" stroke="#63b8ff" d="M492.95,-1343.78C436.26,-1340.58 301.81,-1330.14 267.62,-1302 255.59,-1292.09 248.5,-1276.65 244.32,-1262.19"/>
<polygon fill="none" stroke="#63b8ff" points="244.38,-1262.44 239.09,-1257.54 241.57,-1250.77 246.86,-1255.67 244.38,-1262.44"/>
</a>
</g>
<text xml:space="preserve" text-anchor="start" x="270.62" y="-1281.5" font-family="Helvetica,sans-Serif" font-size="10.00" fill="grey">+elements</text>
</g>
<!-- Node8 -->
<g id="Node000008" class="node">
<title>Node8</title>
<g id="a_Node000008"><a xlink:href="class_telnet_client.html" target="_top" xlink:title="TCP/Telnet client for substation relay communication.">
<polygon fill="white" stroke="none" points="472.62,-980 348.12,-980 348.12,-720 472.62,-720 472.62,-980"/>
<text xml:space="preserve" text-anchor="start" x="384.5" y="-966.5" font-family="Helvetica,sans-Serif" font-size="10.00">TelnetClient</text>
<text xml:space="preserve" text-anchor="start" x="353.62" y="-950.5" font-family="Helvetica,sans-Serif" font-size="10.00">&#45;</text>
<text xml:space="preserve" text-anchor="start" x="362.12" y="-950.5" font-family="Helvetica,sans-Serif" font-size="10.00">io_</text>
<text xml:space="preserve" text-anchor="start" x="353.62" y="-934.5" font-family="Helvetica,sans-Serif" font-size="10.00">&#45;</text>
<text xml:space="preserve" text-anchor="start" x="362.12" y="-934.5" font-family="Helvetica,sans-Serif" font-size="10.00">socket_</text>
<text xml:space="preserve" text-anchor="start" x="353.62" y="-918.5" font-family="Helvetica,sans-Serif" font-size="10.00">&#45;</text>
<text xml:space="preserve" text-anchor="start" x="362.12" y="-918.5" font-family="Helvetica,sans-Serif" font-size="10.00">connected_</text>
<text xml:space="preserve" text-anchor="start" x="353.62" y="-902.5" font-family="Helvetica,sans-Serif" font-size="10.00">&#45;</text>
<text xml:space="preserve" text-anchor="start" x="362.12" y="-902.5" font-family="Helvetica,sans-Serif" font-size="10.00">last_io_ok_</text>
<text xml:space="preserve" text-anchor="start" x="353.62" y="-886.5" font-family="Helvetica,sans-Serif" font-size="10.00">&#45;</text>
<text xml:space="preserve" text-anchor="start" x="362.12" y="-886.5" font-family="Helvetica,sans-Serif" font-size="10.00">io_timeout_</text>
<text xml:space="preserve" text-anchor="start" x="352.12" y="-870.5" font-family="Helvetica,sans-Serif" font-size="10.00">+</text>
<text xml:space="preserve" text-anchor="start" x="362.12" y="-870.5" font-family="Helvetica,sans-Serif" font-size="10.00">TelnetClient()</text>
<text xml:space="preserve" text-anchor="start" x="352.12" y="-854.5" font-family="Helvetica,sans-Serif" font-size="10.00">+</text>
<text xml:space="preserve" text-anchor="start" x="362.12" y="-854.5" font-family="Helvetica,sans-Serif" font-size="10.00">connectCheck()</text>
<text xml:space="preserve" text-anchor="start" x="352.12" y="-838.5" font-family="Helvetica,sans-Serif" font-size="10.00">+</text>
<text xml:space="preserve" text-anchor="start" x="362.12" y="-838.5" font-family="Helvetica,sans-Serif" font-size="10.00">isConnected()</text>
<text xml:space="preserve" text-anchor="start" x="352.12" y="-822.5" font-family="Helvetica,sans-Serif" font-size="10.00">+</text>
<text xml:space="preserve" text-anchor="start" x="362.12" y="-822.5" font-family="Helvetica,sans-Serif" font-size="10.00">SendCmdReceiveData()</text>
<text xml:space="preserve" text-anchor="start" x="352.12" y="-806.5" font-family="Helvetica,sans-Serif" font-size="10.00">+</text>
<text xml:space="preserve" text-anchor="start" x="362.12" y="-806.5" font-family="Helvetica,sans-Serif" font-size="10.00">LoginLevel1Function()</text>
<text xml:space="preserve" text-anchor="start" x="352.12" y="-790.5" font-family="Helvetica,sans-Serif" font-size="10.00">+</text>
<text xml:space="preserve" text-anchor="start" x="362.12" y="-790.5" font-family="Helvetica,sans-Serif" font-size="10.00">getLastResponse()</text>
<text xml:space="preserve" text-anchor="start" x="352.12" y="-774.5" font-family="Helvetica,sans-Serif" font-size="10.00">+</text>
<text xml:space="preserve" text-anchor="start" x="362.12" y="-774.5" font-family="Helvetica,sans-Serif" font-size="10.00">getLastIoResult()</text>
<text xml:space="preserve" text-anchor="start" x="352.12" y="-758.5" font-family="Helvetica,sans-Serif" font-size="10.00">+</text>
<text xml:space="preserve" text-anchor="start" x="362.12" y="-758.5" font-family="Helvetica,sans-Serif" font-size="10.00">clearLastResponse()</text>
<text xml:space="preserve" text-anchor="start" x="353.62" y="-742.5" font-family="Helvetica,sans-Serif" font-size="10.00">&#45;</text>
<text xml:space="preserve" text-anchor="start" x="362.12" y="-742.5" font-family="Helvetica,sans-Serif" font-size="10.00">isResponseComplete()</text>
<text xml:space="preserve" text-anchor="start" x="353.62" y="-726.5" font-family="Helvetica,sans-Serif" font-size="10.00">&#45;</text>
<text xml:space="preserve" text-anchor="start" x="362.12" y="-726.5" font-family="Helvetica,sans-Serif" font-size="10.00">endsWithPrompt()</text>
<polygon fill="#666666" stroke="#666666" points="348.12,-962 348.12,-962 472.62,-962 472.62,-962 348.12,-962"/>
<polygon fill="#666666" stroke="#666666" points="348.12,-882 348.12,-882 360.12,-882 360.12,-882 348.12,-882"/>
<polygon fill="#666666" stroke="#666666" points="360.12,-882 360.12,-882 472.62,-882 472.62,-882 360.12,-882"/>
<polygon fill="none" stroke="#666666" points="348.12,-720 348.12,-980 472.62,-980 472.62,-720 348.12,-720"/>
</a>
</g>
</g>
<!-- Node6&#45;&gt;Node8 -->
<g id="edge8_Node000008_Node000006" class="edge">
<title>Node6&#45;&gt;Node8</title>
<g id="a_edge8_Node000008_Node000006"><a xlink:title=" ">
<path fill="none" stroke="#63b8ff" d="M492.83,-1327.25C470.76,-1310.28 440.3,-1282.5 426.38,-1250 407.13,-1205.07 404.23,-1088.57 405.51,-992.98"/>
<polygon fill="none" stroke="#63b8ff" points="405.51,-992.84 401.61,-986.78 405.7,-980.84 409.6,-986.9 405.51,-992.84"/>
</a>
</g>
<text xml:space="preserve" text-anchor="start" x="429.38" y="-1220.5" font-family="Helvetica,sans-Serif" font-size="10.00" fill="grey">&#45;last_response_</text>
</g>
<!-- Node9 -->
<g id="Node000009" class="node">
<title>Node9</title>
<g id="a_Node000009"><a xlink:href="struct_connection_config.html" target="_top" xlink:title="Connection configuration parameters.">
<polygon fill="white" stroke="none" points="543.38,-1180 457.38,-1180 457.38,-1112 543.38,-1112 543.38,-1180"/>
<text xml:space="preserve" text-anchor="start" x="461.38" y="-1166.5" font-family="Helvetica,sans-Serif" font-size="10.00">ConnectionConfig</text>
<text xml:space="preserve" text-anchor="start" x="470.31" y="-1150.5" font-family="Helvetica,sans-Serif" font-size="10.00">+</text>
<text xml:space="preserve" text-anchor="start" x="489.25" y="-1150.5" font-family="Helvetica,sans-Serif" font-size="10.00">port</text>
<text xml:space="preserve" text-anchor="start" x="470.31" y="-1134.5" font-family="Helvetica,sans-Serif" font-size="10.00">+</text>
<text xml:space="preserve" text-anchor="start" x="489.25" y="-1134.5" font-family="Helvetica,sans-Serif" font-size="10.00">timeout</text>
<text xml:space="preserve" text-anchor="start" x="498.88" y="-1118.5" font-family="Helvetica,sans-Serif" font-size="10.00"> </text>
<polygon fill="#666666" stroke="#666666" points="457.38,-1162 457.38,-1162 543.38,-1162 543.38,-1162 457.38,-1162"/>
<polygon fill="#666666" stroke="#666666" points="457.38,-1130 457.38,-1130 487.25,-1130 487.25,-1130 457.38,-1130"/>
<polygon fill="#666666" stroke="#666666" points="487.25,-1130 487.25,-1130 543.38,-1130 543.38,-1130 487.25,-1130"/>
<polygon fill="none" stroke="#666666" points="457.38,-1112 457.38,-1180 543.38,-1180 543.38,-1112 457.38,-1112"/>
</a>
</g>
</g>
<!-- Node6&#45;&gt;Node9 -->
<g id="edge10_Node000009_Node000006" class="edge">
<title>Node6&#45;&gt;Node9</title>
<g id="a_edge10_Node000009_Node000006"><a xlink:title=" ">
<path fill="none" stroke="#63b8ff" d="M516.13,-1320.32C513.24,-1288.47 508.14,-1232.43 504.53,-1192.7"/>
<polygon fill="none" stroke="#63b8ff" points="504.53,-1192.76 500.01,-1187.14 503.45,-1180.81 507.98,-1186.42 504.53,-1192.76"/>
</a>
</g>
<text xml:space="preserve" text-anchor="start" x="517.16" y="-1281.5" font-family="Helvetica,sans-Serif" font-size="10.00" fill="grey">+host</text>
</g>
<!-- Node10 -->
<g id="Node000010" class="node">
<title>Node10</title>
<g id="a_Node000010"><a xlink:href="struct_login_config.html" target="_top" xlink:title="Authentication credentials configuration.">
<polygon fill="white" stroke="none" points="595.25,-876 535.5,-876 535.5,-824 595.25,-824 595.25,-876"/>
<text xml:space="preserve" text-anchor="start" x="539.5" y="-862.5" font-family="Helvetica,sans-Serif" font-size="10.00">LoginConfig</text>
<text xml:space="preserve" text-anchor="start" x="563.88" y="-846.5" font-family="Helvetica,sans-Serif" font-size="10.00"> </text>
<text xml:space="preserve" text-anchor="start" x="563.88" y="-830.5" font-family="Helvetica,sans-Serif" font-size="10.00"> </text>
<polygon fill="#666666" stroke="#666666" points="535.5,-858 535.5,-858 595.25,-858 595.25,-858 535.5,-858"/>
<polygon fill="#666666" stroke="#666666" points="535.5,-842 535.5,-842 595.25,-842 595.25,-842 535.5,-842"/>
<polygon fill="none" stroke="#666666" points="535.5,-824 535.5,-876 595.25,-876 595.25,-824 535.5,-824"/>
</a>
</g>
</g>
<!-- Node6&#45;&gt;Node10 -->
<g id="edge12_Node000010_Node000006" class="edge">
<title>Node6&#45;&gt;Node10</title>
<g id="a_edge12_Node000010_Node000006"><a xlink:title=" ">
<path fill="none" stroke="#63b8ff" d="M540.07,-1320.01C543.84,-1314.41 547.23,-1308.27 549.38,-1302 562.57,-1263.47 564.89,-989.97 565.29,-888.64"/>
<polygon fill="none" stroke="#63b8ff" points="565.29,-888.7 561.31,-882.69 565.33,-876.7 569.31,-882.71 565.29,-888.7"/>
</a>
</g>
<text xml:space="preserve" text-anchor="start" x="562.33" y="-1228.5" font-family="Helvetica,sans-Serif" font-size="10.00" fill="grey">+l1_pass</text>
<text xml:space="preserve" text-anchor="start" x="562.33" y="-1212.5" font-family="Helvetica,sans-Serif" font-size="10.00" fill="grey">+l1_user</text>
</g>
<!-- Node12 -->
<g id="Node000012" class="node">
<title>Node12</title>
<g id="a_Node000012"><a xlink:href="struct_cmd_response_holder.html" target="_top" xlink:title="Shared holder for the last command FSM response.">
<polygon fill="white" stroke="none" points="685.25,-1172 583.5,-1172 583.5,-1120 685.25,-1120 685.25,-1172"/>
<text xml:space="preserve" text-anchor="start" x="587.5" y="-1158.5" font-family="Helvetica,sans-Serif" font-size="10.00">CmdResponseHolder</text>
<text xml:space="preserve" text-anchor="start" x="599.25" y="-1142.5" font-family="Helvetica,sans-Serif" font-size="10.00">+</text>
<text xml:space="preserve" text-anchor="start" x="621" y="-1142.5" font-family="Helvetica,sans-Serif" font-size="10.00">success</text>
<text xml:space="preserve" text-anchor="start" x="632.88" y="-1126.5" font-family="Helvetica,sans-Serif" font-size="10.00"> </text>
<polygon fill="#666666" stroke="#666666" points="583.5,-1154 583.5,-1154 685.25,-1154 685.25,-1154 583.5,-1154"/>
<polygon fill="#666666" stroke="#666666" points="583.5,-1138 583.5,-1138 619,-1138 619,-1138 583.5,-1138"/>
<polygon fill="#666666" stroke="#666666" points="619,-1138 619,-1138 685.25,-1138 685.25,-1138 619,-1138"/>
<polygon fill="none" stroke="#666666" points="583.5,-1120 583.5,-1172 685.25,-1172 685.25,-1120 583.5,-1120"/>
</a>
</g>
</g>
<!-- Node6&#45;&gt;Node12 -->
<g id="edge15_Node000012_Node000006" class="edge">
<title>Node6&#45;&gt;Node12</title>
<g id="a_edge15_Node000012_Node000006"><a xlink:title=" ">
<path fill="none" stroke="#63b8ff" d="M544.12,-1329.4C555.34,-1321.91 568.22,-1312.32 578.38,-1302 598.09,-1281.96 603.46,-1275.9 614.38,-1250 623.09,-1229.3 628.05,-1204.66 630.85,-1184.66"/>
<polygon fill="none" stroke="#63b8ff" points="630.84,-1184.78 627.61,-1178.33 632.32,-1172.87 635.55,-1179.32 630.84,-1184.78"/>
</a>
</g>
<text xml:space="preserve" text-anchor="start" x="608.91" y="-1281.5" font-family="Helvetica,sans-Serif" font-size="10.00" fill="grey">+response</text>
</g>
<!-- Node15 -->
<g id="Node000015" class="node">
<title>Node15</title>
<g id="a_Node000015"><a xlink:href="struct_raw_data_message.html" target="_top" xlink:title="Container for raw Telnet command/response pair.">
<polygon fill="white" stroke="none" points="881.88,-1250 792.88,-1250 792.88,-1198 881.88,-1198 881.88,-1250"/>
<text xml:space="preserve" text-anchor="start" x="796.88" y="-1236.5" font-family="Helvetica,sans-Serif" font-size="10.00">RawDataMessage</text>
<text xml:space="preserve" text-anchor="start" x="835.88" y="-1220.5" font-family="Helvetica,sans-Serif" font-size="10.00"> </text>
<text xml:space="preserve" text-anchor="start" x="835.88" y="-1204.5" font-family="Helvetica,sans-Serif" font-size="10.00"> </text>
<polygon fill="#666666" stroke="#666666" points="792.88,-1232 792.88,-1232 881.88,-1232 881.88,-1232 792.88,-1232"/>
<polygon fill="#666666" stroke="#666666" points="792.88,-1216 792.88,-1216 881.88,-1216 881.88,-1216 792.88,-1216"/>
<polygon fill="none" stroke="#666666" points="792.88,-1198 792.88,-1250 881.88,-1250 881.88,-1198 792.88,-1198"/>
</a>
</g>
</g>
<!-- Node6&#45;&gt;Node15 -->
<g id="edge19_Node000015_Node000006" class="edge">
<title>Node6&#45;&gt;Node15</title>
<g id="a_edge19_Node000015_Node000006"><a xlink:title=" ">
<path fill="none" stroke="#63b8ff" d="M544.06,-1340.84C578.89,-1334.73 642.7,-1321.85 694.38,-1302 726.27,-1289.75 760.02,-1271.84 786.71,-1256.38"/>
<polygon fill="none" stroke="#63b8ff" points="786.57,-1256.46 789.72,-1249.97 796.92,-1250.38 793.77,-1256.87 786.57,-1256.46"/>
</a>
</g>
<text xml:space="preserve" text-anchor="start" x="765.67" y="-1289.5" font-family="Helvetica,sans-Serif" font-size="10.00" fill="grey">+command</text>
<text xml:space="preserve" text-anchor="start" x="765.67" y="-1273.5" font-family="Helvetica,sans-Serif" font-size="10.00" fill="grey">+response</text>
</g>
<!-- Node7 -->
<g id="Node000007" class="node">
<title>Node7</title>
<g id="a_Node000007"><a xlink:title=" ">
<polygon fill="white" stroke="none" points="561.38,-1473 475.38,-1473 475.38,-1409 561.38,-1409 561.38,-1473"/>
<text xml:space="preserve" text-anchor="start" x="479.38" y="-1459.5" font-family="Helvetica,sans-Serif" font-size="10.00">std::basic_string&lt;</text>
<text xml:space="preserve" text-anchor="start" x="501.88" y="-1447.5" font-family="Helvetica,sans-Serif" font-size="10.00"> Char &gt;</text>
<text xml:space="preserve" text-anchor="start" x="516.88" y="-1431.5" font-family="Helvetica,sans-Serif" font-size="10.00"> </text>
<text xml:space="preserve" text-anchor="start" x="516.88" y="-1415.5" font-family="Helvetica,sans-Serif" font-size="10.00"> </text>
<polygon fill="#666666" stroke="#666666" points="475.38,-1443 475.38,-1443 561.38,-1443 561.38,-1443 475.38,-1443"/>
<polygon fill="#666666" stroke="#666666" points="475.38,-1427 475.38,-1427 561.38,-1427 561.38,-1427 475.38,-1427"/>
<polygon fill="none" stroke="#666666" points="475.38,-1409 475.38,-1473 561.38,-1473 561.38,-1409 475.38,-1409"/>
</a>
</g>
</g>
<!-- Node7&#45;&gt;Node6 -->
<g id="edge6_Node000006_Node000007" class="edge">
<title>Node7&#45;&gt;Node6</title>
<g id="a_edge6_Node000006_Node000007"><a xlink:title=" ">
<path fill="none" stroke="#63b8ff" d="M518.38,-1397.69C518.38,-1388.89 518.38,-1379.89 518.38,-1371.96"/>
<polygon fill="none" stroke="#63b8ff" points="514.88,-1397.52 518.38,-1407.52 521.88,-1397.52 514.88,-1397.52"/>
</a>
</g>
</g>
<!-- Node8&#45;&gt;Node1 -->
<g id="edge7_Node000001_Node000008" class="edge">
<title>Node8&#45;&gt;Node1</title>
<g id="a_edge7_Node000001_Node000008"><a xlink:title=" ">
<path fill="none" stroke="#63b8ff" d="M411.95,-720.01C414.86,-614.54 422.75,-461.84 443.88,-330 446.88,-311.21 450.88,-291.62 455.31,-272.37"/>
<polygon fill="none" stroke="#63b8ff" points="455.31,-272.33 452.8,-265.58 458.07,-260.65 460.59,-267.41 455.31,-272.33"/>
</a>
</g>
<text xml:space="preserve" text-anchor="start" x="446.88" y="-512.5" font-family="Helvetica,sans-Serif" font-size="10.00" fill="grey">&#45;client_</text>
</g>
<!-- Node9&#45;&gt;Node1 -->
<g id="edge9_Node000001_Node000009" class="edge">
<title>Node9&#45;&gt;Node1</title>
<g id="a_edge9_Node000001_Node000009"><a xlink:title=" ">
<path fill="none" stroke="#63b8ff" d="M497.99,-1112.15C495.7,-1078.87 492.41,-1025.89 491.12,-980 484.16,-731.21 488.23,-441.27 491.81,-272.69"/>
<polygon fill="none" stroke="#63b8ff" points="491.81,-272.66 487.94,-266.57 492.07,-260.66 495.94,-266.75 491.81,-272.66"/>
</a>
</g>
<text xml:space="preserve" text-anchor="start" x="494.12" y="-846.5" font-family="Helvetica,sans-Serif" font-size="10.00" fill="grey">&#45;conn_</text>
</g>
<!-- Node10&#45;&gt;Node1 -->
<g id="edge11_Node000001_Node000010" class="edge">
<title>Node10&#45;&gt;Node1</title>
<g id="a_edge11_Node000001_Node000010"><a xlink:title=" ">
<path fill="none" stroke="#63b8ff" d="M562.97,-824.28C554.6,-738.48 526.39,-449.08 509.17,-272.46"/>
<polygon fill="none" stroke="#63b8ff" points="509.17,-272.52 504.61,-266.93 508.01,-260.57 512.57,-266.16 509.17,-272.52"/>
</a>
</g>
<text xml:space="preserve" text-anchor="start" x="553.25" y="-512.5" font-family="Helvetica,sans-Serif" font-size="10.00" fill="grey">&#45;creds_</text>
</g>
<!-- Node11 -->
<g id="Node000011" class="node">
<title>Node11</title>
<g id="a_Node000011"><a xlink:href="struct_retry_state.html" target="_top" xlink:title="Retry state management.">
<polygon fill="white" stroke="none" points="721.5,-574 635.25,-574 635.25,-458 721.5,-458 721.5,-574"/>
<text xml:space="preserve" text-anchor="start" x="654.75" y="-560.5" font-family="Helvetica,sans-Serif" font-size="10.00">RetryState</text>
<text xml:space="preserve" text-anchor="start" x="639.25" y="-544.5" font-family="Helvetica,sans-Serif" font-size="10.00">+</text>
<text xml:space="preserve" text-anchor="start" x="649.25" y="-544.5" font-family="Helvetica,sans-Serif" font-size="10.00">max_retries</text>
<text xml:space="preserve" text-anchor="start" x="639.25" y="-528.5" font-family="Helvetica,sans-Serif" font-size="10.00">+</text>
<text xml:space="preserve" text-anchor="start" x="649.25" y="-528.5" font-family="Helvetica,sans-Serif" font-size="10.00">current_attempt</text>
<text xml:space="preserve" text-anchor="start" x="639.25" y="-512.5" font-family="Helvetica,sans-Serif" font-size="10.00">+</text>
<text xml:space="preserve" text-anchor="start" x="649.25" y="-512.5" font-family="Helvetica,sans-Serif" font-size="10.00">retry_delay</text>
<text xml:space="preserve" text-anchor="start" x="639.25" y="-496.5" font-family="Helvetica,sans-Serif" font-size="10.00">+</text>
<text xml:space="preserve" text-anchor="start" x="649.25" y="-496.5" font-family="Helvetica,sans-Serif" font-size="10.00">canRetry()</text>
<text xml:space="preserve" text-anchor="start" x="639.25" y="-480.5" font-family="Helvetica,sans-Serif" font-size="10.00">+</text>
<text xml:space="preserve" text-anchor="start" x="649.25" y="-480.5" font-family="Helvetica,sans-Serif" font-size="10.00">reset()</text>
<text xml:space="preserve" text-anchor="start" x="639.25" y="-464.5" font-family="Helvetica,sans-Serif" font-size="10.00">+</text>
<text xml:space="preserve" text-anchor="start" x="649.25" y="-464.5" font-family="Helvetica,sans-Serif" font-size="10.00">increment()</text>
<polygon fill="#666666" stroke="#666666" points="635.25,-556 635.25,-556 721.5,-556 721.5,-556 635.25,-556"/>
<polygon fill="#666666" stroke="#666666" points="635.25,-508 635.25,-508 647.25,-508 647.25,-508 635.25,-508"/>
<polygon fill="#666666" stroke="#666666" points="647.25,-508 647.25,-508 721.5,-508 721.5,-508 647.25,-508"/>
<polygon fill="none" stroke="#666666" points="635.25,-458 635.25,-574 721.5,-574 721.5,-458 635.25,-458"/>
</a>
</g>
</g>
<!-- Node11&#45;&gt;Node1 -->
<g id="edge13_Node000001_Node000011" class="edge">
<title>Node11&#45;&gt;Node1</title>
<g id="a_edge13_Node000001_Node000011"><a xlink:title=" ">
<path fill="none" stroke="#63b8ff" d="M672.36,-458.29C665.34,-408.57 650.74,-335.47 621.38,-278 608.12,-252.06 589.4,-226.83 570.43,-204.81"/>
<polygon fill="none" stroke="#63b8ff" points="570.54,-204.93 563.57,-203.07 562.6,-195.93 569.57,-197.78 570.54,-204.93"/>
</a>
</g>
<text xml:space="preserve" text-anchor="start" x="637.95" y="-291.5" font-family="Helvetica,sans-Serif" font-size="10.00" fill="grey">&#45;retry_</text>
</g>
<!-- Node12&#45;&gt;Node1 -->
<g id="edge14_Node000001_Node000012" class="edge">
<title>Node12&#45;&gt;Node1</title>
<g id="a_edge14_Node000001_Node000012"><a xlink:title=" ">
<path fill="none" stroke="#63b8ff" d="M633.69,-1120.27C630.07,-992.29 612.53,-408.11 592.38,-330 586.34,-306.63 577.43,-282.75 567.42,-260.01"/>
<polygon fill="none" stroke="#63b8ff" points="567.41,-259.99 561.29,-256.17 562.47,-249.06 568.58,-252.88 567.41,-259.99"/>
</a>
</g>
<text xml:space="preserve" text-anchor="start" x="632.3" y="-846.5" font-family="Helvetica,sans-Serif" font-size="10.00" fill="grey">&#45;cmdResponse_</text>
</g>
<!-- Node13&#45;&gt;Node1 -->
<g id="edge16_Node000001_Node000013" class="edge">
<title>Node13&#45;&gt;Node1</title>
<g id="a_edge16_Node000001_Node000013"><a xlink:title=" ">
<path fill="none" stroke="#63b8ff" d="M867,-348.99C862.77,-342.36 858.23,-335.99 853.38,-330 780.42,-240.03 655.37,-183.99 574.05,-155.12"/>
<polygon fill="none" stroke="#63b8ff" points="574.07,-155.13 567.09,-156.93 562.74,-151.19 569.72,-149.38 574.07,-155.13"/>
</a>
</g>
<text xml:space="preserve" text-anchor="start" x="834.43" y="-291.5" font-family="Helvetica,sans-Serif" font-size="10.00" fill="grey">&#45;rawBuffer_</text>
</g>
<!-- Node14 -->
<g id="Node000014" class="node">
<title>Node14</title>
<g id="a_Node000014"><a xlink:title=" ">
<polygon fill="white" stroke="none" points="955.75,-1072 803,-1072 803,-1020 955.75,-1020 955.75,-1072"/>
<text xml:space="preserve" text-anchor="start" x="807" y="-1058.5" font-family="Helvetica,sans-Serif" font-size="10.00">std::deque&lt; RawDataMessage &gt;</text>
<text xml:space="preserve" text-anchor="start" x="877.88" y="-1042.5" font-family="Helvetica,sans-Serif" font-size="10.00"> </text>
<text xml:space="preserve" text-anchor="start" x="877.88" y="-1026.5" font-family="Helvetica,sans-Serif" font-size="10.00"> </text>
<polygon fill="#666666" stroke="#666666" points="803,-1054 803,-1054 955.75,-1054 955.75,-1054 803,-1054"/>
<polygon fill="#666666" stroke="#666666" points="803,-1038 803,-1038 955.75,-1038 955.75,-1038 803,-1038"/>
<polygon fill="none" stroke="#666666" points="803,-1020 803,-1072 955.75,-1072 955.75,-1020 803,-1020"/>
</a>
</g>
</g>
<!-- Node14&#45;&gt;Node13 -->
<g id="edge17_Node000013_Node000014" class="edge">
<title>Node14&#45;&gt;Node13</title>
<g id="a_edge17_Node000013_Node000014"><a xlink:title=" ">
<path fill="none" stroke="#63b8ff" d="M881.39,-1020.24C885.83,-965.76 896.8,-831.06 906.27,-714.72"/>
<polygon fill="none" stroke="#63b8ff" points="906.28,-714.57 902.78,-708.27 907.26,-702.61 910.76,-708.92 906.28,-714.57"/>
</a>
</g>
<text xml:space="preserve" text-anchor="start" x="907.73" y="-846.5" font-family="Helvetica,sans-Serif" font-size="10.00" fill="grey">&#45;queue_</text>
</g>
<!-- Node15&#45;&gt;Node14 -->
<g id="edge18_Node000014_Node000015" class="edge">
<title>Node15&#45;&gt;Node14</title>
<g id="a_edge18_Node000014_Node000015"><a xlink:title=" ">
<path fill="none" stroke="#63b8ff" d="M843.3,-1198.16C850.4,-1168.41 862.35,-1118.32 870.54,-1084.02"/>
<polygon fill="none" stroke="#63b8ff" points="870.48,-1084.27 867.98,-1077.5 873.27,-1072.59 875.77,-1079.36 870.48,-1084.27"/>
</a>
</g>
<text xml:space="preserve" text-anchor="start" x="866.37" y="-1142.5" font-family="Helvetica,sans-Serif" font-size="10.00" fill="grey">+elements</text>
</g>
<!-- Node16 -->
<g id="Node000016" class="node">
<title>Node16</title>
<g id="a_Node000016"><a xlink:href="struct_raw_data_ring_buffer_1_1_reader_slot.html" target="_top" xlink:title="Per&#45;reader state.">
<polygon fill="white" stroke="none" points="1074.88,-1094 973.88,-1094 973.88,-998 1074.88,-998 1074.88,-1094"/>
<text xml:space="preserve" text-anchor="start" x="977.88" y="-1080.5" font-family="Helvetica,sans-Serif" font-size="10.00">RawDataRingBuffer::</text>
<text xml:space="preserve" text-anchor="start" x="1000" y="-1068.5" font-family="Helvetica,sans-Serif" font-size="10.00">ReaderSlot</text>
<text xml:space="preserve" text-anchor="start" x="986.62" y="-1052.5" font-family="Helvetica,sans-Serif" font-size="10.00">+</text>
<text xml:space="preserve" text-anchor="start" x="1005.38" y="-1052.5" font-family="Helvetica,sans-Serif" font-size="10.00">active</text>
<text xml:space="preserve" text-anchor="start" x="986.62" y="-1036.5" font-family="Helvetica,sans-Serif" font-size="10.00">+</text>
<text xml:space="preserve" text-anchor="start" x="1005.38" y="-1036.5" font-family="Helvetica,sans-Serif" font-size="10.00">read_index</text>
<text xml:space="preserve" text-anchor="start" x="986.62" y="-1020.5" font-family="Helvetica,sans-Serif" font-size="10.00">+</text>
<text xml:space="preserve" text-anchor="start" x="1005.38" y="-1020.5" font-family="Helvetica,sans-Serif" font-size="10.00">total_reads</text>
<text xml:space="preserve" text-anchor="start" x="1022.88" y="-1004.5" font-family="Helvetica,sans-Serif" font-size="10.00"> </text>
<polygon fill="#666666" stroke="#666666" points="973.88,-1064 973.88,-1064 1074.88,-1064 1074.88,-1064 973.88,-1064"/>
<polygon fill="#666666" stroke="#666666" points="973.88,-1016 973.88,-1016 1003.38,-1016 1003.38,-1016 973.88,-1016"/>
<polygon fill="#666666" stroke="#666666" points="1003.38,-1016 1003.38,-1016 1074.88,-1016 1074.88,-1016 1003.38,-1016"/>
<polygon fill="none" stroke="#666666" points="973.88,-998 973.88,-1094 1074.88,-1094 1074.88,-998 973.88,-998"/>
</a>
</g>
</g>
<!-- Node16&#45;&gt;Node13 -->
<g id="edge20_Node000013_Node000016" class="edge">
<title>Node16&#45;&gt;Node13</title>
<g id="a_edge20_Node000013_Node000016"><a xlink:title=" ">
<path fill="none" stroke="#63b8ff" d="M1015.32,-998.14C1003.06,-934.67 980.42,-817.45 960.55,-714.61"/>
<polygon fill="none" stroke="#63b8ff" points="960.53,-714.49 955.46,-709.35 958.25,-702.7 963.32,-707.84 960.53,-714.49"/>
</a>
</g>
<text xml:space="preserve" text-anchor="start" x="1014.74" y="-846.5" font-family="Helvetica,sans-Serif" font-size="10.00" fill="grey">&#45;readers_</text>
</g>
</g>
</svg>
