<?xml version="1.0" encoding="UTF-8" standalone="no"?>
<!DOCTYPE svg PUBLIC "-//W3C//DTD SVG 1.1//EN"
 "http://www.w3.org/Graphics/SVG/1.1/DTD/svg11.dtd">
<!-- Generated by graphviz version 14.1.2 (20260124.0452)
 -->
<!-- Title: SERDatabase::getAllRecords Pages: 1 -->
<svg width="502pt" height="47pt"
 viewBox="0.00 0.00 502.00 47.00" xmlns="http://www.w3.org/2000/svg" xmlns:xlink="http://www.w3.org/1999/xlink">
<g id="graph0" class="graph" transform="scale(1 1) rotate(0) translate(4 43)">
<title>SERDatabase::getAllRecords</title>
<!-- Node1 -->
<g id="Node000001" class="node">
<title>Node1</title>
<g id="a_Node000001"><a xlink:title="Retrieve all SER records ordered by timestamp (newest first).">
<polygon fill="#999999" stroke="#666666" points="494.25,-20 347.75,-20 347.75,0 494.25,0 494.25,-20"/>
<text xml:space="preserve" text-anchor="middle" x="421" y="-6.5" font-family="Helvetica,sans-Serif" font-size="10.00">SERDatabase::getAllRecords</text>
</a>
</g>
</g>
<!-- Node2 -->
<g id="Node000002" class="node">
<title>Node2</title>
<g id="a_Node000002"><a xlink:href="class_s_e_r_database.html#a798696a9c47ba55f7a3473afff3efe9f" target="_top" xlink:title="Export all records to a JSON file for UI consumption.">
<polygon fill="white" stroke="#666666" points="311.75,-39 162.25,-39 162.25,-19 311.75,-19 311.75,-39"/>
<text xml:space="preserve" text-anchor="middle" x="237" y="-25.5" font-family="Helvetica,sans-Serif" font-size="10.00">SERDatabase::exportToJSON</text>
</a>
</g>
</g>
<!-- Node1&#45;&gt;Node2 -->
<g id="edge1_Node000001_Node000002" class="edge">
<title>Node1&#45;&gt;Node2</title>
<g id="a_edge1_Node000001_Node000002"><a xlink:title=" ">
<path fill="none" stroke="#63b8ff" d="M336.05,-18.76C328.05,-19.6 319.98,-20.44 312.09,-21.27"/>
<polygon fill="#63b8ff" stroke="#63b8ff" points="336.2,-22.27 345.78,-17.75 335.47,-15.31 336.2,-22.27"/>
</a>
</g>
</g>
<!-- Node3 -->
<g id="Node000003" class="node">
<title>Node3</title>
<g id="a_Node000003"><a xlink:href="class_s_e_r_database.html#ab9a60e734536bd80a75f9e8bacf86882" target="_top" xlink:title=" ">
<polygon fill="white" stroke="#666666" points="126.25,-20 0,-20 0,0 126.25,0 126.25,-20"/>
<text xml:space="preserve" text-anchor="middle" x="63.12" y="-6.5" font-family="Helvetica,sans-Serif" font-size="10.00">SERDatabase::operator=</text>
</a>
</g>
</g>
<!-- Node1&#45;&gt;Node3 -->
<g id="edge3_Node000001_Node000003" class="edge">
<title>Node1&#45;&gt;Node3</title>
<g id="a_edge3_Node000001_Node000003"><a xlink:title=" ">
<path fill="none" stroke="#63b8ff" d="M336.25,-10C272.05,-10 184.87,-10 126.66,-10"/>
<polygon fill="#63b8ff" stroke="#63b8ff" points="336.04,-13.5 346.04,-10 336.04,-6.5 336.04,-13.5"/>
</a>
</g>
</g>
<!-- Node2&#45;&gt;Node3 -->
<g id="edge2_Node000002_Node000003" class="edge">
<title>Node2&#45;&gt;Node3</title>
<g id="a_edge2_Node000002_Node000003"><a xlink:title=" ">
<path fill="none" stroke="#63b8ff" d="M150.68,-19.57C142.57,-18.67 134.45,-17.77 126.62,-16.91"/>
<polygon fill="#63b8ff" stroke="#63b8ff" points="150.28,-23.05 160.61,-20.67 151.05,-16.09 150.28,-23.05"/>
</a>
</g>
</g>
</g>
</svg>
