<?xml version="1.0" encoding="UTF-8" standalone="no"?>
<!DOCTYPE svg PUBLIC "-//W3C//DTD SVG 1.1//EN"
 "http://www.w3.org/Graphics/SVG/1.1/DTD/svg11.dtd">
<!-- Generated by graphviz version 14.1.2 (20260124.0452)
 -->
<!-- Title: SharedSerReader::start Pages: 1 -->
<!--zoomable 116 -->

<svg id="main" version="1.1" xmlns="http://www.w3.org/2000/svg" xmlns:xlink="http://www.w3.org/1999/xlink" xml:space="preserve" onload="init(evt)">

<style type="text/css"><![CDATA[
.node, .edge {opacity: 0.7;}
.node.selected, .edge.selected {opacity: 1;}
.edge:hover path { stroke: red; }
.edge:hover polygon { stroke: red; fill: red; }
]]></style>

<defs>
  <circle id="rim" cx="0" cy="0" r="7"/>
  <circle id="rim2" cx="0" cy="0" r="3.5"/>
  <g id="zoomPlus">
    <use xlink:href="#rim" fill="#404040"><set attributeName="fill" to="#808080" begin="zoomplus.mouseover" end="zoomplus.mouseout"/></use>
    <path d="M-4,0h8M0,-4v8" fill="none" stroke="white" stroke-width="1.5" pointer-events="none"/>
  </g>
  <g id="zoomMin">
    <use xlink:href="#rim" fill="#404040"><set attributeName="fill" to="#808080" begin="zoomminus.mouseover" end="zoomminus.mouseout"/></use>
    <path d="M-4,0h8" fill="none" stroke="white" stroke-width="1.5" pointer-events="none"/>
  </g>
  <g id="arrowUp" transform="translate(30 24)">
    <use xlink:href="#rim"/>
    <path pointer-events="none" fill="none" stroke="white" stroke-width="1.5" d="M0,-3.0v7 M-2.5,-0.5L0,-3.0L2.5,-0.5"/>
  </g>
  <g id="arrowRight" transform="rotate(90) translate(36 -43)">
    <use xlink:href="#rim"/>
    <path pointer-events="none" fill="none" stroke="white" stroke-width="1.5" d="M0,-3.0v7 M-2.5,-0.5L0,-3.0L2.5,-0.5"/>
  </g>
  <g id="arrowDown" transform="rotate(180) translate(-30 -48)">
    <use xlink:href="#rim"/>
    <path pointer-events="none" fill="none" stroke="white" stroke-width="1.5" d="M0,-3.0v7 M-2.5,-0.5L0,-3.0L2.5,-0.5"/>
  </g>
  <g id="arrowLeft" transform="rotate(270) translate(-36 17)">
    <use xlink:href="#rim"/>
    <path pointer-events="none" fill="none" stroke="white" stroke-width="1.5" d="M0,-3.0v7 M-2.5,-0.5L0,-3.0L2.5,-0.5"/>
  </g>
  <g id="resetDef">
    <use xlink:href="#rim2" fill="#404040"><set attributeName="fill" to="#808080" begin="reset.mouseover" end="reset.mouseout"/></use>
  </g>
</defs>
<script type="application/ecmascript">
var viewWidth = 729;
var viewHeight = 116;
var sectionId = 'dynsection-3';
</script>
<script type="application/ecmascript" xlink:href="svg.min.js"/>
<svg id="graph" class="graph">
<g id="viewport">
<title>SharedSerReader::start</title>
<!-- Node1 -->
<g id="Node000001" class="node">
<title>Node1</title>
<g id="a_Node000001"><a xlink:title="Starts the worker thread.">
<polygon fill="#999999" stroke="#666666" points="118.75,-58 0,-58 0,-38 118.75,-38 118.75,-58"/>
<text xml:space="preserve" text-anchor="middle" x="59.38" y="-44.5" font-family="Helvetica,sans-Serif" font-size="10.00">SharedSerReader::start</text>
</a>
</g>
</g>
<!-- Node2 -->
<g id="Node000002" class="node">
<title>Node2</title>
<g id="a_Node000002"><a xlink:href="class_shared_ser_reader.html#a9ca0e190a57fd3c195a860076ac729c7" target="_top" xlink:title="Main worker thread loop.">
<polygon fill="white" stroke="#666666" points="288.5,-58 154.75,-58 154.75,-38 288.5,-38 288.5,-58"/>
<text xml:space="preserve" text-anchor="middle" x="221.62" y="-44.5" font-family="Helvetica,sans-Serif" font-size="10.00">SharedSerReader::runLoop</text>
</a>
</g>
</g>
<!-- Node1&#45;&gt;Node2 -->
<g id="edge1_Node000001_Node000002" class="edge">
<title>Node1&#45;&gt;Node2</title>
<g id="a_edge1_Node000001_Node000002"><a xlink:title=" ">
<path fill="none" stroke="#63b8ff" d="M119.14,-48C126.91,-48 134.97,-48 143,-48"/>
<polygon fill="#63b8ff" stroke="#63b8ff" points="142.77,-51.5 152.77,-48 142.77,-44.5 142.77,-51.5"/>
</a>
</g>
</g>
<!-- Node3 -->
<g id="Node000003" class="node">
<title>Node3</title>
<g id="a_Node000003"><a xlink:href="namespaceasn__tlv.html#af09e11865c2150ad1989d730491dd729" target="_top" xlink:title="Decode ASN.1 BER/TLV payload to SER records.">
<polygon fill="white" stroke="#666666" points="461.25,-108 324.5,-108 324.5,-76 461.25,-76 461.25,-108"/>
<text xml:space="preserve" text-anchor="start" x="332.5" y="-94.5" font-family="Helvetica,sans-Serif" font-size="10.00">asn_tlv::decodeSerRecords</text>
<text xml:space="preserve" text-anchor="middle" x="392.88" y="-82.5" font-family="Helvetica,sans-Serif" font-size="10.00">FromTlv</text>
</a>
</g>
</g>
<!-- Node2&#45;&gt;Node3 -->
<g id="edge2_Node000002_Node000003" class="edge">
<title>Node2&#45;&gt;Node3</title>
<g id="a_edge2_Node000002_Node000003"><a xlink:title=" ">
<path fill="none" stroke="#63b8ff" d="M262.73,-58.43C279.16,-62.7 298.71,-67.78 317.57,-72.68"/>
<polygon fill="#63b8ff" stroke="#63b8ff" points="316.54,-76.03 327.1,-75.16 318.3,-69.26 316.54,-76.03"/>
</a>
</g>
</g>
<!-- Node6 -->
<g id="Node000006" class="node">
<title>Node6</title>
<g id="a_Node000006"><a xlink:href="ser__json__writer_8hpp.html#a0201bcca7300a0ca2317b4b737232aa0" target="_top" xlink:title="Convert SER records to a JSON array string.">
<polygon fill="white" stroke="#666666" points="444.38,-58 341.38,-58 341.38,-38 444.38,-38 444.38,-58"/>
<text xml:space="preserve" text-anchor="middle" x="392.88" y="-44.5" font-family="Helvetica,sans-Serif" font-size="10.00">recordsToJsonTable</text>
</a>
</g>
</g>
<!-- Node2&#45;&gt;Node6 -->
<g id="edge5_Node000002_Node000006" class="edge">
<title>Node2&#45;&gt;Node6</title>
<g id="a_edge5_Node000002_Node000006"><a xlink:title=" ">
<path fill="none" stroke="#63b8ff" d="M288.55,-48C302.04,-48 316.21,-48 329.57,-48"/>
<polygon fill="#63b8ff" stroke="#63b8ff" points="329.56,-51.5 339.56,-48 329.56,-44.5 329.56,-51.5"/>
</a>
</g>
</g>
<!-- Node8 -->
<g id="Node000008" class="node">
<title>Node8</title>
<g id="a_Node000008"><a xlink:href="ser__json__writer_8hpp.html#afee0f26302c2f0c76230d5fcaecb067b" target="_top" xlink:title="Write JSON string to a file.">
<polygon fill="white" stroke="#666666" points="435,-20 350.75,-20 350.75,0 435,0 435,-20"/>
<text xml:space="preserve" text-anchor="middle" x="392.88" y="-6.5" font-family="Helvetica,sans-Serif" font-size="10.00">writeJsonToFile</text>
</a>
</g>
</g>
<!-- Node2&#45;&gt;Node8 -->
<g id="edge7_Node000002_Node000008" class="edge">
<title>Node2&#45;&gt;Node8</title>
<g id="a_edge7_Node000002_Node000008"><a xlink:title=" ">
<path fill="none" stroke="#63b8ff" d="M269.32,-37.52C291.08,-32.63 317.07,-26.8 339.5,-21.76"/>
<polygon fill="#63b8ff" stroke="#63b8ff" points="340.06,-25.22 349.05,-19.62 338.52,-18.39 340.06,-25.22"/>
</a>
</g>
</g>
<!-- Node4 -->
<g id="Node000004" class="node">
<title>Node4</title>
<g id="a_Node000004"><a xlink:href="namespaceasn__tlv.html#ac435b195a3c3b9168277f982e3106625" target="_top" xlink:title="Read and parse a complete TLV structure.">
<polygon fill="white" stroke="#666666" points="583,-102 497.25,-102 497.25,-82 583,-82 583,-102"/>
<text xml:space="preserve" text-anchor="middle" x="540.12" y="-88.5" font-family="Helvetica,sans-Serif" font-size="10.00">asn_tlv::readTlv</text>
</a>
</g>
</g>
<!-- Node3&#45;&gt;Node4 -->
<g id="edge3_Node000003_Node000004" class="edge">
<title>Node3&#45;&gt;Node4</title>
<g id="a_edge3_Node000003_Node000004"><a xlink:title=" ">
<path fill="none" stroke="#63b8ff" d="M461.4,-92C469.56,-92 477.81,-92 485.73,-92"/>
<polygon fill="#63b8ff" stroke="#63b8ff" points="485.54,-95.5 495.54,-92 485.54,-88.5 485.54,-95.5"/>
</a>
</g>
</g>
<!-- Node5 -->
<g id="Node000005" class="node">
<title>Node5</title>
<g id="a_Node000005"><a xlink:href="namespaceasn__tlv.html#a0aa61313e632a78a5d1d27c80536e420" target="_top" xlink:title="Read BER length encoding from a buffer.">
<polygon fill="white" stroke="#666666" points="720.5,-102 619,-102 619,-82 720.5,-82 720.5,-102"/>
<text xml:space="preserve" text-anchor="middle" x="669.75" y="-88.5" font-family="Helvetica,sans-Serif" font-size="10.00">asn_tlv::readLength</text>
</a>
</g>
</g>
<!-- Node4&#45;&gt;Node5 -->
<g id="edge4_Node000004_Node000005" class="edge">
<title>Node4&#45;&gt;Node5</title>
<g id="a_edge4_Node000004_Node000005"><a xlink:title=" ">
<path fill="none" stroke="#63b8ff" d="M583.27,-92C590.97,-92 599.14,-92 607.27,-92"/>
<polygon fill="#63b8ff" stroke="#63b8ff" points="607.15,-95.5 617.15,-92 607.15,-88.5 607.15,-95.5"/>
</a>
</g>
</g>
<!-- Node7 -->
<g id="Node000007" class="node">
<title>Node7</title>
<g id="a_Node000007"><a xlink:href="ser__json__writer_8hpp.html#a5c077d95f29d39a73aa9b32b93ceddda" target="_top" xlink:title="Escape special characters for JSON string values.">
<polygon fill="white" stroke="#666666" points="574.38,-58 505.88,-58 505.88,-38 574.38,-38 574.38,-58"/>
<text xml:space="preserve" text-anchor="middle" x="540.12" y="-44.5" font-family="Helvetica,sans-Serif" font-size="10.00">escapeJson</text>
</a>
</g>
</g>
<!-- Node6&#45;&gt;Node7 -->
<g id="edge6_Node000006_Node000007" class="edge">
<title>Node6&#45;&gt;Node7</title>
<g id="a_edge6_Node000006_Node000007"><a xlink:title=" ">
<path fill="none" stroke="#63b8ff" d="M444.68,-48C460.71,-48 478.32,-48 493.93,-48"/>
<polygon fill="#63b8ff" stroke="#63b8ff" points="493.92,-51.5 503.92,-48 493.92,-44.5 493.92,-51.5"/>
</a>
</g>
</g>
</g>
</svg>

<g id="navigator" transform="translate(0 0)" fill="#404254">
  <rect fill="#f2f5e9" fill-opacity="0.5" stroke="#606060" stroke-width=".5" x="0" y="0" width="60" height="60"/>
  <use id="zoomplus" xlink:href="#zoomPlus" x="17" y="9" onmousedown="handleZoom(evt,'in')"/>
  <use id="zoomminus" xlink:href="#zoomMin" x="42" y="9" onmousedown="handleZoom(evt,'out')"/>
  <use id="reset" xlink:href="#resetDef" x="30" y="36" onmousedown="handleReset()"/>
   <use id="arrowup" xlink:href="#arrowUp" x="0" y="0" onmousedown="handlePan(0,-1)"/>
  <use id="arrowright" xlink:href="#arrowRight" x="0" y="0" onmousedown="handlePan(1,0)"/>
  <use id="arrowdown" xlink:href="#arrowDown" x="0" y="0" onmousedown="handlePan(0,1)"/>
  <use id="arrowleft" xlink:href="#arrowLeft" x="0" y="0" onmousedown="handlePan(-1,0)"/>
</g>
<svg viewBox="0 0 15 15" width="100%" height="30px" preserveAspectRatio="xMaxYMin meet">
 <g id="arrow_out" transform="scale(0.3 0.3)">
  <a xlink:href="class_shared_ser_reader_aabd6c5c15122509fe63d3eef072ff6df_cgraph_org.svg" target="_base">
   <rect id="button" ry="5" rx="5" y="6" x="6" height="38" width="38"
        fill="#f2f5e9" fill-opacity="0.5" stroke="#606060" stroke-width="1.0"/>
   <path id="arrow"
     d="M 11.500037,31.436501 C 11.940474,20.09759 22.043105,11.32322 32.158766,21.979434 L 37.068811,17.246167 C 37.068811,17.246167 37.088388,32 37.088388,32 L 22.160133,31.978069 C 22.160133,31.978069 26.997745,27.140456 26.997745,27.140456 C 18.528582,18.264221 13.291696,25.230495 11.500037,31.436501 z"
     style="fill:#404040;"/>
  </a>
 </g>
</svg>

<style type='text/css'>
<![CDATA[
[data-mouse-over-selected='false'] { opacity: 0.7; }
[data-mouse-over-selected='true']  { opacity: 1.0; }
]]>
</style>
<script type="application/ecmascript"><![CDATA[
document.addEventListener('DOMContentLoaded', (event) => {
  highlightEdges();
  highlightAdjacentNodes();
});
]]></script>
</svg>
