<?xml version="1.0" encoding="UTF-8" standalone="no"?>
<!DOCTYPE svg PUBLIC "-//W3C//DTD SVG 1.1//EN"
 "http://www.w3.org/Graphics/SVG/1.1/DTD/svg11.dtd">
<!-- Generated by graphviz version 14.1.1 (20251213.1925)
 -->
<!-- Title: TelnetClient::clearLastResponse Pages: 1 -->
<svg width="337pt" height="332pt"
 viewBox="0.00 0.00 337.00 332.00" xmlns="http://www.w3.org/2000/svg" xmlns:xlink="http://www.w3.org/1999/xlink">

<svg id="main" version="1.1" xmlns="http://www.w3.org/2000/svg" xmlns:xlink="http://www.w3.org/1999/xlink" xml:space="preserve">

<style type="text/css"><![CDATA[
.node, .edge {opacity: 0.7;}
.node.selected, .edge.selected {opacity: 1;}
.edge:hover path { stroke: red; }
.edge:hover polygon { stroke: red; fill: red; }
]]></style>
<script type="application/ecmascript" xlink:href="svg.min.js"/>
<svg id="graph" class="graph">
<g id="graph0" class="graph" transform="scale(1 1) rotate(0) translate(4 328)">
<title>TelnetClient::clearLastResponse</title>
<!-- Node1 -->
<g id="Node000001" class="node">
<title>Node1</title>
<g id="a_Node000001"><a xlink:title="Clear the last response buffer.">
<polygon fill="#999999" stroke="#666666" points="329,-172 171.25,-172 171.25,-152 329,-152 329,-172"/>
<text xml:space="preserve" text-anchor="middle" x="250.12" y="-158.5" font-family="Helvetica,sans-Serif" font-size="10.00">TelnetClient::clearLastResponse</text>
</a>
</g>
</g>
<!-- Node2 -->
<g id="Node000002" class="node">
<title>Node2</title>
<g id="a_Node000002"><a xlink:href="struct_cmd_ctrl_c_action.html#a1fc0d4d32ecc40edc7746f91e7de0fa9" target="_top" xlink:title=" ">
<polygon fill="white" stroke="#666666" points="135.25,-324 0,-324 0,-304 135.25,-304 135.25,-324"/>
<text xml:space="preserve" text-anchor="middle" x="67.62" y="-310.5" font-family="Helvetica,sans-Serif" font-size="10.00">CmdCtrlCAction::operator()</text>
</a>
</g>
</g>
<!-- Node1&#45;&gt;Node2 -->
<g id="edge1_Node000001_Node000002" class="edge">
<title>Node1&#45;&gt;Node2</title>
<g id="a_edge1_Node000001_Node000002"><a xlink:title=" ">
<path fill="none" stroke="#63b8ff" d="M237.39,-182.01C219.23,-211.23 181.51,-265.33 135.25,-295 129.88,-298.44 123.88,-301.27 117.74,-303.6"/>
<polygon fill="#63b8ff" stroke="#63b8ff" points="240.21,-184.12 242.4,-173.75 234.22,-180.49 240.21,-184.12"/>
</a>
</g>
</g>
<!-- Node3 -->
<g id="Node000003" class="node">
<title>Node3</title>
<g id="a_Node000003"><a xlink:href="struct_cmd_ctrl_d_action.html#a677af90b092885826ae673c9dc3c97c7" target="_top" xlink:title=" ">
<polygon fill="white" stroke="#666666" points="135.25,-286 0,-286 0,-266 135.25,-266 135.25,-286"/>
<text xml:space="preserve" text-anchor="middle" x="67.62" y="-272.5" font-family="Helvetica,sans-Serif" font-size="10.00">CmdCtrlDAction::operator()</text>
</a>
</g>
</g>
<!-- Node1&#45;&gt;Node3 -->
<g id="edge2_Node000001_Node000003" class="edge">
<title>Node1&#45;&gt;Node3</title>
<g id="a_edge2_Node000001_Node000003"><a xlink:title=" ">
<path fill="none" stroke="#63b8ff" d="M231.89,-180.46C210.96,-201.82 173.68,-236.67 135.25,-257 128.87,-260.37 121.82,-263.21 114.77,-265.58"/>
<polygon fill="#63b8ff" stroke="#63b8ff" points="234.36,-182.94 238.76,-173.3 229.31,-178.09 234.36,-182.94"/>
</a>
</g>
</g>
<!-- Node4 -->
<g id="Node000004" class="node">
<title>Node4</title>
<g id="a_Node000004"><a xlink:href="struct_cmd_eve_action.html#a860e63786f705adfb8ff1f5e297aad6e" target="_top" xlink:title=" ">
<polygon fill="white" stroke="#666666" points="132.25,-248 3,-248 3,-228 132.25,-228 132.25,-248"/>
<text xml:space="preserve" text-anchor="middle" x="67.62" y="-234.5" font-family="Helvetica,sans-Serif" font-size="10.00">CmdEveAction::operator()</text>
</a>
</g>
</g>
<!-- Node1&#45;&gt;Node4 -->
<g id="edge3_Node000001_Node000004" class="edge">
<title>Node1&#45;&gt;Node4</title>
<g id="a_edge3_Node000001_Node000004"><a xlink:title=" ">
<path fill="none" stroke="#63b8ff" d="M221.13,-177.85C198.48,-190.23 165.49,-207.24 135.25,-219 127.18,-222.14 118.38,-225.02 109.9,-227.53"/>
<polygon fill="#63b8ff" stroke="#63b8ff" points="222.68,-181 229.74,-173.1 219.3,-174.87 222.68,-181"/>
</a>
</g>
</g>
<!-- Node5 -->
<g id="Node000005" class="node">
<title>Node5</title>
<g id="a_Node000005"><a xlink:href="struct_cmd_ser_action.html#a28443f0e27ed60d7005818b47370676b" target="_top" xlink:title=" ">
<polygon fill="white" stroke="#666666" points="131.12,-210 4.12,-210 4.12,-190 131.12,-190 131.12,-210"/>
<text xml:space="preserve" text-anchor="middle" x="67.62" y="-196.5" font-family="Helvetica,sans-Serif" font-size="10.00">CmdSerAction::operator()</text>
</a>
</g>
</g>
<!-- Node1&#45;&gt;Node5 -->
<g id="edge4_Node000001_Node000005" class="edge">
<title>Node1&#45;&gt;Node5</title>
<g id="a_edge4_Node000001_Node000005"><a xlink:title=" ">
<path fill="none" stroke="#63b8ff" d="M188.07,-174.85C165.34,-179.64 139.85,-185.01 118.26,-189.55"/>
<polygon fill="#63b8ff" stroke="#63b8ff" points="188.78,-178.28 197.84,-172.8 187.34,-171.43 188.78,-178.28"/>
</a>
</g>
</g>
<!-- Node6 -->
<g id="Node000006" class="node">
<title>Node6</title>
<g id="a_Node000006"><a xlink:href="struct_cmd_set_action.html#ac6e6d8730b740d8e4dad53b3f4634757" target="_top" xlink:title=" ">
<polygon fill="white" stroke="#666666" points="131.12,-172 4.12,-172 4.12,-152 131.12,-152 131.12,-172"/>
<text xml:space="preserve" text-anchor="middle" x="67.62" y="-158.5" font-family="Helvetica,sans-Serif" font-size="10.00">CmdSetAction::operator()</text>
</a>
</g>
</g>
<!-- Node1&#45;&gt;Node6 -->
<g id="edge5_Node000001_Node000006" class="edge">
<title>Node1&#45;&gt;Node6</title>
<g id="a_edge5_Node000001_Node000006"><a xlink:title=" ">
<path fill="none" stroke="#63b8ff" d="M159.77,-162C150.18,-162 140.57,-162 131.38,-162"/>
<polygon fill="#63b8ff" stroke="#63b8ff" points="159.49,-165.5 169.49,-162 159.49,-158.5 159.49,-165.5"/>
</a>
</g>
</g>
<!-- Node7 -->
<g id="Node000007" class="node">
<title>Node7</title>
<g id="a_Node000007"><a xlink:href="struct_cmd_tar_action.html#a1373a600f0abc74796356d52f70e45e3" target="_top" xlink:title=" ">
<polygon fill="white" stroke="#666666" points="130.38,-134 4.88,-134 4.88,-114 130.38,-114 130.38,-134"/>
<text xml:space="preserve" text-anchor="middle" x="67.62" y="-120.5" font-family="Helvetica,sans-Serif" font-size="10.00">CmdTarAction::operator()</text>
</a>
</g>
</g>
<!-- Node1&#45;&gt;Node7 -->
<g id="edge6_Node000001_Node000007" class="edge">
<title>Node1&#45;&gt;Node7</title>
<g id="a_edge6_Node000001_Node000007"><a xlink:title=" ">
<path fill="none" stroke="#63b8ff" d="M188.07,-149.15C165.34,-144.36 139.85,-138.99 118.26,-134.45"/>
<polygon fill="#63b8ff" stroke="#63b8ff" points="187.34,-152.57 197.84,-151.2 188.78,-145.72 187.34,-152.57"/>
</a>
</g>
</g>
<!-- Node8 -->
<g id="Node000008" class="node">
<title>Node8</title>
<g id="a_Node000008"><a xlink:href="struct_connect_action.html#ad381b5e970a96047b7cd2fb269b4aafe" target="_top" xlink:title="Execute connection attempt.">
<polygon fill="white" stroke="#666666" points="131.5,-96 3.75,-96 3.75,-76 131.5,-76 131.5,-96"/>
<text xml:space="preserve" text-anchor="middle" x="67.62" y="-82.5" font-family="Helvetica,sans-Serif" font-size="10.00">ConnectAction::operator()</text>
</a>
</g>
</g>
<!-- Node1&#45;&gt;Node8 -->
<g id="edge7_Node000001_Node000008" class="edge">
<title>Node1&#45;&gt;Node8</title>
<g id="a_edge7_Node000001_Node000008"><a xlink:title=" ">
<path fill="none" stroke="#63b8ff" d="M221.13,-146.15C198.48,-133.77 165.49,-116.76 135.25,-105 127.18,-101.86 118.38,-98.98 109.9,-96.47"/>
<polygon fill="#63b8ff" stroke="#63b8ff" points="219.3,-149.13 229.74,-150.9 222.68,-143 219.3,-149.13"/>
</a>
</g>
</g>
<!-- Node9 -->
<g id="Node000009" class="node">
<title>Node9</title>
<g id="a_Node000009"><a xlink:href="struct_login1_action.html#a06a25a6ed5a30f931e8259a5afc311b1" target="_top" xlink:title="Execute Level 1 login sequence.">
<polygon fill="white" stroke="#666666" points="127.38,-58 7.88,-58 7.88,-38 127.38,-38 127.38,-58"/>
<text xml:space="preserve" text-anchor="middle" x="67.62" y="-44.5" font-family="Helvetica,sans-Serif" font-size="10.00">Login1Action::operator()</text>
</a>
</g>
</g>
<!-- Node1&#45;&gt;Node9 -->
<g id="edge8_Node000001_Node000009" class="edge">
<title>Node1&#45;&gt;Node9</title>
<g id="a_edge8_Node000001_Node000009"><a xlink:title=" ">
<path fill="none" stroke="#63b8ff" d="M231.89,-143.54C210.96,-122.18 173.68,-87.33 135.25,-67 128.87,-63.63 121.82,-60.79 114.77,-58.42"/>
<polygon fill="#63b8ff" stroke="#63b8ff" points="229.31,-145.91 238.76,-150.7 234.36,-141.06 229.31,-145.91"/>
</a>
</g>
</g>
<!-- Node10 -->
<g id="Node000010" class="node">
<title>Node10</title>
<g id="a_Node000010"><a xlink:href="struct_poll_ser_action.html#a80290394273450b8c46083cc224c529f" target="_top" xlink:title="Execute SER polling and storage.">
<polygon fill="white" stroke="#666666" points="128.88,-20 6.38,-20 6.38,0 128.88,0 128.88,-20"/>
<text xml:space="preserve" text-anchor="middle" x="67.62" y="-6.5" font-family="Helvetica,sans-Serif" font-size="10.00">PollSerAction::operator()</text>
</a>
</g>
</g>
<!-- Node1&#45;&gt;Node10 -->
<g id="edge9_Node000001_Node000010" class="edge">
<title>Node1&#45;&gt;Node10</title>
<g id="a_edge9_Node000001_Node000010"><a xlink:title=" ">
<path fill="none" stroke="#63b8ff" d="M237.39,-141.99C219.23,-112.77 181.51,-58.67 135.25,-29 129.88,-25.56 123.88,-22.73 117.74,-20.4"/>
<polygon fill="#63b8ff" stroke="#63b8ff" points="234.22,-143.51 242.4,-150.25 240.21,-139.88 234.22,-143.51"/>
</a>
</g>
</g>
</g>
</svg>
</svg>

<style type='text/css'>
<![CDATA[
[data-mouse-over-selected='false'] { opacity: 0.7; }
[data-mouse-over-selected='true']  { opacity: 1.0; }
]]>
</style>
<script type="application/ecmascript"><![CDATA[
document.addEventListener('DOMContentLoaded', (event) => {
  highlightEdges();
  highlightAdjacentNodes();
});
]]></script>
</svg>
