<?xml version="1.0" encoding="UTF-8" standalone="no"?>
<!DOCTYPE svg PUBLIC "-//W3C//DTD SVG 1.1//EN"
 "http://www.w3.org/Graphics/SVG/1.1/DTD/svg11.dtd">
<!-- Generated by graphviz version 14.1.2 (20260124.0452)
 -->
<!-- Title: SharedSerReader::runLoop Pages: 1 -->
<svg width="574pt" height="116pt"
 viewBox="0.00 0.00 574.00 116.00" xmlns="http://www.w3.org/2000/svg" xmlns:xlink="http://www.w3.org/1999/xlink">
<g id="graph0" class="graph" transform="scale(1 1) rotate(0) translate(4 112)">
<title>SharedSerReader::runLoop</title>
<!-- Node1 -->
<g id="Node000001" class="node">
<title>Node1</title>
<g id="a_Node000001"><a xlink:title="Main worker thread loop.">
<polygon fill="#999999" stroke="#666666" points="133.75,-58 0,-58 0,-38 133.75,-38 133.75,-58"/>
<text xml:space="preserve" text-anchor="middle" x="66.88" y="-44.5" font-family="Helvetica,sans-Serif" font-size="10.00">SharedSerReader::runLoop</text>
</a>
</g>
</g>
<!-- Node2 -->
<g id="Node000002" class="node">
<title>Node2</title>
<g id="a_Node000002"><a xlink:href="namespaceasn__tlv.html#af09e11865c2150ad1989d730491dd729" target="_top" xlink:title="Decode ASN.1 BER/TLV payload to SER records.">
<polygon fill="white" stroke="#666666" points="306.5,-108 169.75,-108 169.75,-76 306.5,-76 306.5,-108"/>
<text xml:space="preserve" text-anchor="start" x="177.75" y="-94.5" font-family="Helvetica,sans-Serif" font-size="10.00">asn_tlv::decodeSerRecords</text>
<text xml:space="preserve" text-anchor="middle" x="238.12" y="-82.5" font-family="Helvetica,sans-Serif" font-size="10.00">FromTlv</text>
</a>
</g>
</g>
<!-- Node1&#45;&gt;Node2 -->
<g id="edge1_Node000001_Node000002" class="edge">
<title>Node1&#45;&gt;Node2</title>
<g id="a_edge1_Node000001_Node000002"><a xlink:title=" ">
<path fill="none" stroke="#63b8ff" d="M107.98,-58.43C124.41,-62.7 143.96,-67.78 162.82,-72.68"/>
<polygon fill="#63b8ff" stroke="#63b8ff" points="161.79,-76.03 172.35,-75.16 163.55,-69.26 161.79,-76.03"/>
</a>
</g>
</g>
<!-- Node5 -->
<g id="Node000005" class="node">
<title>Node5</title>
<g id="a_Node000005"><a xlink:href="ser__json__writer_8hpp.html#a0201bcca7300a0ca2317b4b737232aa0" target="_top" xlink:title="Convert SER records to a JSON array string.">
<polygon fill="white" stroke="#666666" points="289.62,-58 186.62,-58 186.62,-38 289.62,-38 289.62,-58"/>
<text xml:space="preserve" text-anchor="middle" x="238.12" y="-44.5" font-family="Helvetica,sans-Serif" font-size="10.00">recordsToJsonTable</text>
</a>
</g>
</g>
<!-- Node1&#45;&gt;Node5 -->
<g id="edge4_Node000001_Node000005" class="edge">
<title>Node1&#45;&gt;Node5</title>
<g id="a_edge4_Node000001_Node000005"><a xlink:title=" ">
<path fill="none" stroke="#63b8ff" d="M133.8,-48C147.29,-48 161.46,-48 174.82,-48"/>
<polygon fill="#63b8ff" stroke="#63b8ff" points="174.81,-51.5 184.81,-48 174.81,-44.5 174.81,-51.5"/>
</a>
</g>
</g>
<!-- Node7 -->
<g id="Node000007" class="node">
<title>Node7</title>
<g id="a_Node000007"><a xlink:href="ser__json__writer_8hpp.html#afee0f26302c2f0c76230d5fcaecb067b" target="_top" xlink:title="Write JSON string to a file.">
<polygon fill="white" stroke="#666666" points="280.25,-20 196,-20 196,0 280.25,0 280.25,-20"/>
<text xml:space="preserve" text-anchor="middle" x="238.12" y="-6.5" font-family="Helvetica,sans-Serif" font-size="10.00">writeJsonToFile</text>
</a>
</g>
</g>
<!-- Node1&#45;&gt;Node7 -->
<g id="edge6_Node000001_Node000007" class="edge">
<title>Node1&#45;&gt;Node7</title>
<g id="a_edge6_Node000001_Node000007"><a xlink:title=" ">
<path fill="none" stroke="#63b8ff" d="M114.57,-37.52C136.33,-32.63 162.32,-26.8 184.75,-21.76"/>
<polygon fill="#63b8ff" stroke="#63b8ff" points="185.31,-25.22 194.3,-19.62 183.77,-18.39 185.31,-25.22"/>
</a>
</g>
</g>
<!-- Node3 -->
<g id="Node000003" class="node">
<title>Node3</title>
<g id="a_Node000003"><a xlink:href="namespaceasn__tlv.html#ac435b195a3c3b9168277f982e3106625" target="_top" xlink:title="Read and parse a complete TLV structure.">
<polygon fill="white" stroke="#666666" points="428.25,-102 342.5,-102 342.5,-82 428.25,-82 428.25,-102"/>
<text xml:space="preserve" text-anchor="middle" x="385.38" y="-88.5" font-family="Helvetica,sans-Serif" font-size="10.00">asn_tlv::readTlv</text>
</a>
</g>
</g>
<!-- Node2&#45;&gt;Node3 -->
<g id="edge2_Node000002_Node000003" class="edge">
<title>Node2&#45;&gt;Node3</title>
<g id="a_edge2_Node000002_Node000003"><a xlink:title=" ">
<path fill="none" stroke="#63b8ff" d="M306.65,-92C314.81,-92 323.06,-92 330.98,-92"/>
<polygon fill="#63b8ff" stroke="#63b8ff" points="330.79,-95.5 340.79,-92 330.79,-88.5 330.79,-95.5"/>
</a>
</g>
</g>
<!-- Node4 -->
<g id="Node000004" class="node">
<title>Node4</title>
<g id="a_Node000004"><a xlink:href="namespaceasn__tlv.html#a0aa61313e632a78a5d1d27c80536e420" target="_top" xlink:title="Read BER length encoding from a buffer.">
<polygon fill="white" stroke="#666666" points="565.75,-102 464.25,-102 464.25,-82 565.75,-82 565.75,-102"/>
<text xml:space="preserve" text-anchor="middle" x="515" y="-88.5" font-family="Helvetica,sans-Serif" font-size="10.00">asn_tlv::readLength</text>
</a>
</g>
</g>
<!-- Node3&#45;&gt;Node4 -->
<g id="edge3_Node000003_Node000004" class="edge">
<title>Node3&#45;&gt;Node4</title>
<g id="a_edge3_Node000003_Node000004"><a xlink:title=" ">
<path fill="none" stroke="#63b8ff" d="M428.52,-92C436.22,-92 444.39,-92 452.52,-92"/>
<polygon fill="#63b8ff" stroke="#63b8ff" points="452.4,-95.5 462.4,-92 452.4,-88.5 452.4,-95.5"/>
</a>
</g>
</g>
<!-- Node6 -->
<g id="Node000006" class="node">
<title>Node6</title>
<g id="a_Node000006"><a xlink:href="ser__json__writer_8hpp.html#a5c077d95f29d39a73aa9b32b93ceddda" target="_top" xlink:title="Escape special characters for JSON string values.">
<polygon fill="white" stroke="#666666" points="419.62,-58 351.12,-58 351.12,-38 419.62,-38 419.62,-58"/>
<text xml:space="preserve" text-anchor="middle" x="385.38" y="-44.5" font-family="Helvetica,sans-Serif" font-size="10.00">escapeJson</text>
</a>
</g>
</g>
<!-- Node5&#45;&gt;Node6 -->
<g id="edge5_Node000005_Node000006" class="edge">
<title>Node5&#45;&gt;Node6</title>
<g id="a_edge5_Node000005_Node000006"><a xlink:title=" ">
<path fill="none" stroke="#63b8ff" d="M289.93,-48C305.96,-48 323.57,-48 339.18,-48"/>
<polygon fill="#63b8ff" stroke="#63b8ff" points="339.17,-51.5 349.17,-48 339.17,-44.5 339.17,-51.5"/>
</a>
</g>
</g>
</g>
</svg>
