<?xml version="1.0" encoding="UTF-8" standalone="no"?>
<!DOCTYPE svg PUBLIC "-//W3C//DTD SVG 1.1//EN"
 "http://www.w3.org/Graphics/SVG/1.1/DTD/svg11.dtd">
<!-- Generated by graphviz version 14.1.2 (20260124.0452)
 -->
<!-- Title: ThreadManager Pages: 1 -->
<!--zoomable 1483 -->

<svg id="main" version="1.1" xmlns="http://www.w3.org/2000/svg" xmlns:xlink="http://www.w3.org/1999/xlink" xml:space="preserve" onload="init(evt)">

<style type="text/css"><![CDATA[
.node, .edge {opacity: 0.7;}
.node.selected, .edge.selected {opacity: 1;}
.edge:hover path { stroke: red; }
.edge:hover polygon { stroke: red; fill: red; }
]]></style>

<defs>
  <circle id="rim" cx="0" cy="0" r="7"/>
  <circle id="rim2" cx="0" cy="0" r="3.5"/>
  <g id="zoomPlus">
    <use xlink:href="#rim" fill="#404040"><set attributeName="fill" to="#808080" begin="zoomplus.mouseover" end="zoomplus.mouseout"/></use>
    <path d="M-4,0h8M0,-4v8" fill="none" stroke="white" stroke-width="1.5" pointer-events="none"/>
  </g>
  <g id="zoomMin">
    <use xlink:href="#rim" fill="#404040"><set attributeName="fill" to="#808080" begin="zoomminus.mouseover" end="zoomminus.mouseout"/></use>
    <path d="M-4,0h8" fill="none" stroke="white" stroke-width="1.5" pointer-events="none"/>
  </g>
  <g id="arrowUp" transform="translate(30 24)">
    <use xlink:href="#rim"/>
    <path pointer-events="none" fill="none" stroke="white" stroke-width="1.5" d="M0,-3.0v7 M-2.5,-0.5L0,-3.0L2.5,-0.5"/>
  </g>
  <g id="arrowRight" transform="rotate(90) translate(36 -43)">
    <use xlink:href="#rim"/>
    <path pointer-events="none" fill="none" stroke="white" stroke-width="1.5" d="M0,-3.0v7 M-2.5,-0.5L0,-3.0L2.5,-0.5"/>
  </g>
  <g id="arrowDown" transform="rotate(180) translate(-30 -48)">
    <use xlink:href="#rim"/>
    <path pointer-events="none" fill="none" stroke="white" stroke-width="1.5" d="M0,-3.0v7 M-2.5,-0.5L0,-3.0L2.5,-0.5"/>
  </g>
  <g id="arrowLeft" transform="rotate(270) translate(-36 17)">
    <use xlink:href="#rim"/>
    <path pointer-events="none" fill="none" stroke="white" stroke-width="1.5" d="M0,-3.0v7 M-2.5,-0.5L0,-3.0L2.5,-0.5"/>
  </g>
  <g id="resetDef">
    <use xlink:href="#rim2" fill="#404040"><set attributeName="fill" to="#808080" begin="reset.mouseover" end="reset.mouseout"/></use>
  </g>
</defs>
<script type="application/ecmascript">
var viewWidth = 679;
var viewHeight = 1483;
var sectionId = 'dynsection-0';
</script>
<script type="application/ecmascript" xlink:href="svg.min.js"/>
<svg id="graph" class="graph">
<g id="viewport">
<title>ThreadManager</title>
<!-- Node1 -->
<g id="Node000001" class="node">
<title>Node1</title>
<g id="a_Node000001"><a xlink:title="Centralized thread management for the application.">
<polygon fill="#999999" stroke="none" points="575.88,-148 470.88,-148 470.88,0 575.88,0 575.88,-148"/>
<text xml:space="preserve" text-anchor="start" x="489.62" y="-134.5" font-family="Helvetica,sans-Serif" font-size="10.00">ThreadManager</text>
<text xml:space="preserve" text-anchor="start" x="521.88" y="-118.5" font-family="Helvetica,sans-Serif" font-size="10.00"> </text>
<text xml:space="preserve" text-anchor="start" x="474.88" y="-102.5" font-family="Helvetica,sans-Serif" font-size="10.00">+</text>
<text xml:space="preserve" text-anchor="start" x="484.88" y="-102.5" font-family="Helvetica,sans-Serif" font-size="10.00">ThreadManager()</text>
<text xml:space="preserve" text-anchor="start" x="474.88" y="-86.5" font-family="Helvetica,sans-Serif" font-size="10.00">+</text>
<text xml:space="preserve" text-anchor="start" x="484.88" y="-86.5" font-family="Helvetica,sans-Serif" font-size="10.00">setPollingCallback()</text>
<text xml:space="preserve" text-anchor="start" x="474.88" y="-70.5" font-family="Helvetica,sans-Serif" font-size="10.00">+</text>
<text xml:space="preserve" text-anchor="start" x="484.88" y="-70.5" font-family="Helvetica,sans-Serif" font-size="10.00">startAll()</text>
<text xml:space="preserve" text-anchor="start" x="474.88" y="-54.5" font-family="Helvetica,sans-Serif" font-size="10.00">+</text>
<text xml:space="preserve" text-anchor="start" x="484.88" y="-54.5" font-family="Helvetica,sans-Serif" font-size="10.00">stopAll()</text>
<text xml:space="preserve" text-anchor="start" x="474.88" y="-38.5" font-family="Helvetica,sans-Serif" font-size="10.00">+</text>
<text xml:space="preserve" text-anchor="start" x="484.88" y="-38.5" font-family="Helvetica,sans-Serif" font-size="10.00">getWriter()</text>
<text xml:space="preserve" text-anchor="start" x="474.88" y="-22.5" font-family="Helvetica,sans-Serif" font-size="10.00">+</text>
<text xml:space="preserve" text-anchor="start" x="484.88" y="-22.5" font-family="Helvetica,sans-Serif" font-size="10.00">getPoller()</text>
<text xml:space="preserve" text-anchor="start" x="474.88" y="-6.5" font-family="Helvetica,sans-Serif" font-size="10.00">+</text>
<text xml:space="preserve" text-anchor="start" x="484.88" y="-6.5" font-family="Helvetica,sans-Serif" font-size="10.00">isRunning()</text>
<polygon fill="#666666" stroke="#666666" points="470.88,-130 470.88,-130 575.88,-130 575.88,-130 470.88,-130"/>
<polygon fill="#666666" stroke="#666666" points="470.88,-114 470.88,-114 575.88,-114 575.88,-114 470.88,-114"/>
<polygon fill="none" stroke="#666666" points="470.88,0 470.88,-148 575.88,-148 575.88,0 470.88,0"/>
</a>
</g>
</g>
<!-- Node2 -->
<g id="Node000002" class="node">
<title>Node2</title>
<g id="a_Node000002"><a xlink:title=" ">
<polygon fill="white" stroke="none" points="407.12,-266 283.62,-266 283.62,-202 407.12,-202 407.12,-266"/>
<text xml:space="preserve" text-anchor="start" x="287.62" y="-252.5" font-family="Helvetica,sans-Serif" font-size="10.00">std::unique_ptr&lt; Database</text>
<text xml:space="preserve" text-anchor="start" x="328.12" y="-240.5" font-family="Helvetica,sans-Serif" font-size="10.00">Writer &gt;</text>
<text xml:space="preserve" text-anchor="start" x="343.88" y="-224.5" font-family="Helvetica,sans-Serif" font-size="10.00"> </text>
<text xml:space="preserve" text-anchor="start" x="301.44" y="-208.5" font-family="Helvetica,sans-Serif" font-size="10.00">+</text>
<text xml:space="preserve" text-anchor="start" x="325.25" y="-208.5" font-family="Helvetica,sans-Serif" font-size="10.00">operator&#45;&gt;()</text>
<polygon fill="#666666" stroke="#666666" points="283.62,-236 283.62,-236 407.12,-236 407.12,-236 283.62,-236"/>
<polygon fill="#666666" stroke="#666666" points="283.62,-220 283.62,-220 407.12,-220 407.12,-220 283.62,-220"/>
<polygon fill="none" stroke="#666666" points="283.62,-202 283.62,-266 407.12,-266 407.12,-202 283.62,-202"/>
</a>
</g>
</g>
<!-- Node2&#45;&gt;Node1 -->
<g id="edge1_Node000001_Node000002" class="edge">
<title>Node2&#45;&gt;Node1</title>
<g id="a_edge1_Node000001_Node000002"><a xlink:title=" ">
<path fill="none" stroke="#63b8ff" d="M380.12,-202.16C403.29,-181.6 434.39,-153.99 461.69,-129.75"/>
<polygon fill="none" stroke="#63b8ff" points="461.52,-129.9 463.36,-122.93 470.5,-121.94 468.67,-128.91 461.52,-129.9"/>
</a>
</g>
<text xml:space="preserve" text-anchor="start" x="421.43" y="-171.5" font-family="Helvetica,sans-Serif" font-size="10.00" fill="grey">&#45;db_writer_</text>
</g>
<!-- Node3 -->
<g id="Node000003" class="node">
<title>Node3</title>
<g id="a_Node000003"><a xlink:href="class_database_writer.html" target="_top" xlink:title="Asynchronous database writer thread.">
<polygon fill="white" stroke="none" points="329.62,-484 223.12,-484 223.12,-320 329.62,-320 329.62,-484"/>
<text xml:space="preserve" text-anchor="start" x="242.62" y="-470.5" font-family="Helvetica,sans-Serif" font-size="10.00">DatabaseWriter</text>
<text xml:space="preserve" text-anchor="start" x="274.88" y="-454.5" font-family="Helvetica,sans-Serif" font-size="10.00"> </text>
<text xml:space="preserve" text-anchor="start" x="227.12" y="-438.5" font-family="Helvetica,sans-Serif" font-size="10.00">+</text>
<text xml:space="preserve" text-anchor="start" x="237.12" y="-438.5" font-family="Helvetica,sans-Serif" font-size="10.00">DatabaseWriter()</text>
<text xml:space="preserve" text-anchor="start" x="227.12" y="-422.5" font-family="Helvetica,sans-Serif" font-size="10.00">+</text>
<text xml:space="preserve" text-anchor="start" x="237.12" y="-422.5" font-family="Helvetica,sans-Serif" font-size="10.00">~DatabaseWriter()</text>
<text xml:space="preserve" text-anchor="start" x="227.12" y="-406.5" font-family="Helvetica,sans-Serif" font-size="10.00">+</text>
<text xml:space="preserve" text-anchor="start" x="237.12" y="-406.5" font-family="Helvetica,sans-Serif" font-size="10.00">start()</text>
<text xml:space="preserve" text-anchor="start" x="227.12" y="-390.5" font-family="Helvetica,sans-Serif" font-size="10.00">+</text>
<text xml:space="preserve" text-anchor="start" x="237.12" y="-390.5" font-family="Helvetica,sans-Serif" font-size="10.00">stop()</text>
<text xml:space="preserve" text-anchor="start" x="227.12" y="-374.5" font-family="Helvetica,sans-Serif" font-size="10.00">+</text>
<text xml:space="preserve" text-anchor="start" x="237.12" y="-374.5" font-family="Helvetica,sans-Serif" font-size="10.00">queueRecord()</text>
<text xml:space="preserve" text-anchor="start" x="227.12" y="-358.5" font-family="Helvetica,sans-Serif" font-size="10.00">+</text>
<text xml:space="preserve" text-anchor="start" x="237.12" y="-358.5" font-family="Helvetica,sans-Serif" font-size="10.00">queueRecords()</text>
<text xml:space="preserve" text-anchor="start" x="227.12" y="-342.5" font-family="Helvetica,sans-Serif" font-size="10.00">+</text>
<text xml:space="preserve" text-anchor="start" x="237.12" y="-342.5" font-family="Helvetica,sans-Serif" font-size="10.00">getDatabaseMutex()</text>
<text xml:space="preserve" text-anchor="start" x="227.12" y="-326.5" font-family="Helvetica,sans-Serif" font-size="10.00">+</text>
<text xml:space="preserve" text-anchor="start" x="237.12" y="-326.5" font-family="Helvetica,sans-Serif" font-size="10.00">pendingWrites()</text>
<polygon fill="#666666" stroke="#666666" points="223.12,-466 223.12,-466 329.62,-466 329.62,-466 223.12,-466"/>
<polygon fill="#666666" stroke="#666666" points="223.12,-450 223.12,-450 329.62,-450 329.62,-450 223.12,-450"/>
<polygon fill="none" stroke="#666666" points="223.12,-320 223.12,-484 329.62,-484 329.62,-320 223.12,-320"/>
</a>
</g>
</g>
<!-- Node3&#45;&gt;Node2 -->
<g id="edge2_Node000002_Node000003" class="edge">
<title>Node3&#45;&gt;Node2</title>
<g id="a_edge2_Node000002_Node000003"><a xlink:title=" ">
<path fill="none" stroke="#63b8ff" d="M309.86,-320.43C316.01,-305.66 322.19,-290.78 327.64,-277.68"/>
<polygon fill="none" stroke="#63b8ff" points="327.66,-277.63 326.26,-270.55 332.26,-266.55 333.65,-273.62 327.66,-277.63"/>
</a>
</g>
<text xml:space="preserve" text-anchor="start" x="327.99" y="-289.5" font-family="Helvetica,sans-Serif" font-size="10.00" fill="grey">+ptr</text>
</g>
<!-- Node4 -->
<g id="Node000004" class="node">
<title>Node4</title>
<g id="a_Node000004"><a xlink:href="class_s_e_r_database.html" target="_top" xlink:title="SQLite database handler for storing and retrieving SER records.">
<polygon fill="white" stroke="none" points="114.75,-1134 0,-1134 0,-778 114.75,-778 114.75,-1134"/>
<text xml:space="preserve" text-anchor="start" x="25.88" y="-1120.5" font-family="Helvetica,sans-Serif" font-size="10.00">SERDatabase</text>
<text xml:space="preserve" text-anchor="start" x="5.5" y="-1104.5" font-family="Helvetica,sans-Serif" font-size="10.00">&#45;</text>
<text xml:space="preserve" text-anchor="start" x="14" y="-1104.5" font-family="Helvetica,sans-Serif" font-size="10.00">db_</text>
<text xml:space="preserve" text-anchor="start" x="4" y="-1088.5" font-family="Helvetica,sans-Serif" font-size="10.00">+</text>
<text xml:space="preserve" text-anchor="start" x="14" y="-1088.5" font-family="Helvetica,sans-Serif" font-size="10.00">SERDatabase()</text>
<text xml:space="preserve" text-anchor="start" x="4" y="-1072.5" font-family="Helvetica,sans-Serif" font-size="10.00">+</text>
<text xml:space="preserve" text-anchor="start" x="14" y="-1072.5" font-family="Helvetica,sans-Serif" font-size="10.00">~SERDatabase()</text>
<text xml:space="preserve" text-anchor="start" x="4" y="-1056.5" font-family="Helvetica,sans-Serif" font-size="10.00">+</text>
<text xml:space="preserve" text-anchor="start" x="14" y="-1056.5" font-family="Helvetica,sans-Serif" font-size="10.00">open()</text>
<text xml:space="preserve" text-anchor="start" x="4" y="-1040.5" font-family="Helvetica,sans-Serif" font-size="10.00">+</text>
<text xml:space="preserve" text-anchor="start" x="14" y="-1040.5" font-family="Helvetica,sans-Serif" font-size="10.00">close()</text>
<text xml:space="preserve" text-anchor="start" x="4" y="-1024.5" font-family="Helvetica,sans-Serif" font-size="10.00">+</text>
<text xml:space="preserve" text-anchor="start" x="14" y="-1024.5" font-family="Helvetica,sans-Serif" font-size="10.00">isOpen()</text>
<text xml:space="preserve" text-anchor="start" x="4" y="-1008.5" font-family="Helvetica,sans-Serif" font-size="10.00">+</text>
<text xml:space="preserve" text-anchor="start" x="14" y="-1008.5" font-family="Helvetica,sans-Serif" font-size="10.00">insertRecord()</text>
<text xml:space="preserve" text-anchor="start" x="4" y="-992.5" font-family="Helvetica,sans-Serif" font-size="10.00">+</text>
<text xml:space="preserve" text-anchor="start" x="14" y="-992.5" font-family="Helvetica,sans-Serif" font-size="10.00">insertRecords()</text>
<text xml:space="preserve" text-anchor="start" x="4" y="-976.5" font-family="Helvetica,sans-Serif" font-size="10.00">+</text>
<text xml:space="preserve" text-anchor="start" x="14" y="-976.5" font-family="Helvetica,sans-Serif" font-size="10.00">getAllRecords()</text>
<text xml:space="preserve" text-anchor="start" x="4" y="-960.5" font-family="Helvetica,sans-Serif" font-size="10.00">+</text>
<text xml:space="preserve" text-anchor="start" x="14" y="-960.5" font-family="Helvetica,sans-Serif" font-size="10.00">getRecordsByStatus()</text>
<text xml:space="preserve" text-anchor="start" x="4" y="-944.5" font-family="Helvetica,sans-Serif" font-size="10.00">+</text>
<text xml:space="preserve" text-anchor="start" x="14" y="-944.5" font-family="Helvetica,sans-Serif" font-size="10.00">getRecordCount()</text>
<text xml:space="preserve" text-anchor="start" x="4" y="-928.5" font-family="Helvetica,sans-Serif" font-size="10.00">+</text>
<text xml:space="preserve" text-anchor="start" x="14" y="-928.5" font-family="Helvetica,sans-Serif" font-size="10.00">clearAllRecords()</text>
<text xml:space="preserve" text-anchor="start" x="4" y="-912.5" font-family="Helvetica,sans-Serif" font-size="10.00">+</text>
<text xml:space="preserve" text-anchor="start" x="14" y="-912.5" font-family="Helvetica,sans-Serif" font-size="10.00">exportToJSON()</text>
<text xml:space="preserve" text-anchor="start" x="4" y="-896.5" font-family="Helvetica,sans-Serif" font-size="10.00">+</text>
<text xml:space="preserve" text-anchor="start" x="14" y="-896.5" font-family="Helvetica,sans-Serif" font-size="10.00">getLastError()</text>
<text xml:space="preserve" text-anchor="start" x="4" y="-880.5" font-family="Helvetica,sans-Serif" font-size="10.00">+</text>
<text xml:space="preserve" text-anchor="start" x="14" y="-880.5" font-family="Helvetica,sans-Serif" font-size="10.00">getDbHandle()</text>
<text xml:space="preserve" text-anchor="start" x="4" y="-864.5" font-family="Helvetica,sans-Serif" font-size="10.00">+</text>
<text xml:space="preserve" text-anchor="start" x="14" y="-864.5" font-family="Helvetica,sans-Serif" font-size="10.00">SERDatabase()</text>
<text xml:space="preserve" text-anchor="start" x="4" y="-848.5" font-family="Helvetica,sans-Serif" font-size="10.00">+</text>
<text xml:space="preserve" text-anchor="start" x="14" y="-848.5" font-family="Helvetica,sans-Serif" font-size="10.00">operator=()</text>
<text xml:space="preserve" text-anchor="start" x="5.5" y="-832.5" font-family="Helvetica,sans-Serif" font-size="10.00">&#45;</text>
<text xml:space="preserve" text-anchor="start" x="14" y="-832.5" font-family="Helvetica,sans-Serif" font-size="10.00">createTable()</text>
<text xml:space="preserve" text-anchor="start" x="5.5" y="-816.5" font-family="Helvetica,sans-Serif" font-size="10.00">&#45;</text>
<text xml:space="preserve" text-anchor="start" x="14" y="-816.5" font-family="Helvetica,sans-Serif" font-size="10.00">recordExists()</text>
<text xml:space="preserve" text-anchor="start" x="5.12" y="-800.5" font-family="Helvetica,sans-Serif" font-size="10.00">*</text>
<text xml:space="preserve" text-anchor="start" x="14" y="-800.5" font-family="Helvetica,sans-Serif" font-size="10.00">SERDatabase()</text>
<text xml:space="preserve" text-anchor="start" x="5.12" y="-784.5" font-family="Helvetica,sans-Serif" font-size="10.00">*</text>
<text xml:space="preserve" text-anchor="start" x="14" y="-784.5" font-family="Helvetica,sans-Serif" font-size="10.00">operator=()</text>
<polygon fill="#666666" stroke="#666666" points="0,-1116 0,-1116 114.75,-1116 114.75,-1116 0,-1116"/>
<polygon fill="#666666" stroke="#666666" points="0,-1100 0,-1100 12,-1100 12,-1100 0,-1100"/>
<polygon fill="#666666" stroke="#666666" points="12,-1100 12,-1100 114.75,-1100 114.75,-1100 12,-1100"/>
<polygon fill="none" stroke="#666666" points="0,-778 0,-1134 114.75,-1134 114.75,-778 0,-778"/>
</a>
</g>
</g>
<!-- Node4&#45;&gt;Node3 -->
<g id="edge3_Node000003_Node000004" class="edge">
<title>Node4&#45;&gt;Node3</title>
<g id="a_edge3_Node000003_Node000004"><a xlink:title=" ">
<path fill="none" stroke="#63b8ff" d="M24.75,-778.14C19.09,-700 25.18,-609.79 65.38,-538 96.68,-482.09 161.85,-445.81 211.53,-425.1"/>
<polygon fill="none" stroke="#63b8ff" points="211.51,-425.11 215.58,-419.15 222.64,-420.62 218.57,-426.57 211.51,-425.11"/>
</a>
</g>
<text xml:space="preserve" text-anchor="start" x="28.66" y="-677.5" font-family="Helvetica,sans-Serif" font-size="10.00" fill="grey">&#45;db_</text>
</g>
<!-- Node5 -->
<g id="Node000005" class="node">
<title>Node5</title>
<g id="a_Node000005"><a xlink:title=" ">
<polygon fill="white" stroke="none" points="123.12,-1374 71.62,-1374 71.62,-1322 123.12,-1322 123.12,-1374"/>
<text xml:space="preserve" text-anchor="start" x="75.62" y="-1360.5" font-family="Helvetica,sans-Serif" font-size="10.00">std::string</text>
<text xml:space="preserve" text-anchor="start" x="95.88" y="-1344.5" font-family="Helvetica,sans-Serif" font-size="10.00"> </text>
<text xml:space="preserve" text-anchor="start" x="95.88" y="-1328.5" font-family="Helvetica,sans-Serif" font-size="10.00"> </text>
<polygon fill="#666666" stroke="#666666" points="71.62,-1356 71.62,-1356 123.12,-1356 123.12,-1356 71.62,-1356"/>
<polygon fill="#666666" stroke="#666666" points="71.62,-1340 71.62,-1340 123.12,-1340 123.12,-1340 71.62,-1340"/>
<polygon fill="none" stroke="#666666" points="71.62,-1322 71.62,-1374 123.12,-1374 123.12,-1322 71.62,-1322"/>
</a>
</g>
</g>
<!-- Node5&#45;&gt;Node4 -->
<g id="edge4_Node000004_Node000005" class="edge">
<title>Node5&#45;&gt;Node4</title>
<g id="a_edge4_Node000004_Node000005"><a xlink:title=" ">
<path fill="none" stroke="#63b8ff" d="M71.92,-1327.15C65.35,-1320.57 59.14,-1312.68 55.62,-1304 35.8,-1255.13 29.74,-1199.12 30.35,-1146.55"/>
<polygon fill="none" stroke="#63b8ff" points="30.35,-1146.52 26.48,-1140.44 30.61,-1134.53 34.48,-1140.61 30.35,-1146.52"/>
</a>
</g>
<text xml:space="preserve" text-anchor="start" x="58.62" y="-1275.5" font-family="Helvetica,sans-Serif" font-size="10.00" fill="grey">&#45;db_path_</text>
<text xml:space="preserve" text-anchor="start" x="58.62" y="-1259.5" font-family="Helvetica,sans-Serif" font-size="10.00" fill="grey">&#45;last_error_</text>
</g>
<!-- Node9 -->
<g id="Node000009" class="node">
<title>Node9</title>
<g id="a_Node000009"><a xlink:href="struct_s_e_r_record.html" target="_top" xlink:title="Structure representing a System Event Record (SER).">
<polygon fill="white" stroke="none" points="177.62,-1220 101.12,-1220 101.12,-1152 177.62,-1152 177.62,-1220"/>
<text xml:space="preserve" text-anchor="start" x="113.12" y="-1206.5" font-family="Helvetica,sans-Serif" font-size="10.00">SERRecord</text>
<text xml:space="preserve" text-anchor="start" x="137.88" y="-1190.5" font-family="Helvetica,sans-Serif" font-size="10.00"> </text>
<text xml:space="preserve" text-anchor="start" x="105.12" y="-1174.5" font-family="Helvetica,sans-Serif" font-size="10.00">+</text>
<text xml:space="preserve" text-anchor="start" x="115.12" y="-1174.5" font-family="Helvetica,sans-Serif" font-size="10.00">SERRecord()</text>
<text xml:space="preserve" text-anchor="start" x="105.12" y="-1158.5" font-family="Helvetica,sans-Serif" font-size="10.00">+</text>
<text xml:space="preserve" text-anchor="start" x="115.12" y="-1158.5" font-family="Helvetica,sans-Serif" font-size="10.00">SERRecord()</text>
<polygon fill="#666666" stroke="#666666" points="101.12,-1202 101.12,-1202 177.62,-1202 177.62,-1202 101.12,-1202"/>
<polygon fill="#666666" stroke="#666666" points="101.12,-1186 101.12,-1186 177.62,-1186 177.62,-1186 101.12,-1186"/>
<polygon fill="none" stroke="#666666" points="101.12,-1152 101.12,-1220 177.62,-1220 177.62,-1152 101.12,-1152"/>
</a>
</g>
</g>
<!-- Node5&#45;&gt;Node9 -->
<g id="edge9_Node000009_Node000005" class="edge">
<title>Node5&#45;&gt;Node9</title>
<g id="a_edge9_Node000009_Node000005"><a xlink:title=" ">
<path fill="none" stroke="#63b8ff" d="M107.97,-1322.24C110.28,-1316.33 112.56,-1309.99 114.38,-1304 121.4,-1280.76 127.22,-1254.34 131.48,-1232.5"/>
<polygon fill="none" stroke="#63b8ff" points="131.46,-1232.58 128.64,-1225.94 133.69,-1220.78 136.51,-1227.42 131.46,-1232.58"/>
</a>
</g>
<text xml:space="preserve" text-anchor="start" x="132.82" y="-1291.5" font-family="Helvetica,sans-Serif" font-size="10.00" fill="grey">+description</text>
<text xml:space="preserve" text-anchor="start" x="132.82" y="-1275.5" font-family="Helvetica,sans-Serif" font-size="10.00" fill="grey">+record_id</text>
<text xml:space="preserve" text-anchor="start" x="132.82" y="-1259.5" font-family="Helvetica,sans-Serif" font-size="10.00" fill="grey">+status</text>
<text xml:space="preserve" text-anchor="start" x="132.82" y="-1243.5" font-family="Helvetica,sans-Serif" font-size="10.00" fill="grey">+timestamp</text>
</g>
<!-- Node6 -->
<g id="Node000006" class="node">
<title>Node6</title>
<g id="a_Node000006"><a xlink:title=" ">
<polygon fill="white" stroke="none" points="140.38,-1475 54.38,-1475 54.38,-1411 140.38,-1411 140.38,-1475"/>
<text xml:space="preserve" text-anchor="start" x="58.38" y="-1461.5" font-family="Helvetica,sans-Serif" font-size="10.00">std::basic_string&lt;</text>
<text xml:space="preserve" text-anchor="start" x="80.88" y="-1449.5" font-family="Helvetica,sans-Serif" font-size="10.00"> Char &gt;</text>
<text xml:space="preserve" text-anchor="start" x="95.88" y="-1433.5" font-family="Helvetica,sans-Serif" font-size="10.00"> </text>
<text xml:space="preserve" text-anchor="start" x="95.88" y="-1417.5" font-family="Helvetica,sans-Serif" font-size="10.00"> </text>
<polygon fill="#666666" stroke="#666666" points="54.38,-1445 54.38,-1445 140.38,-1445 140.38,-1445 54.38,-1445"/>
<polygon fill="#666666" stroke="#666666" points="54.38,-1429 54.38,-1429 140.38,-1429 140.38,-1429 54.38,-1429"/>
<polygon fill="none" stroke="#666666" points="54.38,-1411 54.38,-1475 140.38,-1475 140.38,-1411 54.38,-1411"/>
</a>
</g>
</g>
<!-- Node6&#45;&gt;Node5 -->
<g id="edge5_Node000005_Node000006" class="edge">
<title>Node6&#45;&gt;Node5</title>
<g id="a_edge5_Node000005_Node000006"><a xlink:title=" ">
<path fill="none" stroke="#63b8ff" d="M97.38,-1399.69C97.38,-1390.89 97.38,-1381.89 97.38,-1373.96"/>
<polygon fill="none" stroke="#63b8ff" points="93.88,-1399.52 97.38,-1409.52 100.88,-1399.52 93.88,-1399.52"/>
</a>
</g>
</g>
<!-- Node7 -->
<g id="Node000007" class="node">
<title>Node7</title>
<g id="a_Node000007"><a xlink:href="class_thread_safe_queue.html" target="_top" xlink:title=" ">
<polygon fill="white" stroke="none" points="232,-654 74.75,-654 74.75,-538 232,-538 232,-654"/>
<text xml:space="preserve" text-anchor="start" x="78.75" y="-640.5" font-family="Helvetica,sans-Serif" font-size="10.00">ThreadSafeQueue&lt; SERRecord &gt;</text>
<text xml:space="preserve" text-anchor="start" x="103.81" y="-624.5" font-family="Helvetica,sans-Serif" font-size="10.00">&#45;</text>
<text xml:space="preserve" text-anchor="start" x="135.88" y="-624.5" font-family="Helvetica,sans-Serif" font-size="10.00">cv_</text>
<text xml:space="preserve" text-anchor="start" x="102.31" y="-608.5" font-family="Helvetica,sans-Serif" font-size="10.00">+</text>
<text xml:space="preserve" text-anchor="start" x="135.88" y="-608.5" font-family="Helvetica,sans-Serif" font-size="10.00">push()</text>
<text xml:space="preserve" text-anchor="start" x="102.31" y="-592.5" font-family="Helvetica,sans-Serif" font-size="10.00">+</text>
<text xml:space="preserve" text-anchor="start" x="135.88" y="-592.5" font-family="Helvetica,sans-Serif" font-size="10.00">pop()</text>
<text xml:space="preserve" text-anchor="start" x="102.31" y="-576.5" font-family="Helvetica,sans-Serif" font-size="10.00">+</text>
<text xml:space="preserve" text-anchor="start" x="135.88" y="-576.5" font-family="Helvetica,sans-Serif" font-size="10.00">empty()</text>
<text xml:space="preserve" text-anchor="start" x="102.31" y="-560.5" font-family="Helvetica,sans-Serif" font-size="10.00">+</text>
<text xml:space="preserve" text-anchor="start" x="135.88" y="-560.5" font-family="Helvetica,sans-Serif" font-size="10.00">size()</text>
<text xml:space="preserve" text-anchor="start" x="102.31" y="-544.5" font-family="Helvetica,sans-Serif" font-size="10.00">+</text>
<text xml:space="preserve" text-anchor="start" x="135.88" y="-544.5" font-family="Helvetica,sans-Serif" font-size="10.00">notify_all()</text>
<polygon fill="#666666" stroke="#666666" points="74.75,-636 74.75,-636 232,-636 232,-636 74.75,-636"/>
<polygon fill="#666666" stroke="#666666" points="74.75,-620 74.75,-620 133.88,-620 133.88,-620 74.75,-620"/>
<polygon fill="#666666" stroke="#666666" points="133.88,-620 133.88,-620 232,-620 232,-620 133.88,-620"/>
<polygon fill="none" stroke="#666666" points="74.75,-538 74.75,-654 232,-654 232,-538 74.75,-538"/>
</a>
</g>
</g>
<!-- Node7&#45;&gt;Node3 -->
<g id="edge6_Node000003_Node000007" class="edge">
<title>Node7&#45;&gt;Node3</title>
<g id="a_edge6_Node000003_Node000007"><a xlink:title=" ">
<path fill="none" stroke="#63b8ff" d="M170.36,-538.34C175.12,-525.95 180.88,-513.2 187.62,-502 195.39,-489.1 204.96,-476.34 214.91,-464.5"/>
<polygon fill="none" stroke="#63b8ff" points="214.89,-464.53 215.79,-457.38 222.74,-455.46 221.84,-462.62 214.89,-464.53"/>
</a>
</g>
<text xml:space="preserve" text-anchor="start" x="190.62" y="-507.5" font-family="Helvetica,sans-Serif" font-size="10.00" fill="grey">&#45;write_queue_</text>
</g>
<!-- Node8 -->
<g id="Node000008" class="node">
<title>Node8</title>
<g id="a_Node000008"><a xlink:title=" ">
<polygon fill="white" stroke="none" points="205.5,-760 81.25,-760 81.25,-708 205.5,-708 205.5,-760"/>
<text xml:space="preserve" text-anchor="start" x="85.25" y="-746.5" font-family="Helvetica,sans-Serif" font-size="10.00">std::queue&lt; SERRecord &gt;</text>
<text xml:space="preserve" text-anchor="start" x="141.88" y="-730.5" font-family="Helvetica,sans-Serif" font-size="10.00"> </text>
<text xml:space="preserve" text-anchor="start" x="141.88" y="-714.5" font-family="Helvetica,sans-Serif" font-size="10.00"> </text>
<polygon fill="#666666" stroke="#666666" points="81.25,-742 81.25,-742 205.5,-742 205.5,-742 81.25,-742"/>
<polygon fill="#666666" stroke="#666666" points="81.25,-726 81.25,-726 205.5,-726 205.5,-726 81.25,-726"/>
<polygon fill="none" stroke="#666666" points="81.25,-708 81.25,-760 205.5,-760 205.5,-708 81.25,-708"/>
</a>
</g>
</g>
<!-- Node8&#45;&gt;Node7 -->
<g id="edge7_Node000007_Node000008" class="edge">
<title>Node8&#45;&gt;Node7</title>
<g id="a_edge7_Node000007_Node000008"><a xlink:title=" ">
<path fill="none" stroke="#63b8ff" d="M145.21,-708.06C146.07,-696.31 147.15,-681.66 148.24,-666.89"/>
<polygon fill="none" stroke="#63b8ff" points="148.24,-666.81 144.69,-660.53 149.12,-654.84 152.67,-661.12 148.24,-666.81"/>
</a>
</g>
<text xml:space="preserve" text-anchor="start" x="150.78" y="-677.5" font-family="Helvetica,sans-Serif" font-size="10.00" fill="grey">&#45;queue_</text>
</g>
<!-- Node9&#45;&gt;Node8 -->
<g id="edge8_Node000008_Node000009" class="edge">
<title>Node9&#45;&gt;Node8</title>
<g id="a_edge8_Node000008_Node000009"><a xlink:title=" ">
<path fill="none" stroke="#63b8ff" d="M139.67,-1152.27C140.39,-1070.86 142.27,-859.55 143.04,-772.9"/>
<polygon fill="none" stroke="#63b8ff" points="143.04,-772.77 139.09,-766.74 143.15,-760.77 147.09,-766.81 143.04,-772.77"/>
</a>
</g>
<text xml:space="preserve" text-anchor="start" x="145.96" y="-952.5" font-family="Helvetica,sans-Serif" font-size="10.00" fill="grey">+elements</text>
</g>
<!-- Node10 -->
<g id="Node000010" class="node">
<title>Node10</title>
<g id="a_Node000010"><a xlink:title=" ">
<polygon fill="white" stroke="none" points="286.62,-760 232.12,-760 232.12,-708 286.62,-708 286.62,-760"/>
<text xml:space="preserve" text-anchor="start" x="236.12" y="-746.5" font-family="Helvetica,sans-Serif" font-size="10.00">std::mutex</text>
<text xml:space="preserve" text-anchor="start" x="257.88" y="-730.5" font-family="Helvetica,sans-Serif" font-size="10.00"> </text>
<text xml:space="preserve" text-anchor="start" x="257.88" y="-714.5" font-family="Helvetica,sans-Serif" font-size="10.00"> </text>
<polygon fill="#666666" stroke="#666666" points="232.12,-742 232.12,-742 286.62,-742 286.62,-742 232.12,-742"/>
<polygon fill="#666666" stroke="#666666" points="232.12,-726 232.12,-726 286.62,-726 286.62,-726 232.12,-726"/>
<polygon fill="none" stroke="#666666" points="232.12,-708 232.12,-760 286.62,-760 286.62,-708 232.12,-708"/>
</a>
</g>
</g>
<!-- Node10&#45;&gt;Node3 -->
<g id="edge13_Node000003_Node000010" class="edge">
<title>Node10&#45;&gt;Node3</title>
<g id="a_edge13_Node000003_Node000010"><a xlink:title=" ">
<path fill="none" stroke="#63b8ff" d="M260.65,-708.2C262.94,-663.87 267.83,-568.92 271.55,-496.62"/>
<polygon fill="none" stroke="#63b8ff" points="271.55,-496.75 267.86,-490.55 272.16,-484.76 275.85,-490.96 271.55,-496.75"/>
</a>
</g>
<text xml:space="preserve" text-anchor="start" x="272.29" y="-592.5" font-family="Helvetica,sans-Serif" font-size="10.00" fill="grey">&#45;db_mutex_</text>
</g>
<!-- Node10&#45;&gt;Node7 -->
<g id="edge10_Node000007_Node000010" class="edge">
<title>Node10&#45;&gt;Node7</title>
<g id="a_edge10_Node000007_Node000010"><a xlink:title=" ">
<path fill="none" stroke="#63b8ff" d="M232.31,-709.97C225.71,-703.79 218.89,-696.9 213.12,-690 206.47,-682.05 199.97,-673.31 193.84,-664.47"/>
<polygon fill="none" stroke="#63b8ff" points="193.79,-664.38 187.12,-661.64 187.08,-654.43 193.75,-657.17 193.79,-664.38"/>
</a>
</g>
<text xml:space="preserve" text-anchor="start" x="216.12" y="-677.5" font-family="Helvetica,sans-Serif" font-size="10.00" fill="grey">&#45;mutex_</text>
</g>
<!-- Node11 -->
<g id="Node000011" class="node">
<title>Node11</title>
<g id="a_Node000011"><a xlink:title=" ">
<polygon fill="white" stroke="none" points="410.62,-622 356.12,-622 356.12,-570 410.62,-570 410.62,-622"/>
<text xml:space="preserve" text-anchor="start" x="360.12" y="-608.5" font-family="Helvetica,sans-Serif" font-size="10.00">std::thread</text>
<text xml:space="preserve" text-anchor="start" x="381.88" y="-592.5" font-family="Helvetica,sans-Serif" font-size="10.00"> </text>
<text xml:space="preserve" text-anchor="start" x="381.88" y="-576.5" font-family="Helvetica,sans-Serif" font-size="10.00"> </text>
<polygon fill="#666666" stroke="#666666" points="356.12,-604 356.12,-604 410.62,-604 410.62,-604 356.12,-604"/>
<polygon fill="#666666" stroke="#666666" points="356.12,-588 356.12,-588 410.62,-588 410.62,-588 356.12,-588"/>
<polygon fill="none" stroke="#666666" points="356.12,-570 356.12,-622 410.62,-622 410.62,-570 356.12,-570"/>
</a>
</g>
</g>
<!-- Node11&#45;&gt;Node3 -->
<g id="edge11_Node000003_Node000011" class="edge">
<title>Node11&#45;&gt;Node3</title>
<g id="a_edge11_Node000003_Node000011"><a xlink:title=" ">
<path fill="none" stroke="#63b8ff" d="M361.86,-570C352.38,-559.6 340.8,-547.71 329.38,-538 318.53,-528.78 310.9,-531.76 302.88,-520 297.85,-512.63 293.77,-504.45 290.45,-495.95"/>
<polygon fill="none" stroke="#63b8ff" points="290.45,-495.94 284.71,-491.57 286.54,-484.6 292.28,-488.97 290.45,-495.94"/>
</a>
</g>
<text xml:space="preserve" text-anchor="start" x="305.88" y="-507.5" font-family="Helvetica,sans-Serif" font-size="10.00" fill="grey">&#45;writer_thread_</text>
</g>
<!-- Node14 -->
<g id="Node000014" class="node">
<title>Node14</title>
<g id="a_Node000014"><a xlink:href="class_s_e_r_poller.html" target="_top" xlink:title="Periodic SER data polling thread.">
<polygon fill="white" stroke="none" points="563.12,-484 483.62,-484 483.62,-320 563.12,-320 563.12,-484"/>
<text xml:space="preserve" text-anchor="start" x="500.5" y="-470.5" font-family="Helvetica,sans-Serif" font-size="10.00">SERPoller</text>
<text xml:space="preserve" text-anchor="start" x="489.12" y="-454.5" font-family="Helvetica,sans-Serif" font-size="10.00">&#45;</text>
<text xml:space="preserve" text-anchor="start" x="497.62" y="-454.5" font-family="Helvetica,sans-Serif" font-size="10.00">poll_interval_</text>
<text xml:space="preserve" text-anchor="start" x="489.12" y="-438.5" font-family="Helvetica,sans-Serif" font-size="10.00">&#45;</text>
<text xml:space="preserve" text-anchor="start" x="497.62" y="-438.5" font-family="Helvetica,sans-Serif" font-size="10.00">poll_callback_</text>
<text xml:space="preserve" text-anchor="start" x="487.62" y="-422.5" font-family="Helvetica,sans-Serif" font-size="10.00">+</text>
<text xml:space="preserve" text-anchor="start" x="497.62" y="-422.5" font-family="Helvetica,sans-Serif" font-size="10.00">SERPoller()</text>
<text xml:space="preserve" text-anchor="start" x="487.62" y="-406.5" font-family="Helvetica,sans-Serif" font-size="10.00">+</text>
<text xml:space="preserve" text-anchor="start" x="497.62" y="-406.5" font-family="Helvetica,sans-Serif" font-size="10.00">~SERPoller()</text>
<text xml:space="preserve" text-anchor="start" x="487.62" y="-390.5" font-family="Helvetica,sans-Serif" font-size="10.00">+</text>
<text xml:space="preserve" text-anchor="start" x="497.62" y="-390.5" font-family="Helvetica,sans-Serif" font-size="10.00">setCallback()</text>
<text xml:space="preserve" text-anchor="start" x="487.62" y="-374.5" font-family="Helvetica,sans-Serif" font-size="10.00">+</text>
<text xml:space="preserve" text-anchor="start" x="497.62" y="-374.5" font-family="Helvetica,sans-Serif" font-size="10.00">start()</text>
<text xml:space="preserve" text-anchor="start" x="487.62" y="-358.5" font-family="Helvetica,sans-Serif" font-size="10.00">+</text>
<text xml:space="preserve" text-anchor="start" x="497.62" y="-358.5" font-family="Helvetica,sans-Serif" font-size="10.00">stop()</text>
<text xml:space="preserve" text-anchor="start" x="487.62" y="-342.5" font-family="Helvetica,sans-Serif" font-size="10.00">+</text>
<text xml:space="preserve" text-anchor="start" x="497.62" y="-342.5" font-family="Helvetica,sans-Serif" font-size="10.00">isRunning()</text>
<text xml:space="preserve" text-anchor="start" x="487.62" y="-326.5" font-family="Helvetica,sans-Serif" font-size="10.00">+</text>
<text xml:space="preserve" text-anchor="start" x="497.62" y="-326.5" font-family="Helvetica,sans-Serif" font-size="10.00">setInterval()</text>
<polygon fill="#666666" stroke="#666666" points="483.62,-466 483.62,-466 563.12,-466 563.12,-466 483.62,-466"/>
<polygon fill="#666666" stroke="#666666" points="483.62,-434 483.62,-434 495.62,-434 495.62,-434 483.62,-434"/>
<polygon fill="#666666" stroke="#666666" points="495.62,-434 495.62,-434 563.12,-434 563.12,-434 495.62,-434"/>
<polygon fill="none" stroke="#666666" points="483.62,-320 483.62,-484 563.12,-484 563.12,-320 483.62,-320"/>
</a>
</g>
</g>
<!-- Node11&#45;&gt;Node14 -->
<g id="edge16_Node000014_Node000011" class="edge">
<title>Node11&#45;&gt;Node14</title>
<g id="a_edge16_Node000014_Node000011"><a xlink:title=" ">
<path fill="none" stroke="#63b8ff" d="M382,-570.06C382.03,-550.33 384.62,-522.75 396.62,-502 414.39,-471.31 445.72,-446.7 472.79,-429.7"/>
<polygon fill="none" stroke="#63b8ff" points="472.65,-429.78 475.71,-423.26 482.92,-423.57 479.85,-430.1 472.65,-429.78"/>
</a>
</g>
<text xml:space="preserve" text-anchor="start" x="399.62" y="-507.5" font-family="Helvetica,sans-Serif" font-size="10.00" fill="grey">&#45;poller_thread_</text>
</g>
<!-- Node12 -->
<g id="Node000012" class="node">
<title>Node12</title>
<g id="a_Node000012"><a xlink:title=" ">
<polygon fill="white" stroke="none" points="611.75,-622 519,-622 519,-570 611.75,-570 611.75,-622"/>
<text xml:space="preserve" text-anchor="start" x="523" y="-608.5" font-family="Helvetica,sans-Serif" font-size="10.00">std::atomic&lt; bool &gt;</text>
<text xml:space="preserve" text-anchor="start" x="538.88" y="-592.5" font-family="Helvetica,sans-Serif" font-size="10.00">+</text>
<text xml:space="preserve" text-anchor="start" x="564.75" y="-592.5" font-family="Helvetica,sans-Serif" font-size="10.00">ptr</text>
<text xml:space="preserve" text-anchor="start" x="563.88" y="-576.5" font-family="Helvetica,sans-Serif" font-size="10.00"> </text>
<polygon fill="#666666" stroke="#666666" points="519,-604 519,-604 611.75,-604 611.75,-604 519,-604"/>
<polygon fill="#666666" stroke="#666666" points="519,-588 519,-588 562.75,-588 562.75,-588 519,-588"/>
<polygon fill="#666666" stroke="#666666" points="562.75,-588 562.75,-588 611.75,-588 611.75,-588 562.75,-588"/>
<polygon fill="none" stroke="#666666" points="519,-570 519,-622 611.75,-622 611.75,-570 519,-570"/>
</a>
</g>
</g>
<!-- Node12&#45;&gt;Node1 -->
<g id="edge18_Node000001_Node000012" class="edge">
<title>Node12&#45;&gt;Node1</title>
<g id="a_edge18_Node000001_Node000012"><a xlink:title=" ">
<path fill="none" stroke="#63b8ff" d="M582.99,-570.3C591.9,-556.27 601.78,-537.97 606.38,-520 641.37,-383.04 639.78,-337.75 600.38,-202 596.04,-187.05 589.46,-172.09 581.95,-157.96"/>
<polygon fill="none" stroke="#63b8ff" points="582.02,-158.09 575.61,-154.79 576.18,-147.6 582.6,-150.9 582.02,-158.09"/>
</a>
</g>
<text xml:space="preserve" text-anchor="start" x="627.86" y="-289.5" font-family="Helvetica,sans-Serif" font-size="10.00" fill="grey">&#45;running_</text>
</g>
<!-- Node12&#45;&gt;Node3 -->
<g id="edge12_Node000003_Node000012" class="edge">
<title>Node12&#45;&gt;Node3</title>
<g id="a_edge12_Node000003_Node000012"><a xlink:title=" ">
<path fill="none" stroke="#63b8ff" d="M539.75,-570.23C513.14,-544.64 474.31,-507.63 466.38,-502 427.07,-474.1 378.87,-449.08 340.85,-431.17"/>
<polygon fill="none" stroke="#63b8ff" points="341.1,-431.28 333.97,-432.38 330.22,-426.22 337.34,-425.13 341.1,-431.28"/>
</a>
</g>
<text xml:space="preserve" text-anchor="start" x="488.86" y="-507.5" font-family="Helvetica,sans-Serif" font-size="10.00" fill="grey">&#45;stop_flag_</text>
</g>
<!-- Node12&#45;&gt;Node14 -->
<g id="edge17_Node000014_Node000012" class="edge">
<title>Node12&#45;&gt;Node14</title>
<g id="a_edge17_Node000014_Node000012"><a xlink:title=" ">
<path fill="none" stroke="#63b8ff" d="M559.97,-570.29C555.8,-551.23 549.75,-523.59 543.77,-496.24"/>
<polygon fill="none" stroke="#63b8ff" points="543.79,-496.33 538.6,-491.32 541.23,-484.6 546.42,-489.61 543.79,-496.33"/>
</a>
</g>
<text xml:space="preserve" text-anchor="start" x="551.14" y="-507.5" font-family="Helvetica,sans-Serif" font-size="10.00" fill="grey">&#45;stop_flag_</text>
</g>
<!-- Node13 -->
<g id="Node000013" class="node">
<title>Node13</title>
<g id="a_Node000013"><a xlink:title=" ">
<polygon fill="white" stroke="none" points="591.5,-260 455.25,-260 455.25,-208 591.5,-208 591.5,-260"/>
<text xml:space="preserve" text-anchor="start" x="459.25" y="-246.5" font-family="Helvetica,sans-Serif" font-size="10.00">std::unique_ptr&lt; SERPoller &gt;</text>
<text xml:space="preserve" text-anchor="start" x="521.88" y="-230.5" font-family="Helvetica,sans-Serif" font-size="10.00"> </text>
<text xml:space="preserve" text-anchor="start" x="476.25" y="-214.5" font-family="Helvetica,sans-Serif" font-size="10.00">+</text>
<text xml:space="preserve" text-anchor="start" x="503.25" y="-214.5" font-family="Helvetica,sans-Serif" font-size="10.00">operator&#45;&gt;()</text>
<polygon fill="#666666" stroke="#666666" points="455.25,-242 455.25,-242 591.5,-242 591.5,-242 455.25,-242"/>
<polygon fill="#666666" stroke="#666666" points="455.25,-226 455.25,-226 591.5,-226 591.5,-226 455.25,-226"/>
<polygon fill="none" stroke="#666666" points="455.25,-208 455.25,-260 591.5,-260 591.5,-208 455.25,-208"/>
</a>
</g>
</g>
<!-- Node13&#45;&gt;Node1 -->
<g id="edge14_Node000001_Node000013" class="edge">
<title>Node13&#45;&gt;Node1</title>
<g id="a_edge14_Node000001_Node000013"><a xlink:title=" ">
<path fill="none" stroke="#63b8ff" d="M523.38,-208.31C523.38,-195.25 523.38,-178.34 523.38,-160.98"/>
<polygon fill="none" stroke="#63b8ff" points="523.38,-160.89 519.38,-154.89 523.38,-148.89 527.38,-154.89 523.38,-160.89"/>
</a>
</g>
<text xml:space="preserve" text-anchor="start" x="526.38" y="-171.5" font-family="Helvetica,sans-Serif" font-size="10.00" fill="grey">&#45;poller_</text>
</g>
<!-- Node14&#45;&gt;Node13 -->
<g id="edge15_Node000013_Node000014" class="edge">
<title>Node14&#45;&gt;Node13</title>
<g id="a_edge15_Node000013_Node000014"><a xlink:title=" ">
<path fill="none" stroke="#63b8ff" d="M523.38,-320.43C523.38,-303.78 523.38,-287 523.38,-272.77"/>
<polygon fill="none" stroke="#63b8ff" points="523.38,-272.9 519.38,-266.9 523.38,-260.9 527.38,-266.9 523.38,-272.9"/>
</a>
</g>
<text xml:space="preserve" text-anchor="start" x="526.38" y="-289.5" font-family="Helvetica,sans-Serif" font-size="10.00" fill="grey">+ptr</text>
</g>
</g>
</svg>

<g id="navigator" transform="translate(0 0)" fill="#404254">
  <rect fill="#f2f5e9" fill-opacity="0.5" stroke="#606060" stroke-width=".5" x="0" y="0" width="60" height="60"/>
  <use id="zoomplus" xlink:href="#zoomPlus" x="17" y="9" onmousedown="handleZoom(evt,'in')"/>
  <use id="zoomminus" xlink:href="#zoomMin" x="42" y="9" onmousedown="handleZoom(evt,'out')"/>
  <use id="reset" xlink:href="#resetDef" x="30" y="36" onmousedown="handleReset()"/>
   <use id="arrowup" xlink:href="#arrowUp" x="0" y="0" onmousedown="handlePan(0,-1)"/>
  <use id="arrowright" xlink:href="#arrowRight" x="0" y="0" onmousedown="handlePan(1,0)"/>
  <use id="arrowdown" xlink:href="#arrowDown" x="0" y="0" onmousedown="handlePan(0,1)"/>
  <use id="arrowleft" xlink:href="#arrowLeft" x="0" y="0" onmousedown="handlePan(-1,0)"/>
</g>
<svg viewBox="0 0 15 15" width="100%" height="30px" preserveAspectRatio="xMaxYMin meet">
 <g id="arrow_out" transform="scale(0.3 0.3)">
  <a xlink:href="class_thread_manager__coll__graph_org.svg" target="_base">
   <rect id="button" ry="5" rx="5" y="6" x="6" height="38" width="38"
        fill="#f2f5e9" fill-opacity="0.5" stroke="#606060" stroke-width="1.0"/>
   <path id="arrow"
     d="M 11.500037,31.436501 C 11.940474,20.09759 22.043105,11.32322 32.158766,21.979434 L 37.068811,17.246167 C 37.068811,17.246167 37.088388,32 37.088388,32 L 22.160133,31.978069 C 22.160133,31.978069 26.997745,27.140456 26.997745,27.140456 C 18.528582,18.264221 13.291696,25.230495 11.500037,31.436501 z"
     style="fill:#404040;"/>
  </a>
 </g>
</svg>

<style type='text/css'>
<![CDATA[
[data-mouse-over-selected='false'] { opacity: 0.7; }
[data-mouse-over-selected='true']  { opacity: 1.0; }
]]>
</style>
<script type="application/ecmascript"><![CDATA[
document.addEventListener('DOMContentLoaded', (event) => {
  highlightEdges();
  highlightAdjacentNodes();
});
]]></script>
</svg>
