<?xml version="1.0" encoding="UTF-8" standalone="no"?>
<!DOCTYPE svg PUBLIC "-//W3C//DTD SVG 1.1//EN"
 "http://www.w3.org/Graphics/SVG/1.1/DTD/svg11.dtd">
<!-- Generated by graphviz version 14.1.1 (20251213.1925)
 -->
<!-- Title: WebSocketListener Pages: 1 -->
<!--zoomable 1695 -->

<svg id="main" version="1.1" xmlns="http://www.w3.org/2000/svg" xmlns:xlink="http://www.w3.org/1999/xlink" xml:space="preserve" onload="init(evt)">

<style type="text/css"><![CDATA[
.node, .edge {opacity: 0.7;}
.node.selected, .edge.selected {opacity: 1;}
.edge:hover path { stroke: red; }
.edge:hover polygon { stroke: red; fill: red; }
]]></style>

<defs>
  <circle id="rim" cx="0" cy="0" r="7"/>
  <circle id="rim2" cx="0" cy="0" r="3.5"/>
  <g id="zoomPlus">
    <use xlink:href="#rim" fill="#404040"><set attributeName="fill" to="#808080" begin="zoomplus.mouseover" end="zoomplus.mouseout"/></use>
    <path d="M-4,0h8M0,-4v8" fill="none" stroke="white" stroke-width="1.5" pointer-events="none"/>
  </g>
  <g id="zoomMin">
    <use xlink:href="#rim" fill="#404040"><set attributeName="fill" to="#808080" begin="zoomminus.mouseover" end="zoomminus.mouseout"/></use>
    <path d="M-4,0h8" fill="none" stroke="white" stroke-width="1.5" pointer-events="none"/>
  </g>
  <g id="arrowUp" transform="translate(30 24)">
    <use xlink:href="#rim"/>
    <path pointer-events="none" fill="none" stroke="white" stroke-width="1.5" d="M0,-3.0v7 M-2.5,-0.5L0,-3.0L2.5,-0.5"/>
  </g>
  <g id="arrowRight" transform="rotate(90) translate(36 -43)">
    <use xlink:href="#rim"/>
    <path pointer-events="none" fill="none" stroke="white" stroke-width="1.5" d="M0,-3.0v7 M-2.5,-0.5L0,-3.0L2.5,-0.5"/>
  </g>
  <g id="arrowDown" transform="rotate(180) translate(-30 -48)">
    <use xlink:href="#rim"/>
    <path pointer-events="none" fill="none" stroke="white" stroke-width="1.5" d="M0,-3.0v7 M-2.5,-0.5L0,-3.0L2.5,-0.5"/>
  </g>
  <g id="arrowLeft" transform="rotate(270) translate(-36 17)">
    <use xlink:href="#rim"/>
    <path pointer-events="none" fill="none" stroke="white" stroke-width="1.5" d="M0,-3.0v7 M-2.5,-0.5L0,-3.0L2.5,-0.5"/>
  </g>
  <g id="resetDef">
    <use xlink:href="#rim2" fill="#404040"><set attributeName="fill" to="#808080" begin="reset.mouseover" end="reset.mouseout"/></use>
  </g>
</defs>
<script type="application/ecmascript">
var viewWidth = 896;
var viewHeight = 1695;
var sectionId = 'dynsection-1';
</script>
<script type="application/ecmascript" xlink:href="svg.min.js"/>
<svg id="graph" class="graph">
<g id="viewport">
<title>WebSocketListener</title>
<!-- Node1 -->
<g id="Node000001" class="node">
<title>Node1</title>
<g id="a_Node000001"><a xlink:title="Listens for and accepts incoming WebSocket connections.">
<polygon fill="#999999" stroke="none" points="238.62,-164 129.88,-164 129.88,0 238.62,0 238.62,-164"/>
<text xml:space="preserve" text-anchor="start" x="141.88" y="-150.5" font-family="Helvetica,sans-Serif" font-size="10.00">WebSocketListener</text>
<text xml:space="preserve" text-anchor="start" x="135.38" y="-134.5" font-family="Helvetica,sans-Serif" font-size="10.00">&#45;</text>
<text xml:space="preserve" text-anchor="start" x="143.88" y="-134.5" font-family="Helvetica,sans-Serif" font-size="10.00">ioc_</text>
<text xml:space="preserve" text-anchor="start" x="135.38" y="-118.5" font-family="Helvetica,sans-Serif" font-size="10.00">&#45;</text>
<text xml:space="preserve" text-anchor="start" x="143.88" y="-118.5" font-family="Helvetica,sans-Serif" font-size="10.00">acceptor_</text>
<text xml:space="preserve" text-anchor="start" x="135.38" y="-102.5" font-family="Helvetica,sans-Serif" font-size="10.00">&#45;</text>
<text xml:space="preserve" text-anchor="start" x="143.88" y="-102.5" font-family="Helvetica,sans-Serif" font-size="10.00">cmdHandler_</text>
<text xml:space="preserve" text-anchor="start" x="135.38" y="-86.5" font-family="Helvetica,sans-Serif" font-size="10.00">&#45;</text>
<text xml:space="preserve" text-anchor="start" x="143.88" y="-86.5" font-family="Helvetica,sans-Serif" font-size="10.00">actionHandler_</text>
<text xml:space="preserve" text-anchor="start" x="135.38" y="-70.5" font-family="Helvetica,sans-Serif" font-size="10.00">&#45;</text>
<text xml:space="preserve" text-anchor="start" x="143.88" y="-70.5" font-family="Helvetica,sans-Serif" font-size="10.00">streamCmdHandler_</text>
<text xml:space="preserve" text-anchor="start" x="133.88" y="-54.5" font-family="Helvetica,sans-Serif" font-size="10.00">+</text>
<text xml:space="preserve" text-anchor="start" x="143.88" y="-54.5" font-family="Helvetica,sans-Serif" font-size="10.00">WebSocketListener()</text>
<text xml:space="preserve" text-anchor="start" x="133.88" y="-38.5" font-family="Helvetica,sans-Serif" font-size="10.00">+</text>
<text xml:space="preserve" text-anchor="start" x="143.88" y="-38.5" font-family="Helvetica,sans-Serif" font-size="10.00">run()</text>
<text xml:space="preserve" text-anchor="start" x="135.38" y="-22.5" font-family="Helvetica,sans-Serif" font-size="10.00">&#45;</text>
<text xml:space="preserve" text-anchor="start" x="143.88" y="-22.5" font-family="Helvetica,sans-Serif" font-size="10.00">do_accept()</text>
<text xml:space="preserve" text-anchor="start" x="135.38" y="-6.5" font-family="Helvetica,sans-Serif" font-size="10.00">&#45;</text>
<text xml:space="preserve" text-anchor="start" x="143.88" y="-6.5" font-family="Helvetica,sans-Serif" font-size="10.00">on_accept()</text>
<polygon fill="#666666" stroke="#666666" points="129.88,-146 129.88,-146 238.62,-146 238.62,-146 129.88,-146"/>
<polygon fill="#666666" stroke="#666666" points="129.88,-66 129.88,-66 141.88,-66 141.88,-66 129.88,-66"/>
<polygon fill="#666666" stroke="#666666" points="141.88,-66 141.88,-66 238.62,-66 238.62,-66 141.88,-66"/>
<polygon fill="none" stroke="#666666" points="129.88,0 129.88,-164 238.62,-164 238.62,0 129.88,0"/>
</a>
</g>
</g>
<!-- Node2 -->
<g id="Node000002" class="node">
<title>Node2</title>
<g id="a_Node000002"><a xlink:title=" ">
<polygon fill="white" stroke="none" points="156.5,-300 0,-300 0,-236 156.5,-236 156.5,-300"/>
<text xml:space="preserve" text-anchor="start" x="4" y="-286.5" font-family="Helvetica,sans-Serif" font-size="10.00">std::enable_shared</text>
<text xml:space="preserve" text-anchor="start" x="4" y="-274.5" font-family="Helvetica,sans-Serif" font-size="10.00">_from_this&lt; WebSocketListener &gt;</text>
<text xml:space="preserve" text-anchor="start" x="76.75" y="-258.5" font-family="Helvetica,sans-Serif" font-size="10.00"> </text>
<text xml:space="preserve" text-anchor="start" x="76.75" y="-242.5" font-family="Helvetica,sans-Serif" font-size="10.00"> </text>
<polygon fill="#666666" stroke="#666666" points="0,-270 0,-270 156.5,-270 156.5,-270 0,-270"/>
<polygon fill="#666666" stroke="#666666" points="0,-254 0,-254 156.5,-254 156.5,-254 0,-254"/>
<polygon fill="none" stroke="#666666" points="0,-236 0,-300 156.5,-300 156.5,-236 0,-236"/>
</a>
</g>
</g>
<!-- Node2&#45;&gt;Node1 -->
<g id="edge1_Node000001_Node000002" class="edge">
<title>Node2&#45;&gt;Node1</title>
<g id="a_edge1_Node000001_Node000002"><a xlink:title=" ">
<path fill="none" stroke="#63b8ff" d="M101.63,-226.42C112.23,-208.01 125.17,-185.55 137.64,-163.92"/>
<polygon fill="none" stroke="#63b8ff" points="98.71,-224.48 96.75,-234.89 104.77,-227.97 98.71,-224.48"/>
</a>
</g>
</g>
<!-- Node3 -->
<g id="Node000003" class="node">
<title>Node3</title>
<g id="a_Node000003"><a xlink:href="class_s_e_r_database.html" target="_top" xlink:title="SQLite database handler for storing and retrieving SER records.">
<polygon fill="white" stroke="none" points="231.25,-1358 93.25,-1358 93.25,-1050 231.25,-1050 231.25,-1358"/>
<text xml:space="preserve" text-anchor="start" x="130.75" y="-1344.5" font-family="Helvetica,sans-Serif" font-size="10.00">SERDatabase</text>
<text xml:space="preserve" text-anchor="start" x="98.75" y="-1328.5" font-family="Helvetica,sans-Serif" font-size="10.00">&#45;</text>
<text xml:space="preserve" text-anchor="start" x="107.25" y="-1328.5" font-family="Helvetica,sans-Serif" font-size="10.00">db_</text>
<text xml:space="preserve" text-anchor="start" x="97.25" y="-1312.5" font-family="Helvetica,sans-Serif" font-size="10.00">+</text>
<text xml:space="preserve" text-anchor="start" x="107.25" y="-1312.5" font-family="Helvetica,sans-Serif" font-size="10.00">SERDatabase()</text>
<text xml:space="preserve" text-anchor="start" x="97.25" y="-1296.5" font-family="Helvetica,sans-Serif" font-size="10.00">+</text>
<text xml:space="preserve" text-anchor="start" x="107.25" y="-1296.5" font-family="Helvetica,sans-Serif" font-size="10.00">~SERDatabase()</text>
<text xml:space="preserve" text-anchor="start" x="97.25" y="-1280.5" font-family="Helvetica,sans-Serif" font-size="10.00">+</text>
<text xml:space="preserve" text-anchor="start" x="107.25" y="-1280.5" font-family="Helvetica,sans-Serif" font-size="10.00">open()</text>
<text xml:space="preserve" text-anchor="start" x="97.25" y="-1264.5" font-family="Helvetica,sans-Serif" font-size="10.00">+</text>
<text xml:space="preserve" text-anchor="start" x="107.25" y="-1264.5" font-family="Helvetica,sans-Serif" font-size="10.00">close()</text>
<text xml:space="preserve" text-anchor="start" x="97.25" y="-1248.5" font-family="Helvetica,sans-Serif" font-size="10.00">+</text>
<text xml:space="preserve" text-anchor="start" x="107.25" y="-1248.5" font-family="Helvetica,sans-Serif" font-size="10.00">isOpen()</text>
<text xml:space="preserve" text-anchor="start" x="97.25" y="-1232.5" font-family="Helvetica,sans-Serif" font-size="10.00">+</text>
<text xml:space="preserve" text-anchor="start" x="107.25" y="-1232.5" font-family="Helvetica,sans-Serif" font-size="10.00">insertRecord()</text>
<text xml:space="preserve" text-anchor="start" x="97.25" y="-1216.5" font-family="Helvetica,sans-Serif" font-size="10.00">+</text>
<text xml:space="preserve" text-anchor="start" x="107.25" y="-1216.5" font-family="Helvetica,sans-Serif" font-size="10.00">insertRecords()</text>
<text xml:space="preserve" text-anchor="start" x="97.25" y="-1200.5" font-family="Helvetica,sans-Serif" font-size="10.00">+</text>
<text xml:space="preserve" text-anchor="start" x="107.25" y="-1200.5" font-family="Helvetica,sans-Serif" font-size="10.00">insertAndGetNewRecords()</text>
<text xml:space="preserve" text-anchor="start" x="97.25" y="-1184.5" font-family="Helvetica,sans-Serif" font-size="10.00">+</text>
<text xml:space="preserve" text-anchor="start" x="107.25" y="-1184.5" font-family="Helvetica,sans-Serif" font-size="10.00">getAllRecords()</text>
<text xml:space="preserve" text-anchor="start" x="97.25" y="-1168.5" font-family="Helvetica,sans-Serif" font-size="10.00">+</text>
<text xml:space="preserve" text-anchor="start" x="107.25" y="-1168.5" font-family="Helvetica,sans-Serif" font-size="10.00">getRecordsByStatus()</text>
<text xml:space="preserve" text-anchor="start" x="107.25" y="-1152.5" font-family="Helvetica,sans-Serif" font-size="10.00">and 6 more...</text>
<text xml:space="preserve" text-anchor="start" x="97.25" y="-1136.5" font-family="Helvetica,sans-Serif" font-size="10.00">+</text>
<text xml:space="preserve" text-anchor="start" x="107.25" y="-1136.5" font-family="Helvetica,sans-Serif" font-size="10.00">SERDatabase()</text>
<text xml:space="preserve" text-anchor="start" x="97.25" y="-1120.5" font-family="Helvetica,sans-Serif" font-size="10.00">+</text>
<text xml:space="preserve" text-anchor="start" x="107.25" y="-1120.5" font-family="Helvetica,sans-Serif" font-size="10.00">operator=()</text>
<text xml:space="preserve" text-anchor="start" x="98.75" y="-1104.5" font-family="Helvetica,sans-Serif" font-size="10.00">&#45;</text>
<text xml:space="preserve" text-anchor="start" x="107.25" y="-1104.5" font-family="Helvetica,sans-Serif" font-size="10.00">createTable()</text>
<text xml:space="preserve" text-anchor="start" x="98.75" y="-1088.5" font-family="Helvetica,sans-Serif" font-size="10.00">&#45;</text>
<text xml:space="preserve" text-anchor="start" x="107.25" y="-1088.5" font-family="Helvetica,sans-Serif" font-size="10.00">recordExists()</text>
<text xml:space="preserve" text-anchor="start" x="98.38" y="-1072.5" font-family="Helvetica,sans-Serif" font-size="10.00">*</text>
<text xml:space="preserve" text-anchor="start" x="107.25" y="-1072.5" font-family="Helvetica,sans-Serif" font-size="10.00">SERDatabase()</text>
<text xml:space="preserve" text-anchor="start" x="98.38" y="-1056.5" font-family="Helvetica,sans-Serif" font-size="10.00">*</text>
<text xml:space="preserve" text-anchor="start" x="107.25" y="-1056.5" font-family="Helvetica,sans-Serif" font-size="10.00">operator=()</text>
<polygon fill="#666666" stroke="#666666" points="93.25,-1340 93.25,-1340 231.25,-1340 231.25,-1340 93.25,-1340"/>
<polygon fill="#666666" stroke="#666666" points="93.25,-1324 93.25,-1324 105.25,-1324 105.25,-1324 93.25,-1324"/>
<polygon fill="#666666" stroke="#666666" points="105.25,-1324 105.25,-1324 231.25,-1324 231.25,-1324 105.25,-1324"/>
<polygon fill="none" stroke="#666666" points="93.25,-1050 93.25,-1358 231.25,-1358 231.25,-1050 93.25,-1050"/>
</a>
</g>
</g>
<!-- Node3&#45;&gt;Node1 -->
<g id="edge2_Node000001_Node000003" class="edge">
<title>Node3&#45;&gt;Node1</title>
<g id="a_edge2_Node000001_Node000003"><a xlink:title=" ">
<path fill="none" stroke="#63b8ff" d="M174.6,-1050.2C179.62,-975.69 184.25,-884.72 184.25,-803 184.25,-803 184.25,-803 184.25,-267 184.25,-237.5 184.25,-205.35 184.25,-176.29"/>
<polygon fill="none" stroke="#63b8ff" points="184.25,-176.51 180.25,-170.51 184.25,-164.51 188.25,-170.51 184.25,-176.51"/>
</a>
</g>
<text xml:space="preserve" text-anchor="start" x="187.25" y="-459.5" font-family="Helvetica,sans-Serif" font-size="10.00" fill="grey">&#45;db_</text>
</g>
<!-- Node10 -->
<g id="Node000010" class="node">
<title>Node10</title>
<g id="a_Node000010"><a xlink:href="class_web_socket_session.html" target="_top" xlink:title="Handles a single WebSocket client connection.">
<polygon fill="white" stroke="none" points="529,-996 413.5,-996 413.5,-608 529,-608 529,-996"/>
<text xml:space="preserve" text-anchor="start" x="428.5" y="-982.5" font-family="Helvetica,sans-Serif" font-size="10.00">WebSocketSession</text>
<text xml:space="preserve" text-anchor="start" x="419" y="-966.5" font-family="Helvetica,sans-Serif" font-size="10.00">&#45;</text>
<text xml:space="preserve" text-anchor="start" x="427.5" y="-966.5" font-family="Helvetica,sans-Serif" font-size="10.00">ws_</text>
<text xml:space="preserve" text-anchor="start" x="419" y="-950.5" font-family="Helvetica,sans-Serif" font-size="10.00">&#45;</text>
<text xml:space="preserve" text-anchor="start" x="427.5" y="-950.5" font-family="Helvetica,sans-Serif" font-size="10.00">buffer_</text>
<text xml:space="preserve" text-anchor="start" x="419" y="-934.5" font-family="Helvetica,sans-Serif" font-size="10.00">&#45;</text>
<text xml:space="preserve" text-anchor="start" x="427.5" y="-934.5" font-family="Helvetica,sans-Serif" font-size="10.00">writing_</text>
<text xml:space="preserve" text-anchor="start" x="419" y="-918.5" font-family="Helvetica,sans-Serif" font-size="10.00">&#45;</text>
<text xml:space="preserve" text-anchor="start" x="427.5" y="-918.5" font-family="Helvetica,sans-Serif" font-size="10.00">pending_read_</text>
<text xml:space="preserve" text-anchor="start" x="419" y="-902.5" font-family="Helvetica,sans-Serif" font-size="10.00">&#45;</text>
<text xml:space="preserve" text-anchor="start" x="427.5" y="-902.5" font-family="Helvetica,sans-Serif" font-size="10.00">cmdHandler_</text>
<text xml:space="preserve" text-anchor="start" x="419" y="-886.5" font-family="Helvetica,sans-Serif" font-size="10.00">&#45;</text>
<text xml:space="preserve" text-anchor="start" x="427.5" y="-886.5" font-family="Helvetica,sans-Serif" font-size="10.00">actionHandler_</text>
<text xml:space="preserve" text-anchor="start" x="419" y="-870.5" font-family="Helvetica,sans-Serif" font-size="10.00">&#45;</text>
<text xml:space="preserve" text-anchor="start" x="427.5" y="-870.5" font-family="Helvetica,sans-Serif" font-size="10.00">streamCmdHandler_</text>
<text xml:space="preserve" text-anchor="start" x="417.5" y="-854.5" font-family="Helvetica,sans-Serif" font-size="10.00">+</text>
<text xml:space="preserve" text-anchor="start" x="427.5" y="-854.5" font-family="Helvetica,sans-Serif" font-size="10.00">WebSocketSession()</text>
<text xml:space="preserve" text-anchor="start" x="417.5" y="-838.5" font-family="Helvetica,sans-Serif" font-size="10.00">+</text>
<text xml:space="preserve" text-anchor="start" x="427.5" y="-838.5" font-family="Helvetica,sans-Serif" font-size="10.00">~WebSocketSession()</text>
<text xml:space="preserve" text-anchor="start" x="417.5" y="-822.5" font-family="Helvetica,sans-Serif" font-size="10.00">+</text>
<text xml:space="preserve" text-anchor="start" x="427.5" y="-822.5" font-family="Helvetica,sans-Serif" font-size="10.00">sendBroadcast()</text>
<text xml:space="preserve" text-anchor="start" x="417.5" y="-806.5" font-family="Helvetica,sans-Serif" font-size="10.00">+</text>
<text xml:space="preserve" text-anchor="start" x="427.5" y="-806.5" font-family="Helvetica,sans-Serif" font-size="10.00">sendTextBroadcast()</text>
<text xml:space="preserve" text-anchor="start" x="417.5" y="-790.5" font-family="Helvetica,sans-Serif" font-size="10.00">+</text>
<text xml:space="preserve" text-anchor="start" x="427.5" y="-790.5" font-family="Helvetica,sans-Serif" font-size="10.00">run()</text>
<text xml:space="preserve" text-anchor="start" x="419" y="-774.5" font-family="Helvetica,sans-Serif" font-size="10.00">&#45;</text>
<text xml:space="preserve" text-anchor="start" x="427.5" y="-774.5" font-family="Helvetica,sans-Serif" font-size="10.00">on_accept()</text>
<text xml:space="preserve" text-anchor="start" x="419" y="-758.5" font-family="Helvetica,sans-Serif" font-size="10.00">&#45;</text>
<text xml:space="preserve" text-anchor="start" x="427.5" y="-758.5" font-family="Helvetica,sans-Serif" font-size="10.00">do_broadcast()</text>
<text xml:space="preserve" text-anchor="start" x="419" y="-742.5" font-family="Helvetica,sans-Serif" font-size="10.00">&#45;</text>
<text xml:space="preserve" text-anchor="start" x="427.5" y="-742.5" font-family="Helvetica,sans-Serif" font-size="10.00">on_broadcast_write()</text>
<text xml:space="preserve" text-anchor="start" x="419" y="-726.5" font-family="Helvetica,sans-Serif" font-size="10.00">&#45;</text>
<text xml:space="preserve" text-anchor="start" x="427.5" y="-726.5" font-family="Helvetica,sans-Serif" font-size="10.00">drainQueue()</text>
<text xml:space="preserve" text-anchor="start" x="419" y="-710.5" font-family="Helvetica,sans-Serif" font-size="10.00">&#45;</text>
<text xml:space="preserve" text-anchor="start" x="427.5" y="-710.5" font-family="Helvetica,sans-Serif" font-size="10.00">do_read()</text>
<text xml:space="preserve" text-anchor="start" x="419" y="-694.5" font-family="Helvetica,sans-Serif" font-size="10.00">&#45;</text>
<text xml:space="preserve" text-anchor="start" x="427.5" y="-694.5" font-family="Helvetica,sans-Serif" font-size="10.00">on_read()</text>
<text xml:space="preserve" text-anchor="start" x="419" y="-678.5" font-family="Helvetica,sans-Serif" font-size="10.00">&#45;</text>
<text xml:space="preserve" text-anchor="start" x="427.5" y="-678.5" font-family="Helvetica,sans-Serif" font-size="10.00">sendData()</text>
<text xml:space="preserve" text-anchor="start" x="419" y="-662.5" font-family="Helvetica,sans-Serif" font-size="10.00">&#45;</text>
<text xml:space="preserve" text-anchor="start" x="427.5" y="-662.5" font-family="Helvetica,sans-Serif" font-size="10.00">on_write()</text>
<text xml:space="preserve" text-anchor="start" x="419" y="-646.5" font-family="Helvetica,sans-Serif" font-size="10.00">&#45;</text>
<text xml:space="preserve" text-anchor="start" x="427.5" y="-646.5" font-family="Helvetica,sans-Serif" font-size="10.00">sendTextResponse()</text>
<text xml:space="preserve" text-anchor="start" x="419" y="-630.5" font-family="Helvetica,sans-Serif" font-size="10.00">&#45;</text>
<text xml:space="preserve" text-anchor="start" x="427.5" y="-630.5" font-family="Helvetica,sans-Serif" font-size="10.00">isJsonAction()</text>
<text xml:space="preserve" text-anchor="start" x="419" y="-614.5" font-family="Helvetica,sans-Serif" font-size="10.00">&#45;</text>
<text xml:space="preserve" text-anchor="start" x="427.5" y="-614.5" font-family="Helvetica,sans-Serif" font-size="10.00">extractAction()</text>
<polygon fill="#666666" stroke="#666666" points="413.5,-978 413.5,-978 529,-978 529,-978 413.5,-978"/>
<polygon fill="#666666" stroke="#666666" points="413.5,-866 413.5,-866 425.5,-866 425.5,-866 413.5,-866"/>
<polygon fill="#666666" stroke="#666666" points="425.5,-866 425.5,-866 529,-866 529,-866 425.5,-866"/>
<polygon fill="none" stroke="#666666" points="413.5,-608 413.5,-996 529,-996 529,-608 413.5,-608"/>
</a>
</g>
</g>
<!-- Node3&#45;&gt;Node10 -->
<g id="edge11_Node000010_Node000003" class="edge">
<title>Node3&#45;&gt;Node10</title>
<g id="a_edge11_Node000010_Node000003"><a xlink:title=" ">
<path fill="none" stroke="#63b8ff" d="M231.16,-1063.56C234.13,-1058.93 237.17,-1054.39 240.25,-1050 288.55,-981.14 355.14,-911.99 404.42,-864.45"/>
<polygon fill="none" stroke="#63b8ff" points="404.41,-864.46 405.97,-857.42 413.07,-856.15 411.51,-863.19 404.41,-864.46"/>
</a>
</g>
<text xml:space="preserve" text-anchor="start" x="264.98" y="-1019.5" font-family="Helvetica,sans-Serif" font-size="10.00" fill="grey">&#45;db_</text>
</g>
<!-- Node4 -->
<g id="Node000004" class="node">
<title>Node4</title>
<g id="a_Node000004"><a xlink:title=" ">
<polygon fill="white" stroke="none" points="633,-1586 581.5,-1586 581.5,-1534 633,-1534 633,-1586"/>
<text xml:space="preserve" text-anchor="start" x="585.5" y="-1572.5" font-family="Helvetica,sans-Serif" font-size="10.00">std::string</text>
<text xml:space="preserve" text-anchor="start" x="605.75" y="-1556.5" font-family="Helvetica,sans-Serif" font-size="10.00"> </text>
<text xml:space="preserve" text-anchor="start" x="605.75" y="-1540.5" font-family="Helvetica,sans-Serif" font-size="10.00"> </text>
<polygon fill="#666666" stroke="#666666" points="581.5,-1568 581.5,-1568 633,-1568 633,-1568 581.5,-1568"/>
<polygon fill="#666666" stroke="#666666" points="581.5,-1552 581.5,-1552 633,-1552 633,-1552 581.5,-1552"/>
<polygon fill="none" stroke="#666666" points="581.5,-1534 581.5,-1586 633,-1586 633,-1534 581.5,-1534"/>
</a>
</g>
</g>
<!-- Node4&#45;&gt;Node3 -->
<g id="edge3_Node000003_Node000004" class="edge">
<title>Node4&#45;&gt;Node3</title>
<g id="a_edge3_Node000003_Node000004"><a xlink:title=" ">
<path fill="none" stroke="#63b8ff" d="M581.71,-1550.97C516.92,-1529.47 343.98,-1464.85 240.25,-1358 240.06,-1357.8 239.86,-1357.6 239.67,-1357.4"/>
<polygon fill="none" stroke="#63b8ff" points="239.81,-1357.56 232.83,-1355.76 231.8,-1348.63 238.78,-1350.42 239.81,-1357.56"/>
</a>
</g>
<text xml:space="preserve" text-anchor="start" x="412.25" y="-1458.5" font-family="Helvetica,sans-Serif" font-size="10.00" fill="grey">&#45;db_path_</text>
<text xml:space="preserve" text-anchor="start" x="412.25" y="-1442.5" font-family="Helvetica,sans-Serif" font-size="10.00" fill="grey">&#45;last_error_</text>
</g>
<!-- Node4&#45;&gt;Node10 -->
<g id="edge14_Node000010_Node000004" class="edge">
<title>Node4&#45;&gt;Node10</title>
<g id="a_edge14_Node000010_Node000004"><a xlink:title=" ">
<path fill="none" stroke="#63b8ff" d="M632.8,-1545.13C654.23,-1531.76 682.93,-1509.25 693.25,-1480 725.03,-1389.88 727.45,-1139.22 693.25,-1050 662.41,-969.54 591.92,-898.85 538.58,-853.93"/>
<polygon fill="none" stroke="#63b8ff" points="538.77,-854.09 531.59,-853.34 529.53,-846.43 536.7,-847.18 538.77,-854.09"/>
</a>
</g>
<text xml:space="preserve" text-anchor="start" x="715.39" y="-1389.5" font-family="Helvetica,sans-Serif" font-size="10.00" fill="grey">&#45;text_write_buffer_</text>
</g>
<!-- Node15 -->
<g id="Node000015" class="node">
<title>Node15</title>
<g id="a_Node000015"><a xlink:href="struct_web_socket_session_1_1_pending_msg.html" target="_top" xlink:title="Pending message: binary payload or text string, with mode flag.">
<polygon fill="white" stroke="none" points="684,-1480 530.5,-1480 530.5,-1428 684,-1428 684,-1480"/>
<text xml:space="preserve" text-anchor="start" x="534.5" y="-1466.5" font-family="Helvetica,sans-Serif" font-size="10.00">WebSocketSession::PendingMsg</text>
<text xml:space="preserve" text-anchor="start" x="563.88" y="-1450.5" font-family="Helvetica,sans-Serif" font-size="10.00">+</text>
<text xml:space="preserve" text-anchor="start" x="603.25" y="-1450.5" font-family="Helvetica,sans-Serif" font-size="10.00">kind</text>
<text xml:space="preserve" text-anchor="start" x="605.75" y="-1434.5" font-family="Helvetica,sans-Serif" font-size="10.00"> </text>
<polygon fill="#666666" stroke="#666666" points="530.5,-1462 530.5,-1462 684,-1462 684,-1462 530.5,-1462"/>
<polygon fill="#666666" stroke="#666666" points="530.5,-1446 530.5,-1446 601.25,-1446 601.25,-1446 530.5,-1446"/>
<polygon fill="#666666" stroke="#666666" points="601.25,-1446 601.25,-1446 684,-1446 684,-1446 601.25,-1446"/>
<polygon fill="none" stroke="#666666" points="530.5,-1428 530.5,-1480 684,-1480 684,-1428 530.5,-1428"/>
</a>
</g>
</g>
<!-- Node4&#45;&gt;Node15 -->
<g id="edge19_Node000015_Node000004" class="edge">
<title>Node4&#45;&gt;Node15</title>
<g id="a_edge19_Node000015_Node000004"><a xlink:title=" ">
<path fill="none" stroke="#63b8ff" d="M607.25,-1534.09C607.25,-1521.61 607.25,-1506.25 607.25,-1492.39"/>
<polygon fill="none" stroke="#63b8ff" points="607.25,-1492.61 603.25,-1486.61 607.25,-1480.61 611.25,-1486.61 607.25,-1492.61"/>
</a>
</g>
<text xml:space="preserve" text-anchor="start" x="610.25" y="-1503.5" font-family="Helvetica,sans-Serif" font-size="10.00" fill="grey">+text_data</text>
</g>
<!-- Node5 -->
<g id="Node000005" class="node">
<title>Node5</title>
<g id="a_Node000005"><a xlink:title=" ">
<polygon fill="white" stroke="none" points="650.25,-1687 564.25,-1687 564.25,-1623 650.25,-1623 650.25,-1687"/>
<text xml:space="preserve" text-anchor="start" x="568.25" y="-1673.5" font-family="Helvetica,sans-Serif" font-size="10.00">std::basic_string&lt;</text>
<text xml:space="preserve" text-anchor="start" x="590.75" y="-1661.5" font-family="Helvetica,sans-Serif" font-size="10.00"> Char &gt;</text>
<text xml:space="preserve" text-anchor="start" x="605.75" y="-1645.5" font-family="Helvetica,sans-Serif" font-size="10.00"> </text>
<text xml:space="preserve" text-anchor="start" x="605.75" y="-1629.5" font-family="Helvetica,sans-Serif" font-size="10.00"> </text>
<polygon fill="#666666" stroke="#666666" points="564.25,-1657 564.25,-1657 650.25,-1657 650.25,-1657 564.25,-1657"/>
<polygon fill="#666666" stroke="#666666" points="564.25,-1641 564.25,-1641 650.25,-1641 650.25,-1641 564.25,-1641"/>
<polygon fill="none" stroke="#666666" points="564.25,-1623 564.25,-1687 650.25,-1687 650.25,-1623 564.25,-1623"/>
</a>
</g>
</g>
<!-- Node5&#45;&gt;Node4 -->
<g id="edge4_Node000004_Node000005" class="edge">
<title>Node5&#45;&gt;Node4</title>
<g id="a_edge4_Node000004_Node000005"><a xlink:title=" ">
<path fill="none" stroke="#63b8ff" d="M607.25,-1611.69C607.25,-1602.89 607.25,-1593.89 607.25,-1585.96"/>
<polygon fill="none" stroke="#63b8ff" points="603.75,-1611.52 607.25,-1621.52 610.75,-1611.52 603.75,-1611.52"/>
</a>
</g>
</g>
<!-- Node6 -->
<g id="Node000006" class="node">
<title>Node6</title>
<g id="a_Node000006"><a xlink:href="class_session_manager.html" target="_top" xlink:title="Manages all active WebSocket sessions for broadcast.">
<polygon fill="white" stroke="none" points="408.62,-318 327.88,-318 327.88,-218 408.62,-218 408.62,-318"/>
<text xml:space="preserve" text-anchor="start" x="331.88" y="-304.5" font-family="Helvetica,sans-Serif" font-size="10.00">SessionManager</text>
<text xml:space="preserve" text-anchor="start" x="366.75" y="-288.5" font-family="Helvetica,sans-Serif" font-size="10.00"> </text>
<text xml:space="preserve" text-anchor="start" x="332.56" y="-272.5" font-family="Helvetica,sans-Serif" font-size="10.00">+</text>
<text xml:space="preserve" text-anchor="start" x="343.25" y="-272.5" font-family="Helvetica,sans-Serif" font-size="10.00">add()</text>
<text xml:space="preserve" text-anchor="start" x="332.56" y="-256.5" font-family="Helvetica,sans-Serif" font-size="10.00">+</text>
<text xml:space="preserve" text-anchor="start" x="343.25" y="-256.5" font-family="Helvetica,sans-Serif" font-size="10.00">remove()</text>
<text xml:space="preserve" text-anchor="start" x="332.56" y="-240.5" font-family="Helvetica,sans-Serif" font-size="10.00">+</text>
<text xml:space="preserve" text-anchor="start" x="343.25" y="-240.5" font-family="Helvetica,sans-Serif" font-size="10.00">getSessions()</text>
<text xml:space="preserve" text-anchor="start" x="332.56" y="-224.5" font-family="Helvetica,sans-Serif" font-size="10.00">+</text>
<text xml:space="preserve" text-anchor="start" x="343.25" y="-224.5" font-family="Helvetica,sans-Serif" font-size="10.00">count()</text>
<polygon fill="#666666" stroke="#666666" points="327.88,-300 327.88,-300 408.62,-300 408.62,-300 327.88,-300"/>
<polygon fill="#666666" stroke="#666666" points="327.88,-284 327.88,-284 408.62,-284 408.62,-284 327.88,-284"/>
<polygon fill="none" stroke="#666666" points="327.88,-218 327.88,-318 408.62,-318 408.62,-218 327.88,-218"/>
</a>
</g>
</g>
<!-- Node6&#45;&gt;Node1 -->
<g id="edge5_Node000001_Node000006" class="edge">
<title>Node6&#45;&gt;Node1</title>
<g id="a_edge5_Node000001_Node000006"><a xlink:title=" ">
<path fill="none" stroke="#63b8ff" d="M328.32,-227.07C304.68,-203.43 274.19,-172.94 247.35,-146.1"/>
<polygon fill="none" stroke="#63b8ff" points="247.53,-146.28 240.46,-144.87 239.05,-137.8 246.12,-139.21 247.53,-146.28"/>
</a>
</g>
<text xml:space="preserve" text-anchor="start" x="301.14" y="-187.5" font-family="Helvetica,sans-Serif" font-size="10.00" fill="grey">&#45;sessionMgr_</text>
</g>
<!-- Node6&#45;&gt;Node10 -->
<g id="edge12_Node000010_Node000006" class="edge">
<title>Node6&#45;&gt;Node10</title>
<g id="a_edge12_Node000010_Node000006"><a xlink:title=" ">
<path fill="none" stroke="#63b8ff" d="M408.58,-297.32C421.34,-308.1 434.4,-321.35 443.25,-336 451.78,-350.12 449.87,-355.68 452.25,-372 462.79,-444.38 468.04,-524.29 470.51,-595.33"/>
<polygon fill="none" stroke="#63b8ff" points="470.51,-595.13 474.7,-601 470.9,-607.12 466.7,-601.26 470.51,-595.13"/>
</a>
</g>
<text xml:space="preserve" text-anchor="start" x="466.34" y="-459.5" font-family="Helvetica,sans-Serif" font-size="10.00" fill="grey">&#45;sessionMgr_</text>
</g>
<!-- Node7 -->
<g id="Node000007" class="node">
<title>Node7</title>
<g id="a_Node000007"><a xlink:title=" ">
<polygon fill="white" stroke="none" points="443.5,-430 389,-430 389,-378 443.5,-378 443.5,-430"/>
<text xml:space="preserve" text-anchor="start" x="393" y="-416.5" font-family="Helvetica,sans-Serif" font-size="10.00">std::mutex</text>
<text xml:space="preserve" text-anchor="start" x="414.75" y="-400.5" font-family="Helvetica,sans-Serif" font-size="10.00"> </text>
<text xml:space="preserve" text-anchor="start" x="414.75" y="-384.5" font-family="Helvetica,sans-Serif" font-size="10.00"> </text>
<polygon fill="#666666" stroke="#666666" points="389,-412 389,-412 443.5,-412 443.5,-412 389,-412"/>
<polygon fill="#666666" stroke="#666666" points="389,-396 389,-396 443.5,-396 443.5,-396 389,-396"/>
<polygon fill="none" stroke="#666666" points="389,-378 389,-430 443.5,-430 443.5,-378 389,-378"/>
</a>
</g>
</g>
<!-- Node7&#45;&gt;Node6 -->
<g id="edge6_Node000006_Node000007" class="edge">
<title>Node7&#45;&gt;Node6</title>
<g id="a_edge6_Node000006_Node000007"><a xlink:title=" ">
<path fill="none" stroke="#63b8ff" d="M407.33,-378.11C402.47,-364.53 396.21,-347.06 390.14,-330.11"/>
<polygon fill="none" stroke="#63b8ff" points="390.12,-330.06 384.33,-325.76 386.07,-318.76 391.86,-323.06 390.12,-330.06"/>
</a>
</g>
<text xml:space="preserve" text-anchor="start" x="400.96" y="-341.5" font-family="Helvetica,sans-Serif" font-size="10.00" fill="grey">&#45;mutex_</text>
</g>
<!-- Node8 -->
<g id="Node000008" class="node">
<title>Node8</title>
<g id="a_Node000008"><a xlink:title=" ">
<polygon fill="white" stroke="none" points="370.75,-436 233.75,-436 233.75,-372 370.75,-372 370.75,-436"/>
<text xml:space="preserve" text-anchor="start" x="237.75" y="-422.5" font-family="Helvetica,sans-Serif" font-size="10.00">std::set&lt; std::shared</text>
<text xml:space="preserve" text-anchor="start" x="237.75" y="-410.5" font-family="Helvetica,sans-Serif" font-size="10.00">_ptr&lt; WebSocketSession &gt; &gt;</text>
<text xml:space="preserve" text-anchor="start" x="300.75" y="-394.5" font-family="Helvetica,sans-Serif" font-size="10.00"> </text>
<text xml:space="preserve" text-anchor="start" x="300.75" y="-378.5" font-family="Helvetica,sans-Serif" font-size="10.00"> </text>
<polygon fill="#666666" stroke="#666666" points="233.75,-406 233.75,-406 370.75,-406 370.75,-406 233.75,-406"/>
<polygon fill="#666666" stroke="#666666" points="233.75,-390 233.75,-390 370.75,-390 370.75,-390 233.75,-390"/>
<polygon fill="none" stroke="#666666" points="233.75,-372 233.75,-436 370.75,-436 370.75,-372 233.75,-372"/>
</a>
</g>
</g>
<!-- Node8&#45;&gt;Node6 -->
<g id="edge7_Node000006_Node000008" class="edge">
<title>Node8&#45;&gt;Node6</title>
<g id="a_edge7_Node000006_Node000008"><a xlink:title=" ">
<path fill="none" stroke="#63b8ff" d="M317.21,-372.29C322.78,-360.89 329.16,-347.85 335,-336 336.1,-333.77 337.22,-331.5 338.35,-329.21"/>
<polygon fill="none" stroke="#63b8ff" points="338.34,-329.22 337.42,-322.07 343.66,-318.46 344.59,-325.61 338.34,-329.22"/>
</a>
</g>
<text xml:space="preserve" text-anchor="start" x="338" y="-341.5" font-family="Helvetica,sans-Serif" font-size="10.00" fill="grey">&#45;sessions_</text>
</g>
<!-- Node9 -->
<g id="Node000009" class="node">
<title>Node9</title>
<g id="a_Node000009"><a xlink:title=" ">
<polygon fill="white" stroke="none" points="424.5,-554 292,-554 292,-490 424.5,-490 424.5,-554"/>
<text xml:space="preserve" text-anchor="start" x="296" y="-540.5" font-family="Helvetica,sans-Serif" font-size="10.00">std::shared_ptr&lt; WebSocket</text>
<text xml:space="preserve" text-anchor="start" x="336.12" y="-528.5" font-family="Helvetica,sans-Serif" font-size="10.00">Session &gt;</text>
<text xml:space="preserve" text-anchor="start" x="356.75" y="-512.5" font-family="Helvetica,sans-Serif" font-size="10.00"> </text>
<text xml:space="preserve" text-anchor="start" x="312.06" y="-496.5" font-family="Helvetica,sans-Serif" font-size="10.00">+</text>
<text xml:space="preserve" text-anchor="start" x="338.12" y="-496.5" font-family="Helvetica,sans-Serif" font-size="10.00">operator&#45;&gt;()</text>
<polygon fill="#666666" stroke="#666666" points="292,-524 292,-524 424.5,-524 424.5,-524 292,-524"/>
<polygon fill="#666666" stroke="#666666" points="292,-508 292,-508 424.5,-508 424.5,-508 292,-508"/>
<polygon fill="none" stroke="#666666" points="292,-490 292,-554 424.5,-554 424.5,-490 292,-490"/>
</a>
</g>
</g>
<!-- Node9&#45;&gt;Node8 -->
<g id="edge8_Node000008_Node000009" class="edge">
<title>Node9&#45;&gt;Node8</title>
<g id="a_edge8_Node000008_Node000009"><a xlink:title=" ">
<path fill="none" stroke="#63b8ff" d="M343.39,-490.22C337.06,-477.11 329.57,-461.6 322.73,-447.43"/>
<polygon fill="none" stroke="#63b8ff" points="322.79,-447.54 316.58,-443.88 317.57,-436.74 323.78,-440.4 322.79,-447.54"/>
</a>
</g>
<text xml:space="preserve" text-anchor="start" x="336.6" y="-459.5" font-family="Helvetica,sans-Serif" font-size="10.00" fill="grey">+keys</text>
</g>
<!-- Node10&#45;&gt;Node9 -->
<g id="edge9_Node000009_Node000010" class="edge">
<title>Node10&#45;&gt;Node9</title>
<g id="a_edge9_Node000009_Node000010"><a xlink:title=" ">
<path fill="none" stroke="#63b8ff" d="M413.59,-659.15C399.7,-624.98 385.91,-591.05 375.57,-565.6"/>
<polygon fill="none" stroke="#63b8ff" points="375.64,-565.78 369.67,-561.73 371.12,-554.66 377.09,-558.72 375.64,-565.78"/>
</a>
</g>
<text xml:space="preserve" text-anchor="start" x="385.66" y="-577.5" font-family="Helvetica,sans-Serif" font-size="10.00" fill="grey">+ptr</text>
</g>
<!-- Node11 -->
<g id="Node000011" class="node">
<title>Node11</title>
<g id="a_Node000011"><a xlink:title=" ">
<polygon fill="white" stroke="none" points="406.88,-1236 249.62,-1236 249.62,-1172 406.88,-1172 406.88,-1236"/>
<text xml:space="preserve" text-anchor="start" x="253.62" y="-1222.5" font-family="Helvetica,sans-Serif" font-size="10.00">std::enable_shared</text>
<text xml:space="preserve" text-anchor="start" x="253.62" y="-1210.5" font-family="Helvetica,sans-Serif" font-size="10.00">_from_this&lt; WebSocketSession &gt;</text>
<text xml:space="preserve" text-anchor="start" x="326.75" y="-1194.5" font-family="Helvetica,sans-Serif" font-size="10.00"> </text>
<text xml:space="preserve" text-anchor="start" x="326.75" y="-1178.5" font-family="Helvetica,sans-Serif" font-size="10.00"> </text>
<polygon fill="#666666" stroke="#666666" points="249.62,-1206 249.62,-1206 406.88,-1206 406.88,-1206 249.62,-1206"/>
<polygon fill="#666666" stroke="#666666" points="249.62,-1190 249.62,-1190 406.88,-1190 406.88,-1190 249.62,-1190"/>
<polygon fill="none" stroke="#666666" points="249.62,-1172 249.62,-1236 406.88,-1236 406.88,-1172 249.62,-1172"/>
</a>
</g>
</g>
<!-- Node11&#45;&gt;Node10 -->
<g id="edge10_Node000010_Node000011" class="edge">
<title>Node11&#45;&gt;Node10</title>
<g id="a_edge10_Node000010_Node000011"><a xlink:title=" ">
<path fill="none" stroke="#63b8ff" d="M343.02,-1161.7C359.69,-1115.05 387.86,-1036.27 413.55,-964.4"/>
<polygon fill="none" stroke="#63b8ff" points="339.81,-1160.26 339.74,-1170.85 346.41,-1162.61 339.81,-1160.26"/>
</a>
</g>
</g>
<!-- Node12 -->
<g id="Node000012" class="node">
<title>Node12</title>
<g id="a_Node000012"><a xlink:title=" ">
<polygon fill="white" stroke="none" points="834.12,-1586 732.38,-1586 732.38,-1534 834.12,-1534 834.12,-1586"/>
<text xml:space="preserve" text-anchor="start" x="736.38" y="-1572.5" font-family="Helvetica,sans-Serif" font-size="10.00">std::vector&lt; uint8_t &gt;</text>
<text xml:space="preserve" text-anchor="start" x="747.38" y="-1556.5" font-family="Helvetica,sans-Serif" font-size="10.00">+</text>
<text xml:space="preserve" text-anchor="start" x="768.38" y="-1556.5" font-family="Helvetica,sans-Serif" font-size="10.00">elements</text>
<text xml:space="preserve" text-anchor="start" x="781.75" y="-1540.5" font-family="Helvetica,sans-Serif" font-size="10.00"> </text>
<polygon fill="#666666" stroke="#666666" points="732.38,-1568 732.38,-1568 834.12,-1568 834.12,-1568 732.38,-1568"/>
<polygon fill="#666666" stroke="#666666" points="732.38,-1552 732.38,-1552 766.38,-1552 766.38,-1552 732.38,-1552"/>
<polygon fill="#666666" stroke="#666666" points="766.38,-1552 766.38,-1552 834.12,-1552 834.12,-1552 766.38,-1552"/>
<polygon fill="none" stroke="#666666" points="732.38,-1534 732.38,-1586 834.12,-1586 834.12,-1534 732.38,-1534"/>
</a>
</g>
</g>
<!-- Node12&#45;&gt;Node10 -->
<g id="edge13_Node000010_Node000012" class="edge">
<title>Node12&#45;&gt;Node10</title>
<g id="a_edge13_Node000010_Node000012"><a xlink:title=" ">
<path fill="none" stroke="#63b8ff" d="M786.98,-1534.03C791.18,-1504.49 797.76,-1453.8 800.25,-1410 809.56,-1246.26 785.49,-1200.03 719.25,-1050 681.34,-964.13 598.88,-891.95 539.44,-848.21"/>
<polygon fill="none" stroke="#63b8ff" points="539.44,-848.22 532.24,-847.93 529.73,-841.17 536.93,-841.46 539.44,-848.22"/>
</a>
</g>
<text xml:space="preserve" text-anchor="start" x="804.7" y="-1397.5" font-family="Helvetica,sans-Serif" font-size="10.00" fill="grey">&#45;broadcast_buffer_</text>
<text xml:space="preserve" text-anchor="start" x="804.7" y="-1381.5" font-family="Helvetica,sans-Serif" font-size="10.00" fill="grey">&#45;write_buffer_</text>
</g>
<!-- Node12&#45;&gt;Node15 -->
<g id="edge18_Node000015_Node000012" class="edge">
<title>Node12&#45;&gt;Node15</title>
<g id="a_edge18_Node000015_Node000012"><a xlink:title=" ">
<path fill="none" stroke="#63b8ff" d="M741.09,-1534.09C716.91,-1519.8 686.32,-1501.72 660.49,-1486.46"/>
<polygon fill="none" stroke="#63b8ff" points="660.47,-1486.45 653.27,-1486.84 650.14,-1480.35 657.34,-1479.95 660.47,-1486.45"/>
</a>
</g>
<text xml:space="preserve" text-anchor="start" x="708.79" y="-1503.5" font-family="Helvetica,sans-Serif" font-size="10.00" fill="grey">+binary_data</text>
</g>
<!-- Node13 -->
<g id="Node000013" class="node">
<title>Node13</title>
<g id="a_Node000013"><a xlink:title=" ">
<polygon fill="white" stroke="none" points="517.62,-1230 424.88,-1230 424.88,-1178 517.62,-1178 517.62,-1230"/>
<text xml:space="preserve" text-anchor="start" x="428.88" y="-1216.5" font-family="Helvetica,sans-Serif" font-size="10.00">std::atomic&lt; bool &gt;</text>
<text xml:space="preserve" text-anchor="start" x="444.75" y="-1200.5" font-family="Helvetica,sans-Serif" font-size="10.00">+</text>
<text xml:space="preserve" text-anchor="start" x="470.62" y="-1200.5" font-family="Helvetica,sans-Serif" font-size="10.00">ptr</text>
<text xml:space="preserve" text-anchor="start" x="469.75" y="-1184.5" font-family="Helvetica,sans-Serif" font-size="10.00"> </text>
<polygon fill="#666666" stroke="#666666" points="424.88,-1212 424.88,-1212 517.62,-1212 517.62,-1212 424.88,-1212"/>
<polygon fill="#666666" stroke="#666666" points="424.88,-1196 424.88,-1196 468.62,-1196 468.62,-1196 424.88,-1196"/>
<polygon fill="#666666" stroke="#666666" points="468.62,-1196 468.62,-1196 517.62,-1196 517.62,-1196 468.62,-1196"/>
<polygon fill="none" stroke="#666666" points="424.88,-1178 424.88,-1230 517.62,-1230 517.62,-1178 424.88,-1178"/>
</a>
</g>
</g>
<!-- Node13&#45;&gt;Node10 -->
<g id="edge15_Node000010_Node000013" class="edge">
<title>Node13&#45;&gt;Node10</title>
<g id="a_edge15_Node000010_Node000013"><a xlink:title=" ">
<path fill="none" stroke="#63b8ff" d="M471.25,-1178.28C471.25,-1143.4 471.25,-1076.4 471.25,-1008.55"/>
<polygon fill="none" stroke="#63b8ff" points="471.25,-1008.78 467.25,-1002.78 471.25,-996.78 475.25,-1002.78 471.25,-1008.78"/>
</a>
</g>
<text xml:space="preserve" text-anchor="start" x="474.25" y="-1019.5" font-family="Helvetica,sans-Serif" font-size="10.00" fill="grey">&#45;streaming_abort_</text>
</g>
<!-- Node14 -->
<g id="Node000014" class="node">
<title>Node14</title>
<g id="a_Node000014"><a xlink:title=" ">
<polygon fill="white" stroke="none" points="684.38,-1236 536.12,-1236 536.12,-1172 684.38,-1172 684.38,-1236"/>
<text xml:space="preserve" text-anchor="start" x="540.12" y="-1222.5" font-family="Helvetica,sans-Serif" font-size="10.00">std::deque&lt; WebSocketSession</text>
<text xml:space="preserve" text-anchor="start" x="575.75" y="-1210.5" font-family="Helvetica,sans-Serif" font-size="10.00">::PendingMsg &gt;</text>
<text xml:space="preserve" text-anchor="start" x="608.75" y="-1194.5" font-family="Helvetica,sans-Serif" font-size="10.00"> </text>
<text xml:space="preserve" text-anchor="start" x="608.75" y="-1178.5" font-family="Helvetica,sans-Serif" font-size="10.00"> </text>
<polygon fill="#666666" stroke="#666666" points="536.12,-1206 536.12,-1206 684.38,-1206 684.38,-1206 536.12,-1206"/>
<polygon fill="#666666" stroke="#666666" points="536.12,-1190 536.12,-1190 684.38,-1190 684.38,-1190 536.12,-1190"/>
<polygon fill="none" stroke="#666666" points="536.12,-1172 536.12,-1236 684.38,-1236 684.38,-1172 536.12,-1172"/>
</a>
</g>
</g>
<!-- Node14&#45;&gt;Node10 -->
<g id="edge16_Node000010_Node000014" class="edge">
<title>Node14&#45;&gt;Node10</title>
<g id="a_edge16_Node000010_Node000014"><a xlink:title=" ">
<path fill="none" stroke="#63b8ff" d="M603.25,-1172.18C594.39,-1134.46 577.99,-1068.83 559.25,-1014 551.66,-991.79 542.88,-968.59 533.87,-946.04"/>
<polygon fill="none" stroke="#63b8ff" points="533.82,-945.91 527.87,-941.84 529.33,-934.78 535.29,-938.85 533.82,-945.91"/>
</a>
</g>
<text xml:space="preserve" text-anchor="start" x="567.25" y="-1019.5" font-family="Helvetica,sans-Serif" font-size="10.00" fill="grey">&#45;write_queue_</text>
</g>
<!-- Node15&#45;&gt;Node14 -->
<g id="edge17_Node000014_Node000015" class="edge">
<title>Node15&#45;&gt;Node14</title>
<g id="a_edge17_Node000014_Node000015"><a xlink:title=" ">
<path fill="none" stroke="#63b8ff" d="M607.55,-1428.31C608.06,-1386.39 609.09,-1300.75 609.72,-1248.55"/>
<polygon fill="none" stroke="#63b8ff" points="609.72,-1248.64 605.79,-1242.59 609.87,-1236.64 613.79,-1242.69 609.72,-1248.64"/>
</a>
</g>
<text xml:space="preserve" text-anchor="start" x="611.14" y="-1389.5" font-family="Helvetica,sans-Serif" font-size="10.00" fill="grey">+elements</text>
</g>
</g>
</svg>

<g id="navigator" transform="translate(0 0)" fill="#404254">
  <rect fill="#f2f5e9" fill-opacity="0.5" stroke="#606060" stroke-width=".5" x="0" y="0" width="60" height="60"/>
  <use id="zoomplus" xlink:href="#zoomPlus" x="17" y="9" onmousedown="handleZoom(evt,'in')"/>
  <use id="zoomminus" xlink:href="#zoomMin" x="42" y="9" onmousedown="handleZoom(evt,'out')"/>
  <use id="reset" xlink:href="#resetDef" x="30" y="36" onmousedown="handleReset()"/>
   <use id="arrowup" xlink:href="#arrowUp" x="0" y="0" onmousedown="handlePan(0,-1)"/>
  <use id="arrowright" xlink:href="#arrowRight" x="0" y="0" onmousedown="handlePan(1,0)"/>
  <use id="arrowdown" xlink:href="#arrowDown" x="0" y="0" onmousedown="handlePan(0,1)"/>
  <use id="arrowleft" xlink:href="#arrowLeft" x="0" y="0" onmousedown="handlePan(-1,0)"/>
</g>
<svg viewBox="0 0 15 15" width="100%" height="30px" preserveAspectRatio="xMaxYMin meet">
 <g id="arrow_out" transform="scale(0.3 0.3)">
  <a xlink:href="class_web_socket_listener__coll__graph_org.svg" target="_base">
   <rect id="button" ry="5" rx="5" y="6" x="6" height="38" width="38"
        fill="#f2f5e9" fill-opacity="0.5" stroke="#606060" stroke-width="1.0"/>
   <path id="arrow"
     d="M 11.500037,31.436501 C 11.940474,20.09759 22.043105,11.32322 32.158766,21.979434 L 37.068811,17.246167 C 37.068811,17.246167 37.088388,32 37.088388,32 L 22.160133,31.978069 C 22.160133,31.978069 26.997745,27.140456 26.997745,27.140456 C 18.528582,18.264221 13.291696,25.230495 11.500037,31.436501 z"
     style="fill:#404040;"/>
  </a>
 </g>
</svg>

<style type='text/css'>
<![CDATA[
[data-mouse-over-selected='false'] { opacity: 0.7; }
[data-mouse-over-selected='true']  { opacity: 1.0; }
]]>
</style>
<script type="application/ecmascript"><![CDATA[
document.addEventListener('DOMContentLoaded', (event) => {
  highlightEdges();
  highlightAdjacentNodes();
});
]]></script>
</svg>
