<?xml version="1.0" encoding="UTF-8" standalone="no"?>
<!DOCTYPE svg PUBLIC "-//W3C//DTD SVG 1.1//EN"
 "http://www.w3.org/Graphics/SVG/1.1/DTD/svg11.dtd">
<!-- Generated by graphviz version 14.1.2 (20260124.0452)
 -->
<!-- Title: WebSocketListener Pages: 1 -->
<svg width="165pt" height="288pt"
 viewBox="0.00 0.00 165.00 288.00" xmlns="http://www.w3.org/2000/svg" xmlns:xlink="http://www.w3.org/1999/xlink">
<g id="graph0" class="graph" transform="scale(1 1) rotate(0) translate(4 284)">
<title>WebSocketListener</title>
<!-- Node1 -->
<g id="Node000001" class="node">
<title>Node1</title>
<g id="a_Node000001"><a xlink:title="Listens for and accepts incoming WebSocket connections.">
<polygon fill="#999999" stroke="none" points="132.62,-180 23.87,-180 23.87,0 132.62,0 132.62,-180"/>
<text xml:space="preserve" text-anchor="start" x="35.88" y="-166.5" font-family="Helvetica,sans-Serif" font-size="10.00">WebSocketListener</text>
<text xml:space="preserve" text-anchor="start" x="29.38" y="-150.5" font-family="Helvetica,sans-Serif" font-size="10.00">&#45;</text>
<text xml:space="preserve" text-anchor="start" x="37.88" y="-150.5" font-family="Helvetica,sans-Serif" font-size="10.00">ioc_</text>
<text xml:space="preserve" text-anchor="start" x="29.38" y="-134.5" font-family="Helvetica,sans-Serif" font-size="10.00">&#45;</text>
<text xml:space="preserve" text-anchor="start" x="37.88" y="-134.5" font-family="Helvetica,sans-Serif" font-size="10.00">acceptor_</text>
<text xml:space="preserve" text-anchor="start" x="29.38" y="-118.5" font-family="Helvetica,sans-Serif" font-size="10.00">&#45;</text>
<text xml:space="preserve" text-anchor="start" x="37.88" y="-118.5" font-family="Helvetica,sans-Serif" font-size="10.00">db_</text>
<text xml:space="preserve" text-anchor="start" x="29.38" y="-102.5" font-family="Helvetica,sans-Serif" font-size="10.00">&#45;</text>
<text xml:space="preserve" text-anchor="start" x="37.88" y="-102.5" font-family="Helvetica,sans-Serif" font-size="10.00">sessionMgr_</text>
<text xml:space="preserve" text-anchor="start" x="29.38" y="-86.5" font-family="Helvetica,sans-Serif" font-size="10.00">&#45;</text>
<text xml:space="preserve" text-anchor="start" x="37.88" y="-86.5" font-family="Helvetica,sans-Serif" font-size="10.00">cmdHandler_</text>
<text xml:space="preserve" text-anchor="start" x="29.38" y="-70.5" font-family="Helvetica,sans-Serif" font-size="10.00">&#45;</text>
<text xml:space="preserve" text-anchor="start" x="37.88" y="-70.5" font-family="Helvetica,sans-Serif" font-size="10.00">actionHandler_</text>
<text xml:space="preserve" text-anchor="start" x="27.88" y="-54.5" font-family="Helvetica,sans-Serif" font-size="10.00">+</text>
<text xml:space="preserve" text-anchor="start" x="37.88" y="-54.5" font-family="Helvetica,sans-Serif" font-size="10.00">WebSocketListener()</text>
<text xml:space="preserve" text-anchor="start" x="27.88" y="-38.5" font-family="Helvetica,sans-Serif" font-size="10.00">+</text>
<text xml:space="preserve" text-anchor="start" x="37.88" y="-38.5" font-family="Helvetica,sans-Serif" font-size="10.00">run()</text>
<text xml:space="preserve" text-anchor="start" x="29.38" y="-22.5" font-family="Helvetica,sans-Serif" font-size="10.00">&#45;</text>
<text xml:space="preserve" text-anchor="start" x="37.88" y="-22.5" font-family="Helvetica,sans-Serif" font-size="10.00">do_accept()</text>
<text xml:space="preserve" text-anchor="start" x="29.38" y="-6.5" font-family="Helvetica,sans-Serif" font-size="10.00">&#45;</text>
<text xml:space="preserve" text-anchor="start" x="37.88" y="-6.5" font-family="Helvetica,sans-Serif" font-size="10.00">on_accept()</text>
<polygon fill="#666666" stroke="#666666" points="23.88,-162 23.88,-162 132.62,-162 132.62,-162 23.88,-162"/>
<polygon fill="#666666" stroke="#666666" points="23.88,-66 23.88,-66 35.88,-66 35.88,-66 23.88,-66"/>
<polygon fill="#666666" stroke="#666666" points="35.88,-66 35.88,-66 132.62,-66 132.62,-66 35.88,-66"/>
<polygon fill="none" stroke="#666666" points="23.88,0 23.88,-180 132.62,-180 132.62,0 23.88,0"/>
</a>
</g>
</g>
<!-- Node2 -->
<g id="Node000002" class="node">
<title>Node2</title>
<g id="a_Node000002"><a xlink:title=" ">
<polygon fill="white" stroke="none" points="156.5,-280 0,-280 0,-216 156.5,-216 156.5,-280"/>
<text xml:space="preserve" text-anchor="start" x="4" y="-266.5" font-family="Helvetica,sans-Serif" font-size="10.00">std::enable_shared</text>
<text xml:space="preserve" text-anchor="start" x="4" y="-254.5" font-family="Helvetica,sans-Serif" font-size="10.00">_from_this&lt; WebSocketListener &gt;</text>
<text xml:space="preserve" text-anchor="start" x="76.75" y="-238.5" font-family="Helvetica,sans-Serif" font-size="10.00"> </text>
<text xml:space="preserve" text-anchor="start" x="76.75" y="-222.5" font-family="Helvetica,sans-Serif" font-size="10.00"> </text>
<polygon fill="#666666" stroke="#666666" points="0,-250 0,-250 156.5,-250 156.5,-250 0,-250"/>
<polygon fill="#666666" stroke="#666666" points="0,-234 0,-234 156.5,-234 156.5,-234 0,-234"/>
<polygon fill="none" stroke="#666666" points="0,-216 0,-280 156.5,-280 156.5,-216 0,-216"/>
</a>
</g>
</g>
<!-- Node2&#45;&gt;Node1 -->
<g id="edge1_Node000001_Node000002" class="edge">
<title>Node2&#45;&gt;Node1</title>
<g id="a_edge1_Node000001_Node000002"><a xlink:title=" ">
<path fill="none" stroke="#63b8ff" d="M78.25,-204.76C78.25,-196.88 78.25,-188.39 78.25,-179.71"/>
<polygon fill="none" stroke="#63b8ff" points="74.75,-204.67 78.25,-214.67 81.75,-204.67 74.75,-204.67"/>
</a>
</g>
</g>
</g>
</svg>
