<?xml version="1.0" encoding="UTF-8" standalone="no"?>
<!DOCTYPE svg PUBLIC "-//W3C//DTD SVG 1.1//EN"
 "http://www.w3.org/Graphics/SVG/1.1/DTD/svg11.dtd">
<!-- Generated by graphviz version 14.1.1 (20251213.1925)
 -->
<!-- Title: WebSocketSession::on_write Pages: 1 -->
<svg width="1332pt" height="198pt"
 viewBox="0.00 0.00 1332.00 198.00" xmlns="http://www.w3.org/2000/svg" xmlns:xlink="http://www.w3.org/1999/xlink">
<g id="graph0" class="graph" transform="scale(1 1) rotate(0) translate(4 193.87)">
<title>WebSocketSession::on_write</title>
<!-- Node1 -->
<g id="Node000001" class="node">
<title>Node1</title>
<g id="a_Node000001"><a xlink:title="Handle write completion.">
<polygon fill="#999999" stroke="#666666" points="118,-57.87 0,-57.87 0,-25.87 118,-25.87 118,-57.87"/>
<text xml:space="preserve" text-anchor="start" x="8" y="-44.37" font-family="Helvetica,sans-Serif" font-size="10.00">WebSocketSession::on</text>
<text xml:space="preserve" text-anchor="middle" x="59" y="-32.37" font-family="Helvetica,sans-Serif" font-size="10.00">_write</text>
</a>
</g>
</g>
<!-- Node2 -->
<g id="Node000002" class="node">
<title>Node2</title>
<g id="a_Node000002"><a xlink:href="class_web_socket_session.html#a2bc079950c2e39e8ff745f0da57646ba" target="_top" xlink:title="Initiate async read for next client message.">
<polygon fill="white" stroke="#666666" points="303.5,-133.87 161.5,-133.87 161.5,-113.87 303.5,-113.87 303.5,-133.87"/>
<text xml:space="preserve" text-anchor="middle" x="232.5" y="-120.37" font-family="Helvetica,sans-Serif" font-size="10.00">WebSocketSession::do_read</text>
</a>
</g>
</g>
<!-- Node1&#45;&gt;Node2 -->
<g id="edge1_Node000001_Node000002" class="edge">
<title>Node1&#45;&gt;Node2</title>
<g id="a_edge1_Node000001_Node000002"><a xlink:title=" ">
<path fill="none" stroke="#63b8ff" d="M94.29,-58.27C124.94,-72.92 169.5,-94.22 199.44,-108.54"/>
<polygon fill="#63b8ff" stroke="#63b8ff" points="197.86,-111.67 208.39,-112.82 200.88,-105.35 197.86,-111.67"/>
</a>
</g>
</g>
<!-- Node11 -->
<g id="Node000011" class="node">
<title>Node11</title>
<g id="a_Node000011"><a xlink:href="class_web_socket_session.html#a124943db6c094918e372c94bfb7ec533" target="_top" xlink:title="Send the next queued message (if any).">
<polygon fill="white" stroke="#666666" points="311,-51.87 154,-51.87 154,-31.87 311,-31.87 311,-51.87"/>
<text xml:space="preserve" text-anchor="middle" x="232.5" y="-38.37" font-family="Helvetica,sans-Serif" font-size="10.00">WebSocketSession::drainQueue</text>
</a>
</g>
</g>
<!-- Node1&#45;&gt;Node11 -->
<g id="edge13_Node000001_Node000011" class="edge">
<title>Node1&#45;&gt;Node11</title>
<g id="a_edge13_Node000001_Node000011"><a xlink:title=" ">
<path fill="none" stroke="#63b8ff" d="M118.06,-41.87C125.95,-41.87 134.18,-41.87 142.45,-41.87"/>
<polygon fill="#63b8ff" stroke="#63b8ff" points="142.22,-45.37 152.22,-41.87 142.22,-38.37 142.22,-45.37"/>
</a>
</g>
</g>
<!-- Node3 -->
<g id="Node000003" class="node">
<title>Node3</title>
<g id="a_Node000003"><a xlink:href="class_web_socket_session.html#a6c0557f87f9f6050a8848237ace942bb" target="_top" xlink:title="Handle received client message.">
<polygon fill="white" stroke="#666666" points="489,-133.87 347,-133.87 347,-113.87 489,-113.87 489,-133.87"/>
<text xml:space="preserve" text-anchor="middle" x="418" y="-120.37" font-family="Helvetica,sans-Serif" font-size="10.00">WebSocketSession::on_read</text>
</a>
</g>
</g>
<!-- Node2&#45;&gt;Node3 -->
<g id="edge2_Node000002_Node000003" class="edge">
<title>Node2&#45;&gt;Node3</title>
<g id="a_edge2_Node000002_Node000003"><a xlink:title=" ">
<path fill="none" stroke="#63b8ff" d="M303.92,-117.29C314.24,-117.12 324.94,-117.08 335.45,-117.16"/>
<polygon fill="#63b8ff" stroke="#63b8ff" points="335.21,-120.65 345.25,-117.27 335.29,-113.66 335.21,-120.65"/>
</a>
</g>
</g>
<!-- Node3&#45;&gt;Node2 -->
<g id="edge3_Node000003_Node000002" class="edge">
<title>Node3&#45;&gt;Node2</title>
<g id="a_edge3_Node000003_Node000002"><a xlink:title=" ">
<path fill="none" stroke="#63b8ff" d="M346.77,-130.45C336.45,-130.62 325.76,-130.66 315.24,-130.58"/>
<polygon fill="#63b8ff" stroke="#63b8ff" points="315.47,-127.09 305.43,-130.47 315.39,-134.09 315.47,-127.09"/>
</a>
</g>
</g>
<!-- Node4 -->
<g id="Node000004" class="node">
<title>Node4</title>
<g id="a_Node000004"><a xlink:href="class_web_socket_session.html#a43bf9b3aa8c9ed23d031c7ae8059da22" target="_top" xlink:title="Extract the &quot;action&quot; value from a simple JSON object.">
<polygon fill="white" stroke="#666666" points="668.5,-189.87 531,-189.87 531,-157.87 668.5,-157.87 668.5,-189.87"/>
<text xml:space="preserve" text-anchor="start" x="539" y="-176.37" font-family="Helvetica,sans-Serif" font-size="10.00">WebSocketSession::extract</text>
<text xml:space="preserve" text-anchor="middle" x="599.75" y="-164.37" font-family="Helvetica,sans-Serif" font-size="10.00">Action</text>
</a>
</g>
</g>
<!-- Node3&#45;&gt;Node4 -->
<g id="edge4_Node000003_Node000004" class="edge">
<title>Node3&#45;&gt;Node4</title>
<g id="a_edge4_Node000003_Node000004"><a xlink:title=" ">
<path fill="none" stroke="#63b8ff" d="M456.68,-134.35C477.48,-140.14 503.99,-147.51 528.46,-154.32"/>
<polygon fill="#63b8ff" stroke="#63b8ff" points="527.51,-157.69 538.08,-156.99 529.38,-150.94 527.51,-157.69"/>
</a>
</g>
</g>
<!-- Node5 -->
<g id="Node000005" class="node">
<title>Node5</title>
<g id="a_Node000005"><a xlink:href="class_web_socket_session.html#a606e227b631d765ac0191c0535df607f" target="_top" xlink:title="Check if a message is a JSON action (contains &quot;action&quot; key).">
<polygon fill="white" stroke="#666666" points="667.75,-139.87 531.75,-139.87 531.75,-107.87 667.75,-107.87 667.75,-139.87"/>
<text xml:space="preserve" text-anchor="start" x="539.75" y="-126.37" font-family="Helvetica,sans-Serif" font-size="10.00">WebSocketSession::isJson</text>
<text xml:space="preserve" text-anchor="middle" x="599.75" y="-114.37" font-family="Helvetica,sans-Serif" font-size="10.00">Action</text>
</a>
</g>
</g>
<!-- Node3&#45;&gt;Node5 -->
<g id="edge5_Node000003_Node000005" class="edge">
<title>Node3&#45;&gt;Node5</title>
<g id="a_edge5_Node000003_Node000005"><a xlink:title=" ">
<path fill="none" stroke="#63b8ff" d="M489.27,-123.87C499.36,-123.87 509.79,-123.87 520.03,-123.87"/>
<polygon fill="#63b8ff" stroke="#63b8ff" points="519.96,-127.37 529.96,-123.87 519.96,-120.37 519.96,-127.37"/>
</a>
</g>
</g>
<!-- Node6 -->
<g id="Node000006" class="node">
<title>Node6</title>
<g id="a_Node000006"><a xlink:href="class_web_socket_session.html#a2529887f34770366fc2c225bd085edba" target="_top" xlink:title="Send current database records to client as ASN.1 BER/TLV.">
<polygon fill="white" stroke="#666666" points="674.5,-89.87 525,-89.87 525,-69.87 674.5,-69.87 674.5,-89.87"/>
<text xml:space="preserve" text-anchor="middle" x="599.75" y="-76.37" font-family="Helvetica,sans-Serif" font-size="10.00">WebSocketSession::sendData</text>
</a>
</g>
</g>
<!-- Node3&#45;&gt;Node6 -->
<g id="edge6_Node000003_Node000006" class="edge">
<title>Node3&#45;&gt;Node6</title>
<g id="a_edge6_Node000003_Node000006"><a xlink:title=" ">
<path fill="none" stroke="#63b8ff" d="M461.6,-113.44C486.58,-107.33 518.37,-99.55 545.06,-93.01"/>
<polygon fill="#63b8ff" stroke="#63b8ff" points="545.8,-96.44 554.68,-90.66 544.13,-89.64 545.8,-96.44"/>
</a>
</g>
</g>
<!-- Node6&#45;&gt;Node1 -->
<g id="edge12_Node000006_Node000001" class="edge">
<title>Node6&#45;&gt;Node1</title>
<g id="a_edge12_Node000006_Node000001"><a xlink:title=" ">
<path fill="none" stroke="#63b8ff" d="M585.9,-69.45C566.38,-54.37 527.42,-27.11 489,-16.87 365.68,16.01 215.61,-6.22 129.6,-24.58"/>
<polygon fill="#63b8ff" stroke="#63b8ff" points="128.92,-21.15 119.89,-26.71 130.41,-27.99 128.92,-21.15"/>
</a>
</g>
</g>
<!-- Node7 -->
<g id="Node000007" class="node">
<title>Node7</title>
<g id="a_Node000007"><a xlink:href="namespaceasn__tlv.html#a03c61eaf7c30d4bb4e8f50d6cd2f5f03" target="_top" xlink:title="Encode SER records to ASN.1 BER/TLV format.">
<polygon fill="white" stroke="#666666" points="847.25,-95.87 710.5,-95.87 710.5,-63.87 847.25,-63.87 847.25,-95.87"/>
<text xml:space="preserve" text-anchor="start" x="718.5" y="-82.37" font-family="Helvetica,sans-Serif" font-size="10.00">asn_tlv::encodeSerRecords</text>
<text xml:space="preserve" text-anchor="middle" x="778.88" y="-70.37" font-family="Helvetica,sans-Serif" font-size="10.00">ToTlv</text>
</a>
</g>
</g>
<!-- Node6&#45;&gt;Node7 -->
<g id="edge7_Node000006_Node000007" class="edge">
<title>Node6&#45;&gt;Node7</title>
<g id="a_edge7_Node000006_Node000007"><a xlink:title=" ">
<path fill="none" stroke="#63b8ff" d="M674.84,-79.87C682.67,-79.87 690.66,-79.87 698.55,-79.87"/>
<polygon fill="#63b8ff" stroke="#63b8ff" points="698.5,-83.37 708.5,-79.87 698.5,-76.37 698.5,-83.37"/>
</a>
</g>
</g>
<!-- Node8 -->
<g id="Node000008" class="node">
<title>Node8</title>
<g id="a_Node000008"><a xlink:href="namespaceasn__tlv.html#a0cc9af3d4e8aba5f164c66bb47750767" target="_top" xlink:title="Append a string as a TLV structure.">
<polygon fill="white" stroke="#666666" points="1008.75,-108.87 883.25,-108.87 883.25,-88.87 1008.75,-88.87 1008.75,-108.87"/>
<text xml:space="preserve" text-anchor="middle" x="946" y="-95.37" font-family="Helvetica,sans-Serif" font-size="10.00">asn_tlv::berAppendString</text>
</a>
</g>
</g>
<!-- Node7&#45;&gt;Node8 -->
<g id="edge8_Node000007_Node000008" class="edge">
<title>Node7&#45;&gt;Node8</title>
<g id="a_edge8_Node000007_Node000008"><a xlink:title=" ">
<path fill="none" stroke="#63b8ff" d="M847.51,-87.65C855.44,-88.57 863.56,-89.5 871.57,-90.42"/>
<polygon fill="#63b8ff" stroke="#63b8ff" points="870.94,-93.87 881.27,-91.54 871.74,-86.92 870.94,-93.87"/>
</a>
</g>
</g>
<!-- Node9 -->
<g id="Node000009" class="node">
<title>Node9</title>
<g id="a_Node000009"><a xlink:href="namespaceasn__tlv.html#a4a9f3333d71c851f9002020ffd417b18" target="_top" xlink:title="Append a complete TLV structure to an output buffer.">
<polygon fill="white" stroke="#666666" points="1158.25,-89.87 1044.75,-89.87 1044.75,-69.87 1158.25,-69.87 1158.25,-89.87"/>
<text xml:space="preserve" text-anchor="middle" x="1101.5" y="-76.37" font-family="Helvetica,sans-Serif" font-size="10.00">asn_tlv::berAppendTlv</text>
</a>
</g>
</g>
<!-- Node7&#45;&gt;Node9 -->
<g id="edge11_Node000007_Node000009" class="edge">
<title>Node7&#45;&gt;Node9</title>
<g id="a_edge11_Node000007_Node000009"><a xlink:title=" ">
<path fill="none" stroke="#63b8ff" d="M847.48,-79.87C902.11,-79.87 978.63,-79.87 1033.18,-79.87"/>
<polygon fill="#63b8ff" stroke="#63b8ff" points="1032.96,-83.37 1042.96,-79.87 1032.96,-76.37 1032.96,-83.37"/>
</a>
</g>
</g>
<!-- Node8&#45;&gt;Node9 -->
<g id="edge9_Node000008_Node000009" class="edge">
<title>Node8&#45;&gt;Node9</title>
<g id="a_edge9_Node000008_Node000009"><a xlink:title=" ">
<path fill="none" stroke="#63b8ff" d="M1008.99,-91.2C1017.02,-90.2 1025.28,-89.18 1033.39,-88.18"/>
<polygon fill="#63b8ff" stroke="#63b8ff" points="1033.72,-91.66 1043.21,-86.96 1032.86,-84.72 1033.72,-91.66"/>
</a>
</g>
</g>
<!-- Node10 -->
<g id="Node000010" class="node">
<title>Node10</title>
<g id="a_Node000010"><a xlink:href="namespaceasn__tlv.html#af1ae5498c52c5e99d18f2cd5cb4f2609" target="_top" xlink:title="Append BER length encoding to an output buffer.">
<polygon fill="white" stroke="#666666" points="1323.5,-89.87 1194.25,-89.87 1194.25,-69.87 1323.5,-69.87 1323.5,-89.87"/>
<text xml:space="preserve" text-anchor="middle" x="1258.88" y="-76.37" font-family="Helvetica,sans-Serif" font-size="10.00">asn_tlv::berAppendLength</text>
</a>
</g>
</g>
<!-- Node9&#45;&gt;Node10 -->
<g id="edge10_Node000009_Node000010" class="edge">
<title>Node9&#45;&gt;Node10</title>
<g id="a_edge10_Node000009_Node000010"><a xlink:title=" ">
<path fill="none" stroke="#63b8ff" d="M1158.59,-79.87C1166.39,-79.87 1174.51,-79.87 1182.59,-79.87"/>
<polygon fill="#63b8ff" stroke="#63b8ff" points="1182.44,-83.37 1192.44,-79.87 1182.44,-76.37 1182.44,-83.37"/>
</a>
</g>
</g>
<!-- Node11&#45;&gt;Node6 -->
<g id="edge16_Node000011_Node000006" class="edge">
<title>Node11&#45;&gt;Node6</title>
<g id="a_edge16_Node000011_Node000006"><a xlink:title=" ">
<path fill="none" stroke="#63b8ff" d="M273.4,-52.35C295.02,-57.6 322.31,-63.54 347,-66.87 402.01,-74.3 464.3,-77.56 513.17,-78.95"/>
<polygon fill="#63b8ff" stroke="#63b8ff" points="513.05,-82.45 523.13,-79.22 513.23,-75.45 513.05,-82.45"/>
</a>
</g>
</g>
<!-- Node12 -->
<g id="Node000012" class="node">
<title>Node12</title>
<g id="a_Node000012"><a xlink:href="class_web_socket_session.html#afe8845301daa6254f51e87dd9dd4cc3d" target="_top" xlink:title="Handle broadcast write completion — drains pending queue.">
<polygon fill="white" stroke="#666666" points="477,-57.87 359,-57.87 359,-25.87 477,-25.87 477,-57.87"/>
<text xml:space="preserve" text-anchor="start" x="367" y="-44.37" font-family="Helvetica,sans-Serif" font-size="10.00">WebSocketSession::on</text>
<text xml:space="preserve" text-anchor="middle" x="418" y="-32.37" font-family="Helvetica,sans-Serif" font-size="10.00">_broadcast_write</text>
</a>
</g>
</g>
<!-- Node11&#45;&gt;Node12 -->
<g id="edge14_Node000011_Node000012" class="edge">
<title>Node11&#45;&gt;Node12</title>
<g id="a_edge14_Node000011_Node000012"><a xlink:title=" ">
<path fill="none" stroke="#63b8ff" d="M311.32,-35.19C323.19,-35.07 335.38,-35.1 347.06,-35.29"/>
<polygon fill="#63b8ff" stroke="#63b8ff" points="346.97,-38.79 357.04,-35.5 347.11,-31.79 346.97,-38.79"/>
</a>
</g>
</g>
<!-- Node12&#45;&gt;Node11 -->
<g id="edge15_Node000012_Node000011" class="edge">
<title>Node12&#45;&gt;Node11</title>
<g id="a_edge15_Node000012_Node000011"><a xlink:title=" ">
<path fill="none" stroke="#63b8ff" d="M358.55,-48.21C347.05,-48.51 334.75,-48.64 322.52,-48.62"/>
<polygon fill="#63b8ff" stroke="#63b8ff" points="322.85,-45.12 312.83,-48.56 322.81,-52.12 322.85,-45.12"/>
</a>
</g>
</g>
</g>
</svg>
