<?xml version="1.0" encoding="UTF-8" standalone="no"?>
<!DOCTYPE svg PUBLIC "-//W3C//DTD SVG 1.1//EN"
 "http://www.w3.org/Graphics/SVG/1.1/DTD/svg11.dtd">
<!-- Generated by graphviz version 14.1.1 (20251213.1925)
 -->
<!-- Title: PipelineProcessingWorker::start Pages: 1 -->
<svg width="953pt" height="107pt"
 viewBox="0.00 0.00 953.00 107.00" xmlns="http://www.w3.org/2000/svg" xmlns:xlink="http://www.w3.org/1999/xlink">
<g id="graph0" class="graph" transform="scale(1 1) rotate(0) translate(4 103)">
<title>PipelineProcessingWorker::start</title>
<!-- Node1 -->
<g id="Node000001" class="node">
<title>Node1</title>
<g id="a_Node000001"><a xlink:title="Start the processing worker: register a reader and launch its thread.">
<polygon fill="#999999" stroke="#666666" points="130,-48 0,-48 0,-16 130,-16 130,-48"/>
<text xml:space="preserve" text-anchor="start" x="8" y="-34.5" font-family="Helvetica,sans-Serif" font-size="10.00">PipelineProcessingWorker</text>
<text xml:space="preserve" text-anchor="middle" x="65" y="-22.5" font-family="Helvetica,sans-Serif" font-size="10.00">::start</text>
</a>
</g>
</g>
<!-- Node2 -->
<g id="Node000002" class="node">
<title>Node2</title>
<g id="a_Node000002"><a xlink:href="class_pipeline_processing_worker.html#a4b7df7922a70ab4c8542b73118f0c864" target="_top" xlink:title=" ">
<polygon fill="white" stroke="#666666" points="296,-48 166,-48 166,-16 296,-16 296,-48"/>
<text xml:space="preserve" text-anchor="start" x="174" y="-34.5" font-family="Helvetica,sans-Serif" font-size="10.00">PipelineProcessingWorker</text>
<text xml:space="preserve" text-anchor="middle" x="231" y="-22.5" font-family="Helvetica,sans-Serif" font-size="10.00">::runLoop</text>
</a>
</g>
</g>
<!-- Node1&#45;&gt;Node2 -->
<g id="edge1_Node000001_Node000002" class="edge">
<title>Node1&#45;&gt;Node2</title>
<g id="a_edge1_Node000001_Node000002"><a xlink:title=" ">
<path fill="none" stroke="#63b8ff" d="M130.35,-32C138.21,-32 146.31,-32 154.33,-32"/>
<polygon fill="#63b8ff" stroke="#63b8ff" points="154.06,-35.5 164.06,-32 154.06,-28.5 154.06,-35.5"/>
</a>
</g>
</g>
<!-- Node3 -->
<g id="Node000003" class="node">
<title>Node3</title>
<g id="a_Node000003"><a xlink:href="namespaceasn__tlv.html#a03c61eaf7c30d4bb4e8f50d6cd2f5f03" target="_top" xlink:title="Encode SER records to ASN.1 BER/TLV format.">
<polygon fill="white" stroke="#666666" points="468.75,-70 332,-70 332,-38 468.75,-38 468.75,-70"/>
<text xml:space="preserve" text-anchor="start" x="340" y="-56.5" font-family="Helvetica,sans-Serif" font-size="10.00">asn_tlv::encodeSerRecords</text>
<text xml:space="preserve" text-anchor="middle" x="400.38" y="-44.5" font-family="Helvetica,sans-Serif" font-size="10.00">ToTlv</text>
</a>
</g>
</g>
<!-- Node2&#45;&gt;Node3 -->
<g id="edge2_Node000002_Node000003" class="edge">
<title>Node2&#45;&gt;Node3</title>
<g id="a_edge2_Node000002_Node000003"><a xlink:title=" ">
<path fill="none" stroke="#63b8ff" d="M296.23,-40.44C304.13,-41.48 312.27,-42.55 320.35,-43.61"/>
<polygon fill="#63b8ff" stroke="#63b8ff" points="319.83,-47.07 330.2,-44.91 320.75,-40.13 319.83,-47.07"/>
</a>
</g>
</g>
<!-- Node7 -->
<g id="Node000007" class="node">
<title>Node7</title>
<g id="a_Node000007"><a xlink:href="ser__record_8hpp.html#a74e4cd9a0d2e7f7483669c3f91e27f84" target="_top" xlink:title="Parse a raw SER command response into a vector of SERRecord.">
<polygon fill="white" stroke="#666666" points="453,-20 347.75,-20 347.75,0 453,0 453,-20"/>
<text xml:space="preserve" text-anchor="middle" x="400.38" y="-6.5" font-family="Helvetica,sans-Serif" font-size="10.00">parseSERResponse</text>
</a>
</g>
</g>
<!-- Node2&#45;&gt;Node7 -->
<g id="edge7_Node000002_Node000007" class="edge">
<title>Node2&#45;&gt;Node7</title>
<g id="a_edge7_Node000002_Node000007"><a xlink:title=" ">
<path fill="none" stroke="#63b8ff" d="M296.23,-23.56C309.35,-21.83 323.15,-20.02 336.23,-18.3"/>
<polygon fill="#63b8ff" stroke="#63b8ff" points="336.55,-21.79 346,-17.02 335.63,-14.85 336.55,-21.79"/>
</a>
</g>
</g>
<!-- Node4 -->
<g id="Node000004" class="node">
<title>Node4</title>
<g id="a_Node000004"><a xlink:href="namespaceasn__tlv.html#a0cc9af3d4e8aba5f164c66bb47750767" target="_top" xlink:title="Append a string as a TLV structure.">
<polygon fill="white" stroke="#666666" points="630.25,-99 504.75,-99 504.75,-79 630.25,-79 630.25,-99"/>
<text xml:space="preserve" text-anchor="middle" x="567.5" y="-85.5" font-family="Helvetica,sans-Serif" font-size="10.00">asn_tlv::berAppendString</text>
</a>
</g>
</g>
<!-- Node3&#45;&gt;Node4 -->
<g id="edge3_Node000003_Node000004" class="edge">
<title>Node3&#45;&gt;Node4</title>
<g id="a_edge3_Node000003_Node000004"><a xlink:title=" ">
<path fill="none" stroke="#63b8ff" d="M469.01,-68.34C481.36,-70.95 494.16,-73.67 506.27,-76.23"/>
<polygon fill="#63b8ff" stroke="#63b8ff" points="505.17,-79.58 515.68,-78.23 506.62,-72.73 505.17,-79.58"/>
</a>
</g>
</g>
<!-- Node5 -->
<g id="Node000005" class="node">
<title>Node5</title>
<g id="a_Node000005"><a xlink:href="namespaceasn__tlv.html#a4a9f3333d71c851f9002020ffd417b18" target="_top" xlink:title="Append a complete TLV structure to an output buffer.">
<polygon fill="white" stroke="#666666" points="779.75,-80 666.25,-80 666.25,-60 779.75,-60 779.75,-80"/>
<text xml:space="preserve" text-anchor="middle" x="723" y="-66.5" font-family="Helvetica,sans-Serif" font-size="10.00">asn_tlv::berAppendTlv</text>
</a>
</g>
</g>
<!-- Node3&#45;&gt;Node5 -->
<g id="edge6_Node000003_Node000005" class="edge">
<title>Node3&#45;&gt;Node5</title>
<g id="a_edge6_Node000003_Node000005"><a xlink:title=" ">
<path fill="none" stroke="#63b8ff" d="M468.98,-57.37C523.61,-60.1 600.13,-63.92 654.68,-66.64"/>
<polygon fill="#63b8ff" stroke="#63b8ff" points="654.3,-70.13 664.46,-67.13 654.65,-63.13 654.3,-70.13"/>
</a>
</g>
</g>
<!-- Node4&#45;&gt;Node5 -->
<g id="edge4_Node000004_Node000005" class="edge">
<title>Node4&#45;&gt;Node5</title>
<g id="a_edge4_Node000004_Node000005"><a xlink:title=" ">
<path fill="none" stroke="#63b8ff" d="M630.49,-81.33C638.52,-80.33 646.78,-79.31 654.89,-78.31"/>
<polygon fill="#63b8ff" stroke="#63b8ff" points="655.22,-81.79 664.71,-77.09 654.36,-74.85 655.22,-81.79"/>
</a>
</g>
</g>
<!-- Node6 -->
<g id="Node000006" class="node">
<title>Node6</title>
<g id="a_Node000006"><a xlink:href="namespaceasn__tlv.html#af1ae5498c52c5e99d18f2cd5cb4f2609" target="_top" xlink:title="Append BER length encoding to an output buffer.">
<polygon fill="white" stroke="#666666" points="945,-80 815.75,-80 815.75,-60 945,-60 945,-80"/>
<text xml:space="preserve" text-anchor="middle" x="880.38" y="-66.5" font-family="Helvetica,sans-Serif" font-size="10.00">asn_tlv::berAppendLength</text>
</a>
</g>
</g>
<!-- Node5&#45;&gt;Node6 -->
<g id="edge5_Node000005_Node000006" class="edge">
<title>Node5&#45;&gt;Node6</title>
<g id="a_edge5_Node000005_Node000006"><a xlink:title=" ">
<path fill="none" stroke="#63b8ff" d="M780.09,-70C787.89,-70 796.01,-70 804.09,-70"/>
<polygon fill="#63b8ff" stroke="#63b8ff" points="803.94,-73.5 813.94,-70 803.94,-66.5 803.94,-73.5"/>
</a>
</g>
</g>
<!-- Node8 -->
<g id="Node000008" class="node">
<title>Node8</title>
<g id="a_Node000008"><a xlink:href="ser__record_8hpp.html#a3b567ed0529e21ab4536d1df5192a033" target="_top" xlink:title="Parse SER response string into a vector of SERRecord.">
<polygon fill="white" stroke="#666666" points="608.88,-20 526.12,-20 526.12,0 608.88,0 608.88,-20"/>
<text xml:space="preserve" text-anchor="middle" x="567.5" y="-6.5" font-family="Helvetica,sans-Serif" font-size="10.00">sanitizeSerLine</text>
</a>
</g>
</g>
<!-- Node7&#45;&gt;Node8 -->
<g id="edge8_Node000007_Node000008" class="edge">
<title>Node7&#45;&gt;Node8</title>
<g id="a_edge8_Node000007_Node000008"><a xlink:title=" ">
<path fill="none" stroke="#63b8ff" d="M453.17,-10C472.68,-10 494.88,-10 514.42,-10"/>
<polygon fill="#63b8ff" stroke="#63b8ff" points="514.37,-13.5 524.37,-10 514.37,-6.5 514.37,-13.5"/>
</a>
</g>
</g>
</g>
</svg>
