<?xml version="1.0" encoding="UTF-8" standalone="no"?>
<!DOCTYPE svg PUBLIC "-//W3C//DTD SVG 1.1//EN"
 "http://www.w3.org/Graphics/SVG/1.1/DTD/svg11.dtd">
<!-- Generated by graphviz version 14.1.2 (20260124.0452)
 -->
<!-- Title: PasswordManager::validatePassword Pages: 1 -->
<svg width="554pt" height="53pt"
 viewBox="0.00 0.00 554.00 53.00" xmlns="http://www.w3.org/2000/svg" xmlns:xlink="http://www.w3.org/1999/xlink">
<g id="graph0" class="graph" transform="scale(1 1) rotate(0) translate(4 49)">
<title>PasswordManager::validatePassword</title>
<!-- Node1 -->
<g id="Node000001" class="node">
<title>Node1</title>
<g id="a_Node000001"><a xlink:title="Validate that a password value is in the allowed set.">
<polygon fill="#999999" stroke="#666666" points="546,-32 409.25,-32 409.25,0 546,0 546,-32"/>
<text xml:space="preserve" text-anchor="start" x="417.25" y="-18.5" font-family="Helvetica,sans-Serif" font-size="10.00">PasswordManager::validate</text>
<text xml:space="preserve" text-anchor="middle" x="477.62" y="-6.5" font-family="Helvetica,sans-Serif" font-size="10.00">Password</text>
</a>
</g>
</g>
<!-- Node2 -->
<g id="Node000002" class="node">
<title>Node2</title>
<g id="a_Node000002"><a xlink:href="class_password_manager.html#a0453a3ea3ba69ce8ce21794cde5503ba" target="_top" xlink:title="Change relay password for specified access level.">
<polygon fill="white" stroke="#666666" points="373.25,-45 195.25,-45 195.25,-25 373.25,-25 373.25,-45"/>
<text xml:space="preserve" text-anchor="middle" x="284.25" y="-31.5" font-family="Helvetica,sans-Serif" font-size="10.00">PasswordManager::changePassword</text>
</a>
</g>
</g>
<!-- Node1&#45;&gt;Node2 -->
<g id="edge1_Node000001_Node000002" class="edge">
<title>Node1&#45;&gt;Node2</title>
<g id="a_edge1_Node000001_Node000002"><a xlink:title=" ">
<path fill="none" stroke="#63b8ff" d="M397.5,-23.86C389.64,-24.64 381.63,-25.43 373.68,-26.22"/>
<polygon fill="#63b8ff" stroke="#63b8ff" points="397.77,-27.35 407.38,-22.87 397.08,-20.38 397.77,-27.35"/>
</a>
</g>
</g>
<!-- Node3 -->
<g id="Node000003" class="node">
<title>Node3</title>
<g id="a_Node000003"><a xlink:href="class_password_manager.html#aa1f1fd21060064488e7ed8bc8b41f61e" target="_top" xlink:title="Process a full JSON message for the &quot;change_password&quot; action.">
<polygon fill="white" stroke="#666666" points="159.25,-26 0,-26 0,-6 159.25,-6 159.25,-26"/>
<text xml:space="preserve" text-anchor="middle" x="79.62" y="-12.5" font-family="Helvetica,sans-Serif" font-size="10.00">PasswordManager::handleAction</text>
</a>
</g>
</g>
<!-- Node1&#45;&gt;Node3 -->
<g id="edge3_Node000001_Node000003" class="edge">
<title>Node1&#45;&gt;Node3</title>
<g id="a_edge3_Node000001_Node000003"><a xlink:title=" ">
<path fill="none" stroke="#63b8ff" d="M397.75,-16C328.63,-16 228.68,-16 159.55,-16"/>
<polygon fill="#63b8ff" stroke="#63b8ff" points="397.49,-19.5 407.49,-16 397.49,-12.5 397.49,-19.5"/>
</a>
</g>
</g>
<!-- Node2&#45;&gt;Node3 -->
<g id="edge2_Node000002_Node000003" class="edge">
<title>Node2&#45;&gt;Node3</title>
<g id="a_edge2_Node000002_Node000003"><a xlink:title=" ">
<path fill="none" stroke="#63b8ff" d="M183.64,-25.66C175.61,-24.91 167.56,-24.15 159.7,-23.42"/>
<polygon fill="#63b8ff" stroke="#63b8ff" points="183.18,-29.13 193.46,-26.58 183.83,-22.16 183.18,-29.13"/>
</a>
</g>
</g>
</g>
</svg>
