<?xml version="1.0" encoding="UTF-8" standalone="no"?>
<!DOCTYPE svg PUBLIC "-//W3C//DTD SVG 1.1//EN"
 "http://www.w3.org/Graphics/SVG/1.1/DTD/svg11.dtd">
<!-- Generated by graphviz version 14.1.2 (20260124.0452)
 -->
<!-- Title: WebSocketSession::sendData Pages: 1 -->
<svg width="860pt" height="151pt"
 viewBox="0.00 0.00 860.00 151.00" xmlns="http://www.w3.org/2000/svg" xmlns:xlink="http://www.w3.org/1999/xlink">
<g id="graph0" class="graph" transform="scale(1 1) rotate(0) translate(4 147)">
<title>WebSocketSession::sendData</title>
<!-- Node1 -->
<g id="Node000001" class="node">
<title>Node1</title>
<g id="a_Node000001"><a xlink:title="Send current database records to client as JSON.">
<polygon fill="#999999" stroke="#666666" points="149.5,-63 0,-63 0,-43 149.5,-43 149.5,-63"/>
<text xml:space="preserve" text-anchor="middle" x="74.75" y="-49.5" font-family="Helvetica,sans-Serif" font-size="10.00">WebSocketSession::sendData</text>
</a>
</g>
</g>
<!-- Node2 -->
<g id="Node000002" class="node">
<title>Node2</title>
<g id="a_Node000002"><a xlink:href="namespaceasn__tlv.html#a03c61eaf7c30d4bb4e8f50d6cd2f5f03" target="_top" xlink:title="Encode SER records to ASN.1 BER/TLV format.">
<polygon fill="white" stroke="#666666" points="322.25,-119 185.5,-119 185.5,-87 322.25,-87 322.25,-119"/>
<text xml:space="preserve" text-anchor="start" x="193.5" y="-105.5" font-family="Helvetica,sans-Serif" font-size="10.00">asn_tlv::encodeSerRecords</text>
<text xml:space="preserve" text-anchor="middle" x="253.88" y="-93.5" font-family="Helvetica,sans-Serif" font-size="10.00">ToTlv</text>
</a>
</g>
</g>
<!-- Node1&#45;&gt;Node2 -->
<g id="edge1_Node000001_Node000002" class="edge">
<title>Node1&#45;&gt;Node2</title>
<g id="a_edge1_Node000001_Node000002"><a xlink:title=" ">
<path fill="none" stroke="#63b8ff" d="M112.88,-63.48C133.38,-69.27 159.5,-76.64 183.61,-83.45"/>
<polygon fill="#63b8ff" stroke="#63b8ff" points="182.49,-86.77 193.07,-86.12 184.4,-80.03 182.49,-86.77"/>
</a>
</g>
</g>
<!-- Node6 -->
<g id="Node000006" class="node">
<title>Node6</title>
<g id="a_Node000006"><a xlink:href="class_web_socket_session.html#a0fed81151d5dcbe23dbee79f1bf12c66" target="_top" xlink:title="Handle write completion.">
<polygon fill="white" stroke="#666666" points="312.88,-69 194.88,-69 194.88,-37 312.88,-37 312.88,-69"/>
<text xml:space="preserve" text-anchor="start" x="202.88" y="-55.5" font-family="Helvetica,sans-Serif" font-size="10.00">WebSocketSession::on</text>
<text xml:space="preserve" text-anchor="middle" x="253.88" y="-43.5" font-family="Helvetica,sans-Serif" font-size="10.00">_write</text>
</a>
</g>
</g>
<!-- Node1&#45;&gt;Node6 -->
<g id="edge6_Node000001_Node000006" class="edge">
<title>Node1&#45;&gt;Node6</title>
<g id="a_edge6_Node000001_Node000006"><a xlink:title=" ">
<path fill="none" stroke="#63b8ff" d="M149.84,-53C160.89,-53 172.24,-53 183.19,-53"/>
<polygon fill="#63b8ff" stroke="#63b8ff" points="182.92,-56.5 192.92,-53 182.92,-49.5 182.92,-56.5"/>
</a>
</g>
</g>
<!-- Node3 -->
<g id="Node000003" class="node">
<title>Node3</title>
<g id="a_Node000003"><a xlink:href="namespaceasn__tlv.html#a0cc9af3d4e8aba5f164c66bb47750767" target="_top" xlink:title="Append a string as a TLV structure.">
<polygon fill="white" stroke="#666666" points="492,-143 366.5,-143 366.5,-123 492,-123 492,-143"/>
<text xml:space="preserve" text-anchor="middle" x="429.25" y="-129.5" font-family="Helvetica,sans-Serif" font-size="10.00">asn_tlv::berAppendString</text>
</a>
</g>
</g>
<!-- Node2&#45;&gt;Node3 -->
<g id="edge2_Node000002_Node000003" class="edge">
<title>Node2&#45;&gt;Node3</title>
<g id="a_edge2_Node000002_Node000003"><a xlink:title=" ">
<path fill="none" stroke="#63b8ff" d="M322.4,-114.68C333.6,-116.62 345.24,-118.64 356.54,-120.59"/>
<polygon fill="#63b8ff" stroke="#63b8ff" points="355.74,-124.01 366.19,-122.26 356.94,-117.11 355.74,-124.01"/>
</a>
</g>
</g>
<!-- Node4 -->
<g id="Node000004" class="node">
<title>Node4</title>
<g id="a_Node000004"><a xlink:href="namespaceasn__tlv.html#a4a9f3333d71c851f9002020ffd417b18" target="_top" xlink:title="Append a complete TLV structure to an output buffer.">
<polygon fill="white" stroke="#666666" points="664,-128 550.5,-128 550.5,-108 664,-108 664,-128"/>
<text xml:space="preserve" text-anchor="middle" x="607.25" y="-114.5" font-family="Helvetica,sans-Serif" font-size="10.00">asn_tlv::berAppendTlv</text>
</a>
</g>
</g>
<!-- Node2&#45;&gt;Node4 -->
<g id="edge5_Node000002_Node000004" class="edge">
<title>Node2&#45;&gt;Node4</title>
<g id="a_edge5_Node000002_Node000004"><a xlink:title=" ">
<path fill="none" stroke="#63b8ff" d="M322.62,-105.89C384.86,-108.55 476.6,-112.47 538.75,-115.12"/>
<polygon fill="#63b8ff" stroke="#63b8ff" points="538.35,-118.6 548.49,-115.53 538.65,-111.61 538.35,-118.6"/>
</a>
</g>
</g>
<!-- Node3&#45;&gt;Node4 -->
<g id="edge3_Node000003_Node000004" class="edge">
<title>Node3&#45;&gt;Node4</title>
<g id="a_edge3_Node000003_Node000004"><a xlink:title=" ">
<path fill="none" stroke="#63b8ff" d="M492.3,-127.71C507.29,-126.43 523.37,-125.06 538.6,-123.77"/>
<polygon fill="#63b8ff" stroke="#63b8ff" points="538.87,-127.26 548.53,-122.92 538.27,-120.28 538.87,-127.26"/>
</a>
</g>
</g>
<!-- Node5 -->
<g id="Node000005" class="node">
<title>Node5</title>
<g id="a_Node000005"><a xlink:href="namespaceasn__tlv.html#af1ae5498c52c5e99d18f2cd5cb4f2609" target="_top" xlink:title="Append BER length encoding to an output buffer.">
<polygon fill="white" stroke="#666666" points="847.62,-128 718.38,-128 718.38,-108 847.62,-108 847.62,-128"/>
<text xml:space="preserve" text-anchor="middle" x="783" y="-114.5" font-family="Helvetica,sans-Serif" font-size="10.00">asn_tlv::berAppendLength</text>
</a>
</g>
</g>
<!-- Node4&#45;&gt;Node5 -->
<g id="edge4_Node000004_Node000005" class="edge">
<title>Node4&#45;&gt;Node5</title>
<g id="a_edge4_Node000004_Node000005"><a xlink:title=" ">
<path fill="none" stroke="#63b8ff" d="M664.18,-118C677.72,-118 692.42,-118 706.69,-118"/>
<polygon fill="#63b8ff" stroke="#63b8ff" points="706.5,-121.5 716.5,-118 706.5,-114.5 706.5,-121.5"/>
</a>
</g>
</g>
<!-- Node7 -->
<g id="Node000007" class="node">
<title>Node7</title>
<g id="a_Node000007"><a xlink:href="class_web_socket_session.html#a2bc079950c2e39e8ff745f0da57646ba" target="_top" xlink:title="Initiate async read for next client message.">
<polygon fill="white" stroke="#666666" points="500.25,-60 358.25,-60 358.25,-40 500.25,-40 500.25,-60"/>
<text xml:space="preserve" text-anchor="middle" x="429.25" y="-46.5" font-family="Helvetica,sans-Serif" font-size="10.00">WebSocketSession::do_read</text>
</a>
</g>
</g>
<!-- Node6&#45;&gt;Node7 -->
<g id="edge7_Node000006_Node000007" class="edge">
<title>Node6&#45;&gt;Node7</title>
<g id="a_edge7_Node000006_Node000007"><a xlink:title=" ">
<path fill="none" stroke="#63b8ff" d="M313.09,-51.99C323.86,-51.81 335.29,-51.61 346.61,-51.41"/>
<polygon fill="#63b8ff" stroke="#63b8ff" points="346.41,-54.92 356.35,-51.24 346.29,-47.92 346.41,-54.92"/>
</a>
</g>
</g>
<!-- Node8 -->
<g id="Node000008" class="node">
<title>Node8</title>
<g id="a_Node000008"><a xlink:href="class_web_socket_session.html#a6c0557f87f9f6050a8848237ace942bb" target="_top" xlink:title="Handle received client message.">
<polygon fill="white" stroke="#666666" points="678.25,-60 536.25,-60 536.25,-40 678.25,-40 678.25,-60"/>
<text xml:space="preserve" text-anchor="middle" x="607.25" y="-46.5" font-family="Helvetica,sans-Serif" font-size="10.00">WebSocketSession::on_read</text>
</a>
</g>
</g>
<!-- Node7&#45;&gt;Node8 -->
<g id="edge8_Node000007_Node000008" class="edge">
<title>Node7&#45;&gt;Node8</title>
<g id="a_edge8_Node000007_Node000008"><a xlink:title=" ">
<path fill="none" stroke="#63b8ff" d="M500.57,-43.37C508.44,-43.26 516.51,-43.23 524.52,-43.27"/>
<polygon fill="#63b8ff" stroke="#63b8ff" points="524.21,-46.76 534.24,-43.36 524.28,-39.76 524.21,-46.76"/>
</a>
</g>
</g>
<!-- Node8&#45;&gt;Node1 -->
<g id="edge12_Node000008_Node000001" class="edge">
<title>Node8&#45;&gt;Node1</title>
<g id="a_edge12_Node000008_Node000001"><a xlink:title=" ">
<path fill="none" stroke="#63b8ff" d="M557.13,-39.5C539.31,-36.14 518.95,-32.82 500.25,-31 361.01,-17.44 324.52,-12.37 185.5,-28 164.9,-30.32 142.53,-35.01 123.39,-39.7"/>
<polygon fill="#63b8ff" stroke="#63b8ff" points="122.53,-36.31 113.7,-42.16 124.25,-43.1 122.53,-36.31"/>
</a>
</g>
</g>
<!-- Node8&#45;&gt;Node7 -->
<g id="edge9_Node000008_Node000007" class="edge">
<title>Node8&#45;&gt;Node7</title>
<g id="a_edge9_Node000008_Node000007"><a xlink:title=" ">
<path fill="none" stroke="#63b8ff" d="M535.76,-56.63C527.97,-56.74 519.99,-56.77 512.08,-56.74"/>
<polygon fill="#63b8ff" stroke="#63b8ff" points="512.11,-53.24 502.08,-56.64 512.05,-60.24 512.11,-53.24"/>
</a>
</g>
</g>
<!-- Node9 -->
<g id="Node000009" class="node">
<title>Node9</title>
<g id="a_Node000009"><a xlink:href="class_web_socket_session.html#a43bf9b3aa8c9ed23d031c7ae8059da22" target="_top" xlink:title="Extract the &quot;action&quot; value from a simple JSON object.">
<polygon fill="white" stroke="#666666" points="851.75,-82 714.25,-82 714.25,-50 851.75,-50 851.75,-82"/>
<text xml:space="preserve" text-anchor="start" x="722.25" y="-68.5" font-family="Helvetica,sans-Serif" font-size="10.00">WebSocketSession::extract</text>
<text xml:space="preserve" text-anchor="middle" x="783" y="-56.5" font-family="Helvetica,sans-Serif" font-size="10.00">Action</text>
</a>
</g>
</g>
<!-- Node8&#45;&gt;Node9 -->
<g id="edge10_Node000008_Node000009" class="edge">
<title>Node8&#45;&gt;Node9</title>
<g id="a_edge10_Node000008_Node000009"><a xlink:title=" ">
<path fill="none" stroke="#63b8ff" d="M678.67,-56.48C686.6,-57.21 694.72,-57.96 702.75,-58.7"/>
<polygon fill="#63b8ff" stroke="#63b8ff" points="702.23,-62.17 712.51,-59.6 702.87,-55.2 702.23,-62.17"/>
</a>
</g>
</g>
<!-- Node10 -->
<g id="Node000010" class="node">
<title>Node10</title>
<g id="a_Node000010"><a xlink:href="class_web_socket_session.html#a606e227b631d765ac0191c0535df607f" target="_top" xlink:title="Check if a message is a JSON action (contains &quot;action&quot; key).">
<polygon fill="white" stroke="#666666" points="851,-32 715,-32 715,0 851,0 851,-32"/>
<text xml:space="preserve" text-anchor="start" x="723" y="-18.5" font-family="Helvetica,sans-Serif" font-size="10.00">WebSocketSession::isJson</text>
<text xml:space="preserve" text-anchor="middle" x="783" y="-6.5" font-family="Helvetica,sans-Serif" font-size="10.00">Action</text>
</a>
</g>
</g>
<!-- Node8&#45;&gt;Node10 -->
<g id="edge11_Node000008_Node000010" class="edge">
<title>Node8&#45;&gt;Node10</title>
<g id="a_edge11_Node000008_Node000010"><a xlink:title=" ">
<path fill="none" stroke="#63b8ff" d="M661.8,-39.52C674.94,-36.95 689.28,-34.14 703.33,-31.4"/>
<polygon fill="#63b8ff" stroke="#63b8ff" points="703.88,-34.85 713.02,-29.5 702.53,-27.98 703.88,-34.85"/>
</a>
</g>
</g>
</g>
</svg>
