<?xml version="1.0" encoding="UTF-8" standalone="no"?>
<!DOCTYPE svg PUBLIC "-//W3C//DTD SVG 1.1//EN"
 "http://www.w3.org/Graphics/SVG/1.1/DTD/svg11.dtd">
<!-- Generated by graphviz version 14.1.1 (20251213.1925)
 -->
<!-- Title: SessionManager Pages: 1 -->
<svg width="704pt" height="1405pt"
 viewBox="0.00 0.00 704.00 1405.00" xmlns="http://www.w3.org/2000/svg" xmlns:xlink="http://www.w3.org/1999/xlink">
<g id="graph0" class="graph" transform="scale(1 1) rotate(0) translate(4 1401)">
<title>SessionManager</title>
<!-- Node1 -->
<g id="Node000001" class="node">
<title>Node1</title>
<g id="a_Node000001"><a xlink:title="Manages all active WebSocket sessions for broadcast.">
<polygon fill="#999999" stroke="none" points="695,-778 614.25,-778 614.25,-678 695,-678 695,-778"/>
<text xml:space="preserve" text-anchor="start" x="618.25" y="-764.5" font-family="Helvetica,sans-Serif" font-size="10.00">SessionManager</text>
<text xml:space="preserve" text-anchor="start" x="653.12" y="-748.5" font-family="Helvetica,sans-Serif" font-size="10.00"> </text>
<text xml:space="preserve" text-anchor="start" x="618.94" y="-732.5" font-family="Helvetica,sans-Serif" font-size="10.00">+</text>
<text xml:space="preserve" text-anchor="start" x="629.62" y="-732.5" font-family="Helvetica,sans-Serif" font-size="10.00">add()</text>
<text xml:space="preserve" text-anchor="start" x="618.94" y="-716.5" font-family="Helvetica,sans-Serif" font-size="10.00">+</text>
<text xml:space="preserve" text-anchor="start" x="629.62" y="-716.5" font-family="Helvetica,sans-Serif" font-size="10.00">remove()</text>
<text xml:space="preserve" text-anchor="start" x="618.94" y="-700.5" font-family="Helvetica,sans-Serif" font-size="10.00">+</text>
<text xml:space="preserve" text-anchor="start" x="629.62" y="-700.5" font-family="Helvetica,sans-Serif" font-size="10.00">getSessions()</text>
<text xml:space="preserve" text-anchor="start" x="618.94" y="-684.5" font-family="Helvetica,sans-Serif" font-size="10.00">+</text>
<text xml:space="preserve" text-anchor="start" x="629.62" y="-684.5" font-family="Helvetica,sans-Serif" font-size="10.00">count()</text>
<polygon fill="#666666" stroke="#666666" points="614.25,-760 614.25,-760 695,-760 695,-760 614.25,-760"/>
<polygon fill="#666666" stroke="#666666" points="614.25,-744 614.25,-744 695,-744 695,-744 614.25,-744"/>
<polygon fill="none" stroke="#666666" points="614.25,-678 614.25,-778 695,-778 695,-678 614.25,-678"/>
</a>
</g>
</g>
<!-- Node5 -->
<g id="Node000005" class="node">
<title>Node5</title>
<g id="a_Node000005"><a xlink:href="class_web_socket_session.html" target="_top" xlink:title="Handles a single WebSocket client connection.">
<polygon fill="white" stroke="none" points="474.38,-624 358.88,-624 358.88,-236 474.38,-236 474.38,-624"/>
<text xml:space="preserve" text-anchor="start" x="373.88" y="-610.5" font-family="Helvetica,sans-Serif" font-size="10.00">WebSocketSession</text>
<text xml:space="preserve" text-anchor="start" x="364.38" y="-594.5" font-family="Helvetica,sans-Serif" font-size="10.00">&#45;</text>
<text xml:space="preserve" text-anchor="start" x="372.88" y="-594.5" font-family="Helvetica,sans-Serif" font-size="10.00">ws_</text>
<text xml:space="preserve" text-anchor="start" x="364.38" y="-578.5" font-family="Helvetica,sans-Serif" font-size="10.00">&#45;</text>
<text xml:space="preserve" text-anchor="start" x="372.88" y="-578.5" font-family="Helvetica,sans-Serif" font-size="10.00">buffer_</text>
<text xml:space="preserve" text-anchor="start" x="364.38" y="-562.5" font-family="Helvetica,sans-Serif" font-size="10.00">&#45;</text>
<text xml:space="preserve" text-anchor="start" x="372.88" y="-562.5" font-family="Helvetica,sans-Serif" font-size="10.00">writing_</text>
<text xml:space="preserve" text-anchor="start" x="364.38" y="-546.5" font-family="Helvetica,sans-Serif" font-size="10.00">&#45;</text>
<text xml:space="preserve" text-anchor="start" x="372.88" y="-546.5" font-family="Helvetica,sans-Serif" font-size="10.00">pending_read_</text>
<text xml:space="preserve" text-anchor="start" x="364.38" y="-530.5" font-family="Helvetica,sans-Serif" font-size="10.00">&#45;</text>
<text xml:space="preserve" text-anchor="start" x="372.88" y="-530.5" font-family="Helvetica,sans-Serif" font-size="10.00">cmdHandler_</text>
<text xml:space="preserve" text-anchor="start" x="364.38" y="-514.5" font-family="Helvetica,sans-Serif" font-size="10.00">&#45;</text>
<text xml:space="preserve" text-anchor="start" x="372.88" y="-514.5" font-family="Helvetica,sans-Serif" font-size="10.00">actionHandler_</text>
<text xml:space="preserve" text-anchor="start" x="364.38" y="-498.5" font-family="Helvetica,sans-Serif" font-size="10.00">&#45;</text>
<text xml:space="preserve" text-anchor="start" x="372.88" y="-498.5" font-family="Helvetica,sans-Serif" font-size="10.00">streamCmdHandler_</text>
<text xml:space="preserve" text-anchor="start" x="362.88" y="-482.5" font-family="Helvetica,sans-Serif" font-size="10.00">+</text>
<text xml:space="preserve" text-anchor="start" x="372.88" y="-482.5" font-family="Helvetica,sans-Serif" font-size="10.00">WebSocketSession()</text>
<text xml:space="preserve" text-anchor="start" x="362.88" y="-466.5" font-family="Helvetica,sans-Serif" font-size="10.00">+</text>
<text xml:space="preserve" text-anchor="start" x="372.88" y="-466.5" font-family="Helvetica,sans-Serif" font-size="10.00">~WebSocketSession()</text>
<text xml:space="preserve" text-anchor="start" x="362.88" y="-450.5" font-family="Helvetica,sans-Serif" font-size="10.00">+</text>
<text xml:space="preserve" text-anchor="start" x="372.88" y="-450.5" font-family="Helvetica,sans-Serif" font-size="10.00">sendBroadcast()</text>
<text xml:space="preserve" text-anchor="start" x="362.88" y="-434.5" font-family="Helvetica,sans-Serif" font-size="10.00">+</text>
<text xml:space="preserve" text-anchor="start" x="372.88" y="-434.5" font-family="Helvetica,sans-Serif" font-size="10.00">sendTextBroadcast()</text>
<text xml:space="preserve" text-anchor="start" x="362.88" y="-418.5" font-family="Helvetica,sans-Serif" font-size="10.00">+</text>
<text xml:space="preserve" text-anchor="start" x="372.88" y="-418.5" font-family="Helvetica,sans-Serif" font-size="10.00">run()</text>
<text xml:space="preserve" text-anchor="start" x="364.38" y="-402.5" font-family="Helvetica,sans-Serif" font-size="10.00">&#45;</text>
<text xml:space="preserve" text-anchor="start" x="372.88" y="-402.5" font-family="Helvetica,sans-Serif" font-size="10.00">on_accept()</text>
<text xml:space="preserve" text-anchor="start" x="364.38" y="-386.5" font-family="Helvetica,sans-Serif" font-size="10.00">&#45;</text>
<text xml:space="preserve" text-anchor="start" x="372.88" y="-386.5" font-family="Helvetica,sans-Serif" font-size="10.00">do_broadcast()</text>
<text xml:space="preserve" text-anchor="start" x="364.38" y="-370.5" font-family="Helvetica,sans-Serif" font-size="10.00">&#45;</text>
<text xml:space="preserve" text-anchor="start" x="372.88" y="-370.5" font-family="Helvetica,sans-Serif" font-size="10.00">on_broadcast_write()</text>
<text xml:space="preserve" text-anchor="start" x="364.38" y="-354.5" font-family="Helvetica,sans-Serif" font-size="10.00">&#45;</text>
<text xml:space="preserve" text-anchor="start" x="372.88" y="-354.5" font-family="Helvetica,sans-Serif" font-size="10.00">drainQueue()</text>
<text xml:space="preserve" text-anchor="start" x="364.38" y="-338.5" font-family="Helvetica,sans-Serif" font-size="10.00">&#45;</text>
<text xml:space="preserve" text-anchor="start" x="372.88" y="-338.5" font-family="Helvetica,sans-Serif" font-size="10.00">do_read()</text>
<text xml:space="preserve" text-anchor="start" x="364.38" y="-322.5" font-family="Helvetica,sans-Serif" font-size="10.00">&#45;</text>
<text xml:space="preserve" text-anchor="start" x="372.88" y="-322.5" font-family="Helvetica,sans-Serif" font-size="10.00">on_read()</text>
<text xml:space="preserve" text-anchor="start" x="364.38" y="-306.5" font-family="Helvetica,sans-Serif" font-size="10.00">&#45;</text>
<text xml:space="preserve" text-anchor="start" x="372.88" y="-306.5" font-family="Helvetica,sans-Serif" font-size="10.00">sendData()</text>
<text xml:space="preserve" text-anchor="start" x="364.38" y="-290.5" font-family="Helvetica,sans-Serif" font-size="10.00">&#45;</text>
<text xml:space="preserve" text-anchor="start" x="372.88" y="-290.5" font-family="Helvetica,sans-Serif" font-size="10.00">on_write()</text>
<text xml:space="preserve" text-anchor="start" x="364.38" y="-274.5" font-family="Helvetica,sans-Serif" font-size="10.00">&#45;</text>
<text xml:space="preserve" text-anchor="start" x="372.88" y="-274.5" font-family="Helvetica,sans-Serif" font-size="10.00">sendTextResponse()</text>
<text xml:space="preserve" text-anchor="start" x="364.38" y="-258.5" font-family="Helvetica,sans-Serif" font-size="10.00">&#45;</text>
<text xml:space="preserve" text-anchor="start" x="372.88" y="-258.5" font-family="Helvetica,sans-Serif" font-size="10.00">isJsonAction()</text>
<text xml:space="preserve" text-anchor="start" x="364.38" y="-242.5" font-family="Helvetica,sans-Serif" font-size="10.00">&#45;</text>
<text xml:space="preserve" text-anchor="start" x="372.88" y="-242.5" font-family="Helvetica,sans-Serif" font-size="10.00">extractAction()</text>
<polygon fill="#666666" stroke="#666666" points="358.88,-606 358.88,-606 474.38,-606 474.38,-606 358.88,-606"/>
<polygon fill="#666666" stroke="#666666" points="358.88,-494 358.88,-494 370.88,-494 370.88,-494 358.88,-494"/>
<polygon fill="#666666" stroke="#666666" points="370.88,-494 370.88,-494 474.38,-494 474.38,-494 370.88,-494"/>
<polygon fill="none" stroke="#666666" points="358.88,-236 358.88,-624 474.38,-624 474.38,-236 358.88,-236"/>
</a>
</g>
</g>
<!-- Node1&#45;&gt;Node5 -->
<g id="edge9_Node000005_Node000001" class="edge">
<title>Node1&#45;&gt;Node5</title>
<g id="a_edge9_Node000005_Node000001"><a xlink:title=" ">
<path fill="none" stroke="#63b8ff" d="M614.35,-691.76C603.79,-681.87 592.7,-670.84 583.12,-660 546.99,-619.07 510.86,-570.54 481.54,-528.71"/>
<polygon fill="none" stroke="#63b8ff" points="481.61,-528.82 474.9,-526.18 474.75,-518.97 481.46,-521.61 481.61,-528.82"/>
</a>
</g>
<text xml:space="preserve" text-anchor="start" x="586.12" y="-647.5" font-family="Helvetica,sans-Serif" font-size="10.00" fill="grey">&#45;sessionMgr_</text>
</g>
<!-- Node2 -->
<g id="Node000002" class="node">
<title>Node2</title>
<g id="a_Node000002"><a xlink:title=" ">
<polygon fill="white" stroke="none" points="681.88,-1174 627.38,-1174 627.38,-1122 681.88,-1122 681.88,-1174"/>
<text xml:space="preserve" text-anchor="start" x="631.38" y="-1160.5" font-family="Helvetica,sans-Serif" font-size="10.00">std::mutex</text>
<text xml:space="preserve" text-anchor="start" x="653.12" y="-1144.5" font-family="Helvetica,sans-Serif" font-size="10.00"> </text>
<text xml:space="preserve" text-anchor="start" x="653.12" y="-1128.5" font-family="Helvetica,sans-Serif" font-size="10.00"> </text>
<polygon fill="#666666" stroke="#666666" points="627.38,-1156 627.38,-1156 681.88,-1156 681.88,-1156 627.38,-1156"/>
<polygon fill="#666666" stroke="#666666" points="627.38,-1140 627.38,-1140 681.88,-1140 681.88,-1140 627.38,-1140"/>
<polygon fill="none" stroke="#666666" points="627.38,-1122 627.38,-1174 681.88,-1174 681.88,-1122 627.38,-1122"/>
</a>
</g>
</g>
<!-- Node2&#45;&gt;Node1 -->
<g id="edge1_Node000001_Node000002" class="edge">
<title>Node2&#45;&gt;Node1</title>
<g id="a_edge1_Node000001_Node000002"><a xlink:title=" ">
<path fill="none" stroke="#63b8ff" d="M654.62,-1122.1C654.62,-1057.71 654.62,-884.19 654.62,-790.69"/>
<polygon fill="none" stroke="#63b8ff" points="654.63,-790.67 650.63,-784.67 654.63,-778.67 658.63,-784.67 654.63,-790.67"/>
</a>
</g>
<text xml:space="preserve" text-anchor="start" x="657.62" y="-946.5" font-family="Helvetica,sans-Serif" font-size="10.00" fill="grey">&#45;mutex_</text>
</g>
<!-- Node3 -->
<g id="Node000003" class="node">
<title>Node3</title>
<g id="a_Node000003"><a xlink:title=" ">
<polygon fill="white" stroke="none" points="683.12,-64 546.12,-64 546.12,0 683.12,0 683.12,-64"/>
<text xml:space="preserve" text-anchor="start" x="550.12" y="-50.5" font-family="Helvetica,sans-Serif" font-size="10.00">std::set&lt; std::shared</text>
<text xml:space="preserve" text-anchor="start" x="550.12" y="-38.5" font-family="Helvetica,sans-Serif" font-size="10.00">_ptr&lt; WebSocketSession &gt; &gt;</text>
<text xml:space="preserve" text-anchor="start" x="613.12" y="-22.5" font-family="Helvetica,sans-Serif" font-size="10.00"> </text>
<text xml:space="preserve" text-anchor="start" x="613.12" y="-6.5" font-family="Helvetica,sans-Serif" font-size="10.00"> </text>
<polygon fill="#666666" stroke="#666666" points="546.12,-34 546.12,-34 683.12,-34 683.12,-34 546.12,-34"/>
<polygon fill="#666666" stroke="#666666" points="546.12,-18 546.12,-18 683.12,-18 683.12,-18 546.12,-18"/>
<polygon fill="none" stroke="#666666" points="546.12,0 546.12,-64 683.12,-64 683.12,0 546.12,0"/>
</a>
</g>
</g>
<!-- Node3&#45;&gt;Node1 -->
<g id="edge2_Node000001_Node000003" class="edge">
<title>Node3&#45;&gt;Node1</title>
<g id="a_edge2_Node000001_Node000003"><a xlink:title=" ">
<path fill="none" stroke="#63b8ff" d="M616.39,-63.66C622.5,-169.65 642.8,-521.91 651.07,-665.39"/>
<polygon fill="none" stroke="#63b8ff" points="651.07,-665.32 655.41,-671.08 651.76,-677.3 647.42,-671.54 651.07,-665.32"/>
</a>
</g>
<text xml:space="preserve" text-anchor="start" x="628.27" y="-205.5" font-family="Helvetica,sans-Serif" font-size="10.00" fill="grey">&#45;sessions_</text>
</g>
<!-- Node4 -->
<g id="Node000004" class="node">
<title>Node4</title>
<g id="a_Node000004"><a xlink:title=" ">
<polygon fill="white" stroke="none" points="590.88,-182 458.38,-182 458.38,-118 590.88,-118 590.88,-182"/>
<text xml:space="preserve" text-anchor="start" x="462.38" y="-168.5" font-family="Helvetica,sans-Serif" font-size="10.00">std::shared_ptr&lt; WebSocket</text>
<text xml:space="preserve" text-anchor="start" x="502.5" y="-156.5" font-family="Helvetica,sans-Serif" font-size="10.00">Session &gt;</text>
<text xml:space="preserve" text-anchor="start" x="523.12" y="-140.5" font-family="Helvetica,sans-Serif" font-size="10.00"> </text>
<text xml:space="preserve" text-anchor="start" x="478.44" y="-124.5" font-family="Helvetica,sans-Serif" font-size="10.00">+</text>
<text xml:space="preserve" text-anchor="start" x="504.5" y="-124.5" font-family="Helvetica,sans-Serif" font-size="10.00">operator&#45;&gt;()</text>
<polygon fill="#666666" stroke="#666666" points="458.38,-152 458.38,-152 590.88,-152 590.88,-152 458.38,-152"/>
<polygon fill="#666666" stroke="#666666" points="458.38,-136 458.38,-136 590.88,-136 590.88,-136 458.38,-136"/>
<polygon fill="none" stroke="#666666" points="458.38,-118 458.38,-182 590.88,-182 590.88,-118 458.38,-118"/>
</a>
</g>
</g>
<!-- Node4&#45;&gt;Node3 -->
<g id="edge3_Node000003_Node000004" class="edge">
<title>Node4&#45;&gt;Node3</title>
<g id="a_edge3_Node000003_Node000004"><a xlink:title=" ">
<path fill="none" stroke="#63b8ff" d="M548.51,-118.22C558.98,-104.72 571.43,-88.67 582.69,-74.16"/>
<polygon fill="none" stroke="#63b8ff" points="582.72,-74.12 583.24,-66.93 590.08,-64.64 589.56,-71.83 582.72,-74.12"/>
</a>
</g>
<text xml:space="preserve" text-anchor="start" x="578.01" y="-87.5" font-family="Helvetica,sans-Serif" font-size="10.00" fill="grey">+keys</text>
</g>
<!-- Node5&#45;&gt;Node4 -->
<g id="edge4_Node000004_Node000005" class="edge">
<title>Node5&#45;&gt;Node4</title>
<g id="a_edge4_Node000004_Node000005"><a xlink:title=" ">
<path fill="none" stroke="#63b8ff" d="M474.26,-280.64C486.62,-248.84 498.72,-217.69 507.96,-193.9"/>
<polygon fill="none" stroke="#63b8ff" points="507.98,-193.85 506.42,-186.8 512.33,-182.66 513.88,-189.7 507.98,-193.85"/>
</a>
</g>
<text xml:space="preserve" text-anchor="start" x="506.97" y="-205.5" font-family="Helvetica,sans-Serif" font-size="10.00" fill="grey">+ptr</text>
</g>
<!-- Node6 -->
<g id="Node000006" class="node">
<title>Node6</title>
<g id="a_Node000006"><a xlink:title=" ">
<polygon fill="white" stroke="none" points="157.25,-760 0,-760 0,-696 157.25,-696 157.25,-760"/>
<text xml:space="preserve" text-anchor="start" x="4" y="-746.5" font-family="Helvetica,sans-Serif" font-size="10.00">std::enable_shared</text>
<text xml:space="preserve" text-anchor="start" x="4" y="-734.5" font-family="Helvetica,sans-Serif" font-size="10.00">_from_this&lt; WebSocketSession &gt;</text>
<text xml:space="preserve" text-anchor="start" x="77.12" y="-718.5" font-family="Helvetica,sans-Serif" font-size="10.00"> </text>
<text xml:space="preserve" text-anchor="start" x="77.12" y="-702.5" font-family="Helvetica,sans-Serif" font-size="10.00"> </text>
<polygon fill="#666666" stroke="#666666" points="0,-730 0,-730 157.25,-730 157.25,-730 0,-730"/>
<polygon fill="#666666" stroke="#666666" points="0,-714 0,-714 157.25,-714 157.25,-714 0,-714"/>
<polygon fill="none" stroke="#666666" points="0,-696 0,-760 157.25,-760 157.25,-696 0,-696"/>
</a>
</g>
</g>
<!-- Node6&#45;&gt;Node5 -->
<g id="edge5_Node000005_Node000006" class="edge">
<title>Node6&#45;&gt;Node5</title>
<g id="a_edge5_Node000005_Node000006"><a xlink:title=" ">
<path fill="none" stroke="#63b8ff" d="M120.1,-688.61C136.11,-673.92 154.63,-657.08 171.62,-642 235.24,-585.56 309.36,-522.02 359.28,-479.56"/>
<polygon fill="none" stroke="#63b8ff" points="118.09,-685.7 113.1,-695.05 122.83,-690.86 118.09,-685.7"/>
</a>
</g>
</g>
<!-- Node7 -->
<g id="Node000007" class="node">
<title>Node7</title>
<g id="a_Node000007"><a xlink:href="class_s_e_r_database.html" target="_top" xlink:title="SQLite database handler for storing and retrieving SER records.">
<polygon fill="white" stroke="none" points="624.62,-1104 486.62,-1104 486.62,-796 624.62,-796 624.62,-1104"/>
<text xml:space="preserve" text-anchor="start" x="524.12" y="-1090.5" font-family="Helvetica,sans-Serif" font-size="10.00">SERDatabase</text>
<text xml:space="preserve" text-anchor="start" x="492.12" y="-1074.5" font-family="Helvetica,sans-Serif" font-size="10.00">&#45;</text>
<text xml:space="preserve" text-anchor="start" x="500.62" y="-1074.5" font-family="Helvetica,sans-Serif" font-size="10.00">db_</text>
<text xml:space="preserve" text-anchor="start" x="490.62" y="-1058.5" font-family="Helvetica,sans-Serif" font-size="10.00">+</text>
<text xml:space="preserve" text-anchor="start" x="500.62" y="-1058.5" font-family="Helvetica,sans-Serif" font-size="10.00">SERDatabase()</text>
<text xml:space="preserve" text-anchor="start" x="490.62" y="-1042.5" font-family="Helvetica,sans-Serif" font-size="10.00">+</text>
<text xml:space="preserve" text-anchor="start" x="500.62" y="-1042.5" font-family="Helvetica,sans-Serif" font-size="10.00">~SERDatabase()</text>
<text xml:space="preserve" text-anchor="start" x="490.62" y="-1026.5" font-family="Helvetica,sans-Serif" font-size="10.00">+</text>
<text xml:space="preserve" text-anchor="start" x="500.62" y="-1026.5" font-family="Helvetica,sans-Serif" font-size="10.00">open()</text>
<text xml:space="preserve" text-anchor="start" x="490.62" y="-1010.5" font-family="Helvetica,sans-Serif" font-size="10.00">+</text>
<text xml:space="preserve" text-anchor="start" x="500.62" y="-1010.5" font-family="Helvetica,sans-Serif" font-size="10.00">close()</text>
<text xml:space="preserve" text-anchor="start" x="490.62" y="-994.5" font-family="Helvetica,sans-Serif" font-size="10.00">+</text>
<text xml:space="preserve" text-anchor="start" x="500.62" y="-994.5" font-family="Helvetica,sans-Serif" font-size="10.00">isOpen()</text>
<text xml:space="preserve" text-anchor="start" x="490.62" y="-978.5" font-family="Helvetica,sans-Serif" font-size="10.00">+</text>
<text xml:space="preserve" text-anchor="start" x="500.62" y="-978.5" font-family="Helvetica,sans-Serif" font-size="10.00">insertRecord()</text>
<text xml:space="preserve" text-anchor="start" x="490.62" y="-962.5" font-family="Helvetica,sans-Serif" font-size="10.00">+</text>
<text xml:space="preserve" text-anchor="start" x="500.62" y="-962.5" font-family="Helvetica,sans-Serif" font-size="10.00">insertRecords()</text>
<text xml:space="preserve" text-anchor="start" x="490.62" y="-946.5" font-family="Helvetica,sans-Serif" font-size="10.00">+</text>
<text xml:space="preserve" text-anchor="start" x="500.62" y="-946.5" font-family="Helvetica,sans-Serif" font-size="10.00">insertAndGetNewRecords()</text>
<text xml:space="preserve" text-anchor="start" x="490.62" y="-930.5" font-family="Helvetica,sans-Serif" font-size="10.00">+</text>
<text xml:space="preserve" text-anchor="start" x="500.62" y="-930.5" font-family="Helvetica,sans-Serif" font-size="10.00">getAllRecords()</text>
<text xml:space="preserve" text-anchor="start" x="490.62" y="-914.5" font-family="Helvetica,sans-Serif" font-size="10.00">+</text>
<text xml:space="preserve" text-anchor="start" x="500.62" y="-914.5" font-family="Helvetica,sans-Serif" font-size="10.00">getRecordsByStatus()</text>
<text xml:space="preserve" text-anchor="start" x="500.62" y="-898.5" font-family="Helvetica,sans-Serif" font-size="10.00">and 6 more...</text>
<text xml:space="preserve" text-anchor="start" x="490.62" y="-882.5" font-family="Helvetica,sans-Serif" font-size="10.00">+</text>
<text xml:space="preserve" text-anchor="start" x="500.62" y="-882.5" font-family="Helvetica,sans-Serif" font-size="10.00">SERDatabase()</text>
<text xml:space="preserve" text-anchor="start" x="490.62" y="-866.5" font-family="Helvetica,sans-Serif" font-size="10.00">+</text>
<text xml:space="preserve" text-anchor="start" x="500.62" y="-866.5" font-family="Helvetica,sans-Serif" font-size="10.00">operator=()</text>
<text xml:space="preserve" text-anchor="start" x="492.12" y="-850.5" font-family="Helvetica,sans-Serif" font-size="10.00">&#45;</text>
<text xml:space="preserve" text-anchor="start" x="500.62" y="-850.5" font-family="Helvetica,sans-Serif" font-size="10.00">createTable()</text>
<text xml:space="preserve" text-anchor="start" x="492.12" y="-834.5" font-family="Helvetica,sans-Serif" font-size="10.00">&#45;</text>
<text xml:space="preserve" text-anchor="start" x="500.62" y="-834.5" font-family="Helvetica,sans-Serif" font-size="10.00">recordExists()</text>
<text xml:space="preserve" text-anchor="start" x="491.75" y="-818.5" font-family="Helvetica,sans-Serif" font-size="10.00">*</text>
<text xml:space="preserve" text-anchor="start" x="500.62" y="-818.5" font-family="Helvetica,sans-Serif" font-size="10.00">SERDatabase()</text>
<text xml:space="preserve" text-anchor="start" x="491.75" y="-802.5" font-family="Helvetica,sans-Serif" font-size="10.00">*</text>
<text xml:space="preserve" text-anchor="start" x="500.62" y="-802.5" font-family="Helvetica,sans-Serif" font-size="10.00">operator=()</text>
<polygon fill="#666666" stroke="#666666" points="486.62,-1086 486.62,-1086 624.62,-1086 624.62,-1086 486.62,-1086"/>
<polygon fill="#666666" stroke="#666666" points="486.62,-1070 486.62,-1070 498.62,-1070 498.62,-1070 486.62,-1070"/>
<polygon fill="#666666" stroke="#666666" points="498.62,-1070 498.62,-1070 624.62,-1070 624.62,-1070 498.62,-1070"/>
<polygon fill="none" stroke="#666666" points="486.62,-796 486.62,-1104 624.62,-1104 624.62,-796 486.62,-796"/>
</a>
</g>
</g>
<!-- Node7&#45;&gt;Node5 -->
<g id="edge6_Node000005_Node000007" class="edge">
<title>Node7&#45;&gt;Node5</title>
<g id="a_edge6_Node000005_Node000007"><a xlink:title=" ">
<path fill="none" stroke="#63b8ff" d="M486.77,-800.61C485.41,-799.05 484.03,-797.51 482.62,-796 471.57,-784.13 459.72,-791.6 450.88,-778 434.77,-753.25 425.97,-696.96 421.24,-636.78"/>
<polygon fill="none" stroke="#63b8ff" points="421.24,-636.75 416.81,-631.06 420.36,-624.78 424.79,-630.48 421.24,-636.75"/>
</a>
</g>
<text xml:space="preserve" text-anchor="start" x="453.88" y="-724.5" font-family="Helvetica,sans-Serif" font-size="10.00" fill="grey">&#45;db_</text>
</g>
<!-- Node8 -->
<g id="Node000008" class="node">
<title>Node8</title>
<g id="a_Node000008"><a xlink:title=" ">
<polygon fill="white" stroke="none" points="421.38,-1296 369.88,-1296 369.88,-1244 421.38,-1244 421.38,-1296"/>
<text xml:space="preserve" text-anchor="start" x="373.88" y="-1282.5" font-family="Helvetica,sans-Serif" font-size="10.00">std::string</text>
<text xml:space="preserve" text-anchor="start" x="394.12" y="-1266.5" font-family="Helvetica,sans-Serif" font-size="10.00"> </text>
<text xml:space="preserve" text-anchor="start" x="394.12" y="-1250.5" font-family="Helvetica,sans-Serif" font-size="10.00"> </text>
<polygon fill="#666666" stroke="#666666" points="369.88,-1278 369.88,-1278 421.38,-1278 421.38,-1278 369.88,-1278"/>
<polygon fill="#666666" stroke="#666666" points="369.88,-1262 369.88,-1262 421.38,-1262 421.38,-1262 369.88,-1262"/>
<polygon fill="none" stroke="#666666" points="369.88,-1244 369.88,-1296 421.38,-1296 421.38,-1244 369.88,-1244"/>
</a>
</g>
</g>
<!-- Node8&#45;&gt;Node5 -->
<g id="edge11_Node000005_Node000008" class="edge">
<title>Node8&#45;&gt;Node5</title>
<g id="a_edge11_Node000005_Node000008"><a xlink:title=" ">
<path fill="none" stroke="#63b8ff" d="M394.78,-1244.13C393.74,-1211.83 392.02,-1153.71 391.38,-1104 389.61,-967.12 386.65,-932.81 391.38,-796 393.16,-744.24 396.37,-688.44 399.92,-636.4"/>
<polygon fill="none" stroke="#63b8ff" points="399.91,-636.48 396.34,-630.22 400.74,-624.51 404.32,-630.77 399.91,-636.48"/>
</a>
</g>
<text xml:space="preserve" text-anchor="start" x="394.38" y="-946.5" font-family="Helvetica,sans-Serif" font-size="10.00" fill="grey">&#45;text_write_buffer_</text>
</g>
<!-- Node8&#45;&gt;Node7 -->
<g id="edge7_Node000007_Node000008" class="edge">
<title>Node8&#45;&gt;Node7</title>
<g id="a_edge7_Node000007_Node000008"><a xlink:title=" ">
<path fill="none" stroke="#63b8ff" d="M409.2,-1244C425.44,-1213.96 453.45,-1161.63 480.95,-1107.26"/>
<polygon fill="none" stroke="#63b8ff" points="481,-1107.15 480.13,-1099.99 486.4,-1096.43 487.28,-1103.59 481,-1107.15"/>
</a>
</g>
<text xml:space="preserve" text-anchor="start" x="438.93" y="-1213.5" font-family="Helvetica,sans-Serif" font-size="10.00" fill="grey">&#45;db_path_</text>
<text xml:space="preserve" text-anchor="start" x="438.93" y="-1197.5" font-family="Helvetica,sans-Serif" font-size="10.00" fill="grey">&#45;last_error_</text>
</g>
<!-- Node13 -->
<g id="Node000013" class="node">
<title>Node13</title>
<g id="a_Node000013"><a xlink:href="struct_web_socket_session_1_1_pending_msg.html" target="_top" xlink:title="Pending message: binary payload or text string, with mode flag.">
<polygon fill="white" stroke="none" points="367.38,-1174 213.88,-1174 213.88,-1122 367.38,-1122 367.38,-1174"/>
<text xml:space="preserve" text-anchor="start" x="217.88" y="-1160.5" font-family="Helvetica,sans-Serif" font-size="10.00">WebSocketSession::PendingMsg</text>
<text xml:space="preserve" text-anchor="start" x="247.25" y="-1144.5" font-family="Helvetica,sans-Serif" font-size="10.00">+</text>
<text xml:space="preserve" text-anchor="start" x="286.62" y="-1144.5" font-family="Helvetica,sans-Serif" font-size="10.00">kind</text>
<text xml:space="preserve" text-anchor="start" x="289.12" y="-1128.5" font-family="Helvetica,sans-Serif" font-size="10.00"> </text>
<polygon fill="#666666" stroke="#666666" points="213.88,-1156 213.88,-1156 367.38,-1156 367.38,-1156 213.88,-1156"/>
<polygon fill="#666666" stroke="#666666" points="213.88,-1140 213.88,-1140 284.62,-1140 284.62,-1140 213.88,-1140"/>
<polygon fill="#666666" stroke="#666666" points="284.62,-1140 284.62,-1140 367.38,-1140 367.38,-1140 284.62,-1140"/>
<polygon fill="none" stroke="#666666" points="213.88,-1122 213.88,-1174 367.38,-1174 367.38,-1122 213.88,-1122"/>
</a>
</g>
</g>
<!-- Node8&#45;&gt;Node13 -->
<g id="edge16_Node000013_Node000008" class="edge">
<title>Node8&#45;&gt;Node13</title>
<g id="a_edge16_Node000013_Node000008"><a xlink:title=" ">
<path fill="none" stroke="#63b8ff" d="M369.89,-1256.62C356.45,-1249.19 340.5,-1238.7 329.12,-1226 318.74,-1214.41 310.44,-1199.5 304.24,-1185.9"/>
<polygon fill="none" stroke="#63b8ff" points="304.19,-1185.78 298.16,-1181.83 299.49,-1174.74 305.52,-1178.7 304.19,-1185.78"/>
</a>
</g>
<text xml:space="preserve" text-anchor="start" x="332.12" y="-1205.5" font-family="Helvetica,sans-Serif" font-size="10.00" fill="grey">+text_data</text>
</g>
<!-- Node9 -->
<g id="Node000009" class="node">
<title>Node9</title>
<g id="a_Node000009"><a xlink:title=" ">
<polygon fill="white" stroke="none" points="438.62,-1397 352.62,-1397 352.62,-1333 438.62,-1333 438.62,-1397"/>
<text xml:space="preserve" text-anchor="start" x="356.62" y="-1383.5" font-family="Helvetica,sans-Serif" font-size="10.00">std::basic_string&lt;</text>
<text xml:space="preserve" text-anchor="start" x="379.12" y="-1371.5" font-family="Helvetica,sans-Serif" font-size="10.00"> Char &gt;</text>
<text xml:space="preserve" text-anchor="start" x="394.12" y="-1355.5" font-family="Helvetica,sans-Serif" font-size="10.00"> </text>
<text xml:space="preserve" text-anchor="start" x="394.12" y="-1339.5" font-family="Helvetica,sans-Serif" font-size="10.00"> </text>
<polygon fill="#666666" stroke="#666666" points="352.62,-1367 352.62,-1367 438.62,-1367 438.62,-1367 352.62,-1367"/>
<polygon fill="#666666" stroke="#666666" points="352.62,-1351 352.62,-1351 438.62,-1351 438.62,-1351 352.62,-1351"/>
<polygon fill="none" stroke="#666666" points="352.62,-1333 352.62,-1397 438.62,-1397 438.62,-1333 352.62,-1333"/>
</a>
</g>
</g>
<!-- Node9&#45;&gt;Node8 -->
<g id="edge8_Node000008_Node000009" class="edge">
<title>Node9&#45;&gt;Node8</title>
<g id="a_edge8_Node000008_Node000009"><a xlink:title=" ">
<path fill="none" stroke="#63b8ff" d="M395.62,-1321.69C395.62,-1312.89 395.62,-1303.89 395.62,-1295.96"/>
<polygon fill="none" stroke="#63b8ff" points="392.13,-1321.52 395.63,-1331.52 399.13,-1321.52 392.13,-1321.52"/>
</a>
</g>
</g>
<!-- Node10 -->
<g id="Node000010" class="node">
<title>Node10</title>
<g id="a_Node000010"><a xlink:title=" ">
<polygon fill="white" stroke="none" points="256.5,-1296 154.75,-1296 154.75,-1244 256.5,-1244 256.5,-1296"/>
<text xml:space="preserve" text-anchor="start" x="158.75" y="-1282.5" font-family="Helvetica,sans-Serif" font-size="10.00">std::vector&lt; uint8_t &gt;</text>
<text xml:space="preserve" text-anchor="start" x="169.75" y="-1266.5" font-family="Helvetica,sans-Serif" font-size="10.00">+</text>
<text xml:space="preserve" text-anchor="start" x="190.75" y="-1266.5" font-family="Helvetica,sans-Serif" font-size="10.00">elements</text>
<text xml:space="preserve" text-anchor="start" x="204.12" y="-1250.5" font-family="Helvetica,sans-Serif" font-size="10.00"> </text>
<polygon fill="#666666" stroke="#666666" points="154.75,-1278 154.75,-1278 256.5,-1278 256.5,-1278 154.75,-1278"/>
<polygon fill="#666666" stroke="#666666" points="154.75,-1262 154.75,-1262 188.75,-1262 188.75,-1262 154.75,-1262"/>
<polygon fill="#666666" stroke="#666666" points="188.75,-1262 188.75,-1262 256.5,-1262 256.5,-1262 188.75,-1262"/>
<polygon fill="none" stroke="#666666" points="154.75,-1244 154.75,-1296 256.5,-1296 256.5,-1244 154.75,-1244"/>
</a>
</g>
</g>
<!-- Node10&#45;&gt;Node5 -->
<g id="edge10_Node000005_Node000010" class="edge">
<title>Node10&#45;&gt;Node5</title>
<g id="a_edge10_Node000005_Node000010"><a xlink:title=" ">
<path fill="none" stroke="#63b8ff" d="M199.5,-1244.07C180.17,-1160.19 126.57,-881.97 210.62,-678 241.14,-603.95 302.13,-535.34 349.87,-489.32"/>
<polygon fill="none" stroke="#63b8ff" points="349.88,-489.31 351.47,-482.28 358.57,-481.04 356.98,-488.07 349.88,-489.31"/>
</a>
</g>
<text xml:space="preserve" text-anchor="start" x="179.18" y="-954.5" font-family="Helvetica,sans-Serif" font-size="10.00" fill="grey">&#45;broadcast_buffer_</text>
<text xml:space="preserve" text-anchor="start" x="179.18" y="-938.5" font-family="Helvetica,sans-Serif" font-size="10.00" fill="grey">&#45;write_buffer_</text>
</g>
<!-- Node10&#45;&gt;Node13 -->
<g id="edge15_Node000013_Node000010" class="edge">
<title>Node10&#45;&gt;Node13</title>
<g id="a_edge15_Node000013_Node000010"><a xlink:title=" ">
<path fill="none" stroke="#63b8ff" d="M209.82,-1244.29C213.48,-1228.22 220.04,-1207.46 231.38,-1192 233.82,-1188.67 236.6,-1185.49 239.58,-1182.48"/>
<polygon fill="none" stroke="#63b8ff" points="239.46,-1182.59 241.25,-1175.61 248.38,-1174.57 246.6,-1181.56 239.46,-1182.59"/>
</a>
</g>
<text xml:space="preserve" text-anchor="start" x="234.38" y="-1205.5" font-family="Helvetica,sans-Serif" font-size="10.00" fill="grey">+binary_data</text>
</g>
<!-- Node11 -->
<g id="Node000011" class="node">
<title>Node11</title>
<g id="a_Node000011"><a xlink:title=" ">
<polygon fill="white" stroke="none" points="577,-754 484.25,-754 484.25,-702 577,-702 577,-754"/>
<text xml:space="preserve" text-anchor="start" x="488.25" y="-740.5" font-family="Helvetica,sans-Serif" font-size="10.00">std::atomic&lt; bool &gt;</text>
<text xml:space="preserve" text-anchor="start" x="504.12" y="-724.5" font-family="Helvetica,sans-Serif" font-size="10.00">+</text>
<text xml:space="preserve" text-anchor="start" x="530" y="-724.5" font-family="Helvetica,sans-Serif" font-size="10.00">ptr</text>
<text xml:space="preserve" text-anchor="start" x="529.12" y="-708.5" font-family="Helvetica,sans-Serif" font-size="10.00"> </text>
<polygon fill="#666666" stroke="#666666" points="484.25,-736 484.25,-736 577,-736 577,-736 484.25,-736"/>
<polygon fill="#666666" stroke="#666666" points="484.25,-720 484.25,-720 528,-720 528,-720 484.25,-720"/>
<polygon fill="#666666" stroke="#666666" points="528,-720 528,-720 577,-720 577,-720 528,-720"/>
<polygon fill="none" stroke="#666666" points="484.25,-702 484.25,-754 577,-754 577,-702 484.25,-702"/>
</a>
</g>
</g>
<!-- Node11&#45;&gt;Node5 -->
<g id="edge12_Node000005_Node000011" class="edge">
<title>Node11&#45;&gt;Node5</title>
<g id="a_edge12_Node000005_Node000011"><a xlink:title=" ">
<path fill="none" stroke="#63b8ff" d="M505.8,-702.15C495.15,-690.26 483.39,-675.3 475.62,-660 471.65,-652.16 467.92,-644.03 464.43,-635.72"/>
<polygon fill="none" stroke="#63b8ff" points="464.47,-635.82 458.52,-631.74 460,-624.68 465.94,-628.76 464.47,-635.82"/>
</a>
</g>
<text xml:space="preserve" text-anchor="start" x="478.62" y="-647.5" font-family="Helvetica,sans-Serif" font-size="10.00" fill="grey">&#45;streaming_abort_</text>
</g>
<!-- Node12 -->
<g id="Node000012" class="node">
<title>Node12</title>
<g id="a_Node000012"><a xlink:title=" ">
<polygon fill="white" stroke="none" points="367.75,-760 219.5,-760 219.5,-696 367.75,-696 367.75,-760"/>
<text xml:space="preserve" text-anchor="start" x="223.5" y="-746.5" font-family="Helvetica,sans-Serif" font-size="10.00">std::deque&lt; WebSocketSession</text>
<text xml:space="preserve" text-anchor="start" x="259.12" y="-734.5" font-family="Helvetica,sans-Serif" font-size="10.00">::PendingMsg &gt;</text>
<text xml:space="preserve" text-anchor="start" x="292.12" y="-718.5" font-family="Helvetica,sans-Serif" font-size="10.00"> </text>
<text xml:space="preserve" text-anchor="start" x="292.12" y="-702.5" font-family="Helvetica,sans-Serif" font-size="10.00"> </text>
<polygon fill="#666666" stroke="#666666" points="219.5,-730 219.5,-730 367.75,-730 367.75,-730 219.5,-730"/>
<polygon fill="#666666" stroke="#666666" points="219.5,-714 219.5,-714 367.75,-714 367.75,-714 219.5,-714"/>
<polygon fill="none" stroke="#666666" points="219.5,-696 219.5,-760 367.75,-760 367.75,-696 219.5,-696"/>
</a>
</g>
</g>
<!-- Node12&#45;&gt;Node5 -->
<g id="edge13_Node000005_Node000012" class="edge">
<title>Node12&#45;&gt;Node5</title>
<g id="a_edge13_Node000005_Node000012"><a xlink:title=" ">
<path fill="none" stroke="#63b8ff" d="M299.72,-696.26C303.36,-679.9 308.51,-659.59 314.88,-642 325.75,-611.95 339.53,-580.47 353.41,-551.27"/>
<polygon fill="none" stroke="#63b8ff" points="353.35,-551.4 352.34,-544.26 358.55,-540.58 359.55,-547.73 353.35,-551.4"/>
</a>
</g>
<text xml:space="preserve" text-anchor="start" x="317.88" y="-647.5" font-family="Helvetica,sans-Serif" font-size="10.00" fill="grey">&#45;write_queue_</text>
</g>
<!-- Node13&#45;&gt;Node12 -->
<g id="edge14_Node000012_Node000013" class="edge">
<title>Node13&#45;&gt;Node12</title>
<g id="a_edge14_Node000012_Node000013"><a xlink:title=" ">
<path fill="none" stroke="#63b8ff" d="M290.8,-1122.1C291.3,-1053.3 292.69,-859.89 293.31,-772.65"/>
<polygon fill="none" stroke="#63b8ff" points="293.31,-772.74 289.35,-766.72 293.4,-760.74 297.35,-766.77 293.31,-772.74"/>
</a>
</g>
<text xml:space="preserve" text-anchor="start" x="296.12" y="-946.5" font-family="Helvetica,sans-Serif" font-size="10.00" fill="grey">+elements</text>
</g>
</g>
</svg>
