<?xml version="1.0" encoding="UTF-8" standalone="no"?>
<!DOCTYPE svg PUBLIC "-//W3C//DTD SVG 1.1//EN"
 "http://www.w3.org/Graphics/SVG/1.1/DTD/svg11.dtd">
<!-- Generated by graphviz version 14.1.1 (20251213.1925)
 -->
<!-- Title: WebSocketSession::on_write Pages: 1 -->
<svg width="837pt" height="210pt"
 viewBox="0.00 0.00 837.00 210.00" xmlns="http://www.w3.org/2000/svg" xmlns:xlink="http://www.w3.org/1999/xlink">
<g id="graph0" class="graph" transform="scale(1 1) rotate(0) translate(4 206)">
<title>WebSocketSession::on_write</title>
<!-- Node1 -->
<g id="Node000001" class="node">
<title>Node1</title>
<g id="a_Node000001"><a xlink:title="Handle write completion.">
<polygon fill="#999999" stroke="#666666" points="828.5,-106 710.5,-106 710.5,-74 828.5,-74 828.5,-106"/>
<text xml:space="preserve" text-anchor="start" x="718.5" y="-92.5" font-family="Helvetica,sans-Serif" font-size="10.00">WebSocketSession::on</text>
<text xml:space="preserve" text-anchor="middle" x="769.5" y="-80.5" font-family="Helvetica,sans-Serif" font-size="10.00">_write</text>
</a>
</g>
</g>
<!-- Node2 -->
<g id="Node000002" class="node">
<title>Node2</title>
<g id="a_Node000002"><a xlink:href="class_web_socket_session.html#a2529887f34770366fc2c225bd085edba" target="_top" xlink:title="Send current database records to client as ASN.1 BER/TLV.">
<polygon fill="white" stroke="#666666" points="674.5,-130 525,-130 525,-110 674.5,-110 674.5,-130"/>
<text xml:space="preserve" text-anchor="middle" x="599.75" y="-116.5" font-family="Helvetica,sans-Serif" font-size="10.00">WebSocketSession::sendData</text>
</a>
</g>
</g>
<!-- Node1&#45;&gt;Node2 -->
<g id="edge1_Node000001_Node000002" class="edge">
<title>Node1&#45;&gt;Node2</title>
<g id="a_edge1_Node000001_Node000002"><a xlink:title=" ">
<path fill="none" stroke="#63b8ff" d="M699.32,-102.37C686.06,-104.74 672.3,-107.2 659.42,-109.51"/>
<polygon fill="#63b8ff" stroke="#63b8ff" points="699.58,-105.88 708.81,-100.67 698.35,-98.99 699.58,-105.88"/>
</a>
</g>
</g>
<!-- Node10 -->
<g id="Node000010" class="node">
<title>Node10</title>
<g id="a_Node000010"><a xlink:href="class_web_socket_session.html#a6c789e228fc7a6101f1e586dc67ad8da" target="_top" xlink:title="Send a plain text response to this client (for FIL DIR etc.).">
<polygon fill="white" stroke="#666666" points="673.38,-32 526.12,-32 526.12,0 673.38,0 673.38,-32"/>
<text xml:space="preserve" text-anchor="start" x="534.12" y="-18.5" font-family="Helvetica,sans-Serif" font-size="10.00">WebSocketSession::sendText</text>
<text xml:space="preserve" text-anchor="middle" x="599.75" y="-6.5" font-family="Helvetica,sans-Serif" font-size="10.00">Response</text>
</a>
</g>
</g>
<!-- Node1&#45;&gt;Node10 -->
<g id="edge13_Node000001_Node000010" class="edge">
<title>Node1&#45;&gt;Node10</title>
<g id="a_edge13_Node000001_Node000010"><a xlink:title=" ">
<path fill="none" stroke="#63b8ff" d="M724.75,-68.95C708.99,-61.52 691.02,-53.22 674.5,-46 664.11,-41.46 652.82,-36.75 642.25,-32.45"/>
<polygon fill="#63b8ff" stroke="#63b8ff" points="722.85,-71.92 733.39,-73.04 725.85,-65.6 722.85,-71.92"/>
</a>
</g>
</g>
<!-- Node3 -->
<g id="Node000003" class="node">
<title>Node3</title>
<g id="a_Node000003"><a xlink:href="class_web_socket_session.html#a124943db6c094918e372c94bfb7ec533" target="_top" xlink:title="Send the next queued message (if any).">
<polygon fill="white" stroke="#666666" points="489,-196 332,-196 332,-176 489,-176 489,-196"/>
<text xml:space="preserve" text-anchor="middle" x="410.5" y="-182.5" font-family="Helvetica,sans-Serif" font-size="10.00">WebSocketSession::drainQueue</text>
</a>
</g>
</g>
<!-- Node2&#45;&gt;Node3 -->
<g id="edge2_Node000002_Node000003" class="edge">
<title>Node2&#45;&gt;Node3</title>
<g id="a_edge2_Node000002_Node000003"><a xlink:title=" ">
<path fill="none" stroke="#63b8ff" d="M567.05,-135.22C545.42,-145.2 515.91,-158.01 489,-167 479.54,-170.16 469.27,-173.05 459.4,-175.56"/>
<polygon fill="#63b8ff" stroke="#63b8ff" points="568.34,-138.48 575.92,-131.08 565.38,-132.14 568.34,-138.48"/>
</a>
</g>
</g>
<!-- Node6 -->
<g id="Node000006" class="node">
<title>Node6</title>
<g id="a_Node000006"><a xlink:href="class_web_socket_session.html#a7b82f2e9c71f6822c2d2f6dcc1a251c5" target="_top" xlink:title="Handle WebSocket handshake completion.">
<polygon fill="white" stroke="#666666" points="469.5,-158 351.5,-158 351.5,-126 469.5,-126 469.5,-158"/>
<text xml:space="preserve" text-anchor="start" x="359.5" y="-144.5" font-family="Helvetica,sans-Serif" font-size="10.00">WebSocketSession::on</text>
<text xml:space="preserve" text-anchor="middle" x="410.5" y="-132.5" font-family="Helvetica,sans-Serif" font-size="10.00">_accept</text>
</a>
</g>
</g>
<!-- Node2&#45;&gt;Node6 -->
<g id="edge7_Node000002_Node000006" class="edge">
<title>Node2&#45;&gt;Node6</title>
<g id="a_edge7_Node000002_Node000006"><a xlink:title=" ">
<path fill="none" stroke="#63b8ff" d="M513.55,-130.01C498.81,-131.74 483.79,-133.51 469.97,-135.13"/>
<polygon fill="#63b8ff" stroke="#63b8ff" points="513.72,-133.51 523.24,-128.87 512.9,-126.56 513.72,-133.51"/>
</a>
</g>
</g>
<!-- Node8 -->
<g id="Node000008" class="node">
<title>Node8</title>
<g id="a_Node000008"><a xlink:href="class_web_socket_session.html#a6c0557f87f9f6050a8848237ace942bb" target="_top" xlink:title="Handle received client message.">
<polygon fill="white" stroke="#666666" points="481.5,-108 339.5,-108 339.5,-88 481.5,-88 481.5,-108"/>
<text xml:space="preserve" text-anchor="middle" x="410.5" y="-94.5" font-family="Helvetica,sans-Serif" font-size="10.00">WebSocketSession::on_read</text>
</a>
</g>
</g>
<!-- Node2&#45;&gt;Node8 -->
<g id="edge9_Node000002_Node000008" class="edge">
<title>Node2&#45;&gt;Node8</title>
<g id="a_edge9_Node000002_Node000008"><a xlink:title=" ">
<path fill="none" stroke="#63b8ff" d="M513.4,-109.97C502.86,-108.73 492.19,-107.48 481.92,-106.27"/>
<polygon fill="#63b8ff" stroke="#63b8ff" points="512.9,-113.44 523.24,-111.13 513.72,-106.49 512.9,-113.44"/>
</a>
</g>
</g>
<!-- Node3&#45;&gt;Node1 -->
<g id="edge6_Node000003_Node000001" class="edge">
<title>Node3&#45;&gt;Node1</title>
<g id="a_edge6_Node000003_Node000001"><a xlink:title=" ">
<path fill="none" stroke="#63b8ff" d="M500.45,-176.93C552.22,-169.98 618.16,-158.21 674.5,-139 698.54,-130.8 723.97,-117.2 742.32,-106.41"/>
<polygon fill="#63b8ff" stroke="#63b8ff" points="500.26,-173.42 490.8,-178.19 501.17,-180.36 500.26,-173.42"/>
</a>
</g>
</g>
<!-- Node4 -->
<g id="Node000004" class="node">
<title>Node4</title>
<g id="a_Node000004"><a xlink:href="class_web_socket_session.html#afe8845301daa6254f51e87dd9dd4cc3d" target="_top" xlink:title="Handle broadcast write completion — drains pending queue.">
<polygon fill="white" stroke="#666666" points="284,-202 166,-202 166,-170 284,-170 284,-202"/>
<text xml:space="preserve" text-anchor="start" x="174" y="-188.5" font-family="Helvetica,sans-Serif" font-size="10.00">WebSocketSession::on</text>
<text xml:space="preserve" text-anchor="middle" x="225" y="-176.5" font-family="Helvetica,sans-Serif" font-size="10.00">_broadcast_write</text>
</a>
</g>
</g>
<!-- Node3&#45;&gt;Node4 -->
<g id="edge3_Node000003_Node000004" class="edge">
<title>Node3&#45;&gt;Node4</title>
<g id="a_edge3_Node000003_Node000004"><a xlink:title=" ">
<path fill="none" stroke="#63b8ff" d="M320.48,-179.25C308.25,-179.23 295.95,-179.37 284.45,-179.66"/>
<polygon fill="#63b8ff" stroke="#63b8ff" points="320.15,-182.75 330.17,-179.31 320.19,-175.75 320.15,-182.75"/>
</a>
</g>
</g>
<!-- Node4&#45;&gt;Node3 -->
<g id="edge5_Node000004_Node000003" class="edge">
<title>Node4&#45;&gt;Node3</title>
<g id="a_edge5_Node000004_Node000003"><a xlink:title=" ">
<path fill="none" stroke="#63b8ff" d="M295.94,-192.58C307.62,-192.77 319.81,-192.8 331.68,-192.68"/>
<polygon fill="#63b8ff" stroke="#63b8ff" points="296.03,-189.08 285.96,-192.37 295.89,-196.08 296.03,-189.08"/>
</a>
</g>
</g>
<!-- Node5 -->
<g id="Node000005" class="node">
<title>Node5</title>
<g id="a_Node000005"><a xlink:href="class_web_socket_session.html#a24aad98befc1c2d007af7a64bee4864f" target="_top" xlink:title="Perform broadcast write operation (called on strand).">
<polygon fill="white" stroke="#666666" points="118,-202 0,-202 0,-170 118,-170 118,-202"/>
<text xml:space="preserve" text-anchor="start" x="8" y="-188.5" font-family="Helvetica,sans-Serif" font-size="10.00">WebSocketSession::do</text>
<text xml:space="preserve" text-anchor="middle" x="59" y="-176.5" font-family="Helvetica,sans-Serif" font-size="10.00">_broadcast</text>
</a>
</g>
</g>
<!-- Node4&#45;&gt;Node5 -->
<g id="edge4_Node000004_Node000005" class="edge">
<title>Node4&#45;&gt;Node5</title>
<g id="a_edge4_Node000004_Node000005"><a xlink:title=" ">
<path fill="none" stroke="#63b8ff" d="M154.37,-186C142.38,-186 130.03,-186 118.37,-186"/>
<polygon fill="#63b8ff" stroke="#63b8ff" points="154.2,-189.5 164.2,-186 154.2,-182.5 154.2,-189.5"/>
</a>
</g>
</g>
<!-- Node7 -->
<g id="Node000007" class="node">
<title>Node7</title>
<g id="a_Node000007"><a xlink:href="class_web_socket_session.html#aa60a520432526e90b74fd97713469a56" target="_top" xlink:title="Start the session by accepting WebSocket handshake.">
<polygon fill="white" stroke="#666666" points="285.5,-152 164.5,-152 164.5,-132 285.5,-132 285.5,-152"/>
<text xml:space="preserve" text-anchor="middle" x="225" y="-138.5" font-family="Helvetica,sans-Serif" font-size="10.00">WebSocketSession::run</text>
</a>
</g>
</g>
<!-- Node6&#45;&gt;Node7 -->
<g id="edge8_Node000006_Node000007" class="edge">
<title>Node6&#45;&gt;Node7</title>
<g id="a_edge8_Node000006_Node000007"><a xlink:title=" ">
<path fill="none" stroke="#63b8ff" d="M339.7,-142C321.92,-142 302.97,-142 285.74,-142"/>
<polygon fill="#63b8ff" stroke="#63b8ff" points="339.67,-145.5 349.67,-142 339.67,-138.5 339.67,-145.5"/>
</a>
</g>
</g>
<!-- Node9 -->
<g id="Node000009" class="node">
<title>Node9</title>
<g id="a_Node000009"><a xlink:href="class_web_socket_session.html#a2bc079950c2e39e8ff745f0da57646ba" target="_top" xlink:title="Initiate async read for next client message.">
<polygon fill="white" stroke="#666666" points="296,-108 154,-108 154,-88 296,-88 296,-108"/>
<text xml:space="preserve" text-anchor="middle" x="225" y="-94.5" font-family="Helvetica,sans-Serif" font-size="10.00">WebSocketSession::do_read</text>
</a>
</g>
</g>
<!-- Node8&#45;&gt;Node9 -->
<g id="edge10_Node000008_Node000009" class="edge">
<title>Node8&#45;&gt;Node9</title>
<g id="a_edge10_Node000008_Node000009"><a xlink:title=" ">
<path fill="none" stroke="#63b8ff" d="M327.76,-91.29C317.24,-91.21 306.55,-91.25 296.23,-91.42"/>
<polygon fill="#63b8ff" stroke="#63b8ff" points="327.53,-94.78 337.57,-91.4 327.61,-87.78 327.53,-94.78"/>
</a>
</g>
</g>
<!-- Node9&#45;&gt;Node1 -->
<g id="edge12_Node000009_Node000001" class="edge">
<title>Node9&#45;&gt;Node1</title>
<g id="a_edge12_Node000009_Node000001"><a xlink:title=" ">
<path fill="none" stroke="#63b8ff" d="M285.35,-85.45C300.49,-82.78 316.79,-80.35 332,-79 466.97,-67 626.27,-77.12 710.12,-84.32"/>
<polygon fill="#63b8ff" stroke="#63b8ff" points="284.73,-82.01 275.53,-87.26 286,-88.89 284.73,-82.01"/>
</a>
</g>
</g>
<!-- Node9&#45;&gt;Node8 -->
<g id="edge11_Node000009_Node000008" class="edge">
<title>Node9&#45;&gt;Node8</title>
<g id="a_edge11_Node000009_Node000008"><a xlink:title=" ">
<path fill="none" stroke="#63b8ff" d="M307.55,-104.71C318.06,-104.79 328.76,-104.75 339.08,-104.59"/>
<polygon fill="#63b8ff" stroke="#63b8ff" points="307.79,-101.22 297.75,-104.6 307.71,-108.21 307.79,-101.22"/>
</a>
</g>
</g>
</g>
</svg>
