<?xml version="1.0" encoding="UTF-8" standalone="no"?>
<!DOCTYPE svg PUBLIC "-//W3C//DTD SVG 1.1//EN"
 "http://www.w3.org/Graphics/SVG/1.1/DTD/svg11.dtd">
<!-- Generated by graphviz version 14.1.2 (20260124.0452)
 -->
<!-- Title: TelnetClient::isResponseComplete Pages: 1 -->
<svg width="661pt" height="78pt"
 viewBox="0.00 0.00 661.00 78.00" xmlns="http://www.w3.org/2000/svg" xmlns:xlink="http://www.w3.org/1999/xlink">
<g id="graph0" class="graph" transform="scale(1 1) rotate(0) translate(4 74)">
<title>TelnetClient::isResponseComplete</title>
<!-- Node1 -->
<g id="Node000001" class="node">
<title>Node1</title>
<g id="a_Node000001"><a xlink:title="Check if response is complete.">
<polygon fill="#999999" stroke="#666666" points="652.75,-48 527.25,-48 527.25,-16 652.75,-16 652.75,-48"/>
<text xml:space="preserve" text-anchor="start" x="535.25" y="-34.5" font-family="Helvetica,sans-Serif" font-size="10.00">TelnetClient::isResponse</text>
<text xml:space="preserve" text-anchor="middle" x="590" y="-22.5" font-family="Helvetica,sans-Serif" font-size="10.00">Complete</text>
</a>
</g>
</g>
<!-- Node2 -->
<g id="Node000002" class="node">
<title>Node2</title>
<g id="a_Node000002"><a xlink:href="class_telnet_client.html#a39aee6a66b79184a3c7fe5072c2f422f" target="_top" xlink:title="Send command and receive response data.">
<polygon fill="white" stroke="#666666" points="491.25,-42 317,-42 317,-22 491.25,-22 491.25,-42"/>
<text xml:space="preserve" text-anchor="middle" x="404.12" y="-28.5" font-family="Helvetica,sans-Serif" font-size="10.00">TelnetClient::SendCmdReceiveData</text>
</a>
</g>
</g>
<!-- Node1&#45;&gt;Node2 -->
<g id="edge1_Node000001_Node000002" class="edge">
<title>Node1&#45;&gt;Node2</title>
<g id="a_edge1_Node000001_Node000002"><a xlink:title=" ">
<path fill="none" stroke="#63b8ff" d="M515.63,-32C507.75,-32 499.68,-32 491.66,-32"/>
<polygon fill="#63b8ff" stroke="#63b8ff" points="515.49,-35.5 525.49,-32 515.49,-28.5 515.49,-35.5"/>
</a>
</g>
</g>
<!-- Node3 -->
<g id="Node000003" class="node">
<title>Node3</title>
<g id="a_Node000003"><a xlink:href="class_telnet_client.html#a78c1579f7e5e5d21d3332e30c83092f8" target="_top" xlink:title="Perform Level 1 login authentication.">
<polygon fill="white" stroke="#666666" points="281,-70 155.5,-70 155.5,-38 281,-38 281,-70"/>
<text xml:space="preserve" text-anchor="start" x="163.5" y="-56.5" font-family="Helvetica,sans-Serif" font-size="10.00">TelnetClient::LoginLevel1</text>
<text xml:space="preserve" text-anchor="middle" x="218.25" y="-44.5" font-family="Helvetica,sans-Serif" font-size="10.00">Function</text>
</a>
</g>
</g>
<!-- Node2&#45;&gt;Node3 -->
<g id="edge2_Node000002_Node000003" class="edge">
<title>Node2&#45;&gt;Node3</title>
<g id="a_edge2_Node000002_Node000003"><a xlink:title=" ">
<path fill="none" stroke="#63b8ff" d="M305.38,-43.69C297.19,-44.67 289.05,-45.65 281.25,-46.58"/>
<polygon fill="#63b8ff" stroke="#63b8ff" points="305.56,-47.2 315.07,-42.54 304.72,-40.25 305.56,-47.2"/>
</a>
</g>
</g>
<!-- Node5 -->
<g id="Node000005" class="node">
<title>Node5</title>
<g id="a_Node000005"><a xlink:href="struct_poll_ser_action.html#a80290394273450b8c46083cc224c529f" target="_top" xlink:title="Execute SER polling and storage.">
<polygon fill="white" stroke="#666666" points="279.5,-20 157,-20 157,0 279.5,0 279.5,-20"/>
<text xml:space="preserve" text-anchor="middle" x="218.25" y="-6.5" font-family="Helvetica,sans-Serif" font-size="10.00">PollSerAction::operator()</text>
</a>
</g>
</g>
<!-- Node2&#45;&gt;Node5 -->
<g id="edge4_Node000002_Node000005" class="edge">
<title>Node2&#45;&gt;Node5</title>
<g id="a_edge4_Node000002_Node000005"><a xlink:title=" ">
<path fill="none" stroke="#63b8ff" d="M305.24,-20.29C296.63,-19.26 288.08,-18.24 279.92,-17.26"/>
<polygon fill="#63b8ff" stroke="#63b8ff" points="304.72,-23.75 315.07,-21.46 305.56,-16.8 304.72,-23.75"/>
</a>
</g>
</g>
<!-- Node4 -->
<g id="Node000004" class="node">
<title>Node4</title>
<g id="a_Node000004"><a xlink:href="struct_login1_action.html#a06a25a6ed5a30f931e8259a5afc311b1" target="_top" xlink:title="Execute Level 1 login sequence.">
<polygon fill="white" stroke="#666666" points="119.5,-64 0,-64 0,-44 119.5,-44 119.5,-64"/>
<text xml:space="preserve" text-anchor="middle" x="59.75" y="-50.5" font-family="Helvetica,sans-Serif" font-size="10.00">Login1Action::operator()</text>
</a>
</g>
</g>
<!-- Node3&#45;&gt;Node4 -->
<g id="edge3_Node000003_Node000004" class="edge">
<title>Node3&#45;&gt;Node4</title>
<g id="a_edge3_Node000003_Node000004"><a xlink:title=" ">
<path fill="none" stroke="#63b8ff" d="M144.03,-54C135.93,-54 127.75,-54 119.86,-54"/>
<polygon fill="#63b8ff" stroke="#63b8ff" points="143.88,-57.5 153.88,-54 143.88,-50.5 143.88,-57.5"/>
</a>
</g>
</g>
</g>
</svg>
