<?xml version="1.0" encoding="UTF-8" standalone="no"?>
<!DOCTYPE svg PUBLIC "-//W3C//DTD SVG 1.1//EN"
 "http://www.w3.org/Graphics/SVG/1.1/DTD/svg11.dtd">
<!-- Generated by graphviz version 14.1.1 (20251213.1925)
 -->
<!-- Title: WebSocketSession::sendData Pages: 1 -->
<!--zoomable 179 -->

<svg id="main" version="1.1" xmlns="http://www.w3.org/2000/svg" xmlns:xlink="http://www.w3.org/1999/xlink" xml:space="preserve" onload="init(evt)">

<style type="text/css"><![CDATA[
.node, .edge {opacity: 0.7;}
.node.selected, .edge.selected {opacity: 1;}
.edge:hover path { stroke: red; }
.edge:hover polygon { stroke: red; fill: red; }
]]></style>

<defs>
  <circle id="rim" cx="0" cy="0" r="7"/>
  <circle id="rim2" cx="0" cy="0" r="3.5"/>
  <g id="zoomPlus">
    <use xlink:href="#rim" fill="#404040"><set attributeName="fill" to="#808080" begin="zoomplus.mouseover" end="zoomplus.mouseout"/></use>
    <path d="M-4,0h8M0,-4v8" fill="none" stroke="white" stroke-width="1.5" pointer-events="none"/>
  </g>
  <g id="zoomMin">
    <use xlink:href="#rim" fill="#404040"><set attributeName="fill" to="#808080" begin="zoomminus.mouseover" end="zoomminus.mouseout"/></use>
    <path d="M-4,0h8" fill="none" stroke="white" stroke-width="1.5" pointer-events="none"/>
  </g>
  <g id="arrowUp" transform="translate(30 24)">
    <use xlink:href="#rim"/>
    <path pointer-events="none" fill="none" stroke="white" stroke-width="1.5" d="M0,-3.0v7 M-2.5,-0.5L0,-3.0L2.5,-0.5"/>
  </g>
  <g id="arrowRight" transform="rotate(90) translate(36 -43)">
    <use xlink:href="#rim"/>
    <path pointer-events="none" fill="none" stroke="white" stroke-width="1.5" d="M0,-3.0v7 M-2.5,-0.5L0,-3.0L2.5,-0.5"/>
  </g>
  <g id="arrowDown" transform="rotate(180) translate(-30 -48)">
    <use xlink:href="#rim"/>
    <path pointer-events="none" fill="none" stroke="white" stroke-width="1.5" d="M0,-3.0v7 M-2.5,-0.5L0,-3.0L2.5,-0.5"/>
  </g>
  <g id="arrowLeft" transform="rotate(270) translate(-36 17)">
    <use xlink:href="#rim"/>
    <path pointer-events="none" fill="none" stroke="white" stroke-width="1.5" d="M0,-3.0v7 M-2.5,-0.5L0,-3.0L2.5,-0.5"/>
  </g>
  <g id="resetDef">
    <use xlink:href="#rim2" fill="#404040"><set attributeName="fill" to="#808080" begin="reset.mouseover" end="reset.mouseout"/></use>
  </g>
</defs>
<script type="application/ecmascript">
var viewWidth = 866;
var viewHeight = 179;
var sectionId = 'dynsection-19';
</script>
<script type="application/ecmascript" xlink:href="svg.min.js"/>
<svg id="graph" class="graph">
<g id="viewport">
<title>WebSocketSession::sendData</title>
<!-- Node1 -->
<g id="Node000001" class="node">
<title>Node1</title>
<g id="a_Node000001"><a xlink:title="Send current database records to client as ASN.1 BER/TLV.">
<polygon fill="#999999" stroke="#666666" points="857.75,-67.21 708.25,-67.21 708.25,-47.21 857.75,-47.21 857.75,-67.21"/>
<text xml:space="preserve" text-anchor="middle" x="783" y="-53.71" font-family="Helvetica,sans-Serif" font-size="10.00">WebSocketSession::sendData</text>
</a>
</g>
</g>
<!-- Node2 -->
<g id="Node000002" class="node">
<title>Node2</title>
<g id="a_Node000002"><a xlink:href="class_web_socket_session.html#a124943db6c094918e372c94bfb7ec533" target="_top" xlink:title="Send the next queued message (if any).">
<polygon fill="white" stroke="#666666" points="672.25,-149.21 515.25,-149.21 515.25,-129.21 672.25,-129.21 672.25,-149.21"/>
<text xml:space="preserve" text-anchor="middle" x="593.75" y="-135.71" font-family="Helvetica,sans-Serif" font-size="10.00">WebSocketSession::drainQueue</text>
</a>
</g>
</g>
<!-- Node1&#45;&gt;Node2 -->
<g id="edge1_Node000001_Node000002" class="edge">
<title>Node1&#45;&gt;Node2</title>
<g id="a_edge1_Node000001_Node000002"><a xlink:title=" ">
<path fill="none" stroke="#63b8ff" d="M747.88,-72.16C710.44,-88.55 651.32,-114.44 618.57,-128.78"/>
<polygon fill="#63b8ff" stroke="#63b8ff" points="749.14,-75.42 756.9,-68.21 746.33,-69.01 749.14,-75.42"/>
</a>
</g>
</g>
<!-- Node7 -->
<g id="Node000007" class="node">
<title>Node7</title>
<g id="a_Node000007"><a xlink:href="class_web_socket_session.html#a7b82f2e9c71f6822c2d2f6dcc1a251c5" target="_top" xlink:title="Handle WebSocket handshake completion.">
<polygon fill="white" stroke="#666666" points="652.75,-95.21 534.75,-95.21 534.75,-63.21 652.75,-63.21 652.75,-95.21"/>
<text xml:space="preserve" text-anchor="start" x="542.75" y="-81.71" font-family="Helvetica,sans-Serif" font-size="10.00">WebSocketSession::on</text>
<text xml:space="preserve" text-anchor="middle" x="593.75" y="-69.71" font-family="Helvetica,sans-Serif" font-size="10.00">_accept</text>
</a>
</g>
</g>
<!-- Node1&#45;&gt;Node7 -->
<g id="edge8_Node000001_Node000007" class="edge">
<title>Node1&#45;&gt;Node7</title>
<g id="a_edge8_Node000001_Node000007"><a xlink:title=" ">
<path fill="none" stroke="#63b8ff" d="M696.8,-67.22C682.06,-68.96 667.04,-70.72 653.22,-72.34"/>
<polygon fill="#63b8ff" stroke="#63b8ff" points="696.97,-70.73 706.49,-66.09 696.15,-63.78 696.97,-70.73"/>
</a>
</g>
</g>
<!-- Node9 -->
<g id="Node000009" class="node">
<title>Node9</title>
<g id="a_Node000009"><a xlink:href="class_web_socket_session.html#a6c0557f87f9f6050a8848237ace942bb" target="_top" xlink:title="Handle received client message.">
<polygon fill="white" stroke="#666666" points="664.75,-45.21 522.75,-45.21 522.75,-25.21 664.75,-25.21 664.75,-45.21"/>
<text xml:space="preserve" text-anchor="middle" x="593.75" y="-31.71" font-family="Helvetica,sans-Serif" font-size="10.00">WebSocketSession::on_read</text>
</a>
</g>
</g>
<!-- Node1&#45;&gt;Node9 -->
<g id="edge10_Node000001_Node000009" class="edge">
<title>Node1&#45;&gt;Node9</title>
<g id="a_edge10_Node000001_Node000009"><a xlink:title=" ">
<path fill="none" stroke="#63b8ff" d="M696.65,-47.19C686.11,-45.95 675.44,-44.69 665.17,-43.49"/>
<polygon fill="#63b8ff" stroke="#63b8ff" points="696.15,-50.65 706.49,-48.34 696.97,-43.7 696.15,-50.65"/>
</a>
</g>
</g>
<!-- Node3 -->
<g id="Node000003" class="node">
<title>Node3</title>
<g id="a_Node000003"><a xlink:href="class_web_socket_session.html#afe8845301daa6254f51e87dd9dd4cc3d" target="_top" xlink:title="Handle broadcast write completion — drains pending queue.">
<polygon fill="white" stroke="#666666" points="467.25,-171.21 349.25,-171.21 349.25,-139.21 467.25,-139.21 467.25,-171.21"/>
<text xml:space="preserve" text-anchor="start" x="357.25" y="-157.71" font-family="Helvetica,sans-Serif" font-size="10.00">WebSocketSession::on</text>
<text xml:space="preserve" text-anchor="middle" x="408.25" y="-145.71" font-family="Helvetica,sans-Serif" font-size="10.00">_broadcast_write</text>
</a>
</g>
</g>
<!-- Node2&#45;&gt;Node3 -->
<g id="edge2_Node000002_Node000003" class="edge">
<title>Node2&#45;&gt;Node3</title>
<g id="a_edge2_Node000002_Node000003"><a xlink:title=" ">
<path fill="none" stroke="#63b8ff" d="M503.73,-140.23C491.5,-141.27 479.2,-142.48 467.7,-143.78"/>
<polygon fill="#63b8ff" stroke="#63b8ff" points="503.74,-143.74 513.42,-139.44 503.17,-136.76 503.74,-143.74"/>
</a>
</g>
</g>
<!-- Node5 -->
<g id="Node000005" class="node">
<title>Node5</title>
<g id="a_Node000005"><a xlink:href="class_web_socket_session.html#a0fed81151d5dcbe23dbee79f1bf12c66" target="_top" xlink:title="Handle write completion.">
<polygon fill="white" stroke="#666666" points="301.25,-51.21 183.25,-51.21 183.25,-19.21 301.25,-19.21 301.25,-51.21"/>
<text xml:space="preserve" text-anchor="start" x="191.25" y="-37.71" font-family="Helvetica,sans-Serif" font-size="10.00">WebSocketSession::on</text>
<text xml:space="preserve" text-anchor="middle" x="242.25" y="-25.71" font-family="Helvetica,sans-Serif" font-size="10.00">_write</text>
</a>
</g>
</g>
<!-- Node2&#45;&gt;Node5 -->
<g id="edge5_Node000002_Node000005" class="edge">
<title>Node2&#45;&gt;Node5</title>
<g id="a_edge5_Node000002_Node000005"><a xlink:title=" ">
<path fill="none" stroke="#63b8ff" d="M503.62,-130.86C453.53,-124.2 390.55,-112.49 337.25,-92.21 310.67,-82.1 283.19,-64.45 264.86,-51.46"/>
<polygon fill="#63b8ff" stroke="#63b8ff" points="502.89,-134.3 513.25,-132.1 503.78,-127.36 502.89,-134.3"/>
</a>
</g>
</g>
<!-- Node3&#45;&gt;Node2 -->
<g id="edge4_Node000003_Node000002" class="edge">
<title>Node3&#45;&gt;Node2</title>
<g id="a_edge4_Node000003_Node000002"><a xlink:title=" ">
<path fill="none" stroke="#63b8ff" d="M478.72,-155.73C499.96,-154.22 522.91,-152.06 542.61,-149.68"/>
<polygon fill="#63b8ff" stroke="#63b8ff" points="478.71,-152.22 468.96,-156.37 479.17,-159.2 478.71,-152.22"/>
</a>
</g>
</g>
<!-- Node4 -->
<g id="Node000004" class="node">
<title>Node4</title>
<g id="a_Node000004"><a xlink:href="class_web_socket_session.html#a24aad98befc1c2d007af7a64bee4864f" target="_top" xlink:title="Perform broadcast write operation (called on strand).">
<polygon fill="white" stroke="#666666" points="301.25,-171.21 183.25,-171.21 183.25,-139.21 301.25,-139.21 301.25,-171.21"/>
<text xml:space="preserve" text-anchor="start" x="191.25" y="-157.71" font-family="Helvetica,sans-Serif" font-size="10.00">WebSocketSession::do</text>
<text xml:space="preserve" text-anchor="middle" x="242.25" y="-145.71" font-family="Helvetica,sans-Serif" font-size="10.00">_broadcast</text>
</a>
</g>
</g>
<!-- Node3&#45;&gt;Node4 -->
<g id="edge3_Node000003_Node000004" class="edge">
<title>Node3&#45;&gt;Node4</title>
<g id="a_edge3_Node000003_Node000004"><a xlink:title=" ">
<path fill="none" stroke="#63b8ff" d="M337.62,-155.21C325.63,-155.21 313.28,-155.21 301.62,-155.21"/>
<polygon fill="#63b8ff" stroke="#63b8ff" points="337.45,-158.71 347.45,-155.21 337.45,-151.71 337.45,-158.71"/>
</a>
</g>
</g>
<!-- Node5&#45;&gt;Node1 -->
<g id="edge6_Node000005_Node000001" class="edge">
<title>Node5&#45;&gt;Node1</title>
<g id="a_edge6_Node000005_Node000001"><a xlink:title=" ">
<path fill="none" stroke="#63b8ff" d="M312.76,-19.55C320.98,-18.18 329.28,-17.01 337.25,-16.21 485.4,-1.39 525.73,10.26 672.25,-16.21 704.48,-22.04 739.58,-36.75 761.19,-46.87"/>
<polygon fill="#63b8ff" stroke="#63b8ff" points="312.36,-16.07 303.13,-21.27 313.59,-22.96 312.36,-16.07"/>
</a>
</g>
</g>
<!-- Node6 -->
<g id="Node000006" class="node">
<title>Node6</title>
<g id="a_Node000006"><a xlink:href="class_web_socket_session.html#a6c789e228fc7a6101f1e586dc67ad8da" target="_top" xlink:title="Send a plain text response to this client (for FIL DIR etc.).">
<polygon fill="white" stroke="#666666" points="147.25,-51.21 0,-51.21 0,-19.21 147.25,-19.21 147.25,-51.21"/>
<text xml:space="preserve" text-anchor="start" x="8" y="-37.71" font-family="Helvetica,sans-Serif" font-size="10.00">WebSocketSession::sendText</text>
<text xml:space="preserve" text-anchor="middle" x="73.62" y="-25.71" font-family="Helvetica,sans-Serif" font-size="10.00">Response</text>
</a>
</g>
</g>
<!-- Node5&#45;&gt;Node6 -->
<g id="edge7_Node000005_Node000006" class="edge">
<title>Node5&#45;&gt;Node6</title>
<g id="a_edge7_Node000005_Node000006"><a xlink:title=" ">
<path fill="none" stroke="#63b8ff" d="M171.51,-35.21C163.58,-35.21 155.49,-35.21 147.52,-35.21"/>
<polygon fill="#63b8ff" stroke="#63b8ff" points="171.46,-38.71 181.46,-35.21 171.46,-31.71 171.46,-38.71"/>
</a>
</g>
</g>
<!-- Node8 -->
<g id="Node000008" class="node">
<title>Node8</title>
<g id="a_Node000008"><a xlink:href="class_web_socket_session.html#aa60a520432526e90b74fd97713469a56" target="_top" xlink:title="Start the session by accepting WebSocket handshake.">
<polygon fill="white" stroke="#666666" points="468.75,-83.21 347.75,-83.21 347.75,-63.21 468.75,-63.21 468.75,-83.21"/>
<text xml:space="preserve" text-anchor="middle" x="408.25" y="-69.71" font-family="Helvetica,sans-Serif" font-size="10.00">WebSocketSession::run</text>
</a>
</g>
</g>
<!-- Node7&#45;&gt;Node8 -->
<g id="edge9_Node000007_Node000008" class="edge">
<title>Node7&#45;&gt;Node8</title>
<g id="a_edge9_Node000007_Node000008"><a xlink:title=" ">
<path fill="none" stroke="#63b8ff" d="M522.95,-76.93C505.17,-76.35 486.22,-75.73 468.99,-75.17"/>
<polygon fill="#63b8ff" stroke="#63b8ff" points="522.82,-80.43 532.92,-77.26 523.04,-73.43 522.82,-80.43"/>
</a>
</g>
</g>
<!-- Node10 -->
<g id="Node000010" class="node">
<title>Node10</title>
<g id="a_Node000010"><a xlink:href="class_web_socket_session.html#a2bc079950c2e39e8ff745f0da57646ba" target="_top" xlink:title="Initiate async read for next client message.">
<polygon fill="white" stroke="#666666" points="479.25,-45.21 337.25,-45.21 337.25,-25.21 479.25,-25.21 479.25,-45.21"/>
<text xml:space="preserve" text-anchor="middle" x="408.25" y="-31.71" font-family="Helvetica,sans-Serif" font-size="10.00">WebSocketSession::do_read</text>
</a>
</g>
</g>
<!-- Node9&#45;&gt;Node10 -->
<g id="edge11_Node000009_Node000010" class="edge">
<title>Node9&#45;&gt;Node10</title>
<g id="a_edge11_Node000009_Node000010"><a xlink:title=" ">
<path fill="none" stroke="#63b8ff" d="M511.01,-28.5C500.49,-28.42 489.8,-28.47 479.48,-28.63"/>
<polygon fill="#63b8ff" stroke="#63b8ff" points="510.78,-32 520.82,-28.61 510.86,-25 510.78,-32"/>
</a>
</g>
</g>
<!-- Node10&#45;&gt;Node5 -->
<g id="edge13_Node000010_Node000005" class="edge">
<title>Node10&#45;&gt;Node5</title>
<g id="a_edge13_Node000010_Node000005"><a xlink:title=" ">
<path fill="none" stroke="#63b8ff" d="M325.77,-35.21C317.65,-35.21 309.52,-35.21 301.7,-35.21"/>
<polygon fill="#63b8ff" stroke="#63b8ff" points="325.71,-38.71 335.71,-35.21 325.71,-31.71 325.71,-38.71"/>
</a>
</g>
</g>
<!-- Node10&#45;&gt;Node9 -->
<g id="edge12_Node000010_Node000009" class="edge">
<title>Node10&#45;&gt;Node9</title>
<g id="a_edge12_Node000010_Node000009"><a xlink:title=" ">
<path fill="none" stroke="#63b8ff" d="M490.8,-41.93C501.31,-42 512.01,-41.96 522.33,-41.8"/>
<polygon fill="#63b8ff" stroke="#63b8ff" points="491.04,-38.43 481,-41.81 490.96,-45.43 491.04,-38.43"/>
</a>
</g>
</g>
</g>
</svg>

<g id="navigator" transform="translate(0 0)" fill="#404254">
  <rect fill="#f2f5e9" fill-opacity="0.5" stroke="#606060" stroke-width=".5" x="0" y="0" width="60" height="60"/>
  <use id="zoomplus" xlink:href="#zoomPlus" x="17" y="9" onmousedown="handleZoom(evt,'in')"/>
  <use id="zoomminus" xlink:href="#zoomMin" x="42" y="9" onmousedown="handleZoom(evt,'out')"/>
  <use id="reset" xlink:href="#resetDef" x="30" y="36" onmousedown="handleReset()"/>
   <use id="arrowup" xlink:href="#arrowUp" x="0" y="0" onmousedown="handlePan(0,-1)"/>
  <use id="arrowright" xlink:href="#arrowRight" x="0" y="0" onmousedown="handlePan(1,0)"/>
  <use id="arrowdown" xlink:href="#arrowDown" x="0" y="0" onmousedown="handlePan(0,1)"/>
  <use id="arrowleft" xlink:href="#arrowLeft" x="0" y="0" onmousedown="handlePan(-1,0)"/>
</g>
<svg viewBox="0 0 15 15" width="100%" height="30px" preserveAspectRatio="xMaxYMin meet">
 <g id="arrow_out" transform="scale(0.3 0.3)">
  <a xlink:href="class_web_socket_session_a2529887f34770366fc2c225bd085edba_icgraph_org.svg" target="_base">
   <rect id="button" ry="5" rx="5" y="6" x="6" height="38" width="38"
        fill="#f2f5e9" fill-opacity="0.5" stroke="#606060" stroke-width="1.0"/>
   <path id="arrow"
     d="M 11.500037,31.436501 C 11.940474,20.09759 22.043105,11.32322 32.158766,21.979434 L 37.068811,17.246167 C 37.068811,17.246167 37.088388,32 37.088388,32 L 22.160133,31.978069 C 22.160133,31.978069 26.997745,27.140456 26.997745,27.140456 C 18.528582,18.264221 13.291696,25.230495 11.500037,31.436501 z"
     style="fill:#404040;"/>
  </a>
 </g>
</svg>

<style type='text/css'>
<![CDATA[
[data-mouse-over-selected='false'] { opacity: 0.7; }
[data-mouse-over-selected='true']  { opacity: 1.0; }
]]>
</style>
<script type="application/ecmascript"><![CDATA[
document.addEventListener('DOMContentLoaded', (event) => {
  highlightEdges();
  highlightAdjacentNodes();
});
]]></script>
</svg>
