<?xml version="1.0" encoding="UTF-8" standalone="no"?>
<!DOCTYPE svg PUBLIC "-//W3C//DTD SVG 1.1//EN"
 "http://www.w3.org/Graphics/SVG/1.1/DTD/svg11.dtd">
<!-- Generated by graphviz version 14.1.1 (20251213.1925)
 -->
<!-- Title: SERDatabase::operator= Pages: 1 -->
<svg width="685pt" height="558pt"
 viewBox="0.00 0.00 685.00 558.00" xmlns="http://www.w3.org/2000/svg" xmlns:xlink="http://www.w3.org/1999/xlink">
<g id="graph0" class="graph" transform="scale(1 1) rotate(0) translate(4 554)">
<title>SERDatabase::operator=</title>
<!-- Node1 -->
<g id="Node000001" class="node">
<title>Node1</title>
<g id="a_Node000001"><a xlink:title=" ">
<polygon fill="#999999" stroke="#666666" points="126.25,-291 0,-291 0,-271 126.25,-271 126.25,-291"/>
<text xml:space="preserve" text-anchor="middle" x="63.12" y="-277.5" font-family="Helvetica,sans-Serif" font-size="10.00">SERDatabase::operator=</text>
</a>
</g>
</g>
<!-- Node2 -->
<g id="Node000002" class="node">
<title>Node2</title>
<g id="a_Node000002"><a xlink:href="class_s_e_r_database.html#acda974d3e6c636baafcc488aa9814de3" target="_top" xlink:title="Delete all records from the database.">
<polygon fill="white" stroke="#666666" points="317.38,-550 163.38,-550 163.38,-530 317.38,-530 317.38,-550"/>
<text xml:space="preserve" text-anchor="middle" x="240.38" y="-536.5" font-family="Helvetica,sans-Serif" font-size="10.00">SERDatabase::clearAllRecords</text>
</a>
</g>
</g>
<!-- Node1&#45;&gt;Node2 -->
<g id="edge1_Node000001_Node000002" class="edge">
<title>Node1&#45;&gt;Node2</title>
<g id="a_edge1_Node000001_Node000002"><a xlink:title=" ">
<path fill="none" stroke="#63b8ff" d="M65.09,-291.31C69.13,-328.52 88.14,-457.02 162.25,-521 163.37,-521.96 164.52,-522.88 165.72,-523.75"/>
<polygon fill="#63b8ff" stroke="#63b8ff" points="163.79,-526.68 174.17,-528.8 167.39,-520.67 163.79,-526.68"/>
</a>
</g>
</g>
<!-- Node3 -->
<g id="Node000003" class="node">
<title>Node3</title>
<g id="a_Node000003"><a xlink:href="class_s_e_r_database.html#a6800d7f803456544a3915465fd092df9" target="_top" xlink:title="Close database connection.">
<polygon fill="white" stroke="#666666" points="294.5,-512 186.25,-512 186.25,-492 294.5,-492 294.5,-512"/>
<text xml:space="preserve" text-anchor="middle" x="240.38" y="-498.5" font-family="Helvetica,sans-Serif" font-size="10.00">SERDatabase::close</text>
</a>
</g>
</g>
<!-- Node1&#45;&gt;Node3 -->
<g id="edge2_Node000001_Node000003" class="edge">
<title>Node1&#45;&gt;Node3</title>
<g id="a_edge2_Node000001_Node000003"><a xlink:title=" ">
<path fill="none" stroke="#63b8ff" d="M65.94,-291.29C72.39,-324.63 97.38,-430.53 162.25,-483 166.22,-486.21 170.65,-488.89 175.33,-491.12"/>
<polygon fill="#63b8ff" stroke="#63b8ff" points="173.89,-494.32 184.48,-494.77 176.49,-487.81 173.89,-494.32"/>
</a>
</g>
</g>
<!-- Node4 -->
<g id="Node000004" class="node">
<title>Node4</title>
<g id="a_Node000004"><a xlink:href="class_s_e_r_database.html#a798696a9c47ba55f7a3473afff3efe9f" target="_top" xlink:title="Export all records to a JSON file for UI consumption.">
<polygon fill="white" stroke="#666666" points="315.12,-474 165.62,-474 165.62,-454 315.12,-454 315.12,-474"/>
<text xml:space="preserve" text-anchor="middle" x="240.38" y="-460.5" font-family="Helvetica,sans-Serif" font-size="10.00">SERDatabase::exportToJSON</text>
</a>
</g>
</g>
<!-- Node1&#45;&gt;Node4 -->
<g id="edge3_Node000001_Node000004" class="edge">
<title>Node1&#45;&gt;Node4</title>
<g id="a_edge3_Node000001_Node000004"><a xlink:title=" ">
<path fill="none" stroke="#63b8ff" d="M67.56,-291.31C77.48,-319.53 108.94,-398.64 162.25,-440 166.84,-443.56 171.97,-446.6 177.33,-449.19"/>
<polygon fill="#63b8ff" stroke="#63b8ff" points="175.91,-452.39 186.48,-453.05 178.63,-445.94 175.91,-452.39"/>
</a>
</g>
</g>
<!-- Node5 -->
<g id="Node000005" class="node">
<title>Node5</title>
<g id="a_Node000005"><a xlink:href="class_s_e_r_database.html#a1a997738e16c0b0153823c259b33b071" target="_top" xlink:title="Retrieve all SER records ordered by timestamp (newest first).">
<polygon fill="white" stroke="#666666" points="501,-455 354.5,-455 354.5,-435 501,-435 501,-455"/>
<text xml:space="preserve" text-anchor="middle" x="427.75" y="-441.5" font-family="Helvetica,sans-Serif" font-size="10.00">SERDatabase::getAllRecords</text>
</a>
</g>
</g>
<!-- Node1&#45;&gt;Node5 -->
<g id="edge5_Node000001_Node000005" class="edge">
<title>Node1&#45;&gt;Node5</title>
<g id="a_edge5_Node000001_Node000005"><a xlink:title=" ">
<path fill="none" stroke="#63b8ff" d="M68.74,-291.33C80.39,-316.07 113.57,-378.75 162.25,-407 192.21,-424.39 277.25,-434.42 342.89,-439.77"/>
<polygon fill="#63b8ff" stroke="#63b8ff" points="342.33,-443.23 352.57,-440.53 342.87,-436.25 342.33,-443.23"/>
</a>
</g>
</g>
<!-- Node6 -->
<g id="Node000006" class="node">
<title>Node6</title>
<g id="a_Node000006"><a xlink:href="class_s_e_r_database.html#ae42bb6aa2a4723f2696e2f5c67605765" target="_top" xlink:title="Get last error message.">
<polygon fill="white" stroke="#666666" points="309.5,-398 171.25,-398 171.25,-378 309.5,-378 309.5,-398"/>
<text xml:space="preserve" text-anchor="middle" x="240.38" y="-384.5" font-family="Helvetica,sans-Serif" font-size="10.00">SERDatabase::getLastError</text>
</a>
</g>
</g>
<!-- Node1&#45;&gt;Node6 -->
<g id="edge6_Node000001_Node000006" class="edge">
<title>Node1&#45;&gt;Node6</title>
<g id="a_edge6_Node000001_Node000006"><a xlink:title=" ">
<path fill="none" stroke="#63b8ff" d="M72.66,-291.48C88.38,-310.05 123.81,-348.68 162.25,-369 165.48,-370.71 168.87,-372.27 172.35,-373.69"/>
<polygon fill="#63b8ff" stroke="#63b8ff" points="170.97,-376.91 181.56,-377.03 173.36,-370.33 170.97,-376.91"/>
</a>
</g>
</g>
<!-- Node7 -->
<g id="Node000007" class="node">
<title>Node7</title>
<g id="a_Node000007"><a xlink:href="class_s_e_r_database.html#af9f462113ba171ab65d126a4689c02be" target="_top" xlink:title="Get total count of records in the database.">
<polygon fill="white" stroke="#666666" points="318.5,-360 162.25,-360 162.25,-340 318.5,-340 318.5,-360"/>
<text xml:space="preserve" text-anchor="middle" x="240.38" y="-346.5" font-family="Helvetica,sans-Serif" font-size="10.00">SERDatabase::getRecordCount</text>
</a>
</g>
</g>
<!-- Node1&#45;&gt;Node7 -->
<g id="edge7_Node000001_Node000007" class="edge">
<title>Node1&#45;&gt;Node7</title>
<g id="a_edge7_Node000001_Node000007"><a xlink:title=" ">
<path fill="none" stroke="#63b8ff" d="M81.65,-291.49C100.86,-302.62 132.86,-320.06 162.25,-331 167.61,-332.99 173.25,-334.84 178.94,-336.53"/>
<polygon fill="#63b8ff" stroke="#63b8ff" points="177.87,-339.87 188.44,-339.19 179.76,-333.13 177.87,-339.87"/>
</a>
</g>
</g>
<!-- Node8 -->
<g id="Node000008" class="node">
<title>Node8</title>
<g id="a_Node000008"><a xlink:href="class_s_e_r_database.html#ab43b0d80078a53b7d0fc58e30a434fd2" target="_top" xlink:title="Retrieve records filtered by relay identifier.">
<polygon fill="white" stroke="#666666" points="314,-322 166.75,-322 166.75,-290 314,-290 314,-322"/>
<text xml:space="preserve" text-anchor="start" x="174.75" y="-308.5" font-family="Helvetica,sans-Serif" font-size="10.00">SERDatabase::getRecordsBy</text>
<text xml:space="preserve" text-anchor="middle" x="240.38" y="-296.5" font-family="Helvetica,sans-Serif" font-size="10.00">Relay</text>
</a>
</g>
</g>
<!-- Node1&#45;&gt;Node8 -->
<g id="edge8_Node000001_Node000008" class="edge">
<title>Node1&#45;&gt;Node8</title>
<g id="a_edge8_Node000001_Node000008"><a xlink:title=" ">
<path fill="none" stroke="#63b8ff" d="M126.41,-289.88C135.74,-291.22 145.49,-292.61 155.19,-293.99"/>
<polygon fill="#63b8ff" stroke="#63b8ff" points="154.63,-297.45 165.02,-295.39 155.62,-290.52 154.63,-297.45"/>
</a>
</g>
</g>
<!-- Node9 -->
<g id="Node000009" class="node">
<title>Node9</title>
<g id="a_Node000009"><a xlink:href="class_s_e_r_database.html#adbe68cbe0623ec047941da1c63528328" target="_top" xlink:title="Retrieve records filtered by status.">
<polygon fill="white" stroke="#666666" points="314,-272 166.75,-272 166.75,-240 314,-240 314,-272"/>
<text xml:space="preserve" text-anchor="start" x="174.75" y="-258.5" font-family="Helvetica,sans-Serif" font-size="10.00">SERDatabase::getRecordsBy</text>
<text xml:space="preserve" text-anchor="middle" x="240.38" y="-246.5" font-family="Helvetica,sans-Serif" font-size="10.00">Status</text>
</a>
</g>
</g>
<!-- Node1&#45;&gt;Node9 -->
<g id="edge9_Node000001_Node000009" class="edge">
<title>Node1&#45;&gt;Node9</title>
<g id="a_edge9_Node000001_Node000009"><a xlink:title=" ">
<path fill="none" stroke="#63b8ff" d="M126.41,-272.12C135.74,-270.78 145.49,-269.39 155.19,-268.01"/>
<polygon fill="#63b8ff" stroke="#63b8ff" points="155.62,-271.48 165.02,-266.61 154.63,-264.55 155.62,-271.48"/>
</a>
</g>
</g>
<!-- Node10 -->
<g id="Node000010" class="node">
<title>Node10</title>
<g id="a_Node000010"><a xlink:href="class_s_e_r_database.html#a5a881963cba303144718c7de1203fe51" target="_top" xlink:title="Insert records and return only the newly inserted ones.">
<polygon fill="white" stroke="#666666" points="311.38,-146 169.38,-146 169.38,-114 311.38,-114 311.38,-146"/>
<text xml:space="preserve" text-anchor="start" x="177.38" y="-132.5" font-family="Helvetica,sans-Serif" font-size="10.00">SERDatabase::insertAndGet</text>
<text xml:space="preserve" text-anchor="middle" x="240.38" y="-120.5" font-family="Helvetica,sans-Serif" font-size="10.00">NewRecords</text>
</a>
</g>
</g>
<!-- Node1&#45;&gt;Node10 -->
<g id="edge10_Node000001_Node000010" class="edge">
<title>Node1&#45;&gt;Node10</title>
<g id="a_edge10_Node000001_Node000010"><a xlink:title=" ">
<path fill="none" stroke="#63b8ff" d="M69.26,-270.84C81.81,-247.01 116.39,-187.14 162.25,-155 163.83,-153.89 165.47,-152.83 167.15,-151.81"/>
<polygon fill="#63b8ff" stroke="#63b8ff" points="168.65,-154.97 175.82,-147.17 165.35,-148.8 168.65,-154.97"/>
</a>
</g>
</g>
<!-- Node11 -->
<g id="Node000011" class="node">
<title>Node11</title>
<g id="a_Node000011"><a xlink:href="class_s_e_r_database.html#a7af7d201eef0336f5c599c3d05671f18" target="_top" xlink:title="Insert a single SER record into the database.">
<polygon fill="white" stroke="#666666" points="498,-181 357.5,-181 357.5,-161 498,-161 498,-181"/>
<text xml:space="preserve" text-anchor="middle" x="427.75" y="-167.5" font-family="Helvetica,sans-Serif" font-size="10.00">SERDatabase::insertRecord</text>
</a>
</g>
</g>
<!-- Node1&#45;&gt;Node11 -->
<g id="edge14_Node000001_Node000011" class="edge">
<title>Node1&#45;&gt;Node11</title>
<g id="a_edge14_Node000001_Node000011"><a xlink:title=" ">
<path fill="none" stroke="#63b8ff" d="M81.26,-270.61C100.4,-259.4 132.58,-241.73 162.25,-231 181.32,-224.1 294.52,-199.31 366.51,-183.84"/>
<polygon fill="#63b8ff" stroke="#63b8ff" points="367.17,-187.28 376.21,-181.76 365.7,-180.43 367.17,-187.28"/>
</a>
</g>
</g>
<!-- Node13 -->
<g id="Node000013" class="node">
<title>Node13</title>
<g id="a_Node000013"><a xlink:href="class_s_e_r_database.html#ac4611fbd8ff79ee0d8ec51cb04a171fc" target="_top" xlink:title="Insert multiple SER records with transaction support.">
<polygon fill="white" stroke="#666666" points="313.25,-184 167.5,-184 167.5,-164 313.25,-164 313.25,-184"/>
<text xml:space="preserve" text-anchor="middle" x="240.38" y="-170.5" font-family="Helvetica,sans-Serif" font-size="10.00">SERDatabase::insertRecords</text>
</a>
</g>
</g>
<!-- Node1&#45;&gt;Node13 -->
<g id="edge15_Node000001_Node000013" class="edge">
<title>Node1&#45;&gt;Node13</title>
<g id="a_edge15_Node000001_Node000013"><a xlink:title=" ">
<path fill="none" stroke="#63b8ff" d="M73.7,-270.54C90.17,-253.11 125.67,-218.07 162.25,-198 169.19,-194.19 176.81,-190.9 184.48,-188.08"/>
<polygon fill="#63b8ff" stroke="#63b8ff" points="185.52,-191.42 193.86,-184.88 183.27,-184.79 185.52,-191.42"/>
</a>
</g>
</g>
<!-- Node14 -->
<g id="Node000014" class="node">
<title>Node14</title>
<g id="a_Node000014"><a xlink:href="class_s_e_r_database.html#adc5c3b4c9ed3d82e560fd9be47406d80" target="_top" xlink:title="Check if database is currently open.">
<polygon fill="white" stroke="#666666" points="298.25,-96 182.5,-96 182.5,-76 298.25,-76 298.25,-96"/>
<text xml:space="preserve" text-anchor="middle" x="240.38" y="-82.5" font-family="Helvetica,sans-Serif" font-size="10.00">SERDatabase::isOpen</text>
</a>
</g>
</g>
<!-- Node1&#45;&gt;Node14 -->
<g id="edge17_Node000001_Node000014" class="edge">
<title>Node1&#45;&gt;Node14</title>
<g id="a_edge17_Node000001_Node000014"><a xlink:title=" ">
<path fill="none" stroke="#63b8ff" d="M66.72,-270.75C74.96,-240.31 103.57,-149.78 162.25,-105 165.21,-102.74 168.4,-100.75 171.75,-98.99"/>
<polygon fill="#63b8ff" stroke="#63b8ff" points="173.04,-102.24 180.77,-94.99 170.21,-95.84 173.04,-102.24"/>
</a>
</g>
</g>
<!-- Node15 -->
<g id="Node000015" class="node">
<title>Node15</title>
<g id="a_Node000015"><a xlink:href="class_s_e_r_database.html#a4526bdbd509f3fc64952fa3a7f33bd5f" target="_top" xlink:title="Open database connection and initialize schema.">
<polygon fill="white" stroke="#666666" points="293.38,-58 187.38,-58 187.38,-38 293.38,-38 293.38,-58"/>
<text xml:space="preserve" text-anchor="middle" x="240.38" y="-44.5" font-family="Helvetica,sans-Serif" font-size="10.00">SERDatabase::open</text>
</a>
</g>
</g>
<!-- Node1&#45;&gt;Node15 -->
<g id="edge18_Node000001_Node000015" class="edge">
<title>Node1&#45;&gt;Node15</title>
<g id="a_edge18_Node000001_Node000015"><a xlink:title=" ">
<path fill="none" stroke="#63b8ff" d="M65.66,-270.6C71.35,-235.89 94.54,-123.02 162.25,-67 166.48,-63.5 171.25,-60.63 176.3,-58.28"/>
<polygon fill="#63b8ff" stroke="#63b8ff" points="177.5,-61.57 185.56,-54.69 174.97,-55.04 177.5,-61.57"/>
</a>
</g>
</g>
<!-- Node17 -->
<g id="Node000017" class="node">
<title>Node17</title>
<g id="a_Node000017"><a xlink:href="class_s_e_r_database.html#a304f1c512c577562c4d63b6bbdb9b05a" target="_top" xlink:title="Construct database handler with specified file path.">
<polygon fill="white" stroke="#666666" points="314.38,-20 166.38,-20 166.38,0 314.38,0 314.38,-20"/>
<text xml:space="preserve" text-anchor="middle" x="240.38" y="-6.5" font-family="Helvetica,sans-Serif" font-size="10.00">SERDatabase::SERDatabase</text>
</a>
</g>
</g>
<!-- Node1&#45;&gt;Node17 -->
<g id="edge20_Node000001_Node000017" class="edge">
<title>Node1&#45;&gt;Node17</title>
<g id="a_edge20_Node000001_Node000017"><a xlink:title=" ">
<path fill="none" stroke="#63b8ff" d="M64.86,-270.72C68.18,-232.41 85.16,-96.68 162.25,-29 163.36,-28.03 164.51,-27.1 165.69,-26.22"/>
<polygon fill="#63b8ff" stroke="#63b8ff" points="167.37,-29.3 174.12,-21.13 163.75,-23.31 167.37,-29.3"/>
</a>
</g>
</g>
<!-- Node4&#45;&gt;Node5 -->
<g id="edge4_Node000004_Node000005" class="edge">
<title>Node4&#45;&gt;Node5</title>
<g id="a_edge4_Node000004_Node000005"><a xlink:title=" ">
<path fill="none" stroke="#63b8ff" d="M315.44,-456.41C324.37,-455.49 333.55,-454.55 342.61,-453.62"/>
<polygon fill="#63b8ff" stroke="#63b8ff" points="342.92,-457.11 352.51,-452.61 342.2,-450.15 342.92,-457.11"/>
</a>
</g>
</g>
<!-- Node10&#45;&gt;Node11 -->
<g id="edge11_Node000010_Node000011" class="edge">
<title>Node10&#45;&gt;Node11</title>
<g id="a_edge11_Node000010_Node000011"><a xlink:title=" ">
<path fill="none" stroke="#63b8ff" d="M311.72,-145.56C330.38,-149.69 350.32,-154.1 368.27,-158.07"/>
<polygon fill="#63b8ff" stroke="#63b8ff" points="367.45,-161.47 377.97,-160.21 368.96,-154.63 367.45,-161.47"/>
</a>
</g>
</g>
<!-- Node12 -->
<g id="Node000012" class="node">
<title>Node12</title>
<g id="a_Node000012"><a xlink:href="class_s_e_r_database.html#a77ac29d719dfce9ffe151bb73c9295bd" target="_top" xlink:title="Check if a record already exists in the database.">
<polygon fill="white" stroke="#666666" points="676.75,-161 537,-161 537,-141 676.75,-141 676.75,-161"/>
<text xml:space="preserve" text-anchor="middle" x="606.88" y="-147.5" font-family="Helvetica,sans-Serif" font-size="10.00">SERDatabase::recordExists</text>
</a>
</g>
</g>
<!-- Node10&#45;&gt;Node12 -->
<g id="edge13_Node000010_Node000012" class="edge">
<title>Node10&#45;&gt;Node12</title>
<g id="a_edge13_Node000010_Node000012"><a xlink:title=" ">
<path fill="none" stroke="#63b8ff" d="M311.65,-134.05C372.84,-137.57 461.5,-142.68 525.49,-146.37"/>
<polygon fill="#63b8ff" stroke="#63b8ff" points="525.04,-149.85 535.23,-146.93 525.45,-142.86 525.04,-149.85"/>
</a>
</g>
</g>
<!-- Node11&#45;&gt;Node12 -->
<g id="edge12_Node000011_Node000012" class="edge">
<title>Node11&#45;&gt;Node12</title>
<g id="a_edge12_Node000011_Node000012"><a xlink:title=" ">
<path fill="none" stroke="#63b8ff" d="M498.25,-163.15C507.11,-162.15 516.23,-161.12 525.25,-160.1"/>
<polygon fill="#63b8ff" stroke="#63b8ff" points="525.53,-163.59 535.08,-158.99 524.75,-156.64 525.53,-163.59"/>
</a>
</g>
</g>
<!-- Node13&#45;&gt;Node11 -->
<g id="edge16_Node000013_Node000011" class="edge">
<title>Node13&#45;&gt;Node11</title>
<g id="a_edge16_Node000013_Node000011"><a xlink:title=" ">
<path fill="none" stroke="#63b8ff" d="M313.58,-172.83C324.1,-172.66 335,-172.48 345.69,-172.31"/>
<polygon fill="#63b8ff" stroke="#63b8ff" points="345.72,-175.81 355.66,-172.15 345.61,-168.81 345.72,-175.81"/>
</a>
</g>
</g>
<!-- Node16 -->
<g id="Node000016" class="node">
<title>Node16</title>
<g id="a_Node000016"><a xlink:href="class_s_e_r_database.html#ad55583b39ff6c9cc9d2d44f20f34ad47" target="_top" xlink:title="Create SER records table and indexes.">
<polygon fill="white" stroke="#666666" points="495.38,-58 360.12,-58 360.12,-38 495.38,-38 495.38,-58"/>
<text xml:space="preserve" text-anchor="middle" x="427.75" y="-44.5" font-family="Helvetica,sans-Serif" font-size="10.00">SERDatabase::createTable</text>
</a>
</g>
</g>
<!-- Node15&#45;&gt;Node16 -->
<g id="edge19_Node000015_Node000016" class="edge">
<title>Node15&#45;&gt;Node16</title>
<g id="a_edge19_Node000015_Node000016"><a xlink:title=" ">
<path fill="none" stroke="#63b8ff" d="M293.51,-48C310.53,-48 329.83,-48 348.36,-48"/>
<polygon fill="#63b8ff" stroke="#63b8ff" points="348.25,-51.5 358.25,-48 348.25,-44.5 348.25,-51.5"/>
</a>
</g>
</g>
</g>
</svg>
