<?xml version="1.0" encoding="UTF-8" standalone="no"?>
<!DOCTYPE svg PUBLIC "-//W3C//DTD SVG 1.1//EN"
 "http://www.w3.org/Graphics/SVG/1.1/DTD/svg11.dtd">
<!-- Generated by graphviz version 14.1.2 (20260124.0452)
 -->
<!-- Title: TimeSyncManager::handleAction Pages: 1 -->
<svg width="758pt" height="198pt"
 viewBox="0.00 0.00 758.00 198.00" xmlns="http://www.w3.org/2000/svg" xmlns:xlink="http://www.w3.org/1999/xlink">
<g id="graph0" class="graph" transform="scale(1 1) rotate(0) translate(4 194)">
<title>TimeSyncManager::handleAction</title>
<!-- Node1 -->
<g id="Node000001" class="node">
<title>Node1</title>
<g id="a_Node000001"><a xlink:title="Process a JSON action string from WebSocket and return a JSON response.">
<polygon fill="#999999" stroke="#666666" points="160,-58 0,-58 0,-38 160,-38 160,-58"/>
<text xml:space="preserve" text-anchor="middle" x="80" y="-44.5" font-family="Helvetica,sans-Serif" font-size="10.00">TimeSyncManager::handleAction</text>
</a>
</g>
</g>
<!-- Node2 -->
<g id="Node000002" class="node">
<title>Node2</title>
<g id="a_Node000002"><a xlink:href="class_time_sync_manager.html#a729b318dd4e664a91323c6096211fa82" target="_top" xlink:title=" ">
<polygon fill="white" stroke="#666666" points="575.25,-20 409.25,-20 409.25,0 575.25,0 575.25,-20"/>
<text xml:space="preserve" text-anchor="middle" x="492.25" y="-6.5" font-family="Helvetica,sans-Serif" font-size="10.00">TimeSyncManager::buildErrorJson</text>
</a>
</g>
</g>
<!-- Node1&#45;&gt;Node2 -->
<g id="edge1_Node000001_Node000002" class="edge">
<title>Node1&#45;&gt;Node2</title>
<g id="a_edge1_Node000001_Node000002"><a xlink:title=" ">
<path fill="none" stroke="#63b8ff" d="M137.58,-37.5C156.14,-34.37 176.9,-31.19 196,-29 263.22,-21.3 339.43,-16.5 397.58,-13.64"/>
<polygon fill="#63b8ff" stroke="#63b8ff" points="397.63,-17.15 407.45,-13.17 397.3,-10.15 397.63,-17.15"/>
</a>
</g>
</g>
<!-- Node4 -->
<g id="Node000004" class="node">
<title>Node4</title>
<g id="a_Node000004"><a xlink:href="class_time_sync_manager.html#a6d7aefdf9577ff2f38b502ddbe603d66" target="_top" xlink:title=" ">
<polygon fill="white" stroke="#666666" points="373.25,-124 196,-124 196,-104 373.25,-104 373.25,-124"/>
<text xml:space="preserve" text-anchor="middle" x="284.62" y="-110.5" font-family="Helvetica,sans-Serif" font-size="10.00">TimeSyncManager::handleReadTime</text>
</a>
</g>
</g>
<!-- Node1&#45;&gt;Node4 -->
<g id="edge3_Node000001_Node000004" class="edge">
<title>Node1&#45;&gt;Node4</title>
<g id="a_edge3_Node000001_Node000004"><a xlink:title=" ">
<path fill="none" stroke="#63b8ff" d="M113.11,-58.46C147.64,-69.71 202.72,-87.65 240.89,-100.08"/>
<polygon fill="#63b8ff" stroke="#63b8ff" points="239.64,-103.35 250.23,-103.12 241.81,-96.7 239.64,-103.35"/>
</a>
</g>
</g>
<!-- Node8 -->
<g id="Node000008" class="node">
<title>Node8</title>
<g id="a_Node000008"><a xlink:href="class_time_sync_manager.html#ab03b40ab388284d44f5a30a63fa0f432" target="_top" xlink:title=" ">
<polygon fill="white" stroke="#666666" points="372.88,-58 196.38,-58 196.38,-38 372.88,-38 372.88,-58"/>
<text xml:space="preserve" text-anchor="middle" x="284.62" y="-44.5" font-family="Helvetica,sans-Serif" font-size="10.00">TimeSyncManager::handleSyncTime</text>
</a>
</g>
</g>
<!-- Node1&#45;&gt;Node8 -->
<g id="edge8_Node000001_Node000008" class="edge">
<title>Node1&#45;&gt;Node8</title>
<g id="a_edge8_Node000001_Node000008"><a xlink:title=" ">
<path fill="none" stroke="#63b8ff" d="M160.21,-48C168.3,-48 176.59,-48 184.85,-48"/>
<polygon fill="#63b8ff" stroke="#63b8ff" points="184.57,-51.5 194.57,-48 184.57,-44.5 184.57,-51.5"/>
</a>
</g>
</g>
<!-- Node3 -->
<g id="Node000003" class="node">
<title>Node3</title>
<g id="a_Node000003"><a xlink:href="ser__json__writer_8hpp.html#a5c077d95f29d39a73aa9b32b93ceddda" target="_top" xlink:title="Escape special characters for JSON string values.">
<polygon fill="white" stroke="#666666" points="714.62,-58 646.12,-58 646.12,-38 714.62,-38 714.62,-58"/>
<text xml:space="preserve" text-anchor="middle" x="680.38" y="-44.5" font-family="Helvetica,sans-Serif" font-size="10.00">escapeJson</text>
</a>
</g>
</g>
<!-- Node2&#45;&gt;Node3 -->
<g id="edge2_Node000002_Node000003" class="edge">
<title>Node2&#45;&gt;Node3</title>
<g id="a_edge2_Node000002_Node000003"><a xlink:title=" ">
<path fill="none" stroke="#63b8ff" d="M544.6,-20.48C572.85,-26.25 607.56,-33.34 634.68,-38.87"/>
<polygon fill="#63b8ff" stroke="#63b8ff" points="633.81,-42.27 644.31,-40.84 635.21,-35.41 633.81,-42.27"/>
</a>
</g>
</g>
<!-- Node4&#45;&gt;Node3 -->
<g id="edge6_Node000004_Node000003" class="edge">
<title>Node4&#45;&gt;Node3</title>
<g id="a_edge6_Node000004_Node000003"><a xlink:title=" ">
<path fill="none" stroke="#63b8ff" d="M342.82,-124.46C402.28,-133.08 497.37,-140.46 575.25,-117 608.26,-107.05 640.43,-82.85 660.07,-65.93"/>
<polygon fill="#63b8ff" stroke="#63b8ff" points="662.37,-68.57 667.52,-59.31 657.72,-63.34 662.37,-68.57"/>
</a>
</g>
</g>
<!-- Node5 -->
<g id="Node000005" class="node">
<title>Node5</title>
<g id="a_Node000005"><a xlink:href="class_time_sync_manager.html#a2b382a0cca1fcf4d52890ccaac8c2a0f" target="_top" xlink:title="Compare relay time and PC time.">
<polygon fill="white" stroke="#666666" points="573.75,-184 410.75,-184 410.75,-164 573.75,-164 573.75,-184"/>
<text xml:space="preserve" text-anchor="middle" x="492.25" y="-170.5" font-family="Helvetica,sans-Serif" font-size="10.00">TimeSyncManager::compareTime</text>
</a>
</g>
</g>
<!-- Node4&#45;&gt;Node5 -->
<g id="edge4_Node000004_Node000005" class="edge">
<title>Node4&#45;&gt;Node5</title>
<g id="a_edge4_Node000004_Node000005"><a xlink:title=" ">
<path fill="none" stroke="#63b8ff" d="M321.44,-124.45C355.69,-134.44 407.5,-149.56 444.88,-160.47"/>
<polygon fill="#63b8ff" stroke="#63b8ff" points="443.47,-163.7 454.05,-163.14 445.43,-156.98 443.47,-163.7"/>
</a>
</g>
</g>
<!-- Node7 -->
<g id="Node000007" class="node">
<title>Node7</title>
<g id="a_Node000007"><a xlink:href="class_time_sync_manager.html#aed76e580fcce7cd534a760a3daf56af7" target="_top" xlink:title="Get current local PC time formatted as &quot;YYYY&#45;MM&#45;DD HH:MM:SS&quot;.">
<polygon fill="white" stroke="#666666" points="562.5,-108 422,-108 422,-76 562.5,-76 562.5,-108"/>
<text xml:space="preserve" text-anchor="start" x="430" y="-94.5" font-family="Helvetica,sans-Serif" font-size="10.00">TimeSyncManager::getLocal</text>
<text xml:space="preserve" text-anchor="middle" x="492.25" y="-82.5" font-family="Helvetica,sans-Serif" font-size="10.00">PCTime</text>
</a>
</g>
</g>
<!-- Node4&#45;&gt;Node7 -->
<g id="edge7_Node000004_Node000007" class="edge">
<title>Node4&#45;&gt;Node7</title>
<g id="a_edge7_Node000004_Node000007"><a xlink:title=" ">
<path fill="none" stroke="#63b8ff" d="M373.72,-104.57C385.87,-103.28 398.29,-101.95 410.29,-100.66"/>
<polygon fill="#63b8ff" stroke="#63b8ff" points="410.58,-104.15 420.15,-99.61 409.83,-97.19 410.58,-104.15"/>
</a>
</g>
</g>
<!-- Node6 -->
<g id="Node000006" class="node">
<title>Node6</title>
<g id="a_Node000006"><a xlink:href="class_time_sync_manager.html#aaf4fd3f687f474548d24b78bf3233164" target="_top" xlink:title="Parse &quot;YYYY&#45;MM&#45;DD HH:MM:SS&quot; to system_clock::time_point.">
<polygon fill="white" stroke="#666666" points="749.5,-190 611.25,-190 611.25,-158 749.5,-158 749.5,-190"/>
<text xml:space="preserve" text-anchor="start" x="619.25" y="-176.5" font-family="Helvetica,sans-Serif" font-size="10.00">TimeSyncManager::parseTo</text>
<text xml:space="preserve" text-anchor="middle" x="680.38" y="-164.5" font-family="Helvetica,sans-Serif" font-size="10.00">TimePoint</text>
</a>
</g>
</g>
<!-- Node5&#45;&gt;Node6 -->
<g id="edge5_Node000005_Node000006" class="edge">
<title>Node5&#45;&gt;Node6</title>
<g id="a_edge5_Node000005_Node000006"><a xlink:title=" ">
<path fill="none" stroke="#63b8ff" d="M574.08,-174C582.51,-174 591.07,-174 599.49,-174"/>
<polygon fill="#63b8ff" stroke="#63b8ff" points="599.34,-177.5 609.34,-174 599.34,-170.5 599.34,-177.5"/>
</a>
</g>
</g>
<!-- Node8&#45;&gt;Node2 -->
<g id="edge9_Node000008_Node000002" class="edge">
<title>Node8&#45;&gt;Node2</title>
<g id="a_edge9_Node000008_Node000002"><a xlink:title=" ">
<path fill="none" stroke="#63b8ff" d="M342.36,-37.52C367.53,-32.86 397.35,-27.35 423.66,-22.49"/>
<polygon fill="#63b8ff" stroke="#63b8ff" points="424.02,-25.98 433.21,-20.73 422.74,-19.1 424.02,-25.98"/>
</a>
</g>
</g>
<!-- Node8&#45;&gt;Node3 -->
<g id="edge10_Node000008_Node000003" class="edge">
<title>Node8&#45;&gt;Node3</title>
<g id="a_edge10_Node000008_Node000003"><a xlink:title=" ">
<path fill="none" stroke="#63b8ff" d="M373.01,-48C454.06,-48 571.41,-48 634.77,-48"/>
<polygon fill="#63b8ff" stroke="#63b8ff" points="634.44,-51.5 644.44,-48 634.44,-44.5 634.44,-51.5"/>
</a>
</g>
</g>
<!-- Node8&#45;&gt;Node7 -->
<g id="edge11_Node000008_Node000007" class="edge">
<title>Node8&#45;&gt;Node7</title>
<g id="a_edge11_Node000008_Node000007"><a xlink:title=" ">
<path fill="none" stroke="#63b8ff" d="M334.62,-58.48C357.28,-63.33 384.8,-69.22 410.41,-74.7"/>
<polygon fill="#63b8ff" stroke="#63b8ff" points="409.64,-78.12 420.15,-76.79 411.1,-71.27 409.64,-78.12"/>
</a>
</g>
</g>
</g>
</svg>
