<?xml version="1.0" encoding="UTF-8" standalone="no"?>
<!DOCTYPE svg PUBLIC "-//W3C//DTD SVG 1.1//EN"
 "http://www.w3.org/Graphics/SVG/1.1/DTD/svg11.dtd">
<!-- Generated by graphviz version 14.1.2 (20260124.0452)
 -->
<!-- Title: SERPoller Pages: 1 -->
<svg width="175pt" height="278pt"
 viewBox="0.00 0.00 175.00 278.00" xmlns="http://www.w3.org/2000/svg" xmlns:xlink="http://www.w3.org/1999/xlink">
<g id="graph0" class="graph" transform="scale(1 1) rotate(0) translate(4 274)">
<title>SERPoller</title>
<!-- Node1 -->
<g id="Node000001" class="node">
<title>Node1</title>
<g id="a_Node000001"><a xlink:title="Periodic SER data polling thread.">
<polygon fill="#999999" stroke="none" points="113,-164 33.5,-164 33.5,0 113,0 113,-164"/>
<text xml:space="preserve" text-anchor="start" x="50.38" y="-150.5" font-family="Helvetica,sans-Serif" font-size="10.00">SERPoller</text>
<text xml:space="preserve" text-anchor="start" x="39" y="-134.5" font-family="Helvetica,sans-Serif" font-size="10.00">&#45;</text>
<text xml:space="preserve" text-anchor="start" x="47.5" y="-134.5" font-family="Helvetica,sans-Serif" font-size="10.00">poll_interval_</text>
<text xml:space="preserve" text-anchor="start" x="39" y="-118.5" font-family="Helvetica,sans-Serif" font-size="10.00">&#45;</text>
<text xml:space="preserve" text-anchor="start" x="47.5" y="-118.5" font-family="Helvetica,sans-Serif" font-size="10.00">poll_callback_</text>
<text xml:space="preserve" text-anchor="start" x="37.5" y="-102.5" font-family="Helvetica,sans-Serif" font-size="10.00">+</text>
<text xml:space="preserve" text-anchor="start" x="47.5" y="-102.5" font-family="Helvetica,sans-Serif" font-size="10.00">SERPoller()</text>
<text xml:space="preserve" text-anchor="start" x="37.5" y="-86.5" font-family="Helvetica,sans-Serif" font-size="10.00">+</text>
<text xml:space="preserve" text-anchor="start" x="47.5" y="-86.5" font-family="Helvetica,sans-Serif" font-size="10.00">~SERPoller()</text>
<text xml:space="preserve" text-anchor="start" x="37.5" y="-70.5" font-family="Helvetica,sans-Serif" font-size="10.00">+</text>
<text xml:space="preserve" text-anchor="start" x="47.5" y="-70.5" font-family="Helvetica,sans-Serif" font-size="10.00">setCallback()</text>
<text xml:space="preserve" text-anchor="start" x="37.5" y="-54.5" font-family="Helvetica,sans-Serif" font-size="10.00">+</text>
<text xml:space="preserve" text-anchor="start" x="47.5" y="-54.5" font-family="Helvetica,sans-Serif" font-size="10.00">start()</text>
<text xml:space="preserve" text-anchor="start" x="37.5" y="-38.5" font-family="Helvetica,sans-Serif" font-size="10.00">+</text>
<text xml:space="preserve" text-anchor="start" x="47.5" y="-38.5" font-family="Helvetica,sans-Serif" font-size="10.00">stop()</text>
<text xml:space="preserve" text-anchor="start" x="37.5" y="-22.5" font-family="Helvetica,sans-Serif" font-size="10.00">+</text>
<text xml:space="preserve" text-anchor="start" x="47.5" y="-22.5" font-family="Helvetica,sans-Serif" font-size="10.00">isRunning()</text>
<text xml:space="preserve" text-anchor="start" x="37.5" y="-6.5" font-family="Helvetica,sans-Serif" font-size="10.00">+</text>
<text xml:space="preserve" text-anchor="start" x="47.5" y="-6.5" font-family="Helvetica,sans-Serif" font-size="10.00">setInterval()</text>
<polygon fill="#666666" stroke="#666666" points="33.5,-146 33.5,-146 113,-146 113,-146 33.5,-146"/>
<polygon fill="#666666" stroke="#666666" points="33.5,-114 33.5,-114 45.5,-114 45.5,-114 33.5,-114"/>
<polygon fill="#666666" stroke="#666666" points="45.5,-114 45.5,-114 113,-114 113,-114 45.5,-114"/>
<polygon fill="none" stroke="#666666" points="33.5,0 33.5,-164 113,-164 113,0 33.5,0"/>
</a>
</g>
</g>
<!-- Node2 -->
<g id="Node000002" class="node">
<title>Node2</title>
<g id="a_Node000002"><a xlink:title=" ">
<polygon fill="white" stroke="none" points="54.5,-270 0,-270 0,-218 54.5,-218 54.5,-270"/>
<text xml:space="preserve" text-anchor="start" x="4" y="-256.5" font-family="Helvetica,sans-Serif" font-size="10.00">std::thread</text>
<text xml:space="preserve" text-anchor="start" x="25.75" y="-240.5" font-family="Helvetica,sans-Serif" font-size="10.00"> </text>
<text xml:space="preserve" text-anchor="start" x="25.75" y="-224.5" font-family="Helvetica,sans-Serif" font-size="10.00"> </text>
<polygon fill="#666666" stroke="#666666" points="0,-252 0,-252 54.5,-252 54.5,-252 0,-252"/>
<polygon fill="#666666" stroke="#666666" points="0,-236 0,-236 54.5,-236 54.5,-236 0,-236"/>
<polygon fill="none" stroke="#666666" points="0,-218 0,-270 54.5,-270 54.5,-218 0,-218"/>
</a>
</g>
</g>
<!-- Node2&#45;&gt;Node1 -->
<g id="edge1_Node000001_Node000002" class="edge">
<title>Node2&#45;&gt;Node1</title>
<g id="a_edge1_Node000001_Node000002"><a xlink:title=" ">
<path fill="none" stroke="#63b8ff" d="M25.51,-218.09C25.31,-206.93 25.86,-193.67 28.5,-182 28.92,-180.13 29.38,-178.26 29.88,-176.38"/>
<polygon fill="none" stroke="#63b8ff" points="29.89,-176.31 27.77,-169.42 33.32,-164.81 35.44,-171.7 29.89,-176.31"/>
</a>
</g>
<text xml:space="preserve" text-anchor="start" x="31.5" y="-187.5" font-family="Helvetica,sans-Serif" font-size="10.00" fill="grey">&#45;poller_thread_</text>
</g>
<!-- Node3 -->
<g id="Node000003" class="node">
<title>Node3</title>
<g id="a_Node000003"><a xlink:title=" ">
<polygon fill="white" stroke="none" points="166.62,-270 73.88,-270 73.88,-218 166.62,-218 166.62,-270"/>
<text xml:space="preserve" text-anchor="start" x="77.88" y="-256.5" font-family="Helvetica,sans-Serif" font-size="10.00">std::atomic&lt; bool &gt;</text>
<text xml:space="preserve" text-anchor="start" x="93.75" y="-240.5" font-family="Helvetica,sans-Serif" font-size="10.00">+</text>
<text xml:space="preserve" text-anchor="start" x="119.62" y="-240.5" font-family="Helvetica,sans-Serif" font-size="10.00">ptr</text>
<text xml:space="preserve" text-anchor="start" x="118.75" y="-224.5" font-family="Helvetica,sans-Serif" font-size="10.00"> </text>
<polygon fill="#666666" stroke="#666666" points="73.88,-252 73.88,-252 166.62,-252 166.62,-252 73.88,-252"/>
<polygon fill="#666666" stroke="#666666" points="73.88,-236 73.88,-236 117.62,-236 117.62,-236 73.88,-236"/>
<polygon fill="#666666" stroke="#666666" points="117.62,-236 117.62,-236 166.62,-236 166.62,-236 117.62,-236"/>
<polygon fill="none" stroke="#666666" points="73.88,-218 73.88,-270 166.62,-270 166.62,-218 73.88,-218"/>
</a>
</g>
</g>
<!-- Node3&#45;&gt;Node1 -->
<g id="edge2_Node000001_Node000003" class="edge">
<title>Node3&#45;&gt;Node1</title>
<g id="a_edge2_Node000001_Node000003"><a xlink:title=" ">
<path fill="none" stroke="#63b8ff" d="M112.91,-218C109.48,-206.35 105.18,-191.68 100.67,-176.34"/>
<polygon fill="none" stroke="#63b8ff" points="100.66,-176.32 95.13,-171.69 97.28,-164.8 102.81,-169.43 100.66,-176.32"/>
</a>
</g>
<text xml:space="preserve" text-anchor="start" x="109.36" y="-187.5" font-family="Helvetica,sans-Serif" font-size="10.00" fill="grey">&#45;stop_flag_</text>
</g>
</g>
</svg>
