<?xml version="1.0" encoding="UTF-8" standalone="no"?>
<!DOCTYPE svg PUBLIC "-//W3C//DTD SVG 1.1//EN"
 "http://www.w3.org/Graphics/SVG/1.1/DTD/svg11.dtd">
<!-- Generated by graphviz version 14.1.1 (20251213.1925)
 -->
<!-- Title: PipelineReceptionWorker::driveToOperational Pages: 1 -->
<svg width="618pt" height="90pt"
 viewBox="0.00 0.00 618.00 90.00" xmlns="http://www.w3.org/2000/svg" xmlns:xlink="http://www.w3.org/1999/xlink">
<g id="graph0" class="graph" transform="scale(1 1) rotate(0) translate(4 86)">
<title>PipelineReceptionWorker::driveToOperational</title>
<!-- Node1 -->
<g id="Node000001" class="node">
<title>Node1</title>
<g id="a_Node000001"><a xlink:title="Drive the RelayConnectionFSM to Operational state.">
<polygon fill="#999999" stroke="#666666" points="610,-57 484.5,-57 484.5,-25 610,-25 610,-57"/>
<text xml:space="preserve" text-anchor="start" x="492.5" y="-43.5" font-family="Helvetica,sans-Serif" font-size="10.00">PipelineReceptionWorker</text>
<text xml:space="preserve" text-anchor="middle" x="547.25" y="-31.5" font-family="Helvetica,sans-Serif" font-size="10.00">::driveToOperational</text>
</a>
</g>
</g>
<!-- Node2 -->
<g id="Node000002" class="node">
<title>Node2</title>
<g id="a_Node000002"><a xlink:href="class_pipeline_reception_worker.html#a36e9f79b336784cb62214037b38879c1" target="_top" xlink:title="Execute a Telnet command via Command FSM with reconnection.">
<polygon fill="white" stroke="#666666" points="448.5,-82 323,-82 323,-50 448.5,-50 448.5,-82"/>
<text xml:space="preserve" text-anchor="start" x="331" y="-68.5" font-family="Helvetica,sans-Serif" font-size="10.00">PipelineReceptionWorker</text>
<text xml:space="preserve" text-anchor="middle" x="385.75" y="-56.5" font-family="Helvetica,sans-Serif" font-size="10.00">::executeCommand</text>
</a>
</g>
</g>
<!-- Node1&#45;&gt;Node2 -->
<g id="edge1_Node000001_Node000002" class="edge">
<title>Node1&#45;&gt;Node2</title>
<g id="a_edge1_Node000001_Node000002"><a xlink:title=" ">
<path fill="none" stroke="#63b8ff" d="M472.91,-52.5C464.9,-53.75 456.82,-55.02 448.97,-56.25"/>
<polygon fill="#63b8ff" stroke="#63b8ff" points="473.29,-55.98 482.63,-50.97 472.21,-49.06 473.29,-55.98"/>
</a>
</g>
</g>
<!-- Node5 -->
<g id="Node000005" class="node">
<title>Node5</title>
<g id="a_Node000005"><a xlink:href="class_pipeline_reception_worker.html#ac027756a7bee6d9f036c5ca053036aac" target="_top" xlink:title="Execute a user&#45;initiated command via Command FSM and return response.">
<polygon fill="white" stroke="#666666" points="448.5,-32 323,-32 323,0 448.5,0 448.5,-32"/>
<text xml:space="preserve" text-anchor="start" x="331" y="-18.5" font-family="Helvetica,sans-Serif" font-size="10.00">PipelineReceptionWorker</text>
<text xml:space="preserve" text-anchor="middle" x="385.75" y="-6.5" font-family="Helvetica,sans-Serif" font-size="10.00">::handleUserCommand</text>
</a>
</g>
</g>
<!-- Node1&#45;&gt;Node5 -->
<g id="edge4_Node000001_Node000005" class="edge">
<title>Node1&#45;&gt;Node5</title>
<g id="a_edge4_Node000001_Node000005"><a xlink:title=" ">
<path fill="none" stroke="#63b8ff" d="M472.91,-29.5C464.9,-28.25 456.82,-26.98 448.97,-25.75"/>
<polygon fill="#63b8ff" stroke="#63b8ff" points="472.21,-32.94 482.63,-31.03 473.29,-26.02 472.21,-32.94"/>
</a>
</g>
</g>
<!-- Node3 -->
<g id="Node000003" class="node">
<title>Node3</title>
<g id="a_Node000003"><a xlink:href="class_pipeline_reception_worker.html#ab14d5bb4804a5832c44af615fd377077" target="_top" xlink:title=" ">
<polygon fill="white" stroke="#666666" points="287,-82 161.5,-82 161.5,-50 287,-50 287,-82"/>
<text xml:space="preserve" text-anchor="start" x="169.5" y="-68.5" font-family="Helvetica,sans-Serif" font-size="10.00">PipelineReceptionWorker</text>
<text xml:space="preserve" text-anchor="middle" x="224.25" y="-56.5" font-family="Helvetica,sans-Serif" font-size="10.00">::runLoop</text>
</a>
</g>
</g>
<!-- Node2&#45;&gt;Node3 -->
<g id="edge2_Node000002_Node000003" class="edge">
<title>Node2&#45;&gt;Node3</title>
<g id="a_edge2_Node000002_Node000003"><a xlink:title=" ">
<path fill="none" stroke="#63b8ff" d="M311.13,-66C303.22,-66 295.23,-66 287.47,-66"/>
<polygon fill="#63b8ff" stroke="#63b8ff" points="311.11,-69.5 321.11,-66 311.11,-62.5 311.11,-69.5"/>
</a>
</g>
</g>
<!-- Node4 -->
<g id="Node000004" class="node">
<title>Node4</title>
<g id="a_Node000004"><a xlink:href="class_pipeline_reception_worker.html#aa7a9a74adca175b92d629d36cd7329a7" target="_top" xlink:title="Start the reception worker thread.">
<polygon fill="white" stroke="#666666" points="125.5,-82 0,-82 0,-50 125.5,-50 125.5,-82"/>
<text xml:space="preserve" text-anchor="start" x="8" y="-68.5" font-family="Helvetica,sans-Serif" font-size="10.00">PipelineReceptionWorker</text>
<text xml:space="preserve" text-anchor="middle" x="62.75" y="-56.5" font-family="Helvetica,sans-Serif" font-size="10.00">::start</text>
</a>
</g>
</g>
<!-- Node3&#45;&gt;Node4 -->
<g id="edge3_Node000003_Node000004" class="edge">
<title>Node3&#45;&gt;Node4</title>
<g id="a_edge3_Node000003_Node000004"><a xlink:title=" ">
<path fill="none" stroke="#63b8ff" d="M149.63,-66C141.72,-66 133.73,-66 125.97,-66"/>
<polygon fill="#63b8ff" stroke="#63b8ff" points="149.61,-69.5 159.61,-66 149.61,-62.5 149.61,-69.5"/>
</a>
</g>
</g>
</g>
</svg>
