<?xml version="1.0" encoding="UTF-8" standalone="no"?>
<!DOCTYPE svg PUBLIC "-//W3C//DTD SVG 1.1//EN"
 "http://www.w3.org/Graphics/SVG/1.1/DTD/svg11.dtd">
<!-- Generated by graphviz version 14.1.1 (20251213.1925)
 -->
<!-- Title: PipelineReceptionWorker::start Pages: 1 -->
<svg width="618pt" height="90pt"
 viewBox="0.00 0.00 618.00 90.00" xmlns="http://www.w3.org/2000/svg" xmlns:xlink="http://www.w3.org/1999/xlink">
<g id="graph0" class="graph" transform="scale(1 1) rotate(0) translate(4 86)">
<title>PipelineReceptionWorker::start</title>
<!-- Node1 -->
<g id="Node000001" class="node">
<title>Node1</title>
<g id="a_Node000001"><a xlink:title="Start the reception worker thread.">
<polygon fill="#999999" stroke="#666666" points="125.5,-57 0,-57 0,-25 125.5,-25 125.5,-57"/>
<text xml:space="preserve" text-anchor="start" x="8" y="-43.5" font-family="Helvetica,sans-Serif" font-size="10.00">PipelineReceptionWorker</text>
<text xml:space="preserve" text-anchor="middle" x="62.75" y="-31.5" font-family="Helvetica,sans-Serif" font-size="10.00">::start</text>
</a>
</g>
</g>
<!-- Node2 -->
<g id="Node000002" class="node">
<title>Node2</title>
<g id="a_Node000002"><a xlink:href="class_pipeline_reception_worker.html#ab14d5bb4804a5832c44af615fd377077" target="_top" xlink:title=" ">
<polygon fill="white" stroke="#666666" points="287,-57 161.5,-57 161.5,-25 287,-25 287,-57"/>
<text xml:space="preserve" text-anchor="start" x="169.5" y="-43.5" font-family="Helvetica,sans-Serif" font-size="10.00">PipelineReceptionWorker</text>
<text xml:space="preserve" text-anchor="middle" x="224.25" y="-31.5" font-family="Helvetica,sans-Serif" font-size="10.00">::runLoop</text>
</a>
</g>
</g>
<!-- Node1&#45;&gt;Node2 -->
<g id="edge1_Node000001_Node000002" class="edge">
<title>Node1&#45;&gt;Node2</title>
<g id="a_edge1_Node000001_Node000002"><a xlink:title=" ">
<path fill="none" stroke="#63b8ff" d="M125.87,-41C133.63,-41 141.62,-41 149.54,-41"/>
<polygon fill="#63b8ff" stroke="#63b8ff" points="149.52,-44.5 159.52,-41 149.52,-37.5 149.52,-44.5"/>
</a>
</g>
</g>
<!-- Node3 -->
<g id="Node000003" class="node">
<title>Node3</title>
<g id="a_Node000003"><a xlink:href="class_pipeline_reception_worker.html#a36e9f79b336784cb62214037b38879c1" target="_top" xlink:title="Execute a Telnet command via Command FSM with reconnection.">
<polygon fill="white" stroke="#666666" points="448.5,-57 323,-57 323,-25 448.5,-25 448.5,-57"/>
<text xml:space="preserve" text-anchor="start" x="331" y="-43.5" font-family="Helvetica,sans-Serif" font-size="10.00">PipelineReceptionWorker</text>
<text xml:space="preserve" text-anchor="middle" x="385.75" y="-31.5" font-family="Helvetica,sans-Serif" font-size="10.00">::executeCommand</text>
</a>
</g>
</g>
<!-- Node2&#45;&gt;Node3 -->
<g id="edge2_Node000002_Node000003" class="edge">
<title>Node2&#45;&gt;Node3</title>
<g id="a_edge2_Node000002_Node000003"><a xlink:title=" ">
<path fill="none" stroke="#63b8ff" d="M287.37,-41C295.13,-41 303.12,-41 311.04,-41"/>
<polygon fill="#63b8ff" stroke="#63b8ff" points="311.02,-44.5 321.02,-41 311.02,-37.5 311.02,-44.5"/>
</a>
</g>
</g>
<!-- Node4 -->
<g id="Node000004" class="node">
<title>Node4</title>
<g id="a_Node000004"><a xlink:href="class_pipeline_reception_worker.html#ab10a5e28319ccc25f868e5ce5dcd1a49" target="_top" xlink:title="Drive the RelayConnectionFSM to Operational state.">
<polygon fill="white" stroke="#666666" points="610,-82 484.5,-82 484.5,-50 610,-50 610,-82"/>
<text xml:space="preserve" text-anchor="start" x="492.5" y="-68.5" font-family="Helvetica,sans-Serif" font-size="10.00">PipelineReceptionWorker</text>
<text xml:space="preserve" text-anchor="middle" x="547.25" y="-56.5" font-family="Helvetica,sans-Serif" font-size="10.00">::driveToOperational</text>
</a>
</g>
</g>
<!-- Node3&#45;&gt;Node4 -->
<g id="edge3_Node000003_Node000004" class="edge">
<title>Node3&#45;&gt;Node4</title>
<g id="a_edge3_Node000003_Node000004"><a xlink:title=" ">
<path fill="none" stroke="#63b8ff" d="M448.87,-50.74C456.72,-51.97 464.81,-53.23 472.81,-54.49"/>
<polygon fill="#63b8ff" stroke="#63b8ff" points="472.12,-57.92 482.54,-56.01 473.2,-51.01 472.12,-57.92"/>
</a>
</g>
</g>
<!-- Node5 -->
<g id="Node000005" class="node">
<title>Node5</title>
<g id="a_Node000005"><a xlink:href="class_pipeline_reception_worker.html#af350352d2c354e4fbab12906ce9b8228" target="_top" xlink:title="Parse a command string and fire the corresponding Command FSM event.">
<polygon fill="white" stroke="#666666" points="610,-32 484.5,-32 484.5,0 610,0 610,-32"/>
<text xml:space="preserve" text-anchor="start" x="492.5" y="-18.5" font-family="Helvetica,sans-Serif" font-size="10.00">PipelineReceptionWorker</text>
<text xml:space="preserve" text-anchor="middle" x="547.25" y="-6.5" font-family="Helvetica,sans-Serif" font-size="10.00">::fireCommandEvent</text>
</a>
</g>
</g>
<!-- Node3&#45;&gt;Node5 -->
<g id="edge4_Node000003_Node000005" class="edge">
<title>Node3&#45;&gt;Node5</title>
<g id="a_edge4_Node000003_Node000005"><a xlink:title=" ">
<path fill="none" stroke="#63b8ff" d="M448.87,-31.26C456.72,-30.03 464.81,-28.77 472.81,-27.51"/>
<polygon fill="#63b8ff" stroke="#63b8ff" points="473.2,-30.99 482.54,-25.99 472.12,-24.08 473.2,-30.99"/>
</a>
</g>
</g>
</g>
</svg>
