<?xml version="1.0" encoding="UTF-8" standalone="no"?>
<!DOCTYPE svg PUBLIC "-//W3C//DTD SVG 1.1//EN"
 "http://www.w3.org/Graphics/SVG/1.1/DTD/svg11.dtd">
<!-- Generated by graphviz version 14.1.1 (20251213.1925)
 -->
<!-- Title: WebSocketSession Pages: 1 -->
<svg width="633pt" height="1523pt"
 viewBox="0.00 0.00 633.00 1523.00" xmlns="http://www.w3.org/2000/svg" xmlns:xlink="http://www.w3.org/1999/xlink">
<g id="graph0" class="graph" transform="scale(1 1) rotate(0) translate(4 1519)">
<title>WebSocketSession</title>
<!-- Node1 -->
<g id="Node000001" class="node">
<title>Node1</title>
<g id="a_Node000001"><a xlink:title="Handles a single WebSocket client connection.">
<polygon fill="#999999" stroke="none" points="412.38,-778 296.88,-778 296.88,-390 412.38,-390 412.38,-778"/>
<text xml:space="preserve" text-anchor="start" x="311.88" y="-764.5" font-family="Helvetica,sans-Serif" font-size="10.00">WebSocketSession</text>
<text xml:space="preserve" text-anchor="start" x="302.38" y="-748.5" font-family="Helvetica,sans-Serif" font-size="10.00">&#45;</text>
<text xml:space="preserve" text-anchor="start" x="310.88" y="-748.5" font-family="Helvetica,sans-Serif" font-size="10.00">ws_</text>
<text xml:space="preserve" text-anchor="start" x="302.38" y="-732.5" font-family="Helvetica,sans-Serif" font-size="10.00">&#45;</text>
<text xml:space="preserve" text-anchor="start" x="310.88" y="-732.5" font-family="Helvetica,sans-Serif" font-size="10.00">buffer_</text>
<text xml:space="preserve" text-anchor="start" x="302.38" y="-716.5" font-family="Helvetica,sans-Serif" font-size="10.00">&#45;</text>
<text xml:space="preserve" text-anchor="start" x="310.88" y="-716.5" font-family="Helvetica,sans-Serif" font-size="10.00">writing_</text>
<text xml:space="preserve" text-anchor="start" x="302.38" y="-700.5" font-family="Helvetica,sans-Serif" font-size="10.00">&#45;</text>
<text xml:space="preserve" text-anchor="start" x="310.88" y="-700.5" font-family="Helvetica,sans-Serif" font-size="10.00">pending_read_</text>
<text xml:space="preserve" text-anchor="start" x="302.38" y="-684.5" font-family="Helvetica,sans-Serif" font-size="10.00">&#45;</text>
<text xml:space="preserve" text-anchor="start" x="310.88" y="-684.5" font-family="Helvetica,sans-Serif" font-size="10.00">cmdHandler_</text>
<text xml:space="preserve" text-anchor="start" x="302.38" y="-668.5" font-family="Helvetica,sans-Serif" font-size="10.00">&#45;</text>
<text xml:space="preserve" text-anchor="start" x="310.88" y="-668.5" font-family="Helvetica,sans-Serif" font-size="10.00">actionHandler_</text>
<text xml:space="preserve" text-anchor="start" x="302.38" y="-652.5" font-family="Helvetica,sans-Serif" font-size="10.00">&#45;</text>
<text xml:space="preserve" text-anchor="start" x="310.88" y="-652.5" font-family="Helvetica,sans-Serif" font-size="10.00">streamCmdHandler_</text>
<text xml:space="preserve" text-anchor="start" x="300.88" y="-636.5" font-family="Helvetica,sans-Serif" font-size="10.00">+</text>
<text xml:space="preserve" text-anchor="start" x="310.88" y="-636.5" font-family="Helvetica,sans-Serif" font-size="10.00">WebSocketSession()</text>
<text xml:space="preserve" text-anchor="start" x="300.88" y="-620.5" font-family="Helvetica,sans-Serif" font-size="10.00">+</text>
<text xml:space="preserve" text-anchor="start" x="310.88" y="-620.5" font-family="Helvetica,sans-Serif" font-size="10.00">~WebSocketSession()</text>
<text xml:space="preserve" text-anchor="start" x="300.88" y="-604.5" font-family="Helvetica,sans-Serif" font-size="10.00">+</text>
<text xml:space="preserve" text-anchor="start" x="310.88" y="-604.5" font-family="Helvetica,sans-Serif" font-size="10.00">sendBroadcast()</text>
<text xml:space="preserve" text-anchor="start" x="300.88" y="-588.5" font-family="Helvetica,sans-Serif" font-size="10.00">+</text>
<text xml:space="preserve" text-anchor="start" x="310.88" y="-588.5" font-family="Helvetica,sans-Serif" font-size="10.00">sendTextBroadcast()</text>
<text xml:space="preserve" text-anchor="start" x="300.88" y="-572.5" font-family="Helvetica,sans-Serif" font-size="10.00">+</text>
<text xml:space="preserve" text-anchor="start" x="310.88" y="-572.5" font-family="Helvetica,sans-Serif" font-size="10.00">run()</text>
<text xml:space="preserve" text-anchor="start" x="302.38" y="-556.5" font-family="Helvetica,sans-Serif" font-size="10.00">&#45;</text>
<text xml:space="preserve" text-anchor="start" x="310.88" y="-556.5" font-family="Helvetica,sans-Serif" font-size="10.00">on_accept()</text>
<text xml:space="preserve" text-anchor="start" x="302.38" y="-540.5" font-family="Helvetica,sans-Serif" font-size="10.00">&#45;</text>
<text xml:space="preserve" text-anchor="start" x="310.88" y="-540.5" font-family="Helvetica,sans-Serif" font-size="10.00">do_broadcast()</text>
<text xml:space="preserve" text-anchor="start" x="302.38" y="-524.5" font-family="Helvetica,sans-Serif" font-size="10.00">&#45;</text>
<text xml:space="preserve" text-anchor="start" x="310.88" y="-524.5" font-family="Helvetica,sans-Serif" font-size="10.00">on_broadcast_write()</text>
<text xml:space="preserve" text-anchor="start" x="302.38" y="-508.5" font-family="Helvetica,sans-Serif" font-size="10.00">&#45;</text>
<text xml:space="preserve" text-anchor="start" x="310.88" y="-508.5" font-family="Helvetica,sans-Serif" font-size="10.00">drainQueue()</text>
<text xml:space="preserve" text-anchor="start" x="302.38" y="-492.5" font-family="Helvetica,sans-Serif" font-size="10.00">&#45;</text>
<text xml:space="preserve" text-anchor="start" x="310.88" y="-492.5" font-family="Helvetica,sans-Serif" font-size="10.00">do_read()</text>
<text xml:space="preserve" text-anchor="start" x="302.38" y="-476.5" font-family="Helvetica,sans-Serif" font-size="10.00">&#45;</text>
<text xml:space="preserve" text-anchor="start" x="310.88" y="-476.5" font-family="Helvetica,sans-Serif" font-size="10.00">on_read()</text>
<text xml:space="preserve" text-anchor="start" x="302.38" y="-460.5" font-family="Helvetica,sans-Serif" font-size="10.00">&#45;</text>
<text xml:space="preserve" text-anchor="start" x="310.88" y="-460.5" font-family="Helvetica,sans-Serif" font-size="10.00">sendData()</text>
<text xml:space="preserve" text-anchor="start" x="302.38" y="-444.5" font-family="Helvetica,sans-Serif" font-size="10.00">&#45;</text>
<text xml:space="preserve" text-anchor="start" x="310.88" y="-444.5" font-family="Helvetica,sans-Serif" font-size="10.00">on_write()</text>
<text xml:space="preserve" text-anchor="start" x="302.38" y="-428.5" font-family="Helvetica,sans-Serif" font-size="10.00">&#45;</text>
<text xml:space="preserve" text-anchor="start" x="310.88" y="-428.5" font-family="Helvetica,sans-Serif" font-size="10.00">sendTextResponse()</text>
<text xml:space="preserve" text-anchor="start" x="302.38" y="-412.5" font-family="Helvetica,sans-Serif" font-size="10.00">&#45;</text>
<text xml:space="preserve" text-anchor="start" x="310.88" y="-412.5" font-family="Helvetica,sans-Serif" font-size="10.00">isJsonAction()</text>
<text xml:space="preserve" text-anchor="start" x="302.38" y="-396.5" font-family="Helvetica,sans-Serif" font-size="10.00">&#45;</text>
<text xml:space="preserve" text-anchor="start" x="310.88" y="-396.5" font-family="Helvetica,sans-Serif" font-size="10.00">extractAction()</text>
<polygon fill="#666666" stroke="#666666" points="296.88,-760 296.88,-760 412.38,-760 412.38,-760 296.88,-760"/>
<polygon fill="#666666" stroke="#666666" points="296.88,-648 296.88,-648 308.88,-648 308.88,-648 296.88,-648"/>
<polygon fill="#666666" stroke="#666666" points="308.88,-648 308.88,-648 412.38,-648 412.38,-648 308.88,-648"/>
<polygon fill="none" stroke="#666666" points="296.88,-390 296.88,-778 412.38,-778 412.38,-390 296.88,-390"/>
</a>
</g>
</g>
<!-- Node9 -->
<g id="Node000009" class="node">
<title>Node9</title>
<g id="a_Node000009"><a xlink:title=" ">
<polygon fill="white" stroke="none" points="372.88,-336 240.38,-336 240.38,-272 372.88,-272 372.88,-336"/>
<text xml:space="preserve" text-anchor="start" x="244.38" y="-322.5" font-family="Helvetica,sans-Serif" font-size="10.00">std::shared_ptr&lt; WebSocket</text>
<text xml:space="preserve" text-anchor="start" x="284.5" y="-310.5" font-family="Helvetica,sans-Serif" font-size="10.00">Session &gt;</text>
<text xml:space="preserve" text-anchor="start" x="305.12" y="-294.5" font-family="Helvetica,sans-Serif" font-size="10.00"> </text>
<text xml:space="preserve" text-anchor="start" x="260.44" y="-278.5" font-family="Helvetica,sans-Serif" font-size="10.00">+</text>
<text xml:space="preserve" text-anchor="start" x="286.5" y="-278.5" font-family="Helvetica,sans-Serif" font-size="10.00">operator&#45;&gt;()</text>
<polygon fill="#666666" stroke="#666666" points="240.38,-306 240.38,-306 372.88,-306 372.88,-306 240.38,-306"/>
<polygon fill="#666666" stroke="#666666" points="240.38,-290 240.38,-290 372.88,-290 372.88,-290 240.38,-290"/>
<polygon fill="none" stroke="#666666" points="240.38,-272 240.38,-336 372.88,-336 372.88,-272 240.38,-272"/>
</a>
</g>
</g>
<!-- Node1&#45;&gt;Node9 -->
<g id="edge9_Node000009_Node000001" class="edge">
<title>Node1&#45;&gt;Node9</title>
<g id="a_edge9_Node000009_Node000001"><a xlink:title=" ">
<path fill="none" stroke="#63b8ff" d="M321.35,-390.3C318.71,-375 316.25,-360.73 314.12,-348.4"/>
<polygon fill="none" stroke="#63b8ff" points="314.14,-348.54 309.18,-343.31 312.1,-336.72 317.06,-341.95 314.14,-348.54"/>
</a>
</g>
<text xml:space="preserve" text-anchor="start" x="319.99" y="-359.5" font-family="Helvetica,sans-Serif" font-size="10.00" fill="grey">+ptr</text>
</g>
<!-- Node2 -->
<g id="Node000002" class="node">
<title>Node2</title>
<g id="a_Node000002"><a xlink:title=" ">
<polygon fill="white" stroke="none" points="157.25,-896 0,-896 0,-832 157.25,-832 157.25,-896"/>
<text xml:space="preserve" text-anchor="start" x="4" y="-882.5" font-family="Helvetica,sans-Serif" font-size="10.00">std::enable_shared</text>
<text xml:space="preserve" text-anchor="start" x="4" y="-870.5" font-family="Helvetica,sans-Serif" font-size="10.00">_from_this&lt; WebSocketSession &gt;</text>
<text xml:space="preserve" text-anchor="start" x="77.12" y="-854.5" font-family="Helvetica,sans-Serif" font-size="10.00"> </text>
<text xml:space="preserve" text-anchor="start" x="77.12" y="-838.5" font-family="Helvetica,sans-Serif" font-size="10.00"> </text>
<polygon fill="#666666" stroke="#666666" points="0,-866 0,-866 157.25,-866 157.25,-866 0,-866"/>
<polygon fill="#666666" stroke="#666666" points="0,-850 0,-850 157.25,-850 157.25,-850 0,-850"/>
<polygon fill="none" stroke="#666666" points="0,-832 0,-896 157.25,-896 157.25,-832 0,-832"/>
</a>
</g>
</g>
<!-- Node2&#45;&gt;Node1 -->
<g id="edge1_Node000001_Node000002" class="edge">
<title>Node2&#45;&gt;Node1</title>
<g id="a_edge1_Node000001_Node000002"><a xlink:title=" ">
<path fill="none" stroke="#63b8ff" d="M117.27,-824.07C163.99,-777.01 243.06,-697.37 296.99,-643.05"/>
<polygon fill="none" stroke="#63b8ff" points="114.84,-821.55 110.28,-831.11 119.81,-826.48 114.84,-821.55"/>
</a>
</g>
</g>
<!-- Node3 -->
<g id="Node000003" class="node">
<title>Node3</title>
<g id="a_Node000003"><a xlink:href="class_s_e_r_database.html" target="_top" xlink:title="SQLite database handler for storing and retrieving SER records.">
<polygon fill="white" stroke="none" points="624.62,-1222 486.62,-1222 486.62,-914 624.62,-914 624.62,-1222"/>
<text xml:space="preserve" text-anchor="start" x="524.12" y="-1208.5" font-family="Helvetica,sans-Serif" font-size="10.00">SERDatabase</text>
<text xml:space="preserve" text-anchor="start" x="492.12" y="-1192.5" font-family="Helvetica,sans-Serif" font-size="10.00">&#45;</text>
<text xml:space="preserve" text-anchor="start" x="500.62" y="-1192.5" font-family="Helvetica,sans-Serif" font-size="10.00">db_</text>
<text xml:space="preserve" text-anchor="start" x="490.62" y="-1176.5" font-family="Helvetica,sans-Serif" font-size="10.00">+</text>
<text xml:space="preserve" text-anchor="start" x="500.62" y="-1176.5" font-family="Helvetica,sans-Serif" font-size="10.00">SERDatabase()</text>
<text xml:space="preserve" text-anchor="start" x="490.62" y="-1160.5" font-family="Helvetica,sans-Serif" font-size="10.00">+</text>
<text xml:space="preserve" text-anchor="start" x="500.62" y="-1160.5" font-family="Helvetica,sans-Serif" font-size="10.00">~SERDatabase()</text>
<text xml:space="preserve" text-anchor="start" x="490.62" y="-1144.5" font-family="Helvetica,sans-Serif" font-size="10.00">+</text>
<text xml:space="preserve" text-anchor="start" x="500.62" y="-1144.5" font-family="Helvetica,sans-Serif" font-size="10.00">open()</text>
<text xml:space="preserve" text-anchor="start" x="490.62" y="-1128.5" font-family="Helvetica,sans-Serif" font-size="10.00">+</text>
<text xml:space="preserve" text-anchor="start" x="500.62" y="-1128.5" font-family="Helvetica,sans-Serif" font-size="10.00">close()</text>
<text xml:space="preserve" text-anchor="start" x="490.62" y="-1112.5" font-family="Helvetica,sans-Serif" font-size="10.00">+</text>
<text xml:space="preserve" text-anchor="start" x="500.62" y="-1112.5" font-family="Helvetica,sans-Serif" font-size="10.00">isOpen()</text>
<text xml:space="preserve" text-anchor="start" x="490.62" y="-1096.5" font-family="Helvetica,sans-Serif" font-size="10.00">+</text>
<text xml:space="preserve" text-anchor="start" x="500.62" y="-1096.5" font-family="Helvetica,sans-Serif" font-size="10.00">insertRecord()</text>
<text xml:space="preserve" text-anchor="start" x="490.62" y="-1080.5" font-family="Helvetica,sans-Serif" font-size="10.00">+</text>
<text xml:space="preserve" text-anchor="start" x="500.62" y="-1080.5" font-family="Helvetica,sans-Serif" font-size="10.00">insertRecords()</text>
<text xml:space="preserve" text-anchor="start" x="490.62" y="-1064.5" font-family="Helvetica,sans-Serif" font-size="10.00">+</text>
<text xml:space="preserve" text-anchor="start" x="500.62" y="-1064.5" font-family="Helvetica,sans-Serif" font-size="10.00">insertAndGetNewRecords()</text>
<text xml:space="preserve" text-anchor="start" x="490.62" y="-1048.5" font-family="Helvetica,sans-Serif" font-size="10.00">+</text>
<text xml:space="preserve" text-anchor="start" x="500.62" y="-1048.5" font-family="Helvetica,sans-Serif" font-size="10.00">getAllRecords()</text>
<text xml:space="preserve" text-anchor="start" x="490.62" y="-1032.5" font-family="Helvetica,sans-Serif" font-size="10.00">+</text>
<text xml:space="preserve" text-anchor="start" x="500.62" y="-1032.5" font-family="Helvetica,sans-Serif" font-size="10.00">getRecordsByStatus()</text>
<text xml:space="preserve" text-anchor="start" x="500.62" y="-1016.5" font-family="Helvetica,sans-Serif" font-size="10.00">and 6 more...</text>
<text xml:space="preserve" text-anchor="start" x="490.62" y="-1000.5" font-family="Helvetica,sans-Serif" font-size="10.00">+</text>
<text xml:space="preserve" text-anchor="start" x="500.62" y="-1000.5" font-family="Helvetica,sans-Serif" font-size="10.00">SERDatabase()</text>
<text xml:space="preserve" text-anchor="start" x="490.62" y="-984.5" font-family="Helvetica,sans-Serif" font-size="10.00">+</text>
<text xml:space="preserve" text-anchor="start" x="500.62" y="-984.5" font-family="Helvetica,sans-Serif" font-size="10.00">operator=()</text>
<text xml:space="preserve" text-anchor="start" x="492.12" y="-968.5" font-family="Helvetica,sans-Serif" font-size="10.00">&#45;</text>
<text xml:space="preserve" text-anchor="start" x="500.62" y="-968.5" font-family="Helvetica,sans-Serif" font-size="10.00">createTable()</text>
<text xml:space="preserve" text-anchor="start" x="492.12" y="-952.5" font-family="Helvetica,sans-Serif" font-size="10.00">&#45;</text>
<text xml:space="preserve" text-anchor="start" x="500.62" y="-952.5" font-family="Helvetica,sans-Serif" font-size="10.00">recordExists()</text>
<text xml:space="preserve" text-anchor="start" x="491.75" y="-936.5" font-family="Helvetica,sans-Serif" font-size="10.00">*</text>
<text xml:space="preserve" text-anchor="start" x="500.62" y="-936.5" font-family="Helvetica,sans-Serif" font-size="10.00">SERDatabase()</text>
<text xml:space="preserve" text-anchor="start" x="491.75" y="-920.5" font-family="Helvetica,sans-Serif" font-size="10.00">*</text>
<text xml:space="preserve" text-anchor="start" x="500.62" y="-920.5" font-family="Helvetica,sans-Serif" font-size="10.00">operator=()</text>
<polygon fill="#666666" stroke="#666666" points="486.62,-1204 486.62,-1204 624.62,-1204 624.62,-1204 486.62,-1204"/>
<polygon fill="#666666" stroke="#666666" points="486.62,-1188 486.62,-1188 498.62,-1188 498.62,-1188 486.62,-1188"/>
<polygon fill="#666666" stroke="#666666" points="498.62,-1188 498.62,-1188 624.62,-1188 624.62,-1188 498.62,-1188"/>
<polygon fill="none" stroke="#666666" points="486.62,-914 486.62,-1222 624.62,-1222 624.62,-914 486.62,-914"/>
</a>
</g>
</g>
<!-- Node3&#45;&gt;Node1 -->
<g id="edge2_Node000001_Node000003" class="edge">
<title>Node3&#45;&gt;Node1</title>
<g id="a_edge2_Node000001_Node000003"><a xlink:title=" ">
<path fill="none" stroke="#63b8ff" d="M486.77,-918.61C485.41,-917.05 484.03,-915.51 482.62,-914 471.57,-902.13 461.04,-908.64 450.88,-896 442.62,-885.74 427.61,-841.7 411.86,-789.84"/>
<polygon fill="none" stroke="#63b8ff" points="411.89,-789.95 406.33,-785.36 408.43,-778.46 413.99,-783.05 411.89,-789.95"/>
</a>
</g>
<text xml:space="preserve" text-anchor="start" x="453.88" y="-860.5" font-family="Helvetica,sans-Serif" font-size="10.00" fill="grey">&#45;db_</text>
</g>
<!-- Node4 -->
<g id="Node000004" class="node">
<title>Node4</title>
<g id="a_Node000004"><a xlink:title=" ">
<polygon fill="white" stroke="none" points="421.38,-1414 369.88,-1414 369.88,-1362 421.38,-1362 421.38,-1414"/>
<text xml:space="preserve" text-anchor="start" x="373.88" y="-1400.5" font-family="Helvetica,sans-Serif" font-size="10.00">std::string</text>
<text xml:space="preserve" text-anchor="start" x="394.12" y="-1384.5" font-family="Helvetica,sans-Serif" font-size="10.00"> </text>
<text xml:space="preserve" text-anchor="start" x="394.12" y="-1368.5" font-family="Helvetica,sans-Serif" font-size="10.00"> </text>
<polygon fill="#666666" stroke="#666666" points="369.88,-1396 369.88,-1396 421.38,-1396 421.38,-1396 369.88,-1396"/>
<polygon fill="#666666" stroke="#666666" points="369.88,-1380 369.88,-1380 421.38,-1380 421.38,-1380 369.88,-1380"/>
<polygon fill="none" stroke="#666666" points="369.88,-1362 369.88,-1414 421.38,-1414 421.38,-1362 369.88,-1362"/>
</a>
</g>
</g>
<!-- Node4&#45;&gt;Node1 -->
<g id="edge11_Node000001_Node000004" class="edge">
<title>Node4&#45;&gt;Node1</title>
<g id="a_edge11_Node000001_Node000004"><a xlink:title=" ">
<path fill="none" stroke="#63b8ff" d="M394.98,-1362.21C392.26,-1257.35 381.59,-852.96 377.62,-796 377.5,-794.23 377.37,-792.45 377.24,-790.66"/>
<polygon fill="none" stroke="#63b8ff" points="377.25,-790.7 372.8,-785.03 376.33,-778.74 380.78,-784.42 377.25,-790.7"/>
</a>
</g>
<text xml:space="preserve" text-anchor="start" x="394.25" y="-1064.5" font-family="Helvetica,sans-Serif" font-size="10.00" fill="grey">&#45;text_write_buffer_</text>
</g>
<!-- Node4&#45;&gt;Node3 -->
<g id="edge3_Node000003_Node000004" class="edge">
<title>Node4&#45;&gt;Node3</title>
<g id="a_edge3_Node000003_Node000004"><a xlink:title=" ">
<path fill="none" stroke="#63b8ff" d="M409.2,-1362C425.44,-1331.96 453.45,-1279.63 480.95,-1225.26"/>
<polygon fill="none" stroke="#63b8ff" points="481,-1225.15 480.13,-1217.99 486.4,-1214.43 487.28,-1221.59 481,-1225.15"/>
</a>
</g>
<text xml:space="preserve" text-anchor="start" x="438.93" y="-1331.5" font-family="Helvetica,sans-Serif" font-size="10.00" fill="grey">&#45;db_path_</text>
<text xml:space="preserve" text-anchor="start" x="438.93" y="-1315.5" font-family="Helvetica,sans-Serif" font-size="10.00" fill="grey">&#45;last_error_</text>
</g>
<!-- Node13 -->
<g id="Node000013" class="node">
<title>Node13</title>
<g id="a_Node000013"><a xlink:href="struct_web_socket_session_1_1_pending_msg.html" target="_top" xlink:title="Pending message: binary payload or text string, with mode flag.">
<polygon fill="white" stroke="none" points="367.38,-1292 213.88,-1292 213.88,-1240 367.38,-1240 367.38,-1292"/>
<text xml:space="preserve" text-anchor="start" x="217.88" y="-1278.5" font-family="Helvetica,sans-Serif" font-size="10.00">WebSocketSession::PendingMsg</text>
<text xml:space="preserve" text-anchor="start" x="247.25" y="-1262.5" font-family="Helvetica,sans-Serif" font-size="10.00">+</text>
<text xml:space="preserve" text-anchor="start" x="286.62" y="-1262.5" font-family="Helvetica,sans-Serif" font-size="10.00">kind</text>
<text xml:space="preserve" text-anchor="start" x="289.12" y="-1246.5" font-family="Helvetica,sans-Serif" font-size="10.00"> </text>
<polygon fill="#666666" stroke="#666666" points="213.88,-1274 213.88,-1274 367.38,-1274 367.38,-1274 213.88,-1274"/>
<polygon fill="#666666" stroke="#666666" points="213.88,-1258 213.88,-1258 284.62,-1258 284.62,-1258 213.88,-1258"/>
<polygon fill="#666666" stroke="#666666" points="284.62,-1258 284.62,-1258 367.38,-1258 367.38,-1258 284.62,-1258"/>
<polygon fill="none" stroke="#666666" points="213.88,-1240 213.88,-1292 367.38,-1292 367.38,-1240 213.88,-1240"/>
</a>
</g>
</g>
<!-- Node4&#45;&gt;Node13 -->
<g id="edge16_Node000013_Node000004" class="edge">
<title>Node4&#45;&gt;Node13</title>
<g id="a_edge16_Node000013_Node000004"><a xlink:title=" ">
<path fill="none" stroke="#63b8ff" d="M369.89,-1374.62C356.45,-1367.19 340.5,-1356.7 329.12,-1344 318.74,-1332.41 310.44,-1317.5 304.24,-1303.9"/>
<polygon fill="none" stroke="#63b8ff" points="304.19,-1303.78 298.16,-1299.83 299.49,-1292.74 305.52,-1296.7 304.19,-1303.78"/>
</a>
</g>
<text xml:space="preserve" text-anchor="start" x="332.12" y="-1323.5" font-family="Helvetica,sans-Serif" font-size="10.00" fill="grey">+text_data</text>
</g>
<!-- Node5 -->
<g id="Node000005" class="node">
<title>Node5</title>
<g id="a_Node000005"><a xlink:title=" ">
<polygon fill="white" stroke="none" points="438.62,-1515 352.62,-1515 352.62,-1451 438.62,-1451 438.62,-1515"/>
<text xml:space="preserve" text-anchor="start" x="356.62" y="-1501.5" font-family="Helvetica,sans-Serif" font-size="10.00">std::basic_string&lt;</text>
<text xml:space="preserve" text-anchor="start" x="379.12" y="-1489.5" font-family="Helvetica,sans-Serif" font-size="10.00"> Char &gt;</text>
<text xml:space="preserve" text-anchor="start" x="394.12" y="-1473.5" font-family="Helvetica,sans-Serif" font-size="10.00"> </text>
<text xml:space="preserve" text-anchor="start" x="394.12" y="-1457.5" font-family="Helvetica,sans-Serif" font-size="10.00"> </text>
<polygon fill="#666666" stroke="#666666" points="352.62,-1485 352.62,-1485 438.62,-1485 438.62,-1485 352.62,-1485"/>
<polygon fill="#666666" stroke="#666666" points="352.62,-1469 352.62,-1469 438.62,-1469 438.62,-1469 352.62,-1469"/>
<polygon fill="none" stroke="#666666" points="352.62,-1451 352.62,-1515 438.62,-1515 438.62,-1451 352.62,-1451"/>
</a>
</g>
</g>
<!-- Node5&#45;&gt;Node4 -->
<g id="edge4_Node000004_Node000005" class="edge">
<title>Node5&#45;&gt;Node4</title>
<g id="a_edge4_Node000004_Node000005"><a xlink:title=" ">
<path fill="none" stroke="#63b8ff" d="M395.62,-1439.69C395.62,-1430.89 395.62,-1421.89 395.62,-1413.96"/>
<polygon fill="none" stroke="#63b8ff" points="392.13,-1439.52 395.63,-1449.52 399.13,-1439.52 392.13,-1439.52"/>
</a>
</g>
</g>
<!-- Node6 -->
<g id="Node000006" class="node">
<title>Node6</title>
<g id="a_Node000006"><a xlink:href="class_session_manager.html" target="_top" xlink:title="Manages all active WebSocket sessions for broadcast.">
<polygon fill="white" stroke="none" points="345,-100 264.25,-100 264.25,0 345,0 345,-100"/>
<text xml:space="preserve" text-anchor="start" x="268.25" y="-86.5" font-family="Helvetica,sans-Serif" font-size="10.00">SessionManager</text>
<text xml:space="preserve" text-anchor="start" x="303.12" y="-70.5" font-family="Helvetica,sans-Serif" font-size="10.00"> </text>
<text xml:space="preserve" text-anchor="start" x="268.94" y="-54.5" font-family="Helvetica,sans-Serif" font-size="10.00">+</text>
<text xml:space="preserve" text-anchor="start" x="279.62" y="-54.5" font-family="Helvetica,sans-Serif" font-size="10.00">add()</text>
<text xml:space="preserve" text-anchor="start" x="268.94" y="-38.5" font-family="Helvetica,sans-Serif" font-size="10.00">+</text>
<text xml:space="preserve" text-anchor="start" x="279.62" y="-38.5" font-family="Helvetica,sans-Serif" font-size="10.00">remove()</text>
<text xml:space="preserve" text-anchor="start" x="268.94" y="-22.5" font-family="Helvetica,sans-Serif" font-size="10.00">+</text>
<text xml:space="preserve" text-anchor="start" x="279.62" y="-22.5" font-family="Helvetica,sans-Serif" font-size="10.00">getSessions()</text>
<text xml:space="preserve" text-anchor="start" x="268.94" y="-6.5" font-family="Helvetica,sans-Serif" font-size="10.00">+</text>
<text xml:space="preserve" text-anchor="start" x="279.62" y="-6.5" font-family="Helvetica,sans-Serif" font-size="10.00">count()</text>
<polygon fill="#666666" stroke="#666666" points="264.25,-82 264.25,-82 345,-82 345,-82 264.25,-82"/>
<polygon fill="#666666" stroke="#666666" points="264.25,-66 264.25,-66 345,-66 345,-66 264.25,-66"/>
<polygon fill="none" stroke="#666666" points="264.25,0 264.25,-100 345,-100 345,0 264.25,0"/>
</a>
</g>
</g>
<!-- Node6&#45;&gt;Node1 -->
<g id="edge5_Node000001_Node000006" class="edge">
<title>Node6&#45;&gt;Node1</title>
<g id="a_edge5_Node000001_Node000006"><a xlink:title=" ">
<path fill="none" stroke="#63b8ff" d="M344.68,-89.09C360.32,-107 376.07,-129.75 382.62,-154 401.9,-225.28 402.09,-305.54 395.07,-377.19"/>
<polygon fill="none" stroke="#63b8ff" points="395.08,-377.17 398.43,-383.56 393.83,-389.11 390.47,-382.72 395.08,-377.17"/>
</a>
</g>
<text xml:space="preserve" text-anchor="start" x="400.96" y="-241.5" font-family="Helvetica,sans-Serif" font-size="10.00" fill="grey">&#45;sessionMgr_</text>
</g>
<!-- Node7 -->
<g id="Node000007" class="node">
<title>Node7</title>
<g id="a_Node000007"><a xlink:title=" ">
<polygon fill="white" stroke="none" points="217.88,-212 163.38,-212 163.38,-160 217.88,-160 217.88,-212"/>
<text xml:space="preserve" text-anchor="start" x="167.38" y="-198.5" font-family="Helvetica,sans-Serif" font-size="10.00">std::mutex</text>
<text xml:space="preserve" text-anchor="start" x="189.12" y="-182.5" font-family="Helvetica,sans-Serif" font-size="10.00"> </text>
<text xml:space="preserve" text-anchor="start" x="189.12" y="-166.5" font-family="Helvetica,sans-Serif" font-size="10.00"> </text>
<polygon fill="#666666" stroke="#666666" points="163.38,-194 163.38,-194 217.88,-194 217.88,-194 163.38,-194"/>
<polygon fill="#666666" stroke="#666666" points="163.38,-178 163.38,-178 217.88,-178 217.88,-178 163.38,-178"/>
<polygon fill="none" stroke="#666666" points="163.38,-160 163.38,-212 217.88,-212 217.88,-160 163.38,-160"/>
</a>
</g>
</g>
<!-- Node7&#45;&gt;Node6 -->
<g id="edge6_Node000006_Node000007" class="edge">
<title>Node7&#45;&gt;Node6</title>
<g id="a_edge6_Node000006_Node000007"><a xlink:title=" ">
<path fill="none" stroke="#63b8ff" d="M211.8,-160.11C224.3,-145.42 240.66,-126.18 256.17,-107.96"/>
<polygon fill="none" stroke="#63b8ff" points="256.05,-108.09 256.89,-100.93 263.83,-98.95 262.99,-106.12 256.05,-108.09"/>
</a>
</g>
<text xml:space="preserve" text-anchor="start" x="250.62" y="-123.5" font-family="Helvetica,sans-Serif" font-size="10.00" fill="grey">&#45;mutex_</text>
</g>
<!-- Node8 -->
<g id="Node000008" class="node">
<title>Node8</title>
<g id="a_Node000008"><a xlink:title=" ">
<polygon fill="white" stroke="none" points="373.12,-218 236.12,-218 236.12,-154 373.12,-154 373.12,-218"/>
<text xml:space="preserve" text-anchor="start" x="240.12" y="-204.5" font-family="Helvetica,sans-Serif" font-size="10.00">std::set&lt; std::shared</text>
<text xml:space="preserve" text-anchor="start" x="240.12" y="-192.5" font-family="Helvetica,sans-Serif" font-size="10.00">_ptr&lt; WebSocketSession &gt; &gt;</text>
<text xml:space="preserve" text-anchor="start" x="303.12" y="-176.5" font-family="Helvetica,sans-Serif" font-size="10.00"> </text>
<text xml:space="preserve" text-anchor="start" x="303.12" y="-160.5" font-family="Helvetica,sans-Serif" font-size="10.00"> </text>
<polygon fill="#666666" stroke="#666666" points="236.12,-188 236.12,-188 373.12,-188 373.12,-188 236.12,-188"/>
<polygon fill="#666666" stroke="#666666" points="236.12,-172 236.12,-172 373.12,-172 373.12,-172 236.12,-172"/>
<polygon fill="none" stroke="#666666" points="236.12,-154 236.12,-218 373.12,-218 373.12,-154 236.12,-154"/>
</a>
</g>
</g>
<!-- Node8&#45;&gt;Node6 -->
<g id="edge7_Node000006_Node000008" class="edge">
<title>Node8&#45;&gt;Node6</title>
<g id="a_edge7_Node000006_Node000008"><a xlink:title=" ">
<path fill="none" stroke="#63b8ff" d="M304.62,-154.26C304.62,-141.95 304.62,-127.31 304.62,-112.98"/>
<polygon fill="none" stroke="#63b8ff" points="304.63,-112.88 300.63,-106.88 304.63,-100.88 308.63,-106.88 304.63,-112.88"/>
</a>
</g>
<text xml:space="preserve" text-anchor="start" x="307.62" y="-123.5" font-family="Helvetica,sans-Serif" font-size="10.00" fill="grey">&#45;sessions_</text>
</g>
<!-- Node9&#45;&gt;Node8 -->
<g id="edge8_Node000008_Node000009" class="edge">
<title>Node9&#45;&gt;Node8</title>
<g id="a_edge8_Node000008_Node000009"><a xlink:title=" ">
<path fill="none" stroke="#63b8ff" d="M306.09,-272.22C305.88,-259.5 305.62,-244.53 305.38,-230.71"/>
<polygon fill="none" stroke="#63b8ff" points="305.38,-230.82 301.28,-224.89 305.17,-218.83 309.28,-224.76 305.38,-230.82"/>
</a>
</g>
<text xml:space="preserve" text-anchor="start" x="308.74" y="-241.5" font-family="Helvetica,sans-Serif" font-size="10.00" fill="grey">+keys</text>
</g>
<!-- Node10 -->
<g id="Node000010" class="node">
<title>Node10</title>
<g id="a_Node000010"><a xlink:title=" ">
<polygon fill="white" stroke="none" points="256.5,-1414 154.75,-1414 154.75,-1362 256.5,-1362 256.5,-1414"/>
<text xml:space="preserve" text-anchor="start" x="158.75" y="-1400.5" font-family="Helvetica,sans-Serif" font-size="10.00">std::vector&lt; uint8_t &gt;</text>
<text xml:space="preserve" text-anchor="start" x="169.75" y="-1384.5" font-family="Helvetica,sans-Serif" font-size="10.00">+</text>
<text xml:space="preserve" text-anchor="start" x="190.75" y="-1384.5" font-family="Helvetica,sans-Serif" font-size="10.00">elements</text>
<text xml:space="preserve" text-anchor="start" x="204.12" y="-1368.5" font-family="Helvetica,sans-Serif" font-size="10.00"> </text>
<polygon fill="#666666" stroke="#666666" points="154.75,-1396 154.75,-1396 256.5,-1396 256.5,-1396 154.75,-1396"/>
<polygon fill="#666666" stroke="#666666" points="154.75,-1380 154.75,-1380 188.75,-1380 188.75,-1380 154.75,-1380"/>
<polygon fill="#666666" stroke="#666666" points="188.75,-1380 188.75,-1380 256.5,-1380 256.5,-1380 188.75,-1380"/>
<polygon fill="none" stroke="#666666" points="154.75,-1362 154.75,-1414 256.5,-1414 256.5,-1362 154.75,-1362"/>
</a>
</g>
</g>
<!-- Node10&#45;&gt;Node1 -->
<g id="edge10_Node000001_Node000010" class="edge">
<title>Node10&#45;&gt;Node1</title>
<g id="a_edge10_Node000001_Node000010"><a xlink:title=" ">
<path fill="none" stroke="#63b8ff" d="M200.49,-1362.02C185.17,-1282.13 144.8,-1026.66 210.62,-832 229.24,-776.94 260.96,-720.57 289.89,-675.61"/>
<polygon fill="none" stroke="#63b8ff" points="289.94,-675.54 289.86,-668.33 296.49,-665.49 296.57,-672.7 289.94,-675.54"/>
</a>
</g>
<text xml:space="preserve" text-anchor="start" x="192.04" y="-1072.5" font-family="Helvetica,sans-Serif" font-size="10.00" fill="grey">&#45;broadcast_buffer_</text>
<text xml:space="preserve" text-anchor="start" x="192.04" y="-1056.5" font-family="Helvetica,sans-Serif" font-size="10.00" fill="grey">&#45;write_buffer_</text>
</g>
<!-- Node10&#45;&gt;Node13 -->
<g id="edge15_Node000013_Node000010" class="edge">
<title>Node10&#45;&gt;Node13</title>
<g id="a_edge15_Node000013_Node000010"><a xlink:title=" ">
<path fill="none" stroke="#63b8ff" d="M209.82,-1362.29C213.48,-1346.22 220.04,-1325.46 231.38,-1310 233.82,-1306.67 236.6,-1303.49 239.58,-1300.48"/>
<polygon fill="none" stroke="#63b8ff" points="239.46,-1300.59 241.25,-1293.61 248.38,-1292.57 246.6,-1299.56 239.46,-1300.59"/>
</a>
</g>
<text xml:space="preserve" text-anchor="start" x="234.38" y="-1323.5" font-family="Helvetica,sans-Serif" font-size="10.00" fill="grey">+binary_data</text>
</g>
<!-- Node11 -->
<g id="Node000011" class="node">
<title>Node11</title>
<g id="a_Node000011"><a xlink:title=" ">
<polygon fill="white" stroke="none" points="577,-890 484.25,-890 484.25,-838 577,-838 577,-890"/>
<text xml:space="preserve" text-anchor="start" x="488.25" y="-876.5" font-family="Helvetica,sans-Serif" font-size="10.00">std::atomic&lt; bool &gt;</text>
<text xml:space="preserve" text-anchor="start" x="504.12" y="-860.5" font-family="Helvetica,sans-Serif" font-size="10.00">+</text>
<text xml:space="preserve" text-anchor="start" x="530" y="-860.5" font-family="Helvetica,sans-Serif" font-size="10.00">ptr</text>
<text xml:space="preserve" text-anchor="start" x="529.12" y="-844.5" font-family="Helvetica,sans-Serif" font-size="10.00"> </text>
<polygon fill="#666666" stroke="#666666" points="484.25,-872 484.25,-872 577,-872 577,-872 484.25,-872"/>
<polygon fill="#666666" stroke="#666666" points="484.25,-856 484.25,-856 528,-856 528,-856 484.25,-856"/>
<polygon fill="#666666" stroke="#666666" points="528,-856 528,-856 577,-856 577,-856 528,-856"/>
<polygon fill="none" stroke="#666666" points="484.25,-838 484.25,-890 577,-890 577,-838 484.25,-838"/>
</a>
</g>
</g>
<!-- Node11&#45;&gt;Node1 -->
<g id="edge12_Node000001_Node000011" class="edge">
<title>Node11&#45;&gt;Node1</title>
<g id="a_edge12_Node000001_Node000011"><a xlink:title=" ">
<path fill="none" stroke="#63b8ff" d="M515.01,-838.33C493.55,-804.44 453.69,-741.47 419.07,-686.79"/>
<polygon fill="none" stroke="#63b8ff" points="419.12,-686.88 412.54,-683.95 412.71,-676.74 419.29,-679.67 419.12,-686.88"/>
</a>
</g>
<text xml:space="preserve" text-anchor="start" x="499.96" y="-801.5" font-family="Helvetica,sans-Serif" font-size="10.00" fill="grey">&#45;streaming_abort_</text>
</g>
<!-- Node12 -->
<g id="Node000012" class="node">
<title>Node12</title>
<g id="a_Node000012"><a xlink:title=" ">
<polygon fill="white" stroke="none" points="367.75,-896 219.5,-896 219.5,-832 367.75,-832 367.75,-896"/>
<text xml:space="preserve" text-anchor="start" x="223.5" y="-882.5" font-family="Helvetica,sans-Serif" font-size="10.00">std::deque&lt; WebSocketSession</text>
<text xml:space="preserve" text-anchor="start" x="259.12" y="-870.5" font-family="Helvetica,sans-Serif" font-size="10.00">::PendingMsg &gt;</text>
<text xml:space="preserve" text-anchor="start" x="292.12" y="-854.5" font-family="Helvetica,sans-Serif" font-size="10.00"> </text>
<text xml:space="preserve" text-anchor="start" x="292.12" y="-838.5" font-family="Helvetica,sans-Serif" font-size="10.00"> </text>
<polygon fill="#666666" stroke="#666666" points="219.5,-866 219.5,-866 367.75,-866 367.75,-866 219.5,-866"/>
<polygon fill="#666666" stroke="#666666" points="219.5,-850 219.5,-850 367.75,-850 367.75,-850 219.5,-850"/>
<polygon fill="none" stroke="#666666" points="219.5,-832 219.5,-896 367.75,-896 367.75,-832 219.5,-832"/>
</a>
</g>
</g>
<!-- Node12&#45;&gt;Node1 -->
<g id="edge13_Node000001_Node000012" class="edge">
<title>Node12&#45;&gt;Node1</title>
<g id="a_edge13_Node000001_Node000012"><a xlink:title=" ">
<path fill="none" stroke="#63b8ff" d="M300.39,-832.19C302.96,-820.47 306.12,-806.07 309.61,-790.16"/>
<polygon fill="none" stroke="#63b8ff" points="309.57,-790.33 306.95,-783.61 312.14,-778.61 314.76,-785.32 309.57,-790.33"/>
</a>
</g>
<text xml:space="preserve" text-anchor="start" x="309.8" y="-801.5" font-family="Helvetica,sans-Serif" font-size="10.00" fill="grey">&#45;write_queue_</text>
</g>
<!-- Node13&#45;&gt;Node12 -->
<g id="edge14_Node000012_Node000013" class="edge">
<title>Node13&#45;&gt;Node12</title>
<g id="a_edge14_Node000012_Node000013"><a xlink:title=" ">
<path fill="none" stroke="#63b8ff" d="M290.81,-1240.28C291.31,-1174.22 292.67,-992.91 293.3,-908.85"/>
<polygon fill="none" stroke="#63b8ff" points="293.3,-908.9 289.34,-902.87 293.39,-896.9 297.34,-902.93 293.3,-908.9"/>
</a>
</g>
<text xml:space="preserve" text-anchor="start" x="296.25" y="-1064.5" font-family="Helvetica,sans-Serif" font-size="10.00" fill="grey">+elements</text>
</g>
</g>
</svg>
