<?xml version="1.0" encoding="UTF-8" standalone="no"?>
<!DOCTYPE svg PUBLIC "-//W3C//DTD SVG 1.1//EN"
 "http://www.w3.org/Graphics/SVG/1.1/DTD/svg11.dtd">
<!-- Generated by graphviz version 14.1.2 (20260124.0452)
 -->
<!-- Title: WebSocketSession::sendTextResponse Pages: 1 -->
<svg width="1500pt" height="134pt"
 viewBox="0.00 0.00 1500.00 134.00" xmlns="http://www.w3.org/2000/svg" xmlns:xlink="http://www.w3.org/1999/xlink">
<g id="graph0" class="graph" transform="scale(1 1) rotate(0) translate(4 130)">
<title>WebSocketSession::sendTextResponse</title>
<!-- Node1 -->
<g id="Node000001" class="node">
<title>Node1</title>
<g id="a_Node000001"><a xlink:title="Send a plain text response to this client (for FIL DIR etc.)">
<polygon fill="#999999" stroke="#666666" points="147.25,-52 0,-52 0,-20 147.25,-20 147.25,-52"/>
<text xml:space="preserve" text-anchor="start" x="8" y="-38.5" font-family="Helvetica,sans-Serif" font-size="10.00">WebSocketSession::sendText</text>
<text xml:space="preserve" text-anchor="middle" x="73.62" y="-26.5" font-family="Helvetica,sans-Serif" font-size="10.00">Response</text>
</a>
</g>
</g>
<!-- Node2 -->
<g id="Node000002" class="node">
<title>Node2</title>
<g id="a_Node000002"><a xlink:href="class_web_socket_session.html#a0fed81151d5dcbe23dbee79f1bf12c66" target="_top" xlink:title="Handle write completion.">
<polygon fill="white" stroke="#666666" points="301.25,-52 183.25,-52 183.25,-20 301.25,-20 301.25,-52"/>
<text xml:space="preserve" text-anchor="start" x="191.25" y="-38.5" font-family="Helvetica,sans-Serif" font-size="10.00">WebSocketSession::on</text>
<text xml:space="preserve" text-anchor="middle" x="242.25" y="-26.5" font-family="Helvetica,sans-Serif" font-size="10.00">_write</text>
</a>
</g>
</g>
<!-- Node1&#45;&gt;Node2 -->
<g id="edge1_Node000001_Node000002" class="edge">
<title>Node1&#45;&gt;Node2</title>
<g id="a_edge1_Node000001_Node000002"><a xlink:title=" ">
<path fill="none" stroke="#63b8ff" d="M147.71,-36C155.64,-36 163.7,-36 171.59,-36"/>
<polygon fill="#63b8ff" stroke="#63b8ff" points="171.48,-39.5 181.48,-36 171.48,-32.5 171.48,-39.5"/>
</a>
</g>
</g>
<!-- Node3 -->
<g id="Node000003" class="node">
<title>Node3</title>
<g id="a_Node000003"><a xlink:href="class_web_socket_session.html#a2bc079950c2e39e8ff745f0da57646ba" target="_top" xlink:title="Initiate async read for next client message.">
<polygon fill="white" stroke="#666666" points="479.25,-68 337.25,-68 337.25,-48 479.25,-48 479.25,-68"/>
<text xml:space="preserve" text-anchor="middle" x="408.25" y="-54.5" font-family="Helvetica,sans-Serif" font-size="10.00">WebSocketSession::do_read</text>
</a>
</g>
</g>
<!-- Node2&#45;&gt;Node3 -->
<g id="edge2_Node000002_Node000003" class="edge">
<title>Node2&#45;&gt;Node3</title>
<g id="a_edge2_Node000002_Node000003"><a xlink:title=" ">
<path fill="none" stroke="#63b8ff" d="M301.53,-43.82C309.29,-44.86 317.36,-45.94 325.43,-47.02"/>
<polygon fill="#63b8ff" stroke="#63b8ff" points="324.92,-50.49 335.3,-48.35 325.85,-43.55 324.92,-50.49"/>
</a>
</g>
</g>
<!-- Node4 -->
<g id="Node000004" class="node">
<title>Node4</title>
<g id="a_Node000004"><a xlink:href="class_web_socket_session.html#a6c0557f87f9f6050a8848237ace942bb" target="_top" xlink:title="Handle received client message.">
<polygon fill="white" stroke="#666666" points="657.25,-68 515.25,-68 515.25,-48 657.25,-48 657.25,-68"/>
<text xml:space="preserve" text-anchor="middle" x="586.25" y="-54.5" font-family="Helvetica,sans-Serif" font-size="10.00">WebSocketSession::on_read</text>
</a>
</g>
</g>
<!-- Node3&#45;&gt;Node4 -->
<g id="edge3_Node000003_Node000004" class="edge">
<title>Node3&#45;&gt;Node4</title>
<g id="a_edge3_Node000003_Node000004"><a xlink:title=" ">
<path fill="none" stroke="#63b8ff" d="M479.57,-51.37C487.44,-51.26 495.51,-51.23 503.52,-51.27"/>
<polygon fill="#63b8ff" stroke="#63b8ff" points="503.21,-54.76 513.24,-51.36 503.28,-47.76 503.21,-54.76"/>
</a>
</g>
</g>
<!-- Node4&#45;&gt;Node3 -->
<g id="edge4_Node000004_Node000003" class="edge">
<title>Node4&#45;&gt;Node3</title>
<g id="a_edge4_Node000004_Node000003"><a xlink:title=" ">
<path fill="none" stroke="#63b8ff" d="M514.76,-64.63C506.97,-64.74 498.99,-64.77 491.08,-64.74"/>
<polygon fill="#63b8ff" stroke="#63b8ff" points="491.11,-61.24 481.08,-64.64 491.05,-68.24 491.11,-61.24"/>
</a>
</g>
</g>
<!-- Node5 -->
<g id="Node000005" class="node">
<title>Node5</title>
<g id="a_Node000005"><a xlink:href="class_web_socket_session.html#a43bf9b3aa8c9ed23d031c7ae8059da22" target="_top" xlink:title="Extract the &quot;action&quot; value from a simple JSON object.">
<polygon fill="white" stroke="#666666" points="836.75,-126 699.25,-126 699.25,-94 836.75,-94 836.75,-126"/>
<text xml:space="preserve" text-anchor="start" x="707.25" y="-112.5" font-family="Helvetica,sans-Serif" font-size="10.00">WebSocketSession::extract</text>
<text xml:space="preserve" text-anchor="middle" x="768" y="-100.5" font-family="Helvetica,sans-Serif" font-size="10.00">Action</text>
</a>
</g>
</g>
<!-- Node4&#45;&gt;Node5 -->
<g id="edge5_Node000004_Node000005" class="edge">
<title>Node4&#45;&gt;Node5</title>
<g id="a_edge5_Node000004_Node000005"><a xlink:title=" ">
<path fill="none" stroke="#63b8ff" d="M623.19,-68.4C644.98,-74.7 673.47,-82.94 699.34,-90.43"/>
<polygon fill="#63b8ff" stroke="#63b8ff" points="698.21,-93.74 708.79,-93.16 700.15,-87.02 698.21,-93.74"/>
</a>
</g>
</g>
<!-- Node6 -->
<g id="Node000006" class="node">
<title>Node6</title>
<g id="a_Node000006"><a xlink:href="class_web_socket_session.html#a606e227b631d765ac0191c0535df607f" target="_top" xlink:title="Check if a message is a JSON action (contains &quot;action&quot; key).">
<polygon fill="white" stroke="#666666" points="836,-76 700,-76 700,-44 836,-44 836,-76"/>
<text xml:space="preserve" text-anchor="start" x="708" y="-62.5" font-family="Helvetica,sans-Serif" font-size="10.00">WebSocketSession::isJson</text>
<text xml:space="preserve" text-anchor="middle" x="768" y="-50.5" font-family="Helvetica,sans-Serif" font-size="10.00">Action</text>
</a>
</g>
</g>
<!-- Node4&#45;&gt;Node6 -->
<g id="edge6_Node000004_Node000006" class="edge">
<title>Node4&#45;&gt;Node6</title>
<g id="a_edge6_Node000004_Node000006"><a xlink:title=" ">
<path fill="none" stroke="#63b8ff" d="M657.52,-58.78C667.61,-58.89 678.04,-59.01 688.28,-59.12"/>
<polygon fill="#63b8ff" stroke="#63b8ff" points="688.17,-62.62 698.21,-59.23 688.25,-55.62 688.17,-62.62"/>
</a>
</g>
</g>
<!-- Node7 -->
<g id="Node000007" class="node">
<title>Node7</title>
<g id="a_Node000007"><a xlink:href="class_web_socket_session.html#a2529887f34770366fc2c225bd085edba" target="_top" xlink:title="Send current database records to client as JSON.">
<polygon fill="white" stroke="#666666" points="842.75,-26 693.25,-26 693.25,-6 842.75,-6 842.75,-26"/>
<text xml:space="preserve" text-anchor="middle" x="768" y="-12.5" font-family="Helvetica,sans-Serif" font-size="10.00">WebSocketSession::sendData</text>
</a>
</g>
</g>
<!-- Node4&#45;&gt;Node7 -->
<g id="edge7_Node000004_Node000007" class="edge">
<title>Node4&#45;&gt;Node7</title>
<g id="a_edge7_Node000004_Node000007"><a xlink:title=" ">
<path fill="none" stroke="#63b8ff" d="M632.14,-47.51C656.15,-41.9 685.92,-34.94 711.38,-29"/>
<polygon fill="#63b8ff" stroke="#63b8ff" points="711.95,-32.46 720.89,-26.77 710.36,-25.64 711.95,-32.46"/>
</a>
</g>
</g>
<!-- Node7&#45;&gt;Node2 -->
<g id="edge13_Node000007_Node000002" class="edge">
<title>Node7&#45;&gt;Node2</title>
<g id="a_edge13_Node000007_Node000002"><a xlink:title=" ">
<path fill="none" stroke="#63b8ff" d="M692.79,-18.83C591.6,-22.7 411.65,-29.57 312.89,-33.34"/>
<polygon fill="#63b8ff" stroke="#63b8ff" points="312.93,-29.84 303.07,-33.72 313.19,-36.83 312.93,-29.84"/>
</a>
</g>
</g>
<!-- Node8 -->
<g id="Node000008" class="node">
<title>Node8</title>
<g id="a_Node000008"><a xlink:href="namespaceasn__tlv.html#a03c61eaf7c30d4bb4e8f50d6cd2f5f03" target="_top" xlink:title="Encode SER records to ASN.1 BER/TLV format.">
<polygon fill="white" stroke="#666666" points="1015.5,-32 878.75,-32 878.75,0 1015.5,0 1015.5,-32"/>
<text xml:space="preserve" text-anchor="start" x="886.75" y="-18.5" font-family="Helvetica,sans-Serif" font-size="10.00">asn_tlv::encodeSerRecords</text>
<text xml:space="preserve" text-anchor="middle" x="947.12" y="-6.5" font-family="Helvetica,sans-Serif" font-size="10.00">ToTlv</text>
</a>
</g>
</g>
<!-- Node7&#45;&gt;Node8 -->
<g id="edge8_Node000007_Node000008" class="edge">
<title>Node7&#45;&gt;Node8</title>
<g id="a_edge8_Node000007_Node000008"><a xlink:title=" ">
<path fill="none" stroke="#63b8ff" d="M843.09,-16C850.92,-16 858.91,-16 866.8,-16"/>
<polygon fill="#63b8ff" stroke="#63b8ff" points="866.75,-19.5 876.75,-16 866.75,-12.5 866.75,-19.5"/>
</a>
</g>
</g>
<!-- Node9 -->
<g id="Node000009" class="node">
<title>Node9</title>
<g id="a_Node000009"><a xlink:href="namespaceasn__tlv.html#a0cc9af3d4e8aba5f164c66bb47750767" target="_top" xlink:title="Append a string as a TLV structure.">
<polygon fill="white" stroke="#666666" points="1177,-45 1051.5,-45 1051.5,-25 1177,-25 1177,-45"/>
<text xml:space="preserve" text-anchor="middle" x="1114.25" y="-31.5" font-family="Helvetica,sans-Serif" font-size="10.00">asn_tlv::berAppendString</text>
</a>
</g>
</g>
<!-- Node8&#45;&gt;Node9 -->
<g id="edge9_Node000008_Node000009" class="edge">
<title>Node8&#45;&gt;Node9</title>
<g id="a_edge9_Node000008_Node000009"><a xlink:title=" ">
<path fill="none" stroke="#63b8ff" d="M1015.76,-23.78C1023.69,-24.7 1031.81,-25.63 1039.82,-26.55"/>
<polygon fill="#63b8ff" stroke="#63b8ff" points="1039.19,-30 1049.52,-27.67 1039.99,-23.05 1039.19,-30"/>
</a>
</g>
</g>
<!-- Node10 -->
<g id="Node000010" class="node">
<title>Node10</title>
<g id="a_Node000010"><a xlink:href="namespaceasn__tlv.html#a4a9f3333d71c851f9002020ffd417b18" target="_top" xlink:title="Append a complete TLV structure to an output buffer.">
<polygon fill="white" stroke="#666666" points="1326.5,-26 1213,-26 1213,-6 1326.5,-6 1326.5,-26"/>
<text xml:space="preserve" text-anchor="middle" x="1269.75" y="-12.5" font-family="Helvetica,sans-Serif" font-size="10.00">asn_tlv::berAppendTlv</text>
</a>
</g>
</g>
<!-- Node8&#45;&gt;Node10 -->
<g id="edge12_Node000008_Node000010" class="edge">
<title>Node8&#45;&gt;Node10</title>
<g id="a_edge12_Node000008_Node000010"><a xlink:title=" ">
<path fill="none" stroke="#63b8ff" d="M1015.73,-16C1070.36,-16 1146.88,-16 1201.43,-16"/>
<polygon fill="#63b8ff" stroke="#63b8ff" points="1201.21,-19.5 1211.21,-16 1201.21,-12.5 1201.21,-19.5"/>
</a>
</g>
</g>
<!-- Node9&#45;&gt;Node10 -->
<g id="edge10_Node000009_Node000010" class="edge">
<title>Node9&#45;&gt;Node10</title>
<g id="a_edge10_Node000009_Node000010"><a xlink:title=" ">
<path fill="none" stroke="#63b8ff" d="M1177.24,-27.33C1185.27,-26.33 1193.53,-25.31 1201.64,-24.31"/>
<polygon fill="#63b8ff" stroke="#63b8ff" points="1201.97,-27.79 1211.46,-23.09 1201.11,-20.85 1201.97,-27.79"/>
</a>
</g>
</g>
<!-- Node11 -->
<g id="Node000011" class="node">
<title>Node11</title>
<g id="a_Node000011"><a xlink:href="namespaceasn__tlv.html#af1ae5498c52c5e99d18f2cd5cb4f2609" target="_top" xlink:title="Append BER length encoding to an output buffer.">
<polygon fill="white" stroke="#666666" points="1491.75,-26 1362.5,-26 1362.5,-6 1491.75,-6 1491.75,-26"/>
<text xml:space="preserve" text-anchor="middle" x="1427.12" y="-12.5" font-family="Helvetica,sans-Serif" font-size="10.00">asn_tlv::berAppendLength</text>
</a>
</g>
</g>
<!-- Node10&#45;&gt;Node11 -->
<g id="edge11_Node000010_Node000011" class="edge">
<title>Node10&#45;&gt;Node11</title>
<g id="a_edge11_Node000010_Node000011"><a xlink:title=" ">
<path fill="none" stroke="#63b8ff" d="M1326.84,-16C1334.64,-16 1342.76,-16 1350.84,-16"/>
<polygon fill="#63b8ff" stroke="#63b8ff" points="1350.69,-19.5 1360.69,-16 1350.69,-12.5 1350.69,-19.5"/>
</a>
</g>
</g>
</g>
</svg>
