<?xml version="1.0" encoding="UTF-8" standalone="no"?>
<!DOCTYPE svg PUBLIC "-//W3C//DTD SVG 1.1//EN"
 "http://www.w3.org/Graphics/SVG/1.1/DTD/svg11.dtd">
<!-- Generated by graphviz version 14.1.1 (20251213.1925)
 -->
<!-- Title: DatabaseWriter Pages: 1 -->
<svg width="505pt" height="1163pt"
 viewBox="0.00 0.00 505.00 1163.00" xmlns="http://www.w3.org/2000/svg" xmlns:xlink="http://www.w3.org/1999/xlink">
<g id="graph0" class="graph" transform="scale(1 1) rotate(0) translate(4 1159)">
<title>DatabaseWriter</title>
<!-- Node1 -->
<g id="Node000001" class="node">
<title>Node1</title>
<g id="a_Node000001"><a xlink:title="Asynchronous database writer thread.">
<polygon fill="#999999" stroke="none" points="287.25,-164 180.75,-164 180.75,0 287.25,0 287.25,-164"/>
<text xml:space="preserve" text-anchor="start" x="200.25" y="-150.5" font-family="Helvetica,sans-Serif" font-size="10.00">DatabaseWriter</text>
<text xml:space="preserve" text-anchor="start" x="232.5" y="-134.5" font-family="Helvetica,sans-Serif" font-size="10.00"> </text>
<text xml:space="preserve" text-anchor="start" x="184.75" y="-118.5" font-family="Helvetica,sans-Serif" font-size="10.00">+</text>
<text xml:space="preserve" text-anchor="start" x="194.75" y="-118.5" font-family="Helvetica,sans-Serif" font-size="10.00">DatabaseWriter()</text>
<text xml:space="preserve" text-anchor="start" x="184.75" y="-102.5" font-family="Helvetica,sans-Serif" font-size="10.00">+</text>
<text xml:space="preserve" text-anchor="start" x="194.75" y="-102.5" font-family="Helvetica,sans-Serif" font-size="10.00">~DatabaseWriter()</text>
<text xml:space="preserve" text-anchor="start" x="184.75" y="-86.5" font-family="Helvetica,sans-Serif" font-size="10.00">+</text>
<text xml:space="preserve" text-anchor="start" x="194.75" y="-86.5" font-family="Helvetica,sans-Serif" font-size="10.00">start()</text>
<text xml:space="preserve" text-anchor="start" x="184.75" y="-70.5" font-family="Helvetica,sans-Serif" font-size="10.00">+</text>
<text xml:space="preserve" text-anchor="start" x="194.75" y="-70.5" font-family="Helvetica,sans-Serif" font-size="10.00">stop()</text>
<text xml:space="preserve" text-anchor="start" x="184.75" y="-54.5" font-family="Helvetica,sans-Serif" font-size="10.00">+</text>
<text xml:space="preserve" text-anchor="start" x="194.75" y="-54.5" font-family="Helvetica,sans-Serif" font-size="10.00">queueRecord()</text>
<text xml:space="preserve" text-anchor="start" x="184.75" y="-38.5" font-family="Helvetica,sans-Serif" font-size="10.00">+</text>
<text xml:space="preserve" text-anchor="start" x="194.75" y="-38.5" font-family="Helvetica,sans-Serif" font-size="10.00">queueRecords()</text>
<text xml:space="preserve" text-anchor="start" x="184.75" y="-22.5" font-family="Helvetica,sans-Serif" font-size="10.00">+</text>
<text xml:space="preserve" text-anchor="start" x="194.75" y="-22.5" font-family="Helvetica,sans-Serif" font-size="10.00">getDatabaseMutex()</text>
<text xml:space="preserve" text-anchor="start" x="184.75" y="-6.5" font-family="Helvetica,sans-Serif" font-size="10.00">+</text>
<text xml:space="preserve" text-anchor="start" x="194.75" y="-6.5" font-family="Helvetica,sans-Serif" font-size="10.00">pendingWrites()</text>
<polygon fill="#666666" stroke="#666666" points="180.75,-146 180.75,-146 287.25,-146 287.25,-146 180.75,-146"/>
<polygon fill="#666666" stroke="#666666" points="180.75,-130 180.75,-130 287.25,-130 287.25,-130 180.75,-130"/>
<polygon fill="none" stroke="#666666" points="180.75,0 180.75,-164 287.25,-164 287.25,0 180.75,0"/>
</a>
</g>
</g>
<!-- Node2 -->
<g id="Node000002" class="node">
<title>Node2</title>
<g id="a_Node000002"><a xlink:href="class_s_e_r_database.html" target="_top" xlink:title="SQLite database handler for storing and retrieving SER records.">
<polygon fill="white" stroke="none" points="138,-766 0,-766 0,-458 138,-458 138,-766"/>
<text xml:space="preserve" text-anchor="start" x="37.5" y="-752.5" font-family="Helvetica,sans-Serif" font-size="10.00">SERDatabase</text>
<text xml:space="preserve" text-anchor="start" x="5.5" y="-736.5" font-family="Helvetica,sans-Serif" font-size="10.00">&#45;</text>
<text xml:space="preserve" text-anchor="start" x="14" y="-736.5" font-family="Helvetica,sans-Serif" font-size="10.00">db_</text>
<text xml:space="preserve" text-anchor="start" x="4" y="-720.5" font-family="Helvetica,sans-Serif" font-size="10.00">+</text>
<text xml:space="preserve" text-anchor="start" x="14" y="-720.5" font-family="Helvetica,sans-Serif" font-size="10.00">SERDatabase()</text>
<text xml:space="preserve" text-anchor="start" x="4" y="-704.5" font-family="Helvetica,sans-Serif" font-size="10.00">+</text>
<text xml:space="preserve" text-anchor="start" x="14" y="-704.5" font-family="Helvetica,sans-Serif" font-size="10.00">~SERDatabase()</text>
<text xml:space="preserve" text-anchor="start" x="4" y="-688.5" font-family="Helvetica,sans-Serif" font-size="10.00">+</text>
<text xml:space="preserve" text-anchor="start" x="14" y="-688.5" font-family="Helvetica,sans-Serif" font-size="10.00">open()</text>
<text xml:space="preserve" text-anchor="start" x="4" y="-672.5" font-family="Helvetica,sans-Serif" font-size="10.00">+</text>
<text xml:space="preserve" text-anchor="start" x="14" y="-672.5" font-family="Helvetica,sans-Serif" font-size="10.00">close()</text>
<text xml:space="preserve" text-anchor="start" x="4" y="-656.5" font-family="Helvetica,sans-Serif" font-size="10.00">+</text>
<text xml:space="preserve" text-anchor="start" x="14" y="-656.5" font-family="Helvetica,sans-Serif" font-size="10.00">isOpen()</text>
<text xml:space="preserve" text-anchor="start" x="4" y="-640.5" font-family="Helvetica,sans-Serif" font-size="10.00">+</text>
<text xml:space="preserve" text-anchor="start" x="14" y="-640.5" font-family="Helvetica,sans-Serif" font-size="10.00">insertRecord()</text>
<text xml:space="preserve" text-anchor="start" x="4" y="-624.5" font-family="Helvetica,sans-Serif" font-size="10.00">+</text>
<text xml:space="preserve" text-anchor="start" x="14" y="-624.5" font-family="Helvetica,sans-Serif" font-size="10.00">insertRecords()</text>
<text xml:space="preserve" text-anchor="start" x="4" y="-608.5" font-family="Helvetica,sans-Serif" font-size="10.00">+</text>
<text xml:space="preserve" text-anchor="start" x="14" y="-608.5" font-family="Helvetica,sans-Serif" font-size="10.00">insertAndGetNewRecords()</text>
<text xml:space="preserve" text-anchor="start" x="4" y="-592.5" font-family="Helvetica,sans-Serif" font-size="10.00">+</text>
<text xml:space="preserve" text-anchor="start" x="14" y="-592.5" font-family="Helvetica,sans-Serif" font-size="10.00">getAllRecords()</text>
<text xml:space="preserve" text-anchor="start" x="4" y="-576.5" font-family="Helvetica,sans-Serif" font-size="10.00">+</text>
<text xml:space="preserve" text-anchor="start" x="14" y="-576.5" font-family="Helvetica,sans-Serif" font-size="10.00">getRecordsByStatus()</text>
<text xml:space="preserve" text-anchor="start" x="14" y="-560.5" font-family="Helvetica,sans-Serif" font-size="10.00">and 6 more...</text>
<text xml:space="preserve" text-anchor="start" x="4" y="-544.5" font-family="Helvetica,sans-Serif" font-size="10.00">+</text>
<text xml:space="preserve" text-anchor="start" x="14" y="-544.5" font-family="Helvetica,sans-Serif" font-size="10.00">SERDatabase()</text>
<text xml:space="preserve" text-anchor="start" x="4" y="-528.5" font-family="Helvetica,sans-Serif" font-size="10.00">+</text>
<text xml:space="preserve" text-anchor="start" x="14" y="-528.5" font-family="Helvetica,sans-Serif" font-size="10.00">operator=()</text>
<text xml:space="preserve" text-anchor="start" x="5.5" y="-512.5" font-family="Helvetica,sans-Serif" font-size="10.00">&#45;</text>
<text xml:space="preserve" text-anchor="start" x="14" y="-512.5" font-family="Helvetica,sans-Serif" font-size="10.00">createTable()</text>
<text xml:space="preserve" text-anchor="start" x="5.5" y="-496.5" font-family="Helvetica,sans-Serif" font-size="10.00">&#45;</text>
<text xml:space="preserve" text-anchor="start" x="14" y="-496.5" font-family="Helvetica,sans-Serif" font-size="10.00">recordExists()</text>
<text xml:space="preserve" text-anchor="start" x="5.12" y="-480.5" font-family="Helvetica,sans-Serif" font-size="10.00">*</text>
<text xml:space="preserve" text-anchor="start" x="14" y="-480.5" font-family="Helvetica,sans-Serif" font-size="10.00">SERDatabase()</text>
<text xml:space="preserve" text-anchor="start" x="5.12" y="-464.5" font-family="Helvetica,sans-Serif" font-size="10.00">*</text>
<text xml:space="preserve" text-anchor="start" x="14" y="-464.5" font-family="Helvetica,sans-Serif" font-size="10.00">operator=()</text>
<polygon fill="#666666" stroke="#666666" points="0,-748 0,-748 138,-748 138,-748 0,-748"/>
<polygon fill="#666666" stroke="#666666" points="0,-732 0,-732 12,-732 12,-732 0,-732"/>
<polygon fill="#666666" stroke="#666666" points="12,-732 12,-732 138,-732 138,-732 12,-732"/>
<polygon fill="none" stroke="#666666" points="0,-458 0,-766 138,-766 138,-458 0,-458"/>
</a>
</g>
</g>
<!-- Node2&#45;&gt;Node1 -->
<g id="edge1_Node000001_Node000002" class="edge">
<title>Node2&#45;&gt;Node1</title>
<g id="a_edge1_Node000001_Node000002"><a xlink:title=" ">
<path fill="none" stroke="#63b8ff" d="M49.23,-458.17C44.94,-383.93 47.76,-294.46 73,-218 88.35,-171.5 131.88,-136.64 169.81,-114.01"/>
<polygon fill="none" stroke="#63b8ff" points="169.66,-114.09 172.87,-107.63 180.06,-108.11 176.85,-114.57 169.66,-114.09"/>
</a>
</g>
<text xml:space="preserve" text-anchor="start" x="51.83" y="-357.5" font-family="Helvetica,sans-Serif" font-size="10.00" fill="grey">&#45;db_</text>
</g>
<!-- Node3 -->
<g id="Node000003" class="node">
<title>Node3</title>
<g id="a_Node000003"><a xlink:title=" ">
<polygon fill="white" stroke="none" points="140.75,-1054 89.25,-1054 89.25,-1002 140.75,-1002 140.75,-1054"/>
<text xml:space="preserve" text-anchor="start" x="93.25" y="-1040.5" font-family="Helvetica,sans-Serif" font-size="10.00">std::string</text>
<text xml:space="preserve" text-anchor="start" x="113.5" y="-1024.5" font-family="Helvetica,sans-Serif" font-size="10.00"> </text>
<text xml:space="preserve" text-anchor="start" x="113.5" y="-1008.5" font-family="Helvetica,sans-Serif" font-size="10.00"> </text>
<polygon fill="#666666" stroke="#666666" points="89.25,-1036 89.25,-1036 140.75,-1036 140.75,-1036 89.25,-1036"/>
<polygon fill="#666666" stroke="#666666" points="89.25,-1020 89.25,-1020 140.75,-1020 140.75,-1020 89.25,-1020"/>
<polygon fill="none" stroke="#666666" points="89.25,-1002 89.25,-1054 140.75,-1054 140.75,-1002 89.25,-1002"/>
</a>
</g>
</g>
<!-- Node3&#45;&gt;Node2 -->
<g id="edge2_Node000002_Node000003" class="edge">
<title>Node3&#45;&gt;Node2</title>
<g id="a_edge2_Node000002_Node000003"><a xlink:title=" ">
<path fill="none" stroke="#63b8ff" d="M89.43,-1004.57C84.1,-998.48 79.21,-991.48 76.25,-984 50.88,-919.84 45.47,-844.43 47.76,-778.41"/>
<polygon fill="none" stroke="#63b8ff" points="47.75,-778.66 44.01,-772.5 48.26,-766.67 52,-772.84 47.75,-778.66"/>
</a>
</g>
<text xml:space="preserve" text-anchor="start" x="79.25" y="-939.5" font-family="Helvetica,sans-Serif" font-size="10.00" fill="grey">&#45;db_path_</text>
<text xml:space="preserve" text-anchor="start" x="79.25" y="-923.5" font-family="Helvetica,sans-Serif" font-size="10.00" fill="grey">&#45;last_error_</text>
</g>
<!-- Node7 -->
<g id="Node000007" class="node">
<title>Node7</title>
<g id="a_Node000007"><a xlink:href="struct_s_e_r_record.html" target="_top" xlink:title="Structure representing a System Event Record (SER).">
<polygon fill="white" stroke="none" points="205.25,-868 128.75,-868 128.75,-784 205.25,-784 205.25,-868"/>
<text xml:space="preserve" text-anchor="start" x="140.75" y="-854.5" font-family="Helvetica,sans-Serif" font-size="10.00">SERRecord</text>
<text xml:space="preserve" text-anchor="start" x="165.5" y="-838.5" font-family="Helvetica,sans-Serif" font-size="10.00"> </text>
<text xml:space="preserve" text-anchor="start" x="132.75" y="-822.5" font-family="Helvetica,sans-Serif" font-size="10.00">+</text>
<text xml:space="preserve" text-anchor="start" x="142.75" y="-822.5" font-family="Helvetica,sans-Serif" font-size="10.00">SERRecord()</text>
<text xml:space="preserve" text-anchor="start" x="132.75" y="-806.5" font-family="Helvetica,sans-Serif" font-size="10.00">+</text>
<text xml:space="preserve" text-anchor="start" x="142.75" y="-806.5" font-family="Helvetica,sans-Serif" font-size="10.00">SERRecord()</text>
<text xml:space="preserve" text-anchor="start" x="132.75" y="-790.5" font-family="Helvetica,sans-Serif" font-size="10.00">+</text>
<text xml:space="preserve" text-anchor="start" x="142.75" y="-790.5" font-family="Helvetica,sans-Serif" font-size="10.00">SERRecord()</text>
<polygon fill="#666666" stroke="#666666" points="128.75,-850 128.75,-850 205.25,-850 205.25,-850 128.75,-850"/>
<polygon fill="#666666" stroke="#666666" points="128.75,-834 128.75,-834 205.25,-834 205.25,-834 128.75,-834"/>
<polygon fill="none" stroke="#666666" points="128.75,-784 128.75,-868 205.25,-868 205.25,-784 128.75,-784"/>
</a>
</g>
</g>
<!-- Node3&#45;&gt;Node7 -->
<g id="edge7_Node000007_Node000003" class="edge">
<title>Node3&#45;&gt;Node7</title>
<g id="a_edge7_Node000007_Node000003"><a xlink:title=" ">
<path fill="none" stroke="#63b8ff" d="M127.65,-1002.39C130.35,-996.47 132.99,-990.1 135,-984 146.12,-950.25 154.11,-911.08 159.32,-880.32"/>
<polygon fill="none" stroke="#63b8ff" points="159.31,-880.42 156.33,-873.85 161.25,-868.57 164.22,-875.14 159.31,-880.42"/>
</a>
</g>
<text xml:space="preserve" text-anchor="start" x="161.05" y="-971.5" font-family="Helvetica,sans-Serif" font-size="10.00" fill="grey">+description</text>
<text xml:space="preserve" text-anchor="start" x="161.05" y="-955.5" font-family="Helvetica,sans-Serif" font-size="10.00" fill="grey">+record_id</text>
<text xml:space="preserve" text-anchor="start" x="161.05" y="-939.5" font-family="Helvetica,sans-Serif" font-size="10.00" fill="grey">+relay_id</text>
<text xml:space="preserve" text-anchor="start" x="161.05" y="-923.5" font-family="Helvetica,sans-Serif" font-size="10.00" fill="grey">+relay_name</text>
<text xml:space="preserve" text-anchor="start" x="161.05" y="-907.5" font-family="Helvetica,sans-Serif" font-size="10.00" fill="grey">+status</text>
<text xml:space="preserve" text-anchor="start" x="161.05" y="-891.5" font-family="Helvetica,sans-Serif" font-size="10.00" fill="grey">+timestamp</text>
</g>
<!-- Node4 -->
<g id="Node000004" class="node">
<title>Node4</title>
<g id="a_Node000004"><a xlink:title=" ">
<polygon fill="white" stroke="none" points="158,-1155 72,-1155 72,-1091 158,-1091 158,-1155"/>
<text xml:space="preserve" text-anchor="start" x="76" y="-1141.5" font-family="Helvetica,sans-Serif" font-size="10.00">std::basic_string&lt;</text>
<text xml:space="preserve" text-anchor="start" x="98.5" y="-1129.5" font-family="Helvetica,sans-Serif" font-size="10.00"> Char &gt;</text>
<text xml:space="preserve" text-anchor="start" x="113.5" y="-1113.5" font-family="Helvetica,sans-Serif" font-size="10.00"> </text>
<text xml:space="preserve" text-anchor="start" x="113.5" y="-1097.5" font-family="Helvetica,sans-Serif" font-size="10.00"> </text>
<polygon fill="#666666" stroke="#666666" points="72,-1125 72,-1125 158,-1125 158,-1125 72,-1125"/>
<polygon fill="#666666" stroke="#666666" points="72,-1109 72,-1109 158,-1109 158,-1109 72,-1109"/>
<polygon fill="none" stroke="#666666" points="72,-1091 72,-1155 158,-1155 158,-1091 72,-1091"/>
</a>
</g>
</g>
<!-- Node4&#45;&gt;Node3 -->
<g id="edge3_Node000003_Node000004" class="edge">
<title>Node4&#45;&gt;Node3</title>
<g id="a_edge3_Node000003_Node000004"><a xlink:title=" ">
<path fill="none" stroke="#63b8ff" d="M115,-1079.69C115,-1070.89 115,-1061.89 115,-1053.96"/>
<polygon fill="none" stroke="#63b8ff" points="111.5,-1079.52 115,-1089.52 118.5,-1079.52 111.5,-1079.52"/>
</a>
</g>
</g>
<!-- Node5 -->
<g id="Node000005" class="node">
<title>Node5</title>
<g id="a_Node000005"><a xlink:href="class_thread_safe_queue.html" target="_top" xlink:title=" ">
<polygon fill="white" stroke="none" points="312.62,-334 155.38,-334 155.38,-218 312.62,-218 312.62,-334"/>
<text xml:space="preserve" text-anchor="start" x="159.38" y="-320.5" font-family="Helvetica,sans-Serif" font-size="10.00">ThreadSafeQueue&lt; SERRecord &gt;</text>
<text xml:space="preserve" text-anchor="start" x="184.44" y="-304.5" font-family="Helvetica,sans-Serif" font-size="10.00">&#45;</text>
<text xml:space="preserve" text-anchor="start" x="216.5" y="-304.5" font-family="Helvetica,sans-Serif" font-size="10.00">cv_</text>
<text xml:space="preserve" text-anchor="start" x="182.94" y="-288.5" font-family="Helvetica,sans-Serif" font-size="10.00">+</text>
<text xml:space="preserve" text-anchor="start" x="216.5" y="-288.5" font-family="Helvetica,sans-Serif" font-size="10.00">push()</text>
<text xml:space="preserve" text-anchor="start" x="182.94" y="-272.5" font-family="Helvetica,sans-Serif" font-size="10.00">+</text>
<text xml:space="preserve" text-anchor="start" x="216.5" y="-272.5" font-family="Helvetica,sans-Serif" font-size="10.00">pop()</text>
<text xml:space="preserve" text-anchor="start" x="182.94" y="-256.5" font-family="Helvetica,sans-Serif" font-size="10.00">+</text>
<text xml:space="preserve" text-anchor="start" x="216.5" y="-256.5" font-family="Helvetica,sans-Serif" font-size="10.00">empty()</text>
<text xml:space="preserve" text-anchor="start" x="182.94" y="-240.5" font-family="Helvetica,sans-Serif" font-size="10.00">+</text>
<text xml:space="preserve" text-anchor="start" x="216.5" y="-240.5" font-family="Helvetica,sans-Serif" font-size="10.00">size()</text>
<text xml:space="preserve" text-anchor="start" x="182.94" y="-224.5" font-family="Helvetica,sans-Serif" font-size="10.00">+</text>
<text xml:space="preserve" text-anchor="start" x="216.5" y="-224.5" font-family="Helvetica,sans-Serif" font-size="10.00">notify_all()</text>
<polygon fill="#666666" stroke="#666666" points="155.38,-316 155.38,-316 312.62,-316 312.62,-316 155.38,-316"/>
<polygon fill="#666666" stroke="#666666" points="155.38,-300 155.38,-300 214.5,-300 214.5,-300 155.38,-300"/>
<polygon fill="#666666" stroke="#666666" points="214.5,-300 214.5,-300 312.62,-300 312.62,-300 214.5,-300"/>
<polygon fill="none" stroke="#666666" points="155.38,-218 155.38,-334 312.62,-334 312.62,-218 155.38,-218"/>
</a>
</g>
</g>
<!-- Node5&#45;&gt;Node1 -->
<g id="edge4_Node000001_Node000005" class="edge">
<title>Node5&#45;&gt;Node1</title>
<g id="a_edge4_Node000001_Node000005"><a xlink:title=" ">
<path fill="none" stroke="#63b8ff" d="M234,-218.17C234,-205.14 234,-190.93 234,-176.8"/>
<polygon fill="none" stroke="#63b8ff" points="234,-176.77 230,-170.77 234,-164.77 238,-170.77 234,-176.77"/>
</a>
</g>
<text xml:space="preserve" text-anchor="start" x="237" y="-187.5" font-family="Helvetica,sans-Serif" font-size="10.00" fill="grey">&#45;write_queue_</text>
</g>
<!-- Node6 -->
<g id="Node000006" class="node">
<title>Node6</title>
<g id="a_Node000006"><a xlink:title=" ">
<polygon fill="white" stroke="none" points="286.12,-440 161.88,-440 161.88,-388 286.12,-388 286.12,-440"/>
<text xml:space="preserve" text-anchor="start" x="165.88" y="-426.5" font-family="Helvetica,sans-Serif" font-size="10.00">std::queue&lt; SERRecord &gt;</text>
<text xml:space="preserve" text-anchor="start" x="222.5" y="-410.5" font-family="Helvetica,sans-Serif" font-size="10.00"> </text>
<text xml:space="preserve" text-anchor="start" x="222.5" y="-394.5" font-family="Helvetica,sans-Serif" font-size="10.00"> </text>
<polygon fill="#666666" stroke="#666666" points="161.88,-422 161.88,-422 286.12,-422 286.12,-422 161.88,-422"/>
<polygon fill="#666666" stroke="#666666" points="161.88,-406 161.88,-406 286.12,-406 286.12,-406 161.88,-406"/>
<polygon fill="none" stroke="#666666" points="161.88,-388 161.88,-440 286.12,-440 286.12,-388 161.88,-388"/>
</a>
</g>
</g>
<!-- Node6&#45;&gt;Node5 -->
<g id="edge5_Node000005_Node000006" class="edge">
<title>Node6&#45;&gt;Node5</title>
<g id="a_edge5_Node000005_Node000006"><a xlink:title=" ">
<path fill="none" stroke="#63b8ff" d="M225.83,-388.06C226.7,-376.31 227.78,-361.66 228.86,-346.89"/>
<polygon fill="none" stroke="#63b8ff" points="228.87,-346.81 225.32,-340.53 229.75,-334.84 233.3,-341.12 228.87,-346.81"/>
</a>
</g>
<text xml:space="preserve" text-anchor="start" x="231.4" y="-357.5" font-family="Helvetica,sans-Serif" font-size="10.00" fill="grey">&#45;queue_</text>
</g>
<!-- Node7&#45;&gt;Node6 -->
<g id="edge6_Node000006_Node000007" class="edge">
<title>Node7&#45;&gt;Node6</title>
<g id="a_edge6_Node000006_Node000007"><a xlink:title=" ">
<path fill="none" stroke="#63b8ff" d="M172.67,-784.19C183.75,-704.51 208.11,-529.33 218.8,-452.44"/>
<polygon fill="none" stroke="#63b8ff" points="218.79,-452.47 215.66,-445.98 220.44,-440.58 223.58,-447.08 218.79,-452.47"/>
</a>
</g>
<text xml:space="preserve" text-anchor="start" x="219.94" y="-608.5" font-family="Helvetica,sans-Serif" font-size="10.00" fill="grey">+elements</text>
</g>
<!-- Node8 -->
<g id="Node000008" class="node">
<title>Node8</title>
<g id="a_Node000008"><a xlink:title=" ">
<polygon fill="white" stroke="none" points="135.25,-440 80.75,-440 80.75,-388 135.25,-388 135.25,-440"/>
<text xml:space="preserve" text-anchor="start" x="84.75" y="-426.5" font-family="Helvetica,sans-Serif" font-size="10.00">std::mutex</text>
<text xml:space="preserve" text-anchor="start" x="106.5" y="-410.5" font-family="Helvetica,sans-Serif" font-size="10.00"> </text>
<text xml:space="preserve" text-anchor="start" x="106.5" y="-394.5" font-family="Helvetica,sans-Serif" font-size="10.00"> </text>
<polygon fill="#666666" stroke="#666666" points="80.75,-422 80.75,-422 135.25,-422 135.25,-422 80.75,-422"/>
<polygon fill="#666666" stroke="#666666" points="80.75,-406 80.75,-406 135.25,-406 135.25,-406 80.75,-406"/>
<polygon fill="none" stroke="#666666" points="80.75,-388 80.75,-440 135.25,-440 135.25,-388 80.75,-388"/>
</a>
</g>
</g>
<!-- Node8&#45;&gt;Node1 -->
<g id="edge11_Node000001_Node000008" class="edge">
<title>Node8&#45;&gt;Node1</title>
<g id="a_edge11_Node000001_Node000008"><a xlink:title=" ">
<path fill="none" stroke="#63b8ff" d="M98.07,-388.08C84.43,-349.78 64.22,-274.92 89,-218 105.84,-179.32 139.82,-146.72 170.65,-123.25"/>
<polygon fill="none" stroke="#63b8ff" points="170.58,-123.31 173.03,-116.52 180.23,-116.18 177.78,-122.96 170.58,-123.31"/>
</a>
</g>
<text xml:space="preserve" text-anchor="start" x="92" y="-272.5" font-family="Helvetica,sans-Serif" font-size="10.00" fill="grey">&#45;db_mutex_</text>
</g>
<!-- Node8&#45;&gt;Node5 -->
<g id="edge8_Node000005_Node000008" class="edge">
<title>Node8&#45;&gt;Node5</title>
<g id="a_edge8_Node000005_Node000008"><a xlink:title=" ">
<path fill="none" stroke="#63b8ff" d="M131.11,-388.06C142.87,-375.36 157.78,-359.27 172.57,-343.3"/>
<polygon fill="none" stroke="#63b8ff" points="172.48,-343.41 173.62,-336.29 180.63,-334.6 179.49,-341.72 172.48,-343.41"/>
</a>
</g>
<text xml:space="preserve" text-anchor="start" x="166.46" y="-357.5" font-family="Helvetica,sans-Serif" font-size="10.00" fill="grey">&#45;mutex_</text>
</g>
<!-- Node9 -->
<g id="Node000009" class="node">
<title>Node9</title>
<g id="a_Node000009"><a xlink:title=" ">
<polygon fill="white" stroke="none" points="385.25,-302 330.75,-302 330.75,-250 385.25,-250 385.25,-302"/>
<text xml:space="preserve" text-anchor="start" x="334.75" y="-288.5" font-family="Helvetica,sans-Serif" font-size="10.00">std::thread</text>
<text xml:space="preserve" text-anchor="start" x="356.5" y="-272.5" font-family="Helvetica,sans-Serif" font-size="10.00"> </text>
<text xml:space="preserve" text-anchor="start" x="356.5" y="-256.5" font-family="Helvetica,sans-Serif" font-size="10.00"> </text>
<polygon fill="#666666" stroke="#666666" points="330.75,-284 330.75,-284 385.25,-284 385.25,-284 330.75,-284"/>
<polygon fill="#666666" stroke="#666666" points="330.75,-268 330.75,-268 385.25,-268 385.25,-268 330.75,-268"/>
<polygon fill="none" stroke="#666666" points="330.75,-250 330.75,-302 385.25,-302 385.25,-250 330.75,-250"/>
</a>
</g>
</g>
<!-- Node9&#45;&gt;Node1 -->
<g id="edge9_Node000001_Node000009" class="edge">
<title>Node9&#45;&gt;Node1</title>
<g id="a_edge9_Node000001_Node000009"><a xlink:title=" ">
<path fill="none" stroke="#63b8ff" d="M344.74,-250.11C334.41,-231.14 319.44,-204.53 305,-182 301.59,-176.68 298.01,-171.26 294.35,-165.83"/>
<polygon fill="none" stroke="#63b8ff" points="294.5,-166.05 287.81,-163.35 287.73,-156.14 294.42,-158.84 294.5,-166.05"/>
</a>
</g>
<text xml:space="preserve" text-anchor="start" x="318.8" y="-187.5" font-family="Helvetica,sans-Serif" font-size="10.00" fill="grey">&#45;writer_thread_</text>
</g>
<!-- Node10 -->
<g id="Node000010" class="node">
<title>Node10</title>
<g id="a_Node000010"><a xlink:title=" ">
<polygon fill="white" stroke="none" points="497.38,-302 404.62,-302 404.62,-250 497.38,-250 497.38,-302"/>
<text xml:space="preserve" text-anchor="start" x="408.62" y="-288.5" font-family="Helvetica,sans-Serif" font-size="10.00">std::atomic&lt; bool &gt;</text>
<text xml:space="preserve" text-anchor="start" x="424.5" y="-272.5" font-family="Helvetica,sans-Serif" font-size="10.00">+</text>
<text xml:space="preserve" text-anchor="start" x="450.38" y="-272.5" font-family="Helvetica,sans-Serif" font-size="10.00">ptr</text>
<text xml:space="preserve" text-anchor="start" x="449.5" y="-256.5" font-family="Helvetica,sans-Serif" font-size="10.00"> </text>
<polygon fill="#666666" stroke="#666666" points="404.62,-284 404.62,-284 497.38,-284 497.38,-284 404.62,-284"/>
<polygon fill="#666666" stroke="#666666" points="404.62,-268 404.62,-268 448.38,-268 448.38,-268 404.62,-268"/>
<polygon fill="#666666" stroke="#666666" points="448.38,-268 448.38,-268 497.38,-268 497.38,-268 448.38,-268"/>
<polygon fill="none" stroke="#666666" points="404.62,-250 404.62,-302 497.38,-302 497.38,-250 404.62,-250"/>
</a>
</g>
</g>
<!-- Node10&#45;&gt;Node1 -->
<g id="edge10_Node000001_Node000010" class="edge">
<title>Node10&#45;&gt;Node1</title>
<g id="a_edge10_Node000001_Node000010"><a xlink:title=" ">
<path fill="none" stroke="#63b8ff" d="M438.46,-250.02C427.57,-230 410.36,-202.05 390,-182 363.25,-155.65 328.35,-132.7 298.35,-115.55"/>
<polygon fill="none" stroke="#63b8ff" points="298.37,-115.57 291.18,-116.13 287.9,-109.71 295.09,-109.14 298.37,-115.57"/>
</a>
</g>
<text xml:space="preserve" text-anchor="start" x="407.19" y="-187.5" font-family="Helvetica,sans-Serif" font-size="10.00" fill="grey">&#45;stop_flag_</text>
</g>
</g>
</svg>
