<?xml version="1.0" encoding="UTF-8" standalone="no"?>
<!DOCTYPE svg PUBLIC "-//W3C//DTD SVG 1.1//EN"
 "http://www.w3.org/Graphics/SVG/1.1/DTD/svg11.dtd">
<!-- Generated by graphviz version 14.1.1 (20251213.1925)
 -->
<!-- Title: WebSocketSession::on_broadcast_write Pages: 1 -->
<svg width="1015pt" height="127pt"
 viewBox="0.00 0.00 1015.00 127.00" xmlns="http://www.w3.org/2000/svg" xmlns:xlink="http://www.w3.org/1999/xlink">
<g id="graph0" class="graph" transform="scale(1 1) rotate(0) translate(4 122.54)">
<title>WebSocketSession::on_broadcast_write</title>
<!-- Node1 -->
<g id="Node000001" class="node">
<title>Node1</title>
<g id="a_Node000001"><a xlink:title="Handle broadcast write completion — drains pending queue.">
<polygon fill="#999999" stroke="#666666" points="1006.5,-74.54 888.5,-74.54 888.5,-42.54 1006.5,-42.54 1006.5,-74.54"/>
<text xml:space="preserve" text-anchor="start" x="896.5" y="-61.04" font-family="Helvetica,sans-Serif" font-size="10.00">WebSocketSession::on</text>
<text xml:space="preserve" text-anchor="middle" x="947.5" y="-49.04" font-family="Helvetica,sans-Serif" font-size="10.00">_broadcast_write</text>
</a>
</g>
</g>
<!-- Node2 -->
<g id="Node000002" class="node">
<title>Node2</title>
<g id="a_Node000002"><a xlink:href="class_web_socket_session.html#a24aad98befc1c2d007af7a64bee4864f" target="_top" xlink:title="Perform broadcast write operation (called on strand).">
<polygon fill="white" stroke="#666666" points="833,-118.54 715,-118.54 715,-86.54 833,-86.54 833,-118.54"/>
<text xml:space="preserve" text-anchor="start" x="723" y="-105.04" font-family="Helvetica,sans-Serif" font-size="10.00">WebSocketSession::do</text>
<text xml:space="preserve" text-anchor="middle" x="774" y="-93.04" font-family="Helvetica,sans-Serif" font-size="10.00">_broadcast</text>
</a>
</g>
</g>
<!-- Node1&#45;&gt;Node2 -->
<g id="edge1_Node000001_Node000002" class="edge">
<title>Node1&#45;&gt;Node2</title>
<g id="a_edge1_Node000001_Node000002"><a xlink:title=" ">
<path fill="none" stroke="#63b8ff" d="M877.41,-76.26C862.78,-80.02 847.48,-83.94 833.29,-87.58"/>
<polygon fill="#63b8ff" stroke="#63b8ff" points="878.16,-79.69 886.97,-73.81 876.42,-72.91 878.16,-79.69"/>
</a>
</g>
</g>
<!-- Node3 -->
<g id="Node000003" class="node">
<title>Node3</title>
<g id="a_Node000003"><a xlink:href="class_web_socket_session.html#a124943db6c094918e372c94bfb7ec533" target="_top" xlink:title="Send the next queued message (if any).">
<polygon fill="white" stroke="#666666" points="852.5,-68.54 695.5,-68.54 695.5,-48.54 852.5,-48.54 852.5,-68.54"/>
<text xml:space="preserve" text-anchor="middle" x="774" y="-55.04" font-family="Helvetica,sans-Serif" font-size="10.00">WebSocketSession::drainQueue</text>
</a>
</g>
</g>
<!-- Node1&#45;&gt;Node3 -->
<g id="edge2_Node000001_Node000003" class="edge">
<title>Node1&#45;&gt;Node3</title>
<g id="a_edge2_Node000001_Node000003"><a xlink:title=" ">
<path fill="none" stroke="#63b8ff" d="M876.95,-51.9C868.98,-51.79 860.83,-51.76 852.77,-51.81"/>
<polygon fill="#63b8ff" stroke="#63b8ff" points="876.86,-55.4 886.92,-52.08 876.99,-48.4 876.86,-55.4"/>
</a>
</g>
</g>
<!-- Node3&#45;&gt;Node1 -->
<g id="edge3_Node000003_Node000001" class="edge">
<title>Node3&#45;&gt;Node1</title>
<g id="a_edge3_Node000003_Node000001"><a xlink:title=" ">
<path fill="none" stroke="#63b8ff" d="M864.05,-65.28C872.32,-65.26 880.55,-65.16 888.44,-64.97"/>
<polygon fill="#63b8ff" stroke="#63b8ff" points="864.29,-61.79 854.28,-65.27 864.28,-68.79 864.29,-61.79"/>
</a>
</g>
</g>
<!-- Node4 -->
<g id="Node000004" class="node">
<title>Node4</title>
<g id="a_Node000004"><a xlink:href="class_web_socket_session.html#a0fed81151d5dcbe23dbee79f1bf12c66" target="_top" xlink:title="Handle write completion.">
<polygon fill="white" stroke="#666666" points="659.5,-52.54 541.5,-52.54 541.5,-20.54 659.5,-20.54 659.5,-52.54"/>
<text xml:space="preserve" text-anchor="start" x="549.5" y="-39.04" font-family="Helvetica,sans-Serif" font-size="10.00">WebSocketSession::on</text>
<text xml:space="preserve" text-anchor="middle" x="600.5" y="-27.04" font-family="Helvetica,sans-Serif" font-size="10.00">_write</text>
</a>
</g>
</g>
<!-- Node3&#45;&gt;Node4 -->
<g id="edge4_Node000003_Node000004" class="edge">
<title>Node3&#45;&gt;Node4</title>
<g id="a_edge4_Node000003_Node000004"><a xlink:title=" ">
<path fill="none" stroke="#63b8ff" d="M683.88,-47.11C675.71,-46.06 667.57,-45.01 659.77,-44.01"/>
<polygon fill="#63b8ff" stroke="#63b8ff" points="683.16,-50.54 693.53,-48.34 684.05,-43.6 683.16,-50.54"/>
</a>
</g>
</g>
<!-- Node5 -->
<g id="Node000005" class="node">
<title>Node5</title>
<g id="a_Node000005"><a xlink:href="class_web_socket_session.html#a2529887f34770366fc2c225bd085edba" target="_top" xlink:title="Send current database records to client as ASN.1 BER/TLV.">
<polygon fill="white" stroke="#666666" points="505.5,-90.54 356,-90.54 356,-70.54 505.5,-70.54 505.5,-90.54"/>
<text xml:space="preserve" text-anchor="middle" x="430.75" y="-77.04" font-family="Helvetica,sans-Serif" font-size="10.00">WebSocketSession::sendData</text>
</a>
</g>
</g>
<!-- Node4&#45;&gt;Node5 -->
<g id="edge5_Node000004_Node000005" class="edge">
<title>Node4&#45;&gt;Node5</title>
<g id="a_edge5_Node000004_Node000005"><a xlink:title=" ">
<path fill="none" stroke="#63b8ff" d="M530.22,-55.03C521.9,-57.23 513.51,-59.44 505.5,-61.54 494.88,-64.32 483.4,-67.29 472.72,-70.04"/>
<polygon fill="#63b8ff" stroke="#63b8ff" points="530.87,-58.48 539.64,-52.53 529.08,-51.71 530.87,-58.48"/>
</a>
</g>
</g>
<!-- Node10 -->
<g id="Node000010" class="node">
<title>Node10</title>
<g id="a_Node000010"><a xlink:href="class_web_socket_session.html#a6c789e228fc7a6101f1e586dc67ad8da" target="_top" xlink:title="Send a plain text response to this client (for FIL DIR etc.).">
<polygon fill="white" stroke="#666666" points="504.38,-52.54 357.12,-52.54 357.12,-20.54 504.38,-20.54 504.38,-52.54"/>
<text xml:space="preserve" text-anchor="start" x="365.12" y="-39.04" font-family="Helvetica,sans-Serif" font-size="10.00">WebSocketSession::sendText</text>
<text xml:space="preserve" text-anchor="middle" x="430.75" y="-27.04" font-family="Helvetica,sans-Serif" font-size="10.00">Response</text>
</a>
</g>
</g>
<!-- Node4&#45;&gt;Node10 -->
<g id="edge13_Node000004_Node000010" class="edge">
<title>Node4&#45;&gt;Node10</title>
<g id="a_edge13_Node000004_Node000010"><a xlink:title=" ">
<path fill="none" stroke="#63b8ff" d="M530.02,-36.54C521.64,-36.54 513.06,-36.54 504.63,-36.54"/>
<polygon fill="#63b8ff" stroke="#63b8ff" points="529.79,-40.04 539.79,-36.54 529.79,-33.04 529.79,-40.04"/>
</a>
</g>
</g>
<!-- Node5&#45;&gt;Node3 -->
<g id="edge6_Node000005_Node000003" class="edge">
<title>Node5&#45;&gt;Node3</title>
<g id="a_edge6_Node000005_Node000003"><a xlink:title=" ">
<path fill="none" stroke="#63b8ff" d="M517.17,-75.03C571.78,-71.51 642.06,-66.98 695.14,-63.56"/>
<polygon fill="#63b8ff" stroke="#63b8ff" points="517.03,-71.53 507.28,-75.67 517.48,-78.52 517.03,-71.53"/>
</a>
</g>
</g>
<!-- Node6 -->
<g id="Node000006" class="node">
<title>Node6</title>
<g id="a_Node000006"><a xlink:href="class_web_socket_session.html#a7b82f2e9c71f6822c2d2f6dcc1a251c5" target="_top" xlink:title="Handle WebSocket handshake completion.">
<polygon fill="white" stroke="#666666" points="308,-96.54 190,-96.54 190,-64.54 308,-64.54 308,-96.54"/>
<text xml:space="preserve" text-anchor="start" x="198" y="-83.04" font-family="Helvetica,sans-Serif" font-size="10.00">WebSocketSession::on</text>
<text xml:space="preserve" text-anchor="middle" x="249" y="-71.04" font-family="Helvetica,sans-Serif" font-size="10.00">_accept</text>
</a>
</g>
</g>
<!-- Node5&#45;&gt;Node6 -->
<g id="edge7_Node000005_Node000006" class="edge">
<title>Node5&#45;&gt;Node6</title>
<g id="a_edge7_Node000005_Node000006"><a xlink:title=" ">
<path fill="none" stroke="#63b8ff" d="M344.43,-80.54C332.21,-80.54 319.88,-80.54 308.33,-80.54"/>
<polygon fill="#63b8ff" stroke="#63b8ff" points="344.09,-84.04 354.09,-80.54 344.09,-77.04 344.09,-84.04"/>
</a>
</g>
</g>
<!-- Node8 -->
<g id="Node000008" class="node">
<title>Node8</title>
<g id="a_Node000008"><a xlink:href="class_web_socket_session.html#a6c0557f87f9f6050a8848237ace942bb" target="_top" xlink:title="Handle received client message.">
<polygon fill="white" stroke="#666666" points="320,-43.54 178,-43.54 178,-23.54 320,-23.54 320,-43.54"/>
<text xml:space="preserve" text-anchor="middle" x="249" y="-30.04" font-family="Helvetica,sans-Serif" font-size="10.00">WebSocketSession::on_read</text>
</a>
</g>
</g>
<!-- Node5&#45;&gt;Node8 -->
<g id="edge9_Node000005_Node000008" class="edge">
<title>Node5&#45;&gt;Node8</title>
<g id="a_edge9_Node000005_Node000008"><a xlink:title=" ">
<path fill="none" stroke="#63b8ff" d="M378.07,-67.27C370.66,-65.35 363.14,-63.4 356,-61.54 333.99,-55.8 309.43,-49.31 289.5,-44.03"/>
<polygon fill="#63b8ff" stroke="#63b8ff" points="377.14,-70.64 387.7,-69.75 378.89,-63.86 377.14,-70.64"/>
</a>
</g>
</g>
<!-- Node7 -->
<g id="Node000007" class="node">
<title>Node7</title>
<g id="a_Node000007"><a xlink:href="class_web_socket_session.html#aa60a520432526e90b74fd97713469a56" target="_top" xlink:title="Start the session by accepting WebSocket handshake.">
<polygon fill="white" stroke="#666666" points="131.5,-90.54 10.5,-90.54 10.5,-70.54 131.5,-70.54 131.5,-90.54"/>
<text xml:space="preserve" text-anchor="middle" x="71" y="-77.04" font-family="Helvetica,sans-Serif" font-size="10.00">WebSocketSession::run</text>
</a>
</g>
</g>
<!-- Node6&#45;&gt;Node7 -->
<g id="edge8_Node000006_Node000007" class="edge">
<title>Node6&#45;&gt;Node7</title>
<g id="a_edge8_Node000006_Node000007"><a xlink:title=" ">
<path fill="none" stroke="#63b8ff" d="M178.77,-80.54C163.27,-80.54 146.95,-80.54 131.86,-80.54"/>
<polygon fill="#63b8ff" stroke="#63b8ff" points="178.37,-84.04 188.37,-80.54 178.37,-77.04 178.37,-84.04"/>
</a>
</g>
</g>
<!-- Node9 -->
<g id="Node000009" class="node">
<title>Node9</title>
<g id="a_Node000009"><a xlink:href="class_web_socket_session.html#a2bc079950c2e39e8ff745f0da57646ba" target="_top" xlink:title="Initiate async read for next client message.">
<polygon fill="white" stroke="#666666" points="142,-43.54 0,-43.54 0,-23.54 142,-23.54 142,-43.54"/>
<text xml:space="preserve" text-anchor="middle" x="71" y="-30.04" font-family="Helvetica,sans-Serif" font-size="10.00">WebSocketSession::do_read</text>
</a>
</g>
</g>
<!-- Node8&#45;&gt;Node9 -->
<g id="edge10_Node000008_Node000009" class="edge">
<title>Node8&#45;&gt;Node9</title>
<g id="a_edge10_Node000008_Node000009"><a xlink:title=" ">
<path fill="none" stroke="#63b8ff" d="M166.17,-26.8C158.26,-26.77 150.28,-26.8 142.49,-26.91"/>
<polygon fill="#63b8ff" stroke="#63b8ff" points="166.14,-30.3 176.17,-26.9 166.2,-23.3 166.14,-30.3"/>
</a>
</g>
</g>
<!-- Node9&#45;&gt;Node4 -->
<g id="edge12_Node000009_Node000004" class="edge">
<title>Node9&#45;&gt;Node4</title>
<g id="a_edge12_Node000009_Node000004"><a xlink:title=" ">
<path fill="none" stroke="#63b8ff" d="M132.26,-21.01C147.15,-18.39 163.1,-15.99 178,-14.54 322.88,-0.43 361.17,7.33 505.5,-11.54 519.23,-13.33 533.81,-16.54 547.28,-20.08"/>
<polygon fill="#63b8ff" stroke="#63b8ff" points="131.82,-17.53 122.61,-22.77 133.07,-24.42 131.82,-17.53"/>
</a>
</g>
</g>
<!-- Node9&#45;&gt;Node8 -->
<g id="edge11_Node000009_Node000008" class="edge">
<title>Node9&#45;&gt;Node8</title>
<g id="a_edge11_Node000009_Node000008"><a xlink:title=" ">
<path fill="none" stroke="#63b8ff" d="M153.73,-40.27C161.74,-40.31 169.81,-40.28 177.68,-40.17"/>
<polygon fill="#63b8ff" stroke="#63b8ff" points="154.04,-36.78 144.01,-40.18 153.97,-43.78 154.04,-36.78"/>
</a>
</g>
</g>
</g>
</svg>
