<?xml version="1.0" encoding="UTF-8" standalone="no"?>
<!DOCTYPE svg PUBLIC "-//W3C//DTD SVG 1.1//EN"
 "http://www.w3.org/Graphics/SVG/1.1/DTD/svg11.dtd">
<!-- Generated by graphviz version 14.1.1 (20251213.1925)
 -->
<!-- Title: SERDatabase::insertAndGetNewRecords Pages: 1 -->
<svg width="502pt" height="53pt"
 viewBox="0.00 0.00 502.00 53.00" xmlns="http://www.w3.org/2000/svg" xmlns:xlink="http://www.w3.org/1999/xlink">
<g id="graph0" class="graph" transform="scale(1 1) rotate(0) translate(4 49)">
<title>SERDatabase::insertAndGetNewRecords</title>
<!-- Node1 -->
<g id="Node000001" class="node">
<title>Node1</title>
<g id="a_Node000001"><a xlink:title="Insert records and return only the newly inserted ones.">
<polygon fill="#999999" stroke="#666666" points="142,-32 0,-32 0,0 142,0 142,-32"/>
<text xml:space="preserve" text-anchor="start" x="8" y="-18.5" font-family="Helvetica,sans-Serif" font-size="10.00">SERDatabase::insertAndGet</text>
<text xml:space="preserve" text-anchor="middle" x="71" y="-6.5" font-family="Helvetica,sans-Serif" font-size="10.00">NewRecords</text>
</a>
</g>
</g>
<!-- Node2 -->
<g id="Node000002" class="node">
<title>Node2</title>
<g id="a_Node000002"><a xlink:href="class_s_e_r_database.html#a7af7d201eef0336f5c599c3d05671f18" target="_top" xlink:title="Insert a single SER record into the database.">
<polygon fill="white" stroke="#666666" points="318.5,-45 178,-45 178,-25 318.5,-25 318.5,-45"/>
<text xml:space="preserve" text-anchor="middle" x="248.25" y="-31.5" font-family="Helvetica,sans-Serif" font-size="10.00">SERDatabase::insertRecord</text>
</a>
</g>
</g>
<!-- Node1&#45;&gt;Node2 -->
<g id="edge1_Node000001_Node000002" class="edge">
<title>Node1&#45;&gt;Node2</title>
<g id="a_edge1_Node000001_Node000002"><a xlink:title=" ">
<path fill="none" stroke="#63b8ff" d="M142.27,-23.62C150.17,-24.47 158.26,-25.35 166.28,-26.22"/>
<polygon fill="#63b8ff" stroke="#63b8ff" points="165.71,-29.68 176.03,-27.28 166.46,-22.72 165.71,-29.68"/>
</a>
</g>
</g>
<!-- Node3 -->
<g id="Node000003" class="node">
<title>Node3</title>
<g id="a_Node000003"><a xlink:href="class_s_e_r_database.html#a77ac29d719dfce9ffe151bb73c9295bd" target="_top" xlink:title="Check if a record already exists in the database.">
<polygon fill="white" stroke="#666666" points="494.25,-26 354.5,-26 354.5,-6 494.25,-6 494.25,-26"/>
<text xml:space="preserve" text-anchor="middle" x="424.38" y="-12.5" font-family="Helvetica,sans-Serif" font-size="10.00">SERDatabase::recordExists</text>
</a>
</g>
</g>
<!-- Node1&#45;&gt;Node3 -->
<g id="edge3_Node000001_Node000003" class="edge">
<title>Node1&#45;&gt;Node3</title>
<g id="a_edge3_Node000001_Node000003"><a xlink:title=" ">
<path fill="none" stroke="#63b8ff" d="M142.26,-16C200.12,-16 282.18,-16 342.71,-16"/>
<polygon fill="#63b8ff" stroke="#63b8ff" points="342.62,-19.5 352.62,-16 342.62,-12.5 342.62,-19.5"/>
</a>
</g>
</g>
<!-- Node2&#45;&gt;Node3 -->
<g id="edge2_Node000002_Node000003" class="edge">
<title>Node2&#45;&gt;Node3</title>
<g id="a_edge2_Node000002_Node000003"><a xlink:title=" ">
<path fill="none" stroke="#63b8ff" d="M318.82,-27.41C326.74,-26.54 334.86,-25.66 342.9,-24.78"/>
<polygon fill="#63b8ff" stroke="#63b8ff" points="343.13,-28.28 352.7,-23.71 342.37,-21.32 343.13,-28.28"/>
</a>
</g>
</g>
</g>
</svg>
