<?xml version="1.0" encoding="UTF-8" standalone="no"?>
<!DOCTYPE svg PUBLIC "-//W3C//DTD SVG 1.1//EN"
 "http://www.w3.org/Graphics/SVG/1.1/DTD/svg11.dtd">
<!-- Generated by graphviz version 14.1.2 (20260124.0452)
 -->
<!-- Title: SERWebSocketServer Pages: 1 -->
<svg width="645pt" height="2053pt"
 viewBox="0.00 0.00 645.00 2053.00" xmlns="http://www.w3.org/2000/svg" xmlns:xlink="http://www.w3.org/1999/xlink">
<g id="graph0" class="graph" transform="scale(1 1) rotate(0) translate(4 2049)">
<title>SERWebSocketServer</title>
<!-- Node1 -->
<g id="Node000001" class="node">
<title>Node1</title>
<g id="a_Node000001"><a xlink:title="High&#45;level WebSocket server wrapper for SER data access.">
<polygon fill="#999999" stroke="none" points="577.5,-276 448.5,-276 448.5,0 577.5,0 577.5,-276"/>
<text xml:space="preserve" text-anchor="start" x="463.5" y="-262.5" font-family="Helvetica,sans-Serif" font-size="10.00">SERWebSocketServer</text>
<text xml:space="preserve" text-anchor="start" x="454" y="-246.5" font-family="Helvetica,sans-Serif" font-size="10.00">&#45;</text>
<text xml:space="preserve" text-anchor="start" x="462.5" y="-246.5" font-family="Helvetica,sans-Serif" font-size="10.00">ioc_</text>
<text xml:space="preserve" text-anchor="start" x="454" y="-230.5" font-family="Helvetica,sans-Serif" font-size="10.00">&#45;</text>
<text xml:space="preserve" text-anchor="start" x="462.5" y="-230.5" font-family="Helvetica,sans-Serif" font-size="10.00">port_</text>
<text xml:space="preserve" text-anchor="start" x="454" y="-214.5" font-family="Helvetica,sans-Serif" font-size="10.00">&#45;</text>
<text xml:space="preserve" text-anchor="start" x="462.5" y="-214.5" font-family="Helvetica,sans-Serif" font-size="10.00">running_</text>
<text xml:space="preserve" text-anchor="start" x="454" y="-198.5" font-family="Helvetica,sans-Serif" font-size="10.00">&#45;</text>
<text xml:space="preserve" text-anchor="start" x="462.5" y="-198.5" font-family="Helvetica,sans-Serif" font-size="10.00">cmdHandler_</text>
<text xml:space="preserve" text-anchor="start" x="454" y="-182.5" font-family="Helvetica,sans-Serif" font-size="10.00">&#45;</text>
<text xml:space="preserve" text-anchor="start" x="462.5" y="-182.5" font-family="Helvetica,sans-Serif" font-size="10.00">actionHandler_</text>
<text xml:space="preserve" text-anchor="start" x="452.5" y="-166.5" font-family="Helvetica,sans-Serif" font-size="10.00">+</text>
<text xml:space="preserve" text-anchor="start" x="462.5" y="-166.5" font-family="Helvetica,sans-Serif" font-size="10.00">SERWebSocketServer()</text>
<text xml:space="preserve" text-anchor="start" x="452.5" y="-150.5" font-family="Helvetica,sans-Serif" font-size="10.00">+</text>
<text xml:space="preserve" text-anchor="start" x="462.5" y="-150.5" font-family="Helvetica,sans-Serif" font-size="10.00">~SERWebSocketServer()</text>
<text xml:space="preserve" text-anchor="start" x="452.5" y="-134.5" font-family="Helvetica,sans-Serif" font-size="10.00">+</text>
<text xml:space="preserve" text-anchor="start" x="462.5" y="-134.5" font-family="Helvetica,sans-Serif" font-size="10.00">setCommandHandler()</text>
<text xml:space="preserve" text-anchor="start" x="452.5" y="-118.5" font-family="Helvetica,sans-Serif" font-size="10.00">+</text>
<text xml:space="preserve" text-anchor="start" x="462.5" y="-118.5" font-family="Helvetica,sans-Serif" font-size="10.00">setActionHandler()</text>
<text xml:space="preserve" text-anchor="start" x="452.5" y="-102.5" font-family="Helvetica,sans-Serif" font-size="10.00">+</text>
<text xml:space="preserve" text-anchor="start" x="462.5" y="-102.5" font-family="Helvetica,sans-Serif" font-size="10.00">start()</text>
<text xml:space="preserve" text-anchor="start" x="452.5" y="-86.5" font-family="Helvetica,sans-Serif" font-size="10.00">+</text>
<text xml:space="preserve" text-anchor="start" x="462.5" y="-86.5" font-family="Helvetica,sans-Serif" font-size="10.00">stop()</text>
<text xml:space="preserve" text-anchor="start" x="452.5" y="-70.5" font-family="Helvetica,sans-Serif" font-size="10.00">+</text>
<text xml:space="preserve" text-anchor="start" x="462.5" y="-70.5" font-family="Helvetica,sans-Serif" font-size="10.00">isRunning()</text>
<text xml:space="preserve" text-anchor="start" x="452.5" y="-54.5" font-family="Helvetica,sans-Serif" font-size="10.00">+</text>
<text xml:space="preserve" text-anchor="start" x="462.5" y="-54.5" font-family="Helvetica,sans-Serif" font-size="10.00">broadcast()</text>
<text xml:space="preserve" text-anchor="start" x="452.5" y="-38.5" font-family="Helvetica,sans-Serif" font-size="10.00">+</text>
<text xml:space="preserve" text-anchor="start" x="462.5" y="-38.5" font-family="Helvetica,sans-Serif" font-size="10.00">broadcastRaw()</text>
<text xml:space="preserve" text-anchor="start" x="452.5" y="-22.5" font-family="Helvetica,sans-Serif" font-size="10.00">+</text>
<text xml:space="preserve" text-anchor="start" x="462.5" y="-22.5" font-family="Helvetica,sans-Serif" font-size="10.00">clientCount()</text>
<text xml:space="preserve" text-anchor="start" x="452.5" y="-6.5" font-family="Helvetica,sans-Serif" font-size="10.00">+</text>
<text xml:space="preserve" text-anchor="start" x="462.5" y="-6.5" font-family="Helvetica,sans-Serif" font-size="10.00">broadcastText()</text>
<polygon fill="#666666" stroke="#666666" points="448.5,-258 448.5,-258 577.5,-258 577.5,-258 448.5,-258"/>
<polygon fill="#666666" stroke="#666666" points="448.5,-178 448.5,-178 460.5,-178 460.5,-178 448.5,-178"/>
<polygon fill="#666666" stroke="#666666" points="460.5,-178 460.5,-178 577.5,-178 577.5,-178 460.5,-178"/>
<polygon fill="none" stroke="#666666" points="448.5,0 448.5,-276 577.5,-276 577.5,0 448.5,0"/>
</a>
</g>
</g>
<!-- Node2 -->
<g id="Node000002" class="node">
<title>Node2</title>
<g id="a_Node000002"><a xlink:title=" ">
<polygon fill="white" stroke="none" points="489.25,-394 356.75,-394 356.75,-330 489.25,-330 489.25,-394"/>
<text xml:space="preserve" text-anchor="start" x="360.75" y="-380.5" font-family="Helvetica,sans-Serif" font-size="10.00">std::shared_ptr&lt; WebSocket</text>
<text xml:space="preserve" text-anchor="start" x="401.25" y="-368.5" font-family="Helvetica,sans-Serif" font-size="10.00">Listener &gt;</text>
<text xml:space="preserve" text-anchor="start" x="421.5" y="-352.5" font-family="Helvetica,sans-Serif" font-size="10.00"> </text>
<text xml:space="preserve" text-anchor="start" x="376.81" y="-336.5" font-family="Helvetica,sans-Serif" font-size="10.00">+</text>
<text xml:space="preserve" text-anchor="start" x="402.88" y="-336.5" font-family="Helvetica,sans-Serif" font-size="10.00">operator&#45;&gt;()</text>
<polygon fill="#666666" stroke="#666666" points="356.75,-364 356.75,-364 489.25,-364 489.25,-364 356.75,-364"/>
<polygon fill="#666666" stroke="#666666" points="356.75,-348 356.75,-348 489.25,-348 489.25,-348 356.75,-348"/>
<polygon fill="none" stroke="#666666" points="356.75,-330 356.75,-394 489.25,-394 489.25,-330 356.75,-330"/>
</a>
</g>
</g>
<!-- Node2&#45;&gt;Node1 -->
<g id="edge1_Node000001_Node000002" class="edge">
<title>Node2&#45;&gt;Node1</title>
<g id="a_edge1_Node000001_Node000002"><a xlink:title=" ">
<path fill="none" stroke="#63b8ff" d="M435.51,-330.13C440.37,-318.15 446.31,-303.5 452.72,-287.69"/>
<polygon fill="none" stroke="#63b8ff" points="452.62,-287.95 451.16,-280.89 457.12,-276.83 458.58,-283.89 452.62,-287.95"/>
</a>
</g>
<text xml:space="preserve" text-anchor="start" x="452.59" y="-299.5" font-family="Helvetica,sans-Serif" font-size="10.00" fill="grey">&#45;listener_</text>
</g>
<!-- Node3 -->
<g id="Node000003" class="node">
<title>Node3</title>
<g id="a_Node000003"><a xlink:href="class_web_socket_listener.html" target="_top" xlink:title="Listens for and accepts incoming WebSocket connections.">
<polygon fill="white" stroke="none" points="438.38,-596 329.62,-596 329.62,-448 438.38,-448 438.38,-596"/>
<text xml:space="preserve" text-anchor="start" x="341.62" y="-582.5" font-family="Helvetica,sans-Serif" font-size="10.00">WebSocketListener</text>
<text xml:space="preserve" text-anchor="start" x="335.12" y="-566.5" font-family="Helvetica,sans-Serif" font-size="10.00">&#45;</text>
<text xml:space="preserve" text-anchor="start" x="343.62" y="-566.5" font-family="Helvetica,sans-Serif" font-size="10.00">ioc_</text>
<text xml:space="preserve" text-anchor="start" x="335.12" y="-550.5" font-family="Helvetica,sans-Serif" font-size="10.00">&#45;</text>
<text xml:space="preserve" text-anchor="start" x="343.62" y="-550.5" font-family="Helvetica,sans-Serif" font-size="10.00">acceptor_</text>
<text xml:space="preserve" text-anchor="start" x="335.12" y="-534.5" font-family="Helvetica,sans-Serif" font-size="10.00">&#45;</text>
<text xml:space="preserve" text-anchor="start" x="343.62" y="-534.5" font-family="Helvetica,sans-Serif" font-size="10.00">cmdHandler_</text>
<text xml:space="preserve" text-anchor="start" x="335.12" y="-518.5" font-family="Helvetica,sans-Serif" font-size="10.00">&#45;</text>
<text xml:space="preserve" text-anchor="start" x="343.62" y="-518.5" font-family="Helvetica,sans-Serif" font-size="10.00">actionHandler_</text>
<text xml:space="preserve" text-anchor="start" x="333.62" y="-502.5" font-family="Helvetica,sans-Serif" font-size="10.00">+</text>
<text xml:space="preserve" text-anchor="start" x="343.62" y="-502.5" font-family="Helvetica,sans-Serif" font-size="10.00">WebSocketListener()</text>
<text xml:space="preserve" text-anchor="start" x="333.62" y="-486.5" font-family="Helvetica,sans-Serif" font-size="10.00">+</text>
<text xml:space="preserve" text-anchor="start" x="343.62" y="-486.5" font-family="Helvetica,sans-Serif" font-size="10.00">run()</text>
<text xml:space="preserve" text-anchor="start" x="335.12" y="-470.5" font-family="Helvetica,sans-Serif" font-size="10.00">&#45;</text>
<text xml:space="preserve" text-anchor="start" x="343.62" y="-470.5" font-family="Helvetica,sans-Serif" font-size="10.00">do_accept()</text>
<text xml:space="preserve" text-anchor="start" x="335.12" y="-454.5" font-family="Helvetica,sans-Serif" font-size="10.00">&#45;</text>
<text xml:space="preserve" text-anchor="start" x="343.62" y="-454.5" font-family="Helvetica,sans-Serif" font-size="10.00">on_accept()</text>
<polygon fill="#666666" stroke="#666666" points="329.62,-578 329.62,-578 438.38,-578 438.38,-578 329.62,-578"/>
<polygon fill="#666666" stroke="#666666" points="329.62,-514 329.62,-514 341.62,-514 341.62,-514 329.62,-514"/>
<polygon fill="#666666" stroke="#666666" points="341.62,-514 341.62,-514 438.38,-514 438.38,-514 341.62,-514"/>
<polygon fill="none" stroke="#666666" points="329.62,-448 329.62,-596 438.38,-596 438.38,-448 329.62,-448"/>
</a>
</g>
</g>
<!-- Node3&#45;&gt;Node2 -->
<g id="edge2_Node000002_Node000003" class="edge">
<title>Node3&#45;&gt;Node2</title>
<g id="a_edge2_Node000002_Node000003"><a xlink:title=" ">
<path fill="none" stroke="#63b8ff" d="M402.02,-448.01C405.55,-433.7 409.15,-419.12 412.34,-406.18"/>
<polygon fill="none" stroke="#63b8ff" points="412.3,-406.37 409.85,-399.58 415.17,-394.72 417.62,-401.5 412.3,-406.37"/>
</a>
</g>
<text xml:space="preserve" text-anchor="start" x="413.39" y="-417.5" font-family="Helvetica,sans-Serif" font-size="10.00" fill="grey">+ptr</text>
</g>
<!-- Node4 -->
<g id="Node000004" class="node">
<title>Node4</title>
<g id="a_Node000004"><a xlink:title=" ">
<polygon fill="white" stroke="none" points="456.25,-732 299.75,-732 299.75,-668 456.25,-668 456.25,-732"/>
<text xml:space="preserve" text-anchor="start" x="303.75" y="-718.5" font-family="Helvetica,sans-Serif" font-size="10.00">std::enable_shared</text>
<text xml:space="preserve" text-anchor="start" x="303.75" y="-706.5" font-family="Helvetica,sans-Serif" font-size="10.00">_from_this&lt; WebSocketListener &gt;</text>
<text xml:space="preserve" text-anchor="start" x="376.5" y="-690.5" font-family="Helvetica,sans-Serif" font-size="10.00"> </text>
<text xml:space="preserve" text-anchor="start" x="376.5" y="-674.5" font-family="Helvetica,sans-Serif" font-size="10.00"> </text>
<polygon fill="#666666" stroke="#666666" points="299.75,-702 299.75,-702 456.25,-702 456.25,-702 299.75,-702"/>
<polygon fill="#666666" stroke="#666666" points="299.75,-686 299.75,-686 456.25,-686 456.25,-686 299.75,-686"/>
<polygon fill="none" stroke="#666666" points="299.75,-668 299.75,-732 456.25,-732 456.25,-668 299.75,-668"/>
</a>
</g>
</g>
<!-- Node4&#45;&gt;Node3 -->
<g id="edge3_Node000003_Node000004" class="edge">
<title>Node4&#45;&gt;Node3</title>
<g id="a_edge3_Node000003_Node000004"><a xlink:title=" ">
<path fill="none" stroke="#63b8ff" d="M379.44,-656.88C380.06,-638.55 380.81,-616.53 381.52,-595.7"/>
<polygon fill="none" stroke="#63b8ff" points="375.94,-656.72 379.1,-666.83 382.94,-656.96 375.94,-656.72"/>
</a>
</g>
</g>
<!-- Node5 -->
<g id="Node000005" class="node">
<title>Node5</title>
<g id="a_Node000005"><a xlink:href="class_s_e_r_database.html" target="_top" xlink:title="SQLite database handler for storing and retrieving SER records.">
<polygon fill="white" stroke="none" points="541.38,-1822 426.62,-1822 426.62,-1466 541.38,-1466 541.38,-1822"/>
<text xml:space="preserve" text-anchor="start" x="452.5" y="-1808.5" font-family="Helvetica,sans-Serif" font-size="10.00">SERDatabase</text>
<text xml:space="preserve" text-anchor="start" x="432.12" y="-1792.5" font-family="Helvetica,sans-Serif" font-size="10.00">&#45;</text>
<text xml:space="preserve" text-anchor="start" x="440.62" y="-1792.5" font-family="Helvetica,sans-Serif" font-size="10.00">db_</text>
<text xml:space="preserve" text-anchor="start" x="430.62" y="-1776.5" font-family="Helvetica,sans-Serif" font-size="10.00">+</text>
<text xml:space="preserve" text-anchor="start" x="440.62" y="-1776.5" font-family="Helvetica,sans-Serif" font-size="10.00">SERDatabase()</text>
<text xml:space="preserve" text-anchor="start" x="430.62" y="-1760.5" font-family="Helvetica,sans-Serif" font-size="10.00">+</text>
<text xml:space="preserve" text-anchor="start" x="440.62" y="-1760.5" font-family="Helvetica,sans-Serif" font-size="10.00">~SERDatabase()</text>
<text xml:space="preserve" text-anchor="start" x="430.62" y="-1744.5" font-family="Helvetica,sans-Serif" font-size="10.00">+</text>
<text xml:space="preserve" text-anchor="start" x="440.62" y="-1744.5" font-family="Helvetica,sans-Serif" font-size="10.00">open()</text>
<text xml:space="preserve" text-anchor="start" x="430.62" y="-1728.5" font-family="Helvetica,sans-Serif" font-size="10.00">+</text>
<text xml:space="preserve" text-anchor="start" x="440.62" y="-1728.5" font-family="Helvetica,sans-Serif" font-size="10.00">close()</text>
<text xml:space="preserve" text-anchor="start" x="430.62" y="-1712.5" font-family="Helvetica,sans-Serif" font-size="10.00">+</text>
<text xml:space="preserve" text-anchor="start" x="440.62" y="-1712.5" font-family="Helvetica,sans-Serif" font-size="10.00">isOpen()</text>
<text xml:space="preserve" text-anchor="start" x="430.62" y="-1696.5" font-family="Helvetica,sans-Serif" font-size="10.00">+</text>
<text xml:space="preserve" text-anchor="start" x="440.62" y="-1696.5" font-family="Helvetica,sans-Serif" font-size="10.00">insertRecord()</text>
<text xml:space="preserve" text-anchor="start" x="430.62" y="-1680.5" font-family="Helvetica,sans-Serif" font-size="10.00">+</text>
<text xml:space="preserve" text-anchor="start" x="440.62" y="-1680.5" font-family="Helvetica,sans-Serif" font-size="10.00">insertRecords()</text>
<text xml:space="preserve" text-anchor="start" x="430.62" y="-1664.5" font-family="Helvetica,sans-Serif" font-size="10.00">+</text>
<text xml:space="preserve" text-anchor="start" x="440.62" y="-1664.5" font-family="Helvetica,sans-Serif" font-size="10.00">getAllRecords()</text>
<text xml:space="preserve" text-anchor="start" x="430.62" y="-1648.5" font-family="Helvetica,sans-Serif" font-size="10.00">+</text>
<text xml:space="preserve" text-anchor="start" x="440.62" y="-1648.5" font-family="Helvetica,sans-Serif" font-size="10.00">getRecordsByStatus()</text>
<text xml:space="preserve" text-anchor="start" x="430.62" y="-1632.5" font-family="Helvetica,sans-Serif" font-size="10.00">+</text>
<text xml:space="preserve" text-anchor="start" x="440.62" y="-1632.5" font-family="Helvetica,sans-Serif" font-size="10.00">getRecordCount()</text>
<text xml:space="preserve" text-anchor="start" x="430.62" y="-1616.5" font-family="Helvetica,sans-Serif" font-size="10.00">+</text>
<text xml:space="preserve" text-anchor="start" x="440.62" y="-1616.5" font-family="Helvetica,sans-Serif" font-size="10.00">clearAllRecords()</text>
<text xml:space="preserve" text-anchor="start" x="430.62" y="-1600.5" font-family="Helvetica,sans-Serif" font-size="10.00">+</text>
<text xml:space="preserve" text-anchor="start" x="440.62" y="-1600.5" font-family="Helvetica,sans-Serif" font-size="10.00">exportToJSON()</text>
<text xml:space="preserve" text-anchor="start" x="430.62" y="-1584.5" font-family="Helvetica,sans-Serif" font-size="10.00">+</text>
<text xml:space="preserve" text-anchor="start" x="440.62" y="-1584.5" font-family="Helvetica,sans-Serif" font-size="10.00">getLastError()</text>
<text xml:space="preserve" text-anchor="start" x="430.62" y="-1568.5" font-family="Helvetica,sans-Serif" font-size="10.00">+</text>
<text xml:space="preserve" text-anchor="start" x="440.62" y="-1568.5" font-family="Helvetica,sans-Serif" font-size="10.00">getDbHandle()</text>
<text xml:space="preserve" text-anchor="start" x="430.62" y="-1552.5" font-family="Helvetica,sans-Serif" font-size="10.00">+</text>
<text xml:space="preserve" text-anchor="start" x="440.62" y="-1552.5" font-family="Helvetica,sans-Serif" font-size="10.00">SERDatabase()</text>
<text xml:space="preserve" text-anchor="start" x="430.62" y="-1536.5" font-family="Helvetica,sans-Serif" font-size="10.00">+</text>
<text xml:space="preserve" text-anchor="start" x="440.62" y="-1536.5" font-family="Helvetica,sans-Serif" font-size="10.00">operator=()</text>
<text xml:space="preserve" text-anchor="start" x="432.12" y="-1520.5" font-family="Helvetica,sans-Serif" font-size="10.00">&#45;</text>
<text xml:space="preserve" text-anchor="start" x="440.62" y="-1520.5" font-family="Helvetica,sans-Serif" font-size="10.00">createTable()</text>
<text xml:space="preserve" text-anchor="start" x="432.12" y="-1504.5" font-family="Helvetica,sans-Serif" font-size="10.00">&#45;</text>
<text xml:space="preserve" text-anchor="start" x="440.62" y="-1504.5" font-family="Helvetica,sans-Serif" font-size="10.00">recordExists()</text>
<text xml:space="preserve" text-anchor="start" x="431.75" y="-1488.5" font-family="Helvetica,sans-Serif" font-size="10.00">*</text>
<text xml:space="preserve" text-anchor="start" x="440.62" y="-1488.5" font-family="Helvetica,sans-Serif" font-size="10.00">SERDatabase()</text>
<text xml:space="preserve" text-anchor="start" x="431.75" y="-1472.5" font-family="Helvetica,sans-Serif" font-size="10.00">*</text>
<text xml:space="preserve" text-anchor="start" x="440.62" y="-1472.5" font-family="Helvetica,sans-Serif" font-size="10.00">operator=()</text>
<polygon fill="#666666" stroke="#666666" points="426.62,-1804 426.62,-1804 541.38,-1804 541.38,-1804 426.62,-1804"/>
<polygon fill="#666666" stroke="#666666" points="426.62,-1788 426.62,-1788 438.62,-1788 438.62,-1788 426.62,-1788"/>
<polygon fill="#666666" stroke="#666666" points="438.62,-1788 438.62,-1788 541.38,-1788 541.38,-1788 438.62,-1788"/>
<polygon fill="none" stroke="#666666" points="426.62,-1466 426.62,-1822 541.38,-1822 541.38,-1466 426.62,-1466"/>
</a>
</g>
</g>
<!-- Node5&#45;&gt;Node1 -->
<g id="edge18_Node000001_Node000005" class="edge">
<title>Node5&#45;&gt;Node1</title>
<g id="a_edge18_Node000001_Node000005"><a xlink:title=" ">
<path fill="none" stroke="#63b8ff" d="M508.16,-1466.2C516.6,-1390.26 524,-1300.42 524,-1219 524,-1219 524,-1219 524,-361 524,-337.61 523.38,-312.86 522.44,-288.69"/>
<polygon fill="none" stroke="#63b8ff" points="522.44,-288.62 518.19,-282.79 521.94,-276.63 526.19,-282.46 522.44,-288.62"/>
</a>
</g>
<text xml:space="preserve" text-anchor="start" x="527" y="-773.5" font-family="Helvetica,sans-Serif" font-size="10.00" fill="grey">&#45;db_</text>
</g>
<!-- Node5&#45;&gt;Node3 -->
<g id="edge4_Node000003_Node000005" class="edge">
<title>Node5&#45;&gt;Node3</title>
<g id="a_edge4_Node000003_Node000005"><a xlink:title=" ">
<path fill="none" stroke="#63b8ff" d="M484,-1466.1C484,-1390.05 484,-1300.16 484,-1219 484,-1219 484,-1219 484,-699 484,-660.96 466.12,-623.63 445.49,-593.2"/>
<polygon fill="none" stroke="#63b8ff" points="445.54,-593.27 438.81,-590.68 438.62,-583.47 445.35,-586.07 445.54,-593.27"/>
</a>
</g>
<text xml:space="preserve" text-anchor="start" x="487" y="-891.5" font-family="Helvetica,sans-Serif" font-size="10.00" fill="grey">&#45;db_</text>
</g>
<!-- Node12 -->
<g id="Node000012" class="node">
<title>Node12</title>
<g id="a_Node000012"><a xlink:href="class_web_socket_session.html" target="_top" xlink:title="Handles a single WebSocket client connection.">
<polygon fill="white" stroke="none" points="282.75,-1396 167.25,-1396 167.25,-1040 282.75,-1040 282.75,-1396"/>
<text xml:space="preserve" text-anchor="start" x="182.25" y="-1382.5" font-family="Helvetica,sans-Serif" font-size="10.00">WebSocketSession</text>
<text xml:space="preserve" text-anchor="start" x="172.75" y="-1366.5" font-family="Helvetica,sans-Serif" font-size="10.00">&#45;</text>
<text xml:space="preserve" text-anchor="start" x="181.25" y="-1366.5" font-family="Helvetica,sans-Serif" font-size="10.00">ws_</text>
<text xml:space="preserve" text-anchor="start" x="172.75" y="-1350.5" font-family="Helvetica,sans-Serif" font-size="10.00">&#45;</text>
<text xml:space="preserve" text-anchor="start" x="181.25" y="-1350.5" font-family="Helvetica,sans-Serif" font-size="10.00">buffer_</text>
<text xml:space="preserve" text-anchor="start" x="172.75" y="-1334.5" font-family="Helvetica,sans-Serif" font-size="10.00">&#45;</text>
<text xml:space="preserve" text-anchor="start" x="181.25" y="-1334.5" font-family="Helvetica,sans-Serif" font-size="10.00">writing_</text>
<text xml:space="preserve" text-anchor="start" x="172.75" y="-1318.5" font-family="Helvetica,sans-Serif" font-size="10.00">&#45;</text>
<text xml:space="preserve" text-anchor="start" x="181.25" y="-1318.5" font-family="Helvetica,sans-Serif" font-size="10.00">pending_read_</text>
<text xml:space="preserve" text-anchor="start" x="172.75" y="-1302.5" font-family="Helvetica,sans-Serif" font-size="10.00">&#45;</text>
<text xml:space="preserve" text-anchor="start" x="181.25" y="-1302.5" font-family="Helvetica,sans-Serif" font-size="10.00">cmdHandler_</text>
<text xml:space="preserve" text-anchor="start" x="172.75" y="-1286.5" font-family="Helvetica,sans-Serif" font-size="10.00">&#45;</text>
<text xml:space="preserve" text-anchor="start" x="181.25" y="-1286.5" font-family="Helvetica,sans-Serif" font-size="10.00">actionHandler_</text>
<text xml:space="preserve" text-anchor="start" x="171.25" y="-1270.5" font-family="Helvetica,sans-Serif" font-size="10.00">+</text>
<text xml:space="preserve" text-anchor="start" x="181.25" y="-1270.5" font-family="Helvetica,sans-Serif" font-size="10.00">WebSocketSession()</text>
<text xml:space="preserve" text-anchor="start" x="171.25" y="-1254.5" font-family="Helvetica,sans-Serif" font-size="10.00">+</text>
<text xml:space="preserve" text-anchor="start" x="181.25" y="-1254.5" font-family="Helvetica,sans-Serif" font-size="10.00">~WebSocketSession()</text>
<text xml:space="preserve" text-anchor="start" x="171.25" y="-1238.5" font-family="Helvetica,sans-Serif" font-size="10.00">+</text>
<text xml:space="preserve" text-anchor="start" x="181.25" y="-1238.5" font-family="Helvetica,sans-Serif" font-size="10.00">sendBroadcast()</text>
<text xml:space="preserve" text-anchor="start" x="171.25" y="-1222.5" font-family="Helvetica,sans-Serif" font-size="10.00">+</text>
<text xml:space="preserve" text-anchor="start" x="181.25" y="-1222.5" font-family="Helvetica,sans-Serif" font-size="10.00">sendTextBroadcast()</text>
<text xml:space="preserve" text-anchor="start" x="171.25" y="-1206.5" font-family="Helvetica,sans-Serif" font-size="10.00">+</text>
<text xml:space="preserve" text-anchor="start" x="181.25" y="-1206.5" font-family="Helvetica,sans-Serif" font-size="10.00">run()</text>
<text xml:space="preserve" text-anchor="start" x="172.75" y="-1190.5" font-family="Helvetica,sans-Serif" font-size="10.00">&#45;</text>
<text xml:space="preserve" text-anchor="start" x="181.25" y="-1190.5" font-family="Helvetica,sans-Serif" font-size="10.00">on_accept()</text>
<text xml:space="preserve" text-anchor="start" x="172.75" y="-1174.5" font-family="Helvetica,sans-Serif" font-size="10.00">&#45;</text>
<text xml:space="preserve" text-anchor="start" x="181.25" y="-1174.5" font-family="Helvetica,sans-Serif" font-size="10.00">do_broadcast()</text>
<text xml:space="preserve" text-anchor="start" x="172.75" y="-1158.5" font-family="Helvetica,sans-Serif" font-size="10.00">&#45;</text>
<text xml:space="preserve" text-anchor="start" x="181.25" y="-1158.5" font-family="Helvetica,sans-Serif" font-size="10.00">on_broadcast_write()</text>
<text xml:space="preserve" text-anchor="start" x="172.75" y="-1142.5" font-family="Helvetica,sans-Serif" font-size="10.00">&#45;</text>
<text xml:space="preserve" text-anchor="start" x="181.25" y="-1142.5" font-family="Helvetica,sans-Serif" font-size="10.00">do_read()</text>
<text xml:space="preserve" text-anchor="start" x="172.75" y="-1126.5" font-family="Helvetica,sans-Serif" font-size="10.00">&#45;</text>
<text xml:space="preserve" text-anchor="start" x="181.25" y="-1126.5" font-family="Helvetica,sans-Serif" font-size="10.00">on_read()</text>
<text xml:space="preserve" text-anchor="start" x="172.75" y="-1110.5" font-family="Helvetica,sans-Serif" font-size="10.00">&#45;</text>
<text xml:space="preserve" text-anchor="start" x="181.25" y="-1110.5" font-family="Helvetica,sans-Serif" font-size="10.00">sendData()</text>
<text xml:space="preserve" text-anchor="start" x="172.75" y="-1094.5" font-family="Helvetica,sans-Serif" font-size="10.00">&#45;</text>
<text xml:space="preserve" text-anchor="start" x="181.25" y="-1094.5" font-family="Helvetica,sans-Serif" font-size="10.00">on_write()</text>
<text xml:space="preserve" text-anchor="start" x="172.75" y="-1078.5" font-family="Helvetica,sans-Serif" font-size="10.00">&#45;</text>
<text xml:space="preserve" text-anchor="start" x="181.25" y="-1078.5" font-family="Helvetica,sans-Serif" font-size="10.00">sendTextResponse()</text>
<text xml:space="preserve" text-anchor="start" x="172.75" y="-1062.5" font-family="Helvetica,sans-Serif" font-size="10.00">&#45;</text>
<text xml:space="preserve" text-anchor="start" x="181.25" y="-1062.5" font-family="Helvetica,sans-Serif" font-size="10.00">isJsonAction()</text>
<text xml:space="preserve" text-anchor="start" x="172.75" y="-1046.5" font-family="Helvetica,sans-Serif" font-size="10.00">&#45;</text>
<text xml:space="preserve" text-anchor="start" x="181.25" y="-1046.5" font-family="Helvetica,sans-Serif" font-size="10.00">extractAction()</text>
<polygon fill="#666666" stroke="#666666" points="167.25,-1378 167.25,-1378 282.75,-1378 282.75,-1378 167.25,-1378"/>
<polygon fill="#666666" stroke="#666666" points="167.25,-1282 167.25,-1282 179.25,-1282 179.25,-1282 167.25,-1282"/>
<polygon fill="#666666" stroke="#666666" points="179.25,-1282 179.25,-1282 282.75,-1282 282.75,-1282 179.25,-1282"/>
<polygon fill="none" stroke="#666666" points="167.25,-1040 167.25,-1396 282.75,-1396 282.75,-1040 167.25,-1040"/>
</a>
</g>
</g>
<!-- Node5&#45;&gt;Node12 -->
<g id="edge13_Node000012_Node000005" class="edge">
<title>Node5&#45;&gt;Node12</title>
<g id="a_edge13_Node000012_Node000005"><a xlink:title=" ">
<path fill="none" stroke="#63b8ff" d="M426.69,-1484.56C423.85,-1478.25 420.95,-1472.04 418,-1466 385.49,-1399.44 332.99,-1333.82 290.94,-1286.97"/>
<polygon fill="none" stroke="#63b8ff" points="291.08,-1287.12 284.08,-1285.36 283.02,-1278.23 290.01,-1279.99 291.08,-1287.12"/>
</a>
</g>
<text xml:space="preserve" text-anchor="start" x="409.28" y="-1427.5" font-family="Helvetica,sans-Serif" font-size="10.00" fill="grey">&#45;db_</text>
</g>
<!-- Node6 -->
<g id="Node000006" class="node">
<title>Node6</title>
<g id="a_Node000006"><a xlink:title=" ">
<polygon fill="white" stroke="none" points="68.75,-1944 17.25,-1944 17.25,-1892 68.75,-1892 68.75,-1944"/>
<text xml:space="preserve" text-anchor="start" x="21.25" y="-1930.5" font-family="Helvetica,sans-Serif" font-size="10.00">std::string</text>
<text xml:space="preserve" text-anchor="start" x="41.5" y="-1914.5" font-family="Helvetica,sans-Serif" font-size="10.00"> </text>
<text xml:space="preserve" text-anchor="start" x="41.5" y="-1898.5" font-family="Helvetica,sans-Serif" font-size="10.00"> </text>
<polygon fill="#666666" stroke="#666666" points="17.25,-1926 17.25,-1926 68.75,-1926 68.75,-1926 17.25,-1926"/>
<polygon fill="#666666" stroke="#666666" points="17.25,-1910 17.25,-1910 68.75,-1910 68.75,-1910 17.25,-1910"/>
<polygon fill="none" stroke="#666666" points="17.25,-1892 17.25,-1944 68.75,-1944 68.75,-1892 17.25,-1892"/>
</a>
</g>
</g>
<!-- Node6&#45;&gt;Node5 -->
<g id="edge5_Node000005_Node000006" class="edge">
<title>Node6&#45;&gt;Node5</title>
<g id="a_edge5_Node000005_Node000006"><a xlink:title=" ">
<path fill="none" stroke="#63b8ff" d="M68.53,-1913.65C140.49,-1903.76 343.95,-1872.61 416.62,-1821.39"/>
<polygon fill="none" stroke="#63b8ff" points="416.64,-1821.38 418.85,-1814.51 426.04,-1813.91 423.83,-1820.77 416.64,-1821.38"/>
</a>
</g>
<text xml:space="preserve" text-anchor="start" x="388.25" y="-1861.5" font-family="Helvetica,sans-Serif" font-size="10.00" fill="grey">&#45;db_path_</text>
<text xml:space="preserve" text-anchor="start" x="388.25" y="-1845.5" font-family="Helvetica,sans-Serif" font-size="10.00" fill="grey">&#45;last_error_</text>
</g>
<!-- Node6&#45;&gt;Node12 -->
<g id="edge16_Node000012_Node000006" class="edge">
<title>Node6&#45;&gt;Node12</title>
<g id="a_edge16_Node000012_Node000006"><a xlink:title=" ">
<path fill="none" stroke="#63b8ff" d="M36.93,-1892.15C21.1,-1822.54 -16.68,-1620.63 35.75,-1466 60.01,-1394.44 114.25,-1327.35 158.47,-1281.2"/>
<polygon fill="none" stroke="#63b8ff" points="158.46,-1281.21 159.78,-1274.12 166.83,-1272.61 165.51,-1279.7 158.46,-1281.21"/>
</a>
</g>
<text xml:space="preserve" text-anchor="start" x="38.75" y="-1640.5" font-family="Helvetica,sans-Serif" font-size="10.00" fill="grey">&#45;text_write_buffer_</text>
</g>
<!-- Node7 -->
<g id="Node000007" class="node">
<title>Node7</title>
<g id="a_Node000007"><a xlink:title=" ">
<polygon fill="white" stroke="none" points="86,-2045 0,-2045 0,-1981 86,-1981 86,-2045"/>
<text xml:space="preserve" text-anchor="start" x="4" y="-2031.5" font-family="Helvetica,sans-Serif" font-size="10.00">std::basic_string&lt;</text>
<text xml:space="preserve" text-anchor="start" x="26.5" y="-2019.5" font-family="Helvetica,sans-Serif" font-size="10.00"> Char &gt;</text>
<text xml:space="preserve" text-anchor="start" x="41.5" y="-2003.5" font-family="Helvetica,sans-Serif" font-size="10.00"> </text>
<text xml:space="preserve" text-anchor="start" x="41.5" y="-1987.5" font-family="Helvetica,sans-Serif" font-size="10.00"> </text>
<polygon fill="#666666" stroke="#666666" points="0,-2015 0,-2015 86,-2015 86,-2015 0,-2015"/>
<polygon fill="#666666" stroke="#666666" points="0,-1999 0,-1999 86,-1999 86,-1999 0,-1999"/>
<polygon fill="none" stroke="#666666" points="0,-1981 0,-2045 86,-2045 86,-1981 0,-1981"/>
</a>
</g>
</g>
<!-- Node7&#45;&gt;Node6 -->
<g id="edge6_Node000006_Node000007" class="edge">
<title>Node7&#45;&gt;Node6</title>
<g id="a_edge6_Node000006_Node000007"><a xlink:title=" ">
<path fill="none" stroke="#63b8ff" d="M43,-1969.69C43,-1960.89 43,-1951.89 43,-1943.96"/>
<polygon fill="none" stroke="#63b8ff" points="39.5,-1969.52 43,-1979.52 46.5,-1969.52 39.5,-1969.52"/>
</a>
</g>
</g>
<!-- Node8 -->
<g id="Node000008" class="node">
<title>Node8</title>
<g id="a_Node000008"><a xlink:href="class_session_manager.html" target="_top" xlink:title="Manages all active WebSocket sessions for broadcast.">
<polygon fill="white" stroke="none" points="281.38,-750 200.62,-750 200.62,-650 281.38,-650 281.38,-750"/>
<text xml:space="preserve" text-anchor="start" x="204.62" y="-736.5" font-family="Helvetica,sans-Serif" font-size="10.00">SessionManager</text>
<text xml:space="preserve" text-anchor="start" x="239.5" y="-720.5" font-family="Helvetica,sans-Serif" font-size="10.00"> </text>
<text xml:space="preserve" text-anchor="start" x="205.31" y="-704.5" font-family="Helvetica,sans-Serif" font-size="10.00">+</text>
<text xml:space="preserve" text-anchor="start" x="216" y="-704.5" font-family="Helvetica,sans-Serif" font-size="10.00">add()</text>
<text xml:space="preserve" text-anchor="start" x="205.31" y="-688.5" font-family="Helvetica,sans-Serif" font-size="10.00">+</text>
<text xml:space="preserve" text-anchor="start" x="216" y="-688.5" font-family="Helvetica,sans-Serif" font-size="10.00">remove()</text>
<text xml:space="preserve" text-anchor="start" x="205.31" y="-672.5" font-family="Helvetica,sans-Serif" font-size="10.00">+</text>
<text xml:space="preserve" text-anchor="start" x="216" y="-672.5" font-family="Helvetica,sans-Serif" font-size="10.00">getSessions()</text>
<text xml:space="preserve" text-anchor="start" x="205.31" y="-656.5" font-family="Helvetica,sans-Serif" font-size="10.00">+</text>
<text xml:space="preserve" text-anchor="start" x="216" y="-656.5" font-family="Helvetica,sans-Serif" font-size="10.00">count()</text>
<polygon fill="#666666" stroke="#666666" points="200.62,-732 200.62,-732 281.38,-732 281.38,-732 200.62,-732"/>
<polygon fill="#666666" stroke="#666666" points="200.62,-716 200.62,-716 281.38,-716 281.38,-716 200.62,-716"/>
<polygon fill="none" stroke="#666666" points="200.62,-650 200.62,-750 281.38,-750 281.38,-650 200.62,-650"/>
</a>
</g>
</g>
<!-- Node8&#45;&gt;Node1 -->
<g id="edge19_Node000001_Node000008" class="edge">
<title>Node8&#45;&gt;Node1</title>
<g id="a_edge19_Node000001_Node000008"><a xlink:title=" ">
<path fill="none" stroke="#63b8ff" d="M248.29,-650.17C260.68,-577.02 290.32,-436.25 348,-330 371.98,-285.82 407.6,-242.89 439.62,-208.95"/>
<polygon fill="none" stroke="#63b8ff" points="439.62,-208.94 440.88,-201.84 447.91,-200.27 446.66,-207.37 439.62,-208.94"/>
</a>
</g>
<text xml:space="preserve" text-anchor="start" x="312.84" y="-417.5" font-family="Helvetica,sans-Serif" font-size="10.00" fill="grey">&#45;sessionMgr_</text>
</g>
<!-- Node8&#45;&gt;Node3 -->
<g id="edge7_Node000003_Node000008" class="edge">
<title>Node8&#45;&gt;Node3</title>
<g id="a_edge7_Node000003_Node000008"><a xlink:title=" ">
<path fill="none" stroke="#63b8ff" d="M280.45,-650.44C293.17,-634.79 307.59,-617.04 321.54,-599.87"/>
<polygon fill="none" stroke="#63b8ff" points="321.55,-599.86 322.23,-592.68 329.12,-590.54 328.44,-597.72 321.55,-599.86"/>
</a>
</g>
<text xml:space="preserve" text-anchor="start" x="311.21" y="-619.5" font-family="Helvetica,sans-Serif" font-size="10.00" fill="grey">&#45;sessionMgr_</text>
</g>
<!-- Node8&#45;&gt;Node12 -->
<g id="edge14_Node000012_Node000008" class="edge">
<title>Node8&#45;&gt;Node12</title>
<g id="a_edge14_Node000012_Node000008"><a xlink:title=" ">
<path fill="none" stroke="#63b8ff" d="M200.67,-741.45C185.8,-759.12 170.71,-781.04 163,-804 136.92,-881.64 145.93,-971.17 164.14,-1046.99"/>
<polygon fill="none" stroke="#63b8ff" points="164.14,-1047 169.47,-1051.86 167.04,-1058.65 161.71,-1053.79 164.14,-1047"/>
</a>
</g>
<text xml:space="preserve" text-anchor="start" x="150.42" y="-891.5" font-family="Helvetica,sans-Serif" font-size="10.00" fill="grey">&#45;sessionMgr_</text>
</g>
<!-- Node9 -->
<g id="Node000009" class="node">
<title>Node9</title>
<g id="a_Node000009"><a xlink:title=" ">
<polygon fill="white" stroke="none" points="382.25,-862 327.75,-862 327.75,-810 382.25,-810 382.25,-862"/>
<text xml:space="preserve" text-anchor="start" x="331.75" y="-848.5" font-family="Helvetica,sans-Serif" font-size="10.00">std::mutex</text>
<text xml:space="preserve" text-anchor="start" x="353.5" y="-832.5" font-family="Helvetica,sans-Serif" font-size="10.00"> </text>
<text xml:space="preserve" text-anchor="start" x="353.5" y="-816.5" font-family="Helvetica,sans-Serif" font-size="10.00"> </text>
<polygon fill="#666666" stroke="#666666" points="327.75,-844 327.75,-844 382.25,-844 382.25,-844 327.75,-844"/>
<polygon fill="#666666" stroke="#666666" points="327.75,-828 327.75,-828 382.25,-828 382.25,-828 327.75,-828"/>
<polygon fill="none" stroke="#666666" points="327.75,-810 327.75,-862 382.25,-862 382.25,-810 327.75,-810"/>
</a>
</g>
</g>
<!-- Node9&#45;&gt;Node8 -->
<g id="edge8_Node000008_Node000009" class="edge">
<title>Node9&#45;&gt;Node8</title>
<g id="a_edge8_Node000008_Node000009"><a xlink:title=" ">
<path fill="none" stroke="#63b8ff" d="M333.82,-810.11C321.33,-795.42 304.96,-776.18 289.46,-757.96"/>
<polygon fill="none" stroke="#63b8ff" points="289.57,-758.09 282.64,-756.12 281.8,-748.95 288.73,-750.93 289.57,-758.09"/>
</a>
</g>
<text xml:space="preserve" text-anchor="start" x="314.56" y="-773.5" font-family="Helvetica,sans-Serif" font-size="10.00" fill="grey">&#45;mutex_</text>
</g>
<!-- Node10 -->
<g id="Node000010" class="node">
<title>Node10</title>
<g id="a_Node000010"><a xlink:title=" ">
<polygon fill="white" stroke="none" points="309.5,-868 172.5,-868 172.5,-804 309.5,-804 309.5,-868"/>
<text xml:space="preserve" text-anchor="start" x="176.5" y="-854.5" font-family="Helvetica,sans-Serif" font-size="10.00">std::set&lt; std::shared</text>
<text xml:space="preserve" text-anchor="start" x="176.5" y="-842.5" font-family="Helvetica,sans-Serif" font-size="10.00">_ptr&lt; WebSocketSession &gt; &gt;</text>
<text xml:space="preserve" text-anchor="start" x="239.5" y="-826.5" font-family="Helvetica,sans-Serif" font-size="10.00"> </text>
<text xml:space="preserve" text-anchor="start" x="239.5" y="-810.5" font-family="Helvetica,sans-Serif" font-size="10.00"> </text>
<polygon fill="#666666" stroke="#666666" points="172.5,-838 172.5,-838 309.5,-838 309.5,-838 172.5,-838"/>
<polygon fill="#666666" stroke="#666666" points="172.5,-822 172.5,-822 309.5,-822 309.5,-822 172.5,-822"/>
<polygon fill="none" stroke="#666666" points="172.5,-804 172.5,-868 309.5,-868 309.5,-804 172.5,-804"/>
</a>
</g>
</g>
<!-- Node10&#45;&gt;Node8 -->
<g id="edge9_Node000008_Node000010" class="edge">
<title>Node10&#45;&gt;Node8</title>
<g id="a_edge9_Node000008_Node000010"><a xlink:title=" ">
<path fill="none" stroke="#63b8ff" d="M241,-804.26C241,-791.95 241,-777.31 241,-762.98"/>
<polygon fill="none" stroke="#63b8ff" points="241,-762.88 237,-756.88 241,-750.88 245,-756.88 241,-762.88"/>
</a>
</g>
<text xml:space="preserve" text-anchor="start" x="244" y="-773.5" font-family="Helvetica,sans-Serif" font-size="10.00" fill="grey">&#45;sessions_</text>
</g>
<!-- Node11 -->
<g id="Node000011" class="node">
<title>Node11</title>
<g id="a_Node000011"><a xlink:title=" ">
<polygon fill="white" stroke="none" points="305.25,-986 172.75,-986 172.75,-922 305.25,-922 305.25,-986"/>
<text xml:space="preserve" text-anchor="start" x="176.75" y="-972.5" font-family="Helvetica,sans-Serif" font-size="10.00">std::shared_ptr&lt; WebSocket</text>
<text xml:space="preserve" text-anchor="start" x="216.88" y="-960.5" font-family="Helvetica,sans-Serif" font-size="10.00">Session &gt;</text>
<text xml:space="preserve" text-anchor="start" x="237.5" y="-944.5" font-family="Helvetica,sans-Serif" font-size="10.00"> </text>
<text xml:space="preserve" text-anchor="start" x="192.81" y="-928.5" font-family="Helvetica,sans-Serif" font-size="10.00">+</text>
<text xml:space="preserve" text-anchor="start" x="218.88" y="-928.5" font-family="Helvetica,sans-Serif" font-size="10.00">operator&#45;&gt;()</text>
<polygon fill="#666666" stroke="#666666" points="172.75,-956 172.75,-956 305.25,-956 305.25,-956 172.75,-956"/>
<polygon fill="#666666" stroke="#666666" points="172.75,-940 172.75,-940 305.25,-940 305.25,-940 172.75,-940"/>
<polygon fill="none" stroke="#666666" points="172.75,-922 172.75,-986 305.25,-986 305.25,-922 172.75,-922"/>
</a>
</g>
</g>
<!-- Node11&#45;&gt;Node10 -->
<g id="edge10_Node000010_Node000011" class="edge">
<title>Node11&#45;&gt;Node10</title>
<g id="a_edge10_Node000010_Node000011"><a xlink:title=" ">
<path fill="none" stroke="#63b8ff" d="M239.53,-922.22C239.75,-909.5 240.01,-894.53 240.25,-880.71"/>
<polygon fill="none" stroke="#63b8ff" points="240.24,-880.82 236.35,-874.76 240.45,-868.83 244.35,-874.89 240.24,-880.82"/>
</a>
</g>
<text xml:space="preserve" text-anchor="start" x="243.12" y="-891.5" font-family="Helvetica,sans-Serif" font-size="10.00" fill="grey">+keys</text>
</g>
<!-- Node12&#45;&gt;Node11 -->
<g id="edge11_Node000011_Node000012" class="edge">
<title>Node12&#45;&gt;Node11</title>
<g id="a_edge11_Node000011_Node000012"><a xlink:title=" ">
<path fill="none" stroke="#63b8ff" d="M234.45,-1040.06C235.25,-1025.1 236,-1011.06 236.66,-998.86"/>
<polygon fill="none" stroke="#63b8ff" points="236.66,-998.81 232.99,-992.6 237.3,-986.82 240.97,-993.03 236.66,-998.81"/>
</a>
</g>
<text xml:space="preserve" text-anchor="start" x="239.32" y="-1009.5" font-family="Helvetica,sans-Serif" font-size="10.00" fill="grey">+ptr</text>
</g>
<!-- Node13 -->
<g id="Node000013" class="node">
<title>Node13</title>
<g id="a_Node000013"><a xlink:title=" ">
<polygon fill="white" stroke="none" points="288.62,-1676 131.38,-1676 131.38,-1612 288.62,-1612 288.62,-1676"/>
<text xml:space="preserve" text-anchor="start" x="135.38" y="-1662.5" font-family="Helvetica,sans-Serif" font-size="10.00">std::enable_shared</text>
<text xml:space="preserve" text-anchor="start" x="135.38" y="-1650.5" font-family="Helvetica,sans-Serif" font-size="10.00">_from_this&lt; WebSocketSession &gt;</text>
<text xml:space="preserve" text-anchor="start" x="208.5" y="-1634.5" font-family="Helvetica,sans-Serif" font-size="10.00"> </text>
<text xml:space="preserve" text-anchor="start" x="208.5" y="-1618.5" font-family="Helvetica,sans-Serif" font-size="10.00"> </text>
<polygon fill="#666666" stroke="#666666" points="131.38,-1646 131.38,-1646 288.62,-1646 288.62,-1646 131.38,-1646"/>
<polygon fill="#666666" stroke="#666666" points="131.38,-1630 131.38,-1630 288.62,-1630 288.62,-1630 131.38,-1630"/>
<polygon fill="none" stroke="#666666" points="131.38,-1612 131.38,-1676 288.62,-1676 288.62,-1612 131.38,-1612"/>
</a>
</g>
</g>
<!-- Node13&#45;&gt;Node12 -->
<g id="edge12_Node000012_Node000013" class="edge">
<title>Node13&#45;&gt;Node12</title>
<g id="a_edge12_Node000012_Node000013"><a xlink:title=" ">
<path fill="none" stroke="#63b8ff" d="M211.5,-1600.7C213.2,-1552.67 216.08,-1471.17 218.75,-1395.78"/>
<polygon fill="none" stroke="#63b8ff" points="208,-1600.54 211.14,-1610.65 215,-1600.78 208,-1600.54"/>
</a>
</g>
</g>
<!-- Node14 -->
<g id="Node000014" class="node">
<title>Node14</title>
<g id="a_Node000014"><a xlink:title=" ">
<polygon fill="white" stroke="none" points="408.88,-1670 307.12,-1670 307.12,-1618 408.88,-1618 408.88,-1670"/>
<text xml:space="preserve" text-anchor="start" x="311.12" y="-1656.5" font-family="Helvetica,sans-Serif" font-size="10.00">std::vector&lt; uint8_t &gt;</text>
<text xml:space="preserve" text-anchor="start" x="322.12" y="-1640.5" font-family="Helvetica,sans-Serif" font-size="10.00">+</text>
<text xml:space="preserve" text-anchor="start" x="343.12" y="-1640.5" font-family="Helvetica,sans-Serif" font-size="10.00">elements</text>
<text xml:space="preserve" text-anchor="start" x="356.5" y="-1624.5" font-family="Helvetica,sans-Serif" font-size="10.00"> </text>
<polygon fill="#666666" stroke="#666666" points="307.12,-1652 307.12,-1652 408.88,-1652 408.88,-1652 307.12,-1652"/>
<polygon fill="#666666" stroke="#666666" points="307.12,-1636 307.12,-1636 341.12,-1636 341.12,-1636 307.12,-1636"/>
<polygon fill="#666666" stroke="#666666" points="341.12,-1636 341.12,-1636 408.88,-1636 408.88,-1636 341.12,-1636"/>
<polygon fill="none" stroke="#666666" points="307.12,-1618 307.12,-1670 408.88,-1670 408.88,-1618 307.12,-1618"/>
</a>
</g>
</g>
<!-- Node14&#45;&gt;Node12 -->
<g id="edge15_Node000012_Node000014" class="edge">
<title>Node14&#45;&gt;Node12</title>
<g id="a_edge15_Node000012_Node000014"><a xlink:title=" ">
<path fill="none" stroke="#63b8ff" d="M350.18,-1618.06C337.19,-1576.65 310.05,-1490.13 284.35,-1408.21"/>
<polygon fill="none" stroke="#63b8ff" points="284.35,-1408.21 278.74,-1403.68 280.76,-1396.76 286.37,-1401.29 284.35,-1408.21"/>
</a>
</g>
<text xml:space="preserve" text-anchor="start" x="298.49" y="-1435.5" font-family="Helvetica,sans-Serif" font-size="10.00" fill="grey">&#45;broadcast_buffer_</text>
<text xml:space="preserve" text-anchor="start" x="298.49" y="-1419.5" font-family="Helvetica,sans-Serif" font-size="10.00" fill="grey">&#45;write_buffer_</text>
</g>
<!-- Node15 -->
<g id="Node000015" class="node">
<title>Node15</title>
<g id="a_Node000015"><a xlink:title=" ">
<polygon fill="white" stroke="none" points="606.25,-388 551.75,-388 551.75,-336 606.25,-336 606.25,-388"/>
<text xml:space="preserve" text-anchor="start" x="555.75" y="-374.5" font-family="Helvetica,sans-Serif" font-size="10.00">std::thread</text>
<text xml:space="preserve" text-anchor="start" x="577.5" y="-358.5" font-family="Helvetica,sans-Serif" font-size="10.00"> </text>
<text xml:space="preserve" text-anchor="start" x="577.5" y="-342.5" font-family="Helvetica,sans-Serif" font-size="10.00"> </text>
<polygon fill="#666666" stroke="#666666" points="551.75,-370 551.75,-370 606.25,-370 606.25,-370 551.75,-370"/>
<polygon fill="#666666" stroke="#666666" points="551.75,-354 551.75,-354 606.25,-354 606.25,-354 551.75,-354"/>
<polygon fill="none" stroke="#666666" points="551.75,-336 551.75,-388 606.25,-388 606.25,-336 551.75,-336"/>
</a>
</g>
</g>
<!-- Node15&#45;&gt;Node1 -->
<g id="edge17_Node000001_Node000015" class="edge">
<title>Node15&#45;&gt;Node1</title>
<g id="a_edge17_Node000001_Node000015"><a xlink:title=" ">
<path fill="none" stroke="#63b8ff" d="M571.68,-336.39C567.87,-323.57 562.86,-306.71 557.37,-288.25"/>
<polygon fill="none" stroke="#63b8ff" points="557.38,-288.28 551.84,-283.67 553.96,-276.78 559.51,-281.39 557.38,-288.28"/>
</a>
</g>
<text xml:space="preserve" text-anchor="start" x="566.05" y="-299.5" font-family="Helvetica,sans-Serif" font-size="10.00" fill="grey">&#45;server_thread_</text>
</g>
</g>
</svg>
