<?xml version="1.0" encoding="UTF-8" standalone="no"?>
<!DOCTYPE svg PUBLIC "-//W3C//DTD SVG 1.1//EN"
 "http://www.w3.org/Graphics/SVG/1.1/DTD/svg11.dtd">
<!-- Generated by graphviz version 14.1.1 (20251213.1925)
 -->
<!-- Title: SERWebSocketServer::broadcastAll Pages: 1 -->
<svg width="772pt" height="53pt"
 viewBox="0.00 0.00 772.00 53.00" xmlns="http://www.w3.org/2000/svg" xmlns:xlink="http://www.w3.org/1999/xlink">
<g id="graph0" class="graph" transform="scale(1 1) rotate(0) translate(4 49)">
<title>SERWebSocketServer::broadcastAll</title>
<!-- Node1 -->
<g id="Node000001" class="node">
<title>Node1</title>
<g id="a_Node000001"><a xlink:title="Broadcast all SER records from the database to all clients.">
<polygon fill="#999999" stroke="#666666" points="115,-32 0,-32 0,0 115,0 115,-32"/>
<text xml:space="preserve" text-anchor="start" x="8" y="-18.5" font-family="Helvetica,sans-Serif" font-size="10.00">SERWebSocketServer</text>
<text xml:space="preserve" text-anchor="middle" x="57.5" y="-6.5" font-family="Helvetica,sans-Serif" font-size="10.00">::broadcastAll</text>
</a>
</g>
</g>
<!-- Node2 -->
<g id="Node000002" class="node">
<title>Node2</title>
<g id="a_Node000002"><a xlink:href="namespaceasn__tlv.html#a03c61eaf7c30d4bb4e8f50d6cd2f5f03" target="_top" xlink:title="Encode SER records to ASN.1 BER/TLV format.">
<polygon fill="white" stroke="#666666" points="287.75,-32 151,-32 151,0 287.75,0 287.75,-32"/>
<text xml:space="preserve" text-anchor="start" x="159" y="-18.5" font-family="Helvetica,sans-Serif" font-size="10.00">asn_tlv::encodeSerRecords</text>
<text xml:space="preserve" text-anchor="middle" x="219.38" y="-6.5" font-family="Helvetica,sans-Serif" font-size="10.00">ToTlv</text>
</a>
</g>
</g>
<!-- Node1&#45;&gt;Node2 -->
<g id="edge1_Node000001_Node000002" class="edge">
<title>Node1&#45;&gt;Node2</title>
<g id="a_edge1_Node000001_Node000002"><a xlink:title=" ">
<path fill="none" stroke="#63b8ff" d="M115.32,-16C123.06,-16 131.13,-16 139.18,-16"/>
<polygon fill="#63b8ff" stroke="#63b8ff" points="139.01,-19.5 149.01,-16 139.01,-12.5 139.01,-19.5"/>
</a>
</g>
</g>
<!-- Node3 -->
<g id="Node000003" class="node">
<title>Node3</title>
<g id="a_Node000003"><a xlink:href="namespaceasn__tlv.html#a0cc9af3d4e8aba5f164c66bb47750767" target="_top" xlink:title="Append a string as a TLV structure.">
<polygon fill="white" stroke="#666666" points="449.25,-45 323.75,-45 323.75,-25 449.25,-25 449.25,-45"/>
<text xml:space="preserve" text-anchor="middle" x="386.5" y="-31.5" font-family="Helvetica,sans-Serif" font-size="10.00">asn_tlv::berAppendString</text>
</a>
</g>
</g>
<!-- Node2&#45;&gt;Node3 -->
<g id="edge2_Node000002_Node000003" class="edge">
<title>Node2&#45;&gt;Node3</title>
<g id="a_edge2_Node000002_Node000003"><a xlink:title=" ">
<path fill="none" stroke="#63b8ff" d="M288.01,-23.78C295.94,-24.7 304.06,-25.63 312.07,-26.55"/>
<polygon fill="#63b8ff" stroke="#63b8ff" points="311.44,-30 321.77,-27.67 312.24,-23.05 311.44,-30"/>
</a>
</g>
</g>
<!-- Node4 -->
<g id="Node000004" class="node">
<title>Node4</title>
<g id="a_Node000004"><a xlink:href="namespaceasn__tlv.html#a4a9f3333d71c851f9002020ffd417b18" target="_top" xlink:title="Append a complete TLV structure to an output buffer.">
<polygon fill="white" stroke="#666666" points="598.75,-26 485.25,-26 485.25,-6 598.75,-6 598.75,-26"/>
<text xml:space="preserve" text-anchor="middle" x="542" y="-12.5" font-family="Helvetica,sans-Serif" font-size="10.00">asn_tlv::berAppendTlv</text>
</a>
</g>
</g>
<!-- Node2&#45;&gt;Node4 -->
<g id="edge5_Node000002_Node000004" class="edge">
<title>Node2&#45;&gt;Node4</title>
<g id="a_edge5_Node000002_Node000004"><a xlink:title=" ">
<path fill="none" stroke="#63b8ff" d="M287.98,-16C342.61,-16 419.13,-16 473.68,-16"/>
<polygon fill="#63b8ff" stroke="#63b8ff" points="473.46,-19.5 483.46,-16 473.46,-12.5 473.46,-19.5"/>
</a>
</g>
</g>
<!-- Node3&#45;&gt;Node4 -->
<g id="edge3_Node000003_Node000004" class="edge">
<title>Node3&#45;&gt;Node4</title>
<g id="a_edge3_Node000003_Node000004"><a xlink:title=" ">
<path fill="none" stroke="#63b8ff" d="M449.49,-27.33C457.52,-26.33 465.78,-25.31 473.89,-24.31"/>
<polygon fill="#63b8ff" stroke="#63b8ff" points="474.22,-27.79 483.71,-23.09 473.36,-20.85 474.22,-27.79"/>
</a>
</g>
</g>
<!-- Node5 -->
<g id="Node000005" class="node">
<title>Node5</title>
<g id="a_Node000005"><a xlink:href="namespaceasn__tlv.html#af1ae5498c52c5e99d18f2cd5cb4f2609" target="_top" xlink:title="Append BER length encoding to an output buffer.">
<polygon fill="white" stroke="#666666" points="764,-26 634.75,-26 634.75,-6 764,-6 764,-26"/>
<text xml:space="preserve" text-anchor="middle" x="699.38" y="-12.5" font-family="Helvetica,sans-Serif" font-size="10.00">asn_tlv::berAppendLength</text>
</a>
</g>
</g>
<!-- Node4&#45;&gt;Node5 -->
<g id="edge4_Node000004_Node000005" class="edge">
<title>Node4&#45;&gt;Node5</title>
<g id="a_edge4_Node000004_Node000005"><a xlink:title=" ">
<path fill="none" stroke="#63b8ff" d="M599.09,-16C606.89,-16 615.01,-16 623.09,-16"/>
<polygon fill="#63b8ff" stroke="#63b8ff" points="622.94,-19.5 632.94,-16 622.94,-12.5 622.94,-19.5"/>
</a>
</g>
</g>
</g>
</svg>
