<?xml version="1.0" encoding="UTF-8" standalone="no"?>
<!DOCTYPE svg PUBLIC "-//W3C//DTD SVG 1.1//EN"
 "http://www.w3.org/Graphics/SVG/1.1/DTD/svg11.dtd">
<!-- Generated by graphviz version 14.1.1 (20251213.1925)
 -->
<!-- Title: WebSocketSession::sendData Pages: 1 -->
<svg width="875pt" height="155pt"
 viewBox="0.00 0.00 875.00 155.00" xmlns="http://www.w3.org/2000/svg" xmlns:xlink="http://www.w3.org/1999/xlink">
<g id="graph0" class="graph" transform="scale(1 1) rotate(0) translate(4 151.17)">
<title>WebSocketSession::sendData</title>
<!-- Node1 -->
<g id="Node000001" class="node">
<title>Node1</title>
<g id="a_Node000001"><a xlink:title="Send current database records to client as ASN.1 BER/TLV.">
<polygon fill="#999999" stroke="#666666" points="149.5,-70.17 0,-70.17 0,-50.17 149.5,-50.17 149.5,-70.17"/>
<text xml:space="preserve" text-anchor="middle" x="74.75" y="-56.67" font-family="Helvetica,sans-Serif" font-size="10.00">WebSocketSession::sendData</text>
</a>
</g>
</g>
<!-- Node2 -->
<g id="Node000002" class="node">
<title>Node2</title>
<g id="a_Node000002"><a xlink:href="namespaceasn__tlv.html#a03c61eaf7c30d4bb4e8f50d6cd2f5f03" target="_top" xlink:title="Encode SER records to ASN.1 BER/TLV format.">
<polygon fill="white" stroke="#666666" points="322.25,-142.17 185.5,-142.17 185.5,-110.17 322.25,-110.17 322.25,-142.17"/>
<text xml:space="preserve" text-anchor="start" x="193.5" y="-128.67" font-family="Helvetica,sans-Serif" font-size="10.00">asn_tlv::encodeSerRecords</text>
<text xml:space="preserve" text-anchor="middle" x="253.88" y="-116.67" font-family="Helvetica,sans-Serif" font-size="10.00">ToTlv</text>
</a>
</g>
</g>
<!-- Node1&#45;&gt;Node2 -->
<g id="edge1_Node000001_Node000002" class="edge">
<title>Node1&#45;&gt;Node2</title>
<g id="a_edge1_Node000001_Node000002"><a xlink:title=" ">
<path fill="none" stroke="#63b8ff" d="M103.82,-70.63C129.03,-80.02 166.79,-94.09 197.99,-105.72"/>
<polygon fill="#63b8ff" stroke="#63b8ff" points="196.71,-108.98 207.3,-109.19 199.15,-102.42 196.71,-108.98"/>
</a>
</g>
</g>
<!-- Node6 -->
<g id="Node000006" class="node">
<title>Node6</title>
<g id="a_Node000006"><a xlink:href="class_web_socket_session.html#a0fed81151d5dcbe23dbee79f1bf12c66" target="_top" xlink:title="Handle write completion.">
<polygon fill="white" stroke="#666666" points="312.88,-54.17 194.88,-54.17 194.88,-22.17 312.88,-22.17 312.88,-54.17"/>
<text xml:space="preserve" text-anchor="start" x="202.88" y="-40.67" font-family="Helvetica,sans-Serif" font-size="10.00">WebSocketSession::on</text>
<text xml:space="preserve" text-anchor="middle" x="253.88" y="-28.67" font-family="Helvetica,sans-Serif" font-size="10.00">_write</text>
</a>
</g>
</g>
<!-- Node1&#45;&gt;Node6 -->
<g id="edge6_Node000001_Node000006" class="edge">
<title>Node1&#45;&gt;Node6</title>
<g id="a_edge6_Node000001_Node000006"><a xlink:title=" ">
<path fill="none" stroke="#63b8ff" d="M149.84,-50.97C160.89,-49.6 172.24,-48.18 183.19,-46.82"/>
<polygon fill="#63b8ff" stroke="#63b8ff" points="183.43,-50.32 192.93,-45.62 182.57,-43.37 183.43,-50.32"/>
</a>
</g>
</g>
<!-- Node3 -->
<g id="Node000003" class="node">
<title>Node3</title>
<g id="a_Node000003"><a xlink:href="namespaceasn__tlv.html#a0cc9af3d4e8aba5f164c66bb47750767" target="_top" xlink:title="Append a string as a TLV structure.">
<polygon fill="white" stroke="#666666" points="499.5,-132.17 374,-132.17 374,-112.17 499.5,-112.17 499.5,-132.17"/>
<text xml:space="preserve" text-anchor="middle" x="436.75" y="-118.67" font-family="Helvetica,sans-Serif" font-size="10.00">asn_tlv::berAppendString</text>
</a>
</g>
</g>
<!-- Node2&#45;&gt;Node3 -->
<g id="edge2_Node000002_Node000003" class="edge">
<title>Node2&#45;&gt;Node3</title>
<g id="a_edge2_Node000002_Node000003"><a xlink:title=" ">
<path fill="none" stroke="#63b8ff" d="M322.74,-124.67C335.69,-124.38 349.3,-124.08 362.41,-123.79"/>
<polygon fill="#63b8ff" stroke="#63b8ff" points="362.34,-127.29 372.26,-123.57 362.18,-120.3 362.34,-127.29"/>
</a>
</g>
</g>
<!-- Node4 -->
<g id="Node000004" class="node">
<title>Node4</title>
<g id="a_Node000004"><a xlink:href="namespaceasn__tlv.html#a4a9f3333d71c851f9002020ffd417b18" target="_top" xlink:title="Append a complete TLV structure to an output buffer.">
<polygon fill="white" stroke="#666666" points="679,-147.17 565.5,-147.17 565.5,-127.17 679,-127.17 679,-147.17"/>
<text xml:space="preserve" text-anchor="middle" x="622.25" y="-133.67" font-family="Helvetica,sans-Serif" font-size="10.00">asn_tlv::berAppendTlv</text>
</a>
</g>
</g>
<!-- Node2&#45;&gt;Node4 -->
<g id="edge5_Node000002_Node000004" class="edge">
<title>Node2&#45;&gt;Node4</title>
<g id="a_edge5_Node000002_Node000004"><a xlink:title=" ">
<path fill="none" stroke="#63b8ff" d="M322.56,-137.42C334.42,-138.98 346.67,-140.33 358.25,-141.17 424.66,-145.96 500.73,-144 553.92,-141.42"/>
<polygon fill="#63b8ff" stroke="#63b8ff" points="553.93,-144.92 563.74,-140.92 553.57,-137.93 553.93,-144.92"/>
</a>
</g>
</g>
<!-- Node3&#45;&gt;Node4 -->
<g id="edge3_Node000003_Node000004" class="edge">
<title>Node3&#45;&gt;Node4</title>
<g id="a_edge3_Node000003_Node000004"><a xlink:title=" ">
<path fill="none" stroke="#63b8ff" d="M499.87,-127.25C517.19,-128.66 536.08,-130.21 553.69,-131.65"/>
<polygon fill="#63b8ff" stroke="#63b8ff" points="553.29,-135.13 563.54,-132.45 553.86,-128.15 553.29,-135.13"/>
</a>
</g>
</g>
<!-- Node5 -->
<g id="Node000005" class="node">
<title>Node5</title>
<g id="a_Node000005"><a xlink:href="namespaceasn__tlv.html#af1ae5498c52c5e99d18f2cd5cb4f2609" target="_top" xlink:title="Append BER length encoding to an output buffer.">
<polygon fill="white" stroke="#666666" points="862.62,-147.17 733.38,-147.17 733.38,-127.17 862.62,-127.17 862.62,-147.17"/>
<text xml:space="preserve" text-anchor="middle" x="798" y="-133.67" font-family="Helvetica,sans-Serif" font-size="10.00">asn_tlv::berAppendLength</text>
</a>
</g>
</g>
<!-- Node4&#45;&gt;Node5 -->
<g id="edge4_Node000004_Node000005" class="edge">
<title>Node4&#45;&gt;Node5</title>
<g id="a_edge4_Node000004_Node000005"><a xlink:title=" ">
<path fill="none" stroke="#63b8ff" d="M679.18,-137.17C692.72,-137.17 707.42,-137.17 721.69,-137.17"/>
<polygon fill="#63b8ff" stroke="#63b8ff" points="721.5,-140.67 731.5,-137.17 721.5,-133.67 721.5,-140.67"/>
</a>
</g>
</g>
<!-- Node7 -->
<g id="Node000007" class="node">
<title>Node7</title>
<g id="a_Node000007"><a xlink:href="class_web_socket_session.html#a2bc079950c2e39e8ff745f0da57646ba" target="_top" xlink:title="Initiate async read for next client message.">
<polygon fill="white" stroke="#666666" points="507.75,-45.17 365.75,-45.17 365.75,-25.17 507.75,-25.17 507.75,-45.17"/>
<text xml:space="preserve" text-anchor="middle" x="436.75" y="-31.67" font-family="Helvetica,sans-Serif" font-size="10.00">WebSocketSession::do_read</text>
</a>
</g>
</g>
<!-- Node6&#45;&gt;Node7 -->
<g id="edge7_Node000006_Node000007" class="edge">
<title>Node6&#45;&gt;Node7</title>
<g id="a_edge7_Node000006_Node000007"><a xlink:title=" ">
<path fill="none" stroke="#63b8ff" d="M313.1,-37.2C326.09,-36.99 340.1,-36.76 353.84,-36.53"/>
<polygon fill="#63b8ff" stroke="#63b8ff" points="353.85,-40.03 363.79,-36.36 353.73,-33.03 353.85,-40.03"/>
</a>
</g>
</g>
<!-- Node11 -->
<g id="Node000011" class="node">
<title>Node11</title>
<g id="a_Node000011"><a xlink:href="class_web_socket_session.html#a124943db6c094918e372c94bfb7ec533" target="_top" xlink:title="Send the next queued message (if any).">
<polygon fill="white" stroke="#666666" points="515.25,-90.17 358.25,-90.17 358.25,-70.17 515.25,-70.17 515.25,-90.17"/>
<text xml:space="preserve" text-anchor="middle" x="436.75" y="-76.67" font-family="Helvetica,sans-Serif" font-size="10.00">WebSocketSession::drainQueue</text>
</a>
</g>
</g>
<!-- Node6&#45;&gt;Node11 -->
<g id="edge13_Node000006_Node000011" class="edge">
<title>Node6&#45;&gt;Node11</title>
<g id="a_edge13_Node000006_Node000011"><a xlink:title=" ">
<path fill="none" stroke="#63b8ff" d="M313.1,-51.69C334.37,-56.63 358.38,-62.2 379.48,-67.1"/>
<polygon fill="#63b8ff" stroke="#63b8ff" points="378.53,-70.48 389.07,-69.33 380.12,-63.66 378.53,-70.48"/>
</a>
</g>
</g>
<!-- Node8 -->
<g id="Node000008" class="node">
<title>Node8</title>
<g id="a_Node000008"><a xlink:href="class_web_socket_session.html#a6c0557f87f9f6050a8848237ace942bb" target="_top" xlink:title="Handle received client message.">
<polygon fill="white" stroke="#666666" points="693.25,-45.17 551.25,-45.17 551.25,-25.17 693.25,-25.17 693.25,-45.17"/>
<text xml:space="preserve" text-anchor="middle" x="622.25" y="-31.67" font-family="Helvetica,sans-Serif" font-size="10.00">WebSocketSession::on_read</text>
</a>
</g>
</g>
<!-- Node7&#45;&gt;Node8 -->
<g id="edge8_Node000007_Node000008" class="edge">
<title>Node7&#45;&gt;Node8</title>
<g id="a_edge8_Node000007_Node000008"><a xlink:title=" ">
<path fill="none" stroke="#63b8ff" d="M508.17,-28.58C518.49,-28.42 529.19,-28.38 539.7,-28.46"/>
<polygon fill="#63b8ff" stroke="#63b8ff" points="539.46,-31.95 549.5,-28.57 539.54,-24.95 539.46,-31.95"/>
</a>
</g>
</g>
<!-- Node8&#45;&gt;Node1 -->
<g id="edge12_Node000008_Node000001" class="edge">
<title>Node8&#45;&gt;Node1</title>
<g id="a_edge12_Node000008_Node000001"><a xlink:title=" ">
<path fill="none" stroke="#63b8ff" d="M571.96,-24.72C490.56,-9.24 323.33,15.1 185.5,-13.17 156.32,-19.16 125.31,-33.23 103.73,-44.43"/>
<polygon fill="#63b8ff" stroke="#63b8ff" points="102.16,-41.3 94.98,-49.09 105.45,-47.48 102.16,-41.3"/>
</a>
</g>
</g>
<!-- Node8&#45;&gt;Node7 -->
<g id="edge9_Node000008_Node000007" class="edge">
<title>Node8&#45;&gt;Node7</title>
<g id="a_edge9_Node000008_Node000007"><a xlink:title=" ">
<path fill="none" stroke="#63b8ff" d="M551.02,-41.75C540.7,-41.92 530.01,-41.96 519.49,-41.88"/>
<polygon fill="#63b8ff" stroke="#63b8ff" points="519.72,-38.39 509.68,-41.77 519.64,-45.39 519.72,-38.39"/>
</a>
</g>
</g>
<!-- Node9 -->
<g id="Node000009" class="node">
<title>Node9</title>
<g id="a_Node000009"><a xlink:href="class_web_socket_session.html#a43bf9b3aa8c9ed23d031c7ae8059da22" target="_top" xlink:title="Extract the &quot;action&quot; value from a simple JSON object.">
<polygon fill="white" stroke="#666666" points="866.75,-37.17 729.25,-37.17 729.25,-5.17 866.75,-5.17 866.75,-37.17"/>
<text xml:space="preserve" text-anchor="start" x="737.25" y="-23.67" font-family="Helvetica,sans-Serif" font-size="10.00">WebSocketSession::extract</text>
<text xml:space="preserve" text-anchor="middle" x="798" y="-11.67" font-family="Helvetica,sans-Serif" font-size="10.00">Action</text>
</a>
</g>
</g>
<!-- Node8&#45;&gt;Node9 -->
<g id="edge10_Node000008_Node000009" class="edge">
<title>Node8&#45;&gt;Node9</title>
<g id="a_edge10_Node000008_Node000009"><a xlink:title=" ">
<path fill="none" stroke="#63b8ff" d="M693.67,-29.5C701.6,-28.86 709.72,-28.2 717.75,-27.56"/>
<polygon fill="#63b8ff" stroke="#63b8ff" points="717.82,-31.06 727.5,-26.77 717.26,-24.08 717.82,-31.06"/>
</a>
</g>
</g>
<!-- Node10 -->
<g id="Node000010" class="node">
<title>Node10</title>
<g id="a_Node000010"><a xlink:href="class_web_socket_session.html#a606e227b631d765ac0191c0535df607f" target="_top" xlink:title="Check if a message is a JSON action (contains &quot;action&quot; key).">
<polygon fill="white" stroke="#666666" points="866,-87.17 730,-87.17 730,-55.17 866,-55.17 866,-87.17"/>
<text xml:space="preserve" text-anchor="start" x="738" y="-73.67" font-family="Helvetica,sans-Serif" font-size="10.00">WebSocketSession::isJson</text>
<text xml:space="preserve" text-anchor="middle" x="798" y="-61.67" font-family="Helvetica,sans-Serif" font-size="10.00">Action</text>
</a>
</g>
</g>
<!-- Node8&#45;&gt;Node10 -->
<g id="edge11_Node000008_Node000010" class="edge">
<title>Node8&#45;&gt;Node10</title>
<g id="a_edge11_Node000008_Node000010"><a xlink:title=" ">
<path fill="none" stroke="#63b8ff" d="M673.51,-45.58C687.62,-48.51 703.31,-51.76 718.65,-54.94"/>
<polygon fill="#63b8ff" stroke="#63b8ff" points="717.74,-58.32 728.24,-56.92 719.16,-51.47 717.74,-58.32"/>
</a>
</g>
</g>
<!-- Node11&#45;&gt;Node1 -->
<g id="edge16_Node000011_Node000001" class="edge">
<title>Node11&#45;&gt;Node1</title>
<g id="a_edge16_Node000011_Node000001"><a xlink:title=" ">
<path fill="none" stroke="#63b8ff" d="M357.96,-75.85C300,-72.63 220.91,-68.23 161.2,-64.92"/>
<polygon fill="#63b8ff" stroke="#63b8ff" points="161.6,-61.43 151.42,-64.37 161.21,-68.42 161.6,-61.43"/>
</a>
</g>
</g>
<!-- Node12 -->
<g id="Node000012" class="node">
<title>Node12</title>
<g id="a_Node000012"><a xlink:href="class_web_socket_session.html#afe8845301daa6254f51e87dd9dd4cc3d" target="_top" xlink:title="Handle broadcast write completion — drains pending queue.">
<polygon fill="white" stroke="#666666" points="681.25,-96.17 563.25,-96.17 563.25,-64.17 681.25,-64.17 681.25,-96.17"/>
<text xml:space="preserve" text-anchor="start" x="571.25" y="-82.67" font-family="Helvetica,sans-Serif" font-size="10.00">WebSocketSession::on</text>
<text xml:space="preserve" text-anchor="middle" x="622.25" y="-70.67" font-family="Helvetica,sans-Serif" font-size="10.00">_broadcast_write</text>
</a>
</g>
</g>
<!-- Node11&#45;&gt;Node12 -->
<g id="edge14_Node000011_Node000012" class="edge">
<title>Node11&#45;&gt;Node12</title>
<g id="a_edge14_Node000011_Node000012"><a xlink:title=" ">
<path fill="none" stroke="#63b8ff" d="M515.57,-73.49C527.44,-73.37 539.63,-73.4 551.31,-73.59"/>
<polygon fill="#63b8ff" stroke="#63b8ff" points="551.22,-77.09 561.29,-73.8 551.36,-70.09 551.22,-77.09"/>
</a>
</g>
</g>
<!-- Node12&#45;&gt;Node11 -->
<g id="edge15_Node000012_Node000011" class="edge">
<title>Node12&#45;&gt;Node11</title>
<g id="a_edge15_Node000012_Node000011"><a xlink:title=" ">
<path fill="none" stroke="#63b8ff" d="M562.8,-86.51C551.3,-86.8 539,-86.94 526.77,-86.92"/>
<polygon fill="#63b8ff" stroke="#63b8ff" points="527.1,-83.42 517.08,-86.86 527.06,-90.42 527.1,-83.42"/>
</a>
</g>
</g>
</g>
</svg>
