<?xml version="1.0" encoding="UTF-8" standalone="no"?>
<!DOCTYPE svg PUBLIC "-//W3C//DTD SVG 1.1//EN"
 "http://www.w3.org/Graphics/SVG/1.1/DTD/svg11.dtd">
<!-- Generated by graphviz version 14.1.2 (20260124.0452)
 -->
<!-- Title: TelnetSmlApp::start Pages: 1 -->
<svg width="270pt" height="66pt"
 viewBox="0.00 0.00 270.00 66.00" xmlns="http://www.w3.org/2000/svg" xmlns:xlink="http://www.w3.org/1999/xlink">
<g id="graph0" class="graph" transform="scale(1 1) rotate(0) translate(4 62)">
<title>TelnetSmlApp::start</title>
<!-- Node1 -->
<g id="Node000001" class="node">
<title>Node1</title>
<g id="a_Node000001"><a xlink:title="Start the application and all background threads.">
<polygon fill="#999999" stroke="#666666" points="262.25,-39 160,-39 160,-19 262.25,-19 262.25,-39"/>
<text xml:space="preserve" text-anchor="middle" x="211.12" y="-25.5" font-family="Helvetica,sans-Serif" font-size="10.00">TelnetSmlApp::start</text>
</a>
</g>
</g>
<!-- Node2 -->
<g id="Node000002" class="node">
<title>Node2</title>
<g id="a_Node000002"><a xlink:href="dll__example_8cpp.html#ae66f6b31b5ad750f1fe042a706a4e3d4" target="_top" xlink:title="Example application entry point.">
<polygon fill="white" stroke="#666666" points="80.5,-58 43.5,-58 43.5,-38 80.5,-38 80.5,-58"/>
<text xml:space="preserve" text-anchor="middle" x="62" y="-44.5" font-family="Helvetica,sans-Serif" font-size="10.00">main</text>
</a>
</g>
</g>
<!-- Node1&#45;&gt;Node2 -->
<g id="edge1_Node000001_Node000002" class="edge">
<title>Node1&#45;&gt;Node2</title>
<g id="a_edge1_Node000001_Node000002"><a xlink:title=" ">
<path fill="none" stroke="#63b8ff" d="M148.81,-36.92C124.3,-40.08 97.92,-43.49 80.97,-45.68"/>
<polygon fill="#63b8ff" stroke="#63b8ff" points="148.93,-40.43 158.4,-35.68 148.04,-33.49 148.93,-40.43"/>
</a>
</g>
</g>
<!-- Node3 -->
<g id="Node000003" class="node">
<title>Node3</title>
<g id="a_Node000003"><a xlink:href="class_telnet_sml_app.html#a4e85cb81d608f886dc22c96cc349b25a" target="_top" xlink:title=" ">
<polygon fill="white" stroke="#666666" points="124,-20 0,-20 0,0 124,0 124,-20"/>
<text xml:space="preserve" text-anchor="middle" x="62" y="-6.5" font-family="Helvetica,sans-Serif" font-size="10.00">TelnetSmlApp::operator=</text>
</a>
</g>
</g>
<!-- Node1&#45;&gt;Node3 -->
<g id="edge2_Node000001_Node000003" class="edge">
<title>Node1&#45;&gt;Node3</title>
<g id="a_edge2_Node000001_Node000003"><a xlink:title=" ">
<path fill="none" stroke="#63b8ff" d="M148.73,-21.07C140.7,-20.03 132.48,-18.97 124.45,-17.94"/>
<polygon fill="#63b8ff" stroke="#63b8ff" points="148.04,-24.51 158.4,-22.32 148.93,-17.57 148.04,-24.51"/>
</a>
</g>
</g>
</g>
</svg>
