<?xml version="1.0" encoding="UTF-8" standalone="no"?>
<!DOCTYPE svg PUBLIC "-//W3C//DTD SVG 1.1//EN"
 "http://www.w3.org/Graphics/SVG/1.1/DTD/svg11.dtd">
<!-- Generated by graphviz version 14.1.2 (20260124.0452)
 -->
<!-- Title: TelnetSmlApp::operator= Pages: 1 -->
<svg width="312pt" height="180pt"
 viewBox="0.00 0.00 312.00 180.00" xmlns="http://www.w3.org/2000/svg" xmlns:xlink="http://www.w3.org/1999/xlink">
<g id="graph0" class="graph" transform="scale(1 1) rotate(0) translate(4 176)">
<title>TelnetSmlApp::operator=</title>
<!-- Node1 -->
<g id="Node000001" class="node">
<title>Node1</title>
<g id="a_Node000001"><a xlink:title=" ">
<polygon fill="#999999" stroke="#666666" points="124,-96 0,-96 0,-76 124,-76 124,-96"/>
<text xml:space="preserve" text-anchor="middle" x="62" y="-82.5" font-family="Helvetica,sans-Serif" font-size="10.00">TelnetSmlApp::operator=</text>
</a>
</g>
</g>
<!-- Node2 -->
<g id="Node000002" class="node">
<title>Node2</title>
<g id="a_Node000002"><a xlink:href="class_telnet_sml_app.html#a9b7f50324e44cb7baca283dede37c40f" target="_top" xlink:title="Check if the application is currently running.">
<polygon fill="white" stroke="#666666" points="294.88,-172 168.62,-172 168.62,-152 294.88,-152 294.88,-172"/>
<text xml:space="preserve" text-anchor="middle" x="231.75" y="-158.5" font-family="Helvetica,sans-Serif" font-size="10.00">TelnetSmlApp::isRunning</text>
</a>
</g>
</g>
<!-- Node1&#45;&gt;Node2 -->
<g id="edge1_Node000001_Node000002" class="edge">
<title>Node1&#45;&gt;Node2</title>
<g id="a_edge1_Node000001_Node000002"><a xlink:title=" ">
<path fill="none" stroke="#63b8ff" d="M77.79,-96.41C96.26,-109 129.19,-130.09 160,-143 164.54,-144.9 169.33,-146.67 174.19,-148.29"/>
<polygon fill="#63b8ff" stroke="#63b8ff" points="172.82,-151.53 183.41,-151.16 174.9,-144.84 172.82,-151.53"/>
</a>
</g>
</g>
<!-- Node3 -->
<g id="Node000003" class="node">
<title>Node3</title>
<g id="a_Node000003"><a xlink:href="class_telnet_sml_app.html#a3fca74b7b73809c81c999a74aa603ed1" target="_top" xlink:title="Start the application and all background threads.">
<polygon fill="white" stroke="#666666" points="282.88,-134 180.62,-134 180.62,-114 282.88,-114 282.88,-134"/>
<text xml:space="preserve" text-anchor="middle" x="231.75" y="-120.5" font-family="Helvetica,sans-Serif" font-size="10.00">TelnetSmlApp::start</text>
</a>
</g>
</g>
<!-- Node1&#45;&gt;Node3 -->
<g id="edge2_Node000001_Node000003" class="edge">
<title>Node1&#45;&gt;Node3</title>
<g id="a_edge2_Node000001_Node000003"><a xlink:title=" ">
<path fill="none" stroke="#63b8ff" d="M109.28,-96.48C129.18,-100.99 152.63,-106.3 173.59,-111.05"/>
<polygon fill="#63b8ff" stroke="#63b8ff" points="172.62,-114.42 183.14,-113.22 174.16,-107.59 172.62,-114.42"/>
</a>
</g>
</g>
<!-- Node4 -->
<g id="Node000004" class="node">
<title>Node4</title>
<g id="a_Node000004"><a xlink:href="class_telnet_sml_app.html#a6ade3b1035abc4396ad39f120fb516c5" target="_top" xlink:title="Stop the application and all background threads.">
<polygon fill="white" stroke="#666666" points="282.5,-96 181,-96 181,-76 282.5,-76 282.5,-96"/>
<text xml:space="preserve" text-anchor="middle" x="231.75" y="-82.5" font-family="Helvetica,sans-Serif" font-size="10.00">TelnetSmlApp::stop</text>
</a>
</g>
</g>
<!-- Node1&#45;&gt;Node4 -->
<g id="edge3_Node000001_Node000004" class="edge">
<title>Node1&#45;&gt;Node4</title>
<g id="a_edge3_Node000001_Node000004"><a xlink:title=" ">
<path fill="none" stroke="#63b8ff" d="M124.04,-86C138.89,-86 154.78,-86 169.64,-86"/>
<polygon fill="#63b8ff" stroke="#63b8ff" points="169.25,-89.5 179.25,-86 169.25,-82.5 169.25,-89.5"/>
</a>
</g>
</g>
<!-- Node5 -->
<g id="Node000005" class="node">
<title>Node5</title>
<g id="a_Node000005"><a xlink:href="class_telnet_sml_app.html#a51e012f8f8736efe03da3f3d3b26cfc3" target="_top" xlink:title="Construct a TelnetSmlApp instance.">
<polygon fill="white" stroke="#666666" points="303.5,-58 160,-58 160,-38 303.5,-38 303.5,-58"/>
<text xml:space="preserve" text-anchor="middle" x="231.75" y="-44.5" font-family="Helvetica,sans-Serif" font-size="10.00">TelnetSmlApp::TelnetSmlApp</text>
</a>
</g>
</g>
<!-- Node1&#45;&gt;Node5 -->
<g id="edge4_Node000001_Node000005" class="edge">
<title>Node1&#45;&gt;Node5</title>
<g id="a_edge4_Node000001_Node000005"><a xlink:title=" ">
<path fill="none" stroke="#63b8ff" d="M109.28,-75.52C129.18,-71.01 152.63,-65.7 173.59,-60.95"/>
<polygon fill="#63b8ff" stroke="#63b8ff" points="174.16,-64.41 183.14,-58.78 172.62,-57.58 174.16,-64.41"/>
</a>
</g>
</g>
<!-- Node6 -->
<g id="Node000006" class="node">
<title>Node6</title>
<g id="a_Node000006"><a xlink:href="class_telnet_sml_app.html#a33b4aa9fa0549e37f8814684a18449da" target="_top" xlink:title="Block until user requests application exit.">
<polygon fill="white" stroke="#666666" points="297.88,-20 165.62,-20 165.62,0 297.88,0 297.88,-20"/>
<text xml:space="preserve" text-anchor="middle" x="231.75" y="-6.5" font-family="Helvetica,sans-Serif" font-size="10.00">TelnetSmlApp::waitForExit</text>
</a>
</g>
</g>
<!-- Node1&#45;&gt;Node6 -->
<g id="edge5_Node000001_Node000006" class="edge">
<title>Node1&#45;&gt;Node6</title>
<g id="a_edge5_Node000001_Node000006"><a xlink:title=" ">
<path fill="none" stroke="#63b8ff" d="M77.79,-75.59C96.26,-63 129.19,-41.91 160,-29 164.54,-27.1 169.33,-25.33 174.19,-23.71"/>
<polygon fill="#63b8ff" stroke="#63b8ff" points="174.9,-27.16 183.41,-20.84 172.82,-20.47 174.9,-27.16"/>
</a>
</g>
</g>
</g>
</svg>
