<?xml version="1.0" encoding="UTF-8" standalone="no"?>
<!DOCTYPE svg PUBLIC "-//W3C//DTD SVG 1.1//EN"
 "http://www.w3.org/Graphics/SVG/1.1/DTD/svg11.dtd">
<!-- Generated by graphviz version 14.1.1 (20251213.1925)
 -->
<!-- Title: WebSocketSession::on_read Pages: 1 -->
<svg width="1172pt" height="128pt"
 viewBox="0.00 0.00 1172.00 128.00" xmlns="http://www.w3.org/2000/svg" xmlns:xlink="http://www.w3.org/1999/xlink">
<g id="graph0" class="graph" transform="scale(1 1) rotate(0) translate(4 124)">
<title>WebSocketSession::on_read</title>
<!-- Node1 -->
<g id="Node000001" class="node">
<title>Node1</title>
<g id="a_Node000001"><a xlink:title="Handle received client message.">
<polygon fill="#999999" stroke="#666666" points="1163.5,-70 1021.5,-70 1021.5,-50 1163.5,-50 1163.5,-70"/>
<text xml:space="preserve" text-anchor="middle" x="1092.5" y="-56.5" font-family="Helvetica,sans-Serif" font-size="10.00">WebSocketSession::on_read</text>
</a>
</g>
</g>
<!-- Node2 -->
<g id="Node000002" class="node">
<title>Node2</title>
<g id="a_Node000002"><a xlink:href="class_web_socket_session.html#a2bc079950c2e39e8ff745f0da57646ba" target="_top" xlink:title="Initiate async read for next client message.">
<polygon fill="white" stroke="#666666" points="985.5,-70 843.5,-70 843.5,-50 985.5,-50 985.5,-70"/>
<text xml:space="preserve" text-anchor="middle" x="914.5" y="-56.5" font-family="Helvetica,sans-Serif" font-size="10.00">WebSocketSession::do_read</text>
</a>
</g>
</g>
<!-- Node1&#45;&gt;Node2 -->
<g id="edge1_Node000001_Node000002" class="edge">
<title>Node1&#45;&gt;Node2</title>
<g id="a_edge1_Node000001_Node000002"><a xlink:title=" ">
<path fill="none" stroke="#63b8ff" d="M1009.67,-53.26C1001.76,-53.23 993.78,-53.26 985.99,-53.37"/>
<polygon fill="#63b8ff" stroke="#63b8ff" points="1009.64,-56.76 1019.67,-53.36 1009.7,-49.76 1009.64,-56.76"/>
</a>
</g>
</g>
<!-- Node2&#45;&gt;Node1 -->
<g id="edge2_Node000002_Node000001" class="edge">
<title>Node2&#45;&gt;Node1</title>
<g id="a_edge2_Node000002_Node000001"><a xlink:title=" ">
<path fill="none" stroke="#63b8ff" d="M997.23,-66.73C1005.24,-66.77 1013.31,-66.74 1021.18,-66.63"/>
<polygon fill="#63b8ff" stroke="#63b8ff" points="997.54,-63.24 987.51,-66.64 997.47,-70.24 997.54,-63.24"/>
</a>
</g>
</g>
<!-- Node3 -->
<g id="Node000003" class="node">
<title>Node3</title>
<g id="a_Node000003"><a xlink:href="class_web_socket_session.html#a0fed81151d5dcbe23dbee79f1bf12c66" target="_top" xlink:title="Handle write completion.">
<polygon fill="white" stroke="#666666" points="807.5,-73 689.5,-73 689.5,-41 807.5,-41 807.5,-73"/>
<text xml:space="preserve" text-anchor="start" x="697.5" y="-59.5" font-family="Helvetica,sans-Serif" font-size="10.00">WebSocketSession::on</text>
<text xml:space="preserve" text-anchor="middle" x="748.5" y="-47.5" font-family="Helvetica,sans-Serif" font-size="10.00">_write</text>
</a>
</g>
</g>
<!-- Node2&#45;&gt;Node3 -->
<g id="edge3_Node000002_Node000003" class="edge">
<title>Node2&#45;&gt;Node3</title>
<g id="a_edge3_Node000002_Node000003"><a xlink:title=" ">
<path fill="none" stroke="#63b8ff" d="M832.02,-58.51C823.9,-58.36 815.77,-58.21 807.95,-58.07"/>
<polygon fill="#63b8ff" stroke="#63b8ff" points="831.9,-62.01 841.96,-58.69 832.03,-55.01 831.9,-62.01"/>
</a>
</g>
</g>
<!-- Node4 -->
<g id="Node000004" class="node">
<title>Node4</title>
<g id="a_Node000004"><a xlink:href="class_web_socket_session.html#a2529887f34770366fc2c225bd085edba" target="_top" xlink:title="Send current database records to client as ASN.1 BER/TLV.">
<polygon fill="white" stroke="#666666" points="653.5,-110 504,-110 504,-90 653.5,-90 653.5,-110"/>
<text xml:space="preserve" text-anchor="middle" x="578.75" y="-96.5" font-family="Helvetica,sans-Serif" font-size="10.00">WebSocketSession::sendData</text>
</a>
</g>
</g>
<!-- Node3&#45;&gt;Node4 -->
<g id="edge4_Node000003_Node000004" class="edge">
<title>Node3&#45;&gt;Node4</title>
<g id="a_edge4_Node000003_Node000004"><a xlink:title=" ">
<path fill="none" stroke="#63b8ff" d="M678.25,-74.75C658.68,-79.77 638.01,-85.07 620.68,-89.51"/>
<polygon fill="#63b8ff" stroke="#63b8ff" points="679.02,-78.17 687.83,-72.29 677.28,-71.39 679.02,-78.17"/>
</a>
</g>
</g>
<!-- Node10 -->
<g id="Node000010" class="node">
<title>Node10</title>
<g id="a_Node000010"><a xlink:href="class_web_socket_session.html#a6c789e228fc7a6101f1e586dc67ad8da" target="_top" xlink:title="Send a plain text response to this client (for FIL DIR etc.).">
<polygon fill="white" stroke="#666666" points="652.38,-32 505.12,-32 505.12,0 652.38,0 652.38,-32"/>
<text xml:space="preserve" text-anchor="start" x="513.12" y="-18.5" font-family="Helvetica,sans-Serif" font-size="10.00">WebSocketSession::sendText</text>
<text xml:space="preserve" text-anchor="middle" x="578.75" y="-6.5" font-family="Helvetica,sans-Serif" font-size="10.00">Response</text>
</a>
</g>
</g>
<!-- Node3&#45;&gt;Node10 -->
<g id="edge13_Node000003_Node000010" class="edge">
<title>Node3&#45;&gt;Node10</title>
<g id="a_edge13_Node000003_Node000010"><a xlink:title=" ">
<path fill="none" stroke="#63b8ff" d="M678.26,-40.08C667.95,-37.56 657.33,-34.96 647.06,-32.45"/>
<polygon fill="#63b8ff" stroke="#63b8ff" points="677.28,-43.44 687.83,-42.42 678.95,-36.64 677.28,-43.44"/>
</a>
</g>
</g>
<!-- Node4&#45;&gt;Node1 -->
<g id="edge12_Node000004_Node000001" class="edge">
<title>Node4&#45;&gt;Node1</title>
<g id="a_edge12_Node000004_Node000001"><a xlink:title=" ">
<path fill="none" stroke="#63b8ff" d="M664.95,-98.7C747.23,-96.71 875.24,-91.68 985.5,-79 1003.52,-76.93 1023.1,-73.7 1040.47,-70.49"/>
<polygon fill="#63b8ff" stroke="#63b8ff" points="665.08,-95.19 655.16,-98.92 665.24,-102.19 665.08,-95.19"/>
</a>
</g>
</g>
<!-- Node5 -->
<g id="Node000005" class="node">
<title>Node5</title>
<g id="a_Node000005"><a xlink:href="class_web_socket_session.html#a124943db6c094918e372c94bfb7ec533" target="_top" xlink:title="Send the next queued message (if any).">
<polygon fill="white" stroke="#666666" points="468,-70 311,-70 311,-50 468,-50 468,-70"/>
<text xml:space="preserve" text-anchor="middle" x="389.5" y="-56.5" font-family="Helvetica,sans-Serif" font-size="10.00">WebSocketSession::drainQueue</text>
</a>
</g>
</g>
<!-- Node4&#45;&gt;Node5 -->
<g id="edge5_Node000004_Node000005" class="edge">
<title>Node4&#45;&gt;Node5</title>
<g id="a_edge5_Node000004_Node000005"><a xlink:title=" ">
<path fill="none" stroke="#63b8ff" d="M518.09,-87.26C492.78,-81.85 463.65,-75.63 439.62,-70.49"/>
<polygon fill="#63b8ff" stroke="#63b8ff" points="517.05,-90.61 527.56,-89.28 518.51,-83.77 517.05,-90.61"/>
</a>
</g>
</g>
<!-- Node8 -->
<g id="Node000008" class="node">
<title>Node8</title>
<g id="a_Node000008"><a xlink:href="class_web_socket_session.html#a7b82f2e9c71f6822c2d2f6dcc1a251c5" target="_top" xlink:title="Handle WebSocket handshake completion.">
<polygon fill="white" stroke="#666666" points="448.5,-120 330.5,-120 330.5,-88 448.5,-88 448.5,-120"/>
<text xml:space="preserve" text-anchor="start" x="338.5" y="-106.5" font-family="Helvetica,sans-Serif" font-size="10.00">WebSocketSession::on</text>
<text xml:space="preserve" text-anchor="middle" x="389.5" y="-94.5" font-family="Helvetica,sans-Serif" font-size="10.00">_accept</text>
</a>
</g>
</g>
<!-- Node4&#45;&gt;Node8 -->
<g id="edge10_Node000004_Node000008" class="edge">
<title>Node4&#45;&gt;Node8</title>
<g id="a_edge10_Node000004_Node000008"><a xlink:title=" ">
<path fill="none" stroke="#63b8ff" d="M492.55,-101.82C477.81,-102.13 462.79,-102.46 448.97,-102.75"/>
<polygon fill="#63b8ff" stroke="#63b8ff" points="492.31,-105.33 502.23,-101.61 492.16,-98.33 492.31,-105.33"/>
</a>
</g>
</g>
<!-- Node5&#45;&gt;Node3 -->
<g id="edge9_Node000005_Node000003" class="edge">
<title>Node5&#45;&gt;Node3</title>
<g id="a_edge9_Node000005_Node000003"><a xlink:title=" ">
<path fill="none" stroke="#63b8ff" d="M479.48,-59.25C545.09,-58.7 632.47,-57.97 689.35,-57.49"/>
<polygon fill="#63b8ff" stroke="#63b8ff" points="479.81,-55.75 469.84,-59.33 479.87,-62.75 479.81,-55.75"/>
</a>
</g>
</g>
<!-- Node6 -->
<g id="Node000006" class="node">
<title>Node6</title>
<g id="a_Node000006"><a xlink:href="class_web_socket_session.html#afe8845301daa6254f51e87dd9dd4cc3d" target="_top" xlink:title="Handle broadcast write completion — drains pending queue.">
<polygon fill="white" stroke="#666666" points="273.5,-76 155.5,-76 155.5,-44 273.5,-44 273.5,-76"/>
<text xml:space="preserve" text-anchor="start" x="163.5" y="-62.5" font-family="Helvetica,sans-Serif" font-size="10.00">WebSocketSession::on</text>
<text xml:space="preserve" text-anchor="middle" x="214.5" y="-50.5" font-family="Helvetica,sans-Serif" font-size="10.00">_broadcast_write</text>
</a>
</g>
</g>
<!-- Node5&#45;&gt;Node6 -->
<g id="edge6_Node000005_Node000006" class="edge">
<title>Node5&#45;&gt;Node6</title>
<g id="a_edge6_Node000005_Node000006"><a xlink:title=" ">
<path fill="none" stroke="#63b8ff" d="M299.25,-53.25C290.61,-53.27 282.01,-53.38 273.79,-53.58"/>
<polygon fill="#63b8ff" stroke="#63b8ff" points="299.08,-56.75 309.09,-53.28 299.1,-49.75 299.08,-56.75"/>
</a>
</g>
</g>
<!-- Node6&#45;&gt;Node5 -->
<g id="edge8_Node000006_Node000005" class="edge">
<title>Node6&#45;&gt;Node5</title>
<g id="a_edge8_Node000006_Node000005"><a xlink:title=" ">
<path fill="none" stroke="#63b8ff" d="M285.07,-66.63C293.47,-66.75 302.09,-66.78 310.6,-66.72"/>
<polygon fill="#63b8ff" stroke="#63b8ff" points="285.37,-63.14 275.3,-66.45 285.23,-70.14 285.37,-63.14"/>
</a>
</g>
</g>
<!-- Node7 -->
<g id="Node000007" class="node">
<title>Node7</title>
<g id="a_Node000007"><a xlink:href="class_web_socket_session.html#a24aad98befc1c2d007af7a64bee4864f" target="_top" xlink:title="Perform broadcast write operation (called on strand).">
<polygon fill="white" stroke="#666666" points="118,-76 0,-76 0,-44 118,-44 118,-76"/>
<text xml:space="preserve" text-anchor="start" x="8" y="-62.5" font-family="Helvetica,sans-Serif" font-size="10.00">WebSocketSession::do</text>
<text xml:space="preserve" text-anchor="middle" x="59" y="-50.5" font-family="Helvetica,sans-Serif" font-size="10.00">_broadcast</text>
</a>
</g>
</g>
<!-- Node6&#45;&gt;Node7 -->
<g id="edge7_Node000006_Node000007" class="edge">
<title>Node6&#45;&gt;Node7</title>
<g id="a_edge7_Node000006_Node000007"><a xlink:title=" ">
<path fill="none" stroke="#63b8ff" d="M143.6,-60C135.15,-60 126.57,-60 118.31,-60"/>
<polygon fill="#63b8ff" stroke="#63b8ff" points="143.52,-63.5 153.52,-60 143.52,-56.5 143.52,-63.5"/>
</a>
</g>
</g>
<!-- Node9 -->
<g id="Node000009" class="node">
<title>Node9</title>
<g id="a_Node000009"><a xlink:href="class_web_socket_session.html#aa60a520432526e90b74fd97713469a56" target="_top" xlink:title="Start the session by accepting WebSocket handshake.">
<polygon fill="white" stroke="#666666" points="275,-114 154,-114 154,-94 275,-94 275,-114"/>
<text xml:space="preserve" text-anchor="middle" x="214.5" y="-100.5" font-family="Helvetica,sans-Serif" font-size="10.00">WebSocketSession::run</text>
</a>
</g>
</g>
<!-- Node8&#45;&gt;Node9 -->
<g id="edge11_Node000008_Node000009" class="edge">
<title>Node8&#45;&gt;Node9</title>
<g id="a_edge11_Node000008_Node000009"><a xlink:title=" ">
<path fill="none" stroke="#63b8ff" d="M318.96,-104C304.47,-104 289.31,-104 275.21,-104"/>
<polygon fill="#63b8ff" stroke="#63b8ff" points="318.9,-107.5 328.9,-104 318.9,-100.5 318.9,-107.5"/>
</a>
</g>
</g>
</g>
</svg>
