<?xml version="1.0" encoding="UTF-8" standalone="no"?>
<!DOCTYPE svg PUBLIC "-//W3C//DTD SVG 1.1//EN"
 "http://www.w3.org/Graphics/SVG/1.1/DTD/svg11.dtd">
<!-- Generated by graphviz version 14.1.2 (20260124.0452)
 -->
<!-- Title: TelnetSmlApp::waitForExit Pages: 1 -->
<svg width="300pt" height="66pt"
 viewBox="0.00 0.00 300.00 66.00" xmlns="http://www.w3.org/2000/svg" xmlns:xlink="http://www.w3.org/1999/xlink">
<g id="graph0" class="graph" transform="scale(1 1) rotate(0) translate(4 62)">
<title>TelnetSmlApp::waitForExit</title>
<!-- Node1 -->
<g id="Node000001" class="node">
<title>Node1</title>
<g id="a_Node000001"><a xlink:title="Block until user requests application exit.">
<polygon fill="#999999" stroke="#666666" points="292.25,-39 160,-39 160,-19 292.25,-19 292.25,-39"/>
<text xml:space="preserve" text-anchor="middle" x="226.12" y="-25.5" font-family="Helvetica,sans-Serif" font-size="10.00">TelnetSmlApp::waitForExit</text>
</a>
</g>
</g>
<!-- Node2 -->
<g id="Node000002" class="node">
<title>Node2</title>
<g id="a_Node000002"><a xlink:href="dll__example_8cpp.html#ae66f6b31b5ad750f1fe042a706a4e3d4" target="_top" xlink:title="Example application entry point.">
<polygon fill="white" stroke="#666666" points="80.5,-58 43.5,-58 43.5,-38 80.5,-38 80.5,-58"/>
<text xml:space="preserve" text-anchor="middle" x="62" y="-44.5" font-family="Helvetica,sans-Serif" font-size="10.00">main</text>
</a>
</g>
</g>
<!-- Node1&#45;&gt;Node2 -->
<g id="edge1_Node000001_Node000002" class="edge">
<title>Node1&#45;&gt;Node2</title>
<g id="a_edge1_Node000001_Node000002"><a xlink:title=" ">
<path fill="none" stroke="#63b8ff" d="M148.47,-37.98C123.12,-40.95 97.2,-43.99 80.66,-45.93"/>
<polygon fill="#63b8ff" stroke="#63b8ff" points="148.62,-41.49 158.15,-36.85 147.81,-34.54 148.62,-41.49"/>
</a>
</g>
</g>
<!-- Node3 -->
<g id="Node000003" class="node">
<title>Node3</title>
<g id="a_Node000003"><a xlink:href="class_telnet_sml_app.html#a4e85cb81d608f886dc22c96cc349b25a" target="_top" xlink:title=" ">
<polygon fill="white" stroke="#666666" points="124,-20 0,-20 0,0 124,0 124,-20"/>
<text xml:space="preserve" text-anchor="middle" x="62" y="-6.5" font-family="Helvetica,sans-Serif" font-size="10.00">TelnetSmlApp::operator=</text>
</a>
</g>
</g>
<!-- Node1&#45;&gt;Node3 -->
<g id="edge2_Node000001_Node000003" class="edge">
<title>Node1&#45;&gt;Node3</title>
<g id="a_edge2_Node000001_Node000003"><a xlink:title=" ">
<path fill="none" stroke="#63b8ff" d="M148.31,-20C140.24,-19.05 132.12,-18.1 124.26,-17.18"/>
<polygon fill="#63b8ff" stroke="#63b8ff" points="147.81,-23.46 158.15,-21.15 148.62,-16.51 147.81,-23.46"/>
</a>
</g>
</g>
</g>
</svg>
