<?xml version="1.0" encoding="UTF-8" standalone="no"?>
<!DOCTYPE svg PUBLIC "-//W3C//DTD SVG 1.1//EN"
 "http://www.w3.org/Graphics/SVG/1.1/DTD/svg11.dtd">
<!-- Generated by graphviz version 14.1.2 (20260124.0452)
 -->
<!-- Title: WebSocketSession::do_read Pages: 1 -->
<svg width="1163pt" height="172pt"
 viewBox="0.00 0.00 1163.00 172.00" xmlns="http://www.w3.org/2000/svg" xmlns:xlink="http://www.w3.org/1999/xlink">
<g id="graph0" class="graph" transform="scale(1 1) rotate(0) translate(4 168)">
<title>WebSocketSession::do_read</title>
<!-- Node1 -->
<g id="Node000001" class="node">
<title>Node1</title>
<g id="a_Node000001"><a xlink:title="Initiate async read for next client message.">
<polygon fill="#999999" stroke="#666666" points="142,-86 0,-86 0,-66 142,-66 142,-86"/>
<text xml:space="preserve" text-anchor="middle" x="71" y="-72.5" font-family="Helvetica,sans-Serif" font-size="10.00">WebSocketSession::do_read</text>
</a>
</g>
</g>
<!-- Node2 -->
<g id="Node000002" class="node">
<title>Node2</title>
<g id="a_Node000002"><a xlink:href="class_web_socket_session.html#a6c0557f87f9f6050a8848237ace942bb" target="_top" xlink:title="Handle received client message.">
<polygon fill="white" stroke="#666666" points="320,-86 178,-86 178,-66 320,-66 320,-86"/>
<text xml:space="preserve" text-anchor="middle" x="249" y="-72.5" font-family="Helvetica,sans-Serif" font-size="10.00">WebSocketSession::on_read</text>
</a>
</g>
</g>
<!-- Node1&#45;&gt;Node2 -->
<g id="edge1_Node000001_Node000002" class="edge">
<title>Node1&#45;&gt;Node2</title>
<g id="a_edge1_Node000001_Node000002"><a xlink:title=" ">
<path fill="none" stroke="#63b8ff" d="M142.32,-69.37C150.19,-69.26 158.26,-69.23 166.27,-69.27"/>
<polygon fill="#63b8ff" stroke="#63b8ff" points="165.96,-72.76 175.99,-69.36 166.03,-65.76 165.96,-72.76"/>
</a>
</g>
</g>
<!-- Node2&#45;&gt;Node1 -->
<g id="edge2_Node000002_Node000001" class="edge">
<title>Node2&#45;&gt;Node1</title>
<g id="a_edge2_Node000002_Node000001"><a xlink:title=" ">
<path fill="none" stroke="#63b8ff" d="M177.51,-82.63C169.72,-82.74 161.74,-82.77 153.83,-82.74"/>
<polygon fill="#63b8ff" stroke="#63b8ff" points="153.86,-79.24 143.83,-82.64 153.8,-86.24 153.86,-79.24"/>
</a>
</g>
</g>
<!-- Node3 -->
<g id="Node000003" class="node">
<title>Node3</title>
<g id="a_Node000003"><a xlink:href="class_web_socket_session.html#a43bf9b3aa8c9ed23d031c7ae8059da22" target="_top" xlink:title="Extract the &quot;action&quot; value from a simple JSON object.">
<polygon fill="white" stroke="#666666" points="499.5,-164 362,-164 362,-132 499.5,-132 499.5,-164"/>
<text xml:space="preserve" text-anchor="start" x="370" y="-150.5" font-family="Helvetica,sans-Serif" font-size="10.00">WebSocketSession::extract</text>
<text xml:space="preserve" text-anchor="middle" x="430.75" y="-138.5" font-family="Helvetica,sans-Serif" font-size="10.00">Action</text>
</a>
</g>
</g>
<!-- Node2&#45;&gt;Node3 -->
<g id="edge3_Node000002_Node000003" class="edge">
<title>Node2&#45;&gt;Node3</title>
<g id="a_edge3_Node000002_Node000003"><a xlink:title=" ">
<path fill="none" stroke="#63b8ff" d="M272.09,-86.5C293.36,-96.44 326.56,-111.51 356,-123 360.06,-124.59 364.27,-126.17 368.53,-127.73"/>
<polygon fill="#63b8ff" stroke="#63b8ff" points="367.13,-130.94 377.72,-131.01 369.49,-124.35 367.13,-130.94"/>
</a>
</g>
</g>
<!-- Node4 -->
<g id="Node000004" class="node">
<title>Node4</title>
<g id="a_Node000004"><a xlink:href="class_web_socket_session.html#a606e227b631d765ac0191c0535df607f" target="_top" xlink:title="Check if a message is a JSON action (contains &quot;action&quot; key).">
<polygon fill="white" stroke="#666666" points="498.75,-114 362.75,-114 362.75,-82 498.75,-82 498.75,-114"/>
<text xml:space="preserve" text-anchor="start" x="370.75" y="-100.5" font-family="Helvetica,sans-Serif" font-size="10.00">WebSocketSession::isJson</text>
<text xml:space="preserve" text-anchor="middle" x="430.75" y="-88.5" font-family="Helvetica,sans-Serif" font-size="10.00">Action</text>
</a>
</g>
</g>
<!-- Node2&#45;&gt;Node4 -->
<g id="edge4_Node000002_Node000004" class="edge">
<title>Node2&#45;&gt;Node4</title>
<g id="a_edge4_Node000002_Node000004"><a xlink:title=" ">
<path fill="none" stroke="#63b8ff" d="M320.27,-84.6C330.46,-85.85 341.01,-87.14 351.36,-88.41"/>
<polygon fill="#63b8ff" stroke="#63b8ff" points="350.62,-91.84 360.97,-89.58 351.47,-84.89 350.62,-91.84"/>
</a>
</g>
</g>
<!-- Node5 -->
<g id="Node000005" class="node">
<title>Node5</title>
<g id="a_Node000005"><a xlink:href="class_web_socket_session.html#a2529887f34770366fc2c225bd085edba" target="_top" xlink:title="Send current database records to client as JSON.">
<polygon fill="white" stroke="#666666" points="505.5,-64 356,-64 356,-44 505.5,-44 505.5,-64"/>
<text xml:space="preserve" text-anchor="middle" x="430.75" y="-50.5" font-family="Helvetica,sans-Serif" font-size="10.00">WebSocketSession::sendData</text>
</a>
</g>
</g>
<!-- Node2&#45;&gt;Node5 -->
<g id="edge5_Node000002_Node000005" class="edge">
<title>Node2&#45;&gt;Node5</title>
<g id="a_edge5_Node000002_Node000005"><a xlink:title=" ">
<path fill="none" stroke="#63b8ff" d="M320.27,-67.4C328.17,-66.43 336.28,-65.44 344.34,-64.45"/>
<polygon fill="#63b8ff" stroke="#63b8ff" points="344.67,-67.94 354.17,-63.25 343.82,-60.99 344.67,-67.94"/>
</a>
</g>
</g>
<!-- Node6 -->
<g id="Node000006" class="node">
<title>Node6</title>
<g id="a_Node000006"><a xlink:href="namespaceasn__tlv.html#a03c61eaf7c30d4bb4e8f50d6cd2f5f03" target="_top" xlink:title="Encode SER records to ASN.1 BER/TLV format.">
<polygon fill="white" stroke="#666666" points="678.25,-82 541.5,-82 541.5,-50 678.25,-50 678.25,-82"/>
<text xml:space="preserve" text-anchor="start" x="549.5" y="-68.5" font-family="Helvetica,sans-Serif" font-size="10.00">asn_tlv::encodeSerRecords</text>
<text xml:space="preserve" text-anchor="middle" x="609.88" y="-56.5" font-family="Helvetica,sans-Serif" font-size="10.00">ToTlv</text>
</a>
</g>
</g>
<!-- Node5&#45;&gt;Node6 -->
<g id="edge6_Node000005_Node000006" class="edge">
<title>Node5&#45;&gt;Node6</title>
<g id="a_edge6_Node000005_Node000006"><a xlink:title=" ">
<path fill="none" stroke="#63b8ff" d="M505.84,-59.02C513.67,-59.55 521.66,-60.09 529.55,-60.63"/>
<polygon fill="#63b8ff" stroke="#63b8ff" points="529.29,-64.12 539.51,-61.3 529.76,-57.13 529.29,-64.12"/>
</a>
</g>
</g>
<!-- Node10 -->
<g id="Node000010" class="node">
<title>Node10</title>
<g id="a_Node000010"><a xlink:href="class_web_socket_session.html#a0fed81151d5dcbe23dbee79f1bf12c66" target="_top" xlink:title="Handle write completion.">
<polygon fill="white" stroke="#666666" points="668.88,-32 550.88,-32 550.88,0 668.88,0 668.88,-32"/>
<text xml:space="preserve" text-anchor="start" x="558.88" y="-18.5" font-family="Helvetica,sans-Serif" font-size="10.00">WebSocketSession::on</text>
<text xml:space="preserve" text-anchor="middle" x="609.88" y="-6.5" font-family="Helvetica,sans-Serif" font-size="10.00">_write</text>
</a>
</g>
</g>
<!-- Node5&#45;&gt;Node10 -->
<g id="edge11_Node000005_Node000010" class="edge">
<title>Node5&#45;&gt;Node10</title>
<g id="a_edge11_Node000005_Node000010"><a xlink:title=" ">
<path fill="none" stroke="#63b8ff" d="M480.62,-43.52C498.76,-39.62 519.71,-35.13 539.35,-30.92"/>
<polygon fill="#63b8ff" stroke="#63b8ff" points="539.89,-34.38 548.93,-28.86 538.42,-27.54 539.89,-34.38"/>
</a>
</g>
</g>
<!-- Node7 -->
<g id="Node000007" class="node">
<title>Node7</title>
<g id="a_Node000007"><a xlink:href="namespaceasn__tlv.html#a0cc9af3d4e8aba5f164c66bb47750767" target="_top" xlink:title="Append a string as a TLV structure.">
<polygon fill="white" stroke="#666666" points="839.75,-95 714.25,-95 714.25,-75 839.75,-75 839.75,-95"/>
<text xml:space="preserve" text-anchor="middle" x="777" y="-81.5" font-family="Helvetica,sans-Serif" font-size="10.00">asn_tlv::berAppendString</text>
</a>
</g>
</g>
<!-- Node6&#45;&gt;Node7 -->
<g id="edge7_Node000006_Node000007" class="edge">
<title>Node6&#45;&gt;Node7</title>
<g id="a_edge7_Node000006_Node000007"><a xlink:title=" ">
<path fill="none" stroke="#63b8ff" d="M678.51,-73.78C686.44,-74.7 694.56,-75.63 702.57,-76.55"/>
<polygon fill="#63b8ff" stroke="#63b8ff" points="701.94,-80 712.27,-77.67 702.74,-73.05 701.94,-80"/>
</a>
</g>
</g>
<!-- Node8 -->
<g id="Node000008" class="node">
<title>Node8</title>
<g id="a_Node000008"><a xlink:href="namespaceasn__tlv.html#a4a9f3333d71c851f9002020ffd417b18" target="_top" xlink:title="Append a complete TLV structure to an output buffer.">
<polygon fill="white" stroke="#666666" points="989.25,-76 875.75,-76 875.75,-56 989.25,-56 989.25,-76"/>
<text xml:space="preserve" text-anchor="middle" x="932.5" y="-62.5" font-family="Helvetica,sans-Serif" font-size="10.00">asn_tlv::berAppendTlv</text>
</a>
</g>
</g>
<!-- Node6&#45;&gt;Node8 -->
<g id="edge10_Node000006_Node000008" class="edge">
<title>Node6&#45;&gt;Node8</title>
<g id="a_edge10_Node000006_Node000008"><a xlink:title=" ">
<path fill="none" stroke="#63b8ff" d="M678.48,-66C733.11,-66 809.63,-66 864.18,-66"/>
<polygon fill="#63b8ff" stroke="#63b8ff" points="863.96,-69.5 873.96,-66 863.96,-62.5 863.96,-69.5"/>
</a>
</g>
</g>
<!-- Node7&#45;&gt;Node8 -->
<g id="edge8_Node000007_Node000008" class="edge">
<title>Node7&#45;&gt;Node8</title>
<g id="a_edge8_Node000007_Node000008"><a xlink:title=" ">
<path fill="none" stroke="#63b8ff" d="M839.99,-77.33C848.02,-76.33 856.28,-75.31 864.39,-74.31"/>
<polygon fill="#63b8ff" stroke="#63b8ff" points="864.72,-77.79 874.21,-73.09 863.86,-70.85 864.72,-77.79"/>
</a>
</g>
</g>
<!-- Node9 -->
<g id="Node000009" class="node">
<title>Node9</title>
<g id="a_Node000009"><a xlink:href="namespaceasn__tlv.html#af1ae5498c52c5e99d18f2cd5cb4f2609" target="_top" xlink:title="Append BER length encoding to an output buffer.">
<polygon fill="white" stroke="#666666" points="1154.5,-76 1025.25,-76 1025.25,-56 1154.5,-56 1154.5,-76"/>
<text xml:space="preserve" text-anchor="middle" x="1089.88" y="-62.5" font-family="Helvetica,sans-Serif" font-size="10.00">asn_tlv::berAppendLength</text>
</a>
</g>
</g>
<!-- Node8&#45;&gt;Node9 -->
<g id="edge9_Node000008_Node000009" class="edge">
<title>Node8&#45;&gt;Node9</title>
<g id="a_edge9_Node000008_Node000009"><a xlink:title=" ">
<path fill="none" stroke="#63b8ff" d="M989.59,-66C997.39,-66 1005.51,-66 1013.59,-66"/>
<polygon fill="#63b8ff" stroke="#63b8ff" points="1013.44,-69.5 1023.44,-66 1013.44,-62.5 1013.44,-69.5"/>
</a>
</g>
</g>
<!-- Node10&#45;&gt;Node1 -->
<g id="edge12_Node000010_Node000001" class="edge">
<title>Node10&#45;&gt;Node1</title>
<g id="a_edge12_Node000010_Node000001"><a xlink:title=" ">
<path fill="none" stroke="#63b8ff" d="M550.55,-19.59C499.25,-22.93 422.59,-28.39 356,-35 276.68,-42.88 256.82,-45.07 178,-57 165.2,-58.94 151.58,-61.21 138.51,-63.51"/>
<polygon fill="#63b8ff" stroke="#63b8ff" points="137.92,-60.06 128.69,-65.25 139.14,-66.95 137.92,-60.06"/>
</a>
</g>
</g>
</g>
</svg>
