<?xml version="1.0" encoding="UTF-8" standalone="no"?>
<!DOCTYPE svg PUBLIC "-//W3C//DTD SVG 1.1//EN"
 "http://www.w3.org/Graphics/SVG/1.1/DTD/svg11.dtd">
<!-- Generated by graphviz version 14.1.1 (20251213.1925)
 -->
<!-- Title: WebSocketSession::do_read Pages: 1 -->
<svg width="994pt" height="169pt"
 viewBox="0.00 0.00 994.00 169.00" xmlns="http://www.w3.org/2000/svg" xmlns:xlink="http://www.w3.org/1999/xlink">
<g id="graph0" class="graph" transform="scale(1 1) rotate(0) translate(4 165)">
<title>WebSocketSession::do_read</title>
<!-- Node1 -->
<g id="Node000001" class="node">
<title>Node1</title>
<g id="a_Node000001"><a xlink:title="Initiate async read for next client message.">
<polygon fill="#999999" stroke="#666666" points="985.5,-161 843.5,-161 843.5,-141 985.5,-141 985.5,-161"/>
<text xml:space="preserve" text-anchor="middle" x="914.5" y="-147.5" font-family="Helvetica,sans-Serif" font-size="10.00">WebSocketSession::do_read</text>
</a>
</g>
</g>
<!-- Node2 -->
<g id="Node000002" class="node">
<title>Node2</title>
<g id="a_Node000002"><a xlink:href="class_web_socket_session.html#a6c0557f87f9f6050a8848237ace942bb" target="_top" xlink:title="Handle received client message.">
<polygon fill="white" stroke="#666666" points="460.5,-161 318.5,-161 318.5,-141 460.5,-141 460.5,-161"/>
<text xml:space="preserve" text-anchor="middle" x="389.5" y="-147.5" font-family="Helvetica,sans-Serif" font-size="10.00">WebSocketSession::on_read</text>
</a>
</g>
</g>
<!-- Node1&#45;&gt;Node2 -->
<g id="edge1_Node000001_Node000002" class="edge">
<title>Node1&#45;&gt;Node2</title>
<g id="a_edge1_Node000001_Node000002"><a xlink:title=" ">
<path fill="none" stroke="#63b8ff" d="M831.77,-145.94C729.81,-143.6 557.17,-143.69 460.83,-146.22"/>
<polygon fill="#63b8ff" stroke="#63b8ff" points="831.64,-149.44 841.72,-146.18 831.81,-142.44 831.64,-149.44"/>
</a>
</g>
</g>
<!-- Node3 -->
<g id="Node000003" class="node">
<title>Node3</title>
<g id="a_Node000003"><a xlink:href="class_web_socket_session.html#a0fed81151d5dcbe23dbee79f1bf12c66" target="_top" xlink:title="Handle write completion.">
<polygon fill="white" stroke="#666666" points="807.5,-92 689.5,-92 689.5,-60 807.5,-60 807.5,-92"/>
<text xml:space="preserve" text-anchor="start" x="697.5" y="-78.5" font-family="Helvetica,sans-Serif" font-size="10.00">WebSocketSession::on</text>
<text xml:space="preserve" text-anchor="middle" x="748.5" y="-66.5" font-family="Helvetica,sans-Serif" font-size="10.00">_write</text>
</a>
</g>
</g>
<!-- Node1&#45;&gt;Node3 -->
<g id="edge3_Node000001_Node000003" class="edge">
<title>Node1&#45;&gt;Node3</title>
<g id="a_edge3_Node000001_Node000003"><a xlink:title=" ">
<path fill="none" stroke="#63b8ff" d="M880.39,-135.86C852.82,-123.25 813.65,-105.34 785.35,-92.4"/>
<polygon fill="#63b8ff" stroke="#63b8ff" points="878.77,-138.97 889.32,-139.94 881.68,-132.6 878.77,-138.97"/>
</a>
</g>
</g>
<!-- Node2&#45;&gt;Node1 -->
<g id="edge2_Node000002_Node000001" class="edge">
<title>Node2&#45;&gt;Node1</title>
<g id="a_edge2_Node000002_Node000001"><a xlink:title=" ">
<path fill="none" stroke="#63b8ff" d="M472.3,-156.06C574.3,-158.4 746.94,-158.31 843.24,-155.78"/>
<polygon fill="#63b8ff" stroke="#63b8ff" points="472.43,-152.57 462.34,-155.82 472.26,-159.56 472.43,-152.57"/>
</a>
</g>
</g>
<!-- Node4 -->
<g id="Node000004" class="node">
<title>Node4</title>
<g id="a_Node000004"><a xlink:href="class_web_socket_session.html#a2529887f34770366fc2c225bd085edba" target="_top" xlink:title="Send current database records to client as ASN.1 BER/TLV.">
<polygon fill="white" stroke="#666666" points="653.5,-64 504,-64 504,-44 653.5,-44 653.5,-64"/>
<text xml:space="preserve" text-anchor="middle" x="578.75" y="-50.5" font-family="Helvetica,sans-Serif" font-size="10.00">WebSocketSession::sendData</text>
</a>
</g>
</g>
<!-- Node3&#45;&gt;Node4 -->
<g id="edge4_Node000003_Node000004" class="edge">
<title>Node3&#45;&gt;Node4</title>
<g id="a_edge4_Node000003_Node000004"><a xlink:title=" ">
<path fill="none" stroke="#63b8ff" d="M678.11,-66.9C670.09,-65.85 661.88,-64.77 653.8,-63.71"/>
<polygon fill="#63b8ff" stroke="#63b8ff" points="677.43,-70.34 687.8,-68.17 678.34,-63.4 677.43,-70.34"/>
</a>
</g>
</g>
<!-- Node10 -->
<g id="Node000010" class="node">
<title>Node10</title>
<g id="a_Node000010"><a xlink:href="class_web_socket_session.html#a6c789e228fc7a6101f1e586dc67ad8da" target="_top" xlink:title="Send a plain text response to this client (for FIL DIR etc.).">
<polygon fill="white" stroke="#666666" points="652.38,-114 505.12,-114 505.12,-82 652.38,-82 652.38,-114"/>
<text xml:space="preserve" text-anchor="start" x="513.12" y="-100.5" font-family="Helvetica,sans-Serif" font-size="10.00">WebSocketSession::sendText</text>
<text xml:space="preserve" text-anchor="middle" x="578.75" y="-88.5" font-family="Helvetica,sans-Serif" font-size="10.00">Response</text>
</a>
</g>
</g>
<!-- Node3&#45;&gt;Node10 -->
<g id="edge13_Node000003_Node000010" class="edge">
<title>Node3&#45;&gt;Node10</title>
<g id="a_edge13_Node000003_Node000010"><a xlink:title=" ">
<path fill="none" stroke="#63b8ff" d="M678.02,-85.11C669.64,-86.21 661.06,-87.34 652.63,-88.44"/>
<polygon fill="#63b8ff" stroke="#63b8ff" points="678.34,-88.6 687.8,-83.83 677.43,-81.66 678.34,-88.6"/>
</a>
</g>
</g>
<!-- Node4&#45;&gt;Node2 -->
<g id="edge12_Node000004_Node000002" class="edge">
<title>Node4&#45;&gt;Node2</title>
<g id="a_edge12_Node000004_Node000002"><a xlink:title=" ">
<path fill="none" stroke="#63b8ff" d="M516.54,-67.97C512.24,-69.5 508.01,-71.17 504,-73 463.74,-91.32 422.4,-123.9 402.56,-140.56"/>
<polygon fill="#63b8ff" stroke="#63b8ff" points="517.47,-71.35 525.9,-64.93 515.31,-64.69 517.47,-71.35"/>
</a>
</g>
</g>
<!-- Node5 -->
<g id="Node000005" class="node">
<title>Node5</title>
<g id="a_Node000005"><a xlink:href="class_web_socket_session.html#a124943db6c094918e372c94bfb7ec533" target="_top" xlink:title="Send the next queued message (if any).">
<polygon fill="white" stroke="#666666" points="468,-26 311,-26 311,-6 468,-6 468,-26"/>
<text xml:space="preserve" text-anchor="middle" x="389.5" y="-12.5" font-family="Helvetica,sans-Serif" font-size="10.00">WebSocketSession::drainQueue</text>
</a>
</g>
</g>
<!-- Node4&#45;&gt;Node5 -->
<g id="edge5_Node000004_Node000005" class="edge">
<title>Node4&#45;&gt;Node5</title>
<g id="a_edge5_Node000004_Node000005"><a xlink:title=" ">
<path fill="none" stroke="#63b8ff" d="M515.06,-41.28C491.32,-36.46 464.59,-31.04 441.99,-26.45"/>
<polygon fill="#63b8ff" stroke="#63b8ff" points="514.11,-44.66 524.6,-43.21 515.5,-37.8 514.11,-44.66"/>
</a>
</g>
</g>
<!-- Node8 -->
<g id="Node000008" class="node">
<title>Node8</title>
<g id="a_Node000008"><a xlink:href="class_web_socket_session.html#a7b82f2e9c71f6822c2d2f6dcc1a251c5" target="_top" xlink:title="Handle WebSocket handshake completion.">
<polygon fill="white" stroke="#666666" points="448.5,-76 330.5,-76 330.5,-44 448.5,-44 448.5,-76"/>
<text xml:space="preserve" text-anchor="start" x="338.5" y="-62.5" font-family="Helvetica,sans-Serif" font-size="10.00">WebSocketSession::on</text>
<text xml:space="preserve" text-anchor="middle" x="389.5" y="-50.5" font-family="Helvetica,sans-Serif" font-size="10.00">_accept</text>
</a>
</g>
</g>
<!-- Node4&#45;&gt;Node8 -->
<g id="edge10_Node000004_Node000008" class="edge">
<title>Node4&#45;&gt;Node8</title>
<g id="a_edge10_Node000004_Node000008"><a xlink:title=" ">
<path fill="none" stroke="#63b8ff" d="M492.55,-56.73C477.81,-57.2 462.79,-57.68 448.97,-58.13"/>
<polygon fill="#63b8ff" stroke="#63b8ff" points="492.35,-60.24 502.23,-56.42 492.12,-53.24 492.35,-60.24"/>
</a>
</g>
</g>
<!-- Node5&#45;&gt;Node3 -->
<g id="edge9_Node000005_Node000003" class="edge">
<title>Node5&#45;&gt;Node3</title>
<g id="a_edge9_Node000005_Node000003"><a xlink:title=" ">
<path fill="none" stroke="#63b8ff" d="M479.81,-14.99C531.27,-16.25 596.78,-21.02 653.5,-35 675.63,-40.45 699.13,-50.7 717.1,-59.59"/>
<polygon fill="#63b8ff" stroke="#63b8ff" points="479.97,-11.5 469.9,-14.79 479.83,-18.49 479.97,-11.5"/>
</a>
</g>
</g>
<!-- Node6 -->
<g id="Node000006" class="node">
<title>Node6</title>
<g id="a_Node000006"><a xlink:href="class_web_socket_session.html#afe8845301daa6254f51e87dd9dd4cc3d" target="_top" xlink:title="Handle broadcast write completion — drains pending queue.">
<polygon fill="white" stroke="#666666" points="273.5,-32 155.5,-32 155.5,0 273.5,0 273.5,-32"/>
<text xml:space="preserve" text-anchor="start" x="163.5" y="-18.5" font-family="Helvetica,sans-Serif" font-size="10.00">WebSocketSession::on</text>
<text xml:space="preserve" text-anchor="middle" x="214.5" y="-6.5" font-family="Helvetica,sans-Serif" font-size="10.00">_broadcast_write</text>
</a>
</g>
</g>
<!-- Node5&#45;&gt;Node6 -->
<g id="edge6_Node000005_Node000006" class="edge">
<title>Node5&#45;&gt;Node6</title>
<g id="a_edge6_Node000005_Node000006"><a xlink:title=" ">
<path fill="none" stroke="#63b8ff" d="M299.25,-9.25C290.61,-9.27 282.01,-9.38 273.79,-9.58"/>
<polygon fill="#63b8ff" stroke="#63b8ff" points="299.08,-12.75 309.09,-9.28 299.1,-5.75 299.08,-12.75"/>
</a>
</g>
</g>
<!-- Node6&#45;&gt;Node5 -->
<g id="edge8_Node000006_Node000005" class="edge">
<title>Node6&#45;&gt;Node5</title>
<g id="a_edge8_Node000006_Node000005"><a xlink:title=" ">
<path fill="none" stroke="#63b8ff" d="M285.07,-22.63C293.47,-22.75 302.09,-22.78 310.6,-22.72"/>
<polygon fill="#63b8ff" stroke="#63b8ff" points="285.37,-19.14 275.3,-22.45 285.23,-26.14 285.37,-19.14"/>
</a>
</g>
</g>
<!-- Node7 -->
<g id="Node000007" class="node">
<title>Node7</title>
<g id="a_Node000007"><a xlink:href="class_web_socket_session.html#a24aad98befc1c2d007af7a64bee4864f" target="_top" xlink:title="Perform broadcast write operation (called on strand).">
<polygon fill="white" stroke="#666666" points="118,-32 0,-32 0,0 118,0 118,-32"/>
<text xml:space="preserve" text-anchor="start" x="8" y="-18.5" font-family="Helvetica,sans-Serif" font-size="10.00">WebSocketSession::do</text>
<text xml:space="preserve" text-anchor="middle" x="59" y="-6.5" font-family="Helvetica,sans-Serif" font-size="10.00">_broadcast</text>
</a>
</g>
</g>
<!-- Node6&#45;&gt;Node7 -->
<g id="edge7_Node000006_Node000007" class="edge">
<title>Node6&#45;&gt;Node7</title>
<g id="a_edge7_Node000006_Node000007"><a xlink:title=" ">
<path fill="none" stroke="#63b8ff" d="M143.6,-16C135.15,-16 126.57,-16 118.31,-16"/>
<polygon fill="#63b8ff" stroke="#63b8ff" points="143.52,-19.5 153.52,-16 143.52,-12.5 143.52,-19.5"/>
</a>
</g>
</g>
<!-- Node9 -->
<g id="Node000009" class="node">
<title>Node9</title>
<g id="a_Node000009"><a xlink:href="class_web_socket_session.html#aa60a520432526e90b74fd97713469a56" target="_top" xlink:title="Start the session by accepting WebSocket handshake.">
<polygon fill="white" stroke="#666666" points="275,-70 154,-70 154,-50 275,-50 275,-70"/>
<text xml:space="preserve" text-anchor="middle" x="214.5" y="-56.5" font-family="Helvetica,sans-Serif" font-size="10.00">WebSocketSession::run</text>
</a>
</g>
</g>
<!-- Node8&#45;&gt;Node9 -->
<g id="edge11_Node000008_Node000009" class="edge">
<title>Node8&#45;&gt;Node9</title>
<g id="a_edge11_Node000008_Node000009"><a xlink:title=" ">
<path fill="none" stroke="#63b8ff" d="M318.96,-60C304.47,-60 289.31,-60 275.21,-60"/>
<polygon fill="#63b8ff" stroke="#63b8ff" points="318.9,-63.5 328.9,-60 318.9,-56.5 318.9,-63.5"/>
</a>
</g>
</g>
</g>
</svg>
