<?xml version="1.0" encoding="UTF-8" standalone="no"?>
<!DOCTYPE svg PUBLIC "-//W3C//DTD SVG 1.1//EN"
 "http://www.w3.org/Graphics/SVG/1.1/DTD/svg11.dtd">
<!-- Generated by graphviz version 14.1.2 (20260124.0452)
 -->
<!-- Title: WebSocketSession::on_write Pages: 1 -->
<!--zoomable 134 -->

<svg id="main" version="1.1" xmlns="http://www.w3.org/2000/svg" xmlns:xlink="http://www.w3.org/1999/xlink" xml:space="preserve" onload="init(evt)">

<style type="text/css"><![CDATA[
.node, .edge {opacity: 0.7;}
.node.selected, .edge.selected {opacity: 1;}
.edge:hover path { stroke: red; }
.edge:hover polygon { stroke: red; fill: red; }
]]></style>

<defs>
  <circle id="rim" cx="0" cy="0" r="7"/>
  <circle id="rim2" cx="0" cy="0" r="3.5"/>
  <g id="zoomPlus">
    <use xlink:href="#rim" fill="#404040"><set attributeName="fill" to="#808080" begin="zoomplus.mouseover" end="zoomplus.mouseout"/></use>
    <path d="M-4,0h8M0,-4v8" fill="none" stroke="white" stroke-width="1.5" pointer-events="none"/>
  </g>
  <g id="zoomMin">
    <use xlink:href="#rim" fill="#404040"><set attributeName="fill" to="#808080" begin="zoomminus.mouseover" end="zoomminus.mouseout"/></use>
    <path d="M-4,0h8" fill="none" stroke="white" stroke-width="1.5" pointer-events="none"/>
  </g>
  <g id="arrowUp" transform="translate(30 24)">
    <use xlink:href="#rim"/>
    <path pointer-events="none" fill="none" stroke="white" stroke-width="1.5" d="M0,-3.0v7 M-2.5,-0.5L0,-3.0L2.5,-0.5"/>
  </g>
  <g id="arrowRight" transform="rotate(90) translate(36 -43)">
    <use xlink:href="#rim"/>
    <path pointer-events="none" fill="none" stroke="white" stroke-width="1.5" d="M0,-3.0v7 M-2.5,-0.5L0,-3.0L2.5,-0.5"/>
  </g>
  <g id="arrowDown" transform="rotate(180) translate(-30 -48)">
    <use xlink:href="#rim"/>
    <path pointer-events="none" fill="none" stroke="white" stroke-width="1.5" d="M0,-3.0v7 M-2.5,-0.5L0,-3.0L2.5,-0.5"/>
  </g>
  <g id="arrowLeft" transform="rotate(270) translate(-36 17)">
    <use xlink:href="#rim"/>
    <path pointer-events="none" fill="none" stroke="white" stroke-width="1.5" d="M0,-3.0v7 M-2.5,-0.5L0,-3.0L2.5,-0.5"/>
  </g>
  <g id="resetDef">
    <use xlink:href="#rim2" fill="#404040"><set attributeName="fill" to="#808080" begin="reset.mouseover" end="reset.mouseout"/></use>
  </g>
</defs>
<script type="application/ecmascript">
var viewWidth = 1317;
var viewHeight = 134;
var sectionId = 'dynsection-12';
</script>
<script type="application/ecmascript" xlink:href="svg.min.js"/>
<svg id="graph" class="graph">
<g id="viewport">
<title>WebSocketSession::on_write</title>
<!-- Node1 -->
<g id="Node000001" class="node">
<title>Node1</title>
<g id="a_Node000001"><a xlink:title="Handle write completion.">
<polygon fill="#999999" stroke="#666666" points="118,-52 0,-52 0,-20 118,-20 118,-52"/>
<text xml:space="preserve" text-anchor="start" x="8" y="-38.5" font-family="Helvetica,sans-Serif" font-size="10.00">WebSocketSession::on</text>
<text xml:space="preserve" text-anchor="middle" x="59" y="-26.5" font-family="Helvetica,sans-Serif" font-size="10.00">_write</text>
</a>
</g>
</g>
<!-- Node2 -->
<g id="Node000002" class="node">
<title>Node2</title>
<g id="a_Node000002"><a xlink:href="class_web_socket_session.html#a2bc079950c2e39e8ff745f0da57646ba" target="_top" xlink:title="Initiate async read for next client message.">
<polygon fill="white" stroke="#666666" points="296,-68 154,-68 154,-48 296,-48 296,-68"/>
<text xml:space="preserve" text-anchor="middle" x="225" y="-54.5" font-family="Helvetica,sans-Serif" font-size="10.00">WebSocketSession::do_read</text>
</a>
</g>
</g>
<!-- Node1&#45;&gt;Node2 -->
<g id="edge1_Node000001_Node000002" class="edge">
<title>Node1&#45;&gt;Node2</title>
<g id="a_edge1_Node000001_Node000002"><a xlink:title=" ">
<path fill="none" stroke="#63b8ff" d="M118.28,-43.82C126.04,-44.86 134.11,-45.94 142.18,-47.02"/>
<polygon fill="#63b8ff" stroke="#63b8ff" points="141.67,-50.49 152.05,-48.35 142.6,-43.55 141.67,-50.49"/>
</a>
</g>
</g>
<!-- Node3 -->
<g id="Node000003" class="node">
<title>Node3</title>
<g id="a_Node000003"><a xlink:href="class_web_socket_session.html#a6c0557f87f9f6050a8848237ace942bb" target="_top" xlink:title="Handle received client message.">
<polygon fill="white" stroke="#666666" points="474,-68 332,-68 332,-48 474,-48 474,-68"/>
<text xml:space="preserve" text-anchor="middle" x="403" y="-54.5" font-family="Helvetica,sans-Serif" font-size="10.00">WebSocketSession::on_read</text>
</a>
</g>
</g>
<!-- Node2&#45;&gt;Node3 -->
<g id="edge2_Node000002_Node000003" class="edge">
<title>Node2&#45;&gt;Node3</title>
<g id="a_edge2_Node000002_Node000003"><a xlink:title=" ">
<path fill="none" stroke="#63b8ff" d="M296.32,-51.37C304.19,-51.26 312.26,-51.23 320.27,-51.27"/>
<polygon fill="#63b8ff" stroke="#63b8ff" points="319.96,-54.76 329.99,-51.36 320.03,-47.76 319.96,-54.76"/>
</a>
</g>
</g>
<!-- Node3&#45;&gt;Node2 -->
<g id="edge3_Node000003_Node000002" class="edge">
<title>Node3&#45;&gt;Node2</title>
<g id="a_edge3_Node000003_Node000002"><a xlink:title=" ">
<path fill="none" stroke="#63b8ff" d="M331.51,-64.63C323.72,-64.74 315.74,-64.77 307.83,-64.74"/>
<polygon fill="#63b8ff" stroke="#63b8ff" points="307.86,-61.24 297.83,-64.64 307.8,-68.24 307.86,-61.24"/>
</a>
</g>
</g>
<!-- Node4 -->
<g id="Node000004" class="node">
<title>Node4</title>
<g id="a_Node000004"><a xlink:href="class_web_socket_session.html#a43bf9b3aa8c9ed23d031c7ae8059da22" target="_top" xlink:title="Extract the &quot;action&quot; value from a simple JSON object.">
<polygon fill="white" stroke="#666666" points="653.5,-126 516,-126 516,-94 653.5,-94 653.5,-126"/>
<text xml:space="preserve" text-anchor="start" x="524" y="-112.5" font-family="Helvetica,sans-Serif" font-size="10.00">WebSocketSession::extract</text>
<text xml:space="preserve" text-anchor="middle" x="584.75" y="-100.5" font-family="Helvetica,sans-Serif" font-size="10.00">Action</text>
</a>
</g>
</g>
<!-- Node3&#45;&gt;Node4 -->
<g id="edge4_Node000003_Node000004" class="edge">
<title>Node3&#45;&gt;Node4</title>
<g id="a_edge4_Node000003_Node000004"><a xlink:title=" ">
<path fill="none" stroke="#63b8ff" d="M439.94,-68.4C461.73,-74.7 490.22,-82.94 516.09,-90.43"/>
<polygon fill="#63b8ff" stroke="#63b8ff" points="514.96,-93.74 525.54,-93.16 516.9,-87.02 514.96,-93.74"/>
</a>
</g>
</g>
<!-- Node5 -->
<g id="Node000005" class="node">
<title>Node5</title>
<g id="a_Node000005"><a xlink:href="class_web_socket_session.html#a606e227b631d765ac0191c0535df607f" target="_top" xlink:title="Check if a message is a JSON action (contains &quot;action&quot; key).">
<polygon fill="white" stroke="#666666" points="652.75,-76 516.75,-76 516.75,-44 652.75,-44 652.75,-76"/>
<text xml:space="preserve" text-anchor="start" x="524.75" y="-62.5" font-family="Helvetica,sans-Serif" font-size="10.00">WebSocketSession::isJson</text>
<text xml:space="preserve" text-anchor="middle" x="584.75" y="-50.5" font-family="Helvetica,sans-Serif" font-size="10.00">Action</text>
</a>
</g>
</g>
<!-- Node3&#45;&gt;Node5 -->
<g id="edge5_Node000003_Node000005" class="edge">
<title>Node3&#45;&gt;Node5</title>
<g id="a_edge5_Node000003_Node000005"><a xlink:title=" ">
<path fill="none" stroke="#63b8ff" d="M474.27,-58.78C484.36,-58.89 494.79,-59.01 505.03,-59.12"/>
<polygon fill="#63b8ff" stroke="#63b8ff" points="504.92,-62.62 514.96,-59.23 505,-55.62 504.92,-62.62"/>
</a>
</g>
</g>
<!-- Node6 -->
<g id="Node000006" class="node">
<title>Node6</title>
<g id="a_Node000006"><a xlink:href="class_web_socket_session.html#a2529887f34770366fc2c225bd085edba" target="_top" xlink:title="Send current database records to client as JSON.">
<polygon fill="white" stroke="#666666" points="659.5,-26 510,-26 510,-6 659.5,-6 659.5,-26"/>
<text xml:space="preserve" text-anchor="middle" x="584.75" y="-12.5" font-family="Helvetica,sans-Serif" font-size="10.00">WebSocketSession::sendData</text>
</a>
</g>
</g>
<!-- Node3&#45;&gt;Node6 -->
<g id="edge6_Node000003_Node000006" class="edge">
<title>Node3&#45;&gt;Node6</title>
<g id="a_edge6_Node000003_Node000006"><a xlink:title=" ">
<path fill="none" stroke="#63b8ff" d="M448.89,-47.51C472.9,-41.9 502.67,-34.94 528.13,-29"/>
<polygon fill="#63b8ff" stroke="#63b8ff" points="528.7,-32.46 537.64,-26.77 527.11,-25.64 528.7,-32.46"/>
</a>
</g>
</g>
<!-- Node6&#45;&gt;Node1 -->
<g id="edge12_Node000006_Node000001" class="edge">
<title>Node6&#45;&gt;Node1</title>
<g id="a_edge12_Node000006_Node000001"><a xlink:title=" ">
<path fill="none" stroke="#63b8ff" d="M509.54,-18.83C408.35,-22.7 228.4,-29.57 129.64,-33.34"/>
<polygon fill="#63b8ff" stroke="#63b8ff" points="129.68,-29.84 119.82,-33.72 129.94,-36.83 129.68,-29.84"/>
</a>
</g>
</g>
<!-- Node7 -->
<g id="Node000007" class="node">
<title>Node7</title>
<g id="a_Node000007"><a xlink:href="namespaceasn__tlv.html#a03c61eaf7c30d4bb4e8f50d6cd2f5f03" target="_top" xlink:title="Encode SER records to ASN.1 BER/TLV format.">
<polygon fill="white" stroke="#666666" points="832.25,-32 695.5,-32 695.5,0 832.25,0 832.25,-32"/>
<text xml:space="preserve" text-anchor="start" x="703.5" y="-18.5" font-family="Helvetica,sans-Serif" font-size="10.00">asn_tlv::encodeSerRecords</text>
<text xml:space="preserve" text-anchor="middle" x="763.88" y="-6.5" font-family="Helvetica,sans-Serif" font-size="10.00">ToTlv</text>
</a>
</g>
</g>
<!-- Node6&#45;&gt;Node7 -->
<g id="edge7_Node000006_Node000007" class="edge">
<title>Node6&#45;&gt;Node7</title>
<g id="a_edge7_Node000006_Node000007"><a xlink:title=" ">
<path fill="none" stroke="#63b8ff" d="M659.84,-16C667.67,-16 675.66,-16 683.55,-16"/>
<polygon fill="#63b8ff" stroke="#63b8ff" points="683.5,-19.5 693.5,-16 683.5,-12.5 683.5,-19.5"/>
</a>
</g>
</g>
<!-- Node8 -->
<g id="Node000008" class="node">
<title>Node8</title>
<g id="a_Node000008"><a xlink:href="namespaceasn__tlv.html#a0cc9af3d4e8aba5f164c66bb47750767" target="_top" xlink:title="Append a string as a TLV structure.">
<polygon fill="white" stroke="#666666" points="993.75,-45 868.25,-45 868.25,-25 993.75,-25 993.75,-45"/>
<text xml:space="preserve" text-anchor="middle" x="931" y="-31.5" font-family="Helvetica,sans-Serif" font-size="10.00">asn_tlv::berAppendString</text>
</a>
</g>
</g>
<!-- Node7&#45;&gt;Node8 -->
<g id="edge8_Node000007_Node000008" class="edge">
<title>Node7&#45;&gt;Node8</title>
<g id="a_edge8_Node000007_Node000008"><a xlink:title=" ">
<path fill="none" stroke="#63b8ff" d="M832.51,-23.78C840.44,-24.7 848.56,-25.63 856.57,-26.55"/>
<polygon fill="#63b8ff" stroke="#63b8ff" points="855.94,-30 866.27,-27.67 856.74,-23.05 855.94,-30"/>
</a>
</g>
</g>
<!-- Node9 -->
<g id="Node000009" class="node">
<title>Node9</title>
<g id="a_Node000009"><a xlink:href="namespaceasn__tlv.html#a4a9f3333d71c851f9002020ffd417b18" target="_top" xlink:title="Append a complete TLV structure to an output buffer.">
<polygon fill="white" stroke="#666666" points="1143.25,-26 1029.75,-26 1029.75,-6 1143.25,-6 1143.25,-26"/>
<text xml:space="preserve" text-anchor="middle" x="1086.5" y="-12.5" font-family="Helvetica,sans-Serif" font-size="10.00">asn_tlv::berAppendTlv</text>
</a>
</g>
</g>
<!-- Node7&#45;&gt;Node9 -->
<g id="edge11_Node000007_Node000009" class="edge">
<title>Node7&#45;&gt;Node9</title>
<g id="a_edge11_Node000007_Node000009"><a xlink:title=" ">
<path fill="none" stroke="#63b8ff" d="M832.48,-16C887.11,-16 963.63,-16 1018.18,-16"/>
<polygon fill="#63b8ff" stroke="#63b8ff" points="1017.96,-19.5 1027.96,-16 1017.96,-12.5 1017.96,-19.5"/>
</a>
</g>
</g>
<!-- Node8&#45;&gt;Node9 -->
<g id="edge9_Node000008_Node000009" class="edge">
<title>Node8&#45;&gt;Node9</title>
<g id="a_edge9_Node000008_Node000009"><a xlink:title=" ">
<path fill="none" stroke="#63b8ff" d="M993.99,-27.33C1002.02,-26.33 1010.28,-25.31 1018.39,-24.31"/>
<polygon fill="#63b8ff" stroke="#63b8ff" points="1018.72,-27.79 1028.21,-23.09 1017.86,-20.85 1018.72,-27.79"/>
</a>
</g>
</g>
<!-- Node10 -->
<g id="Node000010" class="node">
<title>Node10</title>
<g id="a_Node000010"><a xlink:href="namespaceasn__tlv.html#af1ae5498c52c5e99d18f2cd5cb4f2609" target="_top" xlink:title="Append BER length encoding to an output buffer.">
<polygon fill="white" stroke="#666666" points="1308.5,-26 1179.25,-26 1179.25,-6 1308.5,-6 1308.5,-26"/>
<text xml:space="preserve" text-anchor="middle" x="1243.88" y="-12.5" font-family="Helvetica,sans-Serif" font-size="10.00">asn_tlv::berAppendLength</text>
</a>
</g>
</g>
<!-- Node9&#45;&gt;Node10 -->
<g id="edge10_Node000009_Node000010" class="edge">
<title>Node9&#45;&gt;Node10</title>
<g id="a_edge10_Node000009_Node000010"><a xlink:title=" ">
<path fill="none" stroke="#63b8ff" d="M1143.59,-16C1151.39,-16 1159.51,-16 1167.59,-16"/>
<polygon fill="#63b8ff" stroke="#63b8ff" points="1167.44,-19.5 1177.44,-16 1167.44,-12.5 1167.44,-19.5"/>
</a>
</g>
</g>
</g>
</svg>

<g id="navigator" transform="translate(0 0)" fill="#404254">
  <rect fill="#f2f5e9" fill-opacity="0.5" stroke="#606060" stroke-width=".5" x="0" y="0" width="60" height="60"/>
  <use id="zoomplus" xlink:href="#zoomPlus" x="17" y="9" onmousedown="handleZoom(evt,'in')"/>
  <use id="zoomminus" xlink:href="#zoomMin" x="42" y="9" onmousedown="handleZoom(evt,'out')"/>
  <use id="reset" xlink:href="#resetDef" x="30" y="36" onmousedown="handleReset()"/>
   <use id="arrowup" xlink:href="#arrowUp" x="0" y="0" onmousedown="handlePan(0,-1)"/>
  <use id="arrowright" xlink:href="#arrowRight" x="0" y="0" onmousedown="handlePan(1,0)"/>
  <use id="arrowdown" xlink:href="#arrowDown" x="0" y="0" onmousedown="handlePan(0,1)"/>
  <use id="arrowleft" xlink:href="#arrowLeft" x="0" y="0" onmousedown="handlePan(-1,0)"/>
</g>
<svg viewBox="0 0 15 15" width="100%" height="30px" preserveAspectRatio="xMaxYMin meet">
 <g id="arrow_out" transform="scale(0.3 0.3)">
  <a xlink:href="class_web_socket_session_a0fed81151d5dcbe23dbee79f1bf12c66_cgraph_org.svg" target="_base">
   <rect id="button" ry="5" rx="5" y="6" x="6" height="38" width="38"
        fill="#f2f5e9" fill-opacity="0.5" stroke="#606060" stroke-width="1.0"/>
   <path id="arrow"
     d="M 11.500037,31.436501 C 11.940474,20.09759 22.043105,11.32322 32.158766,21.979434 L 37.068811,17.246167 C 37.068811,17.246167 37.088388,32 37.088388,32 L 22.160133,31.978069 C 22.160133,31.978069 26.997745,27.140456 26.997745,27.140456 C 18.528582,18.264221 13.291696,25.230495 11.500037,31.436501 z"
     style="fill:#404040;"/>
  </a>
 </g>
</svg>

<style type='text/css'>
<![CDATA[
[data-mouse-over-selected='false'] { opacity: 0.7; }
[data-mouse-over-selected='true']  { opacity: 1.0; }
]]>
</style>
<script type="application/ecmascript"><![CDATA[
document.addEventListener('DOMContentLoaded', (event) => {
  highlightEdges();
  highlightAdjacentNodes();
});
]]></script>
</svg>
