<?xml version="1.0" encoding="UTF-8" standalone="no"?>
<!DOCTYPE svg PUBLIC "-//W3C//DTD SVG 1.1//EN"
 "http://www.w3.org/Graphics/SVG/1.1/DTD/svg11.dtd">
<!-- Generated by graphviz version 14.1.1 (20251213.1925)
 -->
<!-- Title: WebSocketListener Pages: 1 -->
<svg width="165pt" height="304pt"
 viewBox="0.00 0.00 165.00 304.00" xmlns="http://www.w3.org/2000/svg" xmlns:xlink="http://www.w3.org/1999/xlink">
<g id="graph0" class="graph" transform="scale(1 1) rotate(0) translate(4 300)">
<title>WebSocketListener</title>
<!-- Node1 -->
<g id="Node000001" class="node">
<title>Node1</title>
<g id="a_Node000001"><a xlink:title="Listens for and accepts incoming WebSocket connections.">
<polygon fill="#999999" stroke="none" points="132.62,-196 23.87,-196 23.87,0 132.62,0 132.62,-196"/>
<text xml:space="preserve" text-anchor="start" x="35.88" y="-182.5" font-family="Helvetica,sans-Serif" font-size="10.00">WebSocketListener</text>
<text xml:space="preserve" text-anchor="start" x="29.38" y="-166.5" font-family="Helvetica,sans-Serif" font-size="10.00">&#45;</text>
<text xml:space="preserve" text-anchor="start" x="37.88" y="-166.5" font-family="Helvetica,sans-Serif" font-size="10.00">ioc_</text>
<text xml:space="preserve" text-anchor="start" x="29.38" y="-150.5" font-family="Helvetica,sans-Serif" font-size="10.00">&#45;</text>
<text xml:space="preserve" text-anchor="start" x="37.88" y="-150.5" font-family="Helvetica,sans-Serif" font-size="10.00">acceptor_</text>
<text xml:space="preserve" text-anchor="start" x="29.38" y="-134.5" font-family="Helvetica,sans-Serif" font-size="10.00">&#45;</text>
<text xml:space="preserve" text-anchor="start" x="37.88" y="-134.5" font-family="Helvetica,sans-Serif" font-size="10.00">db_</text>
<text xml:space="preserve" text-anchor="start" x="29.38" y="-118.5" font-family="Helvetica,sans-Serif" font-size="10.00">&#45;</text>
<text xml:space="preserve" text-anchor="start" x="37.88" y="-118.5" font-family="Helvetica,sans-Serif" font-size="10.00">sessionMgr_</text>
<text xml:space="preserve" text-anchor="start" x="29.38" y="-102.5" font-family="Helvetica,sans-Serif" font-size="10.00">&#45;</text>
<text xml:space="preserve" text-anchor="start" x="37.88" y="-102.5" font-family="Helvetica,sans-Serif" font-size="10.00">cmdHandler_</text>
<text xml:space="preserve" text-anchor="start" x="29.38" y="-86.5" font-family="Helvetica,sans-Serif" font-size="10.00">&#45;</text>
<text xml:space="preserve" text-anchor="start" x="37.88" y="-86.5" font-family="Helvetica,sans-Serif" font-size="10.00">actionHandler_</text>
<text xml:space="preserve" text-anchor="start" x="29.38" y="-70.5" font-family="Helvetica,sans-Serif" font-size="10.00">&#45;</text>
<text xml:space="preserve" text-anchor="start" x="37.88" y="-70.5" font-family="Helvetica,sans-Serif" font-size="10.00">streamCmdHandler_</text>
<text xml:space="preserve" text-anchor="start" x="27.88" y="-54.5" font-family="Helvetica,sans-Serif" font-size="10.00">+</text>
<text xml:space="preserve" text-anchor="start" x="37.88" y="-54.5" font-family="Helvetica,sans-Serif" font-size="10.00">WebSocketListener()</text>
<text xml:space="preserve" text-anchor="start" x="27.88" y="-38.5" font-family="Helvetica,sans-Serif" font-size="10.00">+</text>
<text xml:space="preserve" text-anchor="start" x="37.88" y="-38.5" font-family="Helvetica,sans-Serif" font-size="10.00">run()</text>
<text xml:space="preserve" text-anchor="start" x="29.38" y="-22.5" font-family="Helvetica,sans-Serif" font-size="10.00">&#45;</text>
<text xml:space="preserve" text-anchor="start" x="37.88" y="-22.5" font-family="Helvetica,sans-Serif" font-size="10.00">do_accept()</text>
<text xml:space="preserve" text-anchor="start" x="29.38" y="-6.5" font-family="Helvetica,sans-Serif" font-size="10.00">&#45;</text>
<text xml:space="preserve" text-anchor="start" x="37.88" y="-6.5" font-family="Helvetica,sans-Serif" font-size="10.00">on_accept()</text>
<polygon fill="#666666" stroke="#666666" points="23.88,-178 23.88,-178 132.62,-178 132.62,-178 23.88,-178"/>
<polygon fill="#666666" stroke="#666666" points="23.88,-66 23.88,-66 35.88,-66 35.88,-66 23.88,-66"/>
<polygon fill="#666666" stroke="#666666" points="35.88,-66 35.88,-66 132.62,-66 132.62,-66 35.88,-66"/>
<polygon fill="none" stroke="#666666" points="23.88,0 23.88,-196 132.62,-196 132.62,0 23.88,0"/>
</a>
</g>
</g>
<!-- Node2 -->
<g id="Node000002" class="node">
<title>Node2</title>
<g id="a_Node000002"><a xlink:title=" ">
<polygon fill="white" stroke="none" points="156.5,-296 0,-296 0,-232 156.5,-232 156.5,-296"/>
<text xml:space="preserve" text-anchor="start" x="4" y="-282.5" font-family="Helvetica,sans-Serif" font-size="10.00">std::enable_shared</text>
<text xml:space="preserve" text-anchor="start" x="4" y="-270.5" font-family="Helvetica,sans-Serif" font-size="10.00">_from_this&lt; WebSocketListener &gt;</text>
<text xml:space="preserve" text-anchor="start" x="76.75" y="-254.5" font-family="Helvetica,sans-Serif" font-size="10.00"> </text>
<text xml:space="preserve" text-anchor="start" x="76.75" y="-238.5" font-family="Helvetica,sans-Serif" font-size="10.00"> </text>
<polygon fill="#666666" stroke="#666666" points="0,-266 0,-266 156.5,-266 156.5,-266 0,-266"/>
<polygon fill="#666666" stroke="#666666" points="0,-250 0,-250 156.5,-250 156.5,-250 0,-250"/>
<polygon fill="none" stroke="#666666" points="0,-232 0,-296 156.5,-296 156.5,-232 0,-232"/>
</a>
</g>
</g>
<!-- Node2&#45;&gt;Node1 -->
<g id="edge1_Node000001_Node000002" class="edge">
<title>Node2&#45;&gt;Node1</title>
<g id="a_edge1_Node000001_Node000002"><a xlink:title=" ">
<path fill="none" stroke="#63b8ff" d="M78.25,-220.8C78.25,-212.96 78.25,-204.48 78.25,-195.77"/>
<polygon fill="none" stroke="#63b8ff" points="74.75,-220.64 78.25,-230.64 81.75,-220.64 74.75,-220.64"/>
</a>
</g>
</g>
</g>
</svg>
