<?xml version="1.0" encoding="UTF-8" standalone="no"?>
<!DOCTYPE svg PUBLIC "-//W3C//DTD SVG 1.1//EN"
 "http://www.w3.org/Graphics/SVG/1.1/DTD/svg11.dtd">
<!-- Generated by graphviz version 14.1.2 (20260124.0452)
 -->
<!-- Title: TelnetClient::getLastIoResult Pages: 1 -->
<svg width="333pt" height="154pt"
 viewBox="0.00 0.00 333.00 154.00" xmlns="http://www.w3.org/2000/svg" xmlns:xlink="http://www.w3.org/1999/xlink">

<svg id="main" version="1.1" xmlns="http://www.w3.org/2000/svg" xmlns:xlink="http://www.w3.org/1999/xlink" xml:space="preserve">

<style type="text/css"><![CDATA[
.node, .edge {opacity: 0.7;}
.node.selected, .edge.selected {opacity: 1;}
.edge:hover path { stroke: red; }
.edge:hover polygon { stroke: red; fill: red; }
]]></style>
<script type="application/ecmascript" xlink:href="svg.min.js"/>
<svg id="graph" class="graph">
<g id="graph0" class="graph" transform="scale(1 1) rotate(0) translate(4 150)">
<title>TelnetClient::getLastIoResult</title>
<!-- Node1 -->
<g id="Node000001" class="node">
<title>Node1</title>
<g id="a_Node000001"><a xlink:title="Get the result of the last I/O operation.">
<polygon fill="#999999" stroke="#666666" points="325.25,-86 182.5,-86 182.5,-66 325.25,-66 325.25,-86"/>
<text xml:space="preserve" text-anchor="middle" x="253.88" y="-72.5" font-family="Helvetica,sans-Serif" font-size="10.00">TelnetClient::getLastIoResult</text>
</a>
</g>
</g>
<!-- Node2 -->
<g id="Node000002" class="node">
<title>Node2</title>
<g id="a_Node000002"><a xlink:href="struct_connect_fail_guard.html#acc3ba1425321f282a55df846cb614b19" target="_top" xlink:title="Evaluate connection failure.">
<polygon fill="white" stroke="#666666" points="144.25,-146 2.25,-146 2.25,-126 144.25,-126 144.25,-146"/>
<text xml:space="preserve" text-anchor="middle" x="73.25" y="-132.5" font-family="Helvetica,sans-Serif" font-size="10.00">ConnectFailGuard::operator()</text>
</a>
</g>
</g>
<!-- Node1&#45;&gt;Node2 -->
<g id="edge1_Node000001_Node000002" class="edge">
<title>Node1&#45;&gt;Node2</title>
<g id="a_edge1_Node000001_Node000002"><a xlink:title=" ">
<path fill="none" stroke="#63b8ff" d="M217.77,-90.66C197.2,-98.96 170.61,-109.21 146.5,-117 137.12,-120.03 126.94,-122.94 117.27,-125.52"/>
<polygon fill="#63b8ff" stroke="#63b8ff" points="218.88,-93.98 226.82,-86.97 216.24,-87.5 218.88,-93.98"/>
</a>
</g>
</g>
<!-- Node3 -->
<g id="Node000003" class="node">
<title>Node3</title>
<g id="a_Node000003"><a xlink:href="struct_connect_ok_guard.html#a92d6a434b182c2b8aa49a1b434f57e9b" target="_top" xlink:title="Evaluate connection success.">
<polygon fill="white" stroke="#666666" points="142.75,-108 3.75,-108 3.75,-88 142.75,-88 142.75,-108"/>
<text xml:space="preserve" text-anchor="middle" x="73.25" y="-94.5" font-family="Helvetica,sans-Serif" font-size="10.00">ConnectOkGuard::operator()</text>
</a>
</g>
</g>
<!-- Node1&#45;&gt;Node3 -->
<g id="edge2_Node000001_Node000003" class="edge">
<title>Node1&#45;&gt;Node3</title>
<g id="a_edge2_Node000001_Node000003"><a xlink:title=" ">
<path fill="none" stroke="#63b8ff" d="M170.76,-86.11C161.47,-87.26 152.07,-88.41 142.98,-89.54"/>
<polygon fill="#63b8ff" stroke="#63b8ff" points="171.02,-89.61 180.52,-84.91 170.17,-82.66 171.02,-89.61"/>
</a>
</g>
</g>
<!-- Node4 -->
<g id="Node000004" class="node">
<title>Node4</title>
<g id="a_Node000004"><a xlink:href="struct_login1_complete_guard.html#a09b327fb3ba790784df03f831db1ad6a" target="_top" xlink:title="Evaluate login completion.">
<polygon fill="white" stroke="#666666" points="129.62,-70 16.88,-70 16.88,-38 129.62,-38 129.62,-70"/>
<text xml:space="preserve" text-anchor="start" x="24.88" y="-56.5" font-family="Helvetica,sans-Serif" font-size="10.00">Login1CompleteGuard</text>
<text xml:space="preserve" text-anchor="middle" x="73.25" y="-44.5" font-family="Helvetica,sans-Serif" font-size="10.00">::operator()</text>
</a>
</g>
</g>
<!-- Node1&#45;&gt;Node4 -->
<g id="edge3_Node000001_Node000004" class="edge">
<title>Node1&#45;&gt;Node4</title>
<g id="a_edge3_Node000001_Node000004"><a xlink:title=" ">
<path fill="none" stroke="#63b8ff" d="M170.95,-65.91C157.04,-64.2 142.89,-62.45 129.87,-60.85"/>
<polygon fill="#63b8ff" stroke="#63b8ff" points="170.17,-69.34 180.52,-67.09 171.02,-62.39 170.17,-69.34"/>
</a>
</g>
</g>
<!-- Node5 -->
<g id="Node000005" class="node">
<title>Node5</title>
<g id="a_Node000005"><a xlink:href="struct_ser_complete_guard.html#a9c929b1959e4c484e43b90c7accea21b" target="_top" xlink:title="Evaluate SER polling completion.">
<polygon fill="white" stroke="#666666" points="146.5,-20 0,-20 0,0 146.5,0 146.5,-20"/>
<text xml:space="preserve" text-anchor="middle" x="73.25" y="-6.5" font-family="Helvetica,sans-Serif" font-size="10.00">SerCompleteGuard::operator()</text>
</a>
</g>
</g>
<!-- Node1&#45;&gt;Node5 -->
<g id="edge4_Node000001_Node000005" class="edge">
<title>Node1&#45;&gt;Node5</title>
<g id="a_edge4_Node000001_Node000005"><a xlink:title=" ">
<path fill="none" stroke="#63b8ff" d="M221.87,-60.73C200.92,-50.81 172.47,-38.09 146.5,-29 137.56,-25.87 127.85,-22.98 118.53,-20.45"/>
<polygon fill="#63b8ff" stroke="#63b8ff" points="220.19,-63.81 230.72,-64.98 223.21,-57.5 220.19,-63.81"/>
</a>
</g>
</g>
</g>
</svg>
</svg>

<style type='text/css'>
<![CDATA[
[data-mouse-over-selected='false'] { opacity: 0.7; }
[data-mouse-over-selected='true']  { opacity: 1.0; }
]]>
</style>
<script type="application/ecmascript"><![CDATA[
document.addEventListener('DOMContentLoaded', (event) => {
  highlightEdges();
  highlightAdjacentNodes();
});
]]></script>
</svg>
