<?xml version="1.0" encoding="UTF-8" standalone="no"?>
<!DOCTYPE svg PUBLIC "-//W3C//DTD SVG 1.1//EN"
 "http://www.w3.org/Graphics/SVG/1.1/DTD/svg11.dtd">
<!-- Generated by graphviz version 14.1.2 (20260124.0452)
 -->
<!-- Title: WebSocketSession::run Pages: 1 -->
<svg width="1171pt" height="151pt"
 viewBox="0.00 0.00 1171.00 151.00" xmlns="http://www.w3.org/2000/svg" xmlns:xlink="http://www.w3.org/1999/xlink">
<g id="graph0" class="graph" transform="scale(1 1) rotate(0) translate(4 147)">
<title>WebSocketSession::run</title>
<!-- Node1 -->
<g id="Node000001" class="node">
<title>Node1</title>
<g id="a_Node000001"><a xlink:title="Start the session by accepting WebSocket handshake.">
<polygon fill="#999999" stroke="#666666" points="121,-63 0,-63 0,-43 121,-43 121,-63"/>
<text xml:space="preserve" text-anchor="middle" x="60.5" y="-49.5" font-family="Helvetica,sans-Serif" font-size="10.00">WebSocketSession::run</text>
</a>
</g>
</g>
<!-- Node2 -->
<g id="Node000002" class="node">
<title>Node2</title>
<g id="a_Node000002"><a xlink:href="class_web_socket_session.html#a7b82f2e9c71f6822c2d2f6dcc1a251c5" target="_top" xlink:title="Handle WebSocket handshake completion.">
<polygon fill="white" stroke="#666666" points="275,-69 157,-69 157,-37 275,-37 275,-69"/>
<text xml:space="preserve" text-anchor="start" x="165" y="-55.5" font-family="Helvetica,sans-Serif" font-size="10.00">WebSocketSession::on</text>
<text xml:space="preserve" text-anchor="middle" x="216" y="-43.5" font-family="Helvetica,sans-Serif" font-size="10.00">_accept</text>
</a>
</g>
</g>
<!-- Node1&#45;&gt;Node2 -->
<g id="edge1_Node000001_Node000002" class="edge">
<title>Node1&#45;&gt;Node2</title>
<g id="a_edge1_Node000001_Node000002"><a xlink:title=" ">
<path fill="none" stroke="#63b8ff" d="M121.29,-53C129.18,-53 137.33,-53 145.37,-53"/>
<polygon fill="#63b8ff" stroke="#63b8ff" points="145.12,-56.5 155.12,-53 145.12,-49.5 145.12,-56.5"/>
</a>
</g>
</g>
<!-- Node3 -->
<g id="Node000003" class="node">
<title>Node3</title>
<g id="a_Node000003"><a xlink:href="class_web_socket_session.html#a2529887f34770366fc2c225bd085edba" target="_top" xlink:title="Send current database records to client as JSON.">
<polygon fill="white" stroke="#666666" points="460.5,-63 311,-63 311,-43 460.5,-43 460.5,-63"/>
<text xml:space="preserve" text-anchor="middle" x="385.75" y="-49.5" font-family="Helvetica,sans-Serif" font-size="10.00">WebSocketSession::sendData</text>
</a>
</g>
</g>
<!-- Node2&#45;&gt;Node3 -->
<g id="edge2_Node000002_Node000003" class="edge">
<title>Node2&#45;&gt;Node3</title>
<g id="a_edge2_Node000002_Node000003"><a xlink:title=" ">
<path fill="none" stroke="#63b8ff" d="M275.2,-53C282.98,-53 291.09,-53 299.22,-53"/>
<polygon fill="#63b8ff" stroke="#63b8ff" points="299.18,-56.5 309.18,-53 299.18,-49.5 299.18,-56.5"/>
</a>
</g>
</g>
<!-- Node4 -->
<g id="Node000004" class="node">
<title>Node4</title>
<g id="a_Node000004"><a xlink:href="namespaceasn__tlv.html#a03c61eaf7c30d4bb4e8f50d6cd2f5f03" target="_top" xlink:title="Encode SER records to ASN.1 BER/TLV format.">
<polygon fill="white" stroke="#666666" points="633.25,-119 496.5,-119 496.5,-87 633.25,-87 633.25,-119"/>
<text xml:space="preserve" text-anchor="start" x="504.5" y="-105.5" font-family="Helvetica,sans-Serif" font-size="10.00">asn_tlv::encodeSerRecords</text>
<text xml:space="preserve" text-anchor="middle" x="564.88" y="-93.5" font-family="Helvetica,sans-Serif" font-size="10.00">ToTlv</text>
</a>
</g>
</g>
<!-- Node3&#45;&gt;Node4 -->
<g id="edge3_Node000003_Node000004" class="edge">
<title>Node3&#45;&gt;Node4</title>
<g id="a_edge3_Node000003_Node000004"><a xlink:title=" ">
<path fill="none" stroke="#63b8ff" d="M423.88,-63.48C444.38,-69.27 470.5,-76.64 494.61,-83.45"/>
<polygon fill="#63b8ff" stroke="#63b8ff" points="493.49,-86.77 504.07,-86.12 495.4,-80.03 493.49,-86.77"/>
</a>
</g>
</g>
<!-- Node8 -->
<g id="Node000008" class="node">
<title>Node8</title>
<g id="a_Node000008"><a xlink:href="class_web_socket_session.html#a0fed81151d5dcbe23dbee79f1bf12c66" target="_top" xlink:title="Handle write completion.">
<polygon fill="white" stroke="#666666" points="623.88,-69 505.88,-69 505.88,-37 623.88,-37 623.88,-69"/>
<text xml:space="preserve" text-anchor="start" x="513.88" y="-55.5" font-family="Helvetica,sans-Serif" font-size="10.00">WebSocketSession::on</text>
<text xml:space="preserve" text-anchor="middle" x="564.88" y="-43.5" font-family="Helvetica,sans-Serif" font-size="10.00">_write</text>
</a>
</g>
</g>
<!-- Node3&#45;&gt;Node8 -->
<g id="edge8_Node000003_Node000008" class="edge">
<title>Node3&#45;&gt;Node8</title>
<g id="a_edge8_Node000003_Node000008"><a xlink:title=" ">
<path fill="none" stroke="#63b8ff" d="M460.84,-53C471.89,-53 483.24,-53 494.19,-53"/>
<polygon fill="#63b8ff" stroke="#63b8ff" points="493.92,-56.5 503.92,-53 493.92,-49.5 493.92,-56.5"/>
</a>
</g>
</g>
<!-- Node5 -->
<g id="Node000005" class="node">
<title>Node5</title>
<g id="a_Node000005"><a xlink:href="namespaceasn__tlv.html#a0cc9af3d4e8aba5f164c66bb47750767" target="_top" xlink:title="Append a string as a TLV structure.">
<polygon fill="white" stroke="#666666" points="803,-143 677.5,-143 677.5,-123 803,-123 803,-143"/>
<text xml:space="preserve" text-anchor="middle" x="740.25" y="-129.5" font-family="Helvetica,sans-Serif" font-size="10.00">asn_tlv::berAppendString</text>
</a>
</g>
</g>
<!-- Node4&#45;&gt;Node5 -->
<g id="edge4_Node000004_Node000005" class="edge">
<title>Node4&#45;&gt;Node5</title>
<g id="a_edge4_Node000004_Node000005"><a xlink:title=" ">
<path fill="none" stroke="#63b8ff" d="M633.4,-114.68C644.6,-116.62 656.24,-118.64 667.54,-120.59"/>
<polygon fill="#63b8ff" stroke="#63b8ff" points="666.74,-124.01 677.19,-122.26 667.94,-117.11 666.74,-124.01"/>
</a>
</g>
</g>
<!-- Node6 -->
<g id="Node000006" class="node">
<title>Node6</title>
<g id="a_Node000006"><a xlink:href="namespaceasn__tlv.html#a4a9f3333d71c851f9002020ffd417b18" target="_top" xlink:title="Append a complete TLV structure to an output buffer.">
<polygon fill="white" stroke="#666666" points="975,-128 861.5,-128 861.5,-108 975,-108 975,-128"/>
<text xml:space="preserve" text-anchor="middle" x="918.25" y="-114.5" font-family="Helvetica,sans-Serif" font-size="10.00">asn_tlv::berAppendTlv</text>
</a>
</g>
</g>
<!-- Node4&#45;&gt;Node6 -->
<g id="edge7_Node000004_Node000006" class="edge">
<title>Node4&#45;&gt;Node6</title>
<g id="a_edge7_Node000004_Node000006"><a xlink:title=" ">
<path fill="none" stroke="#63b8ff" d="M633.62,-105.89C695.86,-108.55 787.6,-112.47 849.75,-115.12"/>
<polygon fill="#63b8ff" stroke="#63b8ff" points="849.35,-118.6 859.49,-115.53 849.65,-111.61 849.35,-118.6"/>
</a>
</g>
</g>
<!-- Node5&#45;&gt;Node6 -->
<g id="edge5_Node000005_Node000006" class="edge">
<title>Node5&#45;&gt;Node6</title>
<g id="a_edge5_Node000005_Node000006"><a xlink:title=" ">
<path fill="none" stroke="#63b8ff" d="M803.3,-127.71C818.29,-126.43 834.37,-125.06 849.6,-123.77"/>
<polygon fill="#63b8ff" stroke="#63b8ff" points="849.87,-127.26 859.53,-122.92 849.27,-120.28 849.87,-127.26"/>
</a>
</g>
</g>
<!-- Node7 -->
<g id="Node000007" class="node">
<title>Node7</title>
<g id="a_Node000007"><a xlink:href="namespaceasn__tlv.html#af1ae5498c52c5e99d18f2cd5cb4f2609" target="_top" xlink:title="Append BER length encoding to an output buffer.">
<polygon fill="white" stroke="#666666" points="1158.62,-128 1029.38,-128 1029.38,-108 1158.62,-108 1158.62,-128"/>
<text xml:space="preserve" text-anchor="middle" x="1094" y="-114.5" font-family="Helvetica,sans-Serif" font-size="10.00">asn_tlv::berAppendLength</text>
</a>
</g>
</g>
<!-- Node6&#45;&gt;Node7 -->
<g id="edge6_Node000006_Node000007" class="edge">
<title>Node6&#45;&gt;Node7</title>
<g id="a_edge6_Node000006_Node000007"><a xlink:title=" ">
<path fill="none" stroke="#63b8ff" d="M975.18,-118C988.72,-118 1003.42,-118 1017.69,-118"/>
<polygon fill="#63b8ff" stroke="#63b8ff" points="1017.5,-121.5 1027.5,-118 1017.5,-114.5 1017.5,-121.5"/>
</a>
</g>
</g>
<!-- Node9 -->
<g id="Node000009" class="node">
<title>Node9</title>
<g id="a_Node000009"><a xlink:href="class_web_socket_session.html#a2bc079950c2e39e8ff745f0da57646ba" target="_top" xlink:title="Initiate async read for next client message.">
<polygon fill="white" stroke="#666666" points="811.25,-60 669.25,-60 669.25,-40 811.25,-40 811.25,-60"/>
<text xml:space="preserve" text-anchor="middle" x="740.25" y="-46.5" font-family="Helvetica,sans-Serif" font-size="10.00">WebSocketSession::do_read</text>
</a>
</g>
</g>
<!-- Node8&#45;&gt;Node9 -->
<g id="edge9_Node000008_Node000009" class="edge">
<title>Node8&#45;&gt;Node9</title>
<g id="a_edge9_Node000008_Node000009"><a xlink:title=" ">
<path fill="none" stroke="#63b8ff" d="M624.09,-51.99C634.86,-51.81 646.29,-51.61 657.61,-51.41"/>
<polygon fill="#63b8ff" stroke="#63b8ff" points="657.41,-54.92 667.35,-51.24 657.29,-47.92 657.41,-54.92"/>
</a>
</g>
</g>
<!-- Node10 -->
<g id="Node000010" class="node">
<title>Node10</title>
<g id="a_Node000010"><a xlink:href="class_web_socket_session.html#a6c0557f87f9f6050a8848237ace942bb" target="_top" xlink:title="Handle received client message.">
<polygon fill="white" stroke="#666666" points="989.25,-60 847.25,-60 847.25,-40 989.25,-40 989.25,-60"/>
<text xml:space="preserve" text-anchor="middle" x="918.25" y="-46.5" font-family="Helvetica,sans-Serif" font-size="10.00">WebSocketSession::on_read</text>
</a>
</g>
</g>
<!-- Node9&#45;&gt;Node10 -->
<g id="edge10_Node000009_Node000010" class="edge">
<title>Node9&#45;&gt;Node10</title>
<g id="a_edge10_Node000009_Node000010"><a xlink:title=" ">
<path fill="none" stroke="#63b8ff" d="M811.57,-43.37C819.44,-43.26 827.51,-43.23 835.52,-43.27"/>
<polygon fill="#63b8ff" stroke="#63b8ff" points="835.21,-46.76 845.24,-43.36 835.28,-39.76 835.21,-46.76"/>
</a>
</g>
</g>
<!-- Node10&#45;&gt;Node3 -->
<g id="edge14_Node000010_Node000003" class="edge">
<title>Node10&#45;&gt;Node3</title>
<g id="a_edge14_Node000010_Node000003"><a xlink:title=" ">
<path fill="none" stroke="#63b8ff" d="M868.13,-39.5C850.31,-36.14 829.95,-32.82 811.25,-31 672.01,-17.44 635.52,-12.37 496.5,-28 475.9,-30.32 453.53,-35.01 434.39,-39.7"/>
<polygon fill="#63b8ff" stroke="#63b8ff" points="433.53,-36.31 424.7,-42.16 435.25,-43.1 433.53,-36.31"/>
</a>
</g>
</g>
<!-- Node10&#45;&gt;Node9 -->
<g id="edge11_Node000010_Node000009" class="edge">
<title>Node10&#45;&gt;Node9</title>
<g id="a_edge11_Node000010_Node000009"><a xlink:title=" ">
<path fill="none" stroke="#63b8ff" d="M846.76,-56.63C838.97,-56.74 830.99,-56.77 823.08,-56.74"/>
<polygon fill="#63b8ff" stroke="#63b8ff" points="823.11,-53.24 813.08,-56.64 823.05,-60.24 823.11,-53.24"/>
</a>
</g>
</g>
<!-- Node11 -->
<g id="Node000011" class="node">
<title>Node11</title>
<g id="a_Node000011"><a xlink:href="class_web_socket_session.html#a43bf9b3aa8c9ed23d031c7ae8059da22" target="_top" xlink:title="Extract the &quot;action&quot; value from a simple JSON object.">
<polygon fill="white" stroke="#666666" points="1162.75,-82 1025.25,-82 1025.25,-50 1162.75,-50 1162.75,-82"/>
<text xml:space="preserve" text-anchor="start" x="1033.25" y="-68.5" font-family="Helvetica,sans-Serif" font-size="10.00">WebSocketSession::extract</text>
<text xml:space="preserve" text-anchor="middle" x="1094" y="-56.5" font-family="Helvetica,sans-Serif" font-size="10.00">Action</text>
</a>
</g>
</g>
<!-- Node10&#45;&gt;Node11 -->
<g id="edge12_Node000010_Node000011" class="edge">
<title>Node10&#45;&gt;Node11</title>
<g id="a_edge12_Node000010_Node000011"><a xlink:title=" ">
<path fill="none" stroke="#63b8ff" d="M989.67,-56.48C997.6,-57.21 1005.72,-57.96 1013.75,-58.7"/>
<polygon fill="#63b8ff" stroke="#63b8ff" points="1013.23,-62.17 1023.51,-59.6 1013.87,-55.2 1013.23,-62.17"/>
</a>
</g>
</g>
<!-- Node12 -->
<g id="Node000012" class="node">
<title>Node12</title>
<g id="a_Node000012"><a xlink:href="class_web_socket_session.html#a606e227b631d765ac0191c0535df607f" target="_top" xlink:title="Check if a message is a JSON action (contains &quot;action&quot; key).">
<polygon fill="white" stroke="#666666" points="1162,-32 1026,-32 1026,0 1162,0 1162,-32"/>
<text xml:space="preserve" text-anchor="start" x="1034" y="-18.5" font-family="Helvetica,sans-Serif" font-size="10.00">WebSocketSession::isJson</text>
<text xml:space="preserve" text-anchor="middle" x="1094" y="-6.5" font-family="Helvetica,sans-Serif" font-size="10.00">Action</text>
</a>
</g>
</g>
<!-- Node10&#45;&gt;Node12 -->
<g id="edge13_Node000010_Node000012" class="edge">
<title>Node10&#45;&gt;Node12</title>
<g id="a_edge13_Node000010_Node000012"><a xlink:title=" ">
<path fill="none" stroke="#63b8ff" d="M972.8,-39.52C985.94,-36.95 1000.28,-34.14 1014.33,-31.4"/>
<polygon fill="#63b8ff" stroke="#63b8ff" points="1014.88,-34.85 1024.02,-29.5 1013.53,-27.98 1014.88,-34.85"/>
</a>
</g>
</g>
</g>
</svg>
