<?xml version="1.0" encoding="UTF-8" standalone="no"?>
<!DOCTYPE svg PUBLIC "-//W3C//DTD SVG 1.1//EN"
 "http://www.w3.org/Graphics/SVG/1.1/DTD/svg11.dtd">
<!-- Generated by graphviz version 14.1.2 (20260124.0452)
 -->
<!-- Title: PasswordManager::handleAction Pages: 1 -->
<!--zoomable 230 -->

<svg id="main" version="1.1" xmlns="http://www.w3.org/2000/svg" xmlns:xlink="http://www.w3.org/1999/xlink" xml:space="preserve" onload="init(evt)">

<style type="text/css"><![CDATA[
.node, .edge {opacity: 0.7;}
.node.selected, .edge.selected {opacity: 1;}
.edge:hover path { stroke: red; }
.edge:hover polygon { stroke: red; fill: red; }
]]></style>

<defs>
  <circle id="rim" cx="0" cy="0" r="7"/>
  <circle id="rim2" cx="0" cy="0" r="3.5"/>
  <g id="zoomPlus">
    <use xlink:href="#rim" fill="#404040"><set attributeName="fill" to="#808080" begin="zoomplus.mouseover" end="zoomplus.mouseout"/></use>
    <path d="M-4,0h8M0,-4v8" fill="none" stroke="white" stroke-width="1.5" pointer-events="none"/>
  </g>
  <g id="zoomMin">
    <use xlink:href="#rim" fill="#404040"><set attributeName="fill" to="#808080" begin="zoomminus.mouseover" end="zoomminus.mouseout"/></use>
    <path d="M-4,0h8" fill="none" stroke="white" stroke-width="1.5" pointer-events="none"/>
  </g>
  <g id="arrowUp" transform="translate(30 24)">
    <use xlink:href="#rim"/>
    <path pointer-events="none" fill="none" stroke="white" stroke-width="1.5" d="M0,-3.0v7 M-2.5,-0.5L0,-3.0L2.5,-0.5"/>
  </g>
  <g id="arrowRight" transform="rotate(90) translate(36 -43)">
    <use xlink:href="#rim"/>
    <path pointer-events="none" fill="none" stroke="white" stroke-width="1.5" d="M0,-3.0v7 M-2.5,-0.5L0,-3.0L2.5,-0.5"/>
  </g>
  <g id="arrowDown" transform="rotate(180) translate(-30 -48)">
    <use xlink:href="#rim"/>
    <path pointer-events="none" fill="none" stroke="white" stroke-width="1.5" d="M0,-3.0v7 M-2.5,-0.5L0,-3.0L2.5,-0.5"/>
  </g>
  <g id="arrowLeft" transform="rotate(270) translate(-36 17)">
    <use xlink:href="#rim"/>
    <path pointer-events="none" fill="none" stroke="white" stroke-width="1.5" d="M0,-3.0v7 M-2.5,-0.5L0,-3.0L2.5,-0.5"/>
  </g>
  <g id="resetDef">
    <use xlink:href="#rim2" fill="#404040"><set attributeName="fill" to="#808080" begin="reset.mouseover" end="reset.mouseout"/></use>
  </g>
</defs>
<script type="application/ecmascript">
var viewWidth = 1041;
var viewHeight = 230;
var sectionId = 'dynsection-7';
</script>
<script type="application/ecmascript" xlink:href="svg.min.js"/>
<svg id="graph" class="graph">
<g id="viewport">
<title>PasswordManager::handleAction</title>
<!-- Node1 -->
<g id="Node000001" class="node">
<title>Node1</title>
<g id="a_Node000001"><a xlink:title="Process a full JSON message for the &quot;change_password&quot; action.">
<polygon fill="#999999" stroke="#666666" points="159.25,-127 0,-127 0,-107 159.25,-107 159.25,-127"/>
<text xml:space="preserve" text-anchor="middle" x="79.62" y="-113.5" font-family="Helvetica,sans-Serif" font-size="10.00">PasswordManager::handleAction</text>
</a>
</g>
</g>
<!-- Node2 -->
<g id="Node000002" class="node">
<title>Node2</title>
<g id="a_Node000002"><a xlink:href="class_password_manager.html#ab3a9f620e1060286541f535dbad52d58" target="_top" xlink:title=" ">
<polygon fill="white" stroke="#666666" points="369.12,-222 203.88,-222 203.88,-202 369.12,-202 369.12,-222"/>
<text xml:space="preserve" text-anchor="middle" x="286.5" y="-208.5" font-family="Helvetica,sans-Serif" font-size="10.00">PasswordManager::buildErrorJson</text>
</a>
</g>
</g>
<!-- Node1&#45;&gt;Node2 -->
<g id="edge1_Node000001_Node000002" class="edge">
<title>Node1&#45;&gt;Node2</title>
<g id="a_edge1_Node000001_Node000002"><a xlink:title=" ">
<path fill="none" stroke="#63b8ff" d="M92.78,-127.36C112.79,-143.85 154.5,-175.94 195.25,-193 200.07,-195.02 205.13,-196.83 210.29,-198.46"/>
<polygon fill="#63b8ff" stroke="#63b8ff" points="208.95,-201.71 219.53,-201.12 210.89,-194.99 208.95,-201.71"/>
</a>
</g>
</g>
<!-- Node4 -->
<g id="Node000004" class="node">
<title>Node4</title>
<g id="a_Node000004"><a xlink:href="class_password_manager.html#af11a3f9f50267ddc4e93bf5b25abc380" target="_top" xlink:title=" ">
<polygon fill="white" stroke="#666666" points="377.75,-184 195.25,-184 195.25,-164 377.75,-164 377.75,-184"/>
<text xml:space="preserve" text-anchor="middle" x="286.5" y="-170.5" font-family="Helvetica,sans-Serif" font-size="10.00">PasswordManager::buildSuccessJson</text>
</a>
</g>
</g>
<!-- Node1&#45;&gt;Node4 -->
<g id="edge3_Node000001_Node000004" class="edge">
<title>Node1&#45;&gt;Node4</title>
<g id="a_edge3_Node000001_Node000004"><a xlink:title=" ">
<path fill="none" stroke="#63b8ff" d="M116.2,-127.44C138.8,-134.03 168.71,-142.65 195.25,-150 207.94,-153.51 221.66,-157.21 234.48,-160.63"/>
<polygon fill="#63b8ff" stroke="#63b8ff" points="233.44,-163.97 244,-163.15 235.24,-157.21 233.44,-163.97"/>
</a>
</g>
</g>
<!-- Node5 -->
<g id="Node000005" class="node">
<title>Node5</title>
<g id="a_Node000005"><a xlink:href="class_password_manager.html#a0453a3ea3ba69ce8ce21794cde5503ba" target="_top" xlink:title="Change relay password for specified access level.">
<polygon fill="white" stroke="#666666" points="375.5,-108 197.5,-108 197.5,-88 375.5,-88 375.5,-108"/>
<text xml:space="preserve" text-anchor="middle" x="286.5" y="-94.5" font-family="Helvetica,sans-Serif" font-size="10.00">PasswordManager::changePassword</text>
</a>
</g>
</g>
<!-- Node1&#45;&gt;Node5 -->
<g id="edge4_Node000001_Node000005" class="edge">
<title>Node1&#45;&gt;Node5</title>
<g id="a_edge4_Node000001_Node000005"><a xlink:title=" ">
<path fill="none" stroke="#63b8ff" d="M159.54,-109.68C168.18,-108.88 177.06,-108.06 185.9,-107.24"/>
<polygon fill="#63b8ff" stroke="#63b8ff" points="185.93,-110.75 195.57,-106.34 185.29,-103.78 185.93,-110.75"/>
</a>
</g>
</g>
<!-- Node10 -->
<g id="Node000010" class="node">
<title>Node10</title>
<g id="a_Node000010"><a xlink:href="class_password_manager.html#afa2143161c200f78502b42877349093d" target="_top" xlink:title="Validate that a level string is valid.">
<polygon fill="white" stroke="#666666" points="553.5,-164 416.75,-164 416.75,-132 553.5,-132 553.5,-164"/>
<text xml:space="preserve" text-anchor="start" x="424.75" y="-150.5" font-family="Helvetica,sans-Serif" font-size="10.00">PasswordManager::validate</text>
<text xml:space="preserve" text-anchor="middle" x="485.12" y="-138.5" font-family="Helvetica,sans-Serif" font-size="10.00">Level</text>
</a>
</g>
</g>
<!-- Node1&#45;&gt;Node10 -->
<g id="edge12_Node000001_Node000010" class="edge">
<title>Node1&#45;&gt;Node10</title>
<g id="a_edge12_Node000001_Node000010"><a xlink:title=" ">
<path fill="none" stroke="#63b8ff" d="M159.38,-123.05C230.35,-128.5 334.16,-136.48 405.19,-141.94"/>
<polygon fill="#63b8ff" stroke="#63b8ff" points="404.55,-145.4 414.78,-142.67 405.08,-138.42 404.55,-145.4"/>
</a>
</g>
</g>
<!-- Node11 -->
<g id="Node000011" class="node">
<title>Node11</title>
<g id="a_Node000011"><a xlink:href="class_password_manager.html#a0f7ac1b3e9a22cf7ffbfe84f51dd44ce" target="_top" xlink:title="Validate that a password value is in the allowed set.">
<polygon fill="white" stroke="#666666" points="553.5,-64 416.75,-64 416.75,-32 553.5,-32 553.5,-64"/>
<text xml:space="preserve" text-anchor="start" x="424.75" y="-50.5" font-family="Helvetica,sans-Serif" font-size="10.00">PasswordManager::validate</text>
<text xml:space="preserve" text-anchor="middle" x="485.12" y="-38.5" font-family="Helvetica,sans-Serif" font-size="10.00">Password</text>
</a>
</g>
</g>
<!-- Node1&#45;&gt;Node11 -->
<g id="edge13_Node000001_Node000011" class="edge">
<title>Node1&#45;&gt;Node11</title>
<g id="a_edge13_Node000001_Node000011"><a xlink:title=" ">
<path fill="none" stroke="#63b8ff" d="M106.59,-106.62C129.54,-97.88 164.11,-85.75 195.25,-79 265.26,-63.82 346.51,-55.94 404.97,-51.94"/>
<polygon fill="#63b8ff" stroke="#63b8ff" points="405.09,-55.44 414.84,-51.28 404.63,-48.45 405.09,-55.44"/>
</a>
</g>
</g>
<!-- Node12 -->
<g id="Node000012" class="node">
<title>Node12</title>
<g id="a_Node000012"><a xlink:href="class_password_manager.html#a2501f44e3f7096743204d866bb3c5872" target="_top" xlink:title="Extract a string field value from a simple JSON object.">
<polygon fill="white" stroke="#666666" points="353,-32 220,-32 220,0 353,0 353,-32"/>
<text xml:space="preserve" text-anchor="start" x="228" y="-18.5" font-family="Helvetica,sans-Serif" font-size="10.00">PasswordManager::extract</text>
<text xml:space="preserve" text-anchor="middle" x="286.5" y="-6.5" font-family="Helvetica,sans-Serif" font-size="10.00">JsonField</text>
</a>
</g>
</g>
<!-- Node1&#45;&gt;Node12 -->
<g id="edge11_Node000001_Node000012" class="edge">
<title>Node1&#45;&gt;Node12</title>
<g id="a_edge11_Node000001_Node000012"><a xlink:title=" ">
<path fill="none" stroke="#63b8ff" d="M94.84,-106.67C115.92,-91.71 157.09,-63.86 195.25,-46 202.65,-42.54 210.57,-39.29 218.52,-36.31"/>
<polygon fill="#63b8ff" stroke="#63b8ff" points="219.69,-39.6 227.91,-32.92 217.32,-33.02 219.69,-39.6"/>
</a>
</g>
</g>
<!-- Node3 -->
<g id="Node000003" class="node">
<title>Node3</title>
<g id="a_Node000003"><a xlink:href="ser__json__writer_8hpp.html#a5c077d95f29d39a73aa9b32b93ceddda" target="_top" xlink:title="Escape special characters for JSON string values.">
<polygon fill="white" stroke="#666666" points="519.38,-222 450.88,-222 450.88,-202 519.38,-202 519.38,-222"/>
<text xml:space="preserve" text-anchor="middle" x="485.12" y="-208.5" font-family="Helvetica,sans-Serif" font-size="10.00">escapeJson</text>
</a>
</g>
</g>
<!-- Node2&#45;&gt;Node3 -->
<g id="edge2_Node000002_Node000003" class="edge">
<title>Node2&#45;&gt;Node3</title>
<g id="a_edge2_Node000002_Node000003"><a xlink:title=" ">
<path fill="none" stroke="#63b8ff" d="M369.46,-212C393.36,-212 418.58,-212 439.26,-212"/>
<polygon fill="#63b8ff" stroke="#63b8ff" points="439.05,-215.5 449.05,-212 439.05,-208.5 439.05,-215.5"/>
</a>
</g>
</g>
<!-- Node6 -->
<g id="Node000006" class="node">
<title>Node6</title>
<g id="a_Node000006"><a xlink:href="namespaceasn__password.html#aeb64a1d95d10374e93a21d05ba30acfd" target="_top" xlink:title="Encode a password string as ASN.1 BER TLV with Tag 34.">
<polygon fill="white" stroke="#666666" points="556.5,-114 413.75,-114 413.75,-82 556.5,-82 556.5,-114"/>
<text xml:space="preserve" text-anchor="start" x="421.75" y="-100.5" font-family="Helvetica,sans-Serif" font-size="10.00">asn_password::encodeASN1</text>
<text xml:space="preserve" text-anchor="middle" x="485.12" y="-88.5" font-family="Helvetica,sans-Serif" font-size="10.00">Password</text>
</a>
</g>
</g>
<!-- Node5&#45;&gt;Node6 -->
<g id="edge5_Node000005_Node000006" class="edge">
<title>Node5&#45;&gt;Node6</title>
<g id="a_edge5_Node000005_Node000006"><a xlink:title=" ">
<path fill="none" stroke="#63b8ff" d="M375.75,-98C384.48,-98 393.32,-98 401.98,-98"/>
<polygon fill="#63b8ff" stroke="#63b8ff" points="401.74,-101.5 411.74,-98 401.74,-94.5 401.74,-101.5"/>
</a>
</g>
</g>
<!-- Node5&#45;&gt;Node10 -->
<g id="edge9_Node000005_Node000010" class="edge">
<title>Node5&#45;&gt;Node10</title>
<g id="a_edge9_Node000005_Node000010"><a xlink:title=" ">
<path fill="none" stroke="#63b8ff" d="M328.72,-108.48C351.78,-114.35 381.25,-121.84 408.32,-128.72"/>
<polygon fill="#63b8ff" stroke="#63b8ff" points="407.33,-132.08 417.89,-131.16 409.06,-125.3 407.33,-132.08"/>
</a>
</g>
</g>
<!-- Node5&#45;&gt;Node11 -->
<g id="edge10_Node000005_Node000011" class="edge">
<title>Node5&#45;&gt;Node11</title>
<g id="a_edge10_Node000005_Node000011"><a xlink:title=" ">
<path fill="none" stroke="#63b8ff" d="M328.72,-87.52C351.78,-81.65 381.25,-74.16 408.32,-67.28"/>
<polygon fill="#63b8ff" stroke="#63b8ff" points="409.06,-70.7 417.89,-64.84 407.33,-63.92 409.06,-70.7"/>
</a>
</g>
</g>
<!-- Node7 -->
<g id="Node000007" class="node">
<title>Node7</title>
<g id="a_Node000007"><a xlink:href="namespaceasn__tlv.html#a0cc9af3d4e8aba5f164c66bb47750767" target="_top" xlink:title="Append a string as a TLV structure.">
<polygon fill="white" stroke="#666666" points="718,-108 592.5,-108 592.5,-88 718,-88 718,-108"/>
<text xml:space="preserve" text-anchor="middle" x="655.25" y="-94.5" font-family="Helvetica,sans-Serif" font-size="10.00">asn_tlv::berAppendString</text>
</a>
</g>
</g>
<!-- Node6&#45;&gt;Node7 -->
<g id="edge6_Node000006_Node000007" class="edge">
<title>Node6&#45;&gt;Node7</title>
<g id="a_edge6_Node000006_Node000007"><a xlink:title=" ">
<path fill="none" stroke="#63b8ff" d="M556.94,-98C564.78,-98 572.77,-98 580.64,-98"/>
<polygon fill="#63b8ff" stroke="#63b8ff" points="580.54,-101.5 590.54,-98 580.54,-94.5 580.54,-101.5"/>
</a>
</g>
</g>
<!-- Node8 -->
<g id="Node000008" class="node">
<title>Node8</title>
<g id="a_Node000008"><a xlink:href="namespaceasn__tlv.html#a4a9f3333d71c851f9002020ffd417b18" target="_top" xlink:title="Append a complete TLV structure to an output buffer.">
<polygon fill="white" stroke="#666666" points="867.5,-108 754,-108 754,-88 867.5,-88 867.5,-108"/>
<text xml:space="preserve" text-anchor="middle" x="810.75" y="-94.5" font-family="Helvetica,sans-Serif" font-size="10.00">asn_tlv::berAppendTlv</text>
</a>
</g>
</g>
<!-- Node7&#45;&gt;Node8 -->
<g id="edge7_Node000007_Node000008" class="edge">
<title>Node7&#45;&gt;Node8</title>
<g id="a_edge7_Node000007_Node000008"><a xlink:title=" ">
<path fill="none" stroke="#63b8ff" d="M718.24,-98C726.27,-98 734.53,-98 742.64,-98"/>
<polygon fill="#63b8ff" stroke="#63b8ff" points="742.45,-101.5 752.45,-98 742.45,-94.5 742.45,-101.5"/>
</a>
</g>
</g>
<!-- Node9 -->
<g id="Node000009" class="node">
<title>Node9</title>
<g id="a_Node000009"><a xlink:href="namespaceasn__tlv.html#af1ae5498c52c5e99d18f2cd5cb4f2609" target="_top" xlink:title="Append BER length encoding to an output buffer.">
<polygon fill="white" stroke="#666666" points="1032.75,-108 903.5,-108 903.5,-88 1032.75,-88 1032.75,-108"/>
<text xml:space="preserve" text-anchor="middle" x="968.12" y="-94.5" font-family="Helvetica,sans-Serif" font-size="10.00">asn_tlv::berAppendLength</text>
</a>
</g>
</g>
<!-- Node8&#45;&gt;Node9 -->
<g id="edge8_Node000008_Node000009" class="edge">
<title>Node8&#45;&gt;Node9</title>
<g id="a_edge8_Node000008_Node000009"><a xlink:title=" ">
<path fill="none" stroke="#63b8ff" d="M867.84,-98C875.64,-98 883.76,-98 891.84,-98"/>
<polygon fill="#63b8ff" stroke="#63b8ff" points="891.69,-101.5 901.69,-98 891.69,-94.5 891.69,-101.5"/>
</a>
</g>
</g>
</g>
</svg>

<g id="navigator" transform="translate(0 0)" fill="#404254">
  <rect fill="#f2f5e9" fill-opacity="0.5" stroke="#606060" stroke-width=".5" x="0" y="0" width="60" height="60"/>
  <use id="zoomplus" xlink:href="#zoomPlus" x="17" y="9" onmousedown="handleZoom(evt,'in')"/>
  <use id="zoomminus" xlink:href="#zoomMin" x="42" y="9" onmousedown="handleZoom(evt,'out')"/>
  <use id="reset" xlink:href="#resetDef" x="30" y="36" onmousedown="handleReset()"/>
   <use id="arrowup" xlink:href="#arrowUp" x="0" y="0" onmousedown="handlePan(0,-1)"/>
  <use id="arrowright" xlink:href="#arrowRight" x="0" y="0" onmousedown="handlePan(1,0)"/>
  <use id="arrowdown" xlink:href="#arrowDown" x="0" y="0" onmousedown="handlePan(0,1)"/>
  <use id="arrowleft" xlink:href="#arrowLeft" x="0" y="0" onmousedown="handlePan(-1,0)"/>
</g>
<svg viewBox="0 0 15 15" width="100%" height="30px" preserveAspectRatio="xMaxYMin meet">
 <g id="arrow_out" transform="scale(0.3 0.3)">
  <a xlink:href="class_password_manager_aa1f1fd21060064488e7ed8bc8b41f61e_cgraph_org.svg" target="_base">
   <rect id="button" ry="5" rx="5" y="6" x="6" height="38" width="38"
        fill="#f2f5e9" fill-opacity="0.5" stroke="#606060" stroke-width="1.0"/>
   <path id="arrow"
     d="M 11.500037,31.436501 C 11.940474,20.09759 22.043105,11.32322 32.158766,21.979434 L 37.068811,17.246167 C 37.068811,17.246167 37.088388,32 37.088388,32 L 22.160133,31.978069 C 22.160133,31.978069 26.997745,27.140456 26.997745,27.140456 C 18.528582,18.264221 13.291696,25.230495 11.500037,31.436501 z"
     style="fill:#404040;"/>
  </a>
 </g>
</svg>

<style type='text/css'>
<![CDATA[
[data-mouse-over-selected='false'] { opacity: 0.7; }
[data-mouse-over-selected='true']  { opacity: 1.0; }
]]>
</style>
<script type="application/ecmascript"><![CDATA[
document.addEventListener('DOMContentLoaded', (event) => {
  highlightEdges();
  highlightAdjacentNodes();
});
]]></script>
</svg>
