<?xml version="1.0" encoding="UTF-8" standalone="no"?>
<!DOCTYPE svg PUBLIC "-//W3C//DTD SVG 1.1//EN"
 "http://www.w3.org/Graphics/SVG/1.1/DTD/svg11.dtd">
<!-- Generated by graphviz version 14.1.1 (20251213.1925)
 -->
<!-- Title: WebSocketSession::run Pages: 1 -->
<!--zoomable 155 -->

<svg id="main" version="1.1" xmlns="http://www.w3.org/2000/svg" xmlns:xlink="http://www.w3.org/1999/xlink" xml:space="preserve" onload="init(evt)">

<style type="text/css"><![CDATA[
.node, .edge {opacity: 0.7;}
.node.selected, .edge.selected {opacity: 1;}
.edge:hover path { stroke: red; }
.edge:hover polygon { stroke: red; fill: red; }
]]></style>

<defs>
  <circle id="rim" cx="0" cy="0" r="7"/>
  <circle id="rim2" cx="0" cy="0" r="3.5"/>
  <g id="zoomPlus">
    <use xlink:href="#rim" fill="#404040"><set attributeName="fill" to="#808080" begin="zoomplus.mouseover" end="zoomplus.mouseout"/></use>
    <path d="M-4,0h8M0,-4v8" fill="none" stroke="white" stroke-width="1.5" pointer-events="none"/>
  </g>
  <g id="zoomMin">
    <use xlink:href="#rim" fill="#404040"><set attributeName="fill" to="#808080" begin="zoomminus.mouseover" end="zoomminus.mouseout"/></use>
    <path d="M-4,0h8" fill="none" stroke="white" stroke-width="1.5" pointer-events="none"/>
  </g>
  <g id="arrowUp" transform="translate(30 24)">
    <use xlink:href="#rim"/>
    <path pointer-events="none" fill="none" stroke="white" stroke-width="1.5" d="M0,-3.0v7 M-2.5,-0.5L0,-3.0L2.5,-0.5"/>
  </g>
  <g id="arrowRight" transform="rotate(90) translate(36 -43)">
    <use xlink:href="#rim"/>
    <path pointer-events="none" fill="none" stroke="white" stroke-width="1.5" d="M0,-3.0v7 M-2.5,-0.5L0,-3.0L2.5,-0.5"/>
  </g>
  <g id="arrowDown" transform="rotate(180) translate(-30 -48)">
    <use xlink:href="#rim"/>
    <path pointer-events="none" fill="none" stroke="white" stroke-width="1.5" d="M0,-3.0v7 M-2.5,-0.5L0,-3.0L2.5,-0.5"/>
  </g>
  <g id="arrowLeft" transform="rotate(270) translate(-36 17)">
    <use xlink:href="#rim"/>
    <path pointer-events="none" fill="none" stroke="white" stroke-width="1.5" d="M0,-3.0v7 M-2.5,-0.5L0,-3.0L2.5,-0.5"/>
  </g>
  <g id="resetDef">
    <use xlink:href="#rim2" fill="#404040"><set attributeName="fill" to="#808080" begin="reset.mouseover" end="reset.mouseout"/></use>
  </g>
</defs>
<script type="application/ecmascript">
var viewWidth = 1186;
var viewHeight = 155;
var sectionId = 'dynsection-17';
</script>
<script type="application/ecmascript" xlink:href="svg.min.js"/>
<svg id="graph" class="graph">
<g id="viewport">
<title>WebSocketSession::run</title>
<!-- Node1 -->
<g id="Node000001" class="node">
<title>Node1</title>
<g id="a_Node000001"><a xlink:title="Start the session by accepting WebSocket handshake.">
<polygon fill="#999999" stroke="#666666" points="121,-70.17 0,-70.17 0,-50.17 121,-50.17 121,-70.17"/>
<text xml:space="preserve" text-anchor="middle" x="60.5" y="-56.67" font-family="Helvetica,sans-Serif" font-size="10.00">WebSocketSession::run</text>
</a>
</g>
</g>
<!-- Node2 -->
<g id="Node000002" class="node">
<title>Node2</title>
<g id="a_Node000002"><a xlink:href="class_web_socket_session.html#a7b82f2e9c71f6822c2d2f6dcc1a251c5" target="_top" xlink:title="Handle WebSocket handshake completion.">
<polygon fill="white" stroke="#666666" points="275,-76.17 157,-76.17 157,-44.17 275,-44.17 275,-76.17"/>
<text xml:space="preserve" text-anchor="start" x="165" y="-62.67" font-family="Helvetica,sans-Serif" font-size="10.00">WebSocketSession::on</text>
<text xml:space="preserve" text-anchor="middle" x="216" y="-50.67" font-family="Helvetica,sans-Serif" font-size="10.00">_accept</text>
</a>
</g>
</g>
<!-- Node1&#45;&gt;Node2 -->
<g id="edge1_Node000001_Node000002" class="edge">
<title>Node1&#45;&gt;Node2</title>
<g id="a_edge1_Node000001_Node000002"><a xlink:title=" ">
<path fill="none" stroke="#63b8ff" d="M121.29,-60.17C129.18,-60.17 137.33,-60.17 145.37,-60.17"/>
<polygon fill="#63b8ff" stroke="#63b8ff" points="145.12,-63.67 155.12,-60.17 145.12,-56.67 145.12,-63.67"/>
</a>
</g>
</g>
<!-- Node3 -->
<g id="Node000003" class="node">
<title>Node3</title>
<g id="a_Node000003"><a xlink:href="class_web_socket_session.html#a2529887f34770366fc2c225bd085edba" target="_top" xlink:title="Send current database records to client as ASN.1 BER/TLV.">
<polygon fill="white" stroke="#666666" points="460.5,-70.17 311,-70.17 311,-50.17 460.5,-50.17 460.5,-70.17"/>
<text xml:space="preserve" text-anchor="middle" x="385.75" y="-56.67" font-family="Helvetica,sans-Serif" font-size="10.00">WebSocketSession::sendData</text>
</a>
</g>
</g>
<!-- Node2&#45;&gt;Node3 -->
<g id="edge2_Node000002_Node000003" class="edge">
<title>Node2&#45;&gt;Node3</title>
<g id="a_edge2_Node000002_Node000003"><a xlink:title=" ">
<path fill="none" stroke="#63b8ff" d="M275.2,-60.17C282.98,-60.17 291.09,-60.17 299.22,-60.17"/>
<polygon fill="#63b8ff" stroke="#63b8ff" points="299.18,-63.67 309.18,-60.17 299.18,-56.67 299.18,-63.67"/>
</a>
</g>
</g>
<!-- Node4 -->
<g id="Node000004" class="node">
<title>Node4</title>
<g id="a_Node000004"><a xlink:href="namespaceasn__tlv.html#a03c61eaf7c30d4bb4e8f50d6cd2f5f03" target="_top" xlink:title="Encode SER records to ASN.1 BER/TLV format.">
<polygon fill="white" stroke="#666666" points="633.25,-142.17 496.5,-142.17 496.5,-110.17 633.25,-110.17 633.25,-142.17"/>
<text xml:space="preserve" text-anchor="start" x="504.5" y="-128.67" font-family="Helvetica,sans-Serif" font-size="10.00">asn_tlv::encodeSerRecords</text>
<text xml:space="preserve" text-anchor="middle" x="564.88" y="-116.67" font-family="Helvetica,sans-Serif" font-size="10.00">ToTlv</text>
</a>
</g>
</g>
<!-- Node3&#45;&gt;Node4 -->
<g id="edge3_Node000003_Node000004" class="edge">
<title>Node3&#45;&gt;Node4</title>
<g id="a_edge3_Node000003_Node000004"><a xlink:title=" ">
<path fill="none" stroke="#63b8ff" d="M414.82,-70.63C440.03,-80.02 477.79,-94.09 508.99,-105.72"/>
<polygon fill="#63b8ff" stroke="#63b8ff" points="507.71,-108.98 518.3,-109.19 510.15,-102.42 507.71,-108.98"/>
</a>
</g>
</g>
<!-- Node8 -->
<g id="Node000008" class="node">
<title>Node8</title>
<g id="a_Node000008"><a xlink:href="class_web_socket_session.html#a0fed81151d5dcbe23dbee79f1bf12c66" target="_top" xlink:title="Handle write completion.">
<polygon fill="white" stroke="#666666" points="623.88,-54.17 505.88,-54.17 505.88,-22.17 623.88,-22.17 623.88,-54.17"/>
<text xml:space="preserve" text-anchor="start" x="513.88" y="-40.67" font-family="Helvetica,sans-Serif" font-size="10.00">WebSocketSession::on</text>
<text xml:space="preserve" text-anchor="middle" x="564.88" y="-28.67" font-family="Helvetica,sans-Serif" font-size="10.00">_write</text>
</a>
</g>
</g>
<!-- Node3&#45;&gt;Node8 -->
<g id="edge8_Node000003_Node000008" class="edge">
<title>Node3&#45;&gt;Node8</title>
<g id="a_edge8_Node000003_Node000008"><a xlink:title=" ">
<path fill="none" stroke="#63b8ff" d="M460.84,-50.97C471.89,-49.6 483.24,-48.18 494.19,-46.82"/>
<polygon fill="#63b8ff" stroke="#63b8ff" points="494.43,-50.32 503.93,-45.62 493.57,-43.37 494.43,-50.32"/>
</a>
</g>
</g>
<!-- Node5 -->
<g id="Node000005" class="node">
<title>Node5</title>
<g id="a_Node000005"><a xlink:href="namespaceasn__tlv.html#a0cc9af3d4e8aba5f164c66bb47750767" target="_top" xlink:title="Append a string as a TLV structure.">
<polygon fill="white" stroke="#666666" points="810.5,-132.17 685,-132.17 685,-112.17 810.5,-112.17 810.5,-132.17"/>
<text xml:space="preserve" text-anchor="middle" x="747.75" y="-118.67" font-family="Helvetica,sans-Serif" font-size="10.00">asn_tlv::berAppendString</text>
</a>
</g>
</g>
<!-- Node4&#45;&gt;Node5 -->
<g id="edge4_Node000004_Node000005" class="edge">
<title>Node4&#45;&gt;Node5</title>
<g id="a_edge4_Node000004_Node000005"><a xlink:title=" ">
<path fill="none" stroke="#63b8ff" d="M633.74,-124.67C646.69,-124.38 660.3,-124.08 673.41,-123.79"/>
<polygon fill="#63b8ff" stroke="#63b8ff" points="673.34,-127.29 683.26,-123.57 673.18,-120.3 673.34,-127.29"/>
</a>
</g>
</g>
<!-- Node6 -->
<g id="Node000006" class="node">
<title>Node6</title>
<g id="a_Node000006"><a xlink:href="namespaceasn__tlv.html#a4a9f3333d71c851f9002020ffd417b18" target="_top" xlink:title="Append a complete TLV structure to an output buffer.">
<polygon fill="white" stroke="#666666" points="990,-147.17 876.5,-147.17 876.5,-127.17 990,-127.17 990,-147.17"/>
<text xml:space="preserve" text-anchor="middle" x="933.25" y="-133.67" font-family="Helvetica,sans-Serif" font-size="10.00">asn_tlv::berAppendTlv</text>
</a>
</g>
</g>
<!-- Node4&#45;&gt;Node6 -->
<g id="edge7_Node000004_Node000006" class="edge">
<title>Node4&#45;&gt;Node6</title>
<g id="a_edge7_Node000004_Node000006"><a xlink:title=" ">
<path fill="none" stroke="#63b8ff" d="M633.56,-137.42C645.42,-138.98 657.67,-140.33 669.25,-141.17 735.66,-145.96 811.73,-144 864.92,-141.42"/>
<polygon fill="#63b8ff" stroke="#63b8ff" points="864.93,-144.92 874.74,-140.92 864.57,-137.93 864.93,-144.92"/>
</a>
</g>
</g>
<!-- Node5&#45;&gt;Node6 -->
<g id="edge5_Node000005_Node000006" class="edge">
<title>Node5&#45;&gt;Node6</title>
<g id="a_edge5_Node000005_Node000006"><a xlink:title=" ">
<path fill="none" stroke="#63b8ff" d="M810.87,-127.25C828.19,-128.66 847.08,-130.21 864.69,-131.65"/>
<polygon fill="#63b8ff" stroke="#63b8ff" points="864.29,-135.13 874.54,-132.45 864.86,-128.15 864.29,-135.13"/>
</a>
</g>
</g>
<!-- Node7 -->
<g id="Node000007" class="node">
<title>Node7</title>
<g id="a_Node000007"><a xlink:href="namespaceasn__tlv.html#af1ae5498c52c5e99d18f2cd5cb4f2609" target="_top" xlink:title="Append BER length encoding to an output buffer.">
<polygon fill="white" stroke="#666666" points="1173.62,-147.17 1044.38,-147.17 1044.38,-127.17 1173.62,-127.17 1173.62,-147.17"/>
<text xml:space="preserve" text-anchor="middle" x="1109" y="-133.67" font-family="Helvetica,sans-Serif" font-size="10.00">asn_tlv::berAppendLength</text>
</a>
</g>
</g>
<!-- Node6&#45;&gt;Node7 -->
<g id="edge6_Node000006_Node000007" class="edge">
<title>Node6&#45;&gt;Node7</title>
<g id="a_edge6_Node000006_Node000007"><a xlink:title=" ">
<path fill="none" stroke="#63b8ff" d="M990.18,-137.17C1003.72,-137.17 1018.42,-137.17 1032.69,-137.17"/>
<polygon fill="#63b8ff" stroke="#63b8ff" points="1032.5,-140.67 1042.5,-137.17 1032.5,-133.67 1032.5,-140.67"/>
</a>
</g>
</g>
<!-- Node9 -->
<g id="Node000009" class="node">
<title>Node9</title>
<g id="a_Node000009"><a xlink:href="class_web_socket_session.html#a2bc079950c2e39e8ff745f0da57646ba" target="_top" xlink:title="Initiate async read for next client message.">
<polygon fill="white" stroke="#666666" points="818.75,-45.17 676.75,-45.17 676.75,-25.17 818.75,-25.17 818.75,-45.17"/>
<text xml:space="preserve" text-anchor="middle" x="747.75" y="-31.67" font-family="Helvetica,sans-Serif" font-size="10.00">WebSocketSession::do_read</text>
</a>
</g>
</g>
<!-- Node8&#45;&gt;Node9 -->
<g id="edge9_Node000008_Node000009" class="edge">
<title>Node8&#45;&gt;Node9</title>
<g id="a_edge9_Node000008_Node000009"><a xlink:title=" ">
<path fill="none" stroke="#63b8ff" d="M624.1,-37.2C637.09,-36.99 651.1,-36.76 664.84,-36.53"/>
<polygon fill="#63b8ff" stroke="#63b8ff" points="664.85,-40.03 674.79,-36.36 664.73,-33.03 664.85,-40.03"/>
</a>
</g>
</g>
<!-- Node13 -->
<g id="Node000013" class="node">
<title>Node13</title>
<g id="a_Node000013"><a xlink:href="class_web_socket_session.html#a124943db6c094918e372c94bfb7ec533" target="_top" xlink:title="Send the next queued message (if any).">
<polygon fill="white" stroke="#666666" points="826.25,-90.17 669.25,-90.17 669.25,-70.17 826.25,-70.17 826.25,-90.17"/>
<text xml:space="preserve" text-anchor="middle" x="747.75" y="-76.67" font-family="Helvetica,sans-Serif" font-size="10.00">WebSocketSession::drainQueue</text>
</a>
</g>
</g>
<!-- Node8&#45;&gt;Node13 -->
<g id="edge15_Node000008_Node000013" class="edge">
<title>Node8&#45;&gt;Node13</title>
<g id="a_edge15_Node000008_Node000013"><a xlink:title=" ">
<path fill="none" stroke="#63b8ff" d="M624.1,-51.69C645.37,-56.63 669.38,-62.2 690.48,-67.1"/>
<polygon fill="#63b8ff" stroke="#63b8ff" points="689.53,-70.48 700.07,-69.33 691.12,-63.66 689.53,-70.48"/>
</a>
</g>
</g>
<!-- Node10 -->
<g id="Node000010" class="node">
<title>Node10</title>
<g id="a_Node000010"><a xlink:href="class_web_socket_session.html#a6c0557f87f9f6050a8848237ace942bb" target="_top" xlink:title="Handle received client message.">
<polygon fill="white" stroke="#666666" points="1004.25,-45.17 862.25,-45.17 862.25,-25.17 1004.25,-25.17 1004.25,-45.17"/>
<text xml:space="preserve" text-anchor="middle" x="933.25" y="-31.67" font-family="Helvetica,sans-Serif" font-size="10.00">WebSocketSession::on_read</text>
</a>
</g>
</g>
<!-- Node9&#45;&gt;Node10 -->
<g id="edge10_Node000009_Node000010" class="edge">
<title>Node9&#45;&gt;Node10</title>
<g id="a_edge10_Node000009_Node000010"><a xlink:title=" ">
<path fill="none" stroke="#63b8ff" d="M819.17,-28.58C829.49,-28.42 840.19,-28.38 850.7,-28.46"/>
<polygon fill="#63b8ff" stroke="#63b8ff" points="850.46,-31.95 860.5,-28.57 850.54,-24.95 850.46,-31.95"/>
</a>
</g>
</g>
<!-- Node10&#45;&gt;Node3 -->
<g id="edge14_Node000010_Node000003" class="edge">
<title>Node10&#45;&gt;Node3</title>
<g id="a_edge14_Node000010_Node000003"><a xlink:title=" ">
<path fill="none" stroke="#63b8ff" d="M882.96,-24.72C801.56,-9.24 634.33,15.1 496.5,-13.17 467.32,-19.16 436.31,-33.23 414.73,-44.43"/>
<polygon fill="#63b8ff" stroke="#63b8ff" points="413.16,-41.3 405.98,-49.09 416.45,-47.48 413.16,-41.3"/>
</a>
</g>
</g>
<!-- Node10&#45;&gt;Node9 -->
<g id="edge11_Node000010_Node000009" class="edge">
<title>Node10&#45;&gt;Node9</title>
<g id="a_edge11_Node000010_Node000009"><a xlink:title=" ">
<path fill="none" stroke="#63b8ff" d="M862.02,-41.75C851.7,-41.92 841.01,-41.96 830.49,-41.88"/>
<polygon fill="#63b8ff" stroke="#63b8ff" points="830.72,-38.39 820.68,-41.77 830.64,-45.39 830.72,-38.39"/>
</a>
</g>
</g>
<!-- Node11 -->
<g id="Node000011" class="node">
<title>Node11</title>
<g id="a_Node000011"><a xlink:href="class_web_socket_session.html#a43bf9b3aa8c9ed23d031c7ae8059da22" target="_top" xlink:title="Extract the &quot;action&quot; value from a simple JSON object.">
<polygon fill="white" stroke="#666666" points="1177.75,-37.17 1040.25,-37.17 1040.25,-5.17 1177.75,-5.17 1177.75,-37.17"/>
<text xml:space="preserve" text-anchor="start" x="1048.25" y="-23.67" font-family="Helvetica,sans-Serif" font-size="10.00">WebSocketSession::extract</text>
<text xml:space="preserve" text-anchor="middle" x="1109" y="-11.67" font-family="Helvetica,sans-Serif" font-size="10.00">Action</text>
</a>
</g>
</g>
<!-- Node10&#45;&gt;Node11 -->
<g id="edge12_Node000010_Node000011" class="edge">
<title>Node10&#45;&gt;Node11</title>
<g id="a_edge12_Node000010_Node000011"><a xlink:title=" ">
<path fill="none" stroke="#63b8ff" d="M1004.67,-29.5C1012.6,-28.86 1020.72,-28.2 1028.75,-27.56"/>
<polygon fill="#63b8ff" stroke="#63b8ff" points="1028.82,-31.06 1038.5,-26.77 1028.26,-24.08 1028.82,-31.06"/>
</a>
</g>
</g>
<!-- Node12 -->
<g id="Node000012" class="node">
<title>Node12</title>
<g id="a_Node000012"><a xlink:href="class_web_socket_session.html#a606e227b631d765ac0191c0535df607f" target="_top" xlink:title="Check if a message is a JSON action (contains &quot;action&quot; key).">
<polygon fill="white" stroke="#666666" points="1177,-87.17 1041,-87.17 1041,-55.17 1177,-55.17 1177,-87.17"/>
<text xml:space="preserve" text-anchor="start" x="1049" y="-73.67" font-family="Helvetica,sans-Serif" font-size="10.00">WebSocketSession::isJson</text>
<text xml:space="preserve" text-anchor="middle" x="1109" y="-61.67" font-family="Helvetica,sans-Serif" font-size="10.00">Action</text>
</a>
</g>
</g>
<!-- Node10&#45;&gt;Node12 -->
<g id="edge13_Node000010_Node000012" class="edge">
<title>Node10&#45;&gt;Node12</title>
<g id="a_edge13_Node000010_Node000012"><a xlink:title=" ">
<path fill="none" stroke="#63b8ff" d="M984.51,-45.58C998.62,-48.51 1014.31,-51.76 1029.65,-54.94"/>
<polygon fill="#63b8ff" stroke="#63b8ff" points="1028.74,-58.32 1039.24,-56.92 1030.16,-51.47 1028.74,-58.32"/>
</a>
</g>
</g>
<!-- Node13&#45;&gt;Node3 -->
<g id="edge18_Node000013_Node000003" class="edge">
<title>Node13&#45;&gt;Node3</title>
<g id="a_edge18_Node000013_Node000003"><a xlink:title=" ">
<path fill="none" stroke="#63b8ff" d="M668.96,-75.85C611,-72.63 531.91,-68.23 472.2,-64.92"/>
<polygon fill="#63b8ff" stroke="#63b8ff" points="472.6,-61.43 462.42,-64.37 472.21,-68.42 472.6,-61.43"/>
</a>
</g>
</g>
<!-- Node14 -->
<g id="Node000014" class="node">
<title>Node14</title>
<g id="a_Node000014"><a xlink:href="class_web_socket_session.html#afe8845301daa6254f51e87dd9dd4cc3d" target="_top" xlink:title="Handle broadcast write completion — drains pending queue.">
<polygon fill="white" stroke="#666666" points="992.25,-96.17 874.25,-96.17 874.25,-64.17 992.25,-64.17 992.25,-96.17"/>
<text xml:space="preserve" text-anchor="start" x="882.25" y="-82.67" font-family="Helvetica,sans-Serif" font-size="10.00">WebSocketSession::on</text>
<text xml:space="preserve" text-anchor="middle" x="933.25" y="-70.67" font-family="Helvetica,sans-Serif" font-size="10.00">_broadcast_write</text>
</a>
</g>
</g>
<!-- Node13&#45;&gt;Node14 -->
<g id="edge16_Node000013_Node000014" class="edge">
<title>Node13&#45;&gt;Node14</title>
<g id="a_edge16_Node000013_Node000014"><a xlink:title=" ">
<path fill="none" stroke="#63b8ff" d="M826.57,-73.49C838.44,-73.37 850.63,-73.4 862.31,-73.59"/>
<polygon fill="#63b8ff" stroke="#63b8ff" points="862.22,-77.09 872.29,-73.8 862.36,-70.09 862.22,-77.09"/>
</a>
</g>
</g>
<!-- Node14&#45;&gt;Node13 -->
<g id="edge17_Node000014_Node000013" class="edge">
<title>Node14&#45;&gt;Node13</title>
<g id="a_edge17_Node000014_Node000013"><a xlink:title=" ">
<path fill="none" stroke="#63b8ff" d="M873.8,-86.51C862.3,-86.8 850,-86.94 837.77,-86.92"/>
<polygon fill="#63b8ff" stroke="#63b8ff" points="838.1,-83.42 828.08,-86.86 838.06,-90.42 838.1,-83.42"/>
</a>
</g>
</g>
</g>
</svg>

<g id="navigator" transform="translate(0 0)" fill="#404254">
  <rect fill="#f2f5e9" fill-opacity="0.5" stroke="#606060" stroke-width=".5" x="0" y="0" width="60" height="60"/>
  <use id="zoomplus" xlink:href="#zoomPlus" x="17" y="9" onmousedown="handleZoom(evt,'in')"/>
  <use id="zoomminus" xlink:href="#zoomMin" x="42" y="9" onmousedown="handleZoom(evt,'out')"/>
  <use id="reset" xlink:href="#resetDef" x="30" y="36" onmousedown="handleReset()"/>
   <use id="arrowup" xlink:href="#arrowUp" x="0" y="0" onmousedown="handlePan(0,-1)"/>
  <use id="arrowright" xlink:href="#arrowRight" x="0" y="0" onmousedown="handlePan(1,0)"/>
  <use id="arrowdown" xlink:href="#arrowDown" x="0" y="0" onmousedown="handlePan(0,1)"/>
  <use id="arrowleft" xlink:href="#arrowLeft" x="0" y="0" onmousedown="handlePan(-1,0)"/>
</g>
<svg viewBox="0 0 15 15" width="100%" height="30px" preserveAspectRatio="xMaxYMin meet">
 <g id="arrow_out" transform="scale(0.3 0.3)">
  <a xlink:href="class_web_socket_session_aa60a520432526e90b74fd97713469a56_cgraph_org.svg" target="_base">
   <rect id="button" ry="5" rx="5" y="6" x="6" height="38" width="38"
        fill="#f2f5e9" fill-opacity="0.5" stroke="#606060" stroke-width="1.0"/>
   <path id="arrow"
     d="M 11.500037,31.436501 C 11.940474,20.09759 22.043105,11.32322 32.158766,21.979434 L 37.068811,17.246167 C 37.068811,17.246167 37.088388,32 37.088388,32 L 22.160133,31.978069 C 22.160133,31.978069 26.997745,27.140456 26.997745,27.140456 C 18.528582,18.264221 13.291696,25.230495 11.500037,31.436501 z"
     style="fill:#404040;"/>
  </a>
 </g>
</svg>

<style type='text/css'>
<![CDATA[
[data-mouse-over-selected='false'] { opacity: 0.7; }
[data-mouse-over-selected='true']  { opacity: 1.0; }
]]>
</style>
<script type="application/ecmascript"><![CDATA[
document.addEventListener('DOMContentLoaded', (event) => {
  highlightEdges();
  highlightAdjacentNodes();
});
]]></script>
</svg>
