<?xml version="1.0" encoding="UTF-8" standalone="no"?>
<!DOCTYPE svg PUBLIC "-//W3C//DTD SVG 1.1//EN"
 "http://www.w3.org/Graphics/SVG/1.1/DTD/svg11.dtd">
<!-- Generated by graphviz version 14.1.2 (20260124.0452)
 -->
<!-- Title: TimeSyncManager::buildErrorJson Pages: 1 -->
<svg width="583pt" height="47pt"
 viewBox="0.00 0.00 583.00 47.00" xmlns="http://www.w3.org/2000/svg" xmlns:xlink="http://www.w3.org/1999/xlink">
<g id="graph0" class="graph" transform="scale(1 1) rotate(0) translate(4 43)">
<title>TimeSyncManager::buildErrorJson</title>
<!-- Node1 -->
<g id="Node000001" class="node">
<title>Node1</title>
<g id="a_Node000001"><a xlink:title=" ">
<polygon fill="#999999" stroke="#666666" points="574.5,-39 408.5,-39 408.5,-19 574.5,-19 574.5,-39"/>
<text xml:space="preserve" text-anchor="middle" x="491.5" y="-25.5" font-family="Helvetica,sans-Serif" font-size="10.00">TimeSyncManager::buildErrorJson</text>
</a>
</g>
</g>
<!-- Node2 -->
<g id="Node000002" class="node">
<title>Node2</title>
<g id="a_Node000002"><a xlink:href="class_time_sync_manager.html#ab7e1061ae8a4a1bae60ed0411ff4b825" target="_top" xlink:title="Process a JSON action string from WebSocket and return a JSON response.">
<polygon fill="white" stroke="#666666" points="160,-39 0,-39 0,-19 160,-19 160,-39"/>
<text xml:space="preserve" text-anchor="middle" x="80" y="-25.5" font-family="Helvetica,sans-Serif" font-size="10.00">TimeSyncManager::handleAction</text>
</a>
</g>
</g>
<!-- Node1&#45;&gt;Node2 -->
<g id="edge1_Node000001_Node000002" class="edge">
<title>Node1&#45;&gt;Node2</title>
<g id="a_edge1_Node000001_Node000002"><a xlink:title=" ">
<path fill="none" stroke="#63b8ff" d="M396.89,-29C325.46,-29 228.13,-29 160.46,-29"/>
<polygon fill="#63b8ff" stroke="#63b8ff" points="396.61,-32.5 406.61,-29 396.61,-25.5 396.61,-32.5"/>
</a>
</g>
</g>
<!-- Node3 -->
<g id="Node000003" class="node">
<title>Node3</title>
<g id="a_Node000003"><a xlink:href="class_time_sync_manager.html#ab03b40ab388284d44f5a30a63fa0f432" target="_top" xlink:title=" ">
<polygon fill="white" stroke="#666666" points="372.5,-20 196,-20 196,0 372.5,0 372.5,-20"/>
<text xml:space="preserve" text-anchor="middle" x="284.25" y="-6.5" font-family="Helvetica,sans-Serif" font-size="10.00">TimeSyncManager::handleSyncTime</text>
</a>
</g>
</g>
<!-- Node1&#45;&gt;Node3 -->
<g id="edge2_Node000001_Node000003" class="edge">
<title>Node1&#45;&gt;Node3</title>
<g id="a_edge2_Node000001_Node000003"><a xlink:title=" ">
<path fill="none" stroke="#63b8ff" d="M396.96,-20.34C388.97,-19.6 380.89,-18.85 372.95,-18.12"/>
<polygon fill="#63b8ff" stroke="#63b8ff" points="396.41,-23.81 406.69,-21.24 397.06,-16.83 396.41,-23.81"/>
</a>
</g>
</g>
<!-- Node3&#45;&gt;Node2 -->
<g id="edge3_Node000003_Node000002" class="edge">
<title>Node3&#45;&gt;Node2</title>
<g id="a_edge3_Node000003_Node000002"><a xlink:title=" ">
<path fill="none" stroke="#63b8ff" d="M184.38,-19.29C176.33,-20.04 168.27,-20.8 160.39,-21.54"/>
<polygon fill="#63b8ff" stroke="#63b8ff" points="184.58,-22.78 194.21,-18.36 183.93,-15.82 184.58,-22.78"/>
</a>
</g>
</g>
</g>
</svg>
