<?xml version="1.0" encoding="UTF-8" standalone="no"?>
<!DOCTYPE svg PUBLIC "-//W3C//DTD SVG 1.1//EN"
 "http://www.w3.org/Graphics/SVG/1.1/DTD/svg11.dtd">
<!-- Generated by graphviz version 14.1.2 (20260124.0452)
 -->
<!-- Title: SERDatabase::operator= Pages: 1 -->
<!--zoomable 458 -->

<svg id="main" version="1.1" xmlns="http://www.w3.org/2000/svg" xmlns:xlink="http://www.w3.org/1999/xlink" xml:space="preserve" onload="init(evt)">

<style type="text/css"><![CDATA[
.node, .edge {opacity: 0.7;}
.node.selected, .edge.selected {opacity: 1;}
.edge:hover path { stroke: red; }
.edge:hover polygon { stroke: red; fill: red; }
]]></style>

<defs>
  <circle id="rim" cx="0" cy="0" r="7"/>
  <circle id="rim2" cx="0" cy="0" r="3.5"/>
  <g id="zoomPlus">
    <use xlink:href="#rim" fill="#404040"><set attributeName="fill" to="#808080" begin="zoomplus.mouseover" end="zoomplus.mouseout"/></use>
    <path d="M-4,0h8M0,-4v8" fill="none" stroke="white" stroke-width="1.5" pointer-events="none"/>
  </g>
  <g id="zoomMin">
    <use xlink:href="#rim" fill="#404040"><set attributeName="fill" to="#808080" begin="zoomminus.mouseover" end="zoomminus.mouseout"/></use>
    <path d="M-4,0h8" fill="none" stroke="white" stroke-width="1.5" pointer-events="none"/>
  </g>
  <g id="arrowUp" transform="translate(30 24)">
    <use xlink:href="#rim"/>
    <path pointer-events="none" fill="none" stroke="white" stroke-width="1.5" d="M0,-3.0v7 M-2.5,-0.5L0,-3.0L2.5,-0.5"/>
  </g>
  <g id="arrowRight" transform="rotate(90) translate(36 -43)">
    <use xlink:href="#rim"/>
    <path pointer-events="none" fill="none" stroke="white" stroke-width="1.5" d="M0,-3.0v7 M-2.5,-0.5L0,-3.0L2.5,-0.5"/>
  </g>
  <g id="arrowDown" transform="rotate(180) translate(-30 -48)">
    <use xlink:href="#rim"/>
    <path pointer-events="none" fill="none" stroke="white" stroke-width="1.5" d="M0,-3.0v7 M-2.5,-0.5L0,-3.0L2.5,-0.5"/>
  </g>
  <g id="arrowLeft" transform="rotate(270) translate(-36 17)">
    <use xlink:href="#rim"/>
    <path pointer-events="none" fill="none" stroke="white" stroke-width="1.5" d="M0,-3.0v7 M-2.5,-0.5L0,-3.0L2.5,-0.5"/>
  </g>
  <g id="resetDef">
    <use xlink:href="#rim2" fill="#404040"><set attributeName="fill" to="#808080" begin="reset.mouseover" end="reset.mouseout"/></use>
  </g>
</defs>
<script type="application/ecmascript">
var viewWidth = 685;
var viewHeight = 458;
var sectionId = 'dynsection-20';
</script>
<script type="application/ecmascript" xlink:href="svg.min.js"/>
<svg id="graph" class="graph">
<g id="viewport">
<title>SERDatabase::operator=</title>
<!-- Node1 -->
<g id="Node000001" class="node">
<title>Node1</title>
<g id="a_Node000001"><a xlink:title=" ">
<polygon fill="#999999" stroke="#666666" points="126.25,-238 0,-238 0,-218 126.25,-218 126.25,-238"/>
<text xml:space="preserve" text-anchor="middle" x="63.12" y="-224.5" font-family="Helvetica,sans-Serif" font-size="10.00">SERDatabase::operator=</text>
</a>
</g>
</g>
<!-- Node2 -->
<g id="Node000002" class="node">
<title>Node2</title>
<g id="a_Node000002"><a xlink:href="class_s_e_r_database.html#acda974d3e6c636baafcc488aa9814de3" target="_top" xlink:title="Delete all records from the database.">
<polygon fill="white" stroke="#666666" points="317.38,-450 163.38,-450 163.38,-430 317.38,-430 317.38,-450"/>
<text xml:space="preserve" text-anchor="middle" x="240.38" y="-436.5" font-family="Helvetica,sans-Serif" font-size="10.00">SERDatabase::clearAllRecords</text>
</a>
</g>
</g>
<!-- Node1&#45;&gt;Node2 -->
<g id="edge1_Node000001_Node000002" class="edge">
<title>Node1&#45;&gt;Node2</title>
<g id="a_edge1_Node000001_Node000002"><a xlink:title=" ">
<path fill="none" stroke="#63b8ff" d="M66.19,-238.29C73.25,-270.67 99.54,-371.22 162.25,-421 163.6,-422.07 165,-423.08 166.45,-424.04"/>
<polygon fill="#63b8ff" stroke="#63b8ff" points="164.76,-427.11 175.21,-428.84 168.12,-420.97 164.76,-427.11"/>
</a>
</g>
</g>
<!-- Node3 -->
<g id="Node000003" class="node">
<title>Node3</title>
<g id="a_Node000003"><a xlink:href="class_s_e_r_database.html#a6800d7f803456544a3915465fd092df9" target="_top" xlink:title="Close database connection.">
<polygon fill="white" stroke="#666666" points="294.5,-412 186.25,-412 186.25,-392 294.5,-392 294.5,-412"/>
<text xml:space="preserve" text-anchor="middle" x="240.38" y="-398.5" font-family="Helvetica,sans-Serif" font-size="10.00">SERDatabase::close</text>
</a>
</g>
</g>
<!-- Node1&#45;&gt;Node3 -->
<g id="edge2_Node000001_Node000003" class="edge">
<title>Node1&#45;&gt;Node3</title>
<g id="a_edge2_Node000001_Node000003"><a xlink:title=" ">
<path fill="none" stroke="#63b8ff" d="M67.51,-238.22C77.31,-266.16 108.49,-344.29 162.25,-383 166.33,-385.93 170.8,-388.42 175.49,-390.52"/>
<polygon fill="#63b8ff" stroke="#63b8ff" points="173.98,-393.69 184.57,-394 176.48,-387.16 173.98,-393.69"/>
</a>
</g>
</g>
<!-- Node4 -->
<g id="Node000004" class="node">
<title>Node4</title>
<g id="a_Node000004"><a xlink:href="class_s_e_r_database.html#a798696a9c47ba55f7a3473afff3efe9f" target="_top" xlink:title="Export all records to a JSON file for UI consumption.">
<polygon fill="white" stroke="#666666" points="315.12,-374 165.62,-374 165.62,-354 315.12,-354 315.12,-374"/>
<text xml:space="preserve" text-anchor="middle" x="240.38" y="-360.5" font-family="Helvetica,sans-Serif" font-size="10.00">SERDatabase::exportToJSON</text>
</a>
</g>
</g>
<!-- Node1&#45;&gt;Node4 -->
<g id="edge3_Node000001_Node000004" class="edge">
<title>Node1&#45;&gt;Node4</title>
<g id="a_edge3_Node000001_Node000004"><a xlink:title=" ">
<path fill="none" stroke="#63b8ff" d="M70.34,-238.35C84.11,-260.36 119.34,-312.1 162.25,-340 168.04,-343.76 174.45,-346.97 181.03,-349.68"/>
<polygon fill="#63b8ff" stroke="#63b8ff" points="179.44,-352.83 190.04,-353.04 181.89,-346.27 179.44,-352.83"/>
</a>
</g>
</g>
<!-- Node5 -->
<g id="Node000005" class="node">
<title>Node5</title>
<g id="a_Node000005"><a xlink:href="class_s_e_r_database.html#a1a997738e16c0b0153823c259b33b071" target="_top" xlink:title="Retrieve all SER records ordered by timestamp (newest first).">
<polygon fill="white" stroke="#666666" points="501,-355 354.5,-355 354.5,-335 501,-335 501,-355"/>
<text xml:space="preserve" text-anchor="middle" x="427.75" y="-341.5" font-family="Helvetica,sans-Serif" font-size="10.00">SERDatabase::getAllRecords</text>
</a>
</g>
</g>
<!-- Node1&#45;&gt;Node5 -->
<g id="edge5_Node000001_Node000005" class="edge">
<title>Node1&#45;&gt;Node5</title>
<g id="a_edge5_Node000001_Node000005"><a xlink:title=" ">
<path fill="none" stroke="#63b8ff" d="M73.24,-238.29C89.3,-255.68 124.55,-290.6 162.25,-307 219.34,-331.83 289.27,-341.07 342.88,-344.24"/>
<polygon fill="#63b8ff" stroke="#63b8ff" points="342.38,-347.72 352.55,-344.75 342.75,-340.73 342.38,-347.72"/>
</a>
</g>
</g>
<!-- Node6 -->
<g id="Node000006" class="node">
<title>Node6</title>
<g id="a_Node000006"><a xlink:href="class_s_e_r_database.html#ae42bb6aa2a4723f2696e2f5c67605765" target="_top" xlink:title="Get last error message.">
<polygon fill="white" stroke="#666666" points="309.5,-298 171.25,-298 171.25,-278 309.5,-278 309.5,-298"/>
<text xml:space="preserve" text-anchor="middle" x="240.38" y="-284.5" font-family="Helvetica,sans-Serif" font-size="10.00">SERDatabase::getLastError</text>
</a>
</g>
</g>
<!-- Node1&#45;&gt;Node6 -->
<g id="edge6_Node000001_Node000006" class="edge">
<title>Node1&#45;&gt;Node6</title>
<g id="a_edge6_Node000001_Node000006"><a xlink:title=" ">
<path fill="none" stroke="#63b8ff" d="M86.36,-238.45C106,-247.4 135.6,-260.21 162.25,-269 168.37,-271.02 174.83,-272.94 181.3,-274.72"/>
<polygon fill="#63b8ff" stroke="#63b8ff" points="180.12,-278.03 190.68,-277.2 181.91,-271.26 180.12,-278.03"/>
</a>
</g>
</g>
<!-- Node7 -->
<g id="Node000007" class="node">
<title>Node7</title>
<g id="a_Node000007"><a xlink:href="class_s_e_r_database.html#af9f462113ba171ab65d126a4689c02be" target="_top" xlink:title="Get total count of records in the database.">
<polygon fill="white" stroke="#666666" points="318.5,-260 162.25,-260 162.25,-240 318.5,-240 318.5,-260"/>
<text xml:space="preserve" text-anchor="middle" x="240.38" y="-246.5" font-family="Helvetica,sans-Serif" font-size="10.00">SERDatabase::getRecordCount</text>
</a>
</g>
</g>
<!-- Node1&#45;&gt;Node7 -->
<g id="edge7_Node000001_Node000007" class="edge">
<title>Node1&#45;&gt;Node7</title>
<g id="a_edge7_Node000001_Node000007"><a xlink:title=" ">
<path fill="none" stroke="#63b8ff" d="M126.41,-235.82C134.32,-236.81 142.53,-237.84 150.76,-238.88"/>
<polygon fill="#63b8ff" stroke="#63b8ff" points="150.1,-242.32 160.46,-240.09 150.97,-235.37 150.1,-242.32"/>
</a>
</g>
</g>
<!-- Node8 -->
<g id="Node000008" class="node">
<title>Node8</title>
<g id="a_Node000008"><a xlink:href="class_s_e_r_database.html#adbe68cbe0623ec047941da1c63528328" target="_top" xlink:title="Retrieve records filtered by status.">
<polygon fill="white" stroke="#666666" points="314,-222 166.75,-222 166.75,-190 314,-190 314,-222"/>
<text xml:space="preserve" text-anchor="start" x="174.75" y="-208.5" font-family="Helvetica,sans-Serif" font-size="10.00">SERDatabase::getRecordsBy</text>
<text xml:space="preserve" text-anchor="middle" x="240.38" y="-196.5" font-family="Helvetica,sans-Serif" font-size="10.00">Status</text>
</a>
</g>
</g>
<!-- Node1&#45;&gt;Node8 -->
<g id="edge8_Node000001_Node000008" class="edge">
<title>Node1&#45;&gt;Node8</title>
<g id="a_edge8_Node000001_Node000008"><a xlink:title=" ">
<path fill="none" stroke="#63b8ff" d="M126.41,-220.18C135.74,-219.01 145.49,-217.79 155.19,-216.57"/>
<polygon fill="#63b8ff" stroke="#63b8ff" points="155.53,-220.05 165.02,-215.33 154.66,-213.11 155.53,-220.05"/>
</a>
</g>
</g>
<!-- Node9 -->
<g id="Node000009" class="node">
<title>Node9</title>
<g id="a_Node000009"><a xlink:href="class_s_e_r_database.html#a7af7d201eef0336f5c599c3d05671f18" target="_top" xlink:title="Insert a single SER record into the database.">
<polygon fill="white" stroke="#666666" points="498,-153 357.5,-153 357.5,-133 498,-133 498,-153"/>
<text xml:space="preserve" text-anchor="middle" x="427.75" y="-139.5" font-family="Helvetica,sans-Serif" font-size="10.00">SERDatabase::insertRecord</text>
</a>
</g>
</g>
<!-- Node1&#45;&gt;Node9 -->
<g id="edge9_Node000001_Node000009" class="edge">
<title>Node1&#45;&gt;Node9</title>
<g id="a_edge9_Node000001_Node000009"><a xlink:title=" ">
<path fill="none" stroke="#63b8ff" d="M81.55,-217.64C100.67,-206.76 132.61,-190 162.25,-181 222.32,-162.77 292.79,-153.19 345.88,-148.22"/>
<polygon fill="#63b8ff" stroke="#63b8ff" points="346.12,-151.71 355.77,-147.33 345.5,-144.74 346.12,-151.71"/>
</a>
</g>
</g>
<!-- Node11 -->
<g id="Node000011" class="node">
<title>Node11</title>
<g id="a_Node000011"><a xlink:href="class_s_e_r_database.html#ac4611fbd8ff79ee0d8ec51cb04a171fc" target="_top" xlink:title="Insert multiple SER records with transaction support.">
<polygon fill="white" stroke="#666666" points="313.25,-134 167.5,-134 167.5,-114 313.25,-114 313.25,-134"/>
<text xml:space="preserve" text-anchor="middle" x="240.38" y="-120.5" font-family="Helvetica,sans-Serif" font-size="10.00">SERDatabase::insertRecords</text>
</a>
</g>
</g>
<!-- Node1&#45;&gt;Node11 -->
<g id="edge11_Node000001_Node000011" class="edge">
<title>Node1&#45;&gt;Node11</title>
<g id="a_edge11_Node000001_Node000011"><a xlink:title=" ">
<path fill="none" stroke="#63b8ff" d="M74.04,-217.67C90.75,-200.81 126.23,-167.34 162.25,-148 169.38,-144.17 177.23,-140.84 185.09,-137.99"/>
<polygon fill="#63b8ff" stroke="#63b8ff" points="185.97,-141.39 194.33,-134.88 183.74,-134.76 185.97,-141.39"/>
</a>
</g>
</g>
<!-- Node12 -->
<g id="Node000012" class="node">
<title>Node12</title>
<g id="a_Node000012"><a xlink:href="class_s_e_r_database.html#adc5c3b4c9ed3d82e560fd9be47406d80" target="_top" xlink:title="Check if database is currently open.">
<polygon fill="white" stroke="#666666" points="298.25,-96 182.5,-96 182.5,-76 298.25,-76 298.25,-96"/>
<text xml:space="preserve" text-anchor="middle" x="240.38" y="-82.5" font-family="Helvetica,sans-Serif" font-size="10.00">SERDatabase::isOpen</text>
</a>
</g>
</g>
<!-- Node1&#45;&gt;Node12 -->
<g id="edge13_Node000001_Node000012" class="edge">
<title>Node1&#45;&gt;Node12</title>
<g id="a_edge13_Node000001_Node000012"><a xlink:title=" ">
<path fill="none" stroke="#63b8ff" d="M69.36,-217.51C81.89,-193.55 116.01,-134.61 162.25,-105 165.18,-103.13 168.27,-101.44 171.48,-99.92"/>
<polygon fill="#63b8ff" stroke="#63b8ff" points="172.68,-103.21 180.61,-96.17 170.03,-96.73 172.68,-103.21"/>
</a>
</g>
</g>
<!-- Node13 -->
<g id="Node000013" class="node">
<title>Node13</title>
<g id="a_Node000013"><a xlink:href="class_s_e_r_database.html#a4526bdbd509f3fc64952fa3a7f33bd5f" target="_top" xlink:title="Open database connection and initialize schema.">
<polygon fill="white" stroke="#666666" points="293.38,-58 187.38,-58 187.38,-38 293.38,-38 293.38,-58"/>
<text xml:space="preserve" text-anchor="middle" x="240.38" y="-44.5" font-family="Helvetica,sans-Serif" font-size="10.00">SERDatabase::open</text>
</a>
</g>
</g>
<!-- Node1&#45;&gt;Node13 -->
<g id="edge14_Node000001_Node000013" class="edge">
<title>Node1&#45;&gt;Node13</title>
<g id="a_edge14_Node000001_Node000013"><a xlink:title=" ">
<path fill="none" stroke="#63b8ff" d="M67.25,-217.8C76.59,-189.16 107.07,-107.44 162.25,-67 166.61,-63.81 171.44,-61.14 176.5,-58.93"/>
<polygon fill="#63b8ff" stroke="#63b8ff" points="177.55,-62.27 185.7,-55.5 175.11,-55.71 177.55,-62.27"/>
</a>
</g>
</g>
<!-- Node15 -->
<g id="Node000015" class="node">
<title>Node15</title>
<g id="a_Node000015"><a xlink:href="class_s_e_r_database.html#a304f1c512c577562c4d63b6bbdb9b05a" target="_top" xlink:title="Construct database handler with specified file path.">
<polygon fill="white" stroke="#666666" points="314.38,-20 166.38,-20 166.38,0 314.38,0 314.38,-20"/>
<text xml:space="preserve" text-anchor="middle" x="240.38" y="-6.5" font-family="Helvetica,sans-Serif" font-size="10.00">SERDatabase::SERDatabase</text>
</a>
</g>
</g>
<!-- Node1&#45;&gt;Node15 -->
<g id="edge16_Node000001_Node000015" class="edge">
<title>Node1&#45;&gt;Node15</title>
<g id="a_edge16_Node000001_Node000015"><a xlink:title=" ">
<path fill="none" stroke="#63b8ff" d="M65.99,-217.86C72.6,-185.01 98,-80.65 162.25,-29 163.59,-27.92 164.99,-26.9 166.43,-25.94"/>
<polygon fill="#63b8ff" stroke="#63b8ff" points="168.11,-29.01 175.17,-21.1 164.72,-22.88 168.11,-29.01"/>
</a>
</g>
</g>
<!-- Node4&#45;&gt;Node5 -->
<g id="edge4_Node000004_Node000005" class="edge">
<title>Node4&#45;&gt;Node5</title>
<g id="a_edge4_Node000004_Node000005"><a xlink:title=" ">
<path fill="none" stroke="#63b8ff" d="M315.44,-356.41C324.37,-355.49 333.55,-354.55 342.61,-353.62"/>
<polygon fill="#63b8ff" stroke="#63b8ff" points="342.92,-357.11 352.51,-352.61 342.2,-350.15 342.92,-357.11"/>
</a>
</g>
</g>
<!-- Node10 -->
<g id="Node000010" class="node">
<title>Node10</title>
<g id="a_Node000010"><a xlink:href="class_s_e_r_database.html#a844eb9c372acb5fa192d5e5b08fdf826" target="_top" xlink:title="Check if a record already exists in the database.">
<polygon fill="white" stroke="#666666" points="676.75,-153 537,-153 537,-133 676.75,-133 676.75,-153"/>
<text xml:space="preserve" text-anchor="middle" x="606.88" y="-139.5" font-family="Helvetica,sans-Serif" font-size="10.00">SERDatabase::recordExists</text>
</a>
</g>
</g>
<!-- Node9&#45;&gt;Node10 -->
<g id="edge10_Node000009_Node000010" class="edge">
<title>Node9&#45;&gt;Node10</title>
<g id="a_edge10_Node000009_Node000010"><a xlink:title=" ">
<path fill="none" stroke="#63b8ff" d="M498.25,-143C507.11,-143 516.23,-143 525.25,-143"/>
<polygon fill="#63b8ff" stroke="#63b8ff" points="525.07,-146.5 535.07,-143 525.07,-139.5 525.07,-146.5"/>
</a>
</g>
</g>
<!-- Node11&#45;&gt;Node9 -->
<g id="edge12_Node000011_Node000009" class="edge">
<title>Node11&#45;&gt;Node9</title>
<g id="a_edge12_Node000011_Node000009"><a xlink:title=" ">
<path fill="none" stroke="#63b8ff" d="M313.58,-131.4C324.22,-132.49 335.23,-133.62 346.03,-134.73"/>
<polygon fill="#63b8ff" stroke="#63b8ff" points="345.37,-138.18 355.67,-135.71 346.08,-131.21 345.37,-138.18"/>
</a>
</g>
</g>
<!-- Node14 -->
<g id="Node000014" class="node">
<title>Node14</title>
<g id="a_Node000014"><a xlink:href="class_s_e_r_database.html#ad55583b39ff6c9cc9d2d44f20f34ad47" target="_top" xlink:title="Create SER records table and indexes.">
<polygon fill="white" stroke="#666666" points="495.38,-58 360.12,-58 360.12,-38 495.38,-38 495.38,-58"/>
<text xml:space="preserve" text-anchor="middle" x="427.75" y="-44.5" font-family="Helvetica,sans-Serif" font-size="10.00">SERDatabase::createTable</text>
</a>
</g>
</g>
<!-- Node13&#45;&gt;Node14 -->
<g id="edge15_Node000013_Node000014" class="edge">
<title>Node13&#45;&gt;Node14</title>
<g id="a_edge15_Node000013_Node000014"><a xlink:title=" ">
<path fill="none" stroke="#63b8ff" d="M293.51,-48C310.53,-48 329.83,-48 348.36,-48"/>
<polygon fill="#63b8ff" stroke="#63b8ff" points="348.25,-51.5 358.25,-48 348.25,-44.5 348.25,-51.5"/>
</a>
</g>
</g>
</g>
</svg>

<g id="navigator" transform="translate(0 0)" fill="#404254">
  <rect fill="#f2f5e9" fill-opacity="0.5" stroke="#606060" stroke-width=".5" x="0" y="0" width="60" height="60"/>
  <use id="zoomplus" xlink:href="#zoomPlus" x="17" y="9" onmousedown="handleZoom(evt,'in')"/>
  <use id="zoomminus" xlink:href="#zoomMin" x="42" y="9" onmousedown="handleZoom(evt,'out')"/>
  <use id="reset" xlink:href="#resetDef" x="30" y="36" onmousedown="handleReset()"/>
   <use id="arrowup" xlink:href="#arrowUp" x="0" y="0" onmousedown="handlePan(0,-1)"/>
  <use id="arrowright" xlink:href="#arrowRight" x="0" y="0" onmousedown="handlePan(1,0)"/>
  <use id="arrowdown" xlink:href="#arrowDown" x="0" y="0" onmousedown="handlePan(0,1)"/>
  <use id="arrowleft" xlink:href="#arrowLeft" x="0" y="0" onmousedown="handlePan(-1,0)"/>
</g>
<svg viewBox="0 0 15 15" width="100%" height="30px" preserveAspectRatio="xMaxYMin meet">
 <g id="arrow_out" transform="scale(0.3 0.3)">
  <a xlink:href="class_s_e_r_database_ab9a60e734536bd80a75f9e8bacf86882_cgraph_org.svg" target="_base">
   <rect id="button" ry="5" rx="5" y="6" x="6" height="38" width="38"
        fill="#f2f5e9" fill-opacity="0.5" stroke="#606060" stroke-width="1.0"/>
   <path id="arrow"
     d="M 11.500037,31.436501 C 11.940474,20.09759 22.043105,11.32322 32.158766,21.979434 L 37.068811,17.246167 C 37.068811,17.246167 37.088388,32 37.088388,32 L 22.160133,31.978069 C 22.160133,31.978069 26.997745,27.140456 26.997745,27.140456 C 18.528582,18.264221 13.291696,25.230495 11.500037,31.436501 z"
     style="fill:#404040;"/>
  </a>
 </g>
</svg>

<style type='text/css'>
<![CDATA[
[data-mouse-over-selected='false'] { opacity: 0.7; }
[data-mouse-over-selected='true']  { opacity: 1.0; }
]]>
</style>
<script type="application/ecmascript"><![CDATA[
document.addEventListener('DOMContentLoaded', (event) => {
  highlightEdges();
  highlightAdjacentNodes();
});
]]></script>
</svg>
