<?xml version="1.0" encoding="UTF-8" standalone="no"?>
<!DOCTYPE svg PUBLIC "-//W3C//DTD SVG 1.1//EN"
 "http://www.w3.org/Graphics/SVG/1.1/DTD/svg11.dtd">
<!-- Generated by graphviz version 14.1.2 (20260124.0452)
 -->
<!-- Title: WebSocketSession Pages: 1 -->
<!--zoomable 1403 -->

<svg id="main" version="1.1" xmlns="http://www.w3.org/2000/svg" xmlns:xlink="http://www.w3.org/1999/xlink" xml:space="preserve" onload="init(evt)">

<style type="text/css"><![CDATA[
.node, .edge {opacity: 0.7;}
.node.selected, .edge.selected {opacity: 1;}
.edge:hover path { stroke: red; }
.edge:hover polygon { stroke: red; fill: red; }
]]></style>

<defs>
  <circle id="rim" cx="0" cy="0" r="7"/>
  <circle id="rim2" cx="0" cy="0" r="3.5"/>
  <g id="zoomPlus">
    <use xlink:href="#rim" fill="#404040"><set attributeName="fill" to="#808080" begin="zoomplus.mouseover" end="zoomplus.mouseout"/></use>
    <path d="M-4,0h8M0,-4v8" fill="none" stroke="white" stroke-width="1.5" pointer-events="none"/>
  </g>
  <g id="zoomMin">
    <use xlink:href="#rim" fill="#404040"><set attributeName="fill" to="#808080" begin="zoomminus.mouseover" end="zoomminus.mouseout"/></use>
    <path d="M-4,0h8" fill="none" stroke="white" stroke-width="1.5" pointer-events="none"/>
  </g>
  <g id="arrowUp" transform="translate(30 24)">
    <use xlink:href="#rim"/>
    <path pointer-events="none" fill="none" stroke="white" stroke-width="1.5" d="M0,-3.0v7 M-2.5,-0.5L0,-3.0L2.5,-0.5"/>
  </g>
  <g id="arrowRight" transform="rotate(90) translate(36 -43)">
    <use xlink:href="#rim"/>
    <path pointer-events="none" fill="none" stroke="white" stroke-width="1.5" d="M0,-3.0v7 M-2.5,-0.5L0,-3.0L2.5,-0.5"/>
  </g>
  <g id="arrowDown" transform="rotate(180) translate(-30 -48)">
    <use xlink:href="#rim"/>
    <path pointer-events="none" fill="none" stroke="white" stroke-width="1.5" d="M0,-3.0v7 M-2.5,-0.5L0,-3.0L2.5,-0.5"/>
  </g>
  <g id="arrowLeft" transform="rotate(270) translate(-36 17)">
    <use xlink:href="#rim"/>
    <path pointer-events="none" fill="none" stroke="white" stroke-width="1.5" d="M0,-3.0v7 M-2.5,-0.5L0,-3.0L2.5,-0.5"/>
  </g>
  <g id="resetDef">
    <use xlink:href="#rim2" fill="#404040"><set attributeName="fill" to="#808080" begin="reset.mouseover" end="reset.mouseout"/></use>
  </g>
</defs>
<script type="application/ecmascript">
var viewWidth = 541;
var viewHeight = 1403;
var sectionId = 'dynsection-1';
</script>
<script type="application/ecmascript" xlink:href="svg.min.js"/>
<svg id="graph" class="graph">
<g id="viewport">
<title>WebSocketSession</title>
<!-- Node1 -->
<g id="Node000001" class="node">
<title>Node1</title>
<g id="a_Node000001"><a xlink:title="Handles a single WebSocket client connection.">
<polygon fill="#999999" stroke="none" points="300.38,-746 184.88,-746 184.88,-390 300.38,-390 300.38,-746"/>
<text xml:space="preserve" text-anchor="start" x="199.88" y="-732.5" font-family="Helvetica,sans-Serif" font-size="10.00">WebSocketSession</text>
<text xml:space="preserve" text-anchor="start" x="190.38" y="-716.5" font-family="Helvetica,sans-Serif" font-size="10.00">&#45;</text>
<text xml:space="preserve" text-anchor="start" x="198.88" y="-716.5" font-family="Helvetica,sans-Serif" font-size="10.00">ws_</text>
<text xml:space="preserve" text-anchor="start" x="190.38" y="-700.5" font-family="Helvetica,sans-Serif" font-size="10.00">&#45;</text>
<text xml:space="preserve" text-anchor="start" x="198.88" y="-700.5" font-family="Helvetica,sans-Serif" font-size="10.00">buffer_</text>
<text xml:space="preserve" text-anchor="start" x="190.38" y="-684.5" font-family="Helvetica,sans-Serif" font-size="10.00">&#45;</text>
<text xml:space="preserve" text-anchor="start" x="198.88" y="-684.5" font-family="Helvetica,sans-Serif" font-size="10.00">writing_</text>
<text xml:space="preserve" text-anchor="start" x="190.38" y="-668.5" font-family="Helvetica,sans-Serif" font-size="10.00">&#45;</text>
<text xml:space="preserve" text-anchor="start" x="198.88" y="-668.5" font-family="Helvetica,sans-Serif" font-size="10.00">pending_read_</text>
<text xml:space="preserve" text-anchor="start" x="190.38" y="-652.5" font-family="Helvetica,sans-Serif" font-size="10.00">&#45;</text>
<text xml:space="preserve" text-anchor="start" x="198.88" y="-652.5" font-family="Helvetica,sans-Serif" font-size="10.00">cmdHandler_</text>
<text xml:space="preserve" text-anchor="start" x="190.38" y="-636.5" font-family="Helvetica,sans-Serif" font-size="10.00">&#45;</text>
<text xml:space="preserve" text-anchor="start" x="198.88" y="-636.5" font-family="Helvetica,sans-Serif" font-size="10.00">actionHandler_</text>
<text xml:space="preserve" text-anchor="start" x="188.88" y="-620.5" font-family="Helvetica,sans-Serif" font-size="10.00">+</text>
<text xml:space="preserve" text-anchor="start" x="198.88" y="-620.5" font-family="Helvetica,sans-Serif" font-size="10.00">WebSocketSession()</text>
<text xml:space="preserve" text-anchor="start" x="188.88" y="-604.5" font-family="Helvetica,sans-Serif" font-size="10.00">+</text>
<text xml:space="preserve" text-anchor="start" x="198.88" y="-604.5" font-family="Helvetica,sans-Serif" font-size="10.00">~WebSocketSession()</text>
<text xml:space="preserve" text-anchor="start" x="188.88" y="-588.5" font-family="Helvetica,sans-Serif" font-size="10.00">+</text>
<text xml:space="preserve" text-anchor="start" x="198.88" y="-588.5" font-family="Helvetica,sans-Serif" font-size="10.00">sendBroadcast()</text>
<text xml:space="preserve" text-anchor="start" x="188.88" y="-572.5" font-family="Helvetica,sans-Serif" font-size="10.00">+</text>
<text xml:space="preserve" text-anchor="start" x="198.88" y="-572.5" font-family="Helvetica,sans-Serif" font-size="10.00">sendTextBroadcast()</text>
<text xml:space="preserve" text-anchor="start" x="188.88" y="-556.5" font-family="Helvetica,sans-Serif" font-size="10.00">+</text>
<text xml:space="preserve" text-anchor="start" x="198.88" y="-556.5" font-family="Helvetica,sans-Serif" font-size="10.00">run()</text>
<text xml:space="preserve" text-anchor="start" x="190.38" y="-540.5" font-family="Helvetica,sans-Serif" font-size="10.00">&#45;</text>
<text xml:space="preserve" text-anchor="start" x="198.88" y="-540.5" font-family="Helvetica,sans-Serif" font-size="10.00">on_accept()</text>
<text xml:space="preserve" text-anchor="start" x="190.38" y="-524.5" font-family="Helvetica,sans-Serif" font-size="10.00">&#45;</text>
<text xml:space="preserve" text-anchor="start" x="198.88" y="-524.5" font-family="Helvetica,sans-Serif" font-size="10.00">do_broadcast()</text>
<text xml:space="preserve" text-anchor="start" x="190.38" y="-508.5" font-family="Helvetica,sans-Serif" font-size="10.00">&#45;</text>
<text xml:space="preserve" text-anchor="start" x="198.88" y="-508.5" font-family="Helvetica,sans-Serif" font-size="10.00">on_broadcast_write()</text>
<text xml:space="preserve" text-anchor="start" x="190.38" y="-492.5" font-family="Helvetica,sans-Serif" font-size="10.00">&#45;</text>
<text xml:space="preserve" text-anchor="start" x="198.88" y="-492.5" font-family="Helvetica,sans-Serif" font-size="10.00">do_read()</text>
<text xml:space="preserve" text-anchor="start" x="190.38" y="-476.5" font-family="Helvetica,sans-Serif" font-size="10.00">&#45;</text>
<text xml:space="preserve" text-anchor="start" x="198.88" y="-476.5" font-family="Helvetica,sans-Serif" font-size="10.00">on_read()</text>
<text xml:space="preserve" text-anchor="start" x="190.38" y="-460.5" font-family="Helvetica,sans-Serif" font-size="10.00">&#45;</text>
<text xml:space="preserve" text-anchor="start" x="198.88" y="-460.5" font-family="Helvetica,sans-Serif" font-size="10.00">sendData()</text>
<text xml:space="preserve" text-anchor="start" x="190.38" y="-444.5" font-family="Helvetica,sans-Serif" font-size="10.00">&#45;</text>
<text xml:space="preserve" text-anchor="start" x="198.88" y="-444.5" font-family="Helvetica,sans-Serif" font-size="10.00">on_write()</text>
<text xml:space="preserve" text-anchor="start" x="190.38" y="-428.5" font-family="Helvetica,sans-Serif" font-size="10.00">&#45;</text>
<text xml:space="preserve" text-anchor="start" x="198.88" y="-428.5" font-family="Helvetica,sans-Serif" font-size="10.00">sendTextResponse()</text>
<text xml:space="preserve" text-anchor="start" x="190.38" y="-412.5" font-family="Helvetica,sans-Serif" font-size="10.00">&#45;</text>
<text xml:space="preserve" text-anchor="start" x="198.88" y="-412.5" font-family="Helvetica,sans-Serif" font-size="10.00">isJsonAction()</text>
<text xml:space="preserve" text-anchor="start" x="190.38" y="-396.5" font-family="Helvetica,sans-Serif" font-size="10.00">&#45;</text>
<text xml:space="preserve" text-anchor="start" x="198.88" y="-396.5" font-family="Helvetica,sans-Serif" font-size="10.00">extractAction()</text>
<polygon fill="#666666" stroke="#666666" points="184.88,-728 184.88,-728 300.38,-728 300.38,-728 184.88,-728"/>
<polygon fill="#666666" stroke="#666666" points="184.88,-632 184.88,-632 196.88,-632 196.88,-632 184.88,-632"/>
<polygon fill="#666666" stroke="#666666" points="196.88,-632 196.88,-632 300.38,-632 300.38,-632 196.88,-632"/>
<polygon fill="none" stroke="#666666" points="184.88,-390 184.88,-746 300.38,-746 300.38,-390 184.88,-390"/>
</a>
</g>
</g>
<!-- Node9 -->
<g id="Node000009" class="node">
<title>Node9</title>
<g id="a_Node000009"><a xlink:title=" ">
<polygon fill="white" stroke="none" points="260.88,-336 128.38,-336 128.38,-272 260.88,-272 260.88,-336"/>
<text xml:space="preserve" text-anchor="start" x="132.38" y="-322.5" font-family="Helvetica,sans-Serif" font-size="10.00">std::shared_ptr&lt; WebSocket</text>
<text xml:space="preserve" text-anchor="start" x="172.5" y="-310.5" font-family="Helvetica,sans-Serif" font-size="10.00">Session &gt;</text>
<text xml:space="preserve" text-anchor="start" x="193.12" y="-294.5" font-family="Helvetica,sans-Serif" font-size="10.00"> </text>
<text xml:space="preserve" text-anchor="start" x="148.44" y="-278.5" font-family="Helvetica,sans-Serif" font-size="10.00">+</text>
<text xml:space="preserve" text-anchor="start" x="174.5" y="-278.5" font-family="Helvetica,sans-Serif" font-size="10.00">operator&#45;&gt;()</text>
<polygon fill="#666666" stroke="#666666" points="128.38,-306 128.38,-306 260.88,-306 260.88,-306 128.38,-306"/>
<polygon fill="#666666" stroke="#666666" points="128.38,-290 128.38,-290 260.88,-290 260.88,-290 128.38,-290"/>
<polygon fill="none" stroke="#666666" points="128.38,-272 128.38,-336 260.88,-336 260.88,-272 128.38,-272"/>
</a>
</g>
</g>
<!-- Node1&#45;&gt;Node9 -->
<g id="edge9_Node000009_Node000001" class="edge">
<title>Node1&#45;&gt;Node9</title>
<g id="a_edge9_Node000009_Node000001"><a xlink:title=" ">
<path fill="none" stroke="#63b8ff" d="M210.21,-390.06C207.44,-374.94 204.84,-360.76 202.59,-348.47"/>
<polygon fill="none" stroke="#63b8ff" points="202.62,-348.61 197.6,-343.43 200.45,-336.81 205.47,-341.99 202.62,-348.61"/>
</a>
</g>
<text xml:space="preserve" text-anchor="start" x="209.22" y="-359.5" font-family="Helvetica,sans-Serif" font-size="10.00" fill="grey">+ptr</text>
</g>
<!-- Node2 -->
<g id="Node000002" class="node">
<title>Node2</title>
<g id="a_Node000002"><a xlink:title=" ">
<polygon fill="white" stroke="none" points="157.25,-1026 0,-1026 0,-962 157.25,-962 157.25,-1026"/>
<text xml:space="preserve" text-anchor="start" x="4" y="-1012.5" font-family="Helvetica,sans-Serif" font-size="10.00">std::enable_shared</text>
<text xml:space="preserve" text-anchor="start" x="4" y="-1000.5" font-family="Helvetica,sans-Serif" font-size="10.00">_from_this&lt; WebSocketSession &gt;</text>
<text xml:space="preserve" text-anchor="start" x="77.12" y="-984.5" font-family="Helvetica,sans-Serif" font-size="10.00"> </text>
<text xml:space="preserve" text-anchor="start" x="77.12" y="-968.5" font-family="Helvetica,sans-Serif" font-size="10.00"> </text>
<polygon fill="#666666" stroke="#666666" points="0,-996 0,-996 157.25,-996 157.25,-996 0,-996"/>
<polygon fill="#666666" stroke="#666666" points="0,-980 0,-980 157.25,-980 157.25,-980 0,-980"/>
<polygon fill="none" stroke="#666666" points="0,-962 0,-1026 157.25,-1026 157.25,-962 0,-962"/>
</a>
</g>
</g>
<!-- Node2&#45;&gt;Node1 -->
<g id="edge1_Node000001_Node000002" class="edge">
<title>Node2&#45;&gt;Node1</title>
<g id="a_edge1_Node000001_Node000002"><a xlink:title=" ">
<path fill="none" stroke="#63b8ff" d="M94.61,-951.67C115.43,-897.85 152.95,-800.84 185.01,-717.97"/>
<polygon fill="none" stroke="#63b8ff" points="91.44,-950.16 91.1,-960.75 97.97,-952.69 91.44,-950.16"/>
</a>
</g>
</g>
<!-- Node3 -->
<g id="Node000003" class="node">
<title>Node3</title>
<g id="a_Node000003"><a xlink:href="class_s_e_r_database.html" target="_top" xlink:title="SQLite database handler for storing and retrieving SER records.">
<polygon fill="white" stroke="none" points="413,-1172 298.25,-1172 298.25,-816 413,-816 413,-1172"/>
<text xml:space="preserve" text-anchor="start" x="324.12" y="-1158.5" font-family="Helvetica,sans-Serif" font-size="10.00">SERDatabase</text>
<text xml:space="preserve" text-anchor="start" x="303.75" y="-1142.5" font-family="Helvetica,sans-Serif" font-size="10.00">&#45;</text>
<text xml:space="preserve" text-anchor="start" x="312.25" y="-1142.5" font-family="Helvetica,sans-Serif" font-size="10.00">db_</text>
<text xml:space="preserve" text-anchor="start" x="302.25" y="-1126.5" font-family="Helvetica,sans-Serif" font-size="10.00">+</text>
<text xml:space="preserve" text-anchor="start" x="312.25" y="-1126.5" font-family="Helvetica,sans-Serif" font-size="10.00">SERDatabase()</text>
<text xml:space="preserve" text-anchor="start" x="302.25" y="-1110.5" font-family="Helvetica,sans-Serif" font-size="10.00">+</text>
<text xml:space="preserve" text-anchor="start" x="312.25" y="-1110.5" font-family="Helvetica,sans-Serif" font-size="10.00">~SERDatabase()</text>
<text xml:space="preserve" text-anchor="start" x="302.25" y="-1094.5" font-family="Helvetica,sans-Serif" font-size="10.00">+</text>
<text xml:space="preserve" text-anchor="start" x="312.25" y="-1094.5" font-family="Helvetica,sans-Serif" font-size="10.00">open()</text>
<text xml:space="preserve" text-anchor="start" x="302.25" y="-1078.5" font-family="Helvetica,sans-Serif" font-size="10.00">+</text>
<text xml:space="preserve" text-anchor="start" x="312.25" y="-1078.5" font-family="Helvetica,sans-Serif" font-size="10.00">close()</text>
<text xml:space="preserve" text-anchor="start" x="302.25" y="-1062.5" font-family="Helvetica,sans-Serif" font-size="10.00">+</text>
<text xml:space="preserve" text-anchor="start" x="312.25" y="-1062.5" font-family="Helvetica,sans-Serif" font-size="10.00">isOpen()</text>
<text xml:space="preserve" text-anchor="start" x="302.25" y="-1046.5" font-family="Helvetica,sans-Serif" font-size="10.00">+</text>
<text xml:space="preserve" text-anchor="start" x="312.25" y="-1046.5" font-family="Helvetica,sans-Serif" font-size="10.00">insertRecord()</text>
<text xml:space="preserve" text-anchor="start" x="302.25" y="-1030.5" font-family="Helvetica,sans-Serif" font-size="10.00">+</text>
<text xml:space="preserve" text-anchor="start" x="312.25" y="-1030.5" font-family="Helvetica,sans-Serif" font-size="10.00">insertRecords()</text>
<text xml:space="preserve" text-anchor="start" x="302.25" y="-1014.5" font-family="Helvetica,sans-Serif" font-size="10.00">+</text>
<text xml:space="preserve" text-anchor="start" x="312.25" y="-1014.5" font-family="Helvetica,sans-Serif" font-size="10.00">getAllRecords()</text>
<text xml:space="preserve" text-anchor="start" x="302.25" y="-998.5" font-family="Helvetica,sans-Serif" font-size="10.00">+</text>
<text xml:space="preserve" text-anchor="start" x="312.25" y="-998.5" font-family="Helvetica,sans-Serif" font-size="10.00">getRecordsByStatus()</text>
<text xml:space="preserve" text-anchor="start" x="302.25" y="-982.5" font-family="Helvetica,sans-Serif" font-size="10.00">+</text>
<text xml:space="preserve" text-anchor="start" x="312.25" y="-982.5" font-family="Helvetica,sans-Serif" font-size="10.00">getRecordCount()</text>
<text xml:space="preserve" text-anchor="start" x="302.25" y="-966.5" font-family="Helvetica,sans-Serif" font-size="10.00">+</text>
<text xml:space="preserve" text-anchor="start" x="312.25" y="-966.5" font-family="Helvetica,sans-Serif" font-size="10.00">clearAllRecords()</text>
<text xml:space="preserve" text-anchor="start" x="302.25" y="-950.5" font-family="Helvetica,sans-Serif" font-size="10.00">+</text>
<text xml:space="preserve" text-anchor="start" x="312.25" y="-950.5" font-family="Helvetica,sans-Serif" font-size="10.00">exportToJSON()</text>
<text xml:space="preserve" text-anchor="start" x="302.25" y="-934.5" font-family="Helvetica,sans-Serif" font-size="10.00">+</text>
<text xml:space="preserve" text-anchor="start" x="312.25" y="-934.5" font-family="Helvetica,sans-Serif" font-size="10.00">getLastError()</text>
<text xml:space="preserve" text-anchor="start" x="302.25" y="-918.5" font-family="Helvetica,sans-Serif" font-size="10.00">+</text>
<text xml:space="preserve" text-anchor="start" x="312.25" y="-918.5" font-family="Helvetica,sans-Serif" font-size="10.00">getDbHandle()</text>
<text xml:space="preserve" text-anchor="start" x="302.25" y="-902.5" font-family="Helvetica,sans-Serif" font-size="10.00">+</text>
<text xml:space="preserve" text-anchor="start" x="312.25" y="-902.5" font-family="Helvetica,sans-Serif" font-size="10.00">SERDatabase()</text>
<text xml:space="preserve" text-anchor="start" x="302.25" y="-886.5" font-family="Helvetica,sans-Serif" font-size="10.00">+</text>
<text xml:space="preserve" text-anchor="start" x="312.25" y="-886.5" font-family="Helvetica,sans-Serif" font-size="10.00">operator=()</text>
<text xml:space="preserve" text-anchor="start" x="303.75" y="-870.5" font-family="Helvetica,sans-Serif" font-size="10.00">&#45;</text>
<text xml:space="preserve" text-anchor="start" x="312.25" y="-870.5" font-family="Helvetica,sans-Serif" font-size="10.00">createTable()</text>
<text xml:space="preserve" text-anchor="start" x="303.75" y="-854.5" font-family="Helvetica,sans-Serif" font-size="10.00">&#45;</text>
<text xml:space="preserve" text-anchor="start" x="312.25" y="-854.5" font-family="Helvetica,sans-Serif" font-size="10.00">recordExists()</text>
<text xml:space="preserve" text-anchor="start" x="303.38" y="-838.5" font-family="Helvetica,sans-Serif" font-size="10.00">*</text>
<text xml:space="preserve" text-anchor="start" x="312.25" y="-838.5" font-family="Helvetica,sans-Serif" font-size="10.00">SERDatabase()</text>
<text xml:space="preserve" text-anchor="start" x="303.38" y="-822.5" font-family="Helvetica,sans-Serif" font-size="10.00">*</text>
<text xml:space="preserve" text-anchor="start" x="312.25" y="-822.5" font-family="Helvetica,sans-Serif" font-size="10.00">operator=()</text>
<polygon fill="#666666" stroke="#666666" points="298.25,-1154 298.25,-1154 413,-1154 413,-1154 298.25,-1154"/>
<polygon fill="#666666" stroke="#666666" points="298.25,-1138 298.25,-1138 310.25,-1138 310.25,-1138 298.25,-1138"/>
<polygon fill="#666666" stroke="#666666" points="310.25,-1138 310.25,-1138 413,-1138 413,-1138 310.25,-1138"/>
<polygon fill="none" stroke="#666666" points="298.25,-816 298.25,-1172 413,-1172 413,-816 298.25,-816"/>
</a>
</g>
</g>
<!-- Node3&#45;&gt;Node1 -->
<g id="edge2_Node000001_Node000003" class="edge">
<title>Node3&#45;&gt;Node1</title>
<g id="a_edge2_Node000001_Node000003"><a xlink:title=" ">
<path fill="none" stroke="#63b8ff" d="M308.52,-816.26C303.43,-797.15 298.23,-777.65 293.1,-758.4"/>
<polygon fill="none" stroke="#63b8ff" points="293.07,-758.26 287.66,-753.5 289.98,-746.67 295.39,-751.44 293.07,-758.26"/>
</a>
</g>
<text xml:space="preserve" text-anchor="start" x="305.51" y="-777.5" font-family="Helvetica,sans-Serif" font-size="10.00" fill="grey">&#45;db_</text>
</g>
<!-- Node4 -->
<g id="Node000004" class="node">
<title>Node4</title>
<g id="a_Node000004"><a xlink:title=" ">
<polygon fill="white" stroke="none" points="235.38,-1294 183.88,-1294 183.88,-1242 235.38,-1242 235.38,-1294"/>
<text xml:space="preserve" text-anchor="start" x="187.88" y="-1280.5" font-family="Helvetica,sans-Serif" font-size="10.00">std::string</text>
<text xml:space="preserve" text-anchor="start" x="208.12" y="-1264.5" font-family="Helvetica,sans-Serif" font-size="10.00"> </text>
<text xml:space="preserve" text-anchor="start" x="208.12" y="-1248.5" font-family="Helvetica,sans-Serif" font-size="10.00"> </text>
<polygon fill="#666666" stroke="#666666" points="183.88,-1276 183.88,-1276 235.38,-1276 235.38,-1276 183.88,-1276"/>
<polygon fill="#666666" stroke="#666666" points="183.88,-1260 183.88,-1260 235.38,-1260 235.38,-1260 183.88,-1260"/>
<polygon fill="none" stroke="#666666" points="183.88,-1242 183.88,-1294 235.38,-1294 235.38,-1242 183.88,-1242"/>
</a>
</g>
</g>
<!-- Node4&#45;&gt;Node1 -->
<g id="edge11_Node000001_Node000004" class="edge">
<title>Node4&#45;&gt;Node1</title>
<g id="a_edge11_Node000001_Node000004"><a xlink:title=" ">
<path fill="none" stroke="#63b8ff" d="M207.53,-1242.02C206.04,-1222.87 204.16,-1195.79 203.38,-1172 198.18,-1013.86 190.92,-973.73 203.38,-816 204.85,-797.27 206.95,-777.81 209.42,-758.41"/>
<polygon fill="none" stroke="#63b8ff" points="209.42,-758.47 206.23,-752 210.98,-746.58 214.16,-753.05 209.42,-758.47"/>
</a>
</g>
<text xml:space="preserve" text-anchor="start" x="206.38" y="-990.5" font-family="Helvetica,sans-Serif" font-size="10.00" fill="grey">&#45;text_write_buffer_</text>
</g>
<!-- Node4&#45;&gt;Node3 -->
<g id="edge3_Node000003_Node000004" class="edge">
<title>Node4&#45;&gt;Node3</title>
<g id="a_edge3_Node000003_Node000004"><a xlink:title=" ">
<path fill="none" stroke="#63b8ff" d="M232.08,-1242.16C247.92,-1223.75 268.87,-1197.52 283.62,-1172 286.68,-1166.71 289.67,-1161.27 292.58,-1155.73"/>
<polygon fill="none" stroke="#63b8ff" points="292.6,-1155.7 291.76,-1148.54 298.05,-1145.01 298.89,-1152.17 292.6,-1155.7"/>
</a>
</g>
<text xml:space="preserve" text-anchor="start" x="274.36" y="-1211.5" font-family="Helvetica,sans-Serif" font-size="10.00" fill="grey">&#45;db_path_</text>
<text xml:space="preserve" text-anchor="start" x="274.36" y="-1195.5" font-family="Helvetica,sans-Serif" font-size="10.00" fill="grey">&#45;last_error_</text>
</g>
<!-- Node5 -->
<g id="Node000005" class="node">
<title>Node5</title>
<g id="a_Node000005"><a xlink:title=" ">
<polygon fill="white" stroke="none" points="252.62,-1395 166.62,-1395 166.62,-1331 252.62,-1331 252.62,-1395"/>
<text xml:space="preserve" text-anchor="start" x="170.62" y="-1381.5" font-family="Helvetica,sans-Serif" font-size="10.00">std::basic_string&lt;</text>
<text xml:space="preserve" text-anchor="start" x="193.12" y="-1369.5" font-family="Helvetica,sans-Serif" font-size="10.00"> Char &gt;</text>
<text xml:space="preserve" text-anchor="start" x="208.12" y="-1353.5" font-family="Helvetica,sans-Serif" font-size="10.00"> </text>
<text xml:space="preserve" text-anchor="start" x="208.12" y="-1337.5" font-family="Helvetica,sans-Serif" font-size="10.00"> </text>
<polygon fill="#666666" stroke="#666666" points="166.62,-1365 166.62,-1365 252.62,-1365 252.62,-1365 166.62,-1365"/>
<polygon fill="#666666" stroke="#666666" points="166.62,-1349 166.62,-1349 252.62,-1349 252.62,-1349 166.62,-1349"/>
<polygon fill="none" stroke="#666666" points="166.62,-1331 166.62,-1395 252.62,-1395 252.62,-1331 166.62,-1331"/>
</a>
</g>
</g>
<!-- Node5&#45;&gt;Node4 -->
<g id="edge4_Node000004_Node000005" class="edge">
<title>Node5&#45;&gt;Node4</title>
<g id="a_edge4_Node000004_Node000005"><a xlink:title=" ">
<path fill="none" stroke="#63b8ff" d="M209.62,-1319.69C209.62,-1310.89 209.62,-1301.89 209.62,-1293.96"/>
<polygon fill="none" stroke="#63b8ff" points="206.13,-1319.52 209.63,-1329.52 213.13,-1319.52 206.13,-1319.52"/>
</a>
</g>
</g>
<!-- Node6 -->
<g id="Node000006" class="node">
<title>Node6</title>
<g id="a_Node000006"><a xlink:href="class_session_manager.html" target="_top" xlink:title="Manages all active WebSocket sessions for broadcast.">
<polygon fill="white" stroke="none" points="233,-100 152.25,-100 152.25,0 233,0 233,-100"/>
<text xml:space="preserve" text-anchor="start" x="156.25" y="-86.5" font-family="Helvetica,sans-Serif" font-size="10.00">SessionManager</text>
<text xml:space="preserve" text-anchor="start" x="191.12" y="-70.5" font-family="Helvetica,sans-Serif" font-size="10.00"> </text>
<text xml:space="preserve" text-anchor="start" x="156.94" y="-54.5" font-family="Helvetica,sans-Serif" font-size="10.00">+</text>
<text xml:space="preserve" text-anchor="start" x="167.62" y="-54.5" font-family="Helvetica,sans-Serif" font-size="10.00">add()</text>
<text xml:space="preserve" text-anchor="start" x="156.94" y="-38.5" font-family="Helvetica,sans-Serif" font-size="10.00">+</text>
<text xml:space="preserve" text-anchor="start" x="167.62" y="-38.5" font-family="Helvetica,sans-Serif" font-size="10.00">remove()</text>
<text xml:space="preserve" text-anchor="start" x="156.94" y="-22.5" font-family="Helvetica,sans-Serif" font-size="10.00">+</text>
<text xml:space="preserve" text-anchor="start" x="167.62" y="-22.5" font-family="Helvetica,sans-Serif" font-size="10.00">getSessions()</text>
<text xml:space="preserve" text-anchor="start" x="156.94" y="-6.5" font-family="Helvetica,sans-Serif" font-size="10.00">+</text>
<text xml:space="preserve" text-anchor="start" x="167.62" y="-6.5" font-family="Helvetica,sans-Serif" font-size="10.00">count()</text>
<polygon fill="#666666" stroke="#666666" points="152.25,-82 152.25,-82 233,-82 233,-82 152.25,-82"/>
<polygon fill="#666666" stroke="#666666" points="152.25,-66 152.25,-66 233,-66 233,-66 152.25,-66"/>
<polygon fill="none" stroke="#666666" points="152.25,0 152.25,-100 233,-100 233,0 152.25,0"/>
</a>
</g>
</g>
<!-- Node6&#45;&gt;Node1 -->
<g id="edge5_Node000001_Node000006" class="edge">
<title>Node6&#45;&gt;Node1</title>
<g id="a_edge5_Node000001_Node000006"><a xlink:title=" ">
<path fill="none" stroke="#63b8ff" d="M232.77,-89.61C248.11,-107.46 263.41,-130.01 269.62,-154 288.18,-225.6 287.45,-306.41 279.94,-377.43"/>
<polygon fill="none" stroke="#63b8ff" points="279.95,-377.29 283.26,-383.7 278.61,-389.21 275.31,-382.81 279.95,-377.29"/>
</a>
</g>
<text xml:space="preserve" text-anchor="start" x="286.98" y="-241.5" font-family="Helvetica,sans-Serif" font-size="10.00" fill="grey">&#45;sessionMgr_</text>
</g>
<!-- Node7 -->
<g id="Node000007" class="node">
<title>Node7</title>
<g id="a_Node000007"><a xlink:title=" ">
<polygon fill="white" stroke="none" points="105.88,-212 51.38,-212 51.38,-160 105.88,-160 105.88,-212"/>
<text xml:space="preserve" text-anchor="start" x="55.38" y="-198.5" font-family="Helvetica,sans-Serif" font-size="10.00">std::mutex</text>
<text xml:space="preserve" text-anchor="start" x="77.12" y="-182.5" font-family="Helvetica,sans-Serif" font-size="10.00"> </text>
<text xml:space="preserve" text-anchor="start" x="77.12" y="-166.5" font-family="Helvetica,sans-Serif" font-size="10.00"> </text>
<polygon fill="#666666" stroke="#666666" points="51.38,-194 51.38,-194 105.88,-194 105.88,-194 51.38,-194"/>
<polygon fill="#666666" stroke="#666666" points="51.38,-178 51.38,-178 105.88,-178 105.88,-178 51.38,-178"/>
<polygon fill="none" stroke="#666666" points="51.38,-160 51.38,-212 105.88,-212 105.88,-160 51.38,-160"/>
</a>
</g>
</g>
<!-- Node7&#45;&gt;Node6 -->
<g id="edge6_Node000006_Node000007" class="edge">
<title>Node7&#45;&gt;Node6</title>
<g id="a_edge6_Node000006_Node000007"><a xlink:title=" ">
<path fill="none" stroke="#63b8ff" d="M99.8,-160.11C112.3,-145.42 128.66,-126.18 144.17,-107.96"/>
<polygon fill="none" stroke="#63b8ff" points="144.05,-108.09 144.89,-100.93 151.83,-98.95 150.99,-106.12 144.05,-108.09"/>
</a>
</g>
<text xml:space="preserve" text-anchor="start" x="138.62" y="-123.5" font-family="Helvetica,sans-Serif" font-size="10.00" fill="grey">&#45;mutex_</text>
</g>
<!-- Node8 -->
<g id="Node000008" class="node">
<title>Node8</title>
<g id="a_Node000008"><a xlink:title=" ">
<polygon fill="white" stroke="none" points="261.12,-218 124.12,-218 124.12,-154 261.12,-154 261.12,-218"/>
<text xml:space="preserve" text-anchor="start" x="128.12" y="-204.5" font-family="Helvetica,sans-Serif" font-size="10.00">std::set&lt; std::shared</text>
<text xml:space="preserve" text-anchor="start" x="128.12" y="-192.5" font-family="Helvetica,sans-Serif" font-size="10.00">_ptr&lt; WebSocketSession &gt; &gt;</text>
<text xml:space="preserve" text-anchor="start" x="191.12" y="-176.5" font-family="Helvetica,sans-Serif" font-size="10.00"> </text>
<text xml:space="preserve" text-anchor="start" x="191.12" y="-160.5" font-family="Helvetica,sans-Serif" font-size="10.00"> </text>
<polygon fill="#666666" stroke="#666666" points="124.12,-188 124.12,-188 261.12,-188 261.12,-188 124.12,-188"/>
<polygon fill="#666666" stroke="#666666" points="124.12,-172 124.12,-172 261.12,-172 261.12,-172 124.12,-172"/>
<polygon fill="none" stroke="#666666" points="124.12,-154 124.12,-218 261.12,-218 261.12,-154 124.12,-154"/>
</a>
</g>
</g>
<!-- Node8&#45;&gt;Node6 -->
<g id="edge7_Node000006_Node000008" class="edge">
<title>Node8&#45;&gt;Node6</title>
<g id="a_edge7_Node000006_Node000008"><a xlink:title=" ">
<path fill="none" stroke="#63b8ff" d="M192.62,-154.26C192.62,-141.95 192.62,-127.31 192.62,-112.98"/>
<polygon fill="none" stroke="#63b8ff" points="192.63,-112.88 188.63,-106.88 192.63,-100.88 196.63,-106.88 192.63,-112.88"/>
</a>
</g>
<text xml:space="preserve" text-anchor="start" x="195.62" y="-123.5" font-family="Helvetica,sans-Serif" font-size="10.00" fill="grey">&#45;sessions_</text>
</g>
<!-- Node9&#45;&gt;Node8 -->
<g id="edge8_Node000008_Node000009" class="edge">
<title>Node9&#45;&gt;Node8</title>
<g id="a_edge8_Node000008_Node000009"><a xlink:title=" ">
<path fill="none" stroke="#63b8ff" d="M194.09,-272.22C193.88,-259.5 193.62,-244.53 193.38,-230.71"/>
<polygon fill="none" stroke="#63b8ff" points="193.38,-230.82 189.28,-224.89 193.17,-218.83 197.28,-224.76 193.38,-230.82"/>
</a>
</g>
<text xml:space="preserve" text-anchor="start" x="196.74" y="-241.5" font-family="Helvetica,sans-Serif" font-size="10.00" fill="grey">+keys</text>
</g>
<!-- Node10 -->
<g id="Node000010" class="node">
<title>Node10</title>
<g id="a_Node000010"><a xlink:title=" ">
<polygon fill="white" stroke="none" points="532.5,-1020 430.75,-1020 430.75,-968 532.5,-968 532.5,-1020"/>
<text xml:space="preserve" text-anchor="start" x="434.75" y="-1006.5" font-family="Helvetica,sans-Serif" font-size="10.00">std::vector&lt; uint8_t &gt;</text>
<text xml:space="preserve" text-anchor="start" x="445.75" y="-990.5" font-family="Helvetica,sans-Serif" font-size="10.00">+</text>
<text xml:space="preserve" text-anchor="start" x="466.75" y="-990.5" font-family="Helvetica,sans-Serif" font-size="10.00">elements</text>
<text xml:space="preserve" text-anchor="start" x="480.12" y="-974.5" font-family="Helvetica,sans-Serif" font-size="10.00"> </text>
<polygon fill="#666666" stroke="#666666" points="430.75,-1002 430.75,-1002 532.5,-1002 532.5,-1002 430.75,-1002"/>
<polygon fill="#666666" stroke="#666666" points="430.75,-986 430.75,-986 464.75,-986 464.75,-986 430.75,-986"/>
<polygon fill="#666666" stroke="#666666" points="464.75,-986 464.75,-986 532.5,-986 532.5,-986 464.75,-986"/>
<polygon fill="none" stroke="#666666" points="430.75,-968 430.75,-1020 532.5,-1020 532.5,-968 430.75,-968"/>
</a>
</g>
</g>
<!-- Node10&#45;&gt;Node1 -->
<g id="edge10_Node000001_Node000010" class="edge">
<title>Node10&#45;&gt;Node1</title>
<g id="a_edge10_Node000001_Node000010"><a xlink:title=" ">
<path fill="none" stroke="#63b8ff" d="M475.69,-968.01C466.79,-932.84 448.14,-867.31 421.62,-816 390.37,-755.51 345.36,-693.48 308.29,-646.72"/>
<polygon fill="none" stroke="#63b8ff" points="308.33,-646.75 301.46,-644.56 300.84,-637.38 307.71,-639.57 308.33,-646.75"/>
</a>
</g>
<text xml:space="preserve" text-anchor="start" x="412.87" y="-785.5" font-family="Helvetica,sans-Serif" font-size="10.00" fill="grey">&#45;broadcast_buffer_</text>
<text xml:space="preserve" text-anchor="start" x="412.87" y="-769.5" font-family="Helvetica,sans-Serif" font-size="10.00" fill="grey">&#45;write_buffer_</text>
</g>
</g>
</svg>

<g id="navigator" transform="translate(0 0)" fill="#404254">
  <rect fill="#f2f5e9" fill-opacity="0.5" stroke="#606060" stroke-width=".5" x="0" y="0" width="60" height="60"/>
  <use id="zoomplus" xlink:href="#zoomPlus" x="17" y="9" onmousedown="handleZoom(evt,'in')"/>
  <use id="zoomminus" xlink:href="#zoomMin" x="42" y="9" onmousedown="handleZoom(evt,'out')"/>
  <use id="reset" xlink:href="#resetDef" x="30" y="36" onmousedown="handleReset()"/>
   <use id="arrowup" xlink:href="#arrowUp" x="0" y="0" onmousedown="handlePan(0,-1)"/>
  <use id="arrowright" xlink:href="#arrowRight" x="0" y="0" onmousedown="handlePan(1,0)"/>
  <use id="arrowdown" xlink:href="#arrowDown" x="0" y="0" onmousedown="handlePan(0,1)"/>
  <use id="arrowleft" xlink:href="#arrowLeft" x="0" y="0" onmousedown="handlePan(-1,0)"/>
</g>
<svg viewBox="0 0 15 15" width="100%" height="30px" preserveAspectRatio="xMaxYMin meet">
 <g id="arrow_out" transform="scale(0.3 0.3)">
  <a xlink:href="class_web_socket_session__coll__graph_org.svg" target="_base">
   <rect id="button" ry="5" rx="5" y="6" x="6" height="38" width="38"
        fill="#f2f5e9" fill-opacity="0.5" stroke="#606060" stroke-width="1.0"/>
   <path id="arrow"
     d="M 11.500037,31.436501 C 11.940474,20.09759 22.043105,11.32322 32.158766,21.979434 L 37.068811,17.246167 C 37.068811,17.246167 37.088388,32 37.088388,32 L 22.160133,31.978069 C 22.160133,31.978069 26.997745,27.140456 26.997745,27.140456 C 18.528582,18.264221 13.291696,25.230495 11.500037,31.436501 z"
     style="fill:#404040;"/>
  </a>
 </g>
</svg>

<style type='text/css'>
<![CDATA[
[data-mouse-over-selected='false'] { opacity: 0.7; }
[data-mouse-over-selected='true']  { opacity: 1.0; }
]]>
</style>
<script type="application/ecmascript"><![CDATA[
document.addEventListener('DOMContentLoaded', (event) => {
  highlightEdges();
  highlightAdjacentNodes();
});
]]></script>
</svg>
