<?xml version="1.0" encoding="UTF-8" standalone="no"?>
<!DOCTYPE svg PUBLIC "-//W3C//DTD SVG 1.1//EN"
 "http://www.w3.org/Graphics/SVG/1.1/DTD/svg11.dtd">
<!-- Generated by graphviz version 14.1.2 (20260124.0452)
 -->
<!-- Title: RelayService::readRelayTime Pages: 1 -->
<svg width="598pt" height="66pt"
 viewBox="0.00 0.00 598.00 66.00" xmlns="http://www.w3.org/2000/svg" xmlns:xlink="http://www.w3.org/1999/xlink">
<g id="graph0" class="graph" transform="scale(1 1) rotate(0) translate(4 62)">
<title>RelayService::readRelayTime</title>
<!-- Node1 -->
<g id="Node000001" class="node">
<title>Node1</title>
<g id="a_Node000001"><a xlink:title="Send DATE read command and decode ASN.1 response.">
<polygon fill="#999999" stroke="#666666" points="146.5,-39 0,-39 0,-19 146.5,-19 146.5,-39"/>
<text xml:space="preserve" text-anchor="middle" x="73.25" y="-25.5" font-family="Helvetica,sans-Serif" font-size="10.00">RelayService::readRelayTime</text>
</a>
</g>
</g>
<!-- Node2 -->
<g id="Node000002" class="node">
<title>Node2</title>
<g id="a_Node000002"><a xlink:href="class_relay_service.html#a6b06198b016666d16149811b42116ece" target="_top" xlink:title="Strip Telnet echo/prompts from raw response, return trimmed datetime.">
<polygon fill="white" stroke="#666666" points="330.5,-58 182.5,-58 182.5,-38 330.5,-38 330.5,-58"/>
<text xml:space="preserve" text-anchor="middle" x="256.5" y="-44.5" font-family="Helvetica,sans-Serif" font-size="10.00">RelayService::cleanRelayText</text>
</a>
</g>
</g>
<!-- Node1&#45;&gt;Node2 -->
<g id="edge1_Node000001_Node000002" class="edge">
<title>Node1&#45;&gt;Node2</title>
<g id="a_edge1_Node000001_Node000002"><a xlink:title=" ">
<path fill="none" stroke="#63b8ff" d="M146.93,-36.62C154.83,-37.45 162.91,-38.29 170.94,-39.14"/>
<polygon fill="#63b8ff" stroke="#63b8ff" points="170.4,-42.6 180.71,-40.16 171.13,-35.64 170.4,-42.6"/>
</a>
</g>
</g>
<!-- Node3 -->
<g id="Node000003" class="node">
<title>Node3</title>
<g id="a_Node000003"><a xlink:href="namespaceasn__date.html#a62faa5915f9a06dc675236af0c576d8e" target="_top" xlink:title="Decode an ASN.1 BER TLV payload with Tag 33 to a datetime string.">
<polygon fill="white" stroke="#666666" points="326.75,-20 186.25,-20 186.25,0 326.75,0 326.75,-20"/>
<text xml:space="preserve" text-anchor="middle" x="256.5" y="-6.5" font-family="Helvetica,sans-Serif" font-size="10.00">asn_date::decodeASN1Date</text>
</a>
</g>
</g>
<!-- Node1&#45;&gt;Node3 -->
<g id="edge2_Node000001_Node000003" class="edge">
<title>Node1&#45;&gt;Node3</title>
<g id="a_edge2_Node000001_Node000003"><a xlink:title=" ">
<path fill="none" stroke="#63b8ff" d="M146.93,-21.38C156.03,-20.43 165.38,-19.45 174.6,-18.48"/>
<polygon fill="#63b8ff" stroke="#63b8ff" points="174.67,-21.99 184.25,-17.47 173.94,-15.03 174.67,-21.99"/>
</a>
</g>
</g>
<!-- Node4 -->
<g id="Node000004" class="node">
<title>Node4</title>
<g id="a_Node000004"><a xlink:href="namespaceasn__tlv.html#ac435b195a3c3b9168277f982e3106625" target="_top" xlink:title="Read and parse a complete TLV structure.">
<polygon fill="white" stroke="#666666" points="452.25,-20 366.5,-20 366.5,0 452.25,0 452.25,-20"/>
<text xml:space="preserve" text-anchor="middle" x="409.38" y="-6.5" font-family="Helvetica,sans-Serif" font-size="10.00">asn_tlv::readTlv</text>
</a>
</g>
</g>
<!-- Node3&#45;&gt;Node4 -->
<g id="edge3_Node000003_Node000004" class="edge">
<title>Node3&#45;&gt;Node4</title>
<g id="a_edge3_Node000003_Node000004"><a xlink:title=" ">
<path fill="none" stroke="#63b8ff" d="M327.2,-10C336.43,-10 345.78,-10 354.69,-10"/>
<polygon fill="#63b8ff" stroke="#63b8ff" points="354.58,-13.5 364.58,-10 354.58,-6.5 354.58,-13.5"/>
</a>
</g>
</g>
<!-- Node5 -->
<g id="Node000005" class="node">
<title>Node5</title>
<g id="a_Node000005"><a xlink:href="namespaceasn__tlv.html#a0aa61313e632a78a5d1d27c80536e420" target="_top" xlink:title="Read BER length encoding from a buffer.">
<polygon fill="white" stroke="#666666" points="589.75,-20 488.25,-20 488.25,0 589.75,0 589.75,-20"/>
<text xml:space="preserve" text-anchor="middle" x="539" y="-6.5" font-family="Helvetica,sans-Serif" font-size="10.00">asn_tlv::readLength</text>
</a>
</g>
</g>
<!-- Node4&#45;&gt;Node5 -->
<g id="edge4_Node000004_Node000005" class="edge">
<title>Node4&#45;&gt;Node5</title>
<g id="a_edge4_Node000004_Node000005"><a xlink:title=" ">
<path fill="none" stroke="#63b8ff" d="M452.52,-10C460.22,-10 468.39,-10 476.52,-10"/>
<polygon fill="#63b8ff" stroke="#63b8ff" points="476.4,-13.5 486.4,-10 476.4,-6.5 476.4,-13.5"/>
</a>
</g>
</g>
</g>
</svg>
