<?xml version="1.0" encoding="UTF-8" standalone="no"?>
<!DOCTYPE svg PUBLIC "-//W3C//DTD SVG 1.1//EN"
 "http://www.w3.org/Graphics/SVG/1.1/DTD/svg11.dtd">
<!-- Generated by graphviz version 14.1.2 (20260124.0452)
 -->
<!-- Title: TimeSyncManager::compareTime Pages: 1 -->
<svg width="580pt" height="28pt"
 viewBox="0.00 0.00 580.00 28.00" xmlns="http://www.w3.org/2000/svg" xmlns:xlink="http://www.w3.org/1999/xlink">
<g id="graph0" class="graph" transform="scale(1 1) rotate(0) translate(4 24)">
<title>TimeSyncManager::compareTime</title>
<!-- Node1 -->
<g id="Node000001" class="node">
<title>Node1</title>
<g id="a_Node000001"><a xlink:title="Compare relay time and PC time.">
<polygon fill="#999999" stroke="#666666" points="572.25,-20 409.25,-20 409.25,0 572.25,0 572.25,-20"/>
<text xml:space="preserve" text-anchor="middle" x="490.75" y="-6.5" font-family="Helvetica,sans-Serif" font-size="10.00">TimeSyncManager::compareTime</text>
</a>
</g>
</g>
<!-- Node2 -->
<g id="Node000002" class="node">
<title>Node2</title>
<g id="a_Node000002"><a xlink:href="class_time_sync_manager.html#a6d7aefdf9577ff2f38b502ddbe603d66" target="_top" xlink:title=" ">
<polygon fill="white" stroke="#666666" points="373.25,-20 196,-20 196,0 373.25,0 373.25,-20"/>
<text xml:space="preserve" text-anchor="middle" x="284.62" y="-6.5" font-family="Helvetica,sans-Serif" font-size="10.00">TimeSyncManager::handleReadTime</text>
</a>
</g>
</g>
<!-- Node1&#45;&gt;Node2 -->
<g id="edge1_Node000001_Node000002" class="edge">
<title>Node1&#45;&gt;Node2</title>
<g id="a_edge1_Node000001_Node000002"><a xlink:title=" ">
<path fill="none" stroke="#63b8ff" d="M397.29,-10C389.39,-10 381.41,-10 373.55,-10"/>
<polygon fill="#63b8ff" stroke="#63b8ff" points="397.27,-13.5 407.27,-10 397.27,-6.5 397.27,-13.5"/>
</a>
</g>
</g>
<!-- Node3 -->
<g id="Node000003" class="node">
<title>Node3</title>
<g id="a_Node000003"><a xlink:href="class_time_sync_manager.html#ab7e1061ae8a4a1bae60ed0411ff4b825" target="_top" xlink:title="Process a JSON action string from WebSocket and return a JSON response.">
<polygon fill="white" stroke="#666666" points="160,-20 0,-20 0,0 160,0 160,-20"/>
<text xml:space="preserve" text-anchor="middle" x="80" y="-6.5" font-family="Helvetica,sans-Serif" font-size="10.00">TimeSyncManager::handleAction</text>
</a>
</g>
</g>
<!-- Node2&#45;&gt;Node3 -->
<g id="edge2_Node000002_Node000003" class="edge">
<title>Node2&#45;&gt;Node3</title>
<g id="a_edge2_Node000002_Node000003"><a xlink:title=" ">
<path fill="none" stroke="#63b8ff" d="M184.29,-10C176.25,-10 168.18,-10 160.31,-10"/>
<polygon fill="#63b8ff" stroke="#63b8ff" points="184.12,-13.5 194.12,-10 184.12,-6.5 184.12,-13.5"/>
</a>
</g>
</g>
</g>
</svg>
