<?xml version="1.0" encoding="UTF-8" standalone="no"?>
<!DOCTYPE svg PUBLIC "-//W3C//DTD SVG 1.1//EN"
 "http://www.w3.org/Graphics/SVG/1.1/DTD/svg11.dtd">
<!-- Generated by graphviz version 14.1.2 (20260124.0452)
 -->
<!-- Title: TimeSyncManager::parseToTimePoint Pages: 1 -->
<svg width="755pt" height="40pt"
 viewBox="0.00 0.00 755.00 40.00" xmlns="http://www.w3.org/2000/svg" xmlns:xlink="http://www.w3.org/1999/xlink">
<g id="graph0" class="graph" transform="scale(1 1) rotate(0) translate(4 36)">
<title>TimeSyncManager::parseToTimePoint</title>
<!-- Node1 -->
<g id="Node000001" class="node">
<title>Node1</title>
<g id="a_Node000001"><a xlink:title="Parse &quot;YYYY&#45;MM&#45;DD HH:MM:SS&quot; to system_clock::time_point.">
<polygon fill="#999999" stroke="#666666" points="746.5,-32 608.25,-32 608.25,0 746.5,0 746.5,-32"/>
<text xml:space="preserve" text-anchor="start" x="616.25" y="-18.5" font-family="Helvetica,sans-Serif" font-size="10.00">TimeSyncManager::parseTo</text>
<text xml:space="preserve" text-anchor="middle" x="677.38" y="-6.5" font-family="Helvetica,sans-Serif" font-size="10.00">TimePoint</text>
</a>
</g>
</g>
<!-- Node2 -->
<g id="Node000002" class="node">
<title>Node2</title>
<g id="a_Node000002"><a xlink:href="class_time_sync_manager.html#a2b382a0cca1fcf4d52890ccaac8c2a0f" target="_top" xlink:title="Compare relay time and PC time.">
<polygon fill="white" stroke="#666666" points="572.25,-26 409.25,-26 409.25,-6 572.25,-6 572.25,-26"/>
<text xml:space="preserve" text-anchor="middle" x="490.75" y="-12.5" font-family="Helvetica,sans-Serif" font-size="10.00">TimeSyncManager::compareTime</text>
</a>
</g>
</g>
<!-- Node1&#45;&gt;Node2 -->
<g id="edge1_Node000001_Node000002" class="edge">
<title>Node1&#45;&gt;Node2</title>
<g id="a_edge1_Node000001_Node000002"><a xlink:title=" ">
<path fill="none" stroke="#63b8ff" d="M596.43,-16C588.53,-16 580.51,-16 572.6,-16"/>
<polygon fill="#63b8ff" stroke="#63b8ff" points="596.38,-19.5 606.38,-16 596.38,-12.5 596.38,-19.5"/>
</a>
</g>
</g>
<!-- Node3 -->
<g id="Node000003" class="node">
<title>Node3</title>
<g id="a_Node000003"><a xlink:href="class_time_sync_manager.html#a6d7aefdf9577ff2f38b502ddbe603d66" target="_top" xlink:title=" ">
<polygon fill="white" stroke="#666666" points="373.25,-26 196,-26 196,-6 373.25,-6 373.25,-26"/>
<text xml:space="preserve" text-anchor="middle" x="284.62" y="-12.5" font-family="Helvetica,sans-Serif" font-size="10.00">TimeSyncManager::handleReadTime</text>
</a>
</g>
</g>
<!-- Node2&#45;&gt;Node3 -->
<g id="edge2_Node000002_Node000003" class="edge">
<title>Node2&#45;&gt;Node3</title>
<g id="a_edge2_Node000002_Node000003"><a xlink:title=" ">
<path fill="none" stroke="#63b8ff" d="M397.29,-16C389.39,-16 381.41,-16 373.55,-16"/>
<polygon fill="#63b8ff" stroke="#63b8ff" points="397.27,-19.5 407.27,-16 397.27,-12.5 397.27,-19.5"/>
</a>
</g>
</g>
<!-- Node4 -->
<g id="Node000004" class="node">
<title>Node4</title>
<g id="a_Node000004"><a xlink:href="class_time_sync_manager.html#ab7e1061ae8a4a1bae60ed0411ff4b825" target="_top" xlink:title="Process a JSON action string from WebSocket and return a JSON response.">
<polygon fill="white" stroke="#666666" points="160,-26 0,-26 0,-6 160,-6 160,-26"/>
<text xml:space="preserve" text-anchor="middle" x="80" y="-12.5" font-family="Helvetica,sans-Serif" font-size="10.00">TimeSyncManager::handleAction</text>
</a>
</g>
</g>
<!-- Node3&#45;&gt;Node4 -->
<g id="edge3_Node000003_Node000004" class="edge">
<title>Node3&#45;&gt;Node4</title>
<g id="a_edge3_Node000003_Node000004"><a xlink:title=" ">
<path fill="none" stroke="#63b8ff" d="M184.29,-16C176.25,-16 168.18,-16 160.31,-16"/>
<polygon fill="#63b8ff" stroke="#63b8ff" points="184.12,-19.5 194.12,-16 184.12,-12.5 184.12,-19.5"/>
</a>
</g>
</g>
</g>
</svg>
