<?xml version="1.0" encoding="UTF-8" standalone="no"?>
<!DOCTYPE svg PUBLIC "-//W3C//DTD SVG 1.1//EN"
 "http://www.w3.org/Graphics/SVG/1.1/DTD/svg11.dtd">
<!-- Generated by graphviz version 14.1.2 (20260124.0452)
 -->
<!-- Title: WebSocketSession::on_read Pages: 1 -->
<svg width="1001pt" height="181pt"
 viewBox="0.00 0.00 1001.00 181.00" xmlns="http://www.w3.org/2000/svg" xmlns:xlink="http://www.w3.org/1999/xlink">
<g id="graph0" class="graph" transform="scale(1 1) rotate(0) translate(4 177)">
<title>WebSocketSession::on_read</title>
<!-- Node1 -->
<g id="Node000001" class="node">
<title>Node1</title>
<g id="a_Node000001"><a xlink:title="Handle received client message.">
<polygon fill="#999999" stroke="#666666" points="142,-120 0,-120 0,-100 142,-100 142,-120"/>
<text xml:space="preserve" text-anchor="middle" x="71" y="-106.5" font-family="Helvetica,sans-Serif" font-size="10.00">WebSocketSession::on_read</text>
</a>
</g>
</g>
<!-- Node2 -->
<g id="Node000002" class="node">
<title>Node2</title>
<g id="a_Node000002"><a xlink:href="class_web_socket_session.html#a2bc079950c2e39e8ff745f0da57646ba" target="_top" xlink:title="Initiate async read for next client message.">
<polygon fill="white" stroke="#666666" points="678.25,-173 536.25,-173 536.25,-153 678.25,-153 678.25,-173"/>
<text xml:space="preserve" text-anchor="middle" x="607.25" y="-159.5" font-family="Helvetica,sans-Serif" font-size="10.00">WebSocketSession::do_read</text>
</a>
</g>
</g>
<!-- Node1&#45;&gt;Node2 -->
<g id="edge1_Node000001_Node000002" class="edge">
<title>Node1&#45;&gt;Node2</title>
<g id="a_edge1_Node000001_Node000002"><a xlink:title=" ">
<path fill="none" stroke="#63b8ff" d="M142.39,-119.45C154.21,-121.91 166.41,-124.27 178,-126 297.71,-143.9 437.95,-150.36 524.45,-154.99"/>
<polygon fill="#63b8ff" stroke="#63b8ff" points="524.08,-158.47 534.26,-155.52 524.46,-151.48 524.08,-158.47"/>
</a>
</g>
</g>
<!-- Node3 -->
<g id="Node000003" class="node">
<title>Node3</title>
<g id="a_Node000003"><a xlink:href="class_web_socket_session.html#a43bf9b3aa8c9ed23d031c7ae8059da22" target="_top" xlink:title="Extract the &quot;action&quot; value from a simple JSON object.">
<polygon fill="white" stroke="#666666" points="321.5,-126 184,-126 184,-94 321.5,-94 321.5,-126"/>
<text xml:space="preserve" text-anchor="start" x="192" y="-112.5" font-family="Helvetica,sans-Serif" font-size="10.00">WebSocketSession::extract</text>
<text xml:space="preserve" text-anchor="middle" x="252.75" y="-100.5" font-family="Helvetica,sans-Serif" font-size="10.00">Action</text>
</a>
</g>
</g>
<!-- Node1&#45;&gt;Node3 -->
<g id="edge3_Node000001_Node000003" class="edge">
<title>Node1&#45;&gt;Node3</title>
<g id="a_edge3_Node000001_Node000003"><a xlink:title=" ">
<path fill="none" stroke="#63b8ff" d="M142.27,-110C152.14,-110 162.35,-110 172.37,-110"/>
<polygon fill="#63b8ff" stroke="#63b8ff" points="172.08,-113.5 182.08,-110 172.08,-106.5 172.08,-113.5"/>
</a>
</g>
</g>
<!-- Node4 -->
<g id="Node000004" class="node">
<title>Node4</title>
<g id="a_Node000004"><a xlink:href="class_web_socket_session.html#a606e227b631d765ac0191c0535df607f" target="_top" xlink:title="Check if a message is a JSON action (contains &quot;action&quot; key).">
<polygon fill="white" stroke="#666666" points="320.75,-76 184.75,-76 184.75,-44 320.75,-44 320.75,-76"/>
<text xml:space="preserve" text-anchor="start" x="192.75" y="-62.5" font-family="Helvetica,sans-Serif" font-size="10.00">WebSocketSession::isJson</text>
<text xml:space="preserve" text-anchor="middle" x="252.75" y="-50.5" font-family="Helvetica,sans-Serif" font-size="10.00">Action</text>
</a>
</g>
</g>
<!-- Node1&#45;&gt;Node4 -->
<g id="edge4_Node000001_Node000004" class="edge">
<title>Node1&#45;&gt;Node4</title>
<g id="a_edge4_Node000001_Node000004"><a xlink:title=" ">
<path fill="none" stroke="#63b8ff" d="M109.68,-99.52C130.48,-93.73 156.99,-86.36 181.46,-79.55"/>
<polygon fill="#63b8ff" stroke="#63b8ff" points="182.38,-82.93 191.08,-76.88 180.51,-76.18 182.38,-82.93"/>
</a>
</g>
</g>
<!-- Node5 -->
<g id="Node000005" class="node">
<title>Node5</title>
<g id="a_Node000005"><a xlink:href="class_web_socket_session.html#a2529887f34770366fc2c225bd085edba" target="_top" xlink:title="Send current database records to client as JSON.">
<polygon fill="white" stroke="#666666" points="327.5,-26 178,-26 178,-6 327.5,-6 327.5,-26"/>
<text xml:space="preserve" text-anchor="middle" x="252.75" y="-12.5" font-family="Helvetica,sans-Serif" font-size="10.00">WebSocketSession::sendData</text>
</a>
</g>
</g>
<!-- Node1&#45;&gt;Node5 -->
<g id="edge5_Node000001_Node000005" class="edge">
<title>Node1&#45;&gt;Node5</title>
<g id="a_edge5_Node000001_Node000005"><a xlink:title=" ">
<path fill="none" stroke="#63b8ff" d="M83.51,-99.68C102.07,-83.56 140.37,-52.44 178,-35 181.94,-33.18 186.08,-31.51 190.3,-29.98"/>
<polygon fill="#63b8ff" stroke="#63b8ff" points="191.07,-33.42 199.47,-26.97 188.88,-26.77 191.07,-33.42"/>
</a>
</g>
</g>
<!-- Node2&#45;&gt;Node1 -->
<g id="edge2_Node000002_Node000001" class="edge">
<title>Node2&#45;&gt;Node1</title>
<g id="a_edge2_Node000002_Node000001"><a xlink:title=" ">
<path fill="none" stroke="#63b8ff" d="M535.77,-168.35C450.58,-168.92 303.09,-162.71 178,-144 150.23,-139.85 119.01,-132.1 97.69,-124.57"/>
<polygon fill="#63b8ff" stroke="#63b8ff" points="98.95,-121.3 88.36,-120.98 96.43,-127.84 98.95,-121.3"/>
</a>
</g>
</g>
<!-- Node6 -->
<g id="Node000006" class="node">
<title>Node6</title>
<g id="a_Node000006"><a xlink:href="namespaceasn__tlv.html#a03c61eaf7c30d4bb4e8f50d6cd2f5f03" target="_top" xlink:title="Encode SER records to ASN.1 BER/TLV format.">
<polygon fill="white" stroke="#666666" points="500.25,-32 363.5,-32 363.5,0 500.25,0 500.25,-32"/>
<text xml:space="preserve" text-anchor="start" x="371.5" y="-18.5" font-family="Helvetica,sans-Serif" font-size="10.00">asn_tlv::encodeSerRecords</text>
<text xml:space="preserve" text-anchor="middle" x="431.88" y="-6.5" font-family="Helvetica,sans-Serif" font-size="10.00">ToTlv</text>
</a>
</g>
</g>
<!-- Node5&#45;&gt;Node6 -->
<g id="edge6_Node000005_Node000006" class="edge">
<title>Node5&#45;&gt;Node6</title>
<g id="a_edge6_Node000005_Node000006"><a xlink:title=" ">
<path fill="none" stroke="#63b8ff" d="M327.84,-16C335.67,-16 343.66,-16 351.55,-16"/>
<polygon fill="#63b8ff" stroke="#63b8ff" points="351.5,-19.5 361.5,-16 351.5,-12.5 351.5,-19.5"/>
</a>
</g>
</g>
<!-- Node10 -->
<g id="Node000010" class="node">
<title>Node10</title>
<g id="a_Node000010"><a xlink:href="class_web_socket_session.html#a0fed81151d5dcbe23dbee79f1bf12c66" target="_top" xlink:title="Handle write completion.">
<polygon fill="white" stroke="#666666" points="490.88,-104 372.88,-104 372.88,-72 490.88,-72 490.88,-104"/>
<text xml:space="preserve" text-anchor="start" x="380.88" y="-90.5" font-family="Helvetica,sans-Serif" font-size="10.00">WebSocketSession::on</text>
<text xml:space="preserve" text-anchor="middle" x="431.88" y="-78.5" font-family="Helvetica,sans-Serif" font-size="10.00">_write</text>
</a>
</g>
</g>
<!-- Node5&#45;&gt;Node10 -->
<g id="edge11_Node000005_Node000010" class="edge">
<title>Node5&#45;&gt;Node10</title>
<g id="a_edge11_Node000005_Node000010"><a xlink:title=" ">
<path fill="none" stroke="#63b8ff" d="M300.66,-26.42C309.68,-28.89 318.97,-31.76 327.5,-35 350.03,-43.56 374.06,-55.68 393.27,-66.17"/>
<polygon fill="#63b8ff" stroke="#63b8ff" points="391.36,-69.11 401.81,-70.9 394.76,-62.99 391.36,-69.11"/>
</a>
</g>
</g>
<!-- Node7 -->
<g id="Node000007" class="node">
<title>Node7</title>
<g id="a_Node000007"><a xlink:href="namespaceasn__tlv.html#a0cc9af3d4e8aba5f164c66bb47750767" target="_top" xlink:title="Append a string as a TLV structure.">
<polygon fill="white" stroke="#666666" points="670,-45 544.5,-45 544.5,-25 670,-25 670,-45"/>
<text xml:space="preserve" text-anchor="middle" x="607.25" y="-31.5" font-family="Helvetica,sans-Serif" font-size="10.00">asn_tlv::berAppendString</text>
</a>
</g>
</g>
<!-- Node6&#45;&gt;Node7 -->
<g id="edge7_Node000006_Node000007" class="edge">
<title>Node6&#45;&gt;Node7</title>
<g id="a_edge7_Node000006_Node000007"><a xlink:title=" ">
<path fill="none" stroke="#63b8ff" d="M500.4,-23.4C510.95,-24.56 521.89,-25.75 532.56,-26.92"/>
<polygon fill="#63b8ff" stroke="#63b8ff" points="532.18,-30.4 542.5,-28.01 532.94,-23.45 532.18,-30.4"/>
</a>
</g>
</g>
<!-- Node8 -->
<g id="Node000008" class="node">
<title>Node8</title>
<g id="a_Node000008"><a xlink:href="namespaceasn__tlv.html#a4a9f3333d71c851f9002020ffd417b18" target="_top" xlink:title="Append a complete TLV structure to an output buffer.">
<polygon fill="white" stroke="#666666" points="827.75,-26 714.25,-26 714.25,-6 827.75,-6 827.75,-26"/>
<text xml:space="preserve" text-anchor="middle" x="771" y="-12.5" font-family="Helvetica,sans-Serif" font-size="10.00">asn_tlv::berAppendTlv</text>
</a>
</g>
</g>
<!-- Node6&#45;&gt;Node8 -->
<g id="edge10_Node000006_Node000008" class="edge">
<title>Node6&#45;&gt;Node8</title>
<g id="a_edge10_Node000006_Node000008"><a xlink:title=" ">
<path fill="none" stroke="#63b8ff" d="M500.69,-16C559.46,-16 644.02,-16 702.65,-16"/>
<polygon fill="#63b8ff" stroke="#63b8ff" points="702.5,-19.5 712.5,-16 702.5,-12.5 702.5,-19.5"/>
</a>
</g>
</g>
<!-- Node7&#45;&gt;Node8 -->
<g id="edge8_Node000007_Node000008" class="edge">
<title>Node7&#45;&gt;Node8</title>
<g id="a_edge8_Node000007_Node000008"><a xlink:title=" ">
<path fill="none" stroke="#63b8ff" d="M670.32,-27.71C680.86,-26.47 691.84,-25.18 702.51,-23.93"/>
<polygon fill="#63b8ff" stroke="#63b8ff" points="702.89,-27.41 712.41,-22.76 702.07,-20.45 702.89,-27.41"/>
</a>
</g>
</g>
<!-- Node9 -->
<g id="Node000009" class="node">
<title>Node9</title>
<g id="a_Node000009"><a xlink:href="namespaceasn__tlv.html#af1ae5498c52c5e99d18f2cd5cb4f2609" target="_top" xlink:title="Append BER length encoding to an output buffer.">
<polygon fill="white" stroke="#666666" points="993,-26 863.75,-26 863.75,-6 993,-6 993,-26"/>
<text xml:space="preserve" text-anchor="middle" x="928.38" y="-12.5" font-family="Helvetica,sans-Serif" font-size="10.00">asn_tlv::berAppendLength</text>
</a>
</g>
</g>
<!-- Node8&#45;&gt;Node9 -->
<g id="edge9_Node000008_Node000009" class="edge">
<title>Node8&#45;&gt;Node9</title>
<g id="a_edge9_Node000008_Node000009"><a xlink:title=" ">
<path fill="none" stroke="#63b8ff" d="M828.09,-16C835.89,-16 844.01,-16 852.09,-16"/>
<polygon fill="#63b8ff" stroke="#63b8ff" points="851.94,-19.5 861.94,-16 851.94,-12.5 851.94,-19.5"/>
</a>
</g>
</g>
<!-- Node10&#45;&gt;Node2 -->
<g id="edge12_Node000010_Node000002" class="edge">
<title>Node10&#45;&gt;Node2</title>
<g id="a_edge12_Node000010_Node000002"><a xlink:title=" ">
<path fill="none" stroke="#63b8ff" d="M470.92,-104.46C500.97,-117.46 542.56,-135.45 571.67,-148.04"/>
<polygon fill="#63b8ff" stroke="#63b8ff" points="570.21,-151.22 580.78,-151.98 572.99,-144.8 570.21,-151.22"/>
</a>
</g>
</g>
</g>
</svg>
