<?xml version="1.0" encoding="UTF-8" standalone="no"?>
<!DOCTYPE svg PUBLIC "-//W3C//DTD SVG 1.1//EN"
 "http://www.w3.org/Graphics/SVG/1.1/DTD/svg11.dtd">
<!-- Generated by graphviz version 14.1.1 (20251213.1925)
 -->
<!-- Title: WebSocketSession::sendTextResponse Pages: 1 -->
<svg width="1515pt" height="198pt"
 viewBox="0.00 0.00 1515.00 198.00" xmlns="http://www.w3.org/2000/svg" xmlns:xlink="http://www.w3.org/1999/xlink">
<g id="graph0" class="graph" transform="scale(1 1) rotate(0) translate(4 193.87)">
<title>WebSocketSession::sendTextResponse</title>
<!-- Node1 -->
<g id="Node000001" class="node">
<title>Node1</title>
<g id="a_Node000001"><a xlink:title="Send a plain text response to this client (for FIL DIR etc.).">
<polygon fill="#999999" stroke="#666666" points="147.25,-57.87 0,-57.87 0,-25.87 147.25,-25.87 147.25,-57.87"/>
<text xml:space="preserve" text-anchor="start" x="8" y="-44.37" font-family="Helvetica,sans-Serif" font-size="10.00">WebSocketSession::sendText</text>
<text xml:space="preserve" text-anchor="middle" x="73.62" y="-32.37" font-family="Helvetica,sans-Serif" font-size="10.00">Response</text>
</a>
</g>
</g>
<!-- Node2 -->
<g id="Node000002" class="node">
<title>Node2</title>
<g id="a_Node000002"><a xlink:href="class_web_socket_session.html#a0fed81151d5dcbe23dbee79f1bf12c66" target="_top" xlink:title="Handle write completion.">
<polygon fill="white" stroke="#666666" points="301.25,-57.87 183.25,-57.87 183.25,-25.87 301.25,-25.87 301.25,-57.87"/>
<text xml:space="preserve" text-anchor="start" x="191.25" y="-44.37" font-family="Helvetica,sans-Serif" font-size="10.00">WebSocketSession::on</text>
<text xml:space="preserve" text-anchor="middle" x="242.25" y="-32.37" font-family="Helvetica,sans-Serif" font-size="10.00">_write</text>
</a>
</g>
</g>
<!-- Node1&#45;&gt;Node2 -->
<g id="edge1_Node000001_Node000002" class="edge">
<title>Node1&#45;&gt;Node2</title>
<g id="a_edge1_Node000001_Node000002"><a xlink:title=" ">
<path fill="none" stroke="#63b8ff" d="M147.71,-41.87C155.64,-41.87 163.7,-41.87 171.59,-41.87"/>
<polygon fill="#63b8ff" stroke="#63b8ff" points="171.48,-45.37 181.48,-41.87 171.48,-38.37 171.48,-45.37"/>
</a>
</g>
</g>
<!-- Node3 -->
<g id="Node000003" class="node">
<title>Node3</title>
<g id="a_Node000003"><a xlink:href="class_web_socket_session.html#a2bc079950c2e39e8ff745f0da57646ba" target="_top" xlink:title="Initiate async read for next client message.">
<polygon fill="white" stroke="#666666" points="486.75,-133.87 344.75,-133.87 344.75,-113.87 486.75,-113.87 486.75,-133.87"/>
<text xml:space="preserve" text-anchor="middle" x="415.75" y="-120.37" font-family="Helvetica,sans-Serif" font-size="10.00">WebSocketSession::do_read</text>
</a>
</g>
</g>
<!-- Node2&#45;&gt;Node3 -->
<g id="edge2_Node000002_Node000003" class="edge">
<title>Node2&#45;&gt;Node3</title>
<g id="a_edge2_Node000002_Node000003"><a xlink:title=" ">
<path fill="none" stroke="#63b8ff" d="M277.54,-58.27C308.19,-72.92 352.75,-94.22 382.69,-108.54"/>
<polygon fill="#63b8ff" stroke="#63b8ff" points="381.11,-111.67 391.64,-112.82 384.13,-105.35 381.11,-111.67"/>
</a>
</g>
</g>
<!-- Node12 -->
<g id="Node000012" class="node">
<title>Node12</title>
<g id="a_Node000012"><a xlink:href="class_web_socket_session.html#a124943db6c094918e372c94bfb7ec533" target="_top" xlink:title="Send the next queued message (if any).">
<polygon fill="white" stroke="#666666" points="494.25,-51.87 337.25,-51.87 337.25,-31.87 494.25,-31.87 494.25,-51.87"/>
<text xml:space="preserve" text-anchor="middle" x="415.75" y="-38.37" font-family="Helvetica,sans-Serif" font-size="10.00">WebSocketSession::drainQueue</text>
</a>
</g>
</g>
<!-- Node2&#45;&gt;Node12 -->
<g id="edge14_Node000002_Node000012" class="edge">
<title>Node2&#45;&gt;Node12</title>
<g id="a_edge14_Node000002_Node000012"><a xlink:title=" ">
<path fill="none" stroke="#63b8ff" d="M301.31,-41.87C309.2,-41.87 317.43,-41.87 325.7,-41.87"/>
<polygon fill="#63b8ff" stroke="#63b8ff" points="325.47,-45.37 335.47,-41.87 325.47,-38.37 325.47,-45.37"/>
</a>
</g>
</g>
<!-- Node4 -->
<g id="Node000004" class="node">
<title>Node4</title>
<g id="a_Node000004"><a xlink:href="class_web_socket_session.html#a6c0557f87f9f6050a8848237ace942bb" target="_top" xlink:title="Handle received client message.">
<polygon fill="white" stroke="#666666" points="672.25,-133.87 530.25,-133.87 530.25,-113.87 672.25,-113.87 672.25,-133.87"/>
<text xml:space="preserve" text-anchor="middle" x="601.25" y="-120.37" font-family="Helvetica,sans-Serif" font-size="10.00">WebSocketSession::on_read</text>
</a>
</g>
</g>
<!-- Node3&#45;&gt;Node4 -->
<g id="edge3_Node000003_Node000004" class="edge">
<title>Node3&#45;&gt;Node4</title>
<g id="a_edge3_Node000003_Node000004"><a xlink:title=" ">
<path fill="none" stroke="#63b8ff" d="M487.17,-117.29C497.49,-117.12 508.19,-117.08 518.7,-117.16"/>
<polygon fill="#63b8ff" stroke="#63b8ff" points="518.46,-120.65 528.5,-117.27 518.54,-113.66 518.46,-120.65"/>
</a>
</g>
</g>
<!-- Node4&#45;&gt;Node3 -->
<g id="edge4_Node000004_Node000003" class="edge">
<title>Node4&#45;&gt;Node3</title>
<g id="a_edge4_Node000004_Node000003"><a xlink:title=" ">
<path fill="none" stroke="#63b8ff" d="M530.02,-130.45C519.7,-130.62 509.01,-130.66 498.49,-130.58"/>
<polygon fill="#63b8ff" stroke="#63b8ff" points="498.72,-127.09 488.68,-130.47 498.64,-134.09 498.72,-127.09"/>
</a>
</g>
</g>
<!-- Node5 -->
<g id="Node000005" class="node">
<title>Node5</title>
<g id="a_Node000005"><a xlink:href="class_web_socket_session.html#a43bf9b3aa8c9ed23d031c7ae8059da22" target="_top" xlink:title="Extract the &quot;action&quot; value from a simple JSON object.">
<polygon fill="white" stroke="#666666" points="851.75,-189.87 714.25,-189.87 714.25,-157.87 851.75,-157.87 851.75,-189.87"/>
<text xml:space="preserve" text-anchor="start" x="722.25" y="-176.37" font-family="Helvetica,sans-Serif" font-size="10.00">WebSocketSession::extract</text>
<text xml:space="preserve" text-anchor="middle" x="783" y="-164.37" font-family="Helvetica,sans-Serif" font-size="10.00">Action</text>
</a>
</g>
</g>
<!-- Node4&#45;&gt;Node5 -->
<g id="edge5_Node000004_Node000005" class="edge">
<title>Node4&#45;&gt;Node5</title>
<g id="a_edge5_Node000004_Node000005"><a xlink:title=" ">
<path fill="none" stroke="#63b8ff" d="M639.93,-134.35C660.73,-140.14 687.24,-147.51 711.71,-154.32"/>
<polygon fill="#63b8ff" stroke="#63b8ff" points="710.76,-157.69 721.33,-156.99 712.63,-150.94 710.76,-157.69"/>
</a>
</g>
</g>
<!-- Node6 -->
<g id="Node000006" class="node">
<title>Node6</title>
<g id="a_Node000006"><a xlink:href="class_web_socket_session.html#a606e227b631d765ac0191c0535df607f" target="_top" xlink:title="Check if a message is a JSON action (contains &quot;action&quot; key).">
<polygon fill="white" stroke="#666666" points="851,-139.87 715,-139.87 715,-107.87 851,-107.87 851,-139.87"/>
<text xml:space="preserve" text-anchor="start" x="723" y="-126.37" font-family="Helvetica,sans-Serif" font-size="10.00">WebSocketSession::isJson</text>
<text xml:space="preserve" text-anchor="middle" x="783" y="-114.37" font-family="Helvetica,sans-Serif" font-size="10.00">Action</text>
</a>
</g>
</g>
<!-- Node4&#45;&gt;Node6 -->
<g id="edge6_Node000004_Node000006" class="edge">
<title>Node4&#45;&gt;Node6</title>
<g id="a_edge6_Node000004_Node000006"><a xlink:title=" ">
<path fill="none" stroke="#63b8ff" d="M672.52,-123.87C682.61,-123.87 693.04,-123.87 703.28,-123.87"/>
<polygon fill="#63b8ff" stroke="#63b8ff" points="703.21,-127.37 713.21,-123.87 703.21,-120.37 703.21,-127.37"/>
</a>
</g>
</g>
<!-- Node7 -->
<g id="Node000007" class="node">
<title>Node7</title>
<g id="a_Node000007"><a xlink:href="class_web_socket_session.html#a2529887f34770366fc2c225bd085edba" target="_top" xlink:title="Send current database records to client as ASN.1 BER/TLV.">
<polygon fill="white" stroke="#666666" points="857.75,-89.87 708.25,-89.87 708.25,-69.87 857.75,-69.87 857.75,-89.87"/>
<text xml:space="preserve" text-anchor="middle" x="783" y="-76.37" font-family="Helvetica,sans-Serif" font-size="10.00">WebSocketSession::sendData</text>
</a>
</g>
</g>
<!-- Node4&#45;&gt;Node7 -->
<g id="edge7_Node000004_Node000007" class="edge">
<title>Node4&#45;&gt;Node7</title>
<g id="a_edge7_Node000004_Node000007"><a xlink:title=" ">
<path fill="none" stroke="#63b8ff" d="M644.85,-113.44C669.83,-107.33 701.62,-99.55 728.31,-93.01"/>
<polygon fill="#63b8ff" stroke="#63b8ff" points="729.05,-96.44 737.93,-90.66 727.38,-89.64 729.05,-96.44"/>
</a>
</g>
</g>
<!-- Node7&#45;&gt;Node2 -->
<g id="edge13_Node000007_Node000002" class="edge">
<title>Node7&#45;&gt;Node2</title>
<g id="a_edge13_Node000007_Node000002"><a xlink:title=" ">
<path fill="none" stroke="#63b8ff" d="M769.15,-69.45C749.63,-54.37 710.67,-27.11 672.25,-16.87 548.93,16.01 398.86,-6.22 312.85,-24.58"/>
<polygon fill="#63b8ff" stroke="#63b8ff" points="312.17,-21.15 303.14,-26.71 313.66,-27.99 312.17,-21.15"/>
</a>
</g>
</g>
<!-- Node8 -->
<g id="Node000008" class="node">
<title>Node8</title>
<g id="a_Node000008"><a xlink:href="namespaceasn__tlv.html#a03c61eaf7c30d4bb4e8f50d6cd2f5f03" target="_top" xlink:title="Encode SER records to ASN.1 BER/TLV format.">
<polygon fill="white" stroke="#666666" points="1030.5,-95.87 893.75,-95.87 893.75,-63.87 1030.5,-63.87 1030.5,-95.87"/>
<text xml:space="preserve" text-anchor="start" x="901.75" y="-82.37" font-family="Helvetica,sans-Serif" font-size="10.00">asn_tlv::encodeSerRecords</text>
<text xml:space="preserve" text-anchor="middle" x="962.12" y="-70.37" font-family="Helvetica,sans-Serif" font-size="10.00">ToTlv</text>
</a>
</g>
</g>
<!-- Node7&#45;&gt;Node8 -->
<g id="edge8_Node000007_Node000008" class="edge">
<title>Node7&#45;&gt;Node8</title>
<g id="a_edge8_Node000007_Node000008"><a xlink:title=" ">
<path fill="none" stroke="#63b8ff" d="M858.09,-79.87C865.92,-79.87 873.91,-79.87 881.8,-79.87"/>
<polygon fill="#63b8ff" stroke="#63b8ff" points="881.75,-83.37 891.75,-79.87 881.75,-76.37 881.75,-83.37"/>
</a>
</g>
</g>
<!-- Node9 -->
<g id="Node000009" class="node">
<title>Node9</title>
<g id="a_Node000009"><a xlink:href="namespaceasn__tlv.html#a0cc9af3d4e8aba5f164c66bb47750767" target="_top" xlink:title="Append a string as a TLV structure.">
<polygon fill="white" stroke="#666666" points="1192,-108.87 1066.5,-108.87 1066.5,-88.87 1192,-88.87 1192,-108.87"/>
<text xml:space="preserve" text-anchor="middle" x="1129.25" y="-95.37" font-family="Helvetica,sans-Serif" font-size="10.00">asn_tlv::berAppendString</text>
</a>
</g>
</g>
<!-- Node8&#45;&gt;Node9 -->
<g id="edge9_Node000008_Node000009" class="edge">
<title>Node8&#45;&gt;Node9</title>
<g id="a_edge9_Node000008_Node000009"><a xlink:title=" ">
<path fill="none" stroke="#63b8ff" d="M1030.76,-87.65C1038.69,-88.57 1046.81,-89.5 1054.82,-90.42"/>
<polygon fill="#63b8ff" stroke="#63b8ff" points="1054.19,-93.87 1064.52,-91.54 1054.99,-86.92 1054.19,-93.87"/>
</a>
</g>
</g>
<!-- Node10 -->
<g id="Node000010" class="node">
<title>Node10</title>
<g id="a_Node000010"><a xlink:href="namespaceasn__tlv.html#a4a9f3333d71c851f9002020ffd417b18" target="_top" xlink:title="Append a complete TLV structure to an output buffer.">
<polygon fill="white" stroke="#666666" points="1341.5,-89.87 1228,-89.87 1228,-69.87 1341.5,-69.87 1341.5,-89.87"/>
<text xml:space="preserve" text-anchor="middle" x="1284.75" y="-76.37" font-family="Helvetica,sans-Serif" font-size="10.00">asn_tlv::berAppendTlv</text>
</a>
</g>
</g>
<!-- Node8&#45;&gt;Node10 -->
<g id="edge12_Node000008_Node000010" class="edge">
<title>Node8&#45;&gt;Node10</title>
<g id="a_edge12_Node000008_Node000010"><a xlink:title=" ">
<path fill="none" stroke="#63b8ff" d="M1030.73,-79.87C1085.36,-79.87 1161.88,-79.87 1216.43,-79.87"/>
<polygon fill="#63b8ff" stroke="#63b8ff" points="1216.21,-83.37 1226.21,-79.87 1216.21,-76.37 1216.21,-83.37"/>
</a>
</g>
</g>
<!-- Node9&#45;&gt;Node10 -->
<g id="edge10_Node000009_Node000010" class="edge">
<title>Node9&#45;&gt;Node10</title>
<g id="a_edge10_Node000009_Node000010"><a xlink:title=" ">
<path fill="none" stroke="#63b8ff" d="M1192.24,-91.2C1200.27,-90.2 1208.53,-89.18 1216.64,-88.18"/>
<polygon fill="#63b8ff" stroke="#63b8ff" points="1216.97,-91.66 1226.46,-86.96 1216.11,-84.72 1216.97,-91.66"/>
</a>
</g>
</g>
<!-- Node11 -->
<g id="Node000011" class="node">
<title>Node11</title>
<g id="a_Node000011"><a xlink:href="namespaceasn__tlv.html#af1ae5498c52c5e99d18f2cd5cb4f2609" target="_top" xlink:title="Append BER length encoding to an output buffer.">
<polygon fill="white" stroke="#666666" points="1506.75,-89.87 1377.5,-89.87 1377.5,-69.87 1506.75,-69.87 1506.75,-89.87"/>
<text xml:space="preserve" text-anchor="middle" x="1442.12" y="-76.37" font-family="Helvetica,sans-Serif" font-size="10.00">asn_tlv::berAppendLength</text>
</a>
</g>
</g>
<!-- Node10&#45;&gt;Node11 -->
<g id="edge11_Node000010_Node000011" class="edge">
<title>Node10&#45;&gt;Node11</title>
<g id="a_edge11_Node000010_Node000011"><a xlink:title=" ">
<path fill="none" stroke="#63b8ff" d="M1341.84,-79.87C1349.64,-79.87 1357.76,-79.87 1365.84,-79.87"/>
<polygon fill="#63b8ff" stroke="#63b8ff" points="1365.69,-83.37 1375.69,-79.87 1365.69,-76.37 1365.69,-83.37"/>
</a>
</g>
</g>
<!-- Node12&#45;&gt;Node7 -->
<g id="edge17_Node000012_Node000007" class="edge">
<title>Node12&#45;&gt;Node7</title>
<g id="a_edge17_Node000012_Node000007"><a xlink:title=" ">
<path fill="none" stroke="#63b8ff" d="M456.65,-52.35C478.27,-57.6 505.56,-63.54 530.25,-66.87 585.26,-74.3 647.55,-77.56 696.42,-78.95"/>
<polygon fill="#63b8ff" stroke="#63b8ff" points="696.3,-82.45 706.38,-79.22 696.48,-75.45 696.3,-82.45"/>
</a>
</g>
</g>
<!-- Node13 -->
<g id="Node000013" class="node">
<title>Node13</title>
<g id="a_Node000013"><a xlink:href="class_web_socket_session.html#afe8845301daa6254f51e87dd9dd4cc3d" target="_top" xlink:title="Handle broadcast write completion — drains pending queue.">
<polygon fill="white" stroke="#666666" points="660.25,-57.87 542.25,-57.87 542.25,-25.87 660.25,-25.87 660.25,-57.87"/>
<text xml:space="preserve" text-anchor="start" x="550.25" y="-44.37" font-family="Helvetica,sans-Serif" font-size="10.00">WebSocketSession::on</text>
<text xml:space="preserve" text-anchor="middle" x="601.25" y="-32.37" font-family="Helvetica,sans-Serif" font-size="10.00">_broadcast_write</text>
</a>
</g>
</g>
<!-- Node12&#45;&gt;Node13 -->
<g id="edge15_Node000012_Node000013" class="edge">
<title>Node12&#45;&gt;Node13</title>
<g id="a_edge15_Node000012_Node000013"><a xlink:title=" ">
<path fill="none" stroke="#63b8ff" d="M494.57,-35.19C506.44,-35.07 518.63,-35.1 530.31,-35.29"/>
<polygon fill="#63b8ff" stroke="#63b8ff" points="530.22,-38.79 540.29,-35.5 530.36,-31.79 530.22,-38.79"/>
</a>
</g>
</g>
<!-- Node13&#45;&gt;Node12 -->
<g id="edge16_Node000013_Node000012" class="edge">
<title>Node13&#45;&gt;Node12</title>
<g id="a_edge16_Node000013_Node000012"><a xlink:title=" ">
<path fill="none" stroke="#63b8ff" d="M541.8,-48.21C530.3,-48.51 518,-48.64 505.77,-48.62"/>
<polygon fill="#63b8ff" stroke="#63b8ff" points="506.1,-45.12 496.08,-48.56 506.06,-52.12 506.1,-45.12"/>
</a>
</g>
</g>
</g>
</svg>
