<?xml version="1.0" encoding="UTF-8" standalone="no"?>
<!DOCTYPE svg PUBLIC "-//W3C//DTD SVG 1.1//EN"
 "http://www.w3.org/Graphics/SVG/1.1/DTD/svg11.dtd">
<!-- Generated by graphviz version 14.1.1 (20251213.1925)
 -->
<!-- Title: RawDataRingBuffer Pages: 1 -->
<!--zoomable 859 -->

<svg id="main" version="1.1" xmlns="http://www.w3.org/2000/svg" xmlns:xlink="http://www.w3.org/1999/xlink" xml:space="preserve" onload="init(evt)">

<style type="text/css"><![CDATA[
.node, .edge {opacity: 0.7;}
.node.selected, .edge.selected {opacity: 1;}
.edge:hover path { stroke: red; }
.edge:hover polygon { stroke: red; fill: red; }
]]></style>

<defs>
  <circle id="rim" cx="0" cy="0" r="7"/>
  <circle id="rim2" cx="0" cy="0" r="3.5"/>
  <g id="zoomPlus">
    <use xlink:href="#rim" fill="#404040"><set attributeName="fill" to="#808080" begin="zoomplus.mouseover" end="zoomplus.mouseout"/></use>
    <path d="M-4,0h8M0,-4v8" fill="none" stroke="white" stroke-width="1.5" pointer-events="none"/>
  </g>
  <g id="zoomMin">
    <use xlink:href="#rim" fill="#404040"><set attributeName="fill" to="#808080" begin="zoomminus.mouseover" end="zoomminus.mouseout"/></use>
    <path d="M-4,0h8" fill="none" stroke="white" stroke-width="1.5" pointer-events="none"/>
  </g>
  <g id="arrowUp" transform="translate(30 24)">
    <use xlink:href="#rim"/>
    <path pointer-events="none" fill="none" stroke="white" stroke-width="1.5" d="M0,-3.0v7 M-2.5,-0.5L0,-3.0L2.5,-0.5"/>
  </g>
  <g id="arrowRight" transform="rotate(90) translate(36 -43)">
    <use xlink:href="#rim"/>
    <path pointer-events="none" fill="none" stroke="white" stroke-width="1.5" d="M0,-3.0v7 M-2.5,-0.5L0,-3.0L2.5,-0.5"/>
  </g>
  <g id="arrowDown" transform="rotate(180) translate(-30 -48)">
    <use xlink:href="#rim"/>
    <path pointer-events="none" fill="none" stroke="white" stroke-width="1.5" d="M0,-3.0v7 M-2.5,-0.5L0,-3.0L2.5,-0.5"/>
  </g>
  <g id="arrowLeft" transform="rotate(270) translate(-36 17)">
    <use xlink:href="#rim"/>
    <path pointer-events="none" fill="none" stroke="white" stroke-width="1.5" d="M0,-3.0v7 M-2.5,-0.5L0,-3.0L2.5,-0.5"/>
  </g>
  <g id="resetDef">
    <use xlink:href="#rim2" fill="#404040"><set attributeName="fill" to="#808080" begin="reset.mouseover" end="reset.mouseout"/></use>
  </g>
</defs>
<script type="application/ecmascript">
var viewWidth = 353;
var viewHeight = 859;
var sectionId = 'dynsection-0';
</script>
<script type="application/ecmascript" xlink:href="svg.min.js"/>
<svg id="graph" class="graph">
<g id="viewport">
<title>RawDataRingBuffer</title>
<!-- Node1 -->
<g id="Node000001" class="node">
<title>Node1</title>
<g id="a_Node000001"><a xlink:title="MPMC ring buffer for decoupling Telnet reception from multiple consumers.">
<polygon fill="#999999" stroke="none" points="276.88,-372 165.88,-372 165.88,0 276.88,0 276.88,-372"/>
<text xml:space="preserve" text-anchor="start" x="177.88" y="-358.5" font-family="Helvetica,sans-Serif" font-size="10.00">RawDataRingBuffer</text>
<text xml:space="preserve" text-anchor="start" x="169.88" y="-342.5" font-family="Helvetica,sans-Serif" font-size="10.00">+</text>
<text xml:space="preserve" text-anchor="start" x="179.88" y="-342.5" font-family="Helvetica,sans-Serif" font-size="10.00">kMaxReaders</text>
<text xml:space="preserve" text-anchor="start" x="169.88" y="-326.5" font-family="Helvetica,sans-Serif" font-size="10.00">+</text>
<text xml:space="preserve" text-anchor="start" x="179.88" y="-326.5" font-family="Helvetica,sans-Serif" font-size="10.00">kInvalidReader</text>
<text xml:space="preserve" text-anchor="start" x="171.38" y="-310.5" font-family="Helvetica,sans-Serif" font-size="10.00">&#45;</text>
<text xml:space="preserve" text-anchor="start" x="179.88" y="-310.5" font-family="Helvetica,sans-Serif" font-size="10.00">max_size_</text>
<text xml:space="preserve" text-anchor="start" x="171.38" y="-294.5" font-family="Helvetica,sans-Serif" font-size="10.00">&#45;</text>
<text xml:space="preserve" text-anchor="start" x="179.88" y="-294.5" font-family="Helvetica,sans-Serif" font-size="10.00">base_index_</text>
<text xml:space="preserve" text-anchor="start" x="171.38" y="-278.5" font-family="Helvetica,sans-Serif" font-size="10.00">&#45;</text>
<text xml:space="preserve" text-anchor="start" x="179.88" y="-278.5" font-family="Helvetica,sans-Serif" font-size="10.00">total_writes_</text>
<text xml:space="preserve" text-anchor="start" x="171.38" y="-262.5" font-family="Helvetica,sans-Serif" font-size="10.00">&#45;</text>
<text xml:space="preserve" text-anchor="start" x="179.88" y="-262.5" font-family="Helvetica,sans-Serif" font-size="10.00">drop_count_</text>
<text xml:space="preserve" text-anchor="start" x="171.38" y="-246.5" font-family="Helvetica,sans-Serif" font-size="10.00">&#45;</text>
<text xml:space="preserve" text-anchor="start" x="179.88" y="-246.5" font-family="Helvetica,sans-Serif" font-size="10.00">cv_</text>
<text xml:space="preserve" text-anchor="start" x="169.88" y="-230.5" font-family="Helvetica,sans-Serif" font-size="10.00">+</text>
<text xml:space="preserve" text-anchor="start" x="179.88" y="-230.5" font-family="Helvetica,sans-Serif" font-size="10.00">RawDataRingBuffer()</text>
<text xml:space="preserve" text-anchor="start" x="169.88" y="-214.5" font-family="Helvetica,sans-Serif" font-size="10.00">+</text>
<text xml:space="preserve" text-anchor="start" x="179.88" y="-214.5" font-family="Helvetica,sans-Serif" font-size="10.00">registerReader()</text>
<text xml:space="preserve" text-anchor="start" x="169.88" y="-198.5" font-family="Helvetica,sans-Serif" font-size="10.00">+</text>
<text xml:space="preserve" text-anchor="start" x="179.88" y="-198.5" font-family="Helvetica,sans-Serif" font-size="10.00">unregisterReader()</text>
<text xml:space="preserve" text-anchor="start" x="169.88" y="-182.5" font-family="Helvetica,sans-Serif" font-size="10.00">+</text>
<text xml:space="preserve" text-anchor="start" x="179.88" y="-182.5" font-family="Helvetica,sans-Serif" font-size="10.00">push()</text>
<text xml:space="preserve" text-anchor="start" x="169.88" y="-166.5" font-family="Helvetica,sans-Serif" font-size="10.00">+</text>
<text xml:space="preserve" text-anchor="start" x="179.88" y="-166.5" font-family="Helvetica,sans-Serif" font-size="10.00">waitPop()</text>
<text xml:space="preserve" text-anchor="start" x="169.88" y="-150.5" font-family="Helvetica,sans-Serif" font-size="10.00">+</text>
<text xml:space="preserve" text-anchor="start" x="179.88" y="-150.5" font-family="Helvetica,sans-Serif" font-size="10.00">tryPop()</text>
<text xml:space="preserve" text-anchor="start" x="169.88" y="-134.5" font-family="Helvetica,sans-Serif" font-size="10.00">+</text>
<text xml:space="preserve" text-anchor="start" x="179.88" y="-134.5" font-family="Helvetica,sans-Serif" font-size="10.00">size()</text>
<text xml:space="preserve" text-anchor="start" x="169.88" y="-118.5" font-family="Helvetica,sans-Serif" font-size="10.00">+</text>
<text xml:space="preserve" text-anchor="start" x="179.88" y="-118.5" font-family="Helvetica,sans-Serif" font-size="10.00">empty()</text>
<text xml:space="preserve" text-anchor="start" x="169.88" y="-102.5" font-family="Helvetica,sans-Serif" font-size="10.00">+</text>
<text xml:space="preserve" text-anchor="start" x="179.88" y="-102.5" font-family="Helvetica,sans-Serif" font-size="10.00">notifyAll()</text>
<text xml:space="preserve" text-anchor="start" x="169.88" y="-86.5" font-family="Helvetica,sans-Serif" font-size="10.00">+</text>
<text xml:space="preserve" text-anchor="start" x="179.88" y="-86.5" font-family="Helvetica,sans-Serif" font-size="10.00">clear()</text>
<text xml:space="preserve" text-anchor="start" x="169.88" y="-70.5" font-family="Helvetica,sans-Serif" font-size="10.00">+</text>
<text xml:space="preserve" text-anchor="start" x="179.88" y="-70.5" font-family="Helvetica,sans-Serif" font-size="10.00">activeReaderCount()</text>
<text xml:space="preserve" text-anchor="start" x="169.88" y="-54.5" font-family="Helvetica,sans-Serif" font-size="10.00">+</text>
<text xml:space="preserve" text-anchor="start" x="179.88" y="-54.5" font-family="Helvetica,sans-Serif" font-size="10.00">totalWrites()</text>
<text xml:space="preserve" text-anchor="start" x="169.88" y="-38.5" font-family="Helvetica,sans-Serif" font-size="10.00">+</text>
<text xml:space="preserve" text-anchor="start" x="179.88" y="-38.5" font-family="Helvetica,sans-Serif" font-size="10.00">totalReads()</text>
<text xml:space="preserve" text-anchor="start" x="169.88" y="-22.5" font-family="Helvetica,sans-Serif" font-size="10.00">+</text>
<text xml:space="preserve" text-anchor="start" x="179.88" y="-22.5" font-family="Helvetica,sans-Serif" font-size="10.00">dropCount()</text>
<text xml:space="preserve" text-anchor="start" x="171.38" y="-6.5" font-family="Helvetica,sans-Serif" font-size="10.00">&#45;</text>
<text xml:space="preserve" text-anchor="start" x="179.88" y="-6.5" font-family="Helvetica,sans-Serif" font-size="10.00">trimConsumed()</text>
<polygon fill="#666666" stroke="#666666" points="165.88,-354 165.88,-354 276.88,-354 276.88,-354 165.88,-354"/>
<polygon fill="#666666" stroke="#666666" points="165.88,-242 165.88,-242 177.88,-242 177.88,-242 165.88,-242"/>
<polygon fill="#666666" stroke="#666666" points="177.88,-242 177.88,-242 276.88,-242 276.88,-242 177.88,-242"/>
<polygon fill="none" stroke="#666666" points="165.88,0 165.88,-372 276.88,-372 276.88,0 165.88,0"/>
</a>
</g>
</g>
<!-- Node2 -->
<g id="Node000002" class="node">
<title>Node2</title>
<g id="a_Node000002"><a xlink:title=" ">
<polygon fill="white" stroke="none" points="152.75,-500 0,-500 0,-448 152.75,-448 152.75,-500"/>
<text xml:space="preserve" text-anchor="start" x="4" y="-486.5" font-family="Helvetica,sans-Serif" font-size="10.00">std::deque&lt; RawDataMessage &gt;</text>
<text xml:space="preserve" text-anchor="start" x="74.88" y="-470.5" font-family="Helvetica,sans-Serif" font-size="10.00"> </text>
<text xml:space="preserve" text-anchor="start" x="74.88" y="-454.5" font-family="Helvetica,sans-Serif" font-size="10.00"> </text>
<polygon fill="#666666" stroke="#666666" points="0,-482 0,-482 152.75,-482 152.75,-482 0,-482"/>
<polygon fill="#666666" stroke="#666666" points="0,-466 0,-466 152.75,-466 152.75,-466 0,-466"/>
<polygon fill="none" stroke="#666666" points="0,-448 0,-500 152.75,-500 152.75,-448 0,-448"/>
</a>
</g>
</g>
<!-- Node2&#45;&gt;Node1 -->
<g id="edge1_Node000001_Node000002" class="edge">
<title>Node2&#45;&gt;Node1</title>
<g id="a_edge1_Node000001_Node000002"><a xlink:title=" ">
<path fill="none" stroke="#63b8ff" d="M88.99,-448.12C104.94,-416.66 133.53,-360.26 160.08,-307.91"/>
<polygon fill="none" stroke="#63b8ff" points="160.05,-307.97 159.19,-300.81 165.47,-297.26 166.33,-304.43 160.05,-307.97"/>
</a>
</g>
<text xml:space="preserve" text-anchor="start" x="118.26" y="-395.5" font-family="Helvetica,sans-Serif" font-size="10.00" fill="grey">&#45;queue_</text>
</g>
<!-- Node3 -->
<g id="Node000003" class="node">
<title>Node3</title>
<g id="a_Node000003"><a xlink:href="struct_raw_data_message.html" target="_top" xlink:title="Container for raw Telnet command/response pair.">
<polygon fill="white" stroke="none" points="120.88,-628 31.88,-628 31.88,-576 120.88,-576 120.88,-628"/>
<text xml:space="preserve" text-anchor="start" x="35.88" y="-614.5" font-family="Helvetica,sans-Serif" font-size="10.00">RawDataMessage</text>
<text xml:space="preserve" text-anchor="start" x="74.88" y="-598.5" font-family="Helvetica,sans-Serif" font-size="10.00"> </text>
<text xml:space="preserve" text-anchor="start" x="74.88" y="-582.5" font-family="Helvetica,sans-Serif" font-size="10.00"> </text>
<polygon fill="#666666" stroke="#666666" points="31.88,-610 31.88,-610 120.88,-610 120.88,-610 31.88,-610"/>
<polygon fill="#666666" stroke="#666666" points="31.88,-594 31.88,-594 120.88,-594 120.88,-594 31.88,-594"/>
<polygon fill="none" stroke="#666666" points="31.88,-576 31.88,-628 120.88,-628 120.88,-576 31.88,-576"/>
</a>
</g>
</g>
<!-- Node3&#45;&gt;Node2 -->
<g id="edge2_Node000002_Node000003" class="edge">
<title>Node3&#45;&gt;Node2</title>
<g id="a_edge2_Node000002_Node000003"><a xlink:title=" ">
<path fill="none" stroke="#63b8ff" d="M76.38,-576.11C76.38,-558.07 76.38,-533.37 76.38,-512.89"/>
<polygon fill="none" stroke="#63b8ff" points="76.38,-512.74 72.38,-506.74 76.38,-500.74 80.38,-506.74 76.38,-512.74"/>
</a>
</g>
<text xml:space="preserve" text-anchor="start" x="79.38" y="-545.5" font-family="Helvetica,sans-Serif" font-size="10.00" fill="grey">+elements</text>
</g>
<!-- Node4 -->
<g id="Node000004" class="node">
<title>Node4</title>
<g id="a_Node000004"><a xlink:title=" ">
<polygon fill="white" stroke="none" points="102.12,-750 50.62,-750 50.62,-698 102.12,-698 102.12,-750"/>
<text xml:space="preserve" text-anchor="start" x="54.62" y="-736.5" font-family="Helvetica,sans-Serif" font-size="10.00">std::string</text>
<text xml:space="preserve" text-anchor="start" x="74.88" y="-720.5" font-family="Helvetica,sans-Serif" font-size="10.00"> </text>
<text xml:space="preserve" text-anchor="start" x="74.88" y="-704.5" font-family="Helvetica,sans-Serif" font-size="10.00"> </text>
<polygon fill="#666666" stroke="#666666" points="50.62,-732 50.62,-732 102.12,-732 102.12,-732 50.62,-732"/>
<polygon fill="#666666" stroke="#666666" points="50.62,-716 50.62,-716 102.12,-716 102.12,-716 50.62,-716"/>
<polygon fill="none" stroke="#666666" points="50.62,-698 50.62,-750 102.12,-750 102.12,-698 50.62,-698"/>
</a>
</g>
</g>
<!-- Node4&#45;&gt;Node3 -->
<g id="edge3_Node000003_Node000004" class="edge">
<title>Node4&#45;&gt;Node3</title>
<g id="a_edge3_Node000003_Node000004"><a xlink:title=" ">
<path fill="none" stroke="#63b8ff" d="M76.38,-698.14C76.38,-681.56 76.38,-659.47 76.38,-640.74"/>
<polygon fill="none" stroke="#63b8ff" points="76.38,-640.73 72.38,-634.73 76.38,-628.73 80.38,-634.73 76.38,-640.73"/>
</a>
</g>
<text xml:space="preserve" text-anchor="start" x="79.38" y="-667.5" font-family="Helvetica,sans-Serif" font-size="10.00" fill="grey">+command</text>
<text xml:space="preserve" text-anchor="start" x="79.38" y="-651.5" font-family="Helvetica,sans-Serif" font-size="10.00" fill="grey">+response</text>
</g>
<!-- Node5 -->
<g id="Node000005" class="node">
<title>Node5</title>
<g id="a_Node000005"><a xlink:title=" ">
<polygon fill="white" stroke="none" points="119.38,-851 33.38,-851 33.38,-787 119.38,-787 119.38,-851"/>
<text xml:space="preserve" text-anchor="start" x="37.38" y="-837.5" font-family="Helvetica,sans-Serif" font-size="10.00">std::basic_string&lt;</text>
<text xml:space="preserve" text-anchor="start" x="59.88" y="-825.5" font-family="Helvetica,sans-Serif" font-size="10.00"> Char &gt;</text>
<text xml:space="preserve" text-anchor="start" x="74.88" y="-809.5" font-family="Helvetica,sans-Serif" font-size="10.00"> </text>
<text xml:space="preserve" text-anchor="start" x="74.88" y="-793.5" font-family="Helvetica,sans-Serif" font-size="10.00"> </text>
<polygon fill="#666666" stroke="#666666" points="33.38,-821 33.38,-821 119.38,-821 119.38,-821 33.38,-821"/>
<polygon fill="#666666" stroke="#666666" points="33.38,-805 33.38,-805 119.38,-805 119.38,-805 33.38,-805"/>
<polygon fill="none" stroke="#666666" points="33.38,-787 33.38,-851 119.38,-851 119.38,-787 33.38,-787"/>
</a>
</g>
</g>
<!-- Node5&#45;&gt;Node4 -->
<g id="edge4_Node000004_Node000005" class="edge">
<title>Node5&#45;&gt;Node4</title>
<g id="a_edge4_Node000004_Node000005"><a xlink:title=" ">
<path fill="none" stroke="#63b8ff" d="M76.38,-775.69C76.38,-766.89 76.38,-757.89 76.38,-749.96"/>
<polygon fill="none" stroke="#63b8ff" points="72.88,-775.52 76.38,-785.52 79.88,-775.52 72.88,-775.52"/>
</a>
</g>
</g>
<!-- Node6 -->
<g id="Node000006" class="node">
<title>Node6</title>
<g id="a_Node000006"><a xlink:href="struct_raw_data_ring_buffer_1_1_reader_slot.html" target="_top" xlink:title="Per&#45;reader state.">
<polygon fill="white" stroke="none" points="271.88,-522 170.88,-522 170.88,-426 271.88,-426 271.88,-522"/>
<text xml:space="preserve" text-anchor="start" x="174.88" y="-508.5" font-family="Helvetica,sans-Serif" font-size="10.00">RawDataRingBuffer::</text>
<text xml:space="preserve" text-anchor="start" x="197" y="-496.5" font-family="Helvetica,sans-Serif" font-size="10.00">ReaderSlot</text>
<text xml:space="preserve" text-anchor="start" x="183.62" y="-480.5" font-family="Helvetica,sans-Serif" font-size="10.00">+</text>
<text xml:space="preserve" text-anchor="start" x="202.38" y="-480.5" font-family="Helvetica,sans-Serif" font-size="10.00">active</text>
<text xml:space="preserve" text-anchor="start" x="183.62" y="-464.5" font-family="Helvetica,sans-Serif" font-size="10.00">+</text>
<text xml:space="preserve" text-anchor="start" x="202.38" y="-464.5" font-family="Helvetica,sans-Serif" font-size="10.00">read_index</text>
<text xml:space="preserve" text-anchor="start" x="183.62" y="-448.5" font-family="Helvetica,sans-Serif" font-size="10.00">+</text>
<text xml:space="preserve" text-anchor="start" x="202.38" y="-448.5" font-family="Helvetica,sans-Serif" font-size="10.00">total_reads</text>
<text xml:space="preserve" text-anchor="start" x="219.88" y="-432.5" font-family="Helvetica,sans-Serif" font-size="10.00"> </text>
<polygon fill="#666666" stroke="#666666" points="170.88,-492 170.88,-492 271.88,-492 271.88,-492 170.88,-492"/>
<polygon fill="#666666" stroke="#666666" points="170.88,-444 170.88,-444 200.38,-444 200.38,-444 170.88,-444"/>
<polygon fill="#666666" stroke="#666666" points="200.38,-444 200.38,-444 271.88,-444 271.88,-444 200.38,-444"/>
<polygon fill="none" stroke="#666666" points="170.88,-426 170.88,-522 271.88,-522 271.88,-426 170.88,-426"/>
</a>
</g>
</g>
<!-- Node6&#45;&gt;Node1 -->
<g id="edge5_Node000001_Node000006" class="edge">
<title>Node6&#45;&gt;Node1</title>
<g id="a_edge5_Node000001_Node000006"><a xlink:title=" ">
<path fill="none" stroke="#63b8ff" d="M221.38,-426.09C221.38,-413.77 221.38,-399.69 221.38,-384.65"/>
<polygon fill="none" stroke="#63b8ff" points="221.38,-384.71 217.38,-378.71 221.38,-372.71 225.38,-378.71 221.38,-384.71"/>
</a>
</g>
<text xml:space="preserve" text-anchor="start" x="224.38" y="-395.5" font-family="Helvetica,sans-Serif" font-size="10.00" fill="grey">&#45;readers_</text>
</g>
<!-- Node7 -->
<g id="Node000007" class="node">
<title>Node7</title>
<g id="a_Node000007"><a xlink:title=" ">
<polygon fill="white" stroke="none" points="344.62,-500 290.12,-500 290.12,-448 344.62,-448 344.62,-500"/>
<text xml:space="preserve" text-anchor="start" x="294.12" y="-486.5" font-family="Helvetica,sans-Serif" font-size="10.00">std::mutex</text>
<text xml:space="preserve" text-anchor="start" x="315.88" y="-470.5" font-family="Helvetica,sans-Serif" font-size="10.00"> </text>
<text xml:space="preserve" text-anchor="start" x="315.88" y="-454.5" font-family="Helvetica,sans-Serif" font-size="10.00"> </text>
<polygon fill="#666666" stroke="#666666" points="290.12,-482 290.12,-482 344.62,-482 344.62,-482 290.12,-482"/>
<polygon fill="#666666" stroke="#666666" points="290.12,-466 290.12,-466 344.62,-466 344.62,-466 290.12,-466"/>
<polygon fill="none" stroke="#666666" points="290.12,-448 290.12,-500 344.62,-500 344.62,-448 290.12,-448"/>
</a>
</g>
</g>
<!-- Node7&#45;&gt;Node1 -->
<g id="edge6_Node000001_Node000007" class="edge">
<title>Node7&#45;&gt;Node1</title>
<g id="a_edge6_Node000001_Node000007"><a xlink:title=" ">
<path fill="none" stroke="#63b8ff" d="M309.02,-448.12C302.26,-427.97 292.06,-397.58 280.98,-364.59"/>
<polygon fill="none" stroke="#63b8ff" points="280.97,-364.56 275.27,-360.14 277.16,-353.18 282.86,-357.6 280.97,-364.56"/>
</a>
</g>
<text xml:space="preserve" text-anchor="start" x="297.18" y="-395.5" font-family="Helvetica,sans-Serif" font-size="10.00" fill="grey">&#45;mutex_</text>
</g>
</g>
</svg>

<g id="navigator" transform="translate(0 0)" fill="#404254">
  <rect fill="#f2f5e9" fill-opacity="0.5" stroke="#606060" stroke-width=".5" x="0" y="0" width="60" height="60"/>
  <use id="zoomplus" xlink:href="#zoomPlus" x="17" y="9" onmousedown="handleZoom(evt,'in')"/>
  <use id="zoomminus" xlink:href="#zoomMin" x="42" y="9" onmousedown="handleZoom(evt,'out')"/>
  <use id="reset" xlink:href="#resetDef" x="30" y="36" onmousedown="handleReset()"/>
   <use id="arrowup" xlink:href="#arrowUp" x="0" y="0" onmousedown="handlePan(0,-1)"/>
  <use id="arrowright" xlink:href="#arrowRight" x="0" y="0" onmousedown="handlePan(1,0)"/>
  <use id="arrowdown" xlink:href="#arrowDown" x="0" y="0" onmousedown="handlePan(0,1)"/>
  <use id="arrowleft" xlink:href="#arrowLeft" x="0" y="0" onmousedown="handlePan(-1,0)"/>
</g>
<svg viewBox="0 0 15 15" width="100%" height="30px" preserveAspectRatio="xMaxYMin meet">
 <g id="arrow_out" transform="scale(0.3 0.3)">
  <a xlink:href="class_raw_data_ring_buffer__coll__graph_org.svg" target="_base">
   <rect id="button" ry="5" rx="5" y="6" x="6" height="38" width="38"
        fill="#f2f5e9" fill-opacity="0.5" stroke="#606060" stroke-width="1.0"/>
   <path id="arrow"
     d="M 11.500037,31.436501 C 11.940474,20.09759 22.043105,11.32322 32.158766,21.979434 L 37.068811,17.246167 C 37.068811,17.246167 37.088388,32 37.088388,32 L 22.160133,31.978069 C 22.160133,31.978069 26.997745,27.140456 26.997745,27.140456 C 18.528582,18.264221 13.291696,25.230495 11.500037,31.436501 z"
     style="fill:#404040;"/>
  </a>
 </g>
</svg>

<style type='text/css'>
<![CDATA[
[data-mouse-over-selected='false'] { opacity: 0.7; }
[data-mouse-over-selected='true']  { opacity: 1.0; }
]]>
</style>
<script type="application/ecmascript"><![CDATA[
document.addEventListener('DOMContentLoaded', (event) => {
  highlightEdges();
  highlightAdjacentNodes();
});
]]></script>
</svg>
