<?xml version="1.0" encoding="UTF-8" standalone="no"?>
<!DOCTYPE svg PUBLIC "-//W3C//DTD SVG 1.1//EN"
 "http://www.w3.org/Graphics/SVG/1.1/DTD/svg11.dtd">
<!-- Generated by graphviz version 14.1.1 (20251213.1925)
 -->
<!-- Title: RelayPipeline::RelayPipeline Pages: 1 -->
<svg width="472pt" height="28pt"
 viewBox="0.00 0.00 472.00 28.00" xmlns="http://www.w3.org/2000/svg" xmlns:xlink="http://www.w3.org/1999/xlink">
<g id="graph0" class="graph" transform="scale(1 1) rotate(0) translate(4 24)">
<title>RelayPipeline::RelayPipeline</title>
<!-- Node1 -->
<g id="Node000001" class="node">
<title>Node1</title>
<g id="a_Node000001"><a xlink:title="Non&#45;copyable, non&#45;movable (owns threads).">
<polygon fill="#999999" stroke="#666666" points="142,-20 0,-20 0,0 142,0 142,-20"/>
<text xml:space="preserve" text-anchor="middle" x="71" y="-6.5" font-family="Helvetica,sans-Serif" font-size="10.00">RelayPipeline::RelayPipeline</text>
</a>
</g>
</g>
<!-- Node2 -->
<g id="Node000002" class="node">
<title>Node2</title>
<g id="a_Node000002"><a xlink:href="class_relay_pipeline.html#a60f93550b5bf6a3f05a5d87881024447" target="_top" xlink:title="Construct a pipeline for a specific relay.">
<polygon fill="white" stroke="#666666" points="320,-20 178,-20 178,0 320,0 320,-20"/>
<text xml:space="preserve" text-anchor="middle" x="249" y="-6.5" font-family="Helvetica,sans-Serif" font-size="10.00">RelayPipeline::RelayPipeline</text>
</a>
</g>
</g>
<!-- Node1&#45;&gt;Node2 -->
<g id="edge1_Node000001_Node000002" class="edge">
<title>Node1&#45;&gt;Node2</title>
<g id="a_edge1_Node000001_Node000002"><a xlink:title=" ">
<path fill="none" stroke="#63b8ff" d="M142.32,-10C150.19,-10 158.26,-10 166.27,-10"/>
<polygon fill="#63b8ff" stroke="#63b8ff" points="165.99,-13.5 175.99,-10 165.99,-6.5 165.99,-13.5"/>
</a>
</g>
</g>
<!-- Node3 -->
<g id="Node000003" class="node">
<title>Node3</title>
<g id="a_Node000003"><a xlink:href="class_relay_pipeline.html#a29c66fec7983cec7b8dac1d6a47c8c16" target="_top" xlink:title=" ">
<polygon fill="white" stroke="#666666" points="464.25,-20 356,-20 356,0 464.25,0 464.25,-20"/>
<text xml:space="preserve" text-anchor="middle" x="410.12" y="-6.5" font-family="Helvetica,sans-Serif" font-size="10.00">RelayPipeline::config</text>
</a>
</g>
</g>
<!-- Node2&#45;&gt;Node3 -->
<g id="edge2_Node000002_Node000003" class="edge">
<title>Node2&#45;&gt;Node3</title>
<g id="a_edge2_Node000002_Node000003"><a xlink:title=" ">
<path fill="none" stroke="#63b8ff" d="M320.26,-10C328.31,-10 336.5,-10 344.47,-10"/>
<polygon fill="#63b8ff" stroke="#63b8ff" points="344.46,-13.5 354.46,-10 344.46,-6.5 344.46,-13.5"/>
</a>
</g>
</g>
</g>
</svg>
