<?xml version="1.0" encoding="UTF-8" standalone="no"?>
<!DOCTYPE svg PUBLIC "-//W3C//DTD SVG 1.1//EN"
 "http://www.w3.org/Graphics/SVG/1.1/DTD/svg11.dtd">
<!-- Generated by graphviz version 14.1.2 (20260124.0452)
 -->
<!-- Title: TelnetSmlApp::TelnetSmlApp Pages: 1 -->
<svg width="331pt" height="142pt"
 viewBox="0.00 0.00 331.00 142.00" xmlns="http://www.w3.org/2000/svg" xmlns:xlink="http://www.w3.org/1999/xlink">

<svg id="main" version="1.1" xmlns="http://www.w3.org/2000/svg" xmlns:xlink="http://www.w3.org/1999/xlink" xml:space="preserve">

<style type="text/css"><![CDATA[
.node, .edge {opacity: 0.7;}
.node.selected, .edge.selected {opacity: 1;}
.edge:hover path { stroke: red; }
.edge:hover polygon { stroke: red; fill: red; }
]]></style>
<script type="application/ecmascript" xlink:href="svg.min.js"/>
<svg id="graph" class="graph">
<g id="graph0" class="graph" transform="scale(1 1) rotate(0) translate(4 138)">
<title>TelnetSmlApp::TelnetSmlApp</title>
<!-- Node1 -->
<g id="Node000001" class="node">
<title>Node1</title>
<g id="a_Node000001"><a xlink:title="Construct a TelnetSmlApp instance.">
<polygon fill="#999999" stroke="#666666" points="323,-77 179.5,-77 179.5,-57 323,-57 323,-77"/>
<text xml:space="preserve" text-anchor="middle" x="251.25" y="-63.5" font-family="Helvetica,sans-Serif" font-size="10.00">TelnetSmlApp::TelnetSmlApp</text>
</a>
</g>
</g>
<!-- Node2 -->
<g id="Node000002" class="node">
<title>Node2</title>
<g id="a_Node000002"><a xlink:href="class_telnet_sml_app.html#ab06b9ac0a2769044f0a6b7c61a99b135" target="_top" xlink:title=" ">
<polygon fill="white" stroke="#666666" points="133.75,-134 9.75,-134 9.75,-114 133.75,-114 133.75,-134"/>
<text xml:space="preserve" text-anchor="middle" x="71.75" y="-120.5" font-family="Helvetica,sans-Serif" font-size="10.00">TelnetSmlApp::operator=</text>
</a>
</g>
</g>
<!-- Node1&#45;&gt;Node2 -->
<g id="edge1_Node000001_Node000002" class="edge">
<title>Node1&#45;&gt;Node2</title>
<g id="a_edge1_Node000001_Node000002"><a xlink:title=" ">
<path fill="none" stroke="#63b8ff" d="M212.13,-81.4C191.87,-88.84 166.48,-97.84 143.5,-105 133.91,-107.99 123.5,-110.94 113.69,-113.6"/>
<polygon fill="#63b8ff" stroke="#63b8ff" points="213.22,-84.73 221.39,-77.97 210.79,-78.16 213.22,-84.73"/>
</a>
</g>
</g>
<!-- Node3 -->
<g id="Node000003" class="node">
<title>Node3</title>
<g id="a_Node000003"><a xlink:href="class_telnet_sml_app.html#a4e85cb81d608f886dc22c96cc349b25a" target="_top" xlink:title=" ">
<polygon fill="white" stroke="#666666" points="133.75,-96 9.75,-96 9.75,-76 133.75,-76 133.75,-96"/>
<text xml:space="preserve" text-anchor="middle" x="71.75" y="-82.5" font-family="Helvetica,sans-Serif" font-size="10.00">TelnetSmlApp::operator=</text>
</a>
</g>
</g>
<!-- Node1&#45;&gt;Node3 -->
<g id="edge2_Node000001_Node000003" class="edge">
<title>Node1&#45;&gt;Node3</title>
<g id="a_edge2_Node000001_Node000003"><a xlink:title=" ">
<path fill="none" stroke="#63b8ff" d="M167.84,-75.82C156.52,-77.03 145.07,-78.26 134.22,-79.42"/>
<polygon fill="#63b8ff" stroke="#63b8ff" points="168,-79.32 177.57,-74.78 167.26,-72.36 168,-79.32"/>
</a>
</g>
</g>
<!-- Node4 -->
<g id="Node000004" class="node">
<title>Node4</title>
<g id="a_Node000004"><a xlink:href="class_telnet_sml_app.html#a2c1da6a226dca552d95a70cbb86ff407" target="_top" xlink:title=" ">
<polygon fill="white" stroke="#666666" points="143.5,-58 0,-58 0,-38 143.5,-38 143.5,-58"/>
<text xml:space="preserve" text-anchor="middle" x="71.75" y="-44.5" font-family="Helvetica,sans-Serif" font-size="10.00">TelnetSmlApp::TelnetSmlApp</text>
</a>
</g>
</g>
<!-- Node1&#45;&gt;Node4 -->
<g id="edge3_Node000001_Node000004" class="edge">
<title>Node1&#45;&gt;Node4</title>
<g id="a_edge3_Node000001_Node000004"><a xlink:title=" ">
<path fill="none" stroke="#63b8ff" d="M167.85,-58.18C159.86,-57.32 151.81,-56.46 143.94,-55.62"/>
<polygon fill="#63b8ff" stroke="#63b8ff" points="167.26,-61.64 177.57,-59.22 168,-54.68 167.26,-61.64"/>
</a>
</g>
</g>
<!-- Node5 -->
<g id="Node000005" class="node">
<title>Node5</title>
<g id="a_Node000005"><a xlink:href="class_telnet_sml_app.html#a1da4da43f4bde84da2bbd6bf5bb75c94" target="_top" xlink:title=" ">
<polygon fill="white" stroke="#666666" points="143.5,-20 0,-20 0,0 143.5,0 143.5,-20"/>
<text xml:space="preserve" text-anchor="middle" x="71.75" y="-6.5" font-family="Helvetica,sans-Serif" font-size="10.00">TelnetSmlApp::TelnetSmlApp</text>
</a>
</g>
</g>
<!-- Node1&#45;&gt;Node5 -->
<g id="edge4_Node000001_Node000005" class="edge">
<title>Node1&#45;&gt;Node5</title>
<g id="a_edge4_Node000001_Node000005"><a xlink:title=" ">
<path fill="none" stroke="#63b8ff" d="M212.13,-52.6C191.87,-45.16 166.48,-36.16 143.5,-29 133.91,-26.01 123.5,-23.06 113.69,-20.4"/>
<polygon fill="#63b8ff" stroke="#63b8ff" points="210.79,-55.84 221.39,-56.03 213.22,-49.27 210.79,-55.84"/>
</a>
</g>
</g>
</g>
</svg>
</svg>

<style type='text/css'>
<![CDATA[
[data-mouse-over-selected='false'] { opacity: 0.7; }
[data-mouse-over-selected='true']  { opacity: 1.0; }
]]>
</style>
<script type="application/ecmascript"><![CDATA[
document.addEventListener('DOMContentLoaded', (event) => {
  highlightEdges();
  highlightAdjacentNodes();
});
]]></script>
</svg>
