<?xml version="1.0" encoding="UTF-8" standalone="no"?>
<!DOCTYPE svg PUBLIC "-//W3C//DTD SVG 1.1//EN"
 "http://www.w3.org/Graphics/SVG/1.1/DTD/svg11.dtd">
<!-- Generated by graphviz version 14.1.2 (20260124.0452)
 -->
<!-- Title: RawDataRingBuffer Pages: 1 -->
<svg width="234pt" height="623pt"
 viewBox="0.00 0.00 234.00 623.00" xmlns="http://www.w3.org/2000/svg" xmlns:xlink="http://www.w3.org/1999/xlink">
<g id="graph0" class="graph" transform="scale(1 1) rotate(0) translate(4 619)">
<title>RawDataRingBuffer</title>
<!-- Node1 -->
<g id="Node000001" class="node">
<title>Node1</title>
<g id="a_Node000001"><a xlink:title="SPSC ring buffer for decoupling Telnet reception from FSM processing.">
<polygon fill="#999999" stroke="none" points="192.88,-180 81.88,-180 81.88,0 192.88,0 192.88,-180"/>
<text xml:space="preserve" text-anchor="start" x="93.88" y="-166.5" font-family="Helvetica,sans-Serif" font-size="10.00">RawDataRingBuffer</text>
<text xml:space="preserve" text-anchor="start" x="87.38" y="-150.5" font-family="Helvetica,sans-Serif" font-size="10.00">&#45;</text>
<text xml:space="preserve" text-anchor="start" x="95.88" y="-150.5" font-family="Helvetica,sans-Serif" font-size="10.00">max_size_</text>
<text xml:space="preserve" text-anchor="start" x="87.38" y="-134.5" font-family="Helvetica,sans-Serif" font-size="10.00">&#45;</text>
<text xml:space="preserve" text-anchor="start" x="95.88" y="-134.5" font-family="Helvetica,sans-Serif" font-size="10.00">cv_</text>
<text xml:space="preserve" text-anchor="start" x="85.88" y="-118.5" font-family="Helvetica,sans-Serif" font-size="10.00">+</text>
<text xml:space="preserve" text-anchor="start" x="95.88" y="-118.5" font-family="Helvetica,sans-Serif" font-size="10.00">RawDataRingBuffer()</text>
<text xml:space="preserve" text-anchor="start" x="85.88" y="-102.5" font-family="Helvetica,sans-Serif" font-size="10.00">+</text>
<text xml:space="preserve" text-anchor="start" x="95.88" y="-102.5" font-family="Helvetica,sans-Serif" font-size="10.00">push()</text>
<text xml:space="preserve" text-anchor="start" x="85.88" y="-86.5" font-family="Helvetica,sans-Serif" font-size="10.00">+</text>
<text xml:space="preserve" text-anchor="start" x="95.88" y="-86.5" font-family="Helvetica,sans-Serif" font-size="10.00">waitPop()</text>
<text xml:space="preserve" text-anchor="start" x="85.88" y="-70.5" font-family="Helvetica,sans-Serif" font-size="10.00">+</text>
<text xml:space="preserve" text-anchor="start" x="95.88" y="-70.5" font-family="Helvetica,sans-Serif" font-size="10.00">tryPop()</text>
<text xml:space="preserve" text-anchor="start" x="85.88" y="-54.5" font-family="Helvetica,sans-Serif" font-size="10.00">+</text>
<text xml:space="preserve" text-anchor="start" x="95.88" y="-54.5" font-family="Helvetica,sans-Serif" font-size="10.00">size()</text>
<text xml:space="preserve" text-anchor="start" x="85.88" y="-38.5" font-family="Helvetica,sans-Serif" font-size="10.00">+</text>
<text xml:space="preserve" text-anchor="start" x="95.88" y="-38.5" font-family="Helvetica,sans-Serif" font-size="10.00">empty()</text>
<text xml:space="preserve" text-anchor="start" x="85.88" y="-22.5" font-family="Helvetica,sans-Serif" font-size="10.00">+</text>
<text xml:space="preserve" text-anchor="start" x="95.88" y="-22.5" font-family="Helvetica,sans-Serif" font-size="10.00">notifyAll()</text>
<text xml:space="preserve" text-anchor="start" x="85.88" y="-6.5" font-family="Helvetica,sans-Serif" font-size="10.00">+</text>
<text xml:space="preserve" text-anchor="start" x="95.88" y="-6.5" font-family="Helvetica,sans-Serif" font-size="10.00">clear()</text>
<polygon fill="#666666" stroke="#666666" points="81.88,-162 81.88,-162 192.88,-162 192.88,-162 81.88,-162"/>
<polygon fill="#666666" stroke="#666666" points="81.88,-130 81.88,-130 93.88,-130 93.88,-130 81.88,-130"/>
<polygon fill="#666666" stroke="#666666" points="93.88,-130 93.88,-130 192.88,-130 192.88,-130 93.88,-130"/>
<polygon fill="none" stroke="#666666" points="81.88,0 81.88,-180 192.88,-180 192.88,0 81.88,0"/>
</a>
</g>
</g>
<!-- Node2 -->
<g id="Node000002" class="node">
<title>Node2</title>
<g id="a_Node000002"><a xlink:title=" ">
<polygon fill="white" stroke="none" points="152.75,-286 0,-286 0,-234 152.75,-234 152.75,-286"/>
<text xml:space="preserve" text-anchor="start" x="4" y="-272.5" font-family="Helvetica,sans-Serif" font-size="10.00">std::deque&lt; RawDataMessage &gt;</text>
<text xml:space="preserve" text-anchor="start" x="74.88" y="-256.5" font-family="Helvetica,sans-Serif" font-size="10.00"> </text>
<text xml:space="preserve" text-anchor="start" x="74.88" y="-240.5" font-family="Helvetica,sans-Serif" font-size="10.00"> </text>
<polygon fill="#666666" stroke="#666666" points="0,-268 0,-268 152.75,-268 152.75,-268 0,-268"/>
<polygon fill="#666666" stroke="#666666" points="0,-252 0,-252 152.75,-252 152.75,-252 0,-252"/>
<polygon fill="none" stroke="#666666" points="0,-234 0,-286 152.75,-286 152.75,-234 0,-234"/>
</a>
</g>
</g>
<!-- Node2&#45;&gt;Node1 -->
<g id="edge1_Node000001_Node000002" class="edge">
<title>Node2&#45;&gt;Node1</title>
<g id="a_edge1_Node000001_Node000002"><a xlink:title=" ">
<path fill="none" stroke="#63b8ff" d="M85.38,-234.21C89.63,-222.5 95.01,-207.67 100.7,-192.01"/>
<polygon fill="none" stroke="#63b8ff" points="100.69,-192.04 98.97,-185.04 104.78,-180.76 106.49,-187.77 100.69,-192.04"/>
</a>
</g>
<text xml:space="preserve" text-anchor="start" x="100.85" y="-203.5" font-family="Helvetica,sans-Serif" font-size="10.00" fill="grey">&#45;queue_</text>
</g>
<!-- Node3 -->
<g id="Node000003" class="node">
<title>Node3</title>
<g id="a_Node000003"><a xlink:href="struct_raw_data_message.html" target="_top" xlink:title="Container for raw Telnet command/response pair.">
<polygon fill="white" stroke="none" points="120.88,-392 31.88,-392 31.88,-340 120.88,-340 120.88,-392"/>
<text xml:space="preserve" text-anchor="start" x="35.88" y="-378.5" font-family="Helvetica,sans-Serif" font-size="10.00">RawDataMessage</text>
<text xml:space="preserve" text-anchor="start" x="74.88" y="-362.5" font-family="Helvetica,sans-Serif" font-size="10.00"> </text>
<text xml:space="preserve" text-anchor="start" x="74.88" y="-346.5" font-family="Helvetica,sans-Serif" font-size="10.00"> </text>
<polygon fill="#666666" stroke="#666666" points="31.88,-374 31.88,-374 120.88,-374 120.88,-374 31.88,-374"/>
<polygon fill="#666666" stroke="#666666" points="31.88,-358 31.88,-358 120.88,-358 120.88,-358 31.88,-358"/>
<polygon fill="none" stroke="#666666" points="31.88,-340 31.88,-392 120.88,-392 120.88,-340 31.88,-340"/>
</a>
</g>
</g>
<!-- Node3&#45;&gt;Node2 -->
<g id="edge2_Node000002_Node000003" class="edge">
<title>Node3&#45;&gt;Node2</title>
<g id="a_edge2_Node000002_Node000003"><a xlink:title=" ">
<path fill="none" stroke="#63b8ff" d="M76.38,-340.09C76.38,-327.61 76.38,-312.25 76.38,-298.39"/>
<polygon fill="none" stroke="#63b8ff" points="76.38,-298.61 72.38,-292.61 76.38,-286.61 80.38,-292.61 76.38,-298.61"/>
</a>
</g>
<text xml:space="preserve" text-anchor="start" x="79.38" y="-309.5" font-family="Helvetica,sans-Serif" font-size="10.00" fill="grey">+elements</text>
</g>
<!-- Node4 -->
<g id="Node000004" class="node">
<title>Node4</title>
<g id="a_Node000004"><a xlink:title=" ">
<polygon fill="white" stroke="none" points="102.12,-514 50.62,-514 50.62,-462 102.12,-462 102.12,-514"/>
<text xml:space="preserve" text-anchor="start" x="54.62" y="-500.5" font-family="Helvetica,sans-Serif" font-size="10.00">std::string</text>
<text xml:space="preserve" text-anchor="start" x="74.88" y="-484.5" font-family="Helvetica,sans-Serif" font-size="10.00"> </text>
<text xml:space="preserve" text-anchor="start" x="74.88" y="-468.5" font-family="Helvetica,sans-Serif" font-size="10.00"> </text>
<polygon fill="#666666" stroke="#666666" points="50.62,-496 50.62,-496 102.12,-496 102.12,-496 50.62,-496"/>
<polygon fill="#666666" stroke="#666666" points="50.62,-480 50.62,-480 102.12,-480 102.12,-480 50.62,-480"/>
<polygon fill="none" stroke="#666666" points="50.62,-462 50.62,-514 102.12,-514 102.12,-462 50.62,-462"/>
</a>
</g>
</g>
<!-- Node4&#45;&gt;Node3 -->
<g id="edge3_Node000003_Node000004" class="edge">
<title>Node4&#45;&gt;Node3</title>
<g id="a_edge3_Node000003_Node000004"><a xlink:title=" ">
<path fill="none" stroke="#63b8ff" d="M76.38,-462.14C76.38,-445.56 76.38,-423.47 76.38,-404.74"/>
<polygon fill="none" stroke="#63b8ff" points="76.38,-404.73 72.38,-398.73 76.38,-392.73 80.38,-398.73 76.38,-404.73"/>
</a>
</g>
<text xml:space="preserve" text-anchor="start" x="79.38" y="-431.5" font-family="Helvetica,sans-Serif" font-size="10.00" fill="grey">+command</text>
<text xml:space="preserve" text-anchor="start" x="79.38" y="-415.5" font-family="Helvetica,sans-Serif" font-size="10.00" fill="grey">+response</text>
</g>
<!-- Node5 -->
<g id="Node000005" class="node">
<title>Node5</title>
<g id="a_Node000005"><a xlink:title=" ">
<polygon fill="white" stroke="none" points="119.38,-615 33.38,-615 33.38,-551 119.38,-551 119.38,-615"/>
<text xml:space="preserve" text-anchor="start" x="37.38" y="-601.5" font-family="Helvetica,sans-Serif" font-size="10.00">std::basic_string&lt;</text>
<text xml:space="preserve" text-anchor="start" x="59.88" y="-589.5" font-family="Helvetica,sans-Serif" font-size="10.00"> Char &gt;</text>
<text xml:space="preserve" text-anchor="start" x="74.88" y="-573.5" font-family="Helvetica,sans-Serif" font-size="10.00"> </text>
<text xml:space="preserve" text-anchor="start" x="74.88" y="-557.5" font-family="Helvetica,sans-Serif" font-size="10.00"> </text>
<polygon fill="#666666" stroke="#666666" points="33.38,-585 33.38,-585 119.38,-585 119.38,-585 33.38,-585"/>
<polygon fill="#666666" stroke="#666666" points="33.38,-569 33.38,-569 119.38,-569 119.38,-569 33.38,-569"/>
<polygon fill="none" stroke="#666666" points="33.38,-551 33.38,-615 119.38,-615 119.38,-551 33.38,-551"/>
</a>
</g>
</g>
<!-- Node5&#45;&gt;Node4 -->
<g id="edge4_Node000004_Node000005" class="edge">
<title>Node5&#45;&gt;Node4</title>
<g id="a_edge4_Node000004_Node000005"><a xlink:title=" ">
<path fill="none" stroke="#63b8ff" d="M76.38,-539.69C76.38,-530.89 76.38,-521.89 76.38,-513.96"/>
<polygon fill="none" stroke="#63b8ff" points="72.88,-539.52 76.38,-549.52 79.88,-539.52 72.88,-539.52"/>
</a>
</g>
</g>
<!-- Node6 -->
<g id="Node000006" class="node">
<title>Node6</title>
<g id="a_Node000006"><a xlink:title=" ">
<polygon fill="white" stroke="none" points="225.62,-286 171.12,-286 171.12,-234 225.62,-234 225.62,-286"/>
<text xml:space="preserve" text-anchor="start" x="175.12" y="-272.5" font-family="Helvetica,sans-Serif" font-size="10.00">std::mutex</text>
<text xml:space="preserve" text-anchor="start" x="196.88" y="-256.5" font-family="Helvetica,sans-Serif" font-size="10.00"> </text>
<text xml:space="preserve" text-anchor="start" x="196.88" y="-240.5" font-family="Helvetica,sans-Serif" font-size="10.00"> </text>
<polygon fill="#666666" stroke="#666666" points="171.12,-268 171.12,-268 225.62,-268 225.62,-268 171.12,-268"/>
<polygon fill="#666666" stroke="#666666" points="171.12,-252 171.12,-252 225.62,-252 225.62,-252 171.12,-252"/>
<polygon fill="none" stroke="#666666" points="171.12,-234 171.12,-286 225.62,-286 225.62,-234 171.12,-234"/>
</a>
</g>
</g>
<!-- Node6&#45;&gt;Node1 -->
<g id="edge5_Node000001_Node000006" class="edge">
<title>Node6&#45;&gt;Node1</title>
<g id="a_edge5_Node000001_Node000006"><a xlink:title=" ">
<path fill="none" stroke="#63b8ff" d="M189.37,-234.21C185.12,-222.5 179.74,-207.67 174.05,-192.01"/>
<polygon fill="none" stroke="#63b8ff" points="174.06,-192.04 168.26,-187.77 169.97,-180.76 175.78,-185.04 174.06,-192.04"/>
</a>
</g>
<text xml:space="preserve" text-anchor="start" x="185.02" y="-203.5" font-family="Helvetica,sans-Serif" font-size="10.00" fill="grey">&#45;mutex_</text>
</g>
</g>
</svg>
