<?xml version="1.0" encoding="UTF-8" standalone="no"?>
<!DOCTYPE svg PUBLIC "-//W3C//DTD SVG 1.1//EN"
 "http://www.w3.org/Graphics/SVG/1.1/DTD/svg11.dtd">
<!-- Generated by graphviz version 14.1.1 (20251213.1925)
 -->
<!-- Title: SERDatabase::recordExists Pages: 1 -->
<!--zoomable 116 -->

<svg id="main" version="1.1" xmlns="http://www.w3.org/2000/svg" xmlns:xlink="http://www.w3.org/1999/xlink" xml:space="preserve" onload="init(evt)">

<style type="text/css"><![CDATA[
.node, .edge {opacity: 0.7;}
.node.selected, .edge.selected {opacity: 1;}
.edge:hover path { stroke: red; }
.edge:hover polygon { stroke: red; fill: red; }
]]></style>

<defs>
  <circle id="rim" cx="0" cy="0" r="7"/>
  <circle id="rim2" cx="0" cy="0" r="3.5"/>
  <g id="zoomPlus">
    <use xlink:href="#rim" fill="#404040"><set attributeName="fill" to="#808080" begin="zoomplus.mouseover" end="zoomplus.mouseout"/></use>
    <path d="M-4,0h8M0,-4v8" fill="none" stroke="white" stroke-width="1.5" pointer-events="none"/>
  </g>
  <g id="zoomMin">
    <use xlink:href="#rim" fill="#404040"><set attributeName="fill" to="#808080" begin="zoomminus.mouseover" end="zoomminus.mouseout"/></use>
    <path d="M-4,0h8" fill="none" stroke="white" stroke-width="1.5" pointer-events="none"/>
  </g>
  <g id="arrowUp" transform="translate(30 24)">
    <use xlink:href="#rim"/>
    <path pointer-events="none" fill="none" stroke="white" stroke-width="1.5" d="M0,-3.0v7 M-2.5,-0.5L0,-3.0L2.5,-0.5"/>
  </g>
  <g id="arrowRight" transform="rotate(90) translate(36 -43)">
    <use xlink:href="#rim"/>
    <path pointer-events="none" fill="none" stroke="white" stroke-width="1.5" d="M0,-3.0v7 M-2.5,-0.5L0,-3.0L2.5,-0.5"/>
  </g>
  <g id="arrowDown" transform="rotate(180) translate(-30 -48)">
    <use xlink:href="#rim"/>
    <path pointer-events="none" fill="none" stroke="white" stroke-width="1.5" d="M0,-3.0v7 M-2.5,-0.5L0,-3.0L2.5,-0.5"/>
  </g>
  <g id="arrowLeft" transform="rotate(270) translate(-36 17)">
    <use xlink:href="#rim"/>
    <path pointer-events="none" fill="none" stroke="white" stroke-width="1.5" d="M0,-3.0v7 M-2.5,-0.5L0,-3.0L2.5,-0.5"/>
  </g>
  <g id="resetDef">
    <use xlink:href="#rim2" fill="#404040"><set attributeName="fill" to="#808080" begin="reset.mouseover" end="reset.mouseout"/></use>
  </g>
</defs>
<script type="application/ecmascript">
var viewWidth = 668;
var viewHeight = 116;
var sectionId = 'dynsection-24';
</script>
<script type="application/ecmascript" xlink:href="svg.min.js"/>
<svg id="graph" class="graph">
<g id="viewport">
<title>SERDatabase::recordExists</title>
<!-- Node1 -->
<g id="Node000001" class="node">
<title>Node1</title>
<g id="a_Node000001"><a xlink:title="Check if a record already exists in the database.">
<polygon fill="#999999" stroke="#666666" points="660.25,-80 520.5,-80 520.5,-60 660.25,-60 660.25,-80"/>
<text xml:space="preserve" text-anchor="middle" x="590.38" y="-66.5" font-family="Helvetica,sans-Serif" font-size="10.00">SERDatabase::recordExists</text>
</a>
</g>
</g>
<!-- Node2 -->
<g id="Node000002" class="node">
<title>Node2</title>
<g id="a_Node000002"><a xlink:href="class_s_e_r_database.html#a5a881963cba303144718c7de1203fe51" target="_top" xlink:title="Insert records and return only the newly inserted ones.">
<polygon fill="white" stroke="#666666" points="306.12,-108 164.12,-108 164.12,-76 306.12,-76 306.12,-108"/>
<text xml:space="preserve" text-anchor="start" x="172.12" y="-94.5" font-family="Helvetica,sans-Serif" font-size="10.00">SERDatabase::insertAndGet</text>
<text xml:space="preserve" text-anchor="middle" x="235.12" y="-82.5" font-family="Helvetica,sans-Serif" font-size="10.00">NewRecords</text>
</a>
</g>
</g>
<!-- Node1&#45;&gt;Node2 -->
<g id="edge1_Node000001_Node000002" class="edge">
<title>Node1&#45;&gt;Node2</title>
<g id="a_edge1_Node000001_Node000002"><a xlink:title=" ">
<path fill="none" stroke="#63b8ff" d="M508.88,-75.01C447.9,-78.81 364.91,-83.98 306.54,-87.61"/>
<polygon fill="#63b8ff" stroke="#63b8ff" points="508.73,-78.53 518.5,-74.41 508.3,-71.54 508.73,-78.53"/>
</a>
</g>
</g>
<!-- Node4 -->
<g id="Node000004" class="node">
<title>Node4</title>
<g id="a_Node000004"><a xlink:href="class_s_e_r_database.html#a7af7d201eef0336f5c599c3d05671f18" target="_top" xlink:title="Insert a single SER record into the database.">
<polygon fill="white" stroke="#666666" points="484.5,-61 344,-61 344,-41 484.5,-41 484.5,-61"/>
<text xml:space="preserve" text-anchor="middle" x="414.25" y="-47.5" font-family="Helvetica,sans-Serif" font-size="10.00">SERDatabase::insertRecord</text>
</a>
</g>
</g>
<!-- Node1&#45;&gt;Node4 -->
<g id="edge3_Node000001_Node000004" class="edge">
<title>Node1&#45;&gt;Node4</title>
<g id="a_edge3_Node000001_Node000004"><a xlink:title=" ">
<path fill="none" stroke="#63b8ff" d="M508.83,-61.21C500.84,-60.34 492.77,-59.46 484.9,-58.6"/>
<polygon fill="#63b8ff" stroke="#63b8ff" points="508.23,-64.67 518.55,-62.27 508.99,-57.71 508.23,-64.67"/>
</a>
</g>
</g>
<!-- Node3 -->
<g id="Node000003" class="node">
<title>Node3</title>
<g id="a_Node000003"><a xlink:href="class_s_e_r_database.html#ab9a60e734536bd80a75f9e8bacf86882" target="_top" xlink:title=" ">
<polygon fill="white" stroke="#666666" points="126.25,-58 0,-58 0,-38 126.25,-38 126.25,-58"/>
<text xml:space="preserve" text-anchor="middle" x="63.12" y="-44.5" font-family="Helvetica,sans-Serif" font-size="10.00">SERDatabase::operator=</text>
</a>
</g>
</g>
<!-- Node2&#45;&gt;Node3 -->
<g id="edge2_Node000002_Node000003" class="edge">
<title>Node2&#45;&gt;Node3</title>
<g id="a_edge2_Node000002_Node000003"><a xlink:title=" ">
<path fill="none" stroke="#63b8ff" d="M159.76,-72.75C140.79,-67.84 121.09,-62.74 104.54,-58.46"/>
<polygon fill="#63b8ff" stroke="#63b8ff" points="158.8,-76.12 169.36,-75.24 160.55,-69.34 158.8,-76.12"/>
</a>
</g>
</g>
<!-- Node4&#45;&gt;Node2 -->
<g id="edge4_Node000004_Node000002" class="edge">
<title>Node4&#45;&gt;Node2</title>
<g id="a_edge4_Node000004_Node000002"><a xlink:title=" ">
<path fill="none" stroke="#63b8ff" d="M357.21,-63.97C341.06,-67.71 323.23,-71.84 306.34,-75.75"/>
<polygon fill="#63b8ff" stroke="#63b8ff" points="357.67,-67.46 366.62,-61.79 356.09,-60.64 357.67,-67.46"/>
</a>
</g>
</g>
<!-- Node4&#45;&gt;Node3 -->
<g id="edge8_Node000004_Node000003" class="edge">
<title>Node4&#45;&gt;Node3</title>
<g id="a_edge8_Node000004_Node000003"><a xlink:title=" ">
<path fill="none" stroke="#63b8ff" d="M332.43,-50.31C269.76,-49.77 184.16,-49.03 126.65,-48.54"/>
<polygon fill="#63b8ff" stroke="#63b8ff" points="332.31,-53.8 342.34,-50.39 332.37,-46.8 332.31,-53.8"/>
</a>
</g>
</g>
<!-- Node5 -->
<g id="Node000005" class="node">
<title>Node5</title>
<g id="a_Node000005"><a xlink:href="class_s_e_r_database.html#ac4611fbd8ff79ee0d8ec51cb04a171fc" target="_top" xlink:title="Insert multiple SER records with transaction support.">
<polygon fill="white" stroke="#666666" points="308,-20 162.25,-20 162.25,0 308,0 308,-20"/>
<text xml:space="preserve" text-anchor="middle" x="235.12" y="-6.5" font-family="Helvetica,sans-Serif" font-size="10.00">SERDatabase::insertRecords</text>
</a>
</g>
</g>
<!-- Node4&#45;&gt;Node5 -->
<g id="edge5_Node000004_Node000005" class="edge">
<title>Node4&#45;&gt;Node5</title>
<g id="a_edge5_Node000004_Node000005"><a xlink:title=" ">
<path fill="none" stroke="#63b8ff" d="M357.14,-38.01C332.64,-32.34 304.29,-25.78 281.2,-20.43"/>
<polygon fill="#63b8ff" stroke="#63b8ff" points="356.09,-41.36 366.62,-40.21 357.67,-34.54 356.09,-41.36"/>
</a>
</g>
</g>
<!-- Node5&#45;&gt;Node3 -->
<g id="edge7_Node000005_Node000003" class="edge">
<title>Node5&#45;&gt;Node3</title>
<g id="a_edge7_Node000005_Node000003"><a xlink:title=" ">
<path fill="none" stroke="#63b8ff" d="M176.04,-22.98C154.78,-27.74 131.02,-33.05 110.88,-37.55"/>
<polygon fill="#63b8ff" stroke="#63b8ff" points="176.75,-26.41 185.74,-20.81 175.22,-19.58 176.75,-26.41"/>
</a>
</g>
</g>
<!-- Node6 -->
<g id="Node000006" class="node">
<title>Node6</title>
<g id="a_Node000006"><a xlink:href="struct_poll_ser_action.html#a80290394273450b8c46083cc224c529f" target="_top" xlink:title="Execute SER polling and storage.">
<polygon fill="white" stroke="#666666" points="124.38,-20 1.88,-20 1.88,0 124.38,0 124.38,-20"/>
<text xml:space="preserve" text-anchor="middle" x="63.12" y="-6.5" font-family="Helvetica,sans-Serif" font-size="10.00">PollSerAction::operator()</text>
</a>
</g>
</g>
<!-- Node5&#45;&gt;Node6 -->
<g id="edge6_Node000005_Node000006" class="edge">
<title>Node5&#45;&gt;Node6</title>
<g id="a_edge6_Node000005_Node000006"><a xlink:title=" ">
<path fill="none" stroke="#63b8ff" d="M150.62,-10C141.91,-10 133.18,-10 124.8,-10"/>
<polygon fill="#63b8ff" stroke="#63b8ff" points="150.52,-13.5 160.52,-10 150.52,-6.5 150.52,-13.5"/>
</a>
</g>
</g>
</g>
</svg>

<g id="navigator" transform="translate(0 0)" fill="#404254">
  <rect fill="#f2f5e9" fill-opacity="0.5" stroke="#606060" stroke-width=".5" x="0" y="0" width="60" height="60"/>
  <use id="zoomplus" xlink:href="#zoomPlus" x="17" y="9" onmousedown="handleZoom(evt,'in')"/>
  <use id="zoomminus" xlink:href="#zoomMin" x="42" y="9" onmousedown="handleZoom(evt,'out')"/>
  <use id="reset" xlink:href="#resetDef" x="30" y="36" onmousedown="handleReset()"/>
   <use id="arrowup" xlink:href="#arrowUp" x="0" y="0" onmousedown="handlePan(0,-1)"/>
  <use id="arrowright" xlink:href="#arrowRight" x="0" y="0" onmousedown="handlePan(1,0)"/>
  <use id="arrowdown" xlink:href="#arrowDown" x="0" y="0" onmousedown="handlePan(0,1)"/>
  <use id="arrowleft" xlink:href="#arrowLeft" x="0" y="0" onmousedown="handlePan(-1,0)"/>
</g>
<svg viewBox="0 0 15 15" width="100%" height="30px" preserveAspectRatio="xMaxYMin meet">
 <g id="arrow_out" transform="scale(0.3 0.3)">
  <a xlink:href="class_s_e_r_database_a77ac29d719dfce9ffe151bb73c9295bd_icgraph_org.svg" target="_base">
   <rect id="button" ry="5" rx="5" y="6" x="6" height="38" width="38"
        fill="#f2f5e9" fill-opacity="0.5" stroke="#606060" stroke-width="1.0"/>
   <path id="arrow"
     d="M 11.500037,31.436501 C 11.940474,20.09759 22.043105,11.32322 32.158766,21.979434 L 37.068811,17.246167 C 37.068811,17.246167 37.088388,32 37.088388,32 L 22.160133,31.978069 C 22.160133,31.978069 26.997745,27.140456 26.997745,27.140456 C 18.528582,18.264221 13.291696,25.230495 11.500037,31.436501 z"
     style="fill:#404040;"/>
  </a>
 </g>
</svg>

<style type='text/css'>
<![CDATA[
[data-mouse-over-selected='false'] { opacity: 0.7; }
[data-mouse-over-selected='true']  { opacity: 1.0; }
]]>
</style>
<script type="application/ecmascript"><![CDATA[
document.addEventListener('DOMContentLoaded', (event) => {
  highlightEdges();
  highlightAdjacentNodes();
});
]]></script>
</svg>
