<?xml version="1.0" encoding="UTF-8" standalone="no"?>
<!DOCTYPE svg PUBLIC "-//W3C//DTD SVG 1.1//EN"
 "http://www.w3.org/Graphics/SVG/1.1/DTD/svg11.dtd">
<!-- Generated by graphviz version 14.1.1 (20251213.1925)
 -->
<!-- Title: TimeSyncManager::buildErrorJson Pages: 1 -->
<svg width="720pt" height="53pt"
 viewBox="0.00 0.00 720.00 53.00" xmlns="http://www.w3.org/2000/svg" xmlns:xlink="http://www.w3.org/1999/xlink">
<g id="graph0" class="graph" transform="scale(1 1) rotate(0) translate(4 49)">
<title>TimeSyncManager::buildErrorJson</title>
<!-- Node1 -->
<g id="Node000001" class="node">
<title>Node1</title>
<g id="a_Node000001"><a xlink:title="Build a JSON error response.">
<polygon fill="#999999" stroke="#666666" points="712,-39 546,-39 546,-19 712,-19 712,-39"/>
<text xml:space="preserve" text-anchor="middle" x="629" y="-25.5" font-family="Helvetica,sans-Serif" font-size="10.00">TimeSyncManager::buildErrorJson</text>
</a>
</g>
</g>
<!-- Node2 -->
<g id="Node000002" class="node">
<title>Node2</title>
<g id="a_Node000002"><a xlink:href="class_time_sync_manager.html#ab7e1061ae8a4a1bae60ed0411ff4b825" target="_top" xlink:title="Process a JSON action string from WebSocket and return a JSON response.">
<polygon fill="white" stroke="#666666" points="297.5,-39 137.5,-39 137.5,-19 297.5,-19 297.5,-39"/>
<text xml:space="preserve" text-anchor="middle" x="217.5" y="-25.5" font-family="Helvetica,sans-Serif" font-size="10.00">TimeSyncManager::handleAction</text>
</a>
</g>
</g>
<!-- Node1&#45;&gt;Node2 -->
<g id="edge1_Node000001_Node000002" class="edge">
<title>Node1&#45;&gt;Node2</title>
<g id="a_edge1_Node000001_Node000002"><a xlink:title=" ">
<path fill="none" stroke="#63b8ff" d="M534.39,-29C462.96,-29 365.63,-29 297.96,-29"/>
<polygon fill="#63b8ff" stroke="#63b8ff" points="534.11,-32.5 544.11,-29 534.11,-25.5 534.11,-32.5"/>
</a>
</g>
</g>
<!-- Node4 -->
<g id="Node000004" class="node">
<title>Node4</title>
<g id="a_Node000004"><a xlink:href="class_time_sync_manager.html#ab03b40ab388284d44f5a30a63fa0f432" target="_top" xlink:title="Handle the &quot;sync_time&quot; action.">
<polygon fill="white" stroke="#666666" points="510,-20 333.5,-20 333.5,0 510,0 510,-20"/>
<text xml:space="preserve" text-anchor="middle" x="421.75" y="-6.5" font-family="Helvetica,sans-Serif" font-size="10.00">TimeSyncManager::handleSyncTime</text>
</a>
</g>
</g>
<!-- Node1&#45;&gt;Node4 -->
<g id="edge3_Node000001_Node000004" class="edge">
<title>Node1&#45;&gt;Node4</title>
<g id="a_edge3_Node000001_Node000004"><a xlink:title=" ">
<path fill="none" stroke="#63b8ff" d="M534.46,-20.34C526.47,-19.6 518.39,-18.85 510.45,-18.12"/>
<polygon fill="#63b8ff" stroke="#63b8ff" points="533.91,-23.81 544.19,-21.24 534.56,-16.83 533.91,-23.81"/>
</a>
</g>
</g>
<!-- Node3 -->
<g id="Node000003" class="node">
<title>Node3</title>
<g id="a_Node000003"><a xlink:href="class_telnet_sml_app_1_1_impl.html#a64957945d93500acea2140ec59b07802" target="_top" xlink:title="Starts all application components.">
<polygon fill="white" stroke="#666666" points="101.5,-45 0,-45 0,-13 101.5,-13 101.5,-45"/>
<text xml:space="preserve" text-anchor="start" x="8" y="-31.5" font-family="Helvetica,sans-Serif" font-size="10.00">TelnetSmlApp::Impl</text>
<text xml:space="preserve" text-anchor="middle" x="50.75" y="-19.5" font-family="Helvetica,sans-Serif" font-size="10.00">::start</text>
</a>
</g>
</g>
<!-- Node2&#45;&gt;Node3 -->
<g id="edge2_Node000002_Node000003" class="edge">
<title>Node2&#45;&gt;Node3</title>
<g id="a_edge2_Node000002_Node000003"><a xlink:title=" ">
<path fill="none" stroke="#63b8ff" d="M125.76,-29C117.54,-29 109.43,-29 101.76,-29"/>
<polygon fill="#63b8ff" stroke="#63b8ff" points="125.51,-32.5 135.51,-29 125.51,-25.5 125.51,-32.5"/>
</a>
</g>
</g>
<!-- Node4&#45;&gt;Node2 -->
<g id="edge4_Node000004_Node000002" class="edge">
<title>Node4&#45;&gt;Node2</title>
<g id="a_edge4_Node000004_Node000002"><a xlink:title=" ">
<path fill="none" stroke="#63b8ff" d="M321.88,-19.29C313.83,-20.04 305.77,-20.8 297.89,-21.54"/>
<polygon fill="#63b8ff" stroke="#63b8ff" points="322.08,-22.78 331.71,-18.36 321.43,-15.82 322.08,-22.78"/>
</a>
</g>
</g>
</g>
</svg>
