<?xml version="1.0" encoding="UTF-8" standalone="no"?>
<!DOCTYPE svg PUBLIC "-//W3C//DTD SVG 1.1//EN"
 "http://www.w3.org/Graphics/SVG/1.1/DTD/svg11.dtd">
<!-- Generated by graphviz version 14.1.1 (20251213.1925)
 -->
<!-- Title: RelayPipeline::RelayPipeline Pages: 1 -->
<svg width="328pt" height="66pt"
 viewBox="0.00 0.00 328.00 66.00" xmlns="http://www.w3.org/2000/svg" xmlns:xlink="http://www.w3.org/1999/xlink">
<g id="graph0" class="graph" transform="scale(1 1) rotate(0) translate(4 62)">
<title>RelayPipeline::RelayPipeline</title>
<!-- Node1 -->
<g id="Node000001" class="node">
<title>Node1</title>
<g id="a_Node000001"><a xlink:title="Construct a pipeline for a specific relay.">
<polygon fill="#999999" stroke="#666666" points="320,-39 178,-39 178,-19 320,-19 320,-39"/>
<text xml:space="preserve" text-anchor="middle" x="249" y="-25.5" font-family="Helvetica,sans-Serif" font-size="10.00">RelayPipeline::RelayPipeline</text>
</a>
</g>
</g>
<!-- Node2 -->
<g id="Node000002" class="node">
<title>Node2</title>
<g id="a_Node000002"><a xlink:href="class_relay_pipeline.html#a4c7e835844d40ea6c0884c656a811245" target="_top" xlink:title=" ">
<polygon fill="white" stroke="#666666" points="132.62,-58 9.38,-58 9.38,-38 132.62,-38 132.62,-58"/>
<text xml:space="preserve" text-anchor="middle" x="71" y="-44.5" font-family="Helvetica,sans-Serif" font-size="10.00">RelayPipeline::operator=</text>
</a>
</g>
</g>
<!-- Node1&#45;&gt;Node2 -->
<g id="edge1_Node000001_Node000002" class="edge">
<title>Node1&#45;&gt;Node2</title>
<g id="a_edge1_Node000001_Node000002"><a xlink:title=" ">
<path fill="none" stroke="#63b8ff" d="M166.52,-37.8C155.28,-39.01 143.91,-40.24 133.12,-41.4"/>
<polygon fill="#63b8ff" stroke="#63b8ff" points="166.61,-41.31 176.18,-36.75 165.86,-34.35 166.61,-41.31"/>
</a>
</g>
</g>
<!-- Node3 -->
<g id="Node000003" class="node">
<title>Node3</title>
<g id="a_Node000003"><a xlink:href="class_relay_pipeline.html#a57728b97977a96c4e6709d1a43af5f68" target="_top" xlink:title="Non&#45;copyable, non&#45;movable (owns threads).">
<polygon fill="white" stroke="#666666" points="142,-20 0,-20 0,0 142,0 142,-20"/>
<text xml:space="preserve" text-anchor="middle" x="71" y="-6.5" font-family="Helvetica,sans-Serif" font-size="10.00">RelayPipeline::RelayPipeline</text>
</a>
</g>
</g>
<!-- Node1&#45;&gt;Node3 -->
<g id="edge2_Node000001_Node000003" class="edge">
<title>Node1&#45;&gt;Node3</title>
<g id="a_edge2_Node000001_Node000003"><a xlink:title=" ">
<path fill="none" stroke="#63b8ff" d="M166.45,-20.2C158.44,-19.33 150.37,-18.46 142.49,-17.61"/>
<polygon fill="#63b8ff" stroke="#63b8ff" points="165.86,-23.65 176.18,-21.25 166.61,-16.69 165.86,-23.65"/>
</a>
</g>
</g>
</g>
</svg>
