<?xml version="1.0" encoding="UTF-8" standalone="no"?>
<!DOCTYPE svg PUBLIC "-//W3C//DTD SVG 1.1//EN"
 "http://www.w3.org/Graphics/SVG/1.1/DTD/svg11.dtd">
<!-- Generated by graphviz version 14.1.2 (20260124.0452)
 -->
<!-- Title: RelayService Pages: 1 -->
<svg width="206pt" height="645pt"
 viewBox="0.00 0.00 206.00 645.00" xmlns="http://www.w3.org/2000/svg" xmlns:xlink="http://www.w3.org/1999/xlink">
<g id="graph0" class="graph" transform="scale(1 1) rotate(0) translate(4 641)">
<title>RelayService</title>
<!-- Node1 -->
<g id="Node000001" class="node">
<title>Node1</title>
<g id="a_Node000001"><a xlink:title="Thread&#45;safe wrapper around TelnetClient for DATE operations.">
<polygon fill="#999999" stroke="none" points="174,-116 58.5,-116 58.5,0 174,0 174,-116"/>
<text xml:space="preserve" text-anchor="start" x="87" y="-102.5" font-family="Helvetica,sans-Serif" font-size="10.00">RelayService</text>
<text xml:space="preserve" text-anchor="start" x="114.75" y="-86.5" font-family="Helvetica,sans-Serif" font-size="10.00"> </text>
<text xml:space="preserve" text-anchor="start" x="62.5" y="-70.5" font-family="Helvetica,sans-Serif" font-size="10.00">+</text>
<text xml:space="preserve" text-anchor="start" x="72.5" y="-70.5" font-family="Helvetica,sans-Serif" font-size="10.00">RelayService()</text>
<text xml:space="preserve" text-anchor="start" x="62.5" y="-54.5" font-family="Helvetica,sans-Serif" font-size="10.00">+</text>
<text xml:space="preserve" text-anchor="start" x="72.5" y="-54.5" font-family="Helvetica,sans-Serif" font-size="10.00">readRelayTime()</text>
<text xml:space="preserve" text-anchor="start" x="62.5" y="-38.5" font-family="Helvetica,sans-Serif" font-size="10.00">+</text>
<text xml:space="preserve" text-anchor="start" x="72.5" y="-38.5" font-family="Helvetica,sans-Serif" font-size="10.00">syncRelayTime()</text>
<text xml:space="preserve" text-anchor="start" x="62.5" y="-22.5" font-family="Helvetica,sans-Serif" font-size="10.00">+</text>
<text xml:space="preserve" text-anchor="start" x="72.5" y="-22.5" font-family="Helvetica,sans-Serif" font-size="10.00">sendRelayCommand()</text>
<text xml:space="preserve" text-anchor="start" x="64" y="-6.5" font-family="Helvetica,sans-Serif" font-size="10.00">&#45;</text>
<text xml:space="preserve" text-anchor="start" x="72.5" y="-6.5" font-family="Helvetica,sans-Serif" font-size="10.00">cleanRelayText()</text>
<polygon fill="#666666" stroke="#666666" points="58.5,-98 58.5,-98 174,-98 174,-98 58.5,-98"/>
<polygon fill="#666666" stroke="#666666" points="58.5,-82 58.5,-82 174,-82 174,-82 58.5,-82"/>
<polygon fill="none" stroke="#666666" points="58.5,0 58.5,-116 174,-116 174,0 58.5,0"/>
</a>
</g>
</g>
<!-- Node2 -->
<g id="Node000002" class="node">
<title>Node2</title>
<g id="a_Node000002"><a xlink:href="class_telnet_client.html" target="_top" xlink:title="TCP/Telnet client for substation relay communication.">
<polygon fill="white" stroke="none" points="124.5,-430 0,-430 0,-170 124.5,-170 124.5,-430"/>
<text xml:space="preserve" text-anchor="start" x="36.38" y="-416.5" font-family="Helvetica,sans-Serif" font-size="10.00">TelnetClient</text>
<text xml:space="preserve" text-anchor="start" x="5.5" y="-400.5" font-family="Helvetica,sans-Serif" font-size="10.00">&#45;</text>
<text xml:space="preserve" text-anchor="start" x="14" y="-400.5" font-family="Helvetica,sans-Serif" font-size="10.00">io_</text>
<text xml:space="preserve" text-anchor="start" x="5.5" y="-384.5" font-family="Helvetica,sans-Serif" font-size="10.00">&#45;</text>
<text xml:space="preserve" text-anchor="start" x="14" y="-384.5" font-family="Helvetica,sans-Serif" font-size="10.00">socket_</text>
<text xml:space="preserve" text-anchor="start" x="5.5" y="-368.5" font-family="Helvetica,sans-Serif" font-size="10.00">&#45;</text>
<text xml:space="preserve" text-anchor="start" x="14" y="-368.5" font-family="Helvetica,sans-Serif" font-size="10.00">connected_</text>
<text xml:space="preserve" text-anchor="start" x="5.5" y="-352.5" font-family="Helvetica,sans-Serif" font-size="10.00">&#45;</text>
<text xml:space="preserve" text-anchor="start" x="14" y="-352.5" font-family="Helvetica,sans-Serif" font-size="10.00">last_io_ok_</text>
<text xml:space="preserve" text-anchor="start" x="5.5" y="-336.5" font-family="Helvetica,sans-Serif" font-size="10.00">&#45;</text>
<text xml:space="preserve" text-anchor="start" x="14" y="-336.5" font-family="Helvetica,sans-Serif" font-size="10.00">io_timeout_</text>
<text xml:space="preserve" text-anchor="start" x="4" y="-320.5" font-family="Helvetica,sans-Serif" font-size="10.00">+</text>
<text xml:space="preserve" text-anchor="start" x="14" y="-320.5" font-family="Helvetica,sans-Serif" font-size="10.00">TelnetClient()</text>
<text xml:space="preserve" text-anchor="start" x="4" y="-304.5" font-family="Helvetica,sans-Serif" font-size="10.00">+</text>
<text xml:space="preserve" text-anchor="start" x="14" y="-304.5" font-family="Helvetica,sans-Serif" font-size="10.00">connectCheck()</text>
<text xml:space="preserve" text-anchor="start" x="4" y="-288.5" font-family="Helvetica,sans-Serif" font-size="10.00">+</text>
<text xml:space="preserve" text-anchor="start" x="14" y="-288.5" font-family="Helvetica,sans-Serif" font-size="10.00">isConnected()</text>
<text xml:space="preserve" text-anchor="start" x="4" y="-272.5" font-family="Helvetica,sans-Serif" font-size="10.00">+</text>
<text xml:space="preserve" text-anchor="start" x="14" y="-272.5" font-family="Helvetica,sans-Serif" font-size="10.00">SendCmdReceiveData()</text>
<text xml:space="preserve" text-anchor="start" x="4" y="-256.5" font-family="Helvetica,sans-Serif" font-size="10.00">+</text>
<text xml:space="preserve" text-anchor="start" x="14" y="-256.5" font-family="Helvetica,sans-Serif" font-size="10.00">LoginLevel1Function()</text>
<text xml:space="preserve" text-anchor="start" x="4" y="-240.5" font-family="Helvetica,sans-Serif" font-size="10.00">+</text>
<text xml:space="preserve" text-anchor="start" x="14" y="-240.5" font-family="Helvetica,sans-Serif" font-size="10.00">getLastResponse()</text>
<text xml:space="preserve" text-anchor="start" x="4" y="-224.5" font-family="Helvetica,sans-Serif" font-size="10.00">+</text>
<text xml:space="preserve" text-anchor="start" x="14" y="-224.5" font-family="Helvetica,sans-Serif" font-size="10.00">getLastIoResult()</text>
<text xml:space="preserve" text-anchor="start" x="4" y="-208.5" font-family="Helvetica,sans-Serif" font-size="10.00">+</text>
<text xml:space="preserve" text-anchor="start" x="14" y="-208.5" font-family="Helvetica,sans-Serif" font-size="10.00">clearLastResponse()</text>
<text xml:space="preserve" text-anchor="start" x="5.5" y="-192.5" font-family="Helvetica,sans-Serif" font-size="10.00">&#45;</text>
<text xml:space="preserve" text-anchor="start" x="14" y="-192.5" font-family="Helvetica,sans-Serif" font-size="10.00">isResponseComplete()</text>
<text xml:space="preserve" text-anchor="start" x="5.5" y="-176.5" font-family="Helvetica,sans-Serif" font-size="10.00">&#45;</text>
<text xml:space="preserve" text-anchor="start" x="14" y="-176.5" font-family="Helvetica,sans-Serif" font-size="10.00">endsWithPrompt()</text>
<polygon fill="#666666" stroke="#666666" points="0,-412 0,-412 124.5,-412 124.5,-412 0,-412"/>
<polygon fill="#666666" stroke="#666666" points="0,-332 0,-332 12,-332 12,-332 0,-332"/>
<polygon fill="#666666" stroke="#666666" points="12,-332 12,-332 124.5,-332 124.5,-332 12,-332"/>
<polygon fill="none" stroke="#666666" points="0,-170 0,-430 124.5,-430 124.5,-170 0,-170"/>
</a>
</g>
</g>
<!-- Node2&#45;&gt;Node1 -->
<g id="edge1_Node000001_Node000002" class="edge">
<title>Node2&#45;&gt;Node1</title>
<g id="a_edge1_Node000001_Node000002"><a xlink:title=" ">
<path fill="none" stroke="#63b8ff" d="M91.23,-170.22C94.47,-155.81 97.67,-141.57 100.65,-128.33"/>
<polygon fill="none" stroke="#63b8ff" points="100.6,-128.57 98.01,-121.84 103.23,-116.86 105.82,-123.59 100.6,-128.57"/>
</a>
</g>
<text xml:space="preserve" text-anchor="start" x="101.78" y="-139.5" font-family="Helvetica,sans-Serif" font-size="10.00" fill="grey">&#45;client_</text>
</g>
<!-- Node3 -->
<g id="Node000003" class="node">
<title>Node3</title>
<g id="a_Node000003"><a xlink:title=" ">
<polygon fill="white" stroke="none" points="88,-536 36.5,-536 36.5,-484 88,-484 88,-536"/>
<text xml:space="preserve" text-anchor="start" x="40.5" y="-522.5" font-family="Helvetica,sans-Serif" font-size="10.00">std::string</text>
<text xml:space="preserve" text-anchor="start" x="60.75" y="-506.5" font-family="Helvetica,sans-Serif" font-size="10.00"> </text>
<text xml:space="preserve" text-anchor="start" x="60.75" y="-490.5" font-family="Helvetica,sans-Serif" font-size="10.00"> </text>
<polygon fill="#666666" stroke="#666666" points="36.5,-518 36.5,-518 88,-518 88,-518 36.5,-518"/>
<polygon fill="#666666" stroke="#666666" points="36.5,-502 36.5,-502 88,-502 88,-502 36.5,-502"/>
<polygon fill="none" stroke="#666666" points="36.5,-484 36.5,-536 88,-536 88,-484 36.5,-484"/>
</a>
</g>
</g>
<!-- Node3&#45;&gt;Node2 -->
<g id="edge2_Node000002_Node000003" class="edge">
<title>Node3&#45;&gt;Node2</title>
<g id="a_edge2_Node000002_Node000003"><a xlink:title=" ">
<path fill="none" stroke="#63b8ff" d="M62.25,-484.32C62.25,-472.94 62.25,-458.45 62.25,-442.61"/>
<polygon fill="none" stroke="#63b8ff" points="62.25,-442.55 58.25,-436.55 62.25,-430.55 66.25,-436.55 62.25,-442.55"/>
</a>
</g>
<text xml:space="preserve" text-anchor="start" x="65.25" y="-453.5" font-family="Helvetica,sans-Serif" font-size="10.00" fill="grey">&#45;last_response_</text>
</g>
<!-- Node4 -->
<g id="Node000004" class="node">
<title>Node4</title>
<g id="a_Node000004"><a xlink:title=" ">
<polygon fill="white" stroke="none" points="105.25,-637 19.25,-637 19.25,-573 105.25,-573 105.25,-637"/>
<text xml:space="preserve" text-anchor="start" x="23.25" y="-623.5" font-family="Helvetica,sans-Serif" font-size="10.00">std::basic_string&lt;</text>
<text xml:space="preserve" text-anchor="start" x="45.75" y="-611.5" font-family="Helvetica,sans-Serif" font-size="10.00"> Char &gt;</text>
<text xml:space="preserve" text-anchor="start" x="60.75" y="-595.5" font-family="Helvetica,sans-Serif" font-size="10.00"> </text>
<text xml:space="preserve" text-anchor="start" x="60.75" y="-579.5" font-family="Helvetica,sans-Serif" font-size="10.00"> </text>
<polygon fill="#666666" stroke="#666666" points="19.25,-607 19.25,-607 105.25,-607 105.25,-607 19.25,-607"/>
<polygon fill="#666666" stroke="#666666" points="19.25,-591 19.25,-591 105.25,-591 105.25,-591 19.25,-591"/>
<polygon fill="none" stroke="#666666" points="19.25,-573 19.25,-637 105.25,-637 105.25,-573 19.25,-573"/>
</a>
</g>
</g>
<!-- Node4&#45;&gt;Node3 -->
<g id="edge3_Node000003_Node000004" class="edge">
<title>Node4&#45;&gt;Node3</title>
<g id="a_edge3_Node000003_Node000004"><a xlink:title=" ">
<path fill="none" stroke="#63b8ff" d="M62.25,-561.69C62.25,-552.89 62.25,-543.89 62.25,-535.96"/>
<polygon fill="none" stroke="#63b8ff" points="58.75,-561.52 62.25,-571.52 65.75,-561.52 58.75,-561.52"/>
</a>
</g>
</g>
<!-- Node5 -->
<g id="Node000005" class="node">
<title>Node5</title>
<g id="a_Node000005"><a xlink:title=" ">
<polygon fill="white" stroke="none" points="197.5,-326 143,-326 143,-274 197.5,-274 197.5,-326"/>
<text xml:space="preserve" text-anchor="start" x="147" y="-312.5" font-family="Helvetica,sans-Serif" font-size="10.00">std::mutex</text>
<text xml:space="preserve" text-anchor="start" x="168.75" y="-296.5" font-family="Helvetica,sans-Serif" font-size="10.00"> </text>
<text xml:space="preserve" text-anchor="start" x="168.75" y="-280.5" font-family="Helvetica,sans-Serif" font-size="10.00"> </text>
<polygon fill="#666666" stroke="#666666" points="143,-308 143,-308 197.5,-308 197.5,-308 143,-308"/>
<polygon fill="#666666" stroke="#666666" points="143,-292 143,-292 197.5,-292 197.5,-292 143,-292"/>
<polygon fill="none" stroke="#666666" points="143,-274 143,-326 197.5,-326 197.5,-274 143,-274"/>
</a>
</g>
</g>
<!-- Node5&#45;&gt;Node1 -->
<g id="edge4_Node000001_Node000005" class="edge">
<title>Node5&#45;&gt;Node1</title>
<g id="a_edge4_Node000001_Node000005"><a xlink:title=" ">
<path fill="none" stroke="#63b8ff" d="M166.77,-274.19C161.97,-241.71 152.53,-183.15 140.25,-134 139.76,-132.04 139.25,-130.06 138.72,-128.06"/>
<polygon fill="none" stroke="#63b8ff" points="138.73,-128.12 133.26,-123.42 135.49,-116.57 140.96,-121.26 138.73,-128.12"/>
</a>
</g>
<text xml:space="preserve" text-anchor="start" x="147.46" y="-139.5" font-family="Helvetica,sans-Serif" font-size="10.00" fill="grey">&#45;mutex_</text>
</g>
</g>
</svg>
