<?xml version="1.0" encoding="UTF-8" standalone="no"?>
<!DOCTYPE svg PUBLIC "-//W3C//DTD SVG 1.1//EN"
 "http://www.w3.org/Graphics/SVG/1.1/DTD/svg11.dtd">
<!-- Generated by graphviz version 14.1.2 (20260124.0452)
 -->
<!-- Title: WebSocketSession::on_read Pages: 1 -->
<svg width="979pt" height="84pt"
 viewBox="0.00 0.00 979.00 84.00" xmlns="http://www.w3.org/2000/svg" xmlns:xlink="http://www.w3.org/1999/xlink">
<g id="graph0" class="graph" transform="scale(1 1) rotate(0) translate(4 80)">
<title>WebSocketSession::on_read</title>
<!-- Node1 -->
<g id="Node000001" class="node">
<title>Node1</title>
<g id="a_Node000001"><a xlink:title="Handle received client message.">
<polygon fill="#999999" stroke="#666666" points="970.5,-67 828.5,-67 828.5,-47 970.5,-47 970.5,-67"/>
<text xml:space="preserve" text-anchor="middle" x="899.5" y="-53.5" font-family="Helvetica,sans-Serif" font-size="10.00">WebSocketSession::on_read</text>
</a>
</g>
</g>
<!-- Node2 -->
<g id="Node000002" class="node">
<title>Node2</title>
<g id="a_Node000002"><a xlink:href="class_web_socket_session.html#a2bc079950c2e39e8ff745f0da57646ba" target="_top" xlink:title="Initiate async read for next client message.">
<polygon fill="white" stroke="#666666" points="792.5,-67 650.5,-67 650.5,-47 792.5,-47 792.5,-67"/>
<text xml:space="preserve" text-anchor="middle" x="721.5" y="-53.5" font-family="Helvetica,sans-Serif" font-size="10.00">WebSocketSession::do_read</text>
</a>
</g>
</g>
<!-- Node1&#45;&gt;Node2 -->
<g id="edge1_Node000001_Node000002" class="edge">
<title>Node1&#45;&gt;Node2</title>
<g id="a_edge1_Node000001_Node000002"><a xlink:title=" ">
<path fill="none" stroke="#63b8ff" d="M816.67,-50.26C808.76,-50.23 800.78,-50.26 792.99,-50.37"/>
<polygon fill="#63b8ff" stroke="#63b8ff" points="816.64,-53.76 826.67,-50.36 816.7,-46.76 816.64,-53.76"/>
</a>
</g>
</g>
<!-- Node2&#45;&gt;Node1 -->
<g id="edge2_Node000002_Node000001" class="edge">
<title>Node2&#45;&gt;Node1</title>
<g id="a_edge2_Node000002_Node000001"><a xlink:title=" ">
<path fill="none" stroke="#63b8ff" d="M804.23,-63.73C812.24,-63.77 820.31,-63.74 828.18,-63.63"/>
<polygon fill="#63b8ff" stroke="#63b8ff" points="804.54,-60.24 794.51,-63.64 804.47,-67.24 804.54,-60.24"/>
</a>
</g>
</g>
<!-- Node3 -->
<g id="Node000003" class="node">
<title>Node3</title>
<g id="a_Node000003"><a xlink:href="class_web_socket_session.html#a0fed81151d5dcbe23dbee79f1bf12c66" target="_top" xlink:title="Handle write completion.">
<polygon fill="white" stroke="#666666" points="614.5,-76 496.5,-76 496.5,-44 614.5,-44 614.5,-76"/>
<text xml:space="preserve" text-anchor="start" x="504.5" y="-62.5" font-family="Helvetica,sans-Serif" font-size="10.00">WebSocketSession::on</text>
<text xml:space="preserve" text-anchor="middle" x="555.5" y="-50.5" font-family="Helvetica,sans-Serif" font-size="10.00">_write</text>
</a>
</g>
</g>
<!-- Node2&#45;&gt;Node3 -->
<g id="edge3_Node000002_Node000003" class="edge">
<title>Node2&#45;&gt;Node3</title>
<g id="a_edge3_Node000002_Node000003"><a xlink:title=" ">
<path fill="none" stroke="#63b8ff" d="M639.02,-58.49C630.9,-58.64 622.77,-58.79 614.95,-58.93"/>
<polygon fill="#63b8ff" stroke="#63b8ff" points="639.03,-61.99 648.96,-58.31 638.9,-54.99 639.03,-61.99"/>
</a>
</g>
</g>
<!-- Node4 -->
<g id="Node000004" class="node">
<title>Node4</title>
<g id="a_Node000004"><a xlink:href="class_web_socket_session.html#a2529887f34770366fc2c225bd085edba" target="_top" xlink:title="Send current database records to client as JSON.">
<polygon fill="white" stroke="#666666" points="460.5,-26 311,-26 311,-6 460.5,-6 460.5,-26"/>
<text xml:space="preserve" text-anchor="middle" x="385.75" y="-12.5" font-family="Helvetica,sans-Serif" font-size="10.00">WebSocketSession::sendData</text>
</a>
</g>
</g>
<!-- Node3&#45;&gt;Node4 -->
<g id="edge4_Node000003_Node000004" class="edge">
<title>Node3&#45;&gt;Node4</title>
<g id="a_edge4_Node000003_Node000004"><a xlink:title=" ">
<path fill="none" stroke="#63b8ff" d="M485.22,-41.51C476.9,-39.31 468.51,-37.1 460.5,-35 449.88,-32.22 438.4,-29.25 427.72,-26.5"/>
<polygon fill="#63b8ff" stroke="#63b8ff" points="484.08,-44.83 494.64,-44.01 485.87,-38.06 484.08,-44.83"/>
</a>
</g>
</g>
<!-- Node7 -->
<g id="Node000007" class="node">
<title>Node7</title>
<g id="a_Node000007"><a xlink:href="class_web_socket_session.html#a6c789e228fc7a6101f1e586dc67ad8da" target="_top" xlink:title="Send a plain text response to this client (for FIL DIR etc.)">
<polygon fill="white" stroke="#666666" points="459.38,-76 312.12,-76 312.12,-44 459.38,-44 459.38,-76"/>
<text xml:space="preserve" text-anchor="start" x="320.12" y="-62.5" font-family="Helvetica,sans-Serif" font-size="10.00">WebSocketSession::sendText</text>
<text xml:space="preserve" text-anchor="middle" x="385.75" y="-50.5" font-family="Helvetica,sans-Serif" font-size="10.00">Response</text>
</a>
</g>
</g>
<!-- Node3&#45;&gt;Node7 -->
<g id="edge8_Node000003_Node000007" class="edge">
<title>Node3&#45;&gt;Node7</title>
<g id="a_edge8_Node000003_Node000007"><a xlink:title=" ">
<path fill="none" stroke="#63b8ff" d="M485.02,-60C476.64,-60 468.06,-60 459.63,-60"/>
<polygon fill="#63b8ff" stroke="#63b8ff" points="484.79,-63.5 494.79,-60 484.79,-56.5 484.79,-63.5"/>
</a>
</g>
</g>
<!-- Node4&#45;&gt;Node1 -->
<g id="edge7_Node000004_Node000001" class="edge">
<title>Node4&#45;&gt;Node1</title>
<g id="a_edge7_Node000004_Node000001"><a xlink:title=" ">
<path fill="none" stroke="#63b8ff" d="M471.95,-17.57C554.23,-19.81 682.24,-25.18 792.5,-38 810.51,-40.09 830.09,-43.33 847.47,-46.54"/>
<polygon fill="#63b8ff" stroke="#63b8ff" points="472.25,-14.08 462.16,-17.32 472.07,-21.08 472.25,-14.08"/>
</a>
</g>
</g>
<!-- Node5 -->
<g id="Node000005" class="node">
<title>Node5</title>
<g id="a_Node000005"><a xlink:href="class_web_socket_session.html#a7b82f2e9c71f6822c2d2f6dcc1a251c5" target="_top" xlink:title="Handle WebSocket handshake completion.">
<polygon fill="white" stroke="#666666" points="275,-32 157,-32 157,0 275,0 275,-32"/>
<text xml:space="preserve" text-anchor="start" x="165" y="-18.5" font-family="Helvetica,sans-Serif" font-size="10.00">WebSocketSession::on</text>
<text xml:space="preserve" text-anchor="middle" x="216" y="-6.5" font-family="Helvetica,sans-Serif" font-size="10.00">_accept</text>
</a>
</g>
</g>
<!-- Node4&#45;&gt;Node5 -->
<g id="edge5_Node000004_Node000005" class="edge">
<title>Node4&#45;&gt;Node5</title>
<g id="a_edge5_Node000004_Node000005"><a xlink:title=" ">
<path fill="none" stroke="#63b8ff" d="M299.25,-16C291.15,-16 283.07,-16 275.31,-16"/>
<polygon fill="#63b8ff" stroke="#63b8ff" points="299.17,-19.5 309.17,-16 299.17,-12.5 299.17,-19.5"/>
</a>
</g>
</g>
<!-- Node6 -->
<g id="Node000006" class="node">
<title>Node6</title>
<g id="a_Node000006"><a xlink:href="class_web_socket_session.html#aa60a520432526e90b74fd97713469a56" target="_top" xlink:title="Start the session by accepting WebSocket handshake.">
<polygon fill="white" stroke="#666666" points="121,-26 0,-26 0,-6 121,-6 121,-26"/>
<text xml:space="preserve" text-anchor="middle" x="60.5" y="-12.5" font-family="Helvetica,sans-Serif" font-size="10.00">WebSocketSession::run</text>
</a>
</g>
</g>
<!-- Node5&#45;&gt;Node6 -->
<g id="edge6_Node000005_Node000006" class="edge">
<title>Node5&#45;&gt;Node6</title>
<g id="a_edge6_Node000005_Node000006"><a xlink:title=" ">
<path fill="none" stroke="#63b8ff" d="M145.04,-16C137.12,-16 129.11,-16 121.33,-16"/>
<polygon fill="#63b8ff" stroke="#63b8ff" points="145.02,-19.5 155.02,-16 145.02,-12.5 145.02,-19.5"/>
</a>
</g>
</g>
</g>
</svg>
