<?xml version="1.0" encoding="UTF-8" standalone="no"?>
<!DOCTYPE svg PUBLIC "-//W3C//DTD SVG 1.1//EN"
 "http://www.w3.org/Graphics/SVG/1.1/DTD/svg11.dtd">
<!-- Generated by graphviz version 14.1.2 (20260124.0452)
 -->
<!-- Title: client.hpp Pages: 1 -->
<svg width="304pt" height="84pt"
 viewBox="0.00 0.00 304.00 84.00" xmlns="http://www.w3.org/2000/svg" xmlns:xlink="http://www.w3.org/1999/xlink">

<svg id="main" version="1.1" xmlns="http://www.w3.org/2000/svg" xmlns:xlink="http://www.w3.org/1999/xlink" xml:space="preserve">

<style type="text/css"><![CDATA[
.node, .edge {opacity: 0.7;}
.node.selected, .edge.selected {opacity: 1;}
.edge:hover path { stroke: red; }
.edge:hover polygon { stroke: red; fill: red; }
]]></style>
<script type="application/ecmascript" xlink:href="svg.min.js"/>
<svg id="graph" class="graph">
<g id="graph0" class="graph" transform="scale(1 1) rotate(0) translate(4 80)">
<title>client.hpp</title>
<!-- Node1 -->
<g id="Node000001" class="node">
<title>Node1</title>
<g id="a_Node000001"><a xlink:title="Telnet Client for Substation Communication.">
<polygon fill="#999999" stroke="#666666" points="202.38,-76 144.38,-76 144.38,-56 202.38,-56 202.38,-76"/>
<text xml:space="preserve" text-anchor="middle" x="173.38" y="-62.5" font-family="Helvetica,sans-Serif" font-size="10.00">client.hpp</text>
</a>
</g>
</g>
<!-- Node2 -->
<g id="Node000002" class="node">
<title>Node2</title>
<g id="a_Node000002"><a xlink:href="dll__export_8hpp.html" target="_top" xlink:title="DLL Export/Import Macros for Windows.">
<polygon fill="white" stroke="#666666" points="76.75,-20 0,-20 0,0 76.75,0 76.75,-20"/>
<text xml:space="preserve" text-anchor="middle" x="38.38" y="-6.5" font-family="Helvetica,sans-Serif" font-size="10.00">dll_export.hpp</text>
</a>
</g>
</g>
<!-- Node1&#45;&gt;Node2 -->
<g id="edge1_Node000001_Node000002" class="edge">
<title>Node1&#45;&gt;Node2</title>
<g id="a_edge1_Node000001_Node000002"><a xlink:title=" ">
<path fill="none" stroke="#63b8ff" d="M149.86,-55.59C128.5,-47.05 96.74,-34.35 72.58,-24.68"/>
<polygon fill="#63b8ff" stroke="#63b8ff" points="74.06,-21.51 63.48,-21.04 71.46,-28.01 74.06,-21.51"/>
</a>
</g>
</g>
<!-- Node3 -->
<g id="Node000003" class="node">
<title>Node3</title>
<g id="a_Node000003"><a xlink:title=" ">
<polygon fill="#e0e0e0" stroke="#999999" points="174.25,-20 94.5,-20 94.5,0 174.25,0 174.25,-20"/>
<text xml:space="preserve" text-anchor="middle" x="134.38" y="-6.5" font-family="Helvetica,sans-Serif" font-size="10.00">boost/asio.hpp</text>
</a>
</g>
</g>
<!-- Node1&#45;&gt;Node3 -->
<g id="edge2_Node000001_Node000003" class="edge">
<title>Node1&#45;&gt;Node3</title>
<g id="a_edge2_Node000001_Node000003"><a xlink:title=" ">
<path fill="none" stroke="#63b8ff" d="M166.58,-55.59C161.38,-48.39 154.04,-38.23 147.69,-29.43"/>
<polygon fill="#63b8ff" stroke="#63b8ff" points="150.67,-27.58 141.98,-21.53 144.99,-31.68 150.67,-27.58"/>
</a>
</g>
</g>
<!-- Node4 -->
<g id="Node000004" class="node">
<title>Node4</title>
<g id="a_Node000004"><a xlink:title=" ">
<polygon fill="#e0e0e0" stroke="#999999" points="232.38,-20 192.38,-20 192.38,0 232.38,0 232.38,-20"/>
<text xml:space="preserve" text-anchor="middle" x="212.38" y="-6.5" font-family="Helvetica,sans-Serif" font-size="10.00">string</text>
</a>
</g>
</g>
<!-- Node1&#45;&gt;Node4 -->
<g id="edge3_Node000001_Node000004" class="edge">
<title>Node1&#45;&gt;Node4</title>
<g id="a_edge3_Node000001_Node000004"><a xlink:title=" ">
<path fill="none" stroke="#63b8ff" d="M180.17,-55.59C185.37,-48.39 192.71,-38.23 199.06,-29.43"/>
<polygon fill="#63b8ff" stroke="#63b8ff" points="201.76,-31.68 204.77,-21.53 196.08,-27.58 201.76,-31.68"/>
</a>
</g>
</g>
<!-- Node5 -->
<g id="Node000005" class="node">
<title>Node5</title>
<g id="a_Node000005"><a xlink:title=" ">
<polygon fill="#e0e0e0" stroke="#999999" points="296,-20 250.75,-20 250.75,0 296,0 296,-20"/>
<text xml:space="preserve" text-anchor="middle" x="273.38" y="-6.5" font-family="Helvetica,sans-Serif" font-size="10.00">chrono</text>
</a>
</g>
</g>
<!-- Node1&#45;&gt;Node5 -->
<g id="edge4_Node000001_Node000005" class="edge">
<title>Node1&#45;&gt;Node5</title>
<g id="a_edge4_Node000001_Node000005"><a xlink:title=" ">
<path fill="none" stroke="#63b8ff" d="M190.79,-55.59C206.04,-47.36 228.45,-35.26 246.08,-25.74"/>
<polygon fill="#63b8ff" stroke="#63b8ff" points="247.35,-29.03 254.49,-21.2 244.03,-22.87 247.35,-29.03"/>
</a>
</g>
</g>
</g>
</svg>
</svg>

<style type='text/css'>
<![CDATA[
[data-mouse-over-selected='false'] { opacity: 0.7; }
[data-mouse-over-selected='true']  { opacity: 1.0; }
]]>
</style>
<script type="application/ecmascript"><![CDATA[
document.addEventListener('DOMContentLoaded', (event) => {
  highlightEdges();
  highlightAdjacentNodes();
});
]]></script>
</svg>
