<?xml version="1.0" encoding="UTF-8" standalone="no"?>
<!DOCTYPE svg PUBLIC "-//W3C//DTD SVG 1.1//EN"
 "http://www.w3.org/Graphics/SVG/1.1/DTD/svg11.dtd">
<!-- Generated by graphviz version 14.1.2 (20260124.0452)
 -->
<!-- Title: client.cpp Pages: 1 -->
<svg width="478pt" height="140pt"
 viewBox="0.00 0.00 478.00 140.00" xmlns="http://www.w3.org/2000/svg" xmlns:xlink="http://www.w3.org/1999/xlink">

<svg id="main" version="1.1" xmlns="http://www.w3.org/2000/svg" xmlns:xlink="http://www.w3.org/1999/xlink" xml:space="preserve">

<style type="text/css"><![CDATA[
.node, .edge {opacity: 0.7;}
.node.selected, .edge.selected {opacity: 1;}
.edge:hover path { stroke: red; }
.edge:hover polygon { stroke: red; fill: red; }
]]></style>
<script type="application/ecmascript" xlink:href="svg.min.js"/>
<svg id="graph" class="graph">
<g id="graph0" class="graph" transform="scale(1 1) rotate(0) translate(4 136)">
<title>client.cpp</title>
<!-- Node1 -->
<g id="Node000001" class="node">
<title>Node1</title>
<g id="a_Node000001"><a xlink:title="Implementation of TelnetClient class.">
<polygon fill="#999999" stroke="#666666" points="355.38,-132 297.38,-132 297.38,-112 355.38,-112 355.38,-132"/>
<text xml:space="preserve" text-anchor="middle" x="326.38" y="-118.5" font-family="Helvetica,sans-Serif" font-size="10.00">client.cpp</text>
</a>
</g>
</g>
<!-- Node2 -->
<g id="Node000002" class="node">
<title>Node2</title>
<g id="a_Node000002"><a xlink:href="client_8hpp.html" target="_top" xlink:title="Telnet Client for Substation Communication.">
<polygon fill="white" stroke="#666666" points="241.38,-76 183.38,-76 183.38,-56 241.38,-56 241.38,-76"/>
<text xml:space="preserve" text-anchor="middle" x="212.38" y="-62.5" font-family="Helvetica,sans-Serif" font-size="10.00">client.hpp</text>
</a>
</g>
</g>
<!-- Node1&#45;&gt;Node2 -->
<g id="edge1_Node000001_Node000002" class="edge">
<title>Node1&#45;&gt;Node2</title>
<g id="a_edge1_Node000001_Node000002"><a xlink:title=" ">
<path fill="none" stroke="#63b8ff" d="M306.52,-111.59C288.89,-103.24 262.87,-90.92 242.65,-81.34"/>
<polygon fill="#63b8ff" stroke="#63b8ff" points="244.29,-78.25 233.76,-77.13 241.29,-84.57 244.29,-78.25"/>
</a>
</g>
</g>
<!-- Node6 -->
<g id="Node000006" class="node">
<title>Node6</title>
<g id="a_Node000006"><a xlink:title=" ">
<polygon fill="#e0e0e0" stroke="#999999" points="296,-20 250.75,-20 250.75,0 296,0 296,-20"/>
<text xml:space="preserve" text-anchor="middle" x="273.38" y="-6.5" font-family="Helvetica,sans-Serif" font-size="10.00">chrono</text>
</a>
</g>
</g>
<!-- Node1&#45;&gt;Node6 -->
<g id="edge7_Node000001_Node000006" class="edge">
<title>Node1&#45;&gt;Node6</title>
<g id="a_edge7_Node000001_Node000006"><a xlink:title=" ">
<path fill="none" stroke="#63b8ff" d="M317.08,-111.82C308.91,-103.26 297.29,-89.77 290.38,-76 283.32,-61.94 278.98,-44.65 276.45,-31.44"/>
<polygon fill="#63b8ff" stroke="#63b8ff" points="279.93,-31.02 274.81,-21.75 273.03,-32.19 279.93,-31.02"/>
</a>
</g>
</g>
<!-- Node7 -->
<g id="Node000007" class="node">
<title>Node7</title>
<g id="a_Node000007"><a xlink:title=" ">
<polygon fill="#e0e0e0" stroke="#999999" points="353.12,-76 299.62,-76 299.62,-56 353.12,-56 353.12,-76"/>
<text xml:space="preserve" text-anchor="middle" x="326.38" y="-62.5" font-family="Helvetica,sans-Serif" font-size="10.00">iostream</text>
</a>
</g>
</g>
<!-- Node1&#45;&gt;Node7 -->
<g id="edge6_Node000001_Node000007" class="edge">
<title>Node1&#45;&gt;Node7</title>
<g id="a_edge6_Node000001_Node000007"><a xlink:title=" ">
<path fill="none" stroke="#63b8ff" d="M326.38,-111.59C326.38,-105.01 326.38,-95.96 326.38,-87.73"/>
<polygon fill="#63b8ff" stroke="#63b8ff" points="329.88,-87.81 326.38,-77.81 322.88,-87.81 329.88,-87.81"/>
</a>
</g>
</g>
<!-- Node8 -->
<g id="Node000008" class="node">
<title>Node8</title>
<g id="a_Node000008"><a xlink:title=" ">
<polygon fill="#e0e0e0" stroke="#999999" points="409.25,-76 371.5,-76 371.5,-56 409.25,-56 409.25,-76"/>
<text xml:space="preserve" text-anchor="middle" x="390.38" y="-62.5" font-family="Helvetica,sans-Serif" font-size="10.00">array</text>
</a>
</g>
</g>
<!-- Node1&#45;&gt;Node8 -->
<g id="edge8_Node000001_Node000008" class="edge">
<title>Node1&#45;&gt;Node8</title>
<g id="a_edge8_Node000001_Node000008"><a xlink:title=" ">
<path fill="none" stroke="#63b8ff" d="M337.52,-111.59C346.7,-103.85 359.93,-92.69 370.86,-83.47"/>
<polygon fill="#63b8ff" stroke="#63b8ff" points="372.81,-86.4 378.2,-77.27 368.3,-81.05 372.81,-86.4"/>
</a>
</g>
</g>
<!-- Node9 -->
<g id="Node000009" class="node">
<title>Node9</title>
<g id="a_Node000009"><a xlink:title=" ">
<polygon fill="#e0e0e0" stroke="#999999" points="469.88,-76 426.88,-76 426.88,-56 469.88,-56 469.88,-76"/>
<text xml:space="preserve" text-anchor="middle" x="448.38" y="-62.5" font-family="Helvetica,sans-Serif" font-size="10.00">thread</text>
</a>
</g>
</g>
<!-- Node1&#45;&gt;Node9 -->
<g id="edge9_Node000001_Node000009" class="edge">
<title>Node1&#45;&gt;Node9</title>
<g id="a_edge9_Node000001_Node000009"><a xlink:title=" ">
<path fill="none" stroke="#63b8ff" d="M347.63,-111.59C366.66,-103.17 394.85,-90.69 416.58,-81.07"/>
<polygon fill="#63b8ff" stroke="#63b8ff" points="417.85,-84.34 425.57,-77.09 415.01,-77.94 417.85,-84.34"/>
</a>
</g>
</g>
<!-- Node3 -->
<g id="Node000003" class="node">
<title>Node3</title>
<g id="a_Node000003"><a xlink:href="dll__export_8hpp.html" target="_top" xlink:title="DLL Export/Import Macros for Windows.">
<polygon fill="white" stroke="#666666" points="76.75,-20 0,-20 0,0 76.75,0 76.75,-20"/>
<text xml:space="preserve" text-anchor="middle" x="38.38" y="-6.5" font-family="Helvetica,sans-Serif" font-size="10.00">dll_export.hpp</text>
</a>
</g>
</g>
<!-- Node2&#45;&gt;Node3 -->
<g id="edge2_Node000002_Node000003" class="edge">
<title>Node2&#45;&gt;Node3</title>
<g id="a_edge2_Node000002_Node000003"><a xlink:title=" ">
<path fill="none" stroke="#63b8ff" d="M183.25,-55.96C154.87,-47.15 111.44,-33.67 79.53,-23.77"/>
<polygon fill="#63b8ff" stroke="#63b8ff" points="80.8,-20.5 70.21,-20.88 78.72,-27.19 80.8,-20.5"/>
</a>
</g>
</g>
<!-- Node4 -->
<g id="Node000004" class="node">
<title>Node4</title>
<g id="a_Node000004"><a xlink:title=" ">
<polygon fill="#e0e0e0" stroke="#999999" points="174.25,-20 94.5,-20 94.5,0 174.25,0 174.25,-20"/>
<text xml:space="preserve" text-anchor="middle" x="134.38" y="-6.5" font-family="Helvetica,sans-Serif" font-size="10.00">boost/asio.hpp</text>
</a>
</g>
</g>
<!-- Node2&#45;&gt;Node4 -->
<g id="edge3_Node000002_Node000004" class="edge">
<title>Node2&#45;&gt;Node4</title>
<g id="a_edge3_Node000002_Node000004"><a xlink:title=" ">
<path fill="none" stroke="#63b8ff" d="M198.79,-55.59C187.34,-47.67 170.71,-36.16 157.22,-26.82"/>
<polygon fill="#63b8ff" stroke="#63b8ff" points="159.53,-24.16 149.31,-21.34 155.54,-29.91 159.53,-24.16"/>
</a>
</g>
</g>
<!-- Node5 -->
<g id="Node000005" class="node">
<title>Node5</title>
<g id="a_Node000005"><a xlink:title=" ">
<polygon fill="#e0e0e0" stroke="#999999" points="232.38,-20 192.38,-20 192.38,0 232.38,0 232.38,-20"/>
<text xml:space="preserve" text-anchor="middle" x="212.38" y="-6.5" font-family="Helvetica,sans-Serif" font-size="10.00">string</text>
</a>
</g>
</g>
<!-- Node2&#45;&gt;Node5 -->
<g id="edge4_Node000002_Node000005" class="edge">
<title>Node2&#45;&gt;Node5</title>
<g id="a_edge4_Node000002_Node000005"><a xlink:title=" ">
<path fill="none" stroke="#63b8ff" d="M212.38,-55.59C212.38,-49.01 212.38,-39.96 212.38,-31.73"/>
<polygon fill="#63b8ff" stroke="#63b8ff" points="215.88,-31.81 212.38,-21.81 208.88,-31.81 215.88,-31.81"/>
</a>
</g>
</g>
<!-- Node2&#45;&gt;Node6 -->
<g id="edge5_Node000002_Node000006" class="edge">
<title>Node2&#45;&gt;Node6</title>
<g id="a_edge5_Node000002_Node000006"><a xlink:title=" ">
<path fill="none" stroke="#63b8ff" d="M223,-55.59C231.66,-47.93 244.11,-36.91 254.46,-27.75"/>
<polygon fill="#63b8ff" stroke="#63b8ff" points="256.57,-30.55 261.74,-21.3 251.93,-25.31 256.57,-30.55"/>
</a>
</g>
</g>
</g>
</svg>
</svg>

<style type='text/css'>
<![CDATA[
[data-mouse-over-selected='false'] { opacity: 0.7; }
[data-mouse-over-selected='true']  { opacity: 1.0; }
]]>
</style>
<script type="application/ecmascript"><![CDATA[
document.addEventListener('DOMContentLoaded', (event) => {
  highlightEdges();
  highlightAdjacentNodes();
});
]]></script>
</svg>
