<?xml version="1.0" encoding="UTF-8" standalone="no"?>
<!DOCTYPE svg PUBLIC "-//W3C//DTD SVG 1.1//EN"
 "http://www.w3.org/Graphics/SVG/1.1/DTD/svg11.dtd">
<!-- Generated by graphviz version 14.1.2 (20260124.0452)
 -->
<!-- Title: client.hpp Pages: 1 -->
<svg width="442pt" height="196pt"
 viewBox="0.00 0.00 442.00 196.00" xmlns="http://www.w3.org/2000/svg" xmlns:xlink="http://www.w3.org/1999/xlink">

<svg id="main" version="1.1" xmlns="http://www.w3.org/2000/svg" xmlns:xlink="http://www.w3.org/1999/xlink" xml:space="preserve">

<style type="text/css"><![CDATA[
.node, .edge {opacity: 0.7;}
.node.selected, .edge.selected {opacity: 1;}
.edge:hover path { stroke: red; }
.edge:hover polygon { stroke: red; fill: red; }
]]></style>
<script type="application/ecmascript" xlink:href="svg.min.js"/>
<svg id="graph" class="graph">
<g id="graph0" class="graph" transform="scale(1 1) rotate(0) translate(4 192)">
<title>client.hpp</title>
<!-- Node1 -->
<g id="Node000001" class="node">
<title>Node1</title>
<g id="a_Node000001"><a xlink:title="Telnet Client for Substation Communication.">
<polygon fill="#999999" stroke="#666666" points="290.75,-188 232.75,-188 232.75,-168 290.75,-168 290.75,-188"/>
<text xml:space="preserve" text-anchor="middle" x="261.75" y="-174.5" font-family="Helvetica,sans-Serif" font-size="10.00">client.hpp</text>
</a>
</g>
</g>
<!-- Node2 -->
<g id="Node000002" class="node">
<title>Node2</title>
<g id="a_Node000002"><a xlink:href="client_8cpp.html" target="_top" xlink:title="Implementation of TelnetClient class.">
<polygon fill="white" stroke="#666666" points="123.75,-132 65.75,-132 65.75,-112 123.75,-112 123.75,-132"/>
<text xml:space="preserve" text-anchor="middle" x="94.75" y="-118.5" font-family="Helvetica,sans-Serif" font-size="10.00">client.cpp</text>
</a>
</g>
</g>
<!-- Node1&#45;&gt;Node2 -->
<g id="edge1_Node000001_Node000002" class="edge">
<title>Node1&#45;&gt;Node2</title>
<g id="a_edge1_Node000001_Node000002"><a xlink:title=" ">
<path fill="none" stroke="#63b8ff" d="M222.09,-164.18C191.99,-154.44 151.27,-141.28 124.07,-132.48"/>
<polygon fill="#63b8ff" stroke="#63b8ff" points="220.63,-167.38 231.22,-167.13 222.78,-160.72 220.63,-167.38"/>
</a>
</g>
</g>
<!-- Node3 -->
<g id="Node000003" class="node">
<title>Node3</title>
<g id="a_Node000003"><a xlink:href="relay__service_8hpp.html" target="_top" xlink:title="Thread&#45;safe relay communication service for DATE operations.">
<polygon fill="white" stroke="#666666" points="234,-132 141.5,-132 141.5,-112 234,-112 234,-132"/>
<text xml:space="preserve" text-anchor="middle" x="187.75" y="-118.5" font-family="Helvetica,sans-Serif" font-size="10.00">relay_service.hpp</text>
</a>
</g>
</g>
<!-- Node1&#45;&gt;Node3 -->
<g id="edge2_Node000001_Node000003" class="edge">
<title>Node1&#45;&gt;Node3</title>
<g id="a_edge2_Node000001_Node000003"><a xlink:title=" ">
<path fill="none" stroke="#63b8ff" d="M239.76,-160.95C226.96,-151.61 211.27,-140.16 200.49,-132.3"/>
<polygon fill="#63b8ff" stroke="#63b8ff" points="237.5,-163.63 247.64,-166.7 241.62,-157.98 237.5,-163.63"/>
</a>
</g>
</g>
<!-- Node5 -->
<g id="Node000005" class="node">
<title>Node5</title>
<g id="a_Node000005"><a xlink:href="telnet__sml__app_8cpp.html" target="_top" xlink:title="Telnet SML Application &#45; Main orchestrator implementation.">
<polygon fill="white" stroke="#666666" points="287.12,-20 186.38,-20 186.38,0 287.12,0 287.12,-20"/>
<text xml:space="preserve" text-anchor="middle" x="236.75" y="-6.5" font-family="Helvetica,sans-Serif" font-size="10.00">telnet_sml_app.cpp</text>
</a>
</g>
</g>
<!-- Node1&#45;&gt;Node5 -->
<g id="edge10_Node000001_Node000005" class="edge">
<title>Node1&#45;&gt;Node5</title>
<g id="a_edge10_Node000001_Node000005"><a xlink:title=" ">
<path fill="none" stroke="#63b8ff" d="M277.54,-159.31C297.11,-135.11 325.71,-90.73 306.75,-56 297.47,-39.01 278.73,-27.48 262.97,-20.34"/>
<polygon fill="#63b8ff" stroke="#63b8ff" points="275.11,-156.76 271.33,-166.66 280.46,-161.28 275.11,-156.76"/>
</a>
</g>
</g>
<!-- Node6 -->
<g id="Node000006" class="node">
<title>Node6</title>
<g id="a_Node000006"><a xlink:href="time__sync__manager_8hpp.html" target="_top" xlink:title="DATE synchronization manager for relay ↔ local&#45;PC time operations.">
<polygon fill="white" stroke="#666666" points="298,-76 175.5,-76 175.5,-56 298,-56 298,-76"/>
<text xml:space="preserve" text-anchor="middle" x="236.75" y="-62.5" font-family="Helvetica,sans-Serif" font-size="10.00">time_sync_manager.hpp</text>
</a>
</g>
</g>
<!-- Node1&#45;&gt;Node6 -->
<g id="edge11_Node000001_Node000006" class="edge">
<title>Node1&#45;&gt;Node6</title>
<g id="a_edge11_Node000001_Node000006"><a xlink:title=" ">
<path fill="none" stroke="#63b8ff" d="M257.12,-156.64C251.69,-132.72 242.89,-94.03 238.88,-76.35"/>
<polygon fill="#63b8ff" stroke="#63b8ff" points="253.65,-157.17 259.28,-166.15 260.48,-155.62 253.65,-157.17"/>
</a>
</g>
</g>
<!-- Node7 -->
<g id="Node000007" class="node">
<title>Node7</title>
<g id="a_Node000007"><a xlink:href="telnet__fsm_8hpp.html" target="_top" xlink:title="Boost.SML Finite State Machine for Telnet Communication.">
<polygon fill="white" stroke="#666666" points="434,-76 353.5,-76 353.5,-56 434,-56 434,-76"/>
<text xml:space="preserve" text-anchor="middle" x="393.75" y="-62.5" font-family="Helvetica,sans-Serif" font-size="10.00">telnet_fsm.hpp</text>
</a>
</g>
</g>
<!-- Node1&#45;&gt;Node7 -->
<g id="edge8_Node000001_Node000007" class="edge">
<title>Node1&#45;&gt;Node7</title>
<g id="a_edge8_Node000001_Node000007"><a xlink:title=" ">
<path fill="none" stroke="#63b8ff" d="M292.47,-162.52C307.54,-154.64 325.47,-144.04 339.75,-132 359.94,-114.98 378.43,-89.76 387.64,-76.28"/>
<polygon fill="#63b8ff" stroke="#63b8ff" points="291.27,-159.21 283.92,-166.85 294.43,-165.45 291.27,-159.21"/>
</a>
</g>
</g>
<!-- Node4 -->
<g id="Node000004" class="node">
<title>Node4</title>
<g id="a_Node000004"><a xlink:href="password__manager_8hpp.html" target="_top" xlink:title="Password management for relay LEVEL1 / LEVEL2 password changes.">
<polygon fill="white" stroke="#666666" points="119.5,-76 0,-76 0,-56 119.5,-56 119.5,-76"/>
<text xml:space="preserve" text-anchor="middle" x="59.75" y="-62.5" font-family="Helvetica,sans-Serif" font-size="10.00">password_manager.hpp</text>
</a>
</g>
</g>
<!-- Node3&#45;&gt;Node4 -->
<g id="edge3_Node000003_Node000004" class="edge">
<title>Node3&#45;&gt;Node4</title>
<g id="a_edge3_Node000003_Node000004"><a xlink:title=" ">
<path fill="none" stroke="#63b8ff" d="M154.9,-107.14C132.11,-97.52 102.34,-84.97 82.22,-76.48"/>
<polygon fill="#63b8ff" stroke="#63b8ff" points="153.49,-110.34 164.06,-111.01 156.21,-103.89 153.49,-110.34"/>
</a>
</g>
</g>
<!-- Node3&#45;&gt;Node5 -->
<g id="edge5_Node000003_Node000005" class="edge">
<title>Node3&#45;&gt;Node5</title>
<g id="a_edge5_Node000003_Node000005"><a xlink:title=" ">
<path fill="none" stroke="#63b8ff" d="M173.9,-102.16C165.87,-88.76 158.77,-70.62 166.75,-56 176.03,-39.01 194.77,-27.48 210.53,-20.34"/>
<polygon fill="#63b8ff" stroke="#63b8ff" points="170.98,-104.09 179.43,-110.47 176.8,-100.21 170.98,-104.09"/>
</a>
</g>
</g>
<!-- Node3&#45;&gt;Node6 -->
<g id="edge6_Node000003_Node000006" class="edge">
<title>Node3&#45;&gt;Node6</title>
<g id="a_edge6_Node000003_Node000006"><a xlink:title=" ">
<path fill="none" stroke="#63b8ff" d="M203.82,-103.29C212,-94.28 221.6,-83.7 228.31,-76.3"/>
<polygon fill="#63b8ff" stroke="#63b8ff" points="201.43,-100.72 197.3,-110.47 206.61,-105.42 201.43,-100.72"/>
</a>
</g>
</g>
<!-- Node4&#45;&gt;Node5 -->
<g id="edge4_Node000004_Node000005" class="edge">
<title>Node4&#45;&gt;Node5</title>
<g id="a_edge4_Node000004_Node000005"><a xlink:title=" ">
<path fill="none" stroke="#63b8ff" d="M101.36,-52.31C133.31,-42.56 176.71,-29.32 205.68,-20.48"/>
<polygon fill="#63b8ff" stroke="#63b8ff" points="100.57,-48.89 92.03,-55.15 102.61,-55.58 100.57,-48.89"/>
</a>
</g>
</g>
<!-- Node6&#45;&gt;Node5 -->
<g id="edge7_Node000006_Node000005" class="edge">
<title>Node6&#45;&gt;Node5</title>
<g id="a_edge7_Node000006_Node000005"><a xlink:title=" ">
<path fill="none" stroke="#63b8ff" d="M236.75,-44.13C236.75,-35.9 236.75,-26.85 236.75,-20.3"/>
<polygon fill="#63b8ff" stroke="#63b8ff" points="233.25,-44.08 236.75,-54.08 240.25,-44.08 233.25,-44.08"/>
</a>
</g>
</g>
<!-- Node7&#45;&gt;Node5 -->
<g id="edge9_Node000007_Node000005" class="edge">
<title>Node7&#45;&gt;Node5</title>
<g id="a_edge9_Node000007_Node000005"><a xlink:title=" ">
<path fill="none" stroke="#63b8ff" d="M355.72,-51.92C327.5,-42.21 289.67,-29.2 264.31,-20.48"/>
<polygon fill="#63b8ff" stroke="#63b8ff" points="354.38,-55.16 364.97,-55.1 356.65,-48.54 354.38,-55.16"/>
</a>
</g>
</g>
</g>
</svg>
</svg>

<style type='text/css'>
<![CDATA[
[data-mouse-over-selected='false'] { opacity: 0.7; }
[data-mouse-over-selected='true']  { opacity: 1.0; }
]]>
</style>
<script type="application/ecmascript"><![CDATA[
document.addEventListener('DOMContentLoaded', (event) => {
  highlightEdges();
  highlightAdjacentNodes();
});
]]></script>
</svg>
