<?xml version="1.0" encoding="UTF-8" standalone="no"?>
<!DOCTYPE svg PUBLIC "-//W3C//DTD SVG 1.1//EN"
 "http://www.w3.org/Graphics/SVG/1.1/DTD/svg11.dtd">
<!-- Generated by graphviz version 14.1.1 (20251213.1925)
 -->
<!-- Title: client.hpp Pages: 1 -->
<svg width="592pt" height="252pt"
 viewBox="0.00 0.00 592.00 252.00" xmlns="http://www.w3.org/2000/svg" xmlns:xlink="http://www.w3.org/1999/xlink">
<g id="graph0" class="graph" transform="scale(1 1) rotate(0) translate(4 248)">
<title>client.hpp</title>
<!-- Node1 -->
<g id="Node000001" class="node">
<title>Node1</title>
<g id="a_Node000001"><a xlink:title="Telnet Client for Substation Communication.">
<polygon fill="#999999" stroke="#666666" points="337,-244 279,-244 279,-224 337,-224 337,-244"/>
<text xml:space="preserve" text-anchor="middle" x="308" y="-230.5" font-family="Helvetica,sans-Serif" font-size="10.00">client.hpp</text>
</a>
</g>
</g>
<!-- Node2 -->
<g id="Node000002" class="node">
<title>Node2</title>
<g id="a_Node000002"><a xlink:href="client_8cpp.html" target="_top" xlink:title="Implementation of TelnetClient class.">
<polygon fill="white" stroke="#666666" points="58,-188 0,-188 0,-168 58,-168 58,-188"/>
<text xml:space="preserve" text-anchor="middle" x="29" y="-174.5" font-family="Helvetica,sans-Serif" font-size="10.00">client.cpp</text>
</a>
</g>
</g>
<!-- Node1&#45;&gt;Node2 -->
<g id="edge1_Node000001_Node000002" class="edge">
<title>Node1&#45;&gt;Node2</title>
<g id="a_edge1_Node000001_Node000002"><a xlink:title=" ">
<path fill="none" stroke="#63b8ff" d="M267.3,-225.47C220.23,-216.7 140.44,-201.69 72,-188 67.51,-187.1 62.77,-186.13 58.13,-185.17"/>
<polygon fill="#63b8ff" stroke="#63b8ff" points="266.57,-228.89 277.05,-227.28 267.85,-222.01 266.57,-228.89"/>
</a>
</g>
</g>
<!-- Node3 -->
<g id="Node000003" class="node">
<title>Node3</title>
<g id="a_Node000003"><a xlink:href="relay__pipeline_8hpp.html" target="_top" xlink:title="Per&#45;relay processing pipeline for on&#45;demand relay connections.">
<polygon fill="white" stroke="#666666" points="488,-132 394,-132 394,-112 488,-112 488,-132"/>
<text xml:space="preserve" text-anchor="middle" x="441" y="-118.5" font-family="Helvetica,sans-Serif" font-size="10.00">relay_pipeline.hpp</text>
</a>
</g>
</g>
<!-- Node1&#45;&gt;Node3 -->
<g id="edge2_Node000001_Node000003" class="edge">
<title>Node1&#45;&gt;Node3</title>
<g id="a_edge2_Node000001_Node000003"><a xlink:title=" ">
<path fill="none" stroke="#63b8ff" d="M328.01,-216.45C356.32,-193.04 407.14,-151.01 429.69,-132.35"/>
<polygon fill="#63b8ff" stroke="#63b8ff" points="325.98,-213.59 320.51,-222.66 330.44,-218.98 325.98,-213.59"/>
</a>
</g>
</g>
<!-- Node5 -->
<g id="Node000005" class="node">
<title>Node5</title>
<g id="a_Node000005"><a xlink:href="telnet__sml__app_8cpp.html" target="_top" xlink:title="Telnet SML Application &#45; Main orchestrator implementation.">
<polygon fill="white" stroke="#666666" points="401.38,-20 300.62,-20 300.62,0 401.38,0 401.38,-20"/>
<text xml:space="preserve" text-anchor="middle" x="351" y="-6.5" font-family="Helvetica,sans-Serif" font-size="10.00">telnet_sml_app.cpp</text>
</a>
</g>
</g>
<!-- Node1&#45;&gt;Node5 -->
<g id="edge15_Node000001_Node000005" class="edge">
<title>Node1&#45;&gt;Node5</title>
<g id="a_edge15_Node000001_Node000005"><a xlink:title=" ">
<path fill="none" stroke="#63b8ff" d="M269.23,-219.67C195.31,-192.23 46.55,-126.12 105,-56 129.36,-26.78 235.65,-16.48 300.28,-12.89"/>
<polygon fill="#63b8ff" stroke="#63b8ff" points="267.97,-222.93 278.56,-223.06 270.36,-216.35 267.97,-222.93"/>
</a>
</g>
</g>
<!-- Node6 -->
<g id="Node000006" class="node">
<title>Node6</title>
<g id="a_Node000006"><a xlink:href="relay__service_8hpp.html" target="_top" xlink:title="Thread&#45;safe relay communication service for DATE operations.">
<polygon fill="white" stroke="#666666" points="308.25,-132 215.75,-132 215.75,-112 308.25,-112 308.25,-132"/>
<text xml:space="preserve" text-anchor="middle" x="262" y="-118.5" font-family="Helvetica,sans-Serif" font-size="10.00">relay_service.hpp</text>
</a>
</g>
</g>
<!-- Node1&#45;&gt;Node6 -->
<g id="edge6_Node000001_Node000006" class="edge">
<title>Node1&#45;&gt;Node6</title>
<g id="a_edge6_Node000001_Node000006"><a xlink:title=" ">
<path fill="none" stroke="#63b8ff" d="M299.76,-213.3C289.78,-189.43 273.37,-150.2 265.91,-132.35"/>
<polygon fill="#63b8ff" stroke="#63b8ff" points="296.41,-214.35 303.49,-222.23 302.87,-211.65 296.41,-214.35"/>
</a>
</g>
</g>
<!-- Node8 -->
<g id="Node000008" class="node">
<title>Node8</title>
<g id="a_Node000008"><a xlink:href="time__sync__manager_8hpp.html" target="_top" xlink:title="DATE synchronization manager for relay ↔ local&#45;PC time operations.">
<polygon fill="white" stroke="#666666" points="412.25,-76 289.75,-76 289.75,-56 412.25,-56 412.25,-76"/>
<text xml:space="preserve" text-anchor="middle" x="351" y="-62.5" font-family="Helvetica,sans-Serif" font-size="10.00">time_sync_manager.hpp</text>
</a>
</g>
</g>
<!-- Node1&#45;&gt;Node8 -->
<g id="edge16_Node000001_Node000008" class="edge">
<title>Node1&#45;&gt;Node8</title>
<g id="a_edge16_Node000001_Node000008"><a xlink:title=" ">
<path fill="none" stroke="#63b8ff" d="M313.31,-212.5C322.69,-176.27 341.85,-102.31 348.59,-76.3"/>
<polygon fill="#63b8ff" stroke="#63b8ff" points="309.93,-211.58 310.81,-222.13 316.71,-213.33 309.93,-211.58"/>
</a>
</g>
</g>
<!-- Node9 -->
<g id="Node000009" class="node">
<title>Node9</title>
<g id="a_Node000009"><a xlink:href="telnet__fsm_8hpp.html" target="_top" xlink:title="Boost.SML Finite State Machine for Telnet Communication.">
<polygon fill="white" stroke="#666666" points="482.25,-188 401.75,-188 401.75,-168 482.25,-168 482.25,-188"/>
<text xml:space="preserve" text-anchor="middle" x="442" y="-174.5" font-family="Helvetica,sans-Serif" font-size="10.00">telnet_fsm.hpp</text>
</a>
</g>
</g>
<!-- Node1&#45;&gt;Node9 -->
<g id="edge12_Node000001_Node000009" class="edge">
<title>Node1&#45;&gt;Node9</title>
<g id="a_edge12_Node000001_Node000009"><a xlink:title=" ">
<path fill="none" stroke="#63b8ff" d="M341.74,-219.4C365.69,-209.75 397.22,-197.05 418.48,-188.48"/>
<polygon fill="#63b8ff" stroke="#63b8ff" points="340.71,-216.04 332.74,-223.03 343.33,-222.54 340.71,-216.04"/>
</a>
</g>
</g>
<!-- Node4 -->
<g id="Node000004" class="node">
<title>Node4</title>
<g id="a_Node000004"><a xlink:href="relay__manager_8hpp.html" target="_top" xlink:title="On&#45;demand coordinator for multiple relay pipelines.">
<polygon fill="white" stroke="#666666" points="566.25,-76 467.75,-76 467.75,-56 566.25,-56 566.25,-76"/>
<text xml:space="preserve" text-anchor="middle" x="517" y="-62.5" font-family="Helvetica,sans-Serif" font-size="10.00">relay_manager.hpp</text>
</a>
</g>
</g>
<!-- Node3&#45;&gt;Node4 -->
<g id="edge3_Node000003_Node000004" class="edge">
<title>Node3&#45;&gt;Node4</title>
<g id="a_edge3_Node000003_Node000004"><a xlink:title=" ">
<path fill="none" stroke="#63b8ff" d="M463.52,-105C476.58,-95.72 492.58,-84.35 503.66,-76.48"/>
<polygon fill="#63b8ff" stroke="#63b8ff" points="461.6,-102.07 455.47,-110.72 465.65,-107.78 461.6,-102.07"/>
</a>
</g>
</g>
<!-- Node3&#45;&gt;Node5 -->
<g id="edge5_Node000003_Node000005" class="edge">
<title>Node3&#45;&gt;Node5</title>
<g id="a_edge5_Node000003_Node000005"><a xlink:title=" ">
<path fill="none" stroke="#63b8ff" d="M438.44,-100.52C435.88,-86.81 430.83,-68.96 421,-56 408.78,-39.89 388.99,-27.94 373.56,-20.42"/>
<polygon fill="#63b8ff" stroke="#63b8ff" points="434.94,-100.84 439.92,-110.2 441.86,-99.78 434.94,-100.84"/>
</a>
</g>
</g>
<!-- Node4&#45;&gt;Node5 -->
<g id="edge4_Node000004_Node000005" class="edge">
<title>Node4&#45;&gt;Node5</title>
<g id="a_edge4_Node000004_Node000005"><a xlink:title=" ">
<path fill="none" stroke="#63b8ff" d="M477.19,-52.05C447.3,-42.33 407.07,-29.24 380.14,-20.48"/>
<polygon fill="#63b8ff" stroke="#63b8ff" points="476.05,-55.36 486.65,-55.13 478.22,-48.7 476.05,-55.36"/>
</a>
</g>
</g>
<!-- Node6&#45;&gt;Node5 -->
<g id="edge9_Node000006_Node000005" class="edge">
<title>Node6&#45;&gt;Node5</title>
<g id="a_edge9_Node000006_Node000005"><a xlink:title=" ">
<path fill="none" stroke="#63b8ff" d="M264.21,-100.53C266.54,-86.82 271.3,-68.98 281,-56 293.11,-39.8 312.91,-27.86 328.37,-20.37"/>
<polygon fill="#63b8ff" stroke="#63b8ff" points="260.77,-99.82 262.88,-110.2 267.71,-100.76 260.77,-99.82"/>
</a>
</g>
</g>
<!-- Node7 -->
<g id="Node000007" class="node">
<title>Node7</title>
<g id="a_Node000007"><a xlink:href="password__manager_8hpp.html" target="_top" xlink:title="Password management for relay LEVEL1 / LEVEL2 password changes.">
<polygon fill="white" stroke="#666666" points="233.75,-76 114.25,-76 114.25,-56 233.75,-56 233.75,-76"/>
<text xml:space="preserve" text-anchor="middle" x="174" y="-62.5" font-family="Helvetica,sans-Serif" font-size="10.00">password_manager.hpp</text>
</a>
</g>
</g>
<!-- Node6&#45;&gt;Node7 -->
<g id="edge7_Node000006_Node000007" class="edge">
<title>Node6&#45;&gt;Node7</title>
<g id="a_edge7_Node000006_Node000007"><a xlink:title=" ">
<path fill="none" stroke="#63b8ff" d="M237.25,-105.81C221.9,-96.39 202.65,-84.58 189.45,-76.48"/>
<polygon fill="#63b8ff" stroke="#63b8ff" points="235.03,-108.56 245.38,-110.8 238.69,-102.59 235.03,-108.56"/>
</a>
</g>
</g>
<!-- Node6&#45;&gt;Node8 -->
<g id="edge10_Node000006_Node000008" class="edge">
<title>Node6&#45;&gt;Node8</title>
<g id="a_edge10_Node000006_Node000008"><a xlink:title=" ">
<path fill="none" stroke="#63b8ff" d="M287.03,-105.81C302.56,-96.39 322.02,-84.58 335.38,-76.48"/>
<polygon fill="#63b8ff" stroke="#63b8ff" points="285.53,-102.63 278.8,-110.81 289.16,-108.61 285.53,-102.63"/>
</a>
</g>
</g>
<!-- Node7&#45;&gt;Node5 -->
<g id="edge8_Node000007_Node000005" class="edge">
<title>Node7&#45;&gt;Node5</title>
<g id="a_edge8_Node000007_Node000005"><a xlink:title=" ">
<path fill="none" stroke="#63b8ff" d="M215.61,-52.31C247.56,-42.56 290.96,-29.32 319.93,-20.48"/>
<polygon fill="#63b8ff" stroke="#63b8ff" points="214.82,-48.89 206.28,-55.15 216.86,-55.58 214.82,-48.89"/>
</a>
</g>
</g>
<!-- Node8&#45;&gt;Node5 -->
<g id="edge11_Node000008_Node000005" class="edge">
<title>Node8&#45;&gt;Node5</title>
<g id="a_edge11_Node000008_Node000005"><a xlink:title=" ">
<path fill="none" stroke="#63b8ff" d="M351,-44.13C351,-35.9 351,-26.85 351,-20.3"/>
<polygon fill="#63b8ff" stroke="#63b8ff" points="347.5,-44.08 351,-54.08 354.5,-44.08 347.5,-44.08"/>
</a>
</g>
</g>
<!-- Node9&#45;&gt;Node3 -->
<g id="edge13_Node000009_Node000003" class="edge">
<title>Node9&#45;&gt;Node3</title>
<g id="a_edge13_Node000009_Node000003"><a xlink:title=" ">
<path fill="none" stroke="#63b8ff" d="M441.61,-156.13C441.46,-147.9 441.29,-138.85 441.17,-132.3"/>
<polygon fill="#63b8ff" stroke="#63b8ff" points="438.11,-156.15 441.8,-166.08 445.11,-156.02 438.11,-156.15"/>
</a>
</g>
</g>
<!-- Node9&#45;&gt;Node5 -->
<g id="edge14_Node000009_Node000005" class="edge">
<title>Node9&#45;&gt;Node5</title>
<g id="a_edge14_Node000009_Node000005"><a xlink:title=" ">
<path fill="none" stroke="#63b8ff" d="M478.61,-163.26C529.31,-142.19 610.84,-99.76 575,-56 553.54,-29.8 461.06,-18.53 401.84,-13.93"/>
<polygon fill="#63b8ff" stroke="#63b8ff" points="477.37,-159.98 469.4,-166.97 479.99,-166.47 477.37,-159.98"/>
</a>
</g>
</g>
</g>
</svg>
