<?xml version="1.0" encoding="UTF-8" standalone="no"?>
<!DOCTYPE svg PUBLIC "-//W3C//DTD SVG 1.1//EN"
 "http://www.w3.org/Graphics/SVG/1.1/DTD/svg11.dtd">
<!-- Generated by graphviz version 14.1.2 (20260124.0452)
 -->
<!-- Title: dll_export.hpp Pages: 1 -->
<!--zoomable 308 -->

<svg id="main" version="1.1" xmlns="http://www.w3.org/2000/svg" xmlns:xlink="http://www.w3.org/1999/xlink" xml:space="preserve" onload="init(evt)">

<style type="text/css"><![CDATA[
.node, .edge {opacity: 0.7;}
.node.selected, .edge.selected {opacity: 1;}
.edge:hover path { stroke: red; }
.edge:hover polygon { stroke: red; fill: red; }
]]></style>

<defs>
  <circle id="rim" cx="0" cy="0" r="7"/>
  <circle id="rim2" cx="0" cy="0" r="3.5"/>
  <g id="zoomPlus">
    <use xlink:href="#rim" fill="#404040"><set attributeName="fill" to="#808080" begin="zoomplus.mouseover" end="zoomplus.mouseout"/></use>
    <path d="M-4,0h8M0,-4v8" fill="none" stroke="white" stroke-width="1.5" pointer-events="none"/>
  </g>
  <g id="zoomMin">
    <use xlink:href="#rim" fill="#404040"><set attributeName="fill" to="#808080" begin="zoomminus.mouseover" end="zoomminus.mouseout"/></use>
    <path d="M-4,0h8" fill="none" stroke="white" stroke-width="1.5" pointer-events="none"/>
  </g>
  <g id="arrowUp" transform="translate(30 24)">
    <use xlink:href="#rim"/>
    <path pointer-events="none" fill="none" stroke="white" stroke-width="1.5" d="M0,-3.0v7 M-2.5,-0.5L0,-3.0L2.5,-0.5"/>
  </g>
  <g id="arrowRight" transform="rotate(90) translate(36 -43)">
    <use xlink:href="#rim"/>
    <path pointer-events="none" fill="none" stroke="white" stroke-width="1.5" d="M0,-3.0v7 M-2.5,-0.5L0,-3.0L2.5,-0.5"/>
  </g>
  <g id="arrowDown" transform="rotate(180) translate(-30 -48)">
    <use xlink:href="#rim"/>
    <path pointer-events="none" fill="none" stroke="white" stroke-width="1.5" d="M0,-3.0v7 M-2.5,-0.5L0,-3.0L2.5,-0.5"/>
  </g>
  <g id="arrowLeft" transform="rotate(270) translate(-36 17)">
    <use xlink:href="#rim"/>
    <path pointer-events="none" fill="none" stroke="white" stroke-width="1.5" d="M0,-3.0v7 M-2.5,-0.5L0,-3.0L2.5,-0.5"/>
  </g>
  <g id="resetDef">
    <use xlink:href="#rim2" fill="#404040"><set attributeName="fill" to="#808080" begin="reset.mouseover" end="reset.mouseout"/></use>
  </g>
</defs>
<script type="application/ecmascript">
var viewWidth = 1065;
var viewHeight = 308;
var sectionId = 'dynsection-0';
</script>
<script type="application/ecmascript" xlink:href="svg.min.js"/>
<svg id="graph" class="graph">
<g id="viewport">
<title>dll_export.hpp</title>
<!-- Node1 -->
<g id="Node000001" class="node">
<title>Node1</title>
<g id="a_Node000001"><a xlink:title="DLL Export/Import Macros for Windows.">
<polygon fill="#999999" stroke="#666666" points="364.78,-300 288.03,-300 288.03,-280 364.78,-280 364.78,-300"/>
<text xml:space="preserve" text-anchor="middle" x="326.41" y="-286.5" font-family="Helvetica,sans-Serif" font-size="10.00">dll_export.hpp</text>
</a>
</g>
</g>
<!-- Node2 -->
<g id="Node000002" class="node">
<title>Node2</title>
<g id="a_Node000002"><a xlink:href="client_8hpp.html" target="_top" xlink:title="Telnet Client for Substation Communication.">
<polygon fill="white" stroke="#666666" points="138.41,-188 80.41,-188 80.41,-168 138.41,-168 138.41,-188"/>
<text xml:space="preserve" text-anchor="middle" x="109.41" y="-174.5" font-family="Helvetica,sans-Serif" font-size="10.00">client.hpp</text>
</a>
</g>
</g>
<!-- Node1&#45;&gt;Node2 -->
<g id="edge1_Node000001_Node000002" class="edge">
<title>Node1&#45;&gt;Node2</title>
<g id="a_edge1_Node000001_Node000002"><a xlink:title=" ">
<path fill="none" stroke="#63b8ff" d="M276.71,-279.67C247.11,-272.72 209.55,-261.37 179.41,-244 153.25,-228.93 128.91,-202.44 117.02,-188.38"/>
<polygon fill="#63b8ff" stroke="#63b8ff" points="275.64,-283.02 286.16,-281.79 277.17,-276.19 275.64,-283.02"/>
</a>
</g>
</g>
<!-- Node4 -->
<g id="Node000004" class="node">
<title>Node4</title>
<g id="a_Node000004"><a xlink:href="relay__service_8hpp.html" target="_top" xlink:title="Thread&#45;safe relay communication service for DATE operations.">
<polygon fill="white" stroke="#666666" points="221.66,-132 129.16,-132 129.16,-112 221.66,-112 221.66,-132"/>
<text xml:space="preserve" text-anchor="middle" x="175.41" y="-118.5" font-family="Helvetica,sans-Serif" font-size="10.00">relay_service.hpp</text>
</a>
</g>
</g>
<!-- Node1&#45;&gt;Node4 -->
<g id="edge14_Node000001_Node000004" class="edge">
<title>Node1&#45;&gt;Node4</title>
<g id="a_edge14_Node000001_Node000004"><a xlink:title=" ">
<path fill="none" stroke="#63b8ff" d="M285.58,-275.51C268.47,-268.27 249.35,-257.93 235.41,-244 201.9,-210.53 183.91,-154.54 177.82,-132.41"/>
<polygon fill="#63b8ff" stroke="#63b8ff" points="283.93,-278.61 294.51,-279.05 286.51,-272.11 283.93,-278.61"/>
</a>
</g>
</g>
<!-- Node5 -->
<g id="Node000005" class="node">
<title>Node5</title>
<g id="a_Node000005"><a xlink:href="password__manager_8hpp.html" target="_top" xlink:title="Password management for relay LEVEL1 / LEVEL2 password changes.">
<polygon fill="white" stroke="#666666" points="323.16,-76 203.66,-76 203.66,-56 323.16,-56 323.16,-76"/>
<text xml:space="preserve" text-anchor="middle" x="263.41" y="-62.5" font-family="Helvetica,sans-Serif" font-size="10.00">password_manager.hpp</text>
</a>
</g>
</g>
<!-- Node1&#45;&gt;Node5 -->
<g id="edge13_Node000001_Node000005" class="edge">
<title>Node1&#45;&gt;Node5</title>
<g id="a_edge13_Node000001_Node000005"><a xlink:title=" ">
<path fill="none" stroke="#63b8ff" d="M319.37,-268.92C312.37,-248.63 301.53,-216.33 293.41,-188 281.59,-146.81 270.11,-96.95 265.51,-76.48"/>
<polygon fill="#63b8ff" stroke="#63b8ff" points="315.99,-269.88 322.58,-278.17 322.61,-267.58 315.99,-269.88"/>
</a>
</g>
</g>
<!-- Node7 -->
<g id="Node000007" class="node">
<title>Node7</title>
<g id="a_Node000007"><a xlink:href="time__sync__manager_8hpp.html" target="_top" xlink:title="DATE synchronization manager for relay ↔ local&#45;PC time operations.">
<polygon fill="white" stroke="#666666" points="147.66,-76 25.16,-76 25.16,-56 147.66,-56 147.66,-76"/>
<text xml:space="preserve" text-anchor="middle" x="86.41" y="-62.5" font-family="Helvetica,sans-Serif" font-size="10.00">time_sync_manager.hpp</text>
</a>
</g>
</g>
<!-- Node1&#45;&gt;Node7 -->
<g id="edge39_Node000001_Node000007" class="edge">
<title>Node1&#45;&gt;Node7</title>
<g id="a_edge39_Node000001_Node000007"><a xlink:title=" ">
<path fill="none" stroke="#63b8ff" d="M276.33,-283.35C198.86,-271.44 53.93,-235.67 6.41,-132 -5.56,-105.89 28.92,-86.97 56.32,-76.49"/>
<polygon fill="#63b8ff" stroke="#63b8ff" points="275.81,-286.81 286.21,-284.78 276.82,-279.88 275.81,-286.81"/>
</a>
</g>
</g>
<!-- Node9 -->
<g id="Node000009" class="node">
<title>Node9</title>
<g id="a_Node000009"><a xlink:href="ser__database_8hpp.html" target="_top" xlink:title="SQLite database handler for SER records.">
<polygon fill="white" stroke="#666666" points="716.03,-188 622.78,-188 622.78,-168 716.03,-168 716.03,-188"/>
<text xml:space="preserve" text-anchor="middle" x="669.41" y="-174.5" font-family="Helvetica,sans-Serif" font-size="10.00">ser_database.hpp</text>
</a>
</g>
</g>
<!-- Node1&#45;&gt;Node9 -->
<g id="edge15_Node000001_Node000009" class="edge">
<title>Node1&#45;&gt;Node9</title>
<g id="a_edge15_Node000001_Node000009"><a xlink:title=" ">
<path fill="none" stroke="#63b8ff" d="M376.22,-287.19C429.49,-283.7 515.49,-273.54 583.41,-244 614.99,-230.26 645.6,-202.69 660.32,-188.27"/>
<polygon fill="#63b8ff" stroke="#63b8ff" points="376.32,-283.68 366.55,-287.77 376.74,-290.67 376.32,-283.68"/>
</a>
</g>
</g>
<!-- Node12 -->
<g id="Node000012" class="node">
<title>Node12</title>
<g id="a_Node000012"><a xlink:href="ws__server_8hpp.html" target="_top" xlink:title="WebSocket Server for Real&#45;time SER Data Access.">
<polygon fill="white" stroke="#666666" points="531.28,-132 451.53,-132 451.53,-112 531.28,-112 531.28,-132"/>
<text xml:space="preserve" text-anchor="middle" x="491.41" y="-118.5" font-family="Helvetica,sans-Serif" font-size="10.00">ws_server.hpp</text>
</a>
</g>
</g>
<!-- Node1&#45;&gt;Node12 -->
<g id="edge40_Node000001_Node000012" class="edge">
<title>Node1&#45;&gt;Node12</title>
<g id="a_edge40_Node000001_Node000012"><a xlink:title=" ">
<path fill="none" stroke="#63b8ff" d="M343.59,-271.71C378.25,-236.84 455.52,-159.1 482.17,-132.3"/>
<polygon fill="#63b8ff" stroke="#63b8ff" points="341.38,-268.97 336.82,-278.53 346.35,-273.9 341.38,-268.97"/>
</a>
</g>
</g>
<!-- Node13 -->
<g id="Node000013" class="node">
<title>Node13</title>
<g id="a_Node000013"><a xlink:href="ser__record_8hpp.html" target="_top" xlink:title="System Event Record (SER) data structure and parser.">
<polygon fill="white" stroke="#666666" points="574.66,-244 494.16,-244 494.16,-224 574.66,-224 574.66,-244"/>
<text xml:space="preserve" text-anchor="middle" x="534.41" y="-230.5" font-family="Helvetica,sans-Serif" font-size="10.00">ser_record.hpp</text>
</a>
</g>
</g>
<!-- Node1&#45;&gt;Node13 -->
<g id="edge23_Node000001_Node000013" class="edge">
<title>Node1&#45;&gt;Node13</title>
<g id="a_edge23_Node000001_Node000013"><a xlink:title=" ">
<path fill="none" stroke="#63b8ff" d="M373.35,-276.81C411.06,-267.02 463.26,-253.47 497.89,-244.48"/>
<polygon fill="#63b8ff" stroke="#63b8ff" points="372.9,-273.31 364.1,-279.21 374.66,-280.09 372.9,-273.31"/>
</a>
</g>
</g>
<!-- Node16 -->
<g id="Node000016" class="node">
<title>Node16</title>
<g id="a_Node000016"><a xlink:href="telnet__sml__app_8hpp.html" target="_top" xlink:title="Telnet&#45;SML application facade (public API).">
<polygon fill="white" stroke="#666666" points="954.78,-244 854.03,-244 854.03,-224 954.78,-224 954.78,-244"/>
<text xml:space="preserve" text-anchor="middle" x="904.41" y="-230.5" font-family="Helvetica,sans-Serif" font-size="10.00">telnet_sml_app.hpp</text>
</a>
</g>
</g>
<!-- Node1&#45;&gt;Node16 -->
<g id="edge35_Node000001_Node000016" class="edge">
<title>Node1&#45;&gt;Node16</title>
<g id="a_edge35_Node000001_Node000016"><a xlink:title=" ">
<path fill="none" stroke="#63b8ff" d="M376.56,-284.31C485.74,-274.11 743.97,-249.99 853.68,-239.74"/>
<polygon fill="#63b8ff" stroke="#63b8ff" points="376.37,-280.82 366.74,-285.23 377.02,-287.79 376.37,-280.82"/>
</a>
</g>
</g>
<!-- Node3 -->
<g id="Node000003" class="node">
<title>Node3</title>
<g id="a_Node000003"><a xlink:href="client_8cpp.html" target="_top" xlink:title="Implementation of TelnetClient class.">
<polygon fill="white" stroke="#666666" points="73.41,-132 15.41,-132 15.41,-112 73.41,-112 73.41,-132"/>
<text xml:space="preserve" text-anchor="middle" x="44.41" y="-118.5" font-family="Helvetica,sans-Serif" font-size="10.00">client.cpp</text>
</a>
</g>
</g>
<!-- Node2&#45;&gt;Node3 -->
<g id="edge2_Node000002_Node000003" class="edge">
<title>Node2&#45;&gt;Node3</title>
<g id="a_edge2_Node000002_Node000003"><a xlink:title=" ">
<path fill="none" stroke="#63b8ff" d="M89.43,-160.4C78.31,-151.17 64.88,-140.01 55.6,-132.3"/>
<polygon fill="#63b8ff" stroke="#63b8ff" points="86.99,-162.93 96.92,-166.63 91.46,-157.54 86.99,-162.93"/>
</a>
</g>
</g>
<!-- Node2&#45;&gt;Node4 -->
<g id="edge3_Node000002_Node000004" class="edge">
<title>Node2&#45;&gt;Node4</title>
<g id="a_edge3_Node000002_Node000004"><a xlink:title=" ">
<path fill="none" stroke="#63b8ff" d="M129.69,-160.4C140.98,-151.17 154.62,-140.01 164.04,-132.3"/>
<polygon fill="#63b8ff" stroke="#63b8ff" points="127.6,-157.59 122.07,-166.64 132.03,-163.01 127.6,-157.59"/>
</a>
</g>
</g>
<!-- Node6 -->
<g id="Node000006" class="node">
<title>Node6</title>
<g id="a_Node000006"><a xlink:href="telnet__sml__app_8cpp.html" target="_top" xlink:title="Telnet SML Application &#45; Main orchestrator implementation.">
<polygon fill="white" stroke="#666666" points="443.78,-20 343.03,-20 343.03,0 443.78,0 443.78,-20"/>
<text xml:space="preserve" text-anchor="middle" x="393.41" y="-6.5" font-family="Helvetica,sans-Serif" font-size="10.00">telnet_sml_app.cpp</text>
</a>
</g>
</g>
<!-- Node2&#45;&gt;Node6 -->
<g id="edge11_Node000002_Node000006" class="edge">
<title>Node2&#45;&gt;Node6</title>
<g id="a_edge11_Node000002_Node000006"><a xlink:title=" ">
<path fill="none" stroke="#63b8ff" d="M69.22,-170.46C46.65,-164.51 20.3,-153.23 6.41,-132 -4.74,-114.96 -0.41,-71.87 16.41,-56 39.72,-34 245.23,-19.45 342.62,-13.73"/>
<polygon fill="#63b8ff" stroke="#63b8ff" points="68.25,-173.83 78.79,-172.7 69.85,-167.01 68.25,-173.83"/>
</a>
</g>
</g>
<!-- Node2&#45;&gt;Node7 -->
<g id="edge12_Node000002_Node000007" class="edge">
<title>Node2&#45;&gt;Node7</title>
<g id="a_edge12_Node000002_Node000007"><a xlink:title=" ">
<path fill="none" stroke="#63b8ff" d="M105.15,-156.64C100.15,-132.72 92.06,-94.03 88.36,-76.35"/>
<polygon fill="#63b8ff" stroke="#63b8ff" points="101.66,-157.07 107.14,-166.14 108.51,-155.64 101.66,-157.07"/>
</a>
</g>
</g>
<!-- Node8 -->
<g id="Node000008" class="node">
<title>Node8</title>
<g id="a_Node000008"><a xlink:href="telnet__fsm_8hpp.html" target="_top" xlink:title="Boost.SML Finite State Machine for Telnet Communication.">
<polygon fill="white" stroke="#666666" points="433.66,-132 353.16,-132 353.16,-112 433.66,-112 433.66,-132"/>
<text xml:space="preserve" text-anchor="middle" x="393.41" y="-118.5" font-family="Helvetica,sans-Serif" font-size="10.00">telnet_fsm.hpp</text>
</a>
</g>
</g>
<!-- Node2&#45;&gt;Node8 -->
<g id="edge9_Node000002_Node000008" class="edge">
<title>Node2&#45;&gt;Node8</title>
<g id="a_edge9_Node000002_Node000008"><a xlink:title=" ">
<path fill="none" stroke="#63b8ff" d="M149.92,-169.3C203.91,-159.03 298.89,-140.97 352.89,-130.7"/>
<polygon fill="#63b8ff" stroke="#63b8ff" points="149.39,-165.84 140.22,-171.14 150.69,-172.71 149.39,-165.84"/>
</a>
</g>
</g>
<!-- Node4&#45;&gt;Node5 -->
<g id="edge4_Node000004_Node000005" class="edge">
<title>Node4&#45;&gt;Node5</title>
<g id="a_edge4_Node000004_Node000005"><a xlink:title=" ">
<path fill="none" stroke="#63b8ff" d="M200.16,-105.81C215.51,-96.39 234.75,-84.58 247.96,-76.48"/>
<polygon fill="#63b8ff" stroke="#63b8ff" points="198.72,-102.59 192.02,-110.8 202.38,-108.56 198.72,-102.59"/>
</a>
</g>
</g>
<!-- Node4&#45;&gt;Node6 -->
<g id="edge6_Node000004_Node000006" class="edge">
<title>Node4&#45;&gt;Node6</title>
<g id="a_edge6_Node000004_Node000006"><a xlink:title=" ">
<path fill="none" stroke="#63b8ff" d="M176.16,-100.24C177.81,-85.86 182.35,-67.33 194.41,-56 215.57,-36.11 291.29,-23.23 342.98,-16.55"/>
<polygon fill="#63b8ff" stroke="#63b8ff" points="172.68,-99.78 175.45,-110.01 179.66,-100.29 172.68,-99.78"/>
</a>
</g>
</g>
<!-- Node4&#45;&gt;Node7 -->
<g id="edge7_Node000004_Node000007" class="edge">
<title>Node4&#45;&gt;Node7</title>
<g id="a_edge7_Node000004_Node000007"><a xlink:title=" ">
<path fill="none" stroke="#63b8ff" d="M150.37,-105.81C134.85,-96.39 115.39,-84.58 102.03,-76.48"/>
<polygon fill="#63b8ff" stroke="#63b8ff" points="148.24,-108.61 158.61,-110.81 151.88,-102.63 148.24,-108.61"/>
</a>
</g>
</g>
<!-- Node5&#45;&gt;Node6 -->
<g id="edge5_Node000005_Node000006" class="edge">
<title>Node5&#45;&gt;Node6</title>
<g id="a_edge5_Node000005_Node000006"><a xlink:title=" ">
<path fill="none" stroke="#63b8ff" d="M296.46,-51.27C319.65,-41.64 350.06,-29.01 370.59,-20.48"/>
<polygon fill="#63b8ff" stroke="#63b8ff" points="295.34,-47.94 287.45,-55.01 298.03,-54.41 295.34,-47.94"/>
</a>
</g>
</g>
<!-- Node7&#45;&gt;Node6 -->
<g id="edge8_Node000007_Node000006" class="edge">
<title>Node7&#45;&gt;Node6</title>
<g id="a_edge8_Node000007_Node000006"><a xlink:title=" ">
<path fill="none" stroke="#63b8ff" d="M151.3,-53.59C208.38,-43.55 290.32,-29.13 342.7,-19.92"/>
<polygon fill="#63b8ff" stroke="#63b8ff" points="150.97,-50.09 141.72,-55.27 152.18,-56.98 150.97,-50.09"/>
</a>
</g>
</g>
<!-- Node8&#45;&gt;Node6 -->
<g id="edge10_Node000008_Node000006" class="edge">
<title>Node8&#45;&gt;Node6</title>
<g id="a_edge10_Node000008_Node000006"><a xlink:title=" ">
<path fill="none" stroke="#63b8ff" d="M393.41,-100.31C393.41,-76.36 393.41,-37.95 393.41,-20.35"/>
<polygon fill="#63b8ff" stroke="#63b8ff" points="389.91,-100.11 393.41,-110.11 396.91,-100.11 389.91,-100.11"/>
</a>
</g>
</g>
<!-- Node9&#45;&gt;Node6 -->
<g id="edge18_Node000009_Node000006" class="edge">
<title>Node9&#45;&gt;Node6</title>
<g id="a_edge18_Node000009_Node000006"><a xlink:title=" ">
<path fill="none" stroke="#63b8ff" d="M687.1,-159.41C698.14,-146.22 708.8,-127.79 700.41,-112 679.52,-72.71 658.46,-73.16 617.41,-56 560.68,-32.29 490.53,-20.79 444.01,-15.41"/>
<polygon fill="#63b8ff" stroke="#63b8ff" points="684.79,-156.75 680.64,-166.5 689.97,-161.47 684.79,-156.75"/>
</a>
</g>
</g>
<!-- Node9&#45;&gt;Node8 -->
<g id="edge17_Node000009_Node000008" class="edge">
<title>Node9&#45;&gt;Node8</title>
<g id="a_edge17_Node000009_Node000008"><a xlink:title=" ">
<path fill="none" stroke="#63b8ff" d="M611.3,-165.63C558.19,-155.24 480.98,-140.13 434.15,-130.97"/>
<polygon fill="#63b8ff" stroke="#63b8ff" points="610.62,-169.06 621.1,-167.55 611.96,-162.19 610.62,-169.06"/>
</a>
</g>
</g>
<!-- Node10 -->
<g id="Node000010" class="node">
<title>Node10</title>
<g id="a_Node000010"><a xlink:href="ser__database_8cpp.html" target="_top" xlink:title="Implementation of SERDatabase class for SQLite storage.">
<polygon fill="white" stroke="#666666" points="841.03,-132 747.78,-132 747.78,-112 841.03,-112 841.03,-132"/>
<text xml:space="preserve" text-anchor="middle" x="794.41" y="-118.5" font-family="Helvetica,sans-Serif" font-size="10.00">ser_database.cpp</text>
</a>
</g>
</g>
<!-- Node9&#45;&gt;Node10 -->
<g id="edge16_Node000009_Node000010" class="edge">
<title>Node9&#45;&gt;Node10</title>
<g id="a_edge16_Node000009_Node000010"><a xlink:title=" ">
<path fill="none" stroke="#63b8ff" d="M701.49,-163.14C723.75,-153.52 752.81,-140.97 772.46,-132.48"/>
<polygon fill="#63b8ff" stroke="#63b8ff" points="700.36,-159.81 692.57,-166.99 703.14,-166.24 700.36,-159.81"/>
</a>
</g>
</g>
<!-- Node11 -->
<g id="Node000011" class="node">
<title>Node11</title>
<g id="a_Node000011"><a xlink:href="thread__manager_8hpp.html" target="_top" xlink:title="Thread management utilities for the Telnet&#45;SML application.">
<polygon fill="white" stroke="#666666" points="691.66,-132 587.16,-132 587.16,-112 691.66,-112 691.66,-132"/>
<text xml:space="preserve" text-anchor="middle" x="639.41" y="-118.5" font-family="Helvetica,sans-Serif" font-size="10.00">thread_manager.hpp</text>
</a>
</g>
</g>
<!-- Node9&#45;&gt;Node11 -->
<g id="edge19_Node000009_Node000011" class="edge">
<title>Node9&#45;&gt;Node11</title>
<g id="a_edge19_Node000009_Node000011"><a xlink:title=" ">
<path fill="none" stroke="#63b8ff" d="M658.62,-157.58C653.83,-148.97 648.43,-139.24 644.57,-132.3"/>
<polygon fill="#63b8ff" stroke="#63b8ff" points="655.53,-159.23 663.45,-166.27 661.65,-155.83 655.53,-159.23"/>
</a>
</g>
</g>
<!-- Node9&#45;&gt;Node12 -->
<g id="edge21_Node000009_Node000012" class="edge">
<title>Node9&#45;&gt;Node12</title>
<g id="a_edge21_Node000009_Node000012"><a xlink:title=" ">
<path fill="none" stroke="#63b8ff" d="M627.56,-164.31C595.43,-154.56 551.78,-141.32 522.65,-132.48"/>
<polygon fill="#63b8ff" stroke="#63b8ff" points="626.37,-167.6 636.95,-167.15 628.4,-160.9 626.37,-167.6"/>
</a>
</g>
</g>
<!-- Node11&#45;&gt;Node6 -->
<g id="edge20_Node000011_Node000006" class="edge">
<title>Node11&#45;&gt;Node6</title>
<g id="a_edge20_Node000011_Node000006"><a xlink:title=" ">
<path fill="none" stroke="#63b8ff" d="M630.63,-101.7C622.91,-86.93 610.27,-67.25 593.41,-56 548.69,-26.18 487.15,-15.89 444.18,-12.45"/>
<polygon fill="#63b8ff" stroke="#63b8ff" points="627.37,-103 634.9,-110.46 633.66,-99.93 627.37,-103"/>
</a>
</g>
</g>
<!-- Node12&#45;&gt;Node6 -->
<g id="edge22_Node000012_Node000006" class="edge">
<title>Node12&#45;&gt;Node6</title>
<g id="a_edge22_Node000012_Node000006"><a xlink:title=" ">
<path fill="none" stroke="#63b8ff" d="M475.56,-103.22C454.51,-79.58 418.07,-38.68 401.74,-20.35"/>
<polygon fill="#63b8ff" stroke="#63b8ff" points="472.78,-105.35 482.04,-110.49 478.01,-100.7 472.78,-105.35"/>
</a>
</g>
</g>
<!-- Node13&#45;&gt;Node8 -->
<g id="edge33_Node000013_Node000008" class="edge">
<title>Node13&#45;&gt;Node8</title>
<g id="a_edge33_Node000013_Node000008"><a xlink:title=" ">
<path fill="none" stroke="#63b8ff" d="M513.59,-216.76C483.65,-193.4 429.41,-151.09 405.4,-132.35"/>
<polygon fill="#63b8ff" stroke="#63b8ff" points="511.15,-219.3 521.19,-222.69 515.46,-213.78 511.15,-219.3"/>
</a>
</g>
</g>
<!-- Node13&#45;&gt;Node9 -->
<g id="edge30_Node000013_Node000009" class="edge">
<title>Node13&#45;&gt;Node9</title>
<g id="a_edge30_Node000013_Node000009"><a xlink:title=" ">
<path fill="none" stroke="#63b8ff" d="M568.4,-219.4C592.52,-209.75 624.29,-197.05 645.71,-188.48"/>
<polygon fill="#63b8ff" stroke="#63b8ff" points="567.31,-216.07 559.33,-223.03 569.91,-222.57 567.31,-216.07"/>
</a>
</g>
</g>
<!-- Node13&#45;&gt;Node11 -->
<g id="edge34_Node000013_Node000011" class="edge">
<title>Node13&#45;&gt;Node11</title>
<g id="a_edge34_Node000013_Node000011"><a xlink:title=" ">
<path fill="none" stroke="#63b8ff" d="M551.08,-215.53C573.6,-191.95 612.91,-150.76 630.48,-132.35"/>
<polygon fill="#63b8ff" stroke="#63b8ff" points="548.78,-212.88 544.4,-222.53 553.84,-217.71 548.78,-212.88"/>
</a>
</g>
</g>
<!-- Node14 -->
<g id="Node000014" class="node">
<title>Node14</title>
<g id="a_Node000014"><a xlink:href="asn__tlv__codec_8hpp.html" target="_top" xlink:title="ASN.1 BER/TLV codec for SER record payloads.">
<polygon fill="white" stroke="#666666" points="400.28,-188 302.53,-188 302.53,-168 400.28,-168 400.28,-188"/>
<text xml:space="preserve" text-anchor="middle" x="351.41" y="-174.5" font-family="Helvetica,sans-Serif" font-size="10.00">asn_tlv_codec.hpp</text>
</a>
</g>
</g>
<!-- Node13&#45;&gt;Node14 -->
<g id="edge24_Node000013_Node000014" class="edge">
<title>Node13&#45;&gt;Node14</title>
<g id="a_edge24_Node000013_Node000014"><a xlink:title=" ">
<path fill="none" stroke="#63b8ff" d="M491.82,-220.43C458.75,-210.67 413.61,-197.35 383.53,-188.48"/>
<polygon fill="#63b8ff" stroke="#63b8ff" points="490.5,-223.69 501.08,-223.17 492.48,-216.98 490.5,-223.69"/>
</a>
</g>
</g>
<!-- Node15 -->
<g id="Node000015" class="node">
<title>Node15</title>
<g id="a_Node000015"><a xlink:href="ser__json__writer_8hpp.html" target="_top" xlink:title="JSON serialization and file output for SER records.">
<polygon fill="white" stroke="#666666" points="584.78,-76 484.03,-76 484.03,-56 584.78,-56 584.78,-76"/>
<text xml:space="preserve" text-anchor="middle" x="534.41" y="-62.5" font-family="Helvetica,sans-Serif" font-size="10.00">ser_json_writer.hpp</text>
</a>
</g>
</g>
<!-- Node13&#45;&gt;Node15 -->
<g id="edge31_Node000013_Node000015" class="edge">
<title>Node13&#45;&gt;Node15</title>
<g id="a_edge31_Node000013_Node000015"><a xlink:title=" ">
<path fill="none" stroke="#63b8ff" d="M536.88,-212.36C539.44,-188.27 542.74,-147.22 540.41,-112 539.58,-99.57 537.49,-85.35 536.01,-76.27"/>
<polygon fill="#63b8ff" stroke="#63b8ff" points="533.43,-211.75 535.79,-222.08 540.39,-212.53 533.43,-211.75"/>
</a>
</g>
</g>
<!-- Node14&#45;&gt;Node4 -->
<g id="edge26_Node000014_Node000004" class="edge">
<title>Node14&#45;&gt;Node4</title>
<g id="a_edge26_Node000014_Node000004"><a xlink:title=" ">
<path fill="none" stroke="#63b8ff" d="M310.03,-164.31C278.27,-154.56 235.1,-141.32 206.3,-132.48"/>
<polygon fill="#63b8ff" stroke="#63b8ff" points="308.72,-167.56 319.3,-167.15 310.77,-160.87 308.72,-167.56"/>
</a>
</g>
</g>
<!-- Node14&#45;&gt;Node5 -->
<g id="edge25_Node000014_Node000005" class="edge">
<title>Node14&#45;&gt;Node5</title>
<g id="a_edge25_Node000014_Node000005"><a xlink:title=" ">
<path fill="none" stroke="#63b8ff" d="M334.94,-159.23C327.56,-151.08 318.87,-141.2 311.41,-132 295.86,-112.82 279,-89.29 269.98,-76.46"/>
<polygon fill="#63b8ff" stroke="#63b8ff" points="332.21,-161.43 341.54,-166.45 337.38,-156.71 332.21,-161.43"/>
</a>
</g>
</g>
<!-- Node14&#45;&gt;Node6 -->
<g id="edge28_Node000014_Node000006" class="edge">
<title>Node14&#45;&gt;Node6</title>
<g id="a_edge28_Node000014_Node000006"><a xlink:title=" ">
<path fill="none" stroke="#63b8ff" d="M345.79,-156.7C343.06,-143.78 341.02,-126.75 344.41,-112 352.7,-75.91 375.67,-37.76 386.97,-20.48"/>
<polygon fill="#63b8ff" stroke="#63b8ff" points="342.33,-157.28 348.11,-166.16 349.13,-155.61 342.33,-157.28"/>
</a>
</g>
</g>
<!-- Node14&#45;&gt;Node8 -->
<g id="edge27_Node000014_Node000008" class="edge">
<title>Node14&#45;&gt;Node8</title>
<g id="a_edge27_Node000014_Node000008"><a xlink:title=" ">
<path fill="none" stroke="#63b8ff" d="M365.62,-158.72C372.53,-149.84 380.54,-139.55 386.17,-132.3"/>
<polygon fill="#63b8ff" stroke="#63b8ff" points="363.03,-156.36 359.65,-166.4 368.55,-160.65 363.03,-156.36"/>
</a>
</g>
</g>
<!-- Node14&#45;&gt;Node12 -->
<g id="edge29_Node000014_Node000012" class="edge">
<title>Node14&#45;&gt;Node12</title>
<g id="a_edge29_Node000014_Node000012"><a xlink:title=" ">
<path fill="none" stroke="#63b8ff" d="M386.32,-163.53C411.38,-153.87 444.52,-141.08 466.83,-132.48"/>
<polygon fill="#63b8ff" stroke="#63b8ff" points="385.28,-160.18 377.2,-167.05 387.79,-166.72 385.28,-160.18"/>
</a>
</g>
</g>
<!-- Node15&#45;&gt;Node6 -->
<g id="edge32_Node000015_Node000006" class="edge">
<title>Node15&#45;&gt;Node6</title>
<g id="a_edge32_Node000015_Node000006"><a xlink:title=" ">
<path fill="none" stroke="#63b8ff" d="M499.24,-51.53C474.01,-41.87 440.63,-29.08 418.16,-20.48"/>
<polygon fill="#63b8ff" stroke="#63b8ff" points="497.84,-54.74 508.43,-55.05 500.35,-48.21 497.84,-54.74"/>
</a>
</g>
</g>
<!-- Node16&#45;&gt;Node6 -->
<g id="edge38_Node000016_Node000006" class="edge">
<title>Node16&#45;&gt;Node6</title>
<g id="a_edge38_Node000016_Node000006"><a xlink:title=" ">
<path fill="none" stroke="#63b8ff" d="M896.71,-213.39C883.84,-180.97 858.56,-119.09 850.41,-112 789.8,-59.26 550.13,-27.74 444.21,-16.12"/>
<polygon fill="#63b8ff" stroke="#63b8ff" points="893.35,-214.41 900.28,-222.43 899.86,-211.84 893.35,-214.41"/>
</a>
</g>
</g>
<!-- Node17 -->
<g id="Node000017" class="node">
<title>Node17</title>
<g id="a_Node000017"><a xlink:href="dll__example_8cpp.html" target="_top" xlink:title="Example Application Using Telnet&#45;SML DLL.">
<polygon fill="white" stroke="#666666" points="983.66,-188 897.16,-188 897.16,-168 983.66,-168 983.66,-188"/>
<text xml:space="preserve" text-anchor="middle" x="940.41" y="-174.5" font-family="Helvetica,sans-Serif" font-size="10.00">dll_example.cpp</text>
</a>
</g>
</g>
<!-- Node16&#45;&gt;Node17 -->
<g id="edge36_Node000016_Node000017" class="edge">
<title>Node16&#45;&gt;Node17</title>
<g id="a_edge36_Node000016_Node000017"><a xlink:title=" ">
<path fill="none" stroke="#63b8ff" d="M916.97,-214.15C922.8,-205.4 929.48,-195.39 934.21,-188.3"/>
<polygon fill="#63b8ff" stroke="#63b8ff" points="914.15,-212.07 911.52,-222.33 919.98,-215.96 914.15,-212.07"/>
</a>
</g>
</g>
<!-- Node18 -->
<g id="Node000018" class="node">
<title>Node18</title>
<g id="a_Node000018"><a xlink:href="main_8cpp.html" target="_top" xlink:title="Main entry point for Telnet&#45;SML Substation Monitoring System.">
<polygon fill="white" stroke="#666666" points="1057.28,-188 1001.53,-188 1001.53,-168 1057.28,-168 1057.28,-188"/>
<text xml:space="preserve" text-anchor="middle" x="1029.41" y="-174.5" font-family="Helvetica,sans-Serif" font-size="10.00">main.cpp</text>
</a>
</g>
</g>
<!-- Node16&#45;&gt;Node18 -->
<g id="edge37_Node000016_Node000018" class="edge">
<title>Node16&#45;&gt;Node18</title>
<g id="a_edge37_Node000016_Node000018"><a xlink:title=" ">
<path fill="none" stroke="#63b8ff" d="M936.49,-219.14C958.75,-209.52 987.81,-196.97 1007.46,-188.48"/>
<polygon fill="#63b8ff" stroke="#63b8ff" points="935.36,-215.81 927.57,-222.99 938.14,-222.24 935.36,-215.81"/>
</a>
</g>
</g>
</g>
</svg>

<g id="navigator" transform="translate(0 0)" fill="#404254">
  <rect fill="#f2f5e9" fill-opacity="0.5" stroke="#606060" stroke-width=".5" x="0" y="0" width="60" height="60"/>
  <use id="zoomplus" xlink:href="#zoomPlus" x="17" y="9" onmousedown="handleZoom(evt,'in')"/>
  <use id="zoomminus" xlink:href="#zoomMin" x="42" y="9" onmousedown="handleZoom(evt,'out')"/>
  <use id="reset" xlink:href="#resetDef" x="30" y="36" onmousedown="handleReset()"/>
   <use id="arrowup" xlink:href="#arrowUp" x="0" y="0" onmousedown="handlePan(0,-1)"/>
  <use id="arrowright" xlink:href="#arrowRight" x="0" y="0" onmousedown="handlePan(1,0)"/>
  <use id="arrowdown" xlink:href="#arrowDown" x="0" y="0" onmousedown="handlePan(0,1)"/>
  <use id="arrowleft" xlink:href="#arrowLeft" x="0" y="0" onmousedown="handlePan(-1,0)"/>
</g>
<svg viewBox="0 0 15 15" width="100%" height="30px" preserveAspectRatio="xMaxYMin meet">
 <g id="arrow_out" transform="scale(0.3 0.3)">
  <a xlink:href="dll__export_8hpp__dep__incl_org.svg" target="_base">
   <rect id="button" ry="5" rx="5" y="6" x="6" height="38" width="38"
        fill="#f2f5e9" fill-opacity="0.5" stroke="#606060" stroke-width="1.0"/>
   <path id="arrow"
     d="M 11.500037,31.436501 C 11.940474,20.09759 22.043105,11.32322 32.158766,21.979434 L 37.068811,17.246167 C 37.068811,17.246167 37.088388,32 37.088388,32 L 22.160133,31.978069 C 22.160133,31.978069 26.997745,27.140456 26.997745,27.140456 C 18.528582,18.264221 13.291696,25.230495 11.500037,31.436501 z"
     style="fill:#404040;"/>
  </a>
 </g>
</svg>

<style type='text/css'>
<![CDATA[
[data-mouse-over-selected='false'] { opacity: 0.7; }
[data-mouse-over-selected='true']  { opacity: 1.0; }
]]>
</style>
<script type="application/ecmascript"><![CDATA[
document.addEventListener('DOMContentLoaded', (event) => {
  highlightEdges();
  highlightAdjacentNodes();
});
]]></script>
</svg>
