<?xml version="1.0" encoding="UTF-8" standalone="no"?>
<!DOCTYPE svg PUBLIC "-//W3C//DTD SVG 1.1//EN"
 "http://www.w3.org/Graphics/SVG/1.1/DTD/svg11.dtd">
<!-- Generated by graphviz version 14.1.1 (20251213.1925)
 -->
<!-- Title: dll_export.hpp Pages: 1 -->
<!--zoomable 364 -->

<svg id="main" version="1.1" xmlns="http://www.w3.org/2000/svg" xmlns:xlink="http://www.w3.org/1999/xlink" xml:space="preserve" onload="init(evt)">

<style type="text/css"><![CDATA[
.node, .edge {opacity: 0.7;}
.node.selected, .edge.selected {opacity: 1;}
.edge:hover path { stroke: red; }
.edge:hover polygon { stroke: red; fill: red; }
]]></style>

<defs>
  <circle id="rim" cx="0" cy="0" r="7"/>
  <circle id="rim2" cx="0" cy="0" r="3.5"/>
  <g id="zoomPlus">
    <use xlink:href="#rim" fill="#404040"><set attributeName="fill" to="#808080" begin="zoomplus.mouseover" end="zoomplus.mouseout"/></use>
    <path d="M-4,0h8M0,-4v8" fill="none" stroke="white" stroke-width="1.5" pointer-events="none"/>
  </g>
  <g id="zoomMin">
    <use xlink:href="#rim" fill="#404040"><set attributeName="fill" to="#808080" begin="zoomminus.mouseover" end="zoomminus.mouseout"/></use>
    <path d="M-4,0h8" fill="none" stroke="white" stroke-width="1.5" pointer-events="none"/>
  </g>
  <g id="arrowUp" transform="translate(30 24)">
    <use xlink:href="#rim"/>
    <path pointer-events="none" fill="none" stroke="white" stroke-width="1.5" d="M0,-3.0v7 M-2.5,-0.5L0,-3.0L2.5,-0.5"/>
  </g>
  <g id="arrowRight" transform="rotate(90) translate(36 -43)">
    <use xlink:href="#rim"/>
    <path pointer-events="none" fill="none" stroke="white" stroke-width="1.5" d="M0,-3.0v7 M-2.5,-0.5L0,-3.0L2.5,-0.5"/>
  </g>
  <g id="arrowDown" transform="rotate(180) translate(-30 -48)">
    <use xlink:href="#rim"/>
    <path pointer-events="none" fill="none" stroke="white" stroke-width="1.5" d="M0,-3.0v7 M-2.5,-0.5L0,-3.0L2.5,-0.5"/>
  </g>
  <g id="arrowLeft" transform="rotate(270) translate(-36 17)">
    <use xlink:href="#rim"/>
    <path pointer-events="none" fill="none" stroke="white" stroke-width="1.5" d="M0,-3.0v7 M-2.5,-0.5L0,-3.0L2.5,-0.5"/>
  </g>
  <g id="resetDef">
    <use xlink:href="#rim2" fill="#404040"><set attributeName="fill" to="#808080" begin="reset.mouseover" end="reset.mouseout"/></use>
  </g>
</defs>
<script type="application/ecmascript">
var viewWidth = 1254;
var viewHeight = 364;
var sectionId = 'dynsection-0';
</script>
<script type="application/ecmascript" xlink:href="svg.min.js"/>
<svg id="graph" class="graph">
<g id="viewport">
<title>dll_export.hpp</title>
<!-- Node1 -->
<g id="Node000001" class="node">
<title>Node1</title>
<g id="a_Node000001"><a xlink:title="DLL Export/Import Macros for Windows.">
<polygon fill="#999999" stroke="#666666" points="305.6,-356 228.85,-356 228.85,-336 305.6,-336 305.6,-356"/>
<text xml:space="preserve" text-anchor="middle" x="267.22" y="-342.5" font-family="Helvetica,sans-Serif" font-size="10.00">dll_export.hpp</text>
</a>
</g>
</g>
<!-- Node2 -->
<g id="Node000002" class="node">
<title>Node2</title>
<g id="a_Node000002"><a xlink:href="client_8hpp.html" target="_top" xlink:title="Telnet Client for Substation Communication.">
<polygon fill="white" stroke="#666666" points="182.22,-244 124.22,-244 124.22,-224 182.22,-224 182.22,-244"/>
<text xml:space="preserve" text-anchor="middle" x="153.22" y="-230.5" font-family="Helvetica,sans-Serif" font-size="10.00">client.hpp</text>
</a>
</g>
</g>
<!-- Node1&#45;&gt;Node2 -->
<g id="edge1_Node000001_Node000002" class="edge">
<title>Node1&#45;&gt;Node2</title>
<g id="a_edge1_Node000001_Node000002"><a xlink:title=" ">
<path fill="none" stroke="#63b8ff" d="M237.99,-330.21C224.33,-322.41 208.43,-311.97 196.22,-300 178.84,-282.95 164.64,-257.74 157.75,-244.28"/>
<polygon fill="#63b8ff" stroke="#63b8ff" points="236.12,-333.18 246.57,-334.91 239.49,-327.04 236.12,-333.18"/>
</a>
</g>
</g>
<!-- Node7 -->
<g id="Node000007" class="node">
<title>Node7</title>
<g id="a_Node000007"><a xlink:href="relay__service_8hpp.html" target="_top" xlink:title="Thread&#45;safe relay communication service for DATE operations.">
<polygon fill="white" stroke="#666666" points="220.47,-188 127.97,-188 127.97,-168 220.47,-168 220.47,-188"/>
<text xml:space="preserve" text-anchor="middle" x="174.22" y="-174.5" font-family="Helvetica,sans-Serif" font-size="10.00">relay_service.hpp</text>
</a>
</g>
</g>
<!-- Node1&#45;&gt;Node7 -->
<g id="edge19_Node000001_Node000007" class="edge">
<title>Node1&#45;&gt;Node7</title>
<g id="a_edge19_Node000001_Node000007"><a xlink:title=" ">
<path fill="none" stroke="#63b8ff" d="M252.62,-326.6C246.6,-318.64 239.75,-309.08 234.22,-300 209.97,-260.14 187.17,-209.13 178.22,-188.4"/>
<polygon fill="#63b8ff" stroke="#63b8ff" points="249.83,-328.72 258.72,-334.48 255.37,-324.43 249.83,-328.72"/>
</a>
</g>
</g>
<!-- Node8 -->
<g id="Node000008" class="node">
<title>Node8</title>
<g id="a_Node000008"><a xlink:href="password__manager_8hpp.html" target="_top" xlink:title="Password management for relay LEVEL1 / LEVEL2 password changes.">
<polygon fill="white" stroke="#666666" points="336.97,-132 217.47,-132 217.47,-112 336.97,-112 336.97,-132"/>
<text xml:space="preserve" text-anchor="middle" x="277.22" y="-118.5" font-family="Helvetica,sans-Serif" font-size="10.00">password_manager.hpp</text>
</a>
</g>
</g>
<!-- Node1&#45;&gt;Node8 -->
<g id="edge18_Node000001_Node000008" class="edge">
<title>Node1&#45;&gt;Node8</title>
<g id="a_edge18_Node000001_Node000008"><a xlink:title=" ">
<path fill="none" stroke="#63b8ff" d="M268.15,-324.45C270.25,-277.79 275.32,-165.36 276.81,-132.3"/>
<polygon fill="#63b8ff" stroke="#63b8ff" points="264.66,-324.08 267.71,-334.23 271.66,-324.4 264.66,-324.08"/>
</a>
</g>
</g>
<!-- Node9 -->
<g id="Node000009" class="node">
<title>Node9</title>
<g id="a_Node000009"><a xlink:href="time__sync__manager_8hpp.html" target="_top" xlink:title="DATE synchronization manager for relay ↔ local&#45;PC time operations.">
<polygon fill="white" stroke="#666666" points="161.47,-132 38.97,-132 38.97,-112 161.47,-112 161.47,-132"/>
<text xml:space="preserve" text-anchor="middle" x="100.22" y="-118.5" font-family="Helvetica,sans-Serif" font-size="10.00">time_sync_manager.hpp</text>
</a>
</g>
</g>
<!-- Node1&#45;&gt;Node9 -->
<g id="edge50_Node000001_Node000009" class="edge">
<title>Node1&#45;&gt;Node9</title>
<g id="a_edge50_Node000001_Node000009"><a xlink:title=" ">
<path fill="none" stroke="#63b8ff" d="M218.35,-332.33C155.5,-313.06 49.23,-269.7 5.22,-188 -9.56,-160.55 28.95,-142.42 61.29,-132.44"/>
<polygon fill="#63b8ff" stroke="#63b8ff" points="217.14,-335.62 227.72,-335.11 219.13,-328.91 217.14,-335.62"/>
</a>
</g>
</g>
<!-- Node11 -->
<g id="Node000011" class="node">
<title>Node11</title>
<g id="a_Node000011"><a xlink:href="ser__database_8hpp.html" target="_top" xlink:title="SQLite database handler for SER records.">
<polygon fill="white" stroke="#666666" points="699.85,-244 606.6,-244 606.6,-224 699.85,-224 699.85,-244"/>
<text xml:space="preserve" text-anchor="middle" x="653.22" y="-230.5" font-family="Helvetica,sans-Serif" font-size="10.00">ser_database.hpp</text>
</a>
</g>
</g>
<!-- Node1&#45;&gt;Node11 -->
<g id="edge20_Node000001_Node000011" class="edge">
<title>Node1&#45;&gt;Node11</title>
<g id="a_edge20_Node000001_Node000011"><a xlink:title=" ">
<path fill="none" stroke="#63b8ff" d="M311.37,-332.42C389.48,-310.16 550.33,-264.32 619.92,-244.49"/>
<polygon fill="#63b8ff" stroke="#63b8ff" points="310.58,-329 301.92,-335.11 312.5,-335.74 310.58,-329"/>
</a>
</g>
</g>
<!-- Node14 -->
<g id="Node000014" class="node">
<title>Node14</title>
<g id="a_Node000014"><a xlink:href="ws__server_8hpp.html" target="_top" xlink:title="WebSocket Server for Real&#45;time SER Data Access.">
<polygon fill="white" stroke="#666666" points="432.1,-188 352.35,-188 352.35,-168 432.1,-168 432.1,-188"/>
<text xml:space="preserve" text-anchor="middle" x="392.22" y="-174.5" font-family="Helvetica,sans-Serif" font-size="10.00">ws_server.hpp</text>
</a>
</g>
</g>
<!-- Node1&#45;&gt;Node14 -->
<g id="edge51_Node000001_Node000014" class="edge">
<title>Node1&#45;&gt;Node14</title>
<g id="a_edge51_Node000001_Node000014"><a xlink:title=" ">
<path fill="none" stroke="#63b8ff" d="M280.92,-326.82C307.49,-291.53 365.21,-214.88 385.22,-188.3"/>
<polygon fill="#63b8ff" stroke="#63b8ff" points="278.43,-324.3 275.21,-334.39 284.03,-328.51 278.43,-324.3"/>
</a>
</g>
</g>
<!-- Node15 -->
<g id="Node000015" class="node">
<title>Node15</title>
<g id="a_Node000015"><a xlink:href="ser__record_8hpp.html" target="_top" xlink:title="System Event Record (SER) data structure and parser.">
<polygon fill="white" stroke="#666666" points="693.47,-300 612.97,-300 612.97,-280 693.47,-280 693.47,-300"/>
<text xml:space="preserve" text-anchor="middle" x="653.22" y="-286.5" font-family="Helvetica,sans-Serif" font-size="10.00">ser_record.hpp</text>
</a>
</g>
</g>
<!-- Node1&#45;&gt;Node15 -->
<g id="edge32_Node000001_Node000015" class="edge">
<title>Node1&#45;&gt;Node15</title>
<g id="a_edge32_Node000001_Node000015"><a xlink:title=" ">
<path fill="none" stroke="#63b8ff" d="M317.35,-337.99C394.71,-327.17 541.67,-306.61 612.74,-296.66"/>
<polygon fill="#63b8ff" stroke="#63b8ff" points="316.92,-334.51 307.5,-339.37 317.89,-341.45 316.92,-334.51"/>
</a>
</g>
</g>
<!-- Node18 -->
<g id="Node000018" class="node">
<title>Node18</title>
<g id="a_Node000018"><a xlink:href="telnet__sml__app_8hpp.html" target="_top" xlink:title="Telnet&#45;SML application facade (public API).">
<polygon fill="white" stroke="#666666" points="1143.6,-300 1042.85,-300 1042.85,-280 1143.6,-280 1143.6,-300"/>
<text xml:space="preserve" text-anchor="middle" x="1093.22" y="-286.5" font-family="Helvetica,sans-Serif" font-size="10.00">telnet_sml_app.hpp</text>
</a>
</g>
</g>
<!-- Node1&#45;&gt;Node18 -->
<g id="edge46_Node000001_Node000018" class="edge">
<title>Node1&#45;&gt;Node18</title>
<g id="a_edge46_Node000001_Node000018"><a xlink:title=" ">
<path fill="none" stroke="#63b8ff" d="M317.27,-341.73C464.36,-332.11 894.23,-304.01 1042.36,-294.33"/>
<polygon fill="#63b8ff" stroke="#63b8ff" points="317.22,-338.22 307.47,-342.37 317.67,-345.21 317.22,-338.22"/>
</a>
</g>
</g>
<!-- Node3 -->
<g id="Node000003" class="node">
<title>Node3</title>
<g id="a_Node000003"><a xlink:href="client_8cpp.html" target="_top" xlink:title="Implementation of TelnetClient class.">
<polygon fill="white" stroke="#666666" points="72.22,-188 14.22,-188 14.22,-168 72.22,-168 72.22,-188"/>
<text xml:space="preserve" text-anchor="middle" x="43.22" y="-174.5" font-family="Helvetica,sans-Serif" font-size="10.00">client.cpp</text>
</a>
</g>
</g>
<!-- Node2&#45;&gt;Node3 -->
<g id="edge2_Node000002_Node000003" class="edge">
<title>Node2&#45;&gt;Node3</title>
<g id="a_edge2_Node000002_Node000003"><a xlink:title=" ">
<path fill="none" stroke="#63b8ff" d="M123.92,-218.61C104.48,-209.07 79.51,-196.81 62.53,-188.48"/>
<polygon fill="#63b8ff" stroke="#63b8ff" points="122.19,-221.66 132.71,-222.93 125.27,-215.38 122.19,-221.66"/>
</a>
</g>
</g>
<!-- Node4 -->
<g id="Node000004" class="node">
<title>Node4</title>
<g id="a_Node000004"><a xlink:href="relay__pipeline_8hpp.html" target="_top" xlink:title="Per&#45;relay processing pipeline for on&#45;demand relay connections.">
<polygon fill="white" stroke="#666666" points="528.22,-132 434.22,-132 434.22,-112 528.22,-112 528.22,-132"/>
<text xml:space="preserve" text-anchor="middle" x="481.22" y="-118.5" font-family="Helvetica,sans-Serif" font-size="10.00">relay_pipeline.hpp</text>
</a>
</g>
</g>
<!-- Node2&#45;&gt;Node4 -->
<g id="edge3_Node000002_Node000004" class="edge">
<title>Node2&#45;&gt;Node4</title>
<g id="a_edge3_Node000002_Node000004"><a xlink:title=" ">
<path fill="none" stroke="#63b8ff" d="M191.21,-219.82C229.53,-206.58 290.41,-185.65 343.22,-168 380.63,-155.5 423.88,-141.47 451.84,-132.45"/>
<polygon fill="#63b8ff" stroke="#63b8ff" points="190.29,-216.44 181.99,-223.02 192.58,-223.05 190.29,-216.44"/>
</a>
</g>
</g>
<!-- Node6 -->
<g id="Node000006" class="node">
<title>Node6</title>
<g id="a_Node000006"><a xlink:href="telnet__sml__app_8cpp.html" target="_top" xlink:title="Telnet SML Application &#45; Main orchestrator implementation.">
<polygon fill="white" stroke="#666666" points="569.6,-20 468.85,-20 468.85,0 569.6,0 569.6,-20"/>
<text xml:space="preserve" text-anchor="middle" x="519.22" y="-6.5" font-family="Helvetica,sans-Serif" font-size="10.00">telnet_sml_app.cpp</text>
</a>
</g>
</g>
<!-- Node2&#45;&gt;Node6 -->
<g id="edge16_Node000002_Node000006" class="edge">
<title>Node2&#45;&gt;Node6</title>
<g id="a_edge16_Node000002_Node000006"><a xlink:title=" ">
<path fill="none" stroke="#63b8ff" d="M112.64,-233.05C77.89,-230.66 29.72,-221.05 5.22,-188 -11.28,-165.74 16.59,-126.3 30.22,-112 68.36,-72.01 88.32,-71.95 141.22,-56 254.8,-21.75 394.95,-13.41 468.56,-11.48"/>
<polygon fill="#63b8ff" stroke="#63b8ff" points="112.18,-236.53 122.34,-233.53 112.52,-229.54 112.18,-236.53"/>
</a>
</g>
</g>
<!-- Node2&#45;&gt;Node7 -->
<g id="edge7_Node000002_Node000007" class="edge">
<title>Node2&#45;&gt;Node7</title>
<g id="a_edge7_Node000002_Node000007"><a xlink:title=" ">
<path fill="none" stroke="#63b8ff" d="M161,-213C164.29,-204.54 167.97,-195.08 170.61,-188.3"/>
<polygon fill="#63b8ff" stroke="#63b8ff" points="157.79,-211.59 157.43,-222.18 164.32,-214.13 157.79,-211.59"/>
</a>
</g>
</g>
<!-- Node2&#45;&gt;Node9 -->
<g id="edge17_Node000002_Node000009" class="edge">
<title>Node2&#45;&gt;Node9</title>
<g id="a_edge17_Node000002_Node000009"><a xlink:title=" ">
<path fill="none" stroke="#63b8ff" d="M137.29,-215.06C130.95,-207.19 124.04,-197.58 119.22,-188 109.83,-169.3 104.31,-145.18 101.82,-132.22"/>
<polygon fill="#63b8ff" stroke="#63b8ff" points="134.46,-217.13 143.58,-222.52 139.81,-212.62 134.46,-217.13"/>
</a>
</g>
</g>
<!-- Node10 -->
<g id="Node000010" class="node">
<title>Node10</title>
<g id="a_Node000010"><a xlink:href="telnet__fsm_8hpp.html" target="_top" xlink:title="Boost.SML Finite State Machine for Telnet Communication.">
<polygon fill="white" stroke="#666666" points="568.47,-188 487.97,-188 487.97,-168 568.47,-168 568.47,-188"/>
<text xml:space="preserve" text-anchor="middle" x="528.22" y="-174.5" font-family="Helvetica,sans-Serif" font-size="10.00">telnet_fsm.hpp</text>
</a>
</g>
</g>
<!-- Node2&#45;&gt;Node10 -->
<g id="edge13_Node000002_Node000010" class="edge">
<title>Node2&#45;&gt;Node10</title>
<g id="a_edge13_Node000002_Node000010"><a xlink:title=" ">
<path fill="none" stroke="#63b8ff" d="M193.95,-227.14C266.08,-216.75 415.46,-195.24 487.55,-184.86"/>
<polygon fill="#63b8ff" stroke="#63b8ff" points="193.55,-223.66 184.15,-228.55 194.55,-230.59 193.55,-223.66"/>
</a>
</g>
</g>
<!-- Node5 -->
<g id="Node000005" class="node">
<title>Node5</title>
<g id="a_Node000005"><a xlink:href="relay__manager_8hpp.html" target="_top" xlink:title="On&#45;demand coordinator for multiple relay pipelines.">
<polygon fill="white" stroke="#666666" points="491.47,-76 392.97,-76 392.97,-56 491.47,-56 491.47,-76"/>
<text xml:space="preserve" text-anchor="middle" x="442.22" y="-62.5" font-family="Helvetica,sans-Serif" font-size="10.00">relay_manager.hpp</text>
</a>
</g>
</g>
<!-- Node4&#45;&gt;Node5 -->
<g id="edge4_Node000004_Node000005" class="edge">
<title>Node4&#45;&gt;Node5</title>
<g id="a_edge4_Node000004_Node000005"><a xlink:title=" ">
<path fill="none" stroke="#63b8ff" d="M467.82,-102.44C461.45,-93.62 454.12,-83.47 448.94,-76.3"/>
<polygon fill="#63b8ff" stroke="#63b8ff" points="464.85,-104.31 473.55,-110.37 470.53,-100.21 464.85,-104.31"/>
</a>
</g>
</g>
<!-- Node4&#45;&gt;Node6 -->
<g id="edge6_Node000004_Node000006" class="edge">
<title>Node4&#45;&gt;Node6</title>
<g id="a_edge6_Node000004_Node000006"><a xlink:title=" ">
<path fill="none" stroke="#63b8ff" d="M490.03,-101.51C493.42,-93.67 497.21,-84.48 500.22,-76 507.16,-56.51 513.54,-33.09 516.85,-20.36"/>
<polygon fill="#63b8ff" stroke="#63b8ff" points="486.93,-99.87 486.08,-110.43 493.33,-102.7 486.93,-99.87"/>
</a>
</g>
</g>
<!-- Node5&#45;&gt;Node6 -->
<g id="edge5_Node000005_Node000006" class="edge">
<title>Node5&#45;&gt;Node6</title>
<g id="a_edge5_Node000005_Node000006"><a xlink:title=" ">
<path fill="none" stroke="#63b8ff" d="M465.04,-49C478.27,-39.72 494.48,-28.35 505.71,-20.48"/>
<polygon fill="#63b8ff" stroke="#63b8ff" points="463.05,-46.12 456.88,-54.72 467.07,-51.85 463.05,-46.12"/>
</a>
</g>
</g>
<!-- Node7&#45;&gt;Node6 -->
<g id="edge10_Node000007_Node000006" class="edge">
<title>Node7&#45;&gt;Node6</title>
<g id="a_edge10_Node000007_Node000006"><a xlink:title=" ">
<path fill="none" stroke="#63b8ff" d="M180.78,-157.43C186.29,-143.37 195.35,-124.73 208.22,-112 279.47,-41.54 400.3,-20.23 468.49,-13.79"/>
<polygon fill="#63b8ff" stroke="#63b8ff" points="177.6,-155.91 177.49,-166.51 184.18,-158.3 177.6,-155.91"/>
</a>
</g>
</g>
<!-- Node7&#45;&gt;Node8 -->
<g id="edge8_Node000007_Node000008" class="edge">
<title>Node7&#45;&gt;Node8</title>
<g id="a_edge8_Node000007_Node000008"><a xlink:title=" ">
<path fill="none" stroke="#63b8ff" d="M202.17,-162.35C220.3,-152.84 243.39,-140.74 259.14,-132.48"/>
<polygon fill="#63b8ff" stroke="#63b8ff" points="200.74,-159.15 193.51,-166.89 203.99,-165.35 200.74,-159.15"/>
</a>
</g>
</g>
<!-- Node7&#45;&gt;Node9 -->
<g id="edge11_Node000007_Node000009" class="edge">
<title>Node7&#45;&gt;Node9</title>
<g id="a_edge11_Node000007_Node000009"><a xlink:title=" ">
<path fill="none" stroke="#63b8ff" d="M152.24,-160.95C139.44,-151.61 123.75,-140.16 112.97,-132.3"/>
<polygon fill="#63b8ff" stroke="#63b8ff" points="149.97,-163.63 160.11,-166.7 154.1,-157.98 149.97,-163.63"/>
</a>
</g>
</g>
<!-- Node8&#45;&gt;Node6 -->
<g id="edge9_Node000008_Node000006" class="edge">
<title>Node8&#45;&gt;Node6</title>
<g id="a_edge9_Node000008_Node000006"><a xlink:title=" ">
<path fill="none" stroke="#63b8ff" d="M292.95,-103.23C306.88,-88.53 328.5,-68.16 351.22,-56 387.97,-36.34 433.91,-24.8 468.47,-18.34"/>
<polygon fill="#63b8ff" stroke="#63b8ff" points="290.54,-100.68 286.35,-110.41 295.69,-105.42 290.54,-100.68"/>
</a>
</g>
</g>
<!-- Node9&#45;&gt;Node6 -->
<g id="edge12_Node000009_Node000006" class="edge">
<title>Node9&#45;&gt;Node6</title>
<g id="a_edge12_Node000009_Node000006"><a xlink:title=" ">
<path fill="none" stroke="#63b8ff" d="M115.37,-102.96C129.26,-87.74 151.27,-66.76 175.22,-56 226.53,-32.96 386.04,-19.59 468.59,-14.04"/>
<polygon fill="#63b8ff" stroke="#63b8ff" points="112.79,-100.59 108.82,-110.41 118.05,-105.21 112.79,-100.59"/>
</a>
</g>
</g>
<!-- Node10&#45;&gt;Node4 -->
<g id="edge14_Node000010_Node000004" class="edge">
<title>Node10&#45;&gt;Node4</title>
<g id="a_edge14_Node000010_Node000004"><a xlink:title=" ">
<path fill="none" stroke="#63b8ff" d="M512.56,-159C504.78,-150.06 495.69,-139.62 489.32,-132.3"/>
<polygon fill="#63b8ff" stroke="#63b8ff" points="509.84,-161.21 519.04,-166.45 515.12,-156.61 509.84,-161.21"/>
</a>
</g>
</g>
<!-- Node10&#45;&gt;Node6 -->
<g id="edge15_Node000010_Node000006" class="edge">
<title>Node10&#45;&gt;Node6</title>
<g id="a_edge15_Node000010_Node000006"><a xlink:title=" ">
<path fill="none" stroke="#63b8ff" d="M533.19,-156.62C534.82,-148.95 536.42,-140.12 537.22,-132 541.37,-90.15 528.33,-40.66 522.22,-20.37"/>
<polygon fill="#63b8ff" stroke="#63b8ff" points="529.79,-155.77 530.97,-166.3 536.61,-157.33 529.79,-155.77"/>
</a>
</g>
</g>
<!-- Node11&#45;&gt;Node4 -->
<g id="edge22_Node000011_Node000004" class="edge">
<title>Node11&#45;&gt;Node4</title>
<g id="a_edge22_Node000011_Node000004"><a xlink:title=" ">
<path fill="none" stroke="#63b8ff" d="M711.27,-227.17C765.34,-219.5 833.4,-202.68 803.22,-168 768.21,-127.76 609.39,-122.41 528.65,-122.36"/>
<polygon fill="#63b8ff" stroke="#63b8ff" points="710.94,-223.69 701.49,-228.47 711.86,-230.62 710.94,-223.69"/>
</a>
</g>
</g>
<!-- Node11&#45;&gt;Node5 -->
<g id="edge21_Node000011_Node000005" class="edge">
<title>Node11&#45;&gt;Node5</title>
<g id="a_edge21_Node000011_Node000005"><a xlink:title=" ">
<path fill="none" stroke="#63b8ff" d="M639.3,-214.72C619.06,-189.13 579.33,-142.34 537.22,-112 515.9,-96.64 488.51,-84.32 468.62,-76.48"/>
<polygon fill="#63b8ff" stroke="#63b8ff" points="636.45,-216.77 645.35,-222.51 641.98,-212.47 636.45,-216.77"/>
</a>
</g>
</g>
<!-- Node11&#45;&gt;Node6 -->
<g id="edge25_Node000011_Node000006" class="edge">
<title>Node11&#45;&gt;Node6</title>
<g id="a_edge25_Node000011_Node000006"><a xlink:title=" ">
<path fill="none" stroke="#63b8ff" d="M647.79,-212.71C637.75,-177.96 613.76,-105.97 575.22,-56 563.95,-41.38 547,-28.63 534.7,-20.46"/>
<polygon fill="#63b8ff" stroke="#63b8ff" points="644.39,-213.56 650.45,-222.26 651.13,-211.69 644.39,-213.56"/>
</a>
</g>
</g>
<!-- Node11&#45;&gt;Node10 -->
<g id="edge24_Node000011_Node000010" class="edge">
<title>Node11&#45;&gt;Node10</title>
<g id="a_edge24_Node000011_Node000010"><a xlink:title=" ">
<path fill="none" stroke="#63b8ff" d="M621.14,-219.14C598.88,-209.52 569.82,-196.97 550.17,-188.48"/>
<polygon fill="#63b8ff" stroke="#63b8ff" points="619.49,-222.24 630.06,-222.99 622.27,-215.81 619.49,-222.24"/>
</a>
</g>
</g>
<!-- Node12 -->
<g id="Node000012" class="node">
<title>Node12</title>
<g id="a_Node000012"><a xlink:href="ser__database_8cpp.html" target="_top" xlink:title="Implementation of SERDatabase class for SQLite storage.">
<polygon fill="white" stroke="#666666" points="793.85,-188 700.6,-188 700.6,-168 793.85,-168 793.85,-188"/>
<text xml:space="preserve" text-anchor="middle" x="747.22" y="-174.5" font-family="Helvetica,sans-Serif" font-size="10.00">ser_database.cpp</text>
</a>
</g>
</g>
<!-- Node11&#45;&gt;Node12 -->
<g id="edge23_Node000011_Node000012" class="edge">
<title>Node11&#45;&gt;Node12</title>
<g id="a_edge23_Node000011_Node000012"><a xlink:title=" ">
<path fill="none" stroke="#63b8ff" d="M679.2,-218.08C695.67,-208.62 716.48,-196.66 730.72,-188.48"/>
<polygon fill="#63b8ff" stroke="#63b8ff" points="677.84,-214.82 670.91,-222.84 681.33,-220.89 677.84,-214.82"/>
</a>
</g>
</g>
<!-- Node13 -->
<g id="Node000013" class="node">
<title>Node13</title>
<g id="a_Node000013"><a xlink:href="thread__manager_8hpp.html" target="_top" xlink:title="Thread management utilities for the Telnet&#45;SML application.">
<polygon fill="white" stroke="#666666" points="992.47,-188 887.97,-188 887.97,-168 992.47,-168 992.47,-188"/>
<text xml:space="preserve" text-anchor="middle" x="940.22" y="-174.5" font-family="Helvetica,sans-Serif" font-size="10.00">thread_manager.hpp</text>
</a>
</g>
</g>
<!-- Node11&#45;&gt;Node13 -->
<g id="edge26_Node000011_Node000013" class="edge">
<title>Node11&#45;&gt;Node13</title>
<g id="a_edge26_Node000011_Node000013"><a xlink:title=" ">
<path fill="none" stroke="#63b8ff" d="M711.42,-222.05C763.77,-212.2 839.91,-197.87 889.75,-188.5"/>
<polygon fill="#63b8ff" stroke="#63b8ff" points="710.96,-218.57 701.78,-223.86 712.26,-225.45 710.96,-218.57"/>
</a>
</g>
</g>
<!-- Node11&#45;&gt;Node14 -->
<g id="edge28_Node000011_Node000014" class="edge">
<title>Node11&#45;&gt;Node14</title>
<g id="a_edge28_Node000011_Node000014"><a xlink:title=" ">
<path fill="none" stroke="#63b8ff" d="M596.29,-221.22C546.75,-210.97 476.2,-196.37 432.36,-187.3"/>
<polygon fill="#63b8ff" stroke="#63b8ff" points="595.48,-224.63 605.98,-223.23 596.9,-217.77 595.48,-224.63"/>
</a>
</g>
</g>
<!-- Node13&#45;&gt;Node6 -->
<g id="edge27_Node000013_Node000006" class="edge">
<title>Node13&#45;&gt;Node6</title>
<g id="a_edge27_Node000013_Node000006"><a xlink:title=" ">
<path fill="none" stroke="#63b8ff" d="M913.15,-162.09C867.47,-137.38 771.7,-87.58 686.22,-56 645.24,-40.86 596.9,-28.39 562.8,-20.45"/>
<polygon fill="#63b8ff" stroke="#63b8ff" points="911.36,-165.09 921.81,-166.8 914.7,-158.94 911.36,-165.09"/>
</a>
</g>
</g>
<!-- Node14&#45;&gt;Node4 -->
<g id="edge30_Node000014_Node000004" class="edge">
<title>Node14&#45;&gt;Node4</title>
<g id="a_edge30_Node000014_Node000004"><a xlink:title=" ">
<path fill="none" stroke="#63b8ff" d="M417.26,-161.81C432.78,-152.39 452.25,-140.58 465.6,-132.48"/>
<polygon fill="#63b8ff" stroke="#63b8ff" points="415.76,-158.63 409.02,-166.81 419.39,-164.61 415.76,-158.63"/>
</a>
</g>
</g>
<!-- Node14&#45;&gt;Node5 -->
<g id="edge29_Node000014_Node000005" class="edge">
<title>Node14&#45;&gt;Node5</title>
<g id="a_edge29_Node000014_Node000005"><a xlink:title=" ">
<path fill="none" stroke="#63b8ff" d="M401.18,-157.3C412.03,-133.43 429.86,-94.2 437.97,-76.35"/>
<polygon fill="#63b8ff" stroke="#63b8ff" points="398.07,-155.69 397.11,-166.24 404.44,-158.59 398.07,-155.69"/>
</a>
</g>
</g>
<!-- Node14&#45;&gt;Node6 -->
<g id="edge31_Node000014_Node000006" class="edge">
<title>Node14&#45;&gt;Node6</title>
<g id="a_edge31_Node000014_Node000006"><a xlink:title=" ">
<path fill="none" stroke="#63b8ff" d="M383.76,-157.03C374.25,-131.14 362.76,-85.78 384.22,-56 403.37,-29.44 438.86,-18.32 468.65,-13.77"/>
<polygon fill="#63b8ff" stroke="#63b8ff" points="380.5,-158.3 387.43,-166.32 387.01,-155.73 380.5,-158.3"/>
</a>
</g>
</g>
<!-- Node15&#45;&gt;Node4 -->
<g id="edge40_Node000015_Node000004" class="edge">
<title>Node15&#45;&gt;Node4</title>
<g id="a_edge40_Node000015_Node000004"><a xlink:title=" ">
<path fill="none" stroke="#63b8ff" d="M699.94,-276.26C763.28,-256.79 863.91,-216.71 821.22,-168 802.22,-146.31 617.23,-131.68 528.39,-125.84"/>
<polygon fill="#63b8ff" stroke="#63b8ff" points="699,-272.89 690.42,-279.11 701,-279.6 699,-272.89"/>
</a>
</g>
</g>
<!-- Node15&#45;&gt;Node10 -->
<g id="edge44_Node000015_Node000010" class="edge">
<title>Node15&#45;&gt;Node10</title>
<g id="a_edge44_Node000015_Node000010"><a xlink:title=" ">
<path fill="none" stroke="#63b8ff" d="M632.01,-272.6C621.4,-264.23 608.46,-253.78 597.22,-244 575.13,-224.77 550.4,-200.85 537.38,-188.07"/>
<polygon fill="#63b8ff" stroke="#63b8ff" points="629.76,-275.28 639.79,-278.68 634.07,-269.76 629.76,-275.28"/>
</a>
</g>
</g>
<!-- Node15&#45;&gt;Node11 -->
<g id="edge41_Node000015_Node000011" class="edge">
<title>Node15&#45;&gt;Node11</title>
<g id="a_edge41_Node000015_Node000011"><a xlink:title=" ">
<path fill="none" stroke="#63b8ff" d="M653.22,-268.13C653.22,-259.9 653.22,-250.85 653.22,-244.3"/>
<polygon fill="#63b8ff" stroke="#63b8ff" points="649.72,-268.08 653.22,-278.08 656.72,-268.08 649.72,-268.08"/>
</a>
</g>
</g>
<!-- Node15&#45;&gt;Node13 -->
<g id="edge45_Node000015_Node000013" class="edge">
<title>Node15&#45;&gt;Node13</title>
<g id="a_edge45_Node000015_Node000013"><a xlink:title=" ">
<path fill="none" stroke="#63b8ff" d="M705.21,-286.76C751.88,-282.86 821.02,-272.33 874.22,-244 900.34,-230.09 923.01,-202.6 933.7,-188.23"/>
<polygon fill="#63b8ff" stroke="#63b8ff" points="705.08,-283.26 695.37,-287.5 705.6,-290.24 705.08,-283.26"/>
</a>
</g>
</g>
<!-- Node16 -->
<g id="Node000016" class="node">
<title>Node16</title>
<g id="a_Node000016"><a xlink:href="asn__tlv__codec_8hpp.html" target="_top" xlink:title="ASN.1 BER/TLV codec for SER record payloads.">
<polygon fill="white" stroke="#666666" points="509.1,-244 411.35,-244 411.35,-224 509.1,-224 509.1,-244"/>
<text xml:space="preserve" text-anchor="middle" x="460.22" y="-230.5" font-family="Helvetica,sans-Serif" font-size="10.00">asn_tlv_codec.hpp</text>
</a>
</g>
</g>
<!-- Node15&#45;&gt;Node16 -->
<g id="edge33_Node000015_Node000016" class="edge">
<title>Node15&#45;&gt;Node16</title>
<g id="a_edge33_Node000015_Node000016"><a xlink:title=" ">
<path fill="none" stroke="#63b8ff" d="M608.76,-276.56C573.85,-266.79 525.96,-253.39 494.11,-244.48"/>
<polygon fill="#63b8ff" stroke="#63b8ff" points="607.58,-279.86 618.15,-279.19 609.46,-273.12 607.58,-279.86"/>
</a>
</g>
</g>
<!-- Node17 -->
<g id="Node000017" class="node">
<title>Node17</title>
<g id="a_Node000017"><a xlink:href="ser__json__writer_8hpp.html" target="_top" xlink:title="JSON serialization and file output for SER records.">
<polygon fill="white" stroke="#666666" points="982.6,-76 881.85,-76 881.85,-56 982.6,-56 982.6,-76"/>
<text xml:space="preserve" text-anchor="middle" x="932.22" y="-62.5" font-family="Helvetica,sans-Serif" font-size="10.00">ser_json_writer.hpp</text>
</a>
</g>
</g>
<!-- Node15&#45;&gt;Node17 -->
<g id="edge42_Node000015_Node000017" class="edge">
<title>Node15&#45;&gt;Node17</title>
<g id="a_edge42_Node000015_Node000017"><a xlink:title=" ">
<path fill="none" stroke="#63b8ff" d="M705.2,-284.61C756.3,-279.14 835.9,-267.48 901.22,-244 949.16,-226.77 975.47,-231.95 1001.22,-188 1025.44,-146.69 970.92,-96.9 944.97,-76.46"/>
<polygon fill="#63b8ff" stroke="#63b8ff" points="704.9,-281.12 695.31,-285.63 705.61,-288.09 704.9,-281.12"/>
</a>
</g>
</g>
<!-- Node16&#45;&gt;Node4 -->
<g id="edge35_Node000016_Node000004" class="edge">
<title>Node16&#45;&gt;Node4</title>
<g id="a_edge35_Node000016_Node000004"><a xlink:title=" ">
<path fill="none" stroke="#63b8ff" d="M464.17,-212.31C468.75,-188.36 476.08,-149.95 479.44,-132.35"/>
<polygon fill="#63b8ff" stroke="#63b8ff" points="460.74,-211.66 462.3,-222.13 467.61,-212.97 460.74,-211.66"/>
</a>
</g>
</g>
<!-- Node16&#45;&gt;Node6 -->
<g id="edge38_Node000016_Node000006" class="edge">
<title>Node16&#45;&gt;Node6</title>
<g id="a_edge38_Node000016_Node000006"><a xlink:title=" ">
<path fill="none" stroke="#63b8ff" d="M520.42,-224.28C542.01,-217.93 564.21,-206.95 577.22,-188 615.85,-131.76 551.4,-47.98 527.55,-20.27"/>
<polygon fill="#63b8ff" stroke="#63b8ff" points="519.83,-220.82 511.04,-226.74 521.6,-227.59 519.83,-220.82"/>
</a>
</g>
</g>
<!-- Node16&#45;&gt;Node7 -->
<g id="edge36_Node000016_Node000007" class="edge">
<title>Node16&#45;&gt;Node7</title>
<g id="a_edge36_Node000016_Node000007"><a xlink:title=" ">
<path fill="none" stroke="#63b8ff" d="M400.04,-221.64C346.63,-211.55 269.71,-197.03 220.85,-187.8"/>
<polygon fill="#63b8ff" stroke="#63b8ff" points="399.1,-225.02 409.57,-223.44 400.4,-218.14 399.1,-225.02"/>
</a>
</g>
</g>
<!-- Node16&#45;&gt;Node8 -->
<g id="edge34_Node000016_Node000008" class="edge">
<title>Node16&#45;&gt;Node8</title>
<g id="a_edge34_Node000016_Node000008"><a xlink:title=" ">
<path fill="none" stroke="#63b8ff" d="M413.73,-220.01C391.38,-212.57 364.82,-201.92 343.22,-188 318.62,-172.14 295.64,-145.98 284.41,-132.18"/>
<polygon fill="#63b8ff" stroke="#63b8ff" points="412.62,-223.33 423.22,-223.04 414.76,-216.66 412.62,-223.33"/>
</a>
</g>
</g>
<!-- Node16&#45;&gt;Node10 -->
<g id="edge37_Node000016_Node000010" class="edge">
<title>Node16&#45;&gt;Node10</title>
<g id="a_edge37_Node000016_Node000010"><a xlink:title=" ">
<path fill="none" stroke="#63b8ff" d="M480.78,-216.68C492.48,-207.39 506.71,-196.09 516.52,-188.3"/>
<polygon fill="#63b8ff" stroke="#63b8ff" points="478.91,-213.69 473.25,-222.65 483.26,-219.17 478.91,-213.69"/>
</a>
</g>
</g>
<!-- Node16&#45;&gt;Node14 -->
<g id="edge39_Node000016_Node000014" class="edge">
<title>Node16&#45;&gt;Node14</title>
<g id="a_edge39_Node000016_Node000014"><a xlink:title=" ">
<path fill="none" stroke="#63b8ff" d="M439.67,-216.68C427.97,-207.39 413.74,-196.09 403.93,-188.3"/>
<polygon fill="#63b8ff" stroke="#63b8ff" points="437.19,-219.17 447.19,-222.65 441.54,-213.69 437.19,-219.17"/>
</a>
</g>
</g>
<!-- Node17&#45;&gt;Node6 -->
<g id="edge43_Node000017_Node000006" class="edge">
<title>Node17&#45;&gt;Node6</title>
<g id="a_edge43_Node000017_Node000006"><a xlink:title=" ">
<path fill="none" stroke="#63b8ff" d="M870.2,-56.89C788.34,-46.19 645.74,-27.54 569.96,-17.63"/>
<polygon fill="#63b8ff" stroke="#63b8ff" points="869.71,-60.36 880.08,-58.18 870.62,-53.42 869.71,-60.36"/>
</a>
</g>
</g>
<!-- Node18&#45;&gt;Node6 -->
<g id="edge49_Node000018_Node000006" class="edge">
<title>Node18&#45;&gt;Node6</title>
<g id="a_edge49_Node000018_Node000006"><a xlink:title=" ">
<path fill="none" stroke="#63b8ff" d="M1083,-269.5C1072.67,-247.96 1058.22,-211.96 1058.22,-179 1058.22,-179 1058.22,-179 1058.22,-121 1058.22,-79.51 1028.89,-73.4 991.22,-56 917.33,-21.87 675.96,-13.62 569.94,-11.63"/>
<polygon fill="#63b8ff" stroke="#63b8ff" points="1079.77,-270.88 1087.38,-278.26 1086.03,-267.75 1079.77,-270.88"/>
</a>
</g>
</g>
<!-- Node19 -->
<g id="Node000019" class="node">
<title>Node19</title>
<g id="a_Node000019"><a xlink:href="dll__example_8cpp.html" target="_top" xlink:title="Example Application Using Telnet&#45;SML DLL.">
<polygon fill="white" stroke="#666666" points="1172.47,-244 1085.97,-244 1085.97,-224 1172.47,-224 1172.47,-244"/>
<text xml:space="preserve" text-anchor="middle" x="1129.22" y="-230.5" font-family="Helvetica,sans-Serif" font-size="10.00">dll_example.cpp</text>
</a>
</g>
</g>
<!-- Node18&#45;&gt;Node19 -->
<g id="edge47_Node000018_Node000019" class="edge">
<title>Node18&#45;&gt;Node19</title>
<g id="a_edge47_Node000018_Node000019"><a xlink:title=" ">
<path fill="none" stroke="#63b8ff" d="M1105.79,-270.15C1111.62,-261.4 1118.3,-251.39 1123.03,-244.3"/>
<polygon fill="#63b8ff" stroke="#63b8ff" points="1102.97,-268.07 1100.34,-278.33 1108.79,-271.96 1102.97,-268.07"/>
</a>
</g>
</g>
<!-- Node20 -->
<g id="Node000020" class="node">
<title>Node20</title>
<g id="a_Node000020"><a xlink:href="main_8cpp.html" target="_top" xlink:title="Main entry point for Telnet&#45;SML Substation Monitoring System.">
<polygon fill="white" stroke="#666666" points="1246.1,-244 1190.35,-244 1190.35,-224 1246.1,-224 1246.1,-244"/>
<text xml:space="preserve" text-anchor="middle" x="1218.22" y="-230.5" font-family="Helvetica,sans-Serif" font-size="10.00">main.cpp</text>
</a>
</g>
</g>
<!-- Node18&#45;&gt;Node20 -->
<g id="edge48_Node000018_Node000020" class="edge">
<title>Node18&#45;&gt;Node20</title>
<g id="a_edge48_Node000018_Node000020"><a xlink:title=" ">
<path fill="none" stroke="#63b8ff" d="M1125.31,-275.14C1147.57,-265.52 1176.63,-252.97 1196.28,-244.48"/>
<polygon fill="#63b8ff" stroke="#63b8ff" points="1124.18,-271.81 1116.39,-278.99 1126.96,-278.24 1124.18,-271.81"/>
</a>
</g>
</g>
</g>
</svg>

<g id="navigator" transform="translate(0 0)" fill="#404254">
  <rect fill="#f2f5e9" fill-opacity="0.5" stroke="#606060" stroke-width=".5" x="0" y="0" width="60" height="60"/>
  <use id="zoomplus" xlink:href="#zoomPlus" x="17" y="9" onmousedown="handleZoom(evt,'in')"/>
  <use id="zoomminus" xlink:href="#zoomMin" x="42" y="9" onmousedown="handleZoom(evt,'out')"/>
  <use id="reset" xlink:href="#resetDef" x="30" y="36" onmousedown="handleReset()"/>
   <use id="arrowup" xlink:href="#arrowUp" x="0" y="0" onmousedown="handlePan(0,-1)"/>
  <use id="arrowright" xlink:href="#arrowRight" x="0" y="0" onmousedown="handlePan(1,0)"/>
  <use id="arrowdown" xlink:href="#arrowDown" x="0" y="0" onmousedown="handlePan(0,1)"/>
  <use id="arrowleft" xlink:href="#arrowLeft" x="0" y="0" onmousedown="handlePan(-1,0)"/>
</g>
<svg viewBox="0 0 15 15" width="100%" height="30px" preserveAspectRatio="xMaxYMin meet">
 <g id="arrow_out" transform="scale(0.3 0.3)">
  <a xlink:href="dll__export_8hpp__dep__incl_org.svg" target="_base">
   <rect id="button" ry="5" rx="5" y="6" x="6" height="38" width="38"
        fill="#f2f5e9" fill-opacity="0.5" stroke="#606060" stroke-width="1.0"/>
   <path id="arrow"
     d="M 11.500037,31.436501 C 11.940474,20.09759 22.043105,11.32322 32.158766,21.979434 L 37.068811,17.246167 C 37.068811,17.246167 37.088388,32 37.088388,32 L 22.160133,31.978069 C 22.160133,31.978069 26.997745,27.140456 26.997745,27.140456 C 18.528582,18.264221 13.291696,25.230495 11.500037,31.436501 z"
     style="fill:#404040;"/>
  </a>
 </g>
</svg>

<style type='text/css'>
<![CDATA[
[data-mouse-over-selected='false'] { opacity: 0.7; }
[data-mouse-over-selected='true']  { opacity: 1.0; }
]]>
</style>
<script type="application/ecmascript"><![CDATA[
document.addEventListener('DOMContentLoaded', (event) => {
  highlightEdges();
  highlightAdjacentNodes();
});
]]></script>
</svg>
