<?xml version="1.0" encoding="UTF-8" standalone="no"?>
<!DOCTYPE svg PUBLIC "-//W3C//DTD SVG 1.1//EN"
 "http://www.w3.org/Graphics/SVG/1.1/DTD/svg11.dtd">
<!-- Generated by graphviz version 14.1.2 (20260124.0452)
 -->
<!-- Title: main Pages: 1 -->
<svg width="213pt" height="104pt"
 viewBox="0.00 0.00 213.00 104.00" xmlns="http://www.w3.org/2000/svg" xmlns:xlink="http://www.w3.org/1999/xlink">

<svg id="main" version="1.1" xmlns="http://www.w3.org/2000/svg" xmlns:xlink="http://www.w3.org/1999/xlink" xml:space="preserve">

<style type="text/css"><![CDATA[
.node, .edge {opacity: 0.7;}
.node.selected, .edge.selected {opacity: 1;}
.edge:hover path { stroke: red; }
.edge:hover polygon { stroke: red; fill: red; }
]]></style>
<script type="application/ecmascript" xlink:href="svg.min.js"/>
<svg id="graph" class="graph">
<g id="graph0" class="graph" transform="scale(1 1) rotate(0) translate(4 100)">
<title>main</title>
<!-- Node1 -->
<g id="Node000001" class="node">
<title>Node1</title>
<g id="a_Node000001"><a xlink:title="Example application entry point.">
<polygon fill="#999999" stroke="#666666" points="37,-58 0,-58 0,-38 37,-38 37,-58"/>
<text xml:space="preserve" text-anchor="middle" x="18.5" y="-44.5" font-family="Helvetica,sans-Serif" font-size="10.00">main</text>
</a>
</g>
</g>
<!-- Node2 -->
<g id="Node000002" class="node">
<title>Node2</title>
<g id="a_Node000002"><a xlink:href="class_telnet_sml_app.html#a3fca74b7b73809c81c999a74aa603ed1" target="_top" xlink:title="Start the application and all background threads.">
<polygon fill="white" stroke="#666666" points="190.25,-96 88,-96 88,-76 190.25,-76 190.25,-96"/>
<text xml:space="preserve" text-anchor="middle" x="139.12" y="-82.5" font-family="Helvetica,sans-Serif" font-size="10.00">TelnetSmlApp::start</text>
</a>
</g>
</g>
<!-- Node1&#45;&gt;Node2 -->
<g id="edge1_Node000001_Node000002" class="edge">
<title>Node1&#45;&gt;Node2</title>
<g id="a_edge1_Node000001_Node000002"><a xlink:title=" ">
<path fill="none" stroke="#63b8ff" d="M37.25,-54.59C47.62,-58.37 60.99,-63.12 73,-67 78.46,-68.77 84.21,-70.55 89.93,-72.28"/>
<polygon fill="#63b8ff" stroke="#63b8ff" points="88.78,-75.59 99.37,-75.08 90.78,-68.88 88.78,-75.59"/>
</a>
</g>
</g>
<!-- Node3 -->
<g id="Node000003" class="node">
<title>Node3</title>
<g id="a_Node000003"><a xlink:href="class_telnet_sml_app.html#a6ade3b1035abc4396ad39f120fb516c5" target="_top" xlink:title="Stop the application and all background threads.">
<polygon fill="white" stroke="#666666" points="189.88,-58 88.38,-58 88.38,-38 189.88,-38 189.88,-58"/>
<text xml:space="preserve" text-anchor="middle" x="139.12" y="-44.5" font-family="Helvetica,sans-Serif" font-size="10.00">TelnetSmlApp::stop</text>
</a>
</g>
</g>
<!-- Node1&#45;&gt;Node3 -->
<g id="edge2_Node000001_Node000003" class="edge">
<title>Node1&#45;&gt;Node3</title>
<g id="a_edge2_Node000001_Node000003"><a xlink:title=" ">
<path fill="none" stroke="#63b8ff" d="M37.26,-48C47.87,-48 62.04,-48 76.4,-48"/>
<polygon fill="#63b8ff" stroke="#63b8ff" points="76.38,-51.5 86.38,-48 76.38,-44.5 76.38,-51.5"/>
</a>
</g>
</g>
<!-- Node4 -->
<g id="Node000004" class="node">
<title>Node4</title>
<g id="a_Node000004"><a xlink:href="class_telnet_sml_app.html#a33b4aa9fa0549e37f8814684a18449da" target="_top" xlink:title="Block until user requests application exit.">
<polygon fill="white" stroke="#666666" points="205.25,-20 73,-20 73,0 205.25,0 205.25,-20"/>
<text xml:space="preserve" text-anchor="middle" x="139.12" y="-6.5" font-family="Helvetica,sans-Serif" font-size="10.00">TelnetSmlApp::waitForExit</text>
</a>
</g>
</g>
<!-- Node1&#45;&gt;Node4 -->
<g id="edge3_Node000001_Node000004" class="edge">
<title>Node1&#45;&gt;Node4</title>
<g id="a_edge3_Node000001_Node000004"><a xlink:title=" ">
<path fill="none" stroke="#63b8ff" d="M37.25,-41.41C47.62,-37.63 60.99,-32.88 73,-29 78.46,-27.23 84.21,-25.45 89.93,-23.72"/>
<polygon fill="#63b8ff" stroke="#63b8ff" points="90.78,-27.12 99.37,-20.92 88.78,-20.41 90.78,-27.12"/>
</a>
</g>
</g>
</g>
</svg>
</svg>

<style type='text/css'>
<![CDATA[
[data-mouse-over-selected='false'] { opacity: 0.7; }
[data-mouse-over-selected='true']  { opacity: 1.0; }
]]>
</style>
<script type="application/ecmascript"><![CDATA[
document.addEventListener('DOMContentLoaded', (event) => {
  highlightEdges();
  highlightAdjacentNodes();
});
]]></script>
</svg>
