<?xml version="1.0" encoding="UTF-8" standalone="no"?>
<!DOCTYPE svg PUBLIC "-//W3C//DTD SVG 1.1//EN"
 "http://www.w3.org/Graphics/SVG/1.1/DTD/svg11.dtd">
<!-- Generated by graphviz version 14.1.2 (20260124.0452)
 -->
<!-- Title: TelnetFSM Pages: 1 -->
<!--zoomable 596 -->

<svg id="main" version="1.1" xmlns="http://www.w3.org/2000/svg" xmlns:xlink="http://www.w3.org/1999/xlink" xml:space="preserve" onload="init(evt)">

<style type="text/css"><![CDATA[
.node, .edge {opacity: 0.7;}
.node.selected, .edge.selected {opacity: 1;}
.edge:hover path { stroke: red; }
.edge:hover polygon { stroke: red; fill: red; }
]]></style>

<defs>
  <circle id="rim" cx="0" cy="0" r="7"/>
  <circle id="rim2" cx="0" cy="0" r="3.5"/>
  <g id="zoomPlus">
    <use xlink:href="#rim" fill="#404040"><set attributeName="fill" to="#808080" begin="zoomplus.mouseover" end="zoomplus.mouseout"/></use>
    <path d="M-4,0h8M0,-4v8" fill="none" stroke="white" stroke-width="1.5" pointer-events="none"/>
  </g>
  <g id="zoomMin">
    <use xlink:href="#rim" fill="#404040"><set attributeName="fill" to="#808080" begin="zoomminus.mouseover" end="zoomminus.mouseout"/></use>
    <path d="M-4,0h8" fill="none" stroke="white" stroke-width="1.5" pointer-events="none"/>
  </g>
  <g id="arrowUp" transform="translate(30 24)">
    <use xlink:href="#rim"/>
    <path pointer-events="none" fill="none" stroke="white" stroke-width="1.5" d="M0,-3.0v7 M-2.5,-0.5L0,-3.0L2.5,-0.5"/>
  </g>
  <g id="arrowRight" transform="rotate(90) translate(36 -43)">
    <use xlink:href="#rim"/>
    <path pointer-events="none" fill="none" stroke="white" stroke-width="1.5" d="M0,-3.0v7 M-2.5,-0.5L0,-3.0L2.5,-0.5"/>
  </g>
  <g id="arrowDown" transform="rotate(180) translate(-30 -48)">
    <use xlink:href="#rim"/>
    <path pointer-events="none" fill="none" stroke="white" stroke-width="1.5" d="M0,-3.0v7 M-2.5,-0.5L0,-3.0L2.5,-0.5"/>
  </g>
  <g id="arrowLeft" transform="rotate(270) translate(-36 17)">
    <use xlink:href="#rim"/>
    <path pointer-events="none" fill="none" stroke="white" stroke-width="1.5" d="M0,-3.0v7 M-2.5,-0.5L0,-3.0L2.5,-0.5"/>
  </g>
  <g id="resetDef">
    <use xlink:href="#rim2" fill="#404040"><set attributeName="fill" to="#808080" begin="reset.mouseover" end="reset.mouseout"/></use>
  </g>
</defs>
<script type="application/ecmascript">
var viewWidth = 553;
var viewHeight = 596;
</script>
<script type="application/ecmascript" xlink:href="svg.min.js"/>
<svg id="graph" class="graph">
<g id="viewport">
<title>TelnetFSM</title>
<polygon fill="white" stroke="none" points="-4,4 -4,-592.41 548.66,-592.41 548.66,4 -4,4"/>
<!-- Idle -->
<g id="node1" class="node">
<title>Idle</title>
<ellipse fill="lightgray" stroke="black" cx="388.91" cy="-559.42" rx="40.48" ry="28.99"/>
<text xml:space="preserve" text-anchor="middle" x="388.91" y="-562.62" font-family="Times New Roman,serif" font-size="14.00">Idle</text>
<text xml:space="preserve" text-anchor="middle" x="388.91" y="-546.12" font-family="Times New Roman,serif" font-size="14.00">(Initial)</text>
</g>
<!-- Connecting -->
<g id="node2" class="node">
<title>Connecting</title>
<ellipse fill="lightyellow" stroke="black" cx="388.91" cy="-459.93" rx="53.4" ry="18"/>
<text xml:space="preserve" text-anchor="middle" x="388.91" y="-454.88" font-family="Times New Roman,serif" font-size="14.00">Connecting</text>
</g>
<!-- Idle&#45;&gt;Connecting -->
<g id="edge1" class="edge">
<title>Idle&#45;&gt;Connecting</title>
<path fill="none" stroke="black" d="M388.91,-529.96C388.91,-517.27 388.91,-502.34 388.91,-489.62"/>
<polygon fill="black" stroke="black" points="392.41,-489.76 388.91,-479.76 385.41,-489.76 392.41,-489.76"/>
<text xml:space="preserve" text-anchor="middle" x="418.53" y="-499.13" font-family="Times New Roman,serif" font-size="14.00">start_event</text>
</g>
<!-- Login_L1 -->
<g id="node3" class="node">
<title>Login_L1</title>
<ellipse fill="lightyellow" stroke="black" cx="268.91" cy="-360.44" rx="74.42" ry="28.99"/>
<text xml:space="preserve" text-anchor="middle" x="268.91" y="-363.64" font-family="Times New Roman,serif" font-size="14.00">Login_L1</text>
<text xml:space="preserve" text-anchor="middle" x="268.91" y="-347.14" font-family="Times New Roman,serif" font-size="14.00">(Authentication)</text>
</g>
<!-- Connecting&#45;&gt;Login_L1 -->
<g id="edge2" class="edge">
<title>Connecting&#45;&gt;Login_L1</title>
<path fill="none" stroke="black" d="M338.89,-453.3C318.8,-448.56 297.04,-439.86 282.66,-423.93 276.92,-417.58 273.39,-409.4 271.26,-401.06"/>
<polygon fill="black" stroke="black" points="274.71,-400.42 269.43,-391.24 267.82,-401.71 274.71,-400.42"/>
<text xml:space="preserve" text-anchor="middle" x="328.78" y="-410.63" font-family="Times New Roman,serif" font-size="14.00">step[ConnectOk]</text>
</g>
<!-- Error -->
<g id="node8" class="node">
<title>Error</title>
<ellipse fill="lightcoral" stroke="black" cx="257.91" cy="-28.99" rx="41.54" ry="28.99"/>
<text xml:space="preserve" text-anchor="middle" x="257.91" y="-32.19" font-family="Times New Roman,serif" font-size="14.00">Error</text>
<text xml:space="preserve" text-anchor="middle" x="257.91" y="-15.69" font-family="Times New Roman,serif" font-size="14.00">(Failed)</text>
</g>
<!-- Connecting&#45;&gt;Error -->
<g id="edge3" class="edge">
<title>Connecting&#45;&gt;Error</title>
<path fill="none" stroke="black" d="M406.29,-442.78C423.69,-424.77 447.91,-393.88 447.91,-361.44 447.91,-361.44 447.91,-361.44 447.91,-138.47 447.91,-74.69 366.15,-47.9 309.89,-37.03"/>
<polygon fill="black" stroke="black" points="310.62,-33.6 300.16,-35.27 309.37,-40.49 310.62,-33.6"/>
<text xml:space="preserve" text-anchor="middle" x="496.28" y="-244.91" font-family="Times New Roman,serif" font-size="14.00">step[ConnectFail]</text>
</g>
<!-- WaitingRetry -->
<g id="node4" class="node">
<title>WaitingRetry</title>
<ellipse fill="orange" stroke="black" cx="348.91" cy="-249.96" rx="62.76" ry="28.99"/>
<text xml:space="preserve" text-anchor="middle" x="348.91" y="-253.16" font-family="Times New Roman,serif" font-size="14.00">WaitingRetry</text>
<text xml:space="preserve" text-anchor="middle" x="348.91" y="-236.66" font-family="Times New Roman,serif" font-size="14.00">(Delay)</text>
</g>
<!-- Login_L1&#45;&gt;WaitingRetry -->
<g id="edge5" class="edge">
<title>Login_L1&#45;&gt;WaitingRetry</title>
<path fill="none" stroke="black" d="M276.06,-331.12C279.77,-319.82 285.1,-307.11 292.41,-296.95 296.24,-291.62 300.84,-286.56 305.74,-281.89"/>
<polygon fill="black" stroke="black" points="307.9,-284.65 313.05,-275.39 303.25,-279.42 307.9,-284.65"/>
<text xml:space="preserve" text-anchor="middle" x="333.66" y="-300.15" font-family="Times New Roman,serif" font-size="14.00">step[CanRetry]</text>
</g>
<!-- Operational -->
<g id="node5" class="node">
<title>Operational</title>
<ellipse fill="lightgreen" stroke="black" cx="126.91" cy="-249.96" rx="54.42" ry="18"/>
<text xml:space="preserve" text-anchor="middle" x="126.91" y="-244.91" font-family="Times New Roman,serif" font-size="14.00">Operational</text>
</g>
<!-- Login_L1&#45;&gt;Operational -->
<g id="edge4" class="edge">
<title>Login_L1&#45;&gt;Operational</title>
<path fill="none" stroke="black" d="M196.56,-353.17C170.6,-347.03 143.77,-335.37 127.66,-313.45 120.64,-303.91 119.47,-291.15 120.44,-279.65"/>
<polygon fill="black" stroke="black" points="123.89,-280.2 121.85,-269.81 116.96,-279.21 123.89,-280.2"/>
<text xml:space="preserve" text-anchor="middle" x="185.78" y="-300.15" font-family="Times New Roman,serif" font-size="14.00">step[LoginComplete]</text>
</g>
<!-- Login_L1&#45;&gt;Error -->
<g id="edge6" class="edge">
<title>Login_L1&#45;&gt;Error</title>
<path fill="none" stroke="black" d="M267.96,-331.07C266,-272.32 261.49,-137.23 259.24,-69.8"/>
<polygon fill="black" stroke="black" points="262.74,-69.8 258.91,-59.93 255.74,-70.04 262.74,-69.8"/>
<text xml:space="preserve" text-anchor="middle" x="310.91" y="-189.67" font-family="Times New Roman,serif" font-size="14.00">step[MaxRetries]</text>
</g>
<!-- WaitingRetry&#45;&gt;Connecting -->
<g id="edge7" class="edge">
<title>WaitingRetry&#45;&gt;Connecting</title>
<path fill="none" stroke="black" d="M366.6,-277.81C369.88,-283.89 372.9,-290.46 374.91,-296.95 388.83,-341.9 390.56,-396.99 390.07,-429.96"/>
<polygon fill="black" stroke="black" points="386.57,-429.85 389.83,-439.93 393.57,-430.02 386.57,-429.85"/>
<text xml:space="preserve" text-anchor="middle" x="400.2" y="-355.39" font-family="Times New Roman,serif" font-size="14.00">step</text>
</g>
<!-- Polling -->
<g id="node6" class="node">
<title>Polling</title>
<ellipse fill="lightblue" stroke="black" cx="126.91" cy="-139.47" rx="61.7" ry="28.99"/>
<text xml:space="preserve" text-anchor="middle" x="126.91" y="-142.67" font-family="Times New Roman,serif" font-size="14.00">Polling</text>
<text xml:space="preserve" text-anchor="middle" x="126.91" y="-126.17" font-family="Times New Roman,serif" font-size="14.00">(SER Query)</text>
</g>
<!-- Operational&#45;&gt;Polling -->
<g id="edge8" class="edge">
<title>Operational&#45;&gt;Polling</title>
<path fill="none" stroke="black" d="M126.91,-231.53C126.91,-217.74 126.91,-197.94 126.91,-180.32"/>
<polygon fill="black" stroke="black" points="130.41,-180.38 126.91,-170.38 123.41,-180.38 130.41,-180.38"/>
<text xml:space="preserve" text-anchor="middle" x="137.78" y="-189.67" font-family="Times New Roman,serif" font-size="14.00">step</text>
</g>
<!-- Done -->
<g id="node7" class="node">
<title>Done</title>
<ellipse fill="lightgreen" stroke="black" cx="47.91" cy="-28.99" rx="47.91" ry="28.99"/>
<text xml:space="preserve" text-anchor="middle" x="47.91" y="-32.19" font-family="Times New Roman,serif" font-size="14.00">Done</text>
<text xml:space="preserve" text-anchor="middle" x="47.91" y="-15.69" font-family="Times New Roman,serif" font-size="14.00">(Success)</text>
</g>
<!-- Polling&#45;&gt;Done -->
<g id="edge9" class="edge">
<title>Polling&#45;&gt;Done</title>
<path fill="none" stroke="black" d="M79.62,-120.73C67.51,-113.82 55.94,-104.58 48.91,-92.48 44.86,-85.53 43.08,-77.37 42.58,-69.29"/>
<polygon fill="black" stroke="black" points="46.08,-69.56 42.63,-59.54 39.08,-69.53 46.08,-69.56"/>
<text xml:space="preserve" text-anchor="middle" x="99.91" y="-79.18" font-family="Times New Roman,serif" font-size="14.00">step[SerComplete]</text>
</g>
<!-- Polling&#45;&gt;Error -->
<g id="edge10" class="edge">
<title>Polling&#45;&gt;Error</title>
<path fill="none" stroke="black" d="M143.78,-111.17C151.96,-99.39 162.53,-86.03 174.16,-75.98 185.66,-66.04 199.66,-57.32 212.89,-50.23"/>
<polygon fill="black" stroke="black" points="214.17,-53.51 221.46,-45.82 210.97,-47.28 214.17,-53.51"/>
<text xml:space="preserve" text-anchor="middle" x="209.03" y="-79.18" font-family="Times New Roman,serif" font-size="14.00">step[SerFail]</text>
</g>
<!-- Done&#45;&gt;Done -->
<g id="edge11" class="edge">
<title>Done&#45;&gt;Done</title>
<path fill="none" stroke="black" d="M93.19,-39.24C104.95,-38.61 113.81,-35.2 113.81,-28.99 113.81,-25.02 110.17,-22.19 104.47,-20.5"/>
<polygon fill="black" stroke="black" points="105.1,-17.06 94.68,-18.97 104.02,-23.97 105.1,-17.06"/>
<text xml:space="preserve" text-anchor="middle" x="124.69" y="-23.94" font-family="Times New Roman,serif" font-size="14.00">step</text>
</g>
</g>
</svg>

<g id="navigator" transform="translate(0 0)" fill="#404254">
  <rect fill="#f2f5e9" fill-opacity="0.5" stroke="#606060" stroke-width=".5" x="0" y="0" width="60" height="60"/>
  <use id="zoomplus" xlink:href="#zoomPlus" x="17" y="9" onmousedown="handleZoom(evt,'in')"/>
  <use id="zoomminus" xlink:href="#zoomMin" x="42" y="9" onmousedown="handleZoom(evt,'out')"/>
  <use id="reset" xlink:href="#resetDef" x="30" y="36" onmousedown="handleReset()"/>
   <use id="arrowup" xlink:href="#arrowUp" x="0" y="0" onmousedown="handlePan(0,-1)"/>
  <use id="arrowright" xlink:href="#arrowRight" x="0" y="0" onmousedown="handlePan(1,0)"/>
  <use id="arrowdown" xlink:href="#arrowDown" x="0" y="0" onmousedown="handlePan(0,1)"/>
  <use id="arrowleft" xlink:href="#arrowLeft" x="0" y="0" onmousedown="handlePan(-1,0)"/>
</g>
<svg viewBox="0 0 15 15" width="100%" height="30px" preserveAspectRatio="xMaxYMin meet">
 <g id="arrow_out" transform="scale(0.3 0.3)">
  <a xlink:href="dot_inline_dotgraph_10_org.svg" target="_base">
   <rect id="button" ry="5" rx="5" y="6" x="6" height="38" width="38"
        fill="#f2f5e9" fill-opacity="0.5" stroke="#606060" stroke-width="1.0"/>
   <path id="arrow"
     d="M 11.500037,31.436501 C 11.940474,20.09759 22.043105,11.32322 32.158766,21.979434 L 37.068811,17.246167 C 37.068811,17.246167 37.088388,32 37.088388,32 L 22.160133,31.978069 C 22.160133,31.978069 26.997745,27.140456 26.997745,27.140456 C 18.528582,18.264221 13.291696,25.230495 11.500037,31.436501 z"
     style="fill:#404040;"/>
  </a>
 </g>
</svg>

<style type='text/css'>
<![CDATA[
[data-mouse-over-selected='false'] { opacity: 0.7; }
[data-mouse-over-selected='true']  { opacity: 1.0; }
]]>
</style>
<script type="application/ecmascript"><![CDATA[
document.addEventListener('DOMContentLoaded', (event) => {
  highlightEdges();
  highlightAdjacentNodes();
});
]]></script>
</svg>
