<?xml version="1.0" encoding="UTF-8" standalone="no"?>
<!DOCTYPE svg PUBLIC "-//W3C//DTD SVG 1.1//EN"
 "http://www.w3.org/Graphics/SVG/1.1/DTD/svg11.dtd">
<!-- Generated by graphviz version 14.1.1 (20251213.1925)
 -->
<!-- Title: DataFlow Pages: 1 -->
<svg width="711pt" height="110pt"
 viewBox="0.00 0.00 711.00 110.00" xmlns="http://www.w3.org/2000/svg" xmlns:xlink="http://www.w3.org/1999/xlink">
<g id="graph0" class="graph" transform="scale(1 1) rotate(0) translate(4 105.94)">
<title>DataFlow</title>
<polygon fill="white" stroke="none" points="-4,4 -4,-105.94 706.65,-105.94 706.65,4 -4,4"/>
<!-- Relay -->
<g id="node1" class="node">
<title>Relay</title>
<ellipse fill="lightblue" stroke="black" cx="61.08" cy="-49.5" rx="61.08" ry="18"/>
<text xml:space="preserve" text-anchor="middle" x="61.08" y="-44.45" font-family="Times New Roman,serif" font-size="14.00">Relay Device</text>
</g>
<!-- Telnet -->
<g id="node2" class="node">
<title>Telnet</title>
<polygon fill="lightyellow" stroke="black" points="265.65,-70 182.9,-70 182.9,-29 265.65,-29 265.65,-70"/>
<text xml:space="preserve" text-anchor="middle" x="224.28" y="-52.7" font-family="Times New Roman,serif" font-size="14.00">TelnetClient</text>
<text xml:space="preserve" text-anchor="middle" x="224.28" y="-36.2" font-family="Times New Roman,serif" font-size="14.00">(Reception)</text>
</g>
<!-- Relay&#45;&gt;Telnet -->
<g id="edge1" class="edge">
<title>Relay&#45;&gt;Telnet</title>
<path fill="none" stroke="black" d="M122.56,-49.5C138.51,-49.5 155.58,-49.5 171.05,-49.5"/>
<polygon fill="black" stroke="black" points="171.01,-53 181.01,-49.5 171.01,-46 171.01,-53"/>
<text xml:space="preserve" text-anchor="middle" x="152.53" y="-52.7" font-family="Times New Roman,serif" font-size="14.00">TCP</text>
</g>
<!-- Ring -->
<g id="node3" class="node">
<title>Ring</title>
<polygon fill="lightgreen" stroke="black" points="510.4,-70 382.65,-70 382.65,-29 510.4,-29 510.4,-70"/>
<text xml:space="preserve" text-anchor="middle" x="446.53" y="-52.7" font-family="Times New Roman,serif" font-size="14.00">RawDataRingBuffer</text>
<text xml:space="preserve" text-anchor="middle" x="446.53" y="-36.2" font-family="Times New Roman,serif" font-size="14.00">(MPMC)</text>
</g>
<!-- Telnet&#45;&gt;Ring -->
<g id="edge2" class="edge">
<title>Telnet&#45;&gt;Ring</title>
<path fill="none" stroke="black" d="M265.93,-49.5C295.32,-49.5 335.86,-49.5 370.98,-49.5"/>
<polygon fill="black" stroke="black" points="370.66,-53 380.66,-49.5 370.66,-46 370.66,-53"/>
<text xml:space="preserve" text-anchor="middle" x="324.15" y="-69.2" font-family="Times New Roman,serif" font-size="14.00">push</text>
<text xml:space="preserve" text-anchor="middle" x="324.15" y="-52.7" font-family="Times New Roman,serif" font-size="14.00">(non&#45;blocking)</text>
</g>
<!-- FSM -->
<g id="node4" class="node">
<title>FSM</title>
<polygon fill="lightyellow" stroke="black" points="694.4,-100 610.9,-100 610.9,-59 694.4,-59 694.4,-100"/>
<text xml:space="preserve" text-anchor="middle" x="652.65" y="-82.7" font-family="Times New Roman,serif" font-size="14.00">Consumer 1</text>
<text xml:space="preserve" text-anchor="middle" x="652.65" y="-66.2" font-family="Times New Roman,serif" font-size="14.00">(Processing)</text>
</g>
<!-- Ring&#45;&gt;FSM -->
<g id="edge3" class="edge">
<title>Ring&#45;&gt;FSM</title>
<path fill="none" stroke="black" d="M510.72,-58.79C539.2,-62.97 572.43,-67.86 599.47,-71.83"/>
<polygon fill="black" stroke="black" points="598.74,-75.26 609.14,-73.25 599.76,-68.34 598.74,-75.26"/>
<text xml:space="preserve" text-anchor="middle" x="556.53" y="-88.64" font-family="Times New Roman,serif" font-size="14.00">waitPop</text>
<text xml:space="preserve" text-anchor="middle" x="556.53" y="-72.14" font-family="Times New Roman,serif" font-size="14.00">(blocking)</text>
</g>
<!-- Other -->
<g id="node5" class="node">
<title>Other</title>
<polygon fill="none" stroke="black" stroke-dasharray="5,2" points="702.65,-41 602.65,-41 602.65,0 702.65,0 702.65,-41"/>
<text xml:space="preserve" text-anchor="middle" x="652.65" y="-23.7" font-family="Times New Roman,serif" font-size="14.00">Consumer N</text>
<text xml:space="preserve" text-anchor="middle" x="652.65" y="-7.2" font-family="Times New Roman,serif" font-size="14.00">(Analytics etc.)</text>
</g>
<!-- Ring&#45;&gt;Other -->
<g id="edge4" class="edge">
<title>Ring&#45;&gt;Other</title>
<path fill="none" stroke="black" stroke-dasharray="5,2" d="M509.38,-28.55C515.75,-26.94 522.17,-25.54 528.4,-24.5 548.52,-21.13 570.74,-19.71 590.71,-19.26"/>
<polygon fill="black" stroke="black" points="590.71,-22.76 600.66,-19.12 590.61,-15.76 590.71,-22.76"/>
<text xml:space="preserve" text-anchor="middle" x="556.53" y="-44.2" font-family="Times New Roman,serif" font-size="14.00">waitPop</text>
<text xml:space="preserve" text-anchor="middle" x="556.53" y="-27.7" font-family="Times New Roman,serif" font-size="14.00">(blocking)</text>
</g>
</g>
</svg>
