<?xml version="1.0" encoding="UTF-8" standalone="no"?>
<!DOCTYPE svg PUBLIC "-//W3C//DTD SVG 1.1//EN"
 "http://www.w3.org/Graphics/SVG/1.1/DTD/svg11.dtd">
<!-- Generated by graphviz version 14.1.1 (20251213.1925)
 -->
<!-- Title: WSArchitecture Pages: 1 -->
<!--zoomable 459 -->

<svg id="main" version="1.1" xmlns="http://www.w3.org/2000/svg" xmlns:xlink="http://www.w3.org/1999/xlink" xml:space="preserve" onload="init(evt)">

<style type="text/css"><![CDATA[
.node, .edge {opacity: 0.7;}
.node.selected, .edge.selected {opacity: 1;}
.edge:hover path { stroke: red; }
.edge:hover polygon { stroke: red; fill: red; }
]]></style>

<defs>
  <circle id="rim" cx="0" cy="0" r="7"/>
  <circle id="rim2" cx="0" cy="0" r="3.5"/>
  <g id="zoomPlus">
    <use xlink:href="#rim" fill="#404040"><set attributeName="fill" to="#808080" begin="zoomplus.mouseover" end="zoomplus.mouseout"/></use>
    <path d="M-4,0h8M0,-4v8" fill="none" stroke="white" stroke-width="1.5" pointer-events="none"/>
  </g>
  <g id="zoomMin">
    <use xlink:href="#rim" fill="#404040"><set attributeName="fill" to="#808080" begin="zoomminus.mouseover" end="zoomminus.mouseout"/></use>
    <path d="M-4,0h8" fill="none" stroke="white" stroke-width="1.5" pointer-events="none"/>
  </g>
  <g id="arrowUp" transform="translate(30 24)">
    <use xlink:href="#rim"/>
    <path pointer-events="none" fill="none" stroke="white" stroke-width="1.5" d="M0,-3.0v7 M-2.5,-0.5L0,-3.0L2.5,-0.5"/>
  </g>
  <g id="arrowRight" transform="rotate(90) translate(36 -43)">
    <use xlink:href="#rim"/>
    <path pointer-events="none" fill="none" stroke="white" stroke-width="1.5" d="M0,-3.0v7 M-2.5,-0.5L0,-3.0L2.5,-0.5"/>
  </g>
  <g id="arrowDown" transform="rotate(180) translate(-30 -48)">
    <use xlink:href="#rim"/>
    <path pointer-events="none" fill="none" stroke="white" stroke-width="1.5" d="M0,-3.0v7 M-2.5,-0.5L0,-3.0L2.5,-0.5"/>
  </g>
  <g id="arrowLeft" transform="rotate(270) translate(-36 17)">
    <use xlink:href="#rim"/>
    <path pointer-events="none" fill="none" stroke="white" stroke-width="1.5" d="M0,-3.0v7 M-2.5,-0.5L0,-3.0L2.5,-0.5"/>
  </g>
  <g id="resetDef">
    <use xlink:href="#rim2" fill="#404040"><set attributeName="fill" to="#808080" begin="reset.mouseover" end="reset.mouseout"/></use>
  </g>
</defs>
<script type="application/ecmascript">
var viewWidth = 384;
var viewHeight = 459;
</script>
<script type="application/ecmascript" xlink:href="svg.min.js"/>
<svg id="graph" class="graph">
<g id="viewport">
<title>WSArchitecture</title>
<polygon fill="white" stroke="none" points="-4,4 -4,-455.48 380.01,-455.48 380.01,4 -4,4"/>
<g id="clust1" class="cluster">
<title>cluster_server</title>
<polygon fill="none" stroke="black" points="8,-119 8,-443.48 160,-443.48 160,-119 8,-119"/>
<text xml:space="preserve" text-anchor="middle" x="84" y="-426.18" font-family="Times New Roman,serif" font-size="14.00">WebSocket Server</text>
</g>
<g id="clust2" class="cluster">
<title>cluster_deps</title>
<polygon fill="none" stroke="black" points="147,-8 147,-84.5 345,-84.5 345,-8 147,-8"/>
<text xml:space="preserve" text-anchor="middle" x="246" y="-67.2" font-family="Times New Roman,serif" font-size="14.00">Dependencies</text>
</g>
<g id="clust3" class="cluster">
<title>cluster_external</title>
<polygon fill="none" stroke="black" points="168,-229 168,-327.48 312,-327.48 312,-229 168,-229"/>
<text xml:space="preserve" text-anchor="middle" x="240" y="-310.18" font-family="Times New Roman,serif" font-size="14.00">External</text>
</g>
<!-- WS -->
<g id="node1" class="node">
<title>WS</title>
<polygon fill="lightyellow" stroke="black" points="152.38,-410.98 15.62,-410.98 15.62,-369.98 152.38,-369.98 152.38,-410.98"/>
<text xml:space="preserve" text-anchor="middle" x="84" y="-393.68" font-family="Times New Roman,serif" font-size="14.00">SERWebSocketServer</text>
<text xml:space="preserve" text-anchor="middle" x="84" y="-377.18" font-family="Times New Roman,serif" font-size="14.00">(Main Controller)</text>
</g>
<!-- Listener -->
<g id="node2" class="node">
<title>Listener</title>
<polygon fill="lightyellow" stroke="black" points="147.88,-286.49 26.12,-286.49 26.12,-245.49 147.88,-245.49 147.88,-286.49"/>
<text xml:space="preserve" text-anchor="middle" x="87" y="-269.19" font-family="Times New Roman,serif" font-size="14.00">WebSocketListener</text>
<text xml:space="preserve" text-anchor="middle" x="87" y="-252.69" font-family="Times New Roman,serif" font-size="14.00">(Accept Loop)</text>
</g>
<!-- WS&#45;&gt;Listener -->
<g id="edge1" class="edge">
<title>WS&#45;&gt;Listener</title>
<path fill="none" stroke="black" d="M84.49,-369.53C84.96,-350.22 85.69,-320.67 86.23,-298.24"/>
<polygon fill="black" stroke="black" points="89.73,-298.53 86.47,-288.45 82.73,-298.36 89.73,-298.53"/>
<text xml:space="preserve" text-anchor="middle" x="99.57" y="-338.68" font-family="Times New Roman,serif" font-size="14.00">owns</text>
</g>
<!-- IOC -->
<g id="node5" class="node">
<title>IOC</title>
<polygon fill="lightyellow" stroke="black" points="336.5,-52 263.5,-52 263.5,-16 336.5,-16 336.5,-52"/>
<text xml:space="preserve" text-anchor="middle" x="300" y="-28.95" font-family="Times New Roman,serif" font-size="14.00">io_context</text>
</g>
<!-- WS&#45;&gt;IOC -->
<g id="edge2" class="edge">
<title>WS&#45;&gt;IOC</title>
<path fill="none" stroke="black" d="M152.6,-380.44C213.59,-370.82 296.1,-353.4 316,-327.48 376.56,-248.62 335.28,-119.6 312.39,-63.05"/>
<polygon fill="black" stroke="black" points="315.63,-61.71 308.55,-53.83 309.17,-64.41 315.63,-61.71"/>
<text xml:space="preserve" text-anchor="middle" x="361.76" y="-197.45" font-family="Times New Roman,serif" font-size="14.00">owns</text>
</g>
<!-- Session -->
<g id="node3" class="node">
<title>Session</title>
<polygon fill="lightyellow" stroke="black" points="152.38,-168 33.62,-168 33.62,-127 152.38,-127 152.38,-168"/>
<text xml:space="preserve" text-anchor="middle" x="93" y="-150.7" font-family="Times New Roman,serif" font-size="14.00">WebSocketSession</text>
<text xml:space="preserve" text-anchor="middle" x="93" y="-134.2" font-family="Times New Roman,serif" font-size="14.00">(Per Client)</text>
</g>
<!-- Listener&#45;&gt;Session -->
<g id="edge3" class="edge">
<title>Listener&#45;&gt;Session</title>
<path fill="none" stroke="black" d="M88.02,-245.23C88.94,-227.32 90.31,-200.63 91.39,-179.82"/>
<polygon fill="black" stroke="black" points="94.88,-180.04 91.9,-169.87 87.89,-179.68 94.88,-180.04"/>
<text xml:space="preserve" text-anchor="middle" x="109.81" y="-197.45" font-family="Times New Roman,serif" font-size="14.00">creates</text>
</g>
<!-- DB -->
<g id="node4" class="node">
<title>DB</title>
<polygon fill="lightyellow" stroke="black" points="245.12,-52 154.88,-52 154.88,-16 245.12,-16 245.12,-52"/>
<text xml:space="preserve" text-anchor="middle" x="200" y="-28.95" font-family="Times New Roman,serif" font-size="14.00">SERDatabase</text>
</g>
<!-- Session&#45;&gt;DB -->
<g id="edge4" class="edge">
<title>Session&#45;&gt;DB</title>
<path fill="none" stroke="black" d="M112.13,-126.57C129.91,-108.04 156.47,-80.36 175.73,-60.29"/>
<polygon fill="black" stroke="black" points="178.05,-62.93 182.44,-53.29 172.99,-58.09 178.05,-62.93"/>
<text xml:space="preserve" text-anchor="middle" x="162.79" y="-95.7" font-family="Times New Roman,serif" font-size="14.00">queries</text>
</g>
<!-- Browser -->
<g id="node6" class="node">
<title>Browser</title>
<ellipse fill="lightblue" stroke="black" cx="240" cy="-265.99" rx="63.82" ry="28.99"/>
<text xml:space="preserve" text-anchor="middle" x="240" y="-269.19" font-family="Times New Roman,serif" font-size="14.00">Web Browser</text>
<text xml:space="preserve" text-anchor="middle" x="240" y="-252.69" font-family="Times New Roman,serif" font-size="14.00">(index.html)</text>
</g>
<!-- Browser&#45;&gt;Session -->
<g id="edge5" class="edge">
<title>Browser&#45;&gt;Session</title>
<path fill="none" stroke="black" d="M208.83,-240.29C184.76,-221.22 151.52,-194.87 126.81,-175.3"/>
<polygon fill="black" stroke="black" points="129,-172.56 118.99,-169.09 124.65,-178.05 129,-172.56"/>
<text xml:space="preserve" text-anchor="middle" x="232.54" y="-205.7" font-family="Times New Roman,serif" font-size="14.00">WebSocket</text>
<text xml:space="preserve" text-anchor="middle" x="232.54" y="-189.2" font-family="Times New Roman,serif" font-size="14.00">ws://localhost:8765</text>
</g>
</g>
</svg>

<g id="navigator" transform="translate(0 0)" fill="#404254">
  <rect fill="#f2f5e9" fill-opacity="0.5" stroke="#606060" stroke-width=".5" x="0" y="0" width="60" height="60"/>
  <use id="zoomplus" xlink:href="#zoomPlus" x="17" y="9" onmousedown="handleZoom(evt,'in')"/>
  <use id="zoomminus" xlink:href="#zoomMin" x="42" y="9" onmousedown="handleZoom(evt,'out')"/>
  <use id="reset" xlink:href="#resetDef" x="30" y="36" onmousedown="handleReset()"/>
   <use id="arrowup" xlink:href="#arrowUp" x="0" y="0" onmousedown="handlePan(0,-1)"/>
  <use id="arrowright" xlink:href="#arrowRight" x="0" y="0" onmousedown="handlePan(1,0)"/>
  <use id="arrowdown" xlink:href="#arrowDown" x="0" y="0" onmousedown="handlePan(0,1)"/>
  <use id="arrowleft" xlink:href="#arrowLeft" x="0" y="0" onmousedown="handlePan(-1,0)"/>
</g>
<svg viewBox="0 0 15 15" width="100%" height="30px" preserveAspectRatio="xMaxYMin meet">
 <g id="arrow_out" transform="scale(0.3 0.3)">
  <a xlink:href="dot_inline_dotgraph_14_org.svg" target="_base">
   <rect id="button" ry="5" rx="5" y="6" x="6" height="38" width="38"
        fill="#f2f5e9" fill-opacity="0.5" stroke="#606060" stroke-width="1.0"/>
   <path id="arrow"
     d="M 11.500037,31.436501 C 11.940474,20.09759 22.043105,11.32322 32.158766,21.979434 L 37.068811,17.246167 C 37.068811,17.246167 37.088388,32 37.088388,32 L 22.160133,31.978069 C 22.160133,31.978069 26.997745,27.140456 26.997745,27.140456 C 18.528582,18.264221 13.291696,25.230495 11.500037,31.436501 z"
     style="fill:#404040;"/>
  </a>
 </g>
</svg>

<style type='text/css'>
<![CDATA[
[data-mouse-over-selected='false'] { opacity: 0.7; }
[data-mouse-over-selected='true']  { opacity: 1.0; }
]]>
</style>
<script type="application/ecmascript"><![CDATA[
document.addEventListener('DOMContentLoaded', (event) => {
  highlightEdges();
  highlightAdjacentNodes();
});
]]></script>
</svg>
