<?xml version="1.0" encoding="UTF-8" standalone="no"?>
<!DOCTYPE svg PUBLIC "-//W3C//DTD SVG 1.1//EN"
 "http://www.w3.org/Graphics/SVG/1.1/DTD/svg11.dtd">
<!-- Generated by graphviz version 14.1.1 (20251213.1925)
 -->
<!-- Title: TelnetSmlApp Pages: 1 -->
<svg width="524pt" height="295pt"
 viewBox="0.00 0.00 524.00 295.00" xmlns="http://www.w3.org/2000/svg" xmlns:xlink="http://www.w3.org/1999/xlink">
<g id="graph0" class="graph" transform="scale(1 1) rotate(0) translate(4 290.5)">
<title>TelnetSmlApp</title>
<polygon fill="white" stroke="none" points="-4,4 -4,-290.5 520,-290.5 520,4 -4,4"/>
<g id="clust1" class="cluster">
<title>cluster_public</title>
<polygon fill="none" stroke="black" points="213,-197 213,-278.5 325,-278.5 325,-197 213,-197"/>
<text xml:space="preserve" text-anchor="middle" x="269" y="-261.2" font-family="Times New Roman,serif" font-size="14.00">Public API</text>
</g>
<g id="clust2" class="cluster">
<title>cluster_impl</title>
<polygon fill="none" stroke="black" points="8,-8 8,-162.5 508,-162.5 508,-8 8,-8"/>
<text xml:space="preserve" text-anchor="middle" x="258" y="-145.2" font-family="Times New Roman,serif" font-size="14.00">Implementation (Hidden)</text>
</g>
<!-- App -->
<g id="node1" class="node">
<title>App</title>
<polygon fill="lightgreen" stroke="black" points="316.75,-246 221.25,-246 221.25,-205 316.75,-205 316.75,-246"/>
<text xml:space="preserve" text-anchor="middle" x="269" y="-228.7" font-family="Times New Roman,serif" font-size="14.00">TelnetSmlApp</text>
<text xml:space="preserve" text-anchor="middle" x="269" y="-212.2" font-family="Times New Roman,serif" font-size="14.00">(Facade)</text>
</g>
<!-- Impl -->
<g id="node2" class="node">
<title>Impl</title>
<polygon fill="lightyellow" stroke="black" points="301.75,-130 236.25,-130 236.25,-89 301.75,-89 301.75,-130"/>
<text xml:space="preserve" text-anchor="middle" x="269" y="-112.7" font-family="Times New Roman,serif" font-size="14.00">Impl</text>
<text xml:space="preserve" text-anchor="middle" x="269" y="-96.2" font-family="Times New Roman,serif" font-size="14.00">(PIMPL)</text>
</g>
<!-- App&#45;&gt;Impl -->
<g id="edge1" class="edge">
<title>App&#45;&gt;Impl</title>
<path fill="none" stroke="black" d="M269,-204.64C269,-187.23 269,-161.64 269,-141.53"/>
<polygon fill="black" stroke="black" points="272.5,-141.64 269,-131.64 265.5,-141.64 272.5,-141.64"/>
<text xml:space="preserve" text-anchor="middle" x="283.25" y="-173.7" font-family="Times New Roman,serif" font-size="14.00">owns</text>
</g>
<!-- Reception -->
<g id="node3" class="node">
<title>Reception</title>
<polygon fill="lightyellow" stroke="black" points="127.62,-52 16.38,-52 16.38,-16 127.62,-16 127.62,-52"/>
<text xml:space="preserve" text-anchor="middle" x="72" y="-28.95" font-family="Times New Roman,serif" font-size="14.00">ReceptionWorker</text>
</g>
<!-- Impl&#45;&gt;Reception -->
<g id="edge2" class="edge">
<title>Impl&#45;&gt;Reception</title>
<path fill="none" stroke="black" d="M236.03,-96.2C206.94,-85.35 163.91,-69.29 129.22,-56.35"/>
<polygon fill="black" stroke="black" points="130.75,-53.18 120.16,-52.97 128.31,-59.74 130.75,-53.18"/>
</g>
<!-- Processing -->
<g id="node4" class="node">
<title>Processing</title>
<polygon fill="lightyellow" stroke="black" points="260.5,-52 145.5,-52 145.5,-16 260.5,-16 260.5,-52"/>
<text xml:space="preserve" text-anchor="middle" x="203" y="-28.95" font-family="Times New Roman,serif" font-size="14.00">ProcessingWorker</text>
</g>
<!-- Impl&#45;&gt;Processing -->
<g id="edge3" class="edge">
<title>Impl&#45;&gt;Processing</title>
<path fill="none" stroke="black" d="M251.31,-88.8C243.56,-80.17 234.35,-69.92 226.07,-60.69"/>
<polygon fill="black" stroke="black" points="228.78,-58.48 219.5,-53.37 223.58,-63.15 228.78,-58.48"/>
</g>
<!-- WS -->
<g id="node5" class="node">
<title>WS</title>
<polygon fill="lightyellow" stroke="black" points="391.38,-52 278.62,-52 278.62,-16 391.38,-16 391.38,-52"/>
<text xml:space="preserve" text-anchor="middle" x="335" y="-28.95" font-family="Times New Roman,serif" font-size="14.00">WebSocketServer</text>
</g>
<!-- Impl&#45;&gt;WS -->
<g id="edge4" class="edge">
<title>Impl&#45;&gt;WS</title>
<path fill="none" stroke="black" d="M286.69,-88.8C294.44,-80.17 303.65,-69.92 311.93,-60.69"/>
<polygon fill="black" stroke="black" points="314.42,-63.15 318.5,-53.37 309.22,-58.48 314.42,-63.15"/>
</g>
<!-- DB -->
<g id="node6" class="node">
<title>DB</title>
<polygon fill="lightyellow" stroke="black" points="500.12,-52 409.88,-52 409.88,-16 500.12,-16 500.12,-52"/>
<text xml:space="preserve" text-anchor="middle" x="455" y="-28.95" font-family="Times New Roman,serif" font-size="14.00">SERDatabase</text>
</g>
<!-- Impl&#45;&gt;DB -->
<g id="edge5" class="edge">
<title>Impl&#45;&gt;DB</title>
<path fill="none" stroke="black" d="M301.82,-95.53C329.09,-84.75 368.45,-69.2 400.44,-56.56"/>
<polygon fill="black" stroke="black" points="401.56,-59.88 409.58,-52.95 398.99,-53.37 401.56,-59.88"/>
</g>
</g>
</svg>
