<?xml version="1.0" encoding="UTF-8" standalone="no"?>
<!DOCTYPE svg PUBLIC "-//W3C//DTD SVG 1.1//EN"
 "http://www.w3.org/Graphics/SVG/1.1/DTD/svg11.dtd">
<!-- Generated by graphviz version 14.1.1 (20251213.1925)
 -->
<!-- Title: ThreadModel Pages: 1 -->
<!--zoomable 263 -->

<svg id="main" version="1.1" xmlns="http://www.w3.org/2000/svg" xmlns:xlink="http://www.w3.org/1999/xlink" xml:space="preserve" onload="init(evt)">

<style type="text/css"><![CDATA[
.node, .edge {opacity: 0.7;}
.node.selected, .edge.selected {opacity: 1;}
.edge:hover path { stroke: red; }
.edge:hover polygon { stroke: red; fill: red; }
]]></style>

<defs>
  <circle id="rim" cx="0" cy="0" r="7"/>
  <circle id="rim2" cx="0" cy="0" r="3.5"/>
  <g id="zoomPlus">
    <use xlink:href="#rim" fill="#404040"><set attributeName="fill" to="#808080" begin="zoomplus.mouseover" end="zoomplus.mouseout"/></use>
    <path d="M-4,0h8M0,-4v8" fill="none" stroke="white" stroke-width="1.5" pointer-events="none"/>
  </g>
  <g id="zoomMin">
    <use xlink:href="#rim" fill="#404040"><set attributeName="fill" to="#808080" begin="zoomminus.mouseover" end="zoomminus.mouseout"/></use>
    <path d="M-4,0h8" fill="none" stroke="white" stroke-width="1.5" pointer-events="none"/>
  </g>
  <g id="arrowUp" transform="translate(30 24)">
    <use xlink:href="#rim"/>
    <path pointer-events="none" fill="none" stroke="white" stroke-width="1.5" d="M0,-3.0v7 M-2.5,-0.5L0,-3.0L2.5,-0.5"/>
  </g>
  <g id="arrowRight" transform="rotate(90) translate(36 -43)">
    <use xlink:href="#rim"/>
    <path pointer-events="none" fill="none" stroke="white" stroke-width="1.5" d="M0,-3.0v7 M-2.5,-0.5L0,-3.0L2.5,-0.5"/>
  </g>
  <g id="arrowDown" transform="rotate(180) translate(-30 -48)">
    <use xlink:href="#rim"/>
    <path pointer-events="none" fill="none" stroke="white" stroke-width="1.5" d="M0,-3.0v7 M-2.5,-0.5L0,-3.0L2.5,-0.5"/>
  </g>
  <g id="arrowLeft" transform="rotate(270) translate(-36 17)">
    <use xlink:href="#rim"/>
    <path pointer-events="none" fill="none" stroke="white" stroke-width="1.5" d="M0,-3.0v7 M-2.5,-0.5L0,-3.0L2.5,-0.5"/>
  </g>
  <g id="resetDef">
    <use xlink:href="#rim2" fill="#404040"><set attributeName="fill" to="#808080" begin="reset.mouseover" end="reset.mouseout"/></use>
  </g>
</defs>
<script type="application/ecmascript">
var viewWidth = 521;
var viewHeight = 263;
</script>
<script type="application/ecmascript" xlink:href="svg.min.js"/>
<svg id="graph" class="graph">
<g id="viewport">
<title>ThreadModel</title>
<polygon fill="white" stroke="none" points="-4,4 -4,-258.5 517,-258.5 517,4 -4,4"/>
<g id="clust1" class="cluster">
<title>cluster_threads</title>
<polygon fill="none" stroke="black" points="8,-165 8,-246.5 505,-246.5 505,-165 8,-165"/>
<text xml:space="preserve" text-anchor="middle" x="256.5" y="-229.2" font-family="Times New Roman,serif" font-size="14.00">Application Threads</text>
</g>
<g id="clust2" class="cluster">
<title>cluster_sync</title>
<polygon fill="none" stroke="black" points="146,-8 146,-130.5 431,-130.5 431,-8 146,-8"/>
<text xml:space="preserve" text-anchor="middle" x="288.5" y="-113.2" font-family="Times New Roman,serif" font-size="14.00">Synchronization</text>
</g>
<!-- main -->
<g id="node1" class="node">
<title>main</title>
<polygon fill="lightyellow" stroke="black" points="113.88,-214 16.12,-214 16.12,-173 113.88,-173 113.88,-214"/>
<text xml:space="preserve" text-anchor="middle" x="65" y="-196.7" font-family="Times New Roman,serif" font-size="14.00">Main Thread</text>
<text xml:space="preserve" text-anchor="middle" x="65" y="-180.2" font-family="Times New Roman,serif" font-size="14.00">(FSM Control)</text>
</g>
<!-- stop -->
<g id="node6" class="node">
<title>stop</title>
<polygon fill="lightcoral" stroke="black" points="223,-98 154.5,-57 223,-16 291.5,-57 223,-98"/>
<text xml:space="preserve" text-anchor="middle" x="223" y="-60.2" font-family="Times New Roman,serif" font-size="14.00">Stop Flag</text>
<text xml:space="preserve" text-anchor="middle" x="223" y="-43.7" font-family="Times New Roman,serif" font-size="14.00">(atomic)</text>
</g>
<!-- main&#45;&gt;stop -->
<g id="edge1" class="edge">
<title>main&#45;&gt;stop</title>
<path fill="none" stroke="black" d="M88.31,-172.65C114.17,-150.64 156.23,-114.84 186.47,-89.09"/>
<polygon fill="black" stroke="black" points="188.56,-91.92 193.9,-82.77 184.02,-86.59 188.56,-91.92"/>
<text xml:space="preserve" text-anchor="middle" x="135.33" y="-141.7" font-family="Times New Roman,serif" font-size="14.00">sets</text>
</g>
<!-- ws -->
<g id="node2" class="node">
<title>ws</title>
<polygon fill="lightyellow" stroke="black" points="250.38,-214 131.62,-214 131.62,-173 250.38,-173 250.38,-214"/>
<text xml:space="preserve" text-anchor="middle" x="191" y="-196.7" font-family="Times New Roman,serif" font-size="14.00">WebSocket Thread</text>
<text xml:space="preserve" text-anchor="middle" x="191" y="-180.2" font-family="Times New Roman,serif" font-size="14.00">(UI Server)</text>
</g>
<!-- ws&#45;&gt;stop -->
<g id="edge4" class="edge">
<title>ws&#45;&gt;stop</title>
<path fill="none" stroke="black" d="M191.36,-172.58C191.85,-162.31 192.93,-149.64 195.25,-138.5 197.83,-126.09 201.8,-112.96 205.93,-100.99"/>
<polygon fill="black" stroke="black" points="209.15,-102.39 209.23,-91.8 202.56,-100.03 209.15,-102.39"/>
<text xml:space="preserve" text-anchor="middle" x="213.62" y="-141.7" font-family="Times New Roman,serif" font-size="14.00">checks</text>
</g>
<!-- poll -->
<g id="node3" class="node">
<title>poll</title>
<polygon fill="lightyellow" stroke="black" points="365.12,-214 268.88,-214 268.88,-173 365.12,-173 365.12,-214"/>
<text xml:space="preserve" text-anchor="middle" x="317" y="-196.7" font-family="Times New Roman,serif" font-size="14.00">Polling Thread</text>
<text xml:space="preserve" text-anchor="middle" x="317" y="-180.2" font-family="Times New Roman,serif" font-size="14.00">(SER Fetcher)</text>
</g>
<!-- queue -->
<g id="node5" class="node">
<title>queue</title>
<path fill="lightblue" stroke="black" d="M422.75,-80.06C422.75,-82.89 397.31,-85.19 366,-85.19 334.69,-85.19 309.25,-82.89 309.25,-80.06 309.25,-80.06 309.25,-33.94 309.25,-33.94 309.25,-31.11 334.69,-28.81 366,-28.81 397.31,-28.81 422.75,-31.11 422.75,-33.94 422.75,-33.94 422.75,-80.06 422.75,-80.06"/>
<path fill="none" stroke="black" d="M422.75,-80.06C422.75,-77.23 397.31,-74.94 366,-74.94 334.69,-74.94 309.25,-77.23 309.25,-80.06"/>
<text xml:space="preserve" text-anchor="middle" x="366" y="-60.2" font-family="Times New Roman,serif" font-size="14.00">Write Queue</text>
<text xml:space="preserve" text-anchor="middle" x="366" y="-43.7" font-family="Times New Roman,serif" font-size="14.00">(mutex protected)</text>
</g>
<!-- poll&#45;&gt;queue -->
<g id="edge2" class="edge">
<title>poll&#45;&gt;queue</title>
<path fill="none" stroke="black" d="M315.57,-172.64C315.38,-162.27 316.04,-149.49 319.25,-138.5 323.65,-123.42 331.45,-108.18 339.43,-95.08"/>
<polygon fill="black" stroke="black" points="342.29,-97.11 344.71,-86.8 336.39,-93.35 342.29,-97.11"/>
<text xml:space="preserve" text-anchor="middle" x="337.62" y="-141.7" font-family="Times New Roman,serif" font-size="14.00">pushes</text>
</g>
<!-- poll&#45;&gt;stop -->
<g id="edge5" class="edge">
<title>poll&#45;&gt;stop</title>
<path fill="none" stroke="black" d="M292.2,-172.78C286.25,-167.38 280.19,-161.28 275.25,-155 262.1,-138.29 250.52,-117.79 241.62,-99.96"/>
<polygon fill="black" stroke="black" points="244.87,-98.64 237.36,-91.17 238.58,-101.7 244.87,-98.64"/>
<text xml:space="preserve" text-anchor="middle" x="293.62" y="-141.7" font-family="Times New Roman,serif" font-size="14.00">checks</text>
</g>
<!-- db -->
<g id="node4" class="node">
<title>db</title>
<polygon fill="lightyellow" stroke="black" points="497.12,-214 382.88,-214 382.88,-173 497.12,-173 497.12,-214"/>
<text xml:space="preserve" text-anchor="middle" x="440" y="-196.7" font-family="Times New Roman,serif" font-size="14.00">DB Writer Thread</text>
<text xml:space="preserve" text-anchor="middle" x="440" y="-180.2" font-family="Times New Roman,serif" font-size="14.00">(Async Writes)</text>
</g>
<!-- db&#45;&gt;queue -->
<g id="edge3" class="edge">
<title>db&#45;&gt;queue</title>
<path fill="none" stroke="black" d="M432.44,-172.65C428.28,-162.29 422.78,-149.51 417,-138.5 409.32,-123.89 399.88,-108.43 391.22,-95.02"/>
<polygon fill="black" stroke="black" points="394.32,-93.37 385.91,-86.92 388.46,-97.2 394.32,-93.37"/>
<text xml:space="preserve" text-anchor="middle" x="437.47" y="-141.7" font-family="Times New Roman,serif" font-size="14.00">pops</text>
</g>
<!-- db&#45;&gt;stop -->
<g id="edge6" class="edge">
<title>db&#45;&gt;stop</title>
<path fill="none" stroke="black" d="M404,-172.61C394.78,-167.17 385,-161.09 376.25,-155 366.72,-148.37 366.63,-143.16 356,-138.5 332.97,-128.41 322.65,-141.4 300,-130.5 282.05,-121.86 265.49,-107.52 252.36,-93.87"/>
<polygon fill="black" stroke="black" points="255.03,-91.6 245.67,-86.63 249.88,-96.35 255.03,-91.6"/>
<text xml:space="preserve" text-anchor="middle" x="394.62" y="-141.7" font-family="Times New Roman,serif" font-size="14.00">checks</text>
</g>
</g>
</svg>

<g id="navigator" transform="translate(0 0)" fill="#404254">
  <rect fill="#f2f5e9" fill-opacity="0.5" stroke="#606060" stroke-width=".5" x="0" y="0" width="60" height="60"/>
  <use id="zoomplus" xlink:href="#zoomPlus" x="17" y="9" onmousedown="handleZoom(evt,'in')"/>
  <use id="zoomminus" xlink:href="#zoomMin" x="42" y="9" onmousedown="handleZoom(evt,'out')"/>
  <use id="reset" xlink:href="#resetDef" x="30" y="36" onmousedown="handleReset()"/>
   <use id="arrowup" xlink:href="#arrowUp" x="0" y="0" onmousedown="handlePan(0,-1)"/>
  <use id="arrowright" xlink:href="#arrowRight" x="0" y="0" onmousedown="handlePan(1,0)"/>
  <use id="arrowdown" xlink:href="#arrowDown" x="0" y="0" onmousedown="handlePan(0,1)"/>
  <use id="arrowleft" xlink:href="#arrowLeft" x="0" y="0" onmousedown="handlePan(-1,0)"/>
</g>
<svg viewBox="0 0 15 15" width="100%" height="30px" preserveAspectRatio="xMaxYMin meet">
 <g id="arrow_out" transform="scale(0.3 0.3)">
  <a xlink:href="dot_inline_dotgraph_13_org.svg" target="_base">
   <rect id="button" ry="5" rx="5" y="6" x="6" height="38" width="38"
        fill="#f2f5e9" fill-opacity="0.5" stroke="#606060" stroke-width="1.0"/>
   <path id="arrow"
     d="M 11.500037,31.436501 C 11.940474,20.09759 22.043105,11.32322 32.158766,21.979434 L 37.068811,17.246167 C 37.068811,17.246167 37.088388,32 37.088388,32 L 22.160133,31.978069 C 22.160133,31.978069 26.997745,27.140456 26.997745,27.140456 C 18.528582,18.264221 13.291696,25.230495 11.500037,31.436501 z"
     style="fill:#404040;"/>
  </a>
 </g>
</svg>

<style type='text/css'>
<![CDATA[
[data-mouse-over-selected='false'] { opacity: 0.7; }
[data-mouse-over-selected='true']  { opacity: 1.0; }
]]>
</style>
<script type="application/ecmascript"><![CDATA[
document.addEventListener('DOMContentLoaded', (event) => {
  highlightEdges();
  highlightAdjacentNodes();
});
]]></script>
</svg>
