<?xml version="1.0" encoding="UTF-8" standalone="no"?>
<!DOCTYPE svg PUBLIC "-//W3C//DTD SVG 1.1//EN"
 "http://www.w3.org/Graphics/SVG/1.1/DTD/svg11.dtd">
<!-- Generated by graphviz version 14.1.2 (20260124.0452)
 -->
<!-- Title: Architecture Pages: 1 -->
<svg width="419pt" height="525pt"
 viewBox="0.00 0.00 419.00 525.00" xmlns="http://www.w3.org/2000/svg" xmlns:xlink="http://www.w3.org/1999/xlink">
<g id="graph0" class="graph" transform="scale(1 1) rotate(0) translate(4 520.5)">
<title>Architecture</title>
<polygon fill="white" stroke="none" points="-4,4 -4,-520.5 415,-520.5 415,4 -4,4"/>
<g id="clust1" class="cluster">
<title>cluster_client</title>
<polygon fill="none" stroke="black" points="19,-217.5 19,-508.5 139,-508.5 139,-217.5 19,-217.5"/>
<text xml:space="preserve" text-anchor="middle" x="79" y="-491.2" font-family="Times New Roman,serif" font-size="14.00">Client Application</text>
</g>
<g id="clust2" class="cluster">
<title>cluster_storage</title>
<polygon fill="none" stroke="black" points="157,-101.5 157,-299 263,-299 263,-101.5 157,-101.5"/>
<text xml:space="preserve" text-anchor="middle" x="210" y="-281.7" font-family="Times New Roman,serif" font-size="14.00">Data Layer</text>
</g>
<g id="clust3" class="cluster">
<title>cluster_ui</title>
<polygon fill="none" stroke="black" points="271,-8 271,-180.5 403,-180.5 403,-8 271,-8"/>
<text xml:space="preserve" text-anchor="middle" x="337" y="-163.2" font-family="Times New Roman,serif" font-size="14.00">User Interface</text>
</g>
<g id="clust4" class="cluster">
<title>cluster_external</title>
<polygon fill="none" stroke="black" points="8,-101.5 8,-183 132,-183 132,-101.5 8,-101.5"/>
<text xml:space="preserve" text-anchor="middle" x="70" y="-165.7" font-family="Times New Roman,serif" font-size="14.00">External</text>
</g>
<!-- main -->
<g id="node1" class="node">
<title>main</title>
<polygon fill="lightblue" stroke="black" points="122.62,-476 35.38,-476 35.38,-435 122.62,-435 122.62,-476"/>
<text xml:space="preserve" text-anchor="middle" x="79" y="-458.7" font-family="Times New Roman,serif" font-size="14.00">main.cpp</text>
<text xml:space="preserve" text-anchor="middle" x="79" y="-442.2" font-family="Times New Roman,serif" font-size="14.00">(Entry Point)</text>
</g>
<!-- fsm -->
<g id="node2" class="node">
<title>fsm</title>
<polygon fill="lightblue" stroke="black" points="130.88,-382.5 27.12,-382.5 27.12,-341.5 130.88,-341.5 130.88,-382.5"/>
<text xml:space="preserve" text-anchor="middle" x="79" y="-365.2" font-family="Times New Roman,serif" font-size="14.00">TelnetFSM</text>
<text xml:space="preserve" text-anchor="middle" x="79" y="-348.7" font-family="Times New Roman,serif" font-size="14.00">(State Machine)</text>
</g>
<!-- main&#45;&gt;fsm -->
<g id="edge1" class="edge">
<title>main&#45;&gt;fsm</title>
<path fill="none" stroke="black" d="M79,-434.65C79,-422.78 79,-407.44 79,-394"/>
<polygon fill="black" stroke="black" points="82.5,-394.33 79,-384.33 75.5,-394.33 82.5,-394.33"/>
<text xml:space="preserve" text-anchor="middle" x="100.75" y="-403.7" font-family="Times New Roman,serif" font-size="14.00">controls</text>
</g>
<!-- client -->
<g id="node3" class="node">
<title>client</title>
<polygon fill="lightblue" stroke="black" points="118.62,-266.5 31.38,-266.5 31.38,-225.5 118.62,-225.5 118.62,-266.5"/>
<text xml:space="preserve" text-anchor="middle" x="75" y="-249.2" font-family="Times New Roman,serif" font-size="14.00">TelnetClient</text>
<text xml:space="preserve" text-anchor="middle" x="75" y="-232.7" font-family="Times New Roman,serif" font-size="14.00">(TCP/Telnet)</text>
</g>
<!-- fsm&#45;&gt;client -->
<g id="edge2" class="edge">
<title>fsm&#45;&gt;client</title>
<path fill="none" stroke="black" d="M78.3,-341.14C77.69,-323.73 76.79,-298.14 76.09,-278.03"/>
<polygon fill="black" stroke="black" points="79.59,-278.01 75.74,-268.14 72.59,-278.26 79.59,-278.01"/>
<text xml:space="preserve" text-anchor="middle" x="96.72" y="-310.2" font-family="Times New Roman,serif" font-size="14.00">actions</text>
</g>
<!-- db -->
<g id="node4" class="node">
<title>db</title>
<polygon fill="lightblue" stroke="black" points="255.12,-266.5 164.88,-266.5 164.88,-225.5 255.12,-225.5 255.12,-266.5"/>
<text xml:space="preserve" text-anchor="middle" x="210" y="-249.2" font-family="Times New Roman,serif" font-size="14.00">SERDatabase</text>
<text xml:space="preserve" text-anchor="middle" x="210" y="-232.7" font-family="Times New Roman,serif" font-size="14.00">(SQLite)</text>
</g>
<!-- fsm&#45;&gt;db -->
<g id="edge4" class="edge">
<title>fsm&#45;&gt;db</title>
<path fill="none" stroke="black" d="M101.82,-341.14C123.14,-322.59 155.15,-294.74 178.82,-274.14"/>
<polygon fill="black" stroke="black" points="181.06,-276.83 186.3,-267.62 176.46,-271.55 181.06,-276.83"/>
<text xml:space="preserve" text-anchor="middle" x="170.57" y="-310.2" font-family="Times New Roman,serif" font-size="14.00">stores SER</text>
</g>
<!-- relay -->
<g id="node8" class="node">
<title>relay</title>
<polygon fill="lightblue" stroke="black" points="124.12,-150.5 15.88,-150.5 15.88,-109.5 124.12,-109.5 124.12,-150.5"/>
<text xml:space="preserve" text-anchor="middle" x="70" y="-133.2" font-family="Times New Roman,serif" font-size="14.00">Substation Relay</text>
<text xml:space="preserve" text-anchor="middle" x="70" y="-116.7" font-family="Times New Roman,serif" font-size="14.00">(Telnet Server)</text>
</g>
<!-- client&#45;&gt;relay -->
<g id="edge3" class="edge">
<title>client&#45;&gt;relay</title>
<path fill="none" stroke="black" d="M74.13,-225.14C73.37,-207.73 72.24,-182.14 71.36,-162.03"/>
<polygon fill="black" stroke="black" points="74.86,-161.98 70.93,-152.14 67.87,-162.29 74.86,-161.98"/>
<text xml:space="preserve" text-anchor="middle" x="112.62" y="-194.2" font-family="Times New Roman,serif" font-size="14.00">Telnet TCP:23</text>
</g>
<!-- json -->
<g id="node5" class="node">
<title>json</title>
<polygon fill="lightblue" stroke="black" points="249.88,-150.5 170.12,-150.5 170.12,-109.5 249.88,-109.5 249.88,-150.5"/>
<text xml:space="preserve" text-anchor="middle" x="210" y="-133.2" font-family="Times New Roman,serif" font-size="14.00">data.json</text>
<text xml:space="preserve" text-anchor="middle" x="210" y="-116.7" font-family="Times New Roman,serif" font-size="14.00">(UI Export)</text>
</g>
<!-- db&#45;&gt;json -->
<g id="edge5" class="edge">
<title>db&#45;&gt;json</title>
<path fill="none" stroke="black" d="M210,-225.14C210,-207.73 210,-182.14 210,-162.03"/>
<polygon fill="black" stroke="black" points="213.5,-162.14 210,-152.14 206.5,-162.14 213.5,-162.14"/>
<text xml:space="preserve" text-anchor="middle" x="229.88" y="-194.2" font-family="Times New Roman,serif" font-size="14.00">exports</text>
</g>
<!-- ws -->
<g id="node6" class="node">
<title>ws</title>
<polygon fill="lightblue" stroke="black" points="395.25,-148 278.75,-148 278.75,-112 395.25,-112 395.25,-148"/>
<text xml:space="preserve" text-anchor="middle" x="337" y="-124.95" font-family="Times New Roman,serif" font-size="14.00">WebSocket Server</text>
</g>
<!-- db&#45;&gt;ws -->
<g id="edge6" class="edge">
<title>db&#45;&gt;ws</title>
<path fill="none" stroke="black" d="M233.44,-225.32C240.13,-219.62 247.39,-213.36 254,-207.5 273.23,-190.45 294.54,-170.8 310.75,-155.68"/>
<polygon fill="black" stroke="black" points="312.71,-158.64 317.62,-149.26 307.93,-153.53 312.71,-158.64"/>
<text xml:space="preserve" text-anchor="middle" x="294.84" y="-194.2" font-family="Times New Roman,serif" font-size="14.00">real&#45;time</text>
</g>
<!-- html -->
<g id="node7" class="node">
<title>html</title>
<polygon fill="lightblue" stroke="black" points="370.62,-57 295.38,-57 295.38,-16 370.62,-16 370.62,-57"/>
<text xml:space="preserve" text-anchor="middle" x="333" y="-39.7" font-family="Times New Roman,serif" font-size="14.00">index.html</text>
<text xml:space="preserve" text-anchor="middle" x="333" y="-23.2" font-family="Times New Roman,serif" font-size="14.00">(Web UI)</text>
</g>
<!-- ws&#45;&gt;html -->
<g id="edge7" class="edge">
<title>ws&#45;&gt;html</title>
<path fill="none" stroke="black" d="M336.25,-111.79C335.72,-99.66 334.99,-83.06 334.36,-68.64"/>
<polygon fill="black" stroke="black" points="337.86,-68.52 333.93,-58.69 330.87,-68.83 337.86,-68.52"/>
<text xml:space="preserve" text-anchor="middle" x="366.11" y="-78.2" font-family="Times New Roman,serif" font-size="14.00">WebSocket</text>
</g>
</g>
</svg>
