<?xml version="1.0" encoding="UTF-8" standalone="no"?>
<!DOCTYPE svg PUBLIC "-//W3C//DTD SVG 1.1//EN"
 "http://www.w3.org/Graphics/SVG/1.1/DTD/svg11.dtd">
<!-- Generated by graphviz version 14.1.1 (20251213.1925)
 -->
<!-- Title: FSM Pages: 1 -->
<svg width="858pt" height="215pt"
 viewBox="0.00 0.00 858.00 215.00" xmlns="http://www.w3.org/2000/svg" xmlns:xlink="http://www.w3.org/1999/xlink">
<g id="graph0" class="graph" transform="scale(1 1) rotate(0) translate(4 210.99)">
<title>FSM</title>
<polygon fill="white" stroke="none" points="-4,4 -4,-210.99 854.01,-210.99 854.01,4 -4,4"/>
<!-- Idle -->
<g id="node1" class="node">
<title>Idle</title>
<ellipse fill="lightgray" stroke="black" cx="35.71" cy="-38" rx="35.71" ry="28.99"/>
<text xml:space="preserve" text-anchor="middle" x="35.71" y="-41.2" font-family="Times New Roman,serif" font-size="14.00">Idle</text>
<text xml:space="preserve" text-anchor="middle" x="35.71" y="-24.7" font-family="Times New Roman,serif" font-size="14.00">(Start)</text>
</g>
<!-- Connecting -->
<g id="node2" class="node">
<title>Connecting</title>
<ellipse fill="lightyellow" stroke="black" cx="184.07" cy="-38" rx="53.4" ry="18"/>
<text xml:space="preserve" text-anchor="middle" x="184.07" y="-32.95" font-family="Times New Roman,serif" font-size="14.00">Connecting</text>
</g>
<!-- Idle&#45;&gt;Connecting -->
<g id="edge1" class="edge">
<title>Idle&#45;&gt;Connecting</title>
<path fill="none" stroke="black" d="M71.77,-38C85.99,-38 102.88,-38 119.15,-38"/>
<polygon fill="black" stroke="black" points="118.76,-41.5 128.76,-38 118.76,-34.5 118.76,-41.5"/>
<text xml:space="preserve" text-anchor="middle" x="101.04" y="-41.2" font-family="Times New Roman,serif" font-size="14.00">start</text>
</g>
<!-- Login_L1 -->
<g id="node3" class="node">
<title>Login_L1</title>
<ellipse fill="lightyellow" stroke="black" cx="334.73" cy="-93" rx="47.77" ry="18"/>
<text xml:space="preserve" text-anchor="middle" x="334.73" y="-87.95" font-family="Times New Roman,serif" font-size="14.00">Login_L1</text>
</g>
<!-- Connecting&#45;&gt;Login_L1 -->
<g id="edge2" class="edge">
<title>Connecting&#45;&gt;Login_L1</title>
<path fill="none" stroke="black" d="M221.05,-51.31C241.49,-58.87 267.25,-68.41 288.98,-76.45"/>
<polygon fill="black" stroke="black" points="287.6,-79.66 298.19,-79.85 290.03,-73.1 287.6,-79.66"/>
<text xml:space="preserve" text-anchor="middle" x="262.22" y="-71.99" font-family="Times New Roman,serif" font-size="14.00">ok</text>
</g>
<!-- Error -->
<g id="node8" class="node">
<title>Error</title>
<ellipse fill="lightcoral" stroke="black" cx="802.1" cy="-102" rx="41.54" ry="28.99"/>
<text xml:space="preserve" text-anchor="middle" x="802.1" y="-105.2" font-family="Times New Roman,serif" font-size="14.00">Error</text>
<text xml:space="preserve" text-anchor="middle" x="802.1" y="-88.7" font-family="Times New Roman,serif" font-size="14.00">(Failed)</text>
</g>
<!-- Connecting&#45;&gt;Error -->
<g id="edge3" class="edge">
<title>Connecting&#45;&gt;Error</title>
<path fill="none" stroke="black" d="M219.28,-24.07C249.01,-13.22 293.51,0 333.73,0 333.73,0 333.73,0 663.66,0 709.85,0 750.61,-37.6 775.51,-67.14"/>
<polygon fill="black" stroke="black" points="772.74,-69.28 781.77,-74.82 778.17,-64.86 772.74,-69.28"/>
<text xml:space="preserve" text-anchor="middle" x="504.57" y="-3.2" font-family="Times New Roman,serif" font-size="14.00">fail</text>
</g>
<!-- WaitingRetry -->
<g id="node4" class="node">
<title>WaitingRetry</title>
<ellipse fill="orange" stroke="black" cx="504.57" cy="-55" rx="60.56" ry="18"/>
<text xml:space="preserve" text-anchor="middle" x="504.57" y="-49.95" font-family="Times New Roman,serif" font-size="14.00">WaitingRetry</text>
</g>
<!-- Login_L1&#45;&gt;WaitingRetry -->
<g id="edge5" class="edge">
<title>Login_L1&#45;&gt;WaitingRetry</title>
<path fill="none" stroke="black" d="M370.78,-80.93C380.34,-77.91 390.76,-74.86 400.5,-72.5 412.52,-69.59 425.45,-66.99 437.94,-64.74"/>
<polygon fill="black" stroke="black" points="438.51,-68.2 447.76,-63.04 437.31,-61.3 438.51,-68.2"/>
<text xml:space="preserve" text-anchor="middle" x="413.25" y="-75.7" font-family="Times New Roman,serif" font-size="14.00">retry</text>
</g>
<!-- Operational -->
<g id="node5" class="node">
<title>Operational</title>
<ellipse fill="lightgreen" stroke="black" cx="504.57" cy="-149" rx="54.42" ry="18"/>
<text xml:space="preserve" text-anchor="middle" x="504.57" y="-143.95" font-family="Times New Roman,serif" font-size="14.00">Operational</text>
</g>
<!-- Login_L1&#45;&gt;Operational -->
<g id="edge4" class="edge">
<title>Login_L1&#45;&gt;Operational</title>
<path fill="none" stroke="black" d="M369.23,-105.8C379.25,-109.53 390.29,-113.52 400.5,-117 417.38,-122.74 435.95,-128.64 452.62,-133.78"/>
<polygon fill="black" stroke="black" points="451.24,-137.01 461.82,-136.59 453.29,-130.32 451.24,-137.01"/>
<text xml:space="preserve" text-anchor="middle" x="413.25" y="-128.55" font-family="Times New Roman,serif" font-size="14.00">ok</text>
</g>
<!-- Login_L1&#45;&gt;Error -->
<g id="edge6" class="edge">
<title>Login_L1&#45;&gt;Error</title>
<path fill="none" stroke="black" d="M382.92,-93.91C470.47,-95.61 657.45,-99.22 748.76,-100.99"/>
<polygon fill="black" stroke="black" points="748.62,-104.49 758.68,-101.18 748.75,-97.49 748.62,-104.49"/>
<text xml:space="preserve" text-anchor="middle" x="595.13" y="-101.42" font-family="Times New Roman,serif" font-size="14.00">max</text>
</g>
<!-- WaitingRetry&#45;&gt;Connecting -->
<g id="edge7" class="edge">
<title>WaitingRetry&#45;&gt;Connecting</title>
<path fill="none" stroke="black" d="M444.53,-51.85C388.91,-48.88 305.8,-44.44 248.71,-41.4"/>
<polygon fill="black" stroke="black" points="248.99,-37.91 238.81,-40.87 248.61,-44.9 248.99,-37.91"/>
</g>
<!-- Polling -->
<g id="node6" class="node">
<title>Polling</title>
<ellipse fill="lightblue" stroke="black" cx="662.66" cy="-149" rx="37.53" ry="18"/>
<text xml:space="preserve" text-anchor="middle" x="662.66" y="-143.95" font-family="Times New Roman,serif" font-size="14.00">Polling</text>
</g>
<!-- Operational&#45;&gt;Polling -->
<g id="edge8" class="edge">
<title>Operational&#45;&gt;Polling</title>
<path fill="none" stroke="black" d="M559.29,-149C576.91,-149 596.38,-149 613.56,-149"/>
<polygon fill="black" stroke="black" points="613.53,-152.5 623.53,-149 613.53,-145.5 613.53,-152.5"/>
</g>
<!-- Done -->
<g id="node7" class="node">
<title>Done</title>
<ellipse fill="lightgreen" stroke="black" cx="802.1" cy="-178" rx="47.91" ry="28.99"/>
<text xml:space="preserve" text-anchor="middle" x="802.1" y="-181.2" font-family="Times New Roman,serif" font-size="14.00">Done</text>
<text xml:space="preserve" text-anchor="middle" x="802.1" y="-164.7" font-family="Times New Roman,serif" font-size="14.00">(Success)</text>
</g>
<!-- Polling&#45;&gt;Done -->
<g id="edge9" class="edge">
<title>Polling&#45;&gt;Done</title>
<path fill="none" stroke="black" d="M697.64,-156.17C712.04,-159.21 729.21,-162.83 745.38,-166.24"/>
<polygon fill="black" stroke="black" points="744.38,-169.61 754.88,-168.25 745.82,-162.76 744.38,-169.61"/>
<text xml:space="preserve" text-anchor="middle" x="727.2" y="-166.7" font-family="Times New Roman,serif" font-size="14.00">ok</text>
</g>
<!-- Polling&#45;&gt;Error -->
<g id="edge10" class="edge">
<title>Polling&#45;&gt;Error</title>
<path fill="none" stroke="black" d="M693.82,-138.69C711.29,-132.71 733.68,-125.06 753.47,-118.29"/>
<polygon fill="black" stroke="black" points="754.4,-121.67 762.72,-115.12 752.13,-115.05 754.4,-121.67"/>
<text xml:space="preserve" text-anchor="middle" x="727.2" y="-132.91" font-family="Times New Roman,serif" font-size="14.00">fail</text>
</g>
</g>
</svg>
