<?xml version="1.0" encoding="UTF-8" standalone="no"?>
<!DOCTYPE svg PUBLIC "-//W3C//DTD SVG 1.1//EN"
 "http://www.w3.org/Graphics/SVG/1.1/DTD/svg11.dtd">
<!-- Generated by graphviz version 14.1.2 (20260124.0452)
 -->
<!-- Title: Broadcast Pages: 1 -->
<svg width="430pt" height="152pt"
 viewBox="0.00 0.00 430.00 152.00" xmlns="http://www.w3.org/2000/svg" xmlns:xlink="http://www.w3.org/1999/xlink">
<g id="graph0" class="graph" transform="scale(1 1) rotate(0) translate(4 148)">
<title>Broadcast</title>
<polygon fill="white" stroke="none" points="-4,4 -4,-148 425.75,-148 425.75,4 -4,4"/>
<!-- FSM -->
<g id="node1" class="node">
<title>FSM</title>
<polygon fill="lightyellow" stroke="black" points="111.25,-92.5 0,-92.5 0,-51.5 111.25,-51.5 111.25,-92.5"/>
<text xml:space="preserve" text-anchor="middle" x="55.62" y="-75.2" font-family="Times New Roman,serif" font-size="14.00">FSM</text>
<text xml:space="preserve" text-anchor="middle" x="55.62" y="-58.7" font-family="Times New Roman,serif" font-size="14.00">(after processing)</text>
</g>
<!-- Manager -->
<g id="node2" class="node">
<title>Manager</title>
<polygon fill="lightgreen" stroke="black" points="314,-90 208,-90 208,-54 314,-54 314,-90"/>
<text xml:space="preserve" text-anchor="middle" x="261" y="-66.95" font-family="Times New Roman,serif" font-size="14.00">SessionManager</text>
</g>
<!-- FSM&#45;&gt;Manager -->
<g id="edge1" class="edge">
<title>FSM&#45;&gt;Manager</title>
<path fill="none" stroke="black" d="M111.66,-72C137.81,-72 169.2,-72 196.37,-72"/>
<polygon fill="black" stroke="black" points="196.21,-75.5 206.21,-72 196.21,-68.5 196.21,-75.5"/>
<text xml:space="preserve" text-anchor="middle" x="159.62" y="-75.2" font-family="Times New Roman,serif" font-size="14.00">broadcast()</text>
</g>
<!-- S1 -->
<g id="node3" class="node">
<title>S1</title>
<polygon fill="lightgrey" stroke="black" points="420.25,-144 352.5,-144 352.5,-108 420.25,-108 420.25,-144"/>
<text xml:space="preserve" text-anchor="middle" x="386.38" y="-120.95" font-family="Times New Roman,serif" font-size="14.00">Session 1</text>
</g>
<!-- Manager&#45;&gt;S1 -->
<g id="edge2" class="edge">
<title>Manager&#45;&gt;S1</title>
<path fill="none" stroke="black" d="M304.11,-90.43C316.21,-95.73 329.42,-101.51 341.61,-106.85"/>
<polygon fill="black" stroke="black" points="340.06,-109.99 350.62,-110.79 342.86,-103.57 340.06,-109.99"/>
</g>
<!-- S2 -->
<g id="node4" class="node">
<title>S2</title>
<polygon fill="lightgrey" stroke="black" points="420.25,-90 352.5,-90 352.5,-54 420.25,-54 420.25,-90"/>
<text xml:space="preserve" text-anchor="middle" x="386.38" y="-66.95" font-family="Times New Roman,serif" font-size="14.00">Session 2</text>
</g>
<!-- Manager&#45;&gt;S2 -->
<g id="edge3" class="edge">
<title>Manager&#45;&gt;S2</title>
<path fill="none" stroke="black" d="M314.32,-72C323.17,-72 332.28,-72 340.91,-72"/>
<polygon fill="black" stroke="black" points="340.78,-75.5 350.78,-72 340.78,-68.5 340.78,-75.5"/>
</g>
<!-- S3 -->
<g id="node5" class="node">
<title>S3</title>
<polygon fill="lightgrey" stroke="black" points="421.75,-36 351,-36 351,0 421.75,0 421.75,-36"/>
<text xml:space="preserve" text-anchor="middle" x="386.38" y="-12.95" font-family="Times New Roman,serif" font-size="14.00">Session N</text>
</g>
<!-- Manager&#45;&gt;S3 -->
<g id="edge4" class="edge">
<title>Manager&#45;&gt;S3</title>
<path fill="none" stroke="black" d="M304.11,-53.57C315.88,-48.42 328.71,-42.8 340.63,-37.58"/>
<polygon fill="black" stroke="black" points="341.67,-40.95 349.43,-33.73 338.87,-34.54 341.67,-40.95"/>
</g>
</g>
</svg>
