<?xml version="1.0" encoding="UTF-8" standalone="no"?>
<!DOCTYPE svg PUBLIC "-//W3C//DTD SVG 1.1//EN"
 "http://www.w3.org/Graphics/SVG/1.1/DTD/svg11.dtd">
<!-- Generated by graphviz version 14.1.2 (20260124.0452)
 -->
<!-- Title: DataFlow Pages: 1 -->
<!--zoomable 62 -->

<svg id="main" version="1.1" xmlns="http://www.w3.org/2000/svg" xmlns:xlink="http://www.w3.org/1999/xlink" xml:space="preserve" onload="init(evt)">

<style type="text/css"><![CDATA[
.node, .edge {opacity: 0.7;}
.node.selected, .edge.selected {opacity: 1;}
.edge:hover path { stroke: red; }
.edge:hover polygon { stroke: red; fill: red; }
]]></style>

<defs>
  <circle id="rim" cx="0" cy="0" r="7"/>
  <circle id="rim2" cx="0" cy="0" r="3.5"/>
  <g id="zoomPlus">
    <use xlink:href="#rim" fill="#404040"><set attributeName="fill" to="#808080" begin="zoomplus.mouseover" end="zoomplus.mouseout"/></use>
    <path d="M-4,0h8M0,-4v8" fill="none" stroke="white" stroke-width="1.5" pointer-events="none"/>
  </g>
  <g id="zoomMin">
    <use xlink:href="#rim" fill="#404040"><set attributeName="fill" to="#808080" begin="zoomminus.mouseover" end="zoomminus.mouseout"/></use>
    <path d="M-4,0h8" fill="none" stroke="white" stroke-width="1.5" pointer-events="none"/>
  </g>
  <g id="arrowUp" transform="translate(30 24)">
    <use xlink:href="#rim"/>
    <path pointer-events="none" fill="none" stroke="white" stroke-width="1.5" d="M0,-3.0v7 M-2.5,-0.5L0,-3.0L2.5,-0.5"/>
  </g>
  <g id="arrowRight" transform="rotate(90) translate(36 -43)">
    <use xlink:href="#rim"/>
    <path pointer-events="none" fill="none" stroke="white" stroke-width="1.5" d="M0,-3.0v7 M-2.5,-0.5L0,-3.0L2.5,-0.5"/>
  </g>
  <g id="arrowDown" transform="rotate(180) translate(-30 -48)">
    <use xlink:href="#rim"/>
    <path pointer-events="none" fill="none" stroke="white" stroke-width="1.5" d="M0,-3.0v7 M-2.5,-0.5L0,-3.0L2.5,-0.5"/>
  </g>
  <g id="arrowLeft" transform="rotate(270) translate(-36 17)">
    <use xlink:href="#rim"/>
    <path pointer-events="none" fill="none" stroke="white" stroke-width="1.5" d="M0,-3.0v7 M-2.5,-0.5L0,-3.0L2.5,-0.5"/>
  </g>
  <g id="resetDef">
    <use xlink:href="#rim2" fill="#404040"><set attributeName="fill" to="#808080" begin="reset.mouseover" end="reset.mouseout"/></use>
  </g>
</defs>
<script type="application/ecmascript">
var viewWidth = 725;
var viewHeight = 62;
</script>
<script type="application/ecmascript" xlink:href="svg.min.js"/>
<svg id="graph" class="graph">
<g id="viewport">
<title>DataFlow</title>
<polygon fill="white" stroke="none" points="-4,4 -4,-57.5 720.9,-57.5 720.9,4 -4,4"/>
<!-- Relay -->
<g id="node1" class="node">
<title>Relay</title>
<ellipse fill="lightblue" stroke="black" cx="61.08" cy="-20.5" rx="61.08" ry="18"/>
<text xml:space="preserve" text-anchor="middle" x="61.08" y="-15.45" font-family="Times New Roman,serif" font-size="14.00">Relay Device</text>
</g>
<!-- Telnet -->
<g id="node2" class="node">
<title>Telnet</title>
<polygon fill="lightyellow" stroke="black" points="265.65,-41 182.9,-41 182.9,0 265.65,0 265.65,-41"/>
<text xml:space="preserve" text-anchor="middle" x="224.28" y="-23.7" font-family="Times New Roman,serif" font-size="14.00">TelnetClient</text>
<text xml:space="preserve" text-anchor="middle" x="224.28" y="-7.2" font-family="Times New Roman,serif" font-size="14.00">(Reception)</text>
</g>
<!-- Relay&#45;&gt;Telnet -->
<g id="edge1" class="edge">
<title>Relay&#45;&gt;Telnet</title>
<path fill="none" stroke="black" d="M122.56,-20.5C138.51,-20.5 155.58,-20.5 171.05,-20.5"/>
<polygon fill="black" stroke="black" points="171.01,-24 181.01,-20.5 171.01,-17 171.01,-24"/>
<text xml:space="preserve" text-anchor="middle" x="152.53" y="-23.7" font-family="Times New Roman,serif" font-size="14.00">TCP</text>
</g>
<!-- Ring -->
<g id="node3" class="node">
<title>Ring</title>
<polygon fill="lightgreen" stroke="black" points="510.4,-41 382.65,-41 382.65,0 510.4,0 510.4,-41"/>
<text xml:space="preserve" text-anchor="middle" x="446.53" y="-23.7" font-family="Times New Roman,serif" font-size="14.00">RawDataRingBuffer</text>
<text xml:space="preserve" text-anchor="middle" x="446.53" y="-7.2" font-family="Times New Roman,serif" font-size="14.00">(SPSC)</text>
</g>
<!-- Telnet&#45;&gt;Ring -->
<g id="edge2" class="edge">
<title>Telnet&#45;&gt;Ring</title>
<path fill="none" stroke="black" d="M265.93,-20.5C295.32,-20.5 335.86,-20.5 370.98,-20.5"/>
<polygon fill="black" stroke="black" points="370.66,-24 380.66,-20.5 370.66,-17 370.66,-24"/>
<text xml:space="preserve" text-anchor="middle" x="324.15" y="-40.2" font-family="Times New Roman,serif" font-size="14.00">push</text>
<text xml:space="preserve" text-anchor="middle" x="324.15" y="-23.7" font-family="Times New Roman,serif" font-size="14.00">(non&#45;blocking)</text>
</g>
<!-- FSM -->
<g id="node4" class="node">
<title>FSM</title>
<polygon fill="lightyellow" stroke="black" points="716.9,-41 629.65,-41 629.65,0 716.9,0 716.9,-41"/>
<text xml:space="preserve" text-anchor="middle" x="673.28" y="-23.7" font-family="Times New Roman,serif" font-size="14.00">FSM Worker</text>
<text xml:space="preserve" text-anchor="middle" x="673.28" y="-7.2" font-family="Times New Roman,serif" font-size="14.00">(Processing)</text>
</g>
<!-- Ring&#45;&gt;FSM -->
<g id="edge3" class="edge">
<title>Ring&#45;&gt;FSM</title>
<path fill="none" stroke="black" d="M510.73,-20.5C544.5,-20.5 585.64,-20.5 617.95,-20.5"/>
<polygon fill="black" stroke="black" points="617.91,-24 627.91,-20.5 617.91,-17 617.91,-24"/>
<text xml:space="preserve" text-anchor="middle" x="570.03" y="-40.2" font-family="Times New Roman,serif" font-size="14.00">pop</text>
<text xml:space="preserve" text-anchor="middle" x="570.03" y="-23.7" font-family="Times New Roman,serif" font-size="14.00">(blocking wait)</text>
</g>
</g>
</svg>

<g id="navigator" transform="translate(0 0)" fill="#404254">
  <rect fill="#f2f5e9" fill-opacity="0.5" stroke="#606060" stroke-width=".5" x="0" y="0" width="60" height="60"/>
  <use id="zoomplus" xlink:href="#zoomPlus" x="17" y="9" onmousedown="handleZoom(evt,'in')"/>
  <use id="zoomminus" xlink:href="#zoomMin" x="42" y="9" onmousedown="handleZoom(evt,'out')"/>
  <use id="reset" xlink:href="#resetDef" x="30" y="36" onmousedown="handleReset()"/>
   <use id="arrowup" xlink:href="#arrowUp" x="0" y="0" onmousedown="handlePan(0,-1)"/>
  <use id="arrowright" xlink:href="#arrowRight" x="0" y="0" onmousedown="handlePan(1,0)"/>
  <use id="arrowdown" xlink:href="#arrowDown" x="0" y="0" onmousedown="handlePan(0,1)"/>
  <use id="arrowleft" xlink:href="#arrowLeft" x="0" y="0" onmousedown="handlePan(-1,0)"/>
</g>
<svg viewBox="0 0 15 15" width="100%" height="30px" preserveAspectRatio="xMaxYMin meet">
 <g id="arrow_out" transform="scale(0.3 0.3)">
  <a xlink:href="dot_inline_dotgraph_4_org.svg" target="_base">
   <rect id="button" ry="5" rx="5" y="6" x="6" height="38" width="38"
        fill="#f2f5e9" fill-opacity="0.5" stroke="#606060" stroke-width="1.0"/>
   <path id="arrow"
     d="M 11.500037,31.436501 C 11.940474,20.09759 22.043105,11.32322 32.158766,21.979434 L 37.068811,17.246167 C 37.068811,17.246167 37.088388,32 37.088388,32 L 22.160133,31.978069 C 22.160133,31.978069 26.997745,27.140456 26.997745,27.140456 C 18.528582,18.264221 13.291696,25.230495 11.500037,31.436501 z"
     style="fill:#404040;"/>
  </a>
 </g>
</svg>

<style type='text/css'>
<![CDATA[
[data-mouse-over-selected='false'] { opacity: 0.7; }
[data-mouse-over-selected='true']  { opacity: 1.0; }
]]>
</style>
<script type="application/ecmascript"><![CDATA[
document.addEventListener('DOMContentLoaded', (event) => {
  highlightEdges();
  highlightAdjacentNodes();
});
]]></script>
</svg>
