<?xml version="1.0" encoding="UTF-8" standalone="no"?>
<!DOCTYPE svg PUBLIC "-//W3C//DTD SVG 1.1//EN"
 "http://www.w3.org/Graphics/SVG/1.1/DTD/svg11.dtd">
<!-- Generated by graphviz version 14.1.1 (20251213.1925)
 -->
<!-- Title: DataFlow Pages: 1 -->
<!--zoomable 178 -->

<svg id="main" version="1.1" xmlns="http://www.w3.org/2000/svg" xmlns:xlink="http://www.w3.org/1999/xlink" xml:space="preserve" onload="init(evt)">

<style type="text/css"><![CDATA[
.node, .edge {opacity: 0.7;}
.node.selected, .edge.selected {opacity: 1;}
.edge:hover path { stroke: red; }
.edge:hover polygon { stroke: red; fill: red; }
]]></style>

<defs>
  <circle id="rim" cx="0" cy="0" r="7"/>
  <circle id="rim2" cx="0" cy="0" r="3.5"/>
  <g id="zoomPlus">
    <use xlink:href="#rim" fill="#404040"><set attributeName="fill" to="#808080" begin="zoomplus.mouseover" end="zoomplus.mouseout"/></use>
    <path d="M-4,0h8M0,-4v8" fill="none" stroke="white" stroke-width="1.5" pointer-events="none"/>
  </g>
  <g id="zoomMin">
    <use xlink:href="#rim" fill="#404040"><set attributeName="fill" to="#808080" begin="zoomminus.mouseover" end="zoomminus.mouseout"/></use>
    <path d="M-4,0h8" fill="none" stroke="white" stroke-width="1.5" pointer-events="none"/>
  </g>
  <g id="arrowUp" transform="translate(30 24)">
    <use xlink:href="#rim"/>
    <path pointer-events="none" fill="none" stroke="white" stroke-width="1.5" d="M0,-3.0v7 M-2.5,-0.5L0,-3.0L2.5,-0.5"/>
  </g>
  <g id="arrowRight" transform="rotate(90) translate(36 -43)">
    <use xlink:href="#rim"/>
    <path pointer-events="none" fill="none" stroke="white" stroke-width="1.5" d="M0,-3.0v7 M-2.5,-0.5L0,-3.0L2.5,-0.5"/>
  </g>
  <g id="arrowDown" transform="rotate(180) translate(-30 -48)">
    <use xlink:href="#rim"/>
    <path pointer-events="none" fill="none" stroke="white" stroke-width="1.5" d="M0,-3.0v7 M-2.5,-0.5L0,-3.0L2.5,-0.5"/>
  </g>
  <g id="arrowLeft" transform="rotate(270) translate(-36 17)">
    <use xlink:href="#rim"/>
    <path pointer-events="none" fill="none" stroke="white" stroke-width="1.5" d="M0,-3.0v7 M-2.5,-0.5L0,-3.0L2.5,-0.5"/>
  </g>
  <g id="resetDef">
    <use xlink:href="#rim2" fill="#404040"><set attributeName="fill" to="#808080" begin="reset.mouseover" end="reset.mouseout"/></use>
  </g>
</defs>
<script type="application/ecmascript">
var viewWidth = 779;
var viewHeight = 178;
</script>
<script type="application/ecmascript" xlink:href="svg.min.js"/>
<svg id="graph" class="graph">
<g id="viewport">
<title>DataFlow</title>
<polygon fill="white" stroke="none" points="-4,4 -4,-173.69 774.5,-173.69 774.5,4 -4,4"/>
<!-- FSM -->
<g id="node1" class="node">
<title>FSM</title>
<polygon fill="lightyellow" stroke="black" points="92.5,-98 0,-98 0,-57 92.5,-57 92.5,-98"/>
<text xml:space="preserve" text-anchor="middle" x="46.25" y="-80.7" font-family="Times New Roman,serif" font-size="14.00">TelnetFSM</text>
<text xml:space="preserve" text-anchor="middle" x="46.25" y="-64.2" font-family="Times New Roman,serif" font-size="14.00">PollSerAction</text>
</g>
<!-- Parser -->
<g id="node2" class="node">
<title>Parser</title>
<polygon fill="lightyellow" stroke="black" points="259.5,-95.5 129.5,-95.5 129.5,-59.5 259.5,-59.5 259.5,-95.5"/>
<text xml:space="preserve" text-anchor="middle" x="194.5" y="-72.45" font-family="Times New Roman,serif" font-size="14.00">parseSERResponse()</text>
</g>
<!-- FSM&#45;&gt;Parser -->
<g id="edge1" class="edge">
<title>FSM&#45;&gt;Parser</title>
<path fill="none" stroke="black" d="M92.72,-77.5C100.77,-77.5 109.34,-77.5 117.95,-77.5"/>
<polygon fill="black" stroke="black" points="117.75,-81 127.75,-77.5 117.75,-74 117.75,-81"/>
</g>
<!-- DB -->
<g id="node3" class="node">
<title>DB</title>
<polygon fill="lightyellow" stroke="black" points="469,-95.5 378.75,-95.5 378.75,-59.5 469,-59.5 469,-95.5"/>
<text xml:space="preserve" text-anchor="middle" x="423.88" y="-72.45" font-family="Times New Roman,serif" font-size="14.00">SERDatabase</text>
</g>
<!-- Parser&#45;&gt;DB -->
<g id="edge2" class="edge">
<title>Parser&#45;&gt;DB</title>
<path fill="none" stroke="black" d="M259.74,-77.5C293.69,-77.5 334.95,-77.5 367.48,-77.5"/>
<polygon fill="black" stroke="black" points="367.08,-81 377.08,-77.5 367.08,-74 367.08,-81"/>
<text xml:space="preserve" text-anchor="middle" x="319.12" y="-80.7" font-family="Times New Roman,serif" font-size="14.00">insertRecords()</text>
</g>
<!-- SQLite -->
<g id="node4" class="node">
<title>SQLite</title>
<path fill="lightblue" stroke="black" d="M674.75,-164.56C674.75,-167.39 656.88,-169.69 634.88,-169.69 612.87,-169.69 595,-167.39 595,-164.56 595,-164.56 595,-118.44 595,-118.44 595,-115.61 612.87,-113.31 634.88,-113.31 656.88,-113.31 674.75,-115.61 674.75,-118.44 674.75,-118.44 674.75,-164.56 674.75,-164.56"/>
<path fill="none" stroke="black" d="M674.75,-164.56C674.75,-161.73 656.88,-159.44 634.88,-159.44 612.87,-159.44 595,-161.73 595,-164.56"/>
<text xml:space="preserve" text-anchor="middle" x="634.88" y="-144.7" font-family="Times New Roman,serif" font-size="14.00">SQLite File</text>
<text xml:space="preserve" text-anchor="middle" x="634.88" y="-128.2" font-family="Times New Roman,serif" font-size="14.00">(.db)</text>
</g>
<!-- DB&#45;&gt;SQLite -->
<g id="edge3" class="edge">
<title>DB&#45;&gt;SQLite</title>
<path fill="none" stroke="black" d="M469.26,-92.75C475.21,-94.72 481.25,-96.69 487,-98.5 519.1,-108.62 555.4,-119.25 583.88,-127.42"/>
<polygon fill="black" stroke="black" points="582.75,-130.73 593.32,-130.11 584.67,-124 582.75,-130.73"/>
<text xml:space="preserve" text-anchor="middle" x="532" y="-127.81" font-family="Times New Roman,serif" font-size="14.00">SQL</text>
</g>
<!-- JSON -->
<g id="node5" class="node">
<title>JSON</title>
<polygon fill="lightyellow" stroke="black" points="661.25,-95.5 602.5,-95.5 602.5,-59.5 667.25,-59.5 667.25,-89.5 661.25,-95.5"/>
<polyline fill="none" stroke="black" points="661.25,-95.5 661.25,-89.5"/>
<polyline fill="none" stroke="black" points="667.25,-89.5 661.25,-89.5"/>
<text xml:space="preserve" text-anchor="middle" x="634.88" y="-72.45" font-family="Times New Roman,serif" font-size="14.00">data.json</text>
</g>
<!-- DB&#45;&gt;JSON -->
<g id="edge4" class="edge">
<title>DB&#45;&gt;JSON</title>
<path fill="none" stroke="black" d="M469.45,-77.5C505.32,-77.5 555.41,-77.5 590.86,-77.5"/>
<polygon fill="black" stroke="black" points="590.76,-81 600.76,-77.5 590.76,-74 590.76,-81"/>
<text xml:space="preserve" text-anchor="middle" x="532" y="-80.7" font-family="Times New Roman,serif" font-size="14.00">exportToJSON()</text>
</g>
<!-- WS -->
<g id="node6" class="node">
<title>WS</title>
<polygon fill="lightyellow" stroke="black" points="673.62,-41 596.12,-41 596.12,0 673.62,0 673.62,-41"/>
<text xml:space="preserve" text-anchor="middle" x="634.88" y="-23.7" font-family="Times New Roman,serif" font-size="14.00">WebSocket</text>
<text xml:space="preserve" text-anchor="middle" x="634.88" y="-7.2" font-family="Times New Roman,serif" font-size="14.00">Server</text>
</g>
<!-- DB&#45;&gt;WS -->
<g id="edge5" class="edge">
<title>DB&#45;&gt;WS</title>
<path fill="none" stroke="black" d="M469.2,-62.42C475.17,-60.53 481.22,-58.67 487,-57 519.31,-47.67 556.03,-38.54 584.68,-31.75"/>
<polygon fill="black" stroke="black" points="585.22,-35.22 594.15,-29.52 583.62,-28.4 585.22,-35.22"/>
<text xml:space="preserve" text-anchor="middle" x="532" y="-60.2" font-family="Times New Roman,serif" font-size="14.00">getAllRecords()</text>
</g>
<!-- UI -->
<g id="node7" class="node">
<title>UI</title>
<polygon fill="lightyellow" stroke="black" points="770.5,-38.5 711.75,-38.5 711.75,-2.5 770.5,-2.5 770.5,-38.5"/>
<text xml:space="preserve" text-anchor="middle" x="741.12" y="-15.45" font-family="Times New Roman,serif" font-size="14.00">Web UI</text>
</g>
<!-- WS&#45;&gt;UI -->
<g id="edge6" class="edge">
<title>WS&#45;&gt;UI</title>
<path fill="none" stroke="black" d="M674.1,-20.5C682.57,-20.5 691.57,-20.5 700.11,-20.5"/>
<polygon fill="black" stroke="black" points="699.86,-24 709.86,-20.5 699.86,-17 699.86,-24"/>
</g>
</g>
</svg>

<g id="navigator" transform="translate(0 0)" fill="#404254">
  <rect fill="#f2f5e9" fill-opacity="0.5" stroke="#606060" stroke-width=".5" x="0" y="0" width="60" height="60"/>
  <use id="zoomplus" xlink:href="#zoomPlus" x="17" y="9" onmousedown="handleZoom(evt,'in')"/>
  <use id="zoomminus" xlink:href="#zoomMin" x="42" y="9" onmousedown="handleZoom(evt,'out')"/>
  <use id="reset" xlink:href="#resetDef" x="30" y="36" onmousedown="handleReset()"/>
   <use id="arrowup" xlink:href="#arrowUp" x="0" y="0" onmousedown="handlePan(0,-1)"/>
  <use id="arrowright" xlink:href="#arrowRight" x="0" y="0" onmousedown="handlePan(1,0)"/>
  <use id="arrowdown" xlink:href="#arrowDown" x="0" y="0" onmousedown="handlePan(0,1)"/>
  <use id="arrowleft" xlink:href="#arrowLeft" x="0" y="0" onmousedown="handlePan(-1,0)"/>
</g>
<svg viewBox="0 0 15 15" width="100%" height="30px" preserveAspectRatio="xMaxYMin meet">
 <g id="arrow_out" transform="scale(0.3 0.3)">
  <a xlink:href="dot_inline_dotgraph_6_org.svg" target="_base">
   <rect id="button" ry="5" rx="5" y="6" x="6" height="38" width="38"
        fill="#f2f5e9" fill-opacity="0.5" stroke="#606060" stroke-width="1.0"/>
   <path id="arrow"
     d="M 11.500037,31.436501 C 11.940474,20.09759 22.043105,11.32322 32.158766,21.979434 L 37.068811,17.246167 C 37.068811,17.246167 37.088388,32 37.088388,32 L 22.160133,31.978069 C 22.160133,31.978069 26.997745,27.140456 26.997745,27.140456 C 18.528582,18.264221 13.291696,25.230495 11.500037,31.436501 z"
     style="fill:#404040;"/>
  </a>
 </g>
</svg>

<style type='text/css'>
<![CDATA[
[data-mouse-over-selected='false'] { opacity: 0.7; }
[data-mouse-over-selected='true']  { opacity: 1.0; }
]]>
</style>
<script type="application/ecmascript"><![CDATA[
document.addEventListener('DOMContentLoaded', (event) => {
  highlightEdges();
  highlightAdjacentNodes();
});
]]></script>
</svg>
