<?xml version="1.0" encoding="UTF-8" standalone="no"?>
<!DOCTYPE svg PUBLIC "-//W3C//DTD SVG 1.1//EN"
 "http://www.w3.org/Graphics/SVG/1.1/DTD/svg11.dtd">
<!-- Generated by graphviz version 14.1.1 (20251213.1925)
 -->
<!-- Title: SessionState Pages: 1 -->
<svg width="780pt" height="109pt"
 viewBox="0.00 0.00 780.00 109.00" xmlns="http://www.w3.org/2000/svg" xmlns:xlink="http://www.w3.org/1999/xlink">
<g id="graph0" class="graph" transform="scale(1 1) rotate(0) translate(4 104.5)">
<title>SessionState</title>
<polygon fill="white" stroke="none" points="-4,4 -4,-104.5 775.92,-104.5 775.92,4 -4,4"/>
<!-- Created -->
<g id="node1" class="node">
<title>Created</title>
<ellipse fill="lightgray" stroke="black" cx="39.58" cy="-18" rx="39.58" ry="18"/>
<text xml:space="preserve" text-anchor="middle" x="39.58" y="-12.95" font-family="Times New Roman,serif" font-size="14.00">Created</text>
</g>
<!-- Accepting -->
<g id="node2" class="node">
<title>Accepting</title>
<ellipse fill="lightyellow" stroke="black" cx="190.95" cy="-18" rx="48.79" ry="18"/>
<text xml:space="preserve" text-anchor="middle" x="190.95" y="-12.95" font-family="Times New Roman,serif" font-size="14.00">Accepting</text>
</g>
<!-- Created&#45;&gt;Accepting -->
<g id="edge1" class="edge">
<title>Created&#45;&gt;Accepting</title>
<path fill="none" stroke="black" d="M79.44,-18C95.04,-18 113.37,-18 130.57,-18"/>
<polygon fill="black" stroke="black" points="130.16,-21.5 140.16,-18 130.16,-14.5 130.16,-21.5"/>
<text xml:space="preserve" text-anchor="middle" x="110.66" y="-21.2" font-family="Times New Roman,serif" font-size="14.00">run()</text>
</g>
<!-- Connected -->
<g id="node3" class="node">
<title>Connected</title>
<ellipse fill="lightgreen" stroke="black" cx="383.07" cy="-48" rx="50.33" ry="18"/>
<text xml:space="preserve" text-anchor="middle" x="383.07" y="-42.95" font-family="Times New Roman,serif" font-size="14.00">Connected</text>
</g>
<!-- Accepting&#45;&gt;Connected -->
<g id="edge2" class="edge">
<title>Accepting&#45;&gt;Connected</title>
<path fill="none" stroke="black" d="M236.53,-25.03C263.08,-29.22 297.02,-34.58 325.46,-39.07"/>
<polygon fill="black" stroke="black" points="324.54,-42.46 334.96,-40.57 325.63,-35.55 324.54,-42.46"/>
<text xml:space="preserve" text-anchor="middle" x="286.24" y="-39.77" font-family="Times New Roman,serif" font-size="14.00">handshake</text>
</g>
<!-- Closed -->
<g id="node5" class="node">
<title>Closed</title>
<ellipse fill="lightcoral" stroke="black" cx="735.41" cy="-18" rx="36.51" ry="18"/>
<text xml:space="preserve" text-anchor="middle" x="735.41" y="-12.95" font-family="Times New Roman,serif" font-size="14.00">Closed</text>
</g>
<!-- Accepting&#45;&gt;Closed -->
<g id="edge3" class="edge">
<title>Accepting&#45;&gt;Closed</title>
<path fill="none" stroke="black" d="M240.09,-18C343.23,-18 584.45,-18 686.96,-18"/>
<polygon fill="black" stroke="black" points="686.96,-21.5 696.96,-18 686.96,-14.5 686.96,-21.5"/>
<text xml:space="preserve" text-anchor="middle" x="477.65" y="-21.2" font-family="Times New Roman,serif" font-size="14.00">error</text>
</g>
<!-- Reading -->
<g id="node4" class="node">
<title>Reading</title>
<ellipse fill="lightblue" stroke="black" cx="563.53" cy="-48" rx="41.63" ry="18"/>
<text xml:space="preserve" text-anchor="middle" x="563.53" y="-42.95" font-family="Times New Roman,serif" font-size="14.00">Reading</text>
</g>
<!-- Connected&#45;&gt;Reading -->
<g id="edge4" class="edge">
<title>Connected&#45;&gt;Reading</title>
<path fill="none" stroke="black" d="M433.78,-48C457.53,-48 485.97,-48 510.07,-48"/>
<polygon fill="black" stroke="black" points="510,-51.5 520,-48 510,-44.5 510,-51.5"/>
<text xml:space="preserve" text-anchor="middle" x="477.65" y="-51.2" font-family="Times New Roman,serif" font-size="14.00">do_read()</text>
</g>
<!-- Reading&#45;&gt;Reading -->
<g id="edge5" class="edge">
<title>Reading&#45;&gt;Reading</title>
<path fill="none" stroke="black" d="M548.31,-65.04C545.2,-74.86 550.28,-84 563.53,-84 571.19,-84 576.11,-80.94 578.31,-76.47"/>
<polygon fill="black" stroke="black" points="581.8,-76.68 578.69,-66.55 574.81,-76.41 581.8,-76.68"/>
<text xml:space="preserve" text-anchor="middle" x="563.53" y="-87.2" font-family="Times New Roman,serif" font-size="14.00">message</text>
</g>
<!-- Reading&#45;&gt;Closed -->
<g id="edge6" class="edge">
<title>Reading&#45;&gt;Closed</title>
<path fill="none" stroke="black" d="M602.65,-41.27C628.33,-36.73 662.31,-30.73 689.34,-25.96"/>
<polygon fill="black" stroke="black" points="689.72,-29.45 698.96,-24.26 688.5,-22.55 689.72,-29.45"/>
<text xml:space="preserve" text-anchor="middle" x="652.03" y="-40.64" font-family="Times New Roman,serif" font-size="14.00">close/error</text>
</g>
</g>
</svg>
