<?xml version="1.0" encoding="UTF-8" standalone="no"?>
<!DOCTYPE svg PUBLIC "-//W3C//DTD SVG 1.1//EN"
 "http://www.w3.org/Graphics/SVG/1.1/DTD/svg11.dtd">
<!-- Generated by graphviz version 14.1.2 (20260124.0452)
 -->
<!-- Title: ParseAlgo Pages: 1 -->
<svg width="332pt" height="633pt"
 viewBox="0.00 0.00 332.00 633.00" xmlns="http://www.w3.org/2000/svg" xmlns:xlink="http://www.w3.org/1999/xlink">
<g id="graph0" class="graph" transform="scale(1 1) rotate(0) translate(4 628.5)">
<title>ParseAlgo</title>
<polygon fill="white" stroke="none" points="-4,4 -4,-628.5 328.21,-628.5 328.21,4 -4,4"/>
<!-- start -->
<g id="node1" class="node">
<title>start</title>
<ellipse fill="none" stroke="black" cx="158.46" cy="-606.5" rx="28.32" ry="18"/>
<text xml:space="preserve" text-anchor="middle" x="158.46" y="-601.45" font-family="Times New Roman,serif" font-size="14.00">Start</text>
</g>
<!-- readline -->
<g id="node2" class="node">
<title>readline</title>
<polygon fill="none" stroke="black" points="194.58,-551.5 122.33,-551.5 122.33,-515.5 194.58,-515.5 194.58,-551.5"/>
<text xml:space="preserve" text-anchor="middle" x="158.46" y="-528.45" font-family="Times New Roman,serif" font-size="14.00">Read Line</text>
</g>
<!-- start&#45;&gt;readline -->
<g id="edge1" class="edge">
<title>start&#45;&gt;readline</title>
<path fill="none" stroke="black" d="M158.46,-588.31C158.46,-580.73 158.46,-571.6 158.46,-563.04"/>
<polygon fill="black" stroke="black" points="161.96,-563.04 158.46,-553.04 154.96,-563.04 161.96,-563.04"/>
</g>
<!-- skip -->
<g id="node3" class="node">
<title>skip</title>
<polygon fill="none" stroke="black" points="125.46,-463 0,-445 125.46,-427 250.92,-445 125.46,-463"/>
<text xml:space="preserve" text-anchor="middle" x="125.46" y="-439.95" font-family="Times New Roman,serif" font-size="14.00">Skip Header/Empty?</text>
</g>
<!-- readline&#45;&gt;skip -->
<g id="edge2" class="edge">
<title>readline&#45;&gt;skip</title>
<path fill="none" stroke="black" d="M147.97,-515.08C144.95,-509.58 141.83,-503.4 139.46,-497.5 136.4,-489.87 133.78,-481.35 131.66,-473.47"/>
<polygon fill="black" stroke="black" points="135.12,-472.87 129.3,-464.02 128.33,-474.57 135.12,-472.87"/>
</g>
<!-- skip&#45;&gt;readline -->
<g id="edge3" class="edge">
<title>skip&#45;&gt;readline</title>
<path fill="none" stroke="black" d="M131.74,-462.47C136.31,-474.44 142.59,-490.92 147.92,-504.88"/>
<polygon fill="black" stroke="black" points="144.57,-505.9 151.4,-514 151.11,-503.41 144.57,-505.9"/>
<text xml:space="preserve" text-anchor="middle" x="155.04" y="-484.2" font-family="Times New Roman,serif" font-size="14.00">Yes</text>
</g>
<!-- parse -->
<g id="node4" class="node">
<title>parse</title>
<polygon fill="none" stroke="black" points="230.58,-374.5 20.33,-374.5 20.33,-338.5 230.58,-338.5 230.58,-374.5"/>
<text xml:space="preserve" text-anchor="middle" x="125.46" y="-351.45" font-family="Times New Roman,serif" font-size="14.00">Parse: # Date Time Element [State]</text>
</g>
<!-- skip&#45;&gt;parse -->
<g id="edge4" class="edge">
<title>skip&#45;&gt;parse</title>
<path fill="none" stroke="black" d="M125.46,-426.5C125.46,-415.01 125.46,-399.7 125.46,-386.43"/>
<polygon fill="black" stroke="black" points="128.96,-386.49 125.46,-376.49 121.96,-386.49 128.96,-386.49"/>
<text xml:space="preserve" text-anchor="middle" x="133.71" y="-395.7" font-family="Times New Roman,serif" font-size="14.00">No</text>
</g>
<!-- hasstate -->
<g id="node5" class="node">
<title>hasstate</title>
<polygon fill="none" stroke="black" points="125.46,-286 54.29,-268 125.46,-250 196.63,-268 125.46,-286"/>
<text xml:space="preserve" text-anchor="middle" x="125.46" y="-262.95" font-family="Times New Roman,serif" font-size="14.00">Has State?</text>
</g>
<!-- parse&#45;&gt;hasstate -->
<g id="edge5" class="edge">
<title>parse&#45;&gt;hasstate</title>
<path fill="none" stroke="black" d="M125.46,-338.41C125.46,-326.76 125.46,-311.05 125.46,-297.52"/>
<polygon fill="black" stroke="black" points="128.96,-297.86 125.46,-287.86 121.96,-297.86 128.96,-297.86"/>
</g>
<!-- addrecord -->
<g id="node6" class="node">
<title>addrecord</title>
<polygon fill="none" stroke="black" points="250.33,-197.5 158.58,-197.5 158.58,-161.5 250.33,-161.5 250.33,-197.5"/>
<text xml:space="preserve" text-anchor="middle" x="204.46" y="-174.45" font-family="Times New Roman,serif" font-size="14.00">Add to Vector</text>
</g>
<!-- hasstate&#45;&gt;addrecord -->
<g id="edge6" class="edge">
<title>hasstate&#45;&gt;addrecord</title>
<path fill="none" stroke="black" d="M106.24,-254.45C92.63,-243.98 78.4,-228.7 88.21,-215.5 101.86,-197.13 124.84,-188.05 146.79,-183.68"/>
<polygon fill="black" stroke="black" points="147.33,-187.14 156.62,-182.05 146.18,-180.23 147.33,-187.14"/>
<text xml:space="preserve" text-anchor="middle" x="138.83" y="-218.7" font-family="Times New Roman,serif" font-size="14.00">Split element/state</text>
</g>
<!-- hasstate&#45;&gt;addrecord -->
<g id="edge7" class="edge">
<title>hasstate&#45;&gt;addrecord</title>
<path fill="none" stroke="black" d="M154.67,-256.88C166.98,-251.28 180.5,-243.16 189.46,-232 194.77,-225.39 198.2,-216.96 200.42,-208.85"/>
<polygon fill="black" stroke="black" points="203.79,-209.81 202.49,-199.29 196.95,-208.32 203.79,-209.81"/>
<text xml:space="preserve" text-anchor="middle" x="220.35" y="-218.7" font-family="Times New Roman,serif" font-size="14.00">No state</text>
</g>
<!-- more -->
<g id="node7" class="node">
<title>more</title>
<polygon fill="none" stroke="black" points="241.46,-124.5 158.7,-106.5 241.46,-88.5 324.21,-106.5 241.46,-124.5"/>
<text xml:space="preserve" text-anchor="middle" x="241.46" y="-101.45" font-family="Times New Roman,serif" font-size="14.00">More Lines?</text>
</g>
<!-- addrecord&#45;&gt;more -->
<g id="edge8" class="edge">
<title>addrecord&#45;&gt;more</title>
<path fill="none" stroke="black" d="M213.42,-161.31C217.83,-152.84 223.24,-142.46 228.13,-133.08"/>
<polygon fill="black" stroke="black" points="231.13,-134.9 232.64,-124.42 224.92,-131.67 231.13,-134.9"/>
</g>
<!-- more&#45;&gt;readline -->
<g id="edge9" class="edge">
<title>more&#45;&gt;readline</title>
<path fill="none" stroke="black" d="M254.4,-122.14C265.07,-135.75 278.46,-157.09 278.46,-178.5 278.46,-446 278.46,-446 278.46,-446 278.46,-483.66 239.09,-506.55 205.45,-519.25"/>
<polygon fill="black" stroke="black" points="204.48,-515.88 196.22,-522.51 206.81,-522.48 204.48,-515.88"/>
<text xml:space="preserve" text-anchor="middle" x="288.58" y="-307.2" font-family="Times New Roman,serif" font-size="14.00">Yes</text>
</g>
<!-- done -->
<g id="node8" class="node">
<title>done</title>
<ellipse fill="none" stroke="black" cx="241.46" cy="-18" rx="68.75" ry="18"/>
<text xml:space="preserve" text-anchor="middle" x="241.46" y="-12.95" font-family="Times New Roman,serif" font-size="14.00">Return Records</text>
</g>
<!-- more&#45;&gt;done -->
<g id="edge10" class="edge">
<title>more&#45;&gt;done</title>
<path fill="none" stroke="black" d="M241.46,-88C241.46,-76.51 241.46,-61.2 241.46,-47.93"/>
<polygon fill="black" stroke="black" points="244.96,-47.99 241.46,-37.99 237.96,-47.99 244.96,-47.99"/>
<text xml:space="preserve" text-anchor="middle" x="249.71" y="-57.2" font-family="Times New Roman,serif" font-size="14.00">No</text>
</g>
</g>
</svg>
