<?xml version="1.0" encoding="UTF-8" standalone="no"?>
<!DOCTYPE svg PUBLIC "-//W3C//DTD SVG 1.1//EN"
 "http://www.w3.org/Graphics/SVG/1.1/DTD/svg11.dtd">
<!-- Generated by graphviz version 14.1.1 (20251213.1925)
 -->
<!-- Title: ThreadModel Pages: 1 -->
<svg width="521pt" height="263pt"
 viewBox="0.00 0.00 521.00 263.00" xmlns="http://www.w3.org/2000/svg" xmlns:xlink="http://www.w3.org/1999/xlink">
<g id="graph0" class="graph" transform="scale(1 1) rotate(0) translate(4 258.5)">
<title>ThreadModel</title>
<polygon fill="white" stroke="none" points="-4,4 -4,-258.5 517,-258.5 517,4 -4,4"/>
<g id="clust1" class="cluster">
<title>cluster_threads</title>
<polygon fill="none" stroke="black" points="8,-165 8,-246.5 505,-246.5 505,-165 8,-165"/>
<text xml:space="preserve" text-anchor="middle" x="256.5" y="-229.2" font-family="Times New Roman,serif" font-size="14.00">Application Threads</text>
</g>
<g id="clust2" class="cluster">
<title>cluster_sync</title>
<polygon fill="none" stroke="black" points="146,-8 146,-130.5 431,-130.5 431,-8 146,-8"/>
<text xml:space="preserve" text-anchor="middle" x="288.5" y="-113.2" font-family="Times New Roman,serif" font-size="14.00">Synchronization</text>
</g>
<!-- main -->
<g id="node1" class="node">
<title>main</title>
<polygon fill="lightyellow" stroke="black" points="113.88,-214 16.12,-214 16.12,-173 113.88,-173 113.88,-214"/>
<text xml:space="preserve" text-anchor="middle" x="65" y="-196.7" font-family="Times New Roman,serif" font-size="14.00">Main Thread</text>
<text xml:space="preserve" text-anchor="middle" x="65" y="-180.2" font-family="Times New Roman,serif" font-size="14.00">(FSM Control)</text>
</g>
<!-- stop -->
<g id="node6" class="node">
<title>stop</title>
<polygon fill="lightcoral" stroke="black" points="223,-98 154.5,-57 223,-16 291.5,-57 223,-98"/>
<text xml:space="preserve" text-anchor="middle" x="223" y="-60.2" font-family="Times New Roman,serif" font-size="14.00">Stop Flag</text>
<text xml:space="preserve" text-anchor="middle" x="223" y="-43.7" font-family="Times New Roman,serif" font-size="14.00">(atomic)</text>
</g>
<!-- main&#45;&gt;stop -->
<g id="edge1" class="edge">
<title>main&#45;&gt;stop</title>
<path fill="none" stroke="black" d="M88.31,-172.65C114.17,-150.64 156.23,-114.84 186.47,-89.09"/>
<polygon fill="black" stroke="black" points="188.56,-91.92 193.9,-82.77 184.02,-86.59 188.56,-91.92"/>
<text xml:space="preserve" text-anchor="middle" x="135.33" y="-141.7" font-family="Times New Roman,serif" font-size="14.00">sets</text>
</g>
<!-- ws -->
<g id="node2" class="node">
<title>ws</title>
<polygon fill="lightyellow" stroke="black" points="250.38,-214 131.62,-214 131.62,-173 250.38,-173 250.38,-214"/>
<text xml:space="preserve" text-anchor="middle" x="191" y="-196.7" font-family="Times New Roman,serif" font-size="14.00">WebSocket Thread</text>
<text xml:space="preserve" text-anchor="middle" x="191" y="-180.2" font-family="Times New Roman,serif" font-size="14.00">(UI Server)</text>
</g>
<!-- ws&#45;&gt;stop -->
<g id="edge4" class="edge">
<title>ws&#45;&gt;stop</title>
<path fill="none" stroke="black" d="M191.36,-172.58C191.85,-162.31 192.93,-149.64 195.25,-138.5 197.83,-126.09 201.8,-112.96 205.93,-100.99"/>
<polygon fill="black" stroke="black" points="209.15,-102.39 209.23,-91.8 202.56,-100.03 209.15,-102.39"/>
<text xml:space="preserve" text-anchor="middle" x="213.62" y="-141.7" font-family="Times New Roman,serif" font-size="14.00">checks</text>
</g>
<!-- poll -->
<g id="node3" class="node">
<title>poll</title>
<polygon fill="lightyellow" stroke="black" points="365.12,-214 268.88,-214 268.88,-173 365.12,-173 365.12,-214"/>
<text xml:space="preserve" text-anchor="middle" x="317" y="-196.7" font-family="Times New Roman,serif" font-size="14.00">Polling Thread</text>
<text xml:space="preserve" text-anchor="middle" x="317" y="-180.2" font-family="Times New Roman,serif" font-size="14.00">(SER Fetcher)</text>
</g>
<!-- queue -->
<g id="node5" class="node">
<title>queue</title>
<path fill="lightblue" stroke="black" d="M422.75,-80.06C422.75,-82.89 397.31,-85.19 366,-85.19 334.69,-85.19 309.25,-82.89 309.25,-80.06 309.25,-80.06 309.25,-33.94 309.25,-33.94 309.25,-31.11 334.69,-28.81 366,-28.81 397.31,-28.81 422.75,-31.11 422.75,-33.94 422.75,-33.94 422.75,-80.06 422.75,-80.06"/>
<path fill="none" stroke="black" d="M422.75,-80.06C422.75,-77.23 397.31,-74.94 366,-74.94 334.69,-74.94 309.25,-77.23 309.25,-80.06"/>
<text xml:space="preserve" text-anchor="middle" x="366" y="-60.2" font-family="Times New Roman,serif" font-size="14.00">Write Queue</text>
<text xml:space="preserve" text-anchor="middle" x="366" y="-43.7" font-family="Times New Roman,serif" font-size="14.00">(mutex protected)</text>
</g>
<!-- poll&#45;&gt;queue -->
<g id="edge2" class="edge">
<title>poll&#45;&gt;queue</title>
<path fill="none" stroke="black" d="M315.57,-172.64C315.38,-162.27 316.04,-149.49 319.25,-138.5 323.65,-123.42 331.45,-108.18 339.43,-95.08"/>
<polygon fill="black" stroke="black" points="342.29,-97.11 344.71,-86.8 336.39,-93.35 342.29,-97.11"/>
<text xml:space="preserve" text-anchor="middle" x="337.62" y="-141.7" font-family="Times New Roman,serif" font-size="14.00">pushes</text>
</g>
<!-- poll&#45;&gt;stop -->
<g id="edge5" class="edge">
<title>poll&#45;&gt;stop</title>
<path fill="none" stroke="black" d="M292.2,-172.78C286.25,-167.38 280.19,-161.28 275.25,-155 262.1,-138.29 250.52,-117.79 241.62,-99.96"/>
<polygon fill="black" stroke="black" points="244.87,-98.64 237.36,-91.17 238.58,-101.7 244.87,-98.64"/>
<text xml:space="preserve" text-anchor="middle" x="293.62" y="-141.7" font-family="Times New Roman,serif" font-size="14.00">checks</text>
</g>
<!-- db -->
<g id="node4" class="node">
<title>db</title>
<polygon fill="lightyellow" stroke="black" points="497.12,-214 382.88,-214 382.88,-173 497.12,-173 497.12,-214"/>
<text xml:space="preserve" text-anchor="middle" x="440" y="-196.7" font-family="Times New Roman,serif" font-size="14.00">DB Writer Thread</text>
<text xml:space="preserve" text-anchor="middle" x="440" y="-180.2" font-family="Times New Roman,serif" font-size="14.00">(Async Writes)</text>
</g>
<!-- db&#45;&gt;queue -->
<g id="edge3" class="edge">
<title>db&#45;&gt;queue</title>
<path fill="none" stroke="black" d="M432.44,-172.65C428.28,-162.29 422.78,-149.51 417,-138.5 409.32,-123.89 399.88,-108.43 391.22,-95.02"/>
<polygon fill="black" stroke="black" points="394.32,-93.37 385.91,-86.92 388.46,-97.2 394.32,-93.37"/>
<text xml:space="preserve" text-anchor="middle" x="437.47" y="-141.7" font-family="Times New Roman,serif" font-size="14.00">pops</text>
</g>
<!-- db&#45;&gt;stop -->
<g id="edge6" class="edge">
<title>db&#45;&gt;stop</title>
<path fill="none" stroke="black" d="M404,-172.61C394.78,-167.17 385,-161.09 376.25,-155 366.72,-148.37 366.63,-143.16 356,-138.5 332.97,-128.41 322.65,-141.4 300,-130.5 282.05,-121.86 265.49,-107.52 252.36,-93.87"/>
<polygon fill="black" stroke="black" points="255.03,-91.6 245.67,-86.63 249.88,-96.35 255.03,-91.6"/>
<text xml:space="preserve" text-anchor="middle" x="394.62" y="-141.7" font-family="Times New Roman,serif" font-size="14.00">checks</text>
</g>
</g>
</svg>
