<?xml version="1.0" encoding="UTF-8" standalone="no"?>
<!DOCTYPE svg PUBLIC "-//W3C//DTD SVG 1.1//EN"
 "http://www.w3.org/Graphics/SVG/1.1/DTD/svg11.dtd">
<!-- Generated by graphviz version 14.1.1 (20251213.1925)
 -->
<!-- Title: Schema Pages: 1 -->
<!--zoomable 270 -->

<svg id="main" version="1.1" xmlns="http://www.w3.org/2000/svg" xmlns:xlink="http://www.w3.org/1999/xlink" xml:space="preserve" onload="init(evt)">

<style type="text/css"><![CDATA[
.node, .edge {opacity: 0.7;}
.node.selected, .edge.selected {opacity: 1;}
.edge:hover path { stroke: red; }
.edge:hover polygon { stroke: red; fill: red; }
]]></style>

<defs>
  <circle id="rim" cx="0" cy="0" r="7"/>
  <circle id="rim2" cx="0" cy="0" r="3.5"/>
  <g id="zoomPlus">
    <use xlink:href="#rim" fill="#404040"><set attributeName="fill" to="#808080" begin="zoomplus.mouseover" end="zoomplus.mouseout"/></use>
    <path d="M-4,0h8M0,-4v8" fill="none" stroke="white" stroke-width="1.5" pointer-events="none"/>
  </g>
  <g id="zoomMin">
    <use xlink:href="#rim" fill="#404040"><set attributeName="fill" to="#808080" begin="zoomminus.mouseover" end="zoomminus.mouseout"/></use>
    <path d="M-4,0h8" fill="none" stroke="white" stroke-width="1.5" pointer-events="none"/>
  </g>
  <g id="arrowUp" transform="translate(30 24)">
    <use xlink:href="#rim"/>
    <path pointer-events="none" fill="none" stroke="white" stroke-width="1.5" d="M0,-3.0v7 M-2.5,-0.5L0,-3.0L2.5,-0.5"/>
  </g>
  <g id="arrowRight" transform="rotate(90) translate(36 -43)">
    <use xlink:href="#rim"/>
    <path pointer-events="none" fill="none" stroke="white" stroke-width="1.5" d="M0,-3.0v7 M-2.5,-0.5L0,-3.0L2.5,-0.5"/>
  </g>
  <g id="arrowDown" transform="rotate(180) translate(-30 -48)">
    <use xlink:href="#rim"/>
    <path pointer-events="none" fill="none" stroke="white" stroke-width="1.5" d="M0,-3.0v7 M-2.5,-0.5L0,-3.0L2.5,-0.5"/>
  </g>
  <g id="arrowLeft" transform="rotate(270) translate(-36 17)">
    <use xlink:href="#rim"/>
    <path pointer-events="none" fill="none" stroke="white" stroke-width="1.5" d="M0,-3.0v7 M-2.5,-0.5L0,-3.0L2.5,-0.5"/>
  </g>
  <g id="resetDef">
    <use xlink:href="#rim2" fill="#404040"><set attributeName="fill" to="#808080" begin="reset.mouseover" end="reset.mouseout"/></use>
  </g>
</defs>
<script type="application/ecmascript">
var viewWidth = 532;
var viewHeight = 270;
</script>
<script type="application/ecmascript" xlink:href="svg.min.js"/>
<svg id="graph" class="graph">
<g id="viewport">
<title>Schema</title>
<polygon fill="white" stroke="none" points="-4,4 -4,-266 528.2,-266 528.2,4 -4,4"/>
<!-- ser_records -->
<g id="node1" class="node">
<title>ser_records</title>
<polygon fill="lightyellow" stroke="black" points="136.74,-72.5 136.74,-261.5 382.24,-261.5 382.24,-72.5 136.74,-72.5"/>
<text xml:space="preserve" text-anchor="middle" x="259.49" y="-244.2" font-family="Times New Roman,serif" font-size="14.00">ser_records</text>
<polyline fill="none" stroke="black" points="136.74,-237 382.24,-237"/>
<text xml:space="preserve" text-anchor="start" x="144.74" y="-219.7" font-family="Times New Roman,serif" font-size="14.00">id : INTEGER PRIMARY KEY</text>
<text xml:space="preserve" text-anchor="start" x="144.74" y="-203.2" font-family="Times New Roman,serif" font-size="14.00"> relay_id : TEXT NOT NULL</text>
<text xml:space="preserve" text-anchor="start" x="144.74" y="-186.7" font-family="Times New Roman,serif" font-size="14.00"> relay_name : TEXT NOT NULL</text>
<text xml:space="preserve" text-anchor="start" x="144.74" y="-170.2" font-family="Times New Roman,serif" font-size="14.00"> record_id : TEXT NOT NULL</text>
<text xml:space="preserve" text-anchor="start" x="144.74" y="-153.7" font-family="Times New Roman,serif" font-size="14.00"> timestamp : TEXT NOT NULL</text>
<text xml:space="preserve" text-anchor="start" x="144.74" y="-137.2" font-family="Times New Roman,serif" font-size="14.00"> status : TEXT NOT NULL</text>
<text xml:space="preserve" text-anchor="start" x="144.74" y="-120.7" font-family="Times New Roman,serif" font-size="14.00"> description : TEXT</text>
<text xml:space="preserve" text-anchor="start" x="144.74" y="-104.2" font-family="Times New Roman,serif" font-size="14.00"> created_at : DATETIME</text>
<polyline fill="none" stroke="black" points="136.74,-97 382.24,-97"/>
<text xml:space="preserve" text-anchor="start" x="144.74" y="-79.7" font-family="Times New Roman,serif" font-size="14.00">UNIQUE(relay_id, record_id, timestamp)</text>
</g>
<!-- idx0 -->
<g id="node2" class="node">
<title>idx0</title>
<ellipse fill="lightblue" stroke="black" cx="57.49" cy="-18" rx="57.49" ry="18"/>
<text xml:space="preserve" text-anchor="middle" x="57.49" y="-12.95" font-family="Times New Roman,serif" font-size="14.00">idx_relay_id</text>
</g>
<!-- ser_records&#45;&gt;idx0 -->
<g id="edge1" class="edge">
<title>ser_records&#45;&gt;idx0</title>
<path fill="none" stroke="black" d="M136.46,-76.47C118.83,-63.63 102.14,-51.49 88.68,-41.7"/>
<polygon fill="black" stroke="black" points="90.86,-38.95 80.71,-35.9 86.74,-44.61 90.86,-38.95"/>
</g>
<!-- idx1 -->
<g id="node3" class="node">
<title>idx1</title>
<ellipse fill="lightblue" stroke="black" cx="195.49" cy="-18" rx="62.61" ry="18"/>
<text xml:space="preserve" text-anchor="middle" x="195.49" y="-12.95" font-family="Times New Roman,serif" font-size="14.00">idx_record_id</text>
</g>
<!-- ser_records&#45;&gt;idx1 -->
<g id="edge2" class="edge">
<title>ser_records&#45;&gt;idx1</title>
<path fill="none" stroke="black" d="M218.6,-72.07C214.58,-62.85 210.77,-54.09 207.44,-46.44"/>
<polygon fill="black" stroke="black" points="210.75,-45.27 203.55,-37.5 204.33,-48.07 210.75,-45.27"/>
</g>
<!-- idx2 -->
<g id="node4" class="node">
<title>idx2</title>
<ellipse fill="lightblue" stroke="black" cx="324.49" cy="-18" rx="48.28" ry="18"/>
<text xml:space="preserve" text-anchor="middle" x="324.49" y="-12.95" font-family="Times New Roman,serif" font-size="14.00">idx_status</text>
</g>
<!-- ser_records&#45;&gt;idx2 -->
<g id="edge3" class="edge">
<title>ser_records&#45;&gt;idx2</title>
<path fill="none" stroke="black" d="M301.03,-72.07C305.11,-62.85 308.98,-54.09 312.36,-46.44"/>
<polygon fill="black" stroke="black" points="315.47,-48.06 316.31,-37.5 309.07,-45.23 315.47,-48.06"/>
</g>
<!-- idx3 -->
<g id="node5" class="node">
<title>idx3</title>
<ellipse fill="lightblue" stroke="black" cx="457.49" cy="-18" rx="66.71" ry="18"/>
<text xml:space="preserve" text-anchor="middle" x="457.49" y="-12.95" font-family="Times New Roman,serif" font-size="14.00">idx_timestamp</text>
</g>
<!-- ser_records&#45;&gt;idx3 -->
<g id="edge4" class="edge">
<title>ser_records&#45;&gt;idx3</title>
<path fill="none" stroke="black" d="M382.64,-74.57C398.81,-62.57 414.06,-51.25 426.53,-41.99"/>
<polygon fill="black" stroke="black" points="428.33,-45.01 434.27,-36.24 424.15,-39.39 428.33,-45.01"/>
</g>
</g>
</svg>

<g id="navigator" transform="translate(0 0)" fill="#404254">
  <rect fill="#f2f5e9" fill-opacity="0.5" stroke="#606060" stroke-width=".5" x="0" y="0" width="60" height="60"/>
  <use id="zoomplus" xlink:href="#zoomPlus" x="17" y="9" onmousedown="handleZoom(evt,'in')"/>
  <use id="zoomminus" xlink:href="#zoomMin" x="42" y="9" onmousedown="handleZoom(evt,'out')"/>
  <use id="reset" xlink:href="#resetDef" x="30" y="36" onmousedown="handleReset()"/>
   <use id="arrowup" xlink:href="#arrowUp" x="0" y="0" onmousedown="handlePan(0,-1)"/>
  <use id="arrowright" xlink:href="#arrowRight" x="0" y="0" onmousedown="handlePan(1,0)"/>
  <use id="arrowdown" xlink:href="#arrowDown" x="0" y="0" onmousedown="handlePan(0,1)"/>
  <use id="arrowleft" xlink:href="#arrowLeft" x="0" y="0" onmousedown="handlePan(-1,0)"/>
</g>
<svg viewBox="0 0 15 15" width="100%" height="30px" preserveAspectRatio="xMaxYMin meet">
 <g id="arrow_out" transform="scale(0.3 0.3)">
  <a xlink:href="dot_inline_dotgraph_5_org.svg" target="_base">
   <rect id="button" ry="5" rx="5" y="6" x="6" height="38" width="38"
        fill="#f2f5e9" fill-opacity="0.5" stroke="#606060" stroke-width="1.0"/>
   <path id="arrow"
     d="M 11.500037,31.436501 C 11.940474,20.09759 22.043105,11.32322 32.158766,21.979434 L 37.068811,17.246167 C 37.068811,17.246167 37.088388,32 37.088388,32 L 22.160133,31.978069 C 22.160133,31.978069 26.997745,27.140456 26.997745,27.140456 C 18.528582,18.264221 13.291696,25.230495 11.500037,31.436501 z"
     style="fill:#404040;"/>
  </a>
 </g>
</svg>

<style type='text/css'>
<![CDATA[
[data-mouse-over-selected='false'] { opacity: 0.7; }
[data-mouse-over-selected='true']  { opacity: 1.0; }
]]>
</style>
<script type="application/ecmascript"><![CDATA[
document.addEventListener('DOMContentLoaded', (event) => {
  highlightEdges();
  highlightAdjacentNodes();
});
]]></script>
</svg>
