<?xml version="1.0" encoding="UTF-8" standalone="no"?>
<!DOCTYPE svg PUBLIC "-//W3C//DTD SVG 1.1//EN"
 "http://www.w3.org/Graphics/SVG/1.1/DTD/svg11.dtd">
<!-- Generated by graphviz version 14.1.2 (20260124.0452)
 -->
<!-- Title: Polling Pages: 1 -->
<svg width="136pt" height="287pt"
 viewBox="0.00 0.00 136.00 287.00" xmlns="http://www.w3.org/2000/svg" xmlns:xlink="http://www.w3.org/1999/xlink">

<svg id="main" version="1.1" xmlns="http://www.w3.org/2000/svg" xmlns:xlink="http://www.w3.org/1999/xlink" xml:space="preserve">

<style type="text/css"><![CDATA[
.node, .edge {opacity: 0.7;}
.node.selected, .edge.selected {opacity: 1;}
.edge:hover path { stroke: red; }
.edge:hover polygon { stroke: red; fill: red; }
]]></style>
<script type="application/ecmascript" xlink:href="svg.min.js"/>
<svg id="graph" class="graph">
<g id="graph0" class="graph" transform="scale(1 1) rotate(0) translate(4 282.95)">
<title>Polling</title>
<polygon fill="white" stroke="none" points="-4,4 -4,-282.95 131.98,-282.95 131.98,4 -4,4"/>
<!-- Sleep -->
<g id="node1" class="node">
<title>Sleep</title>
<ellipse fill="lightgray" stroke="black" cx="64.85" cy="-249.96" rx="46.85" ry="28.99"/>
<text xml:space="preserve" text-anchor="middle" x="64.85" y="-253.16" font-family="Times New Roman,serif" font-size="14.00">Sleep</text>
<text xml:space="preserve" text-anchor="middle" x="64.85" y="-236.66" font-family="Times New Roman,serif" font-size="14.00">(interval)</text>
</g>
<!-- Check -->
<g id="node2" class="node">
<title>Check</title>
<ellipse fill="lightyellow" stroke="black" cx="46.85" cy="-139.47" rx="46.85" ry="28.99"/>
<text xml:space="preserve" text-anchor="middle" x="46.85" y="-142.67" font-family="Times New Roman,serif" font-size="14.00">Check</text>
<text xml:space="preserve" text-anchor="middle" x="46.85" y="-126.17" font-family="Times New Roman,serif" font-size="14.00">stop_flag</text>
</g>
<!-- Sleep&#45;&gt;Check -->
<g id="edge1" class="edge">
<title>Sleep&#45;&gt;Check</title>
<path fill="none" stroke="black" d="M51.58,-221.78C49.2,-215.72 47.09,-209.24 45.85,-202.97 44.39,-195.62 43.79,-187.68 43.69,-180.02"/>
<polygon fill="black" stroke="black" points="47.19,-180.27 43.86,-170.21 40.19,-180.15 47.19,-180.27"/>
</g>
<!-- Check&#45;&gt;Sleep -->
<g id="edge3" class="edge">
<title>Check&#45;&gt;Sleep</title>
<path fill="none" stroke="black" stroke-dasharray="5,2" d="M51.5,-168.55C53.58,-181.09 56.07,-196.08 58.33,-209.7"/>
<polygon fill="black" stroke="black" points="54.83,-209.95 59.92,-219.24 61.73,-208.81 54.83,-209.95"/>
<text xml:space="preserve" text-anchor="middle" x="77.92" y="-189.67" font-family="Times New Roman,serif" font-size="14.00">stopped</text>
</g>
<!-- Callback -->
<g id="node3" class="node">
<title>Callback</title>
<ellipse fill="lightgreen" stroke="black" cx="84.85" cy="-28.99" rx="43.13" ry="28.99"/>
<text xml:space="preserve" text-anchor="middle" x="84.85" y="-32.19" font-family="Times New Roman,serif" font-size="14.00">Execute</text>
<text xml:space="preserve" text-anchor="middle" x="84.85" y="-15.69" font-family="Times New Roman,serif" font-size="14.00">callback</text>
</g>
<!-- Check&#45;&gt;Callback -->
<g id="edge2" class="edge">
<title>Check&#45;&gt;Callback</title>
<path fill="none" stroke="black" d="M51.84,-110.36C54.17,-99.45 57.33,-86.97 61.35,-75.98 62.47,-72.9 63.75,-69.77 65.13,-66.65"/>
<polygon fill="black" stroke="black" points="68.29,-68.15 69.39,-57.62 61.96,-65.16 68.29,-68.15"/>
<text xml:space="preserve" text-anchor="middle" x="84.6" y="-79.18" font-family="Times New Roman,serif" font-size="14.00">!stopped</text>
</g>
<!-- Callback&#45;&gt;Sleep -->
<g id="edge4" class="edge">
<title>Callback&#45;&gt;Sleep</title>
<path fill="none" stroke="black" d="M100.66,-56.44C103.63,-62.64 106.29,-69.38 107.85,-75.98 120.82,-130.95 123.16,-150.26 102.85,-202.97 101.13,-207.42 98.8,-211.77 96.13,-215.89"/>
<polygon fill="black" stroke="black" points="93.38,-213.72 90.31,-223.86 99.03,-217.85 93.38,-213.72"/>
</g>
</g>
</svg>
</svg>

<style type='text/css'>
<![CDATA[
[data-mouse-over-selected='false'] { opacity: 0.7; }
[data-mouse-over-selected='true']  { opacity: 1.0; }
]]>
</style>
<script type="application/ecmascript"><![CDATA[
document.addEventListener('DOMContentLoaded', (event) => {
  highlightEdges();
  highlightAdjacentNodes();
});
]]></script>
</svg>
