<?xml version="1.0" encoding="UTF-8" standalone="no"?>
<!DOCTYPE svg PUBLIC "-//W3C//DTD SVG 1.1//EN"
 "http://www.w3.org/Graphics/SVG/1.1/DTD/svg11.dtd">
<!-- Generated by graphviz version 14.1.1 (20251213.1925)
 -->
<!-- Title: JSONWriter Pages: 1 -->
<svg width="933pt" height="66pt"
 viewBox="0.00 0.00 933.00 66.00" xmlns="http://www.w3.org/2000/svg" xmlns:xlink="http://www.w3.org/1999/xlink">
<g id="graph0" class="graph" transform="scale(1 1) rotate(0) translate(4 61.98)">
<title>JSONWriter</title>
<polygon fill="white" stroke="none" points="-4,4 -4,-61.98 929.13,-61.98 929.13,4 -4,4"/>
<!-- Records -->
<g id="node1" class="node">
<title>Records</title>
<polygon fill="lightyellow" stroke="black" points="130,-46.99 0,-46.99 0,-10.99 130,-10.99 130,-46.99"/>
<text xml:space="preserve" text-anchor="middle" x="65" y="-23.94" font-family="Times New Roman,serif" font-size="14.00">vector&lt;SERRecord&gt;</text>
</g>
<!-- ToJSON -->
<g id="node2" class="node">
<title>ToJSON</title>
<polygon fill="lightyellow" stroke="black" points="339.5,-46.99 206.5,-46.99 206.5,-10.99 339.5,-10.99 339.5,-46.99"/>
<text xml:space="preserve" text-anchor="middle" x="273" y="-23.94" font-family="Times New Roman,serif" font-size="14.00">recordsToJsonTable()</text>
</g>
<!-- Records&#45;&gt;ToJSON -->
<g id="edge1" class="edge">
<title>Records&#45;&gt;ToJSON</title>
<path fill="none" stroke="black" d="M130.33,-28.99C150.75,-28.99 173.53,-28.99 194.76,-28.99"/>
<polygon fill="black" stroke="black" points="194.51,-32.49 204.51,-28.99 194.51,-25.49 194.51,-32.49"/>
<text xml:space="preserve" text-anchor="middle" x="168.25" y="-32.19" font-family="Times New Roman,serif" font-size="14.00">convert</text>
</g>
<!-- WriteFile -->
<g id="node3" class="node">
<title>WriteFile</title>
<polygon fill="lightyellow" stroke="black" points="554.25,-46.99 442.25,-46.99 442.25,-10.99 554.25,-10.99 554.25,-46.99"/>
<text xml:space="preserve" text-anchor="middle" x="498.25" y="-23.94" font-family="Times New Roman,serif" font-size="14.00">writeJsonToFile()</text>
</g>
<!-- ToJSON&#45;&gt;WriteFile -->
<g id="edge2" class="edge">
<title>ToJSON&#45;&gt;WriteFile</title>
<path fill="none" stroke="black" d="M339.77,-28.99C368.5,-28.99 402.13,-28.99 430.92,-28.99"/>
<polygon fill="black" stroke="black" points="430.6,-32.49 440.6,-28.99 430.6,-25.49 430.6,-32.49"/>
<text xml:space="preserve" text-anchor="middle" x="390.88" y="-32.19" font-family="Times New Roman,serif" font-size="14.00">JSON string</text>
</g>
<!-- Output -->
<g id="node4" class="node">
<title>Output</title>
<polygon fill="lightblue" stroke="black" points="691,-46.99 618,-46.99 618,-10.99 697,-10.99 697,-40.99 691,-46.99"/>
<polyline fill="none" stroke="black" points="691,-46.99 691,-40.99"/>
<polyline fill="none" stroke="black" points="697,-40.99 691,-40.99"/>
<text xml:space="preserve" text-anchor="middle" x="657.5" y="-23.94" font-family="Times New Roman,serif" font-size="14.00">ui/data.json</text>
</g>
<!-- WriteFile&#45;&gt;Output -->
<g id="edge3" class="edge">
<title>WriteFile&#45;&gt;Output</title>
<path fill="none" stroke="black" d="M554.69,-28.99C571.65,-28.99 590.18,-28.99 606.73,-28.99"/>
<polygon fill="black" stroke="black" points="606.32,-32.49 616.32,-28.99 606.32,-25.49 606.32,-32.49"/>
<text xml:space="preserve" text-anchor="middle" x="586.12" y="-32.19" font-family="Times New Roman,serif" font-size="14.00">write</text>
</g>
<!-- UI -->
<g id="node5" class="node">
<title>UI</title>
<ellipse fill="lightyellow" stroke="black" cx="861.32" cy="-28.99" rx="63.82" ry="28.99"/>
<text xml:space="preserve" text-anchor="middle" x="861.32" y="-32.19" font-family="Times New Roman,serif" font-size="14.00">Web Browser</text>
<text xml:space="preserve" text-anchor="middle" x="861.32" y="-15.69" font-family="Times New Roman,serif" font-size="14.00">Tabulator.js</text>
</g>
<!-- Output&#45;&gt;UI -->
<g id="edge4" class="edge">
<title>Output&#45;&gt;UI</title>
<path fill="none" stroke="black" d="M697.41,-28.99C722.5,-28.99 755.93,-28.99 785.98,-28.99"/>
<polygon fill="black" stroke="black" points="785.79,-32.49 795.79,-28.99 785.79,-25.49 785.79,-32.49"/>
<text xml:space="preserve" text-anchor="middle" x="747.25" y="-32.19" font-family="Times New Roman,serif" font-size="14.00">HTTP fetch</text>
</g>
</g>
</svg>
