<?xml version="1.0" encoding="UTF-8" standalone="no"?>
<!DOCTYPE svg PUBLIC "-//W3C//DTD SVG 1.1//EN"
 "http://www.w3.org/Graphics/SVG/1.1/DTD/svg11.dtd">
<!-- Generated by graphviz version 14.1.1 (20251213.1925)
 -->
<!-- Title: SERFlow Pages: 1 -->
<svg width="669pt" height="49pt"
 viewBox="0.00 0.00 669.00 49.00" xmlns="http://www.w3.org/2000/svg" xmlns:xlink="http://www.w3.org/1999/xlink">
<g id="graph0" class="graph" transform="scale(1 1) rotate(0) translate(4 45)">
<title>SERFlow</title>
<polygon fill="white" stroke="none" points="-4,4 -4,-45 665,-45 665,4 -4,4"/>
<!-- Relay -->
<g id="node1" class="node">
<title>Relay</title>
<polygon fill="lightyellow" stroke="black" points="76.75,-41 0,-41 0,0 76.75,0 76.75,-41"/>
<text xml:space="preserve" text-anchor="middle" x="38.38" y="-23.7" font-family="Times New Roman,serif" font-size="14.00">Relay</text>
<text xml:space="preserve" text-anchor="middle" x="38.38" y="-7.2" font-family="Times New Roman,serif" font-size="14.00">(Raw Text)</text>
</g>
<!-- Parser -->
<g id="node2" class="node">
<title>Parser</title>
<polygon fill="lightyellow" stroke="black" points="314,-38.5 184,-38.5 184,-2.5 314,-2.5 314,-38.5"/>
<text xml:space="preserve" text-anchor="middle" x="249" y="-15.45" font-family="Times New Roman,serif" font-size="14.00">parseSERResponse()</text>
</g>
<!-- Relay&#45;&gt;Parser -->
<g id="edge1" class="edge">
<title>Relay&#45;&gt;Parser</title>
<path fill="none" stroke="black" d="M77.16,-20.5C103.73,-20.5 140.19,-20.5 172.61,-20.5"/>
<polygon fill="black" stroke="black" points="172.37,-24 182.37,-20.5 172.37,-17 172.37,-24"/>
<text xml:space="preserve" text-anchor="middle" x="130.38" y="-23.7" font-family="Times New Roman,serif" font-size="14.00">text response</text>
</g>
<!-- Records -->
<g id="node3" class="node">
<title>Records</title>
<polygon fill="lightyellow" stroke="black" points="508.5,-38.5 378.5,-38.5 378.5,-2.5 508.5,-2.5 508.5,-38.5"/>
<text xml:space="preserve" text-anchor="middle" x="443.5" y="-15.45" font-family="Times New Roman,serif" font-size="14.00">vector&lt;SERRecord&gt;</text>
</g>
<!-- Parser&#45;&gt;Records -->
<g id="edge2" class="edge">
<title>Parser&#45;&gt;Records</title>
<path fill="none" stroke="black" d="M314.37,-20.5C331.22,-20.5 349.55,-20.5 366.93,-20.5"/>
<polygon fill="black" stroke="black" points="366.68,-24 376.68,-20.5 366.68,-17 366.68,-24"/>
<text xml:space="preserve" text-anchor="middle" x="346.25" y="-23.7" font-family="Times New Roman,serif" font-size="14.00">parse</text>
</g>
<!-- DB -->
<g id="node4" class="node">
<title>DB</title>
<polygon fill="lightyellow" stroke="black" points="661,-38.5 570.75,-38.5 570.75,-2.5 661,-2.5 661,-38.5"/>
<text xml:space="preserve" text-anchor="middle" x="615.88" y="-15.45" font-family="Times New Roman,serif" font-size="14.00">SERDatabase</text>
</g>
<!-- Records&#45;&gt;DB -->
<g id="edge3" class="edge">
<title>Records&#45;&gt;DB</title>
<path fill="none" stroke="black" d="M508.91,-20.5C525.44,-20.5 543.08,-20.5 559.14,-20.5"/>
<polygon fill="black" stroke="black" points="558.99,-24 568.99,-20.5 558.99,-17 558.99,-24"/>
<text xml:space="preserve" text-anchor="middle" x="539.62" y="-23.7" font-family="Times New Roman,serif" font-size="14.00">store</text>
</g>
</g>
</svg>
