<?xml version="1.0" encoding="UTF-8" standalone="no"?>
<!DOCTYPE svg PUBLIC "-//W3C//DTD SVG 1.1//EN"
 "http://www.w3.org/Graphics/SVG/1.1/DTD/svg11.dtd">
<!-- Generated by graphviz version 14.1.2 (20260124.0452)
 -->
<!-- Title: SystemArchitecture Pages: 1 -->
<svg width="451pt" height="597pt"
 viewBox="0.00 0.00 451.00 597.00" xmlns="http://www.w3.org/2000/svg" xmlns:xlink="http://www.w3.org/1999/xlink">
<g id="graph0" class="graph" transform="scale(1 1) rotate(0) translate(4 593.47)">
<title>SystemArchitecture</title>
<polygon fill="white" stroke="none" points="-4,4 -4,-593.47 447.15,-593.47 447.15,4 -4,4"/>
<g id="clust1" class="cluster">
<title>cluster_app</title>
<polygon fill="lightgray" stroke="black" points="8,-140.98 8,-431.98 260,-431.98 260,-140.98 8,-140.98"/>
<text xml:space="preserve" text-anchor="middle" x="134" y="-414.68" font-family="Times New Roman,serif" font-size="14.00">Telnet&#45;SML Application</text>
</g>
<g id="clust2" class="cluster">
<title>cluster_data</title>
<polygon fill="lightgray" stroke="black" points="278,-143.48 278,-315.98 390,-315.98 390,-143.48 278,-143.48"/>
<text xml:space="preserve" text-anchor="middle" x="334" y="-298.68" font-family="Times New Roman,serif" font-size="14.00">Data Layer</text>
</g>
<g id="clust3" class="cluster">
<title>cluster_ui</title>
<polygon fill="lightgray" stroke="black" points="268,-352.98 268,-581.47 420,-581.47 420,-352.98 268,-352.98"/>
<text xml:space="preserve" text-anchor="middle" x="344" y="-564.17" font-family="Times New Roman,serif" font-size="14.00">User Interface</text>
</g>
<g id="clust4" class="cluster">
<title>cluster_external</title>
<polygon fill="lightgray" stroke="black" points="38,-8 38,-106.48 208,-106.48 208,-8 38,-8"/>
<text xml:space="preserve" text-anchor="middle" x="123" y="-89.18" font-family="Times New Roman,serif" font-size="14.00">External Systems</text>
</g>
<!-- main -->
<g id="node1" class="node">
<title>main</title>
<polygon fill="lightyellow" stroke="black" points="103.62,-399.48 16.38,-399.48 16.38,-358.48 103.62,-358.48 103.62,-399.48"/>
<text xml:space="preserve" text-anchor="middle" x="60" y="-382.18" font-family="Times New Roman,serif" font-size="14.00">main.cpp</text>
<text xml:space="preserve" text-anchor="middle" x="60" y="-365.68" font-family="Times New Roman,serif" font-size="14.00">(Entry Point)</text>
</g>
<!-- fsm -->
<g id="node2" class="node">
<title>fsm</title>
<polygon fill="lightblue" stroke="black" points="122.88,-283.48 19.12,-283.48 19.12,-242.48 122.88,-242.48 122.88,-283.48"/>
<text xml:space="preserve" text-anchor="middle" x="71" y="-266.18" font-family="Times New Roman,serif" font-size="14.00">TelnetFSM</text>
<text xml:space="preserve" text-anchor="middle" x="71" y="-249.68" font-family="Times New Roman,serif" font-size="14.00">(State Machine)</text>
</g>
<!-- main&#45;&gt;fsm -->
<g id="edge1" class="edge">
<title>main&#45;&gt;fsm</title>
<path fill="none" stroke="black" d="M61.92,-358.13C63.6,-340.72 66.07,-315.12 68.01,-295.01"/>
<polygon fill="black" stroke="black" points="71.48,-295.41 68.96,-285.12 64.52,-294.74 71.48,-295.41"/>
<text xml:space="preserve" text-anchor="middle" x="83.92" y="-327.18" font-family="Times New Roman,serif" font-size="14.00">creates</text>
</g>
<!-- client -->
<g id="node3" class="node">
<title>client</title>
<polygon fill="lightgreen" stroke="black" points="119.62,-189.98 32.38,-189.98 32.38,-148.98 119.62,-148.98 119.62,-189.98"/>
<text xml:space="preserve" text-anchor="middle" x="76" y="-172.68" font-family="Times New Roman,serif" font-size="14.00">TelnetClient</text>
<text xml:space="preserve" text-anchor="middle" x="76" y="-156.18" font-family="Times New Roman,serif" font-size="14.00">(TCP/Telnet)</text>
</g>
<!-- fsm&#45;&gt;client -->
<g id="edge2" class="edge">
<title>fsm&#45;&gt;client</title>
<path fill="none" stroke="black" d="M72.08,-242.13C72.73,-230.26 73.57,-214.92 74.31,-201.48"/>
<polygon fill="black" stroke="black" points="77.78,-201.99 74.83,-191.81 70.79,-201.6 77.78,-201.99"/>
<text xml:space="preserve" text-anchor="middle" x="93.07" y="-211.18" font-family="Times New Roman,serif" font-size="14.00">actions</text>
</g>
<!-- relay -->
<g id="node9" class="node">
<title>relay</title>
<ellipse fill="orange" stroke="black" cx="123" cy="-44.99" rx="76.54" ry="28.99"/>
<text xml:space="preserve" text-anchor="middle" x="123" y="-48.19" font-family="Times New Roman,serif" font-size="14.00">Substation Relay</text>
<text xml:space="preserve" text-anchor="middle" x="123" y="-31.69" font-family="Times New Roman,serif" font-size="14.00">(Telnet Server)</text>
</g>
<!-- client&#45;&gt;relay -->
<g id="edge3" class="edge">
<title>client&#45;&gt;relay</title>
<path fill="none" stroke="black" d="M83.22,-148.7C86.24,-140.46 89.88,-130.64 95.04,-117.06"/>
<polygon fill="black" stroke="black" points="98.24,-118.48 98.54,-107.89 91.7,-115.99 98.24,-118.48"/>
<text xml:space="preserve" text-anchor="middle" x="117" y="-117.68" font-family="Times New Roman,serif" font-size="14.00">TCP:23</text>
</g>
<!-- parser -->
<g id="node4" class="node">
<title>parser</title>
<polygon fill="lightpink" stroke="black" points="252,-399.48 122,-399.48 122,-358.48 252,-358.48 252,-399.48"/>
<text xml:space="preserve" text-anchor="middle" x="187" y="-382.18" font-family="Times New Roman,serif" font-size="14.00">parseSERResponse()</text>
<text xml:space="preserve" text-anchor="middle" x="187" y="-365.68" font-family="Times New Roman,serif" font-size="14.00">(Data Parser)</text>
</g>
<!-- db -->
<g id="node5" class="node">
<title>db</title>
<polygon fill="lightyellow" stroke="black" points="379.12,-283.48 288.88,-283.48 288.88,-242.48 379.12,-242.48 379.12,-283.48"/>
<text xml:space="preserve" text-anchor="middle" x="334" y="-266.18" font-family="Times New Roman,serif" font-size="14.00">SERDatabase</text>
<text xml:space="preserve" text-anchor="middle" x="334" y="-249.68" font-family="Times New Roman,serif" font-size="14.00">(SQLite)</text>
</g>
<!-- parser&#45;&gt;db -->
<g id="edge5" class="edge">
<title>parser&#45;&gt;db</title>
<path fill="none" stroke="black" d="M212.61,-358.13C236.74,-339.41 273.08,-311.23 299.71,-290.58"/>
<polygon fill="black" stroke="black" points="301.73,-293.43 307.49,-284.54 297.44,-287.9 301.73,-293.43"/>
<text xml:space="preserve" text-anchor="middle" x="275.97" y="-327.18" font-family="Times New Roman,serif" font-size="14.00">records</text>
</g>
<!-- sqlite -->
<g id="node6" class="node">
<title>sqlite</title>
<path fill="lightblue" stroke="black" d="M381.75,-184.21C381.75,-186.02 360.35,-187.48 334,-187.48 307.65,-187.48 286.25,-186.02 286.25,-184.21 286.25,-184.21 286.25,-154.76 286.25,-154.76 286.25,-152.95 307.65,-151.48 334,-151.48 360.35,-151.48 381.75,-152.95 381.75,-154.76 381.75,-154.76 381.75,-184.21 381.75,-184.21"/>
<path fill="none" stroke="black" d="M381.75,-184.21C381.75,-182.4 360.35,-180.94 334,-180.94 307.65,-180.94 286.25,-182.4 286.25,-184.21"/>
<text xml:space="preserve" text-anchor="middle" x="334" y="-164.43" font-family="Times New Roman,serif" font-size="14.00">ser_records.db</text>
</g>
<!-- db&#45;&gt;sqlite -->
<g id="edge6" class="edge">
<title>db&#45;&gt;sqlite</title>
<path fill="none" stroke="black" d="M334,-242.13C334,-229.61 334,-213.23 334,-199.29"/>
<polygon fill="black" stroke="black" points="337.5,-199.34 334,-189.34 330.5,-199.34 337.5,-199.34"/>
<text xml:space="preserve" text-anchor="middle" x="346.75" y="-211.18" font-family="Times New Roman,serif" font-size="14.00">SQL</text>
</g>
<!-- ws -->
<g id="node7" class="node">
<title>ws</title>
<polygon fill="lightgreen" stroke="black" points="412.38,-396.98 275.62,-396.98 275.62,-360.98 412.38,-360.98 412.38,-396.98"/>
<text xml:space="preserve" text-anchor="middle" x="344" y="-373.93" font-family="Times New Roman,serif" font-size="14.00">SERWebSocketServer</text>
</g>
<!-- ws&#45;&gt;db -->
<g id="edge7" class="edge">
<title>ws&#45;&gt;db</title>
<path fill="none" stroke="black" d="M342.48,-360.67C340.96,-343.3 338.58,-316.18 336.73,-295.07"/>
<polygon fill="black" stroke="black" points="340.23,-294.93 335.87,-285.27 333.25,-295.54 340.23,-294.93"/>
<text xml:space="preserve" text-anchor="middle" x="359.98" y="-327.18" font-family="Times New Roman,serif" font-size="14.00">queries</text>
</g>
<!-- html -->
<g id="node8" class="node">
<title>html</title>
<ellipse fill="lightpink" stroke="black" cx="329" cy="-519.97" rx="53.21" ry="28.99"/>
<text xml:space="preserve" text-anchor="middle" x="329" y="-523.17" font-family="Times New Roman,serif" font-size="14.00">index.html</text>
<text xml:space="preserve" text-anchor="middle" x="329" y="-506.67" font-family="Times New Roman,serif" font-size="14.00">(Web UI)</text>
</g>
<!-- html&#45;&gt;ws -->
<g id="edge8" class="edge">
<title>html&#45;&gt;ws</title>
<path fill="none" stroke="black" d="M332.04,-490.85C334.63,-466.83 338.34,-432.43 340.94,-408.35"/>
<polygon fill="black" stroke="black" points="344.4,-408.94 341.99,-398.62 337.44,-408.19 344.4,-408.94"/>
<text xml:space="preserve" text-anchor="middle" x="390.27" y="-459.68" font-family="Times New Roman,serif" font-size="14.00">WebSocket</text>
<text xml:space="preserve" text-anchor="middle" x="390.27" y="-443.18" font-family="Times New Roman,serif" font-size="14.00">ws://localhost:8765</text>
</g>
<!-- relay&#45;&gt;parser -->
<g id="edge4" class="edge">
<title>relay&#45;&gt;parser</title>
<path fill="none" stroke="black" d="M129.41,-74.27C132.14,-86.6 135.32,-101.24 138,-114.48 154.97,-198.33 172.84,-297.64 181.56,-346.96"/>
<polygon fill="black" stroke="black" points="178.08,-347.38 183.26,-356.62 184.97,-346.16 178.08,-347.38"/>
<text xml:space="preserve" text-anchor="middle" x="184.51" y="-211.18" font-family="Times New Roman,serif" font-size="14.00">SER data</text>
</g>
</g>
</svg>
