<?xml version="1.0" encoding="UTF-8" standalone="no"?>
<!DOCTYPE svg PUBLIC "-//W3C//DTD SVG 1.1//EN"
 "http://www.w3.org/Graphics/SVG/1.1/DTD/svg11.dtd">
<!-- Generated by graphviz version 14.1.1 (20251213.1925)
 -->
<!-- Title: ASNCodec Pages: 1 -->
<svg width="182pt" height="372pt"
 viewBox="0.00 0.00 182.00 372.00" xmlns="http://www.w3.org/2000/svg" xmlns:xlink="http://www.w3.org/1999/xlink">

<svg id="main" version="1.1" xmlns="http://www.w3.org/2000/svg" xmlns:xlink="http://www.w3.org/1999/xlink" xml:space="preserve">

<style type="text/css"><![CDATA[
.node, .edge {opacity: 0.7;}
.node.selected, .edge.selected {opacity: 1;}
.edge:hover path { stroke: red; }
.edge:hover polygon { stroke: red; fill: red; }
]]></style>
<script type="application/ecmascript" xlink:href="svg.min.js"/>
<svg id="graph" class="graph">
<g id="graph0" class="graph" transform="scale(1 1) rotate(0) translate(4 368)">
<title>ASNCodec</title>
<polygon fill="white" stroke="none" points="-4,4 -4,-368 178.25,-368 178.25,4 -4,4"/>
<!-- Records -->
<g id="node1" class="node">
<title>Records</title>
<polygon fill="lightyellow" stroke="black" points="152.12,-364 22.12,-364 22.12,-328 152.12,-328 152.12,-364"/>
<text xml:space="preserve" text-anchor="middle" x="87.12" y="-340.95" font-family="Times New Roman,serif" font-size="14.00">vector&lt;SERRecord&gt;</text>
</g>
<!-- Encode -->
<g id="node2" class="node">
<title>Encode</title>
<polygon fill="lightyellow" stroke="black" points="166.38,-275.5 7.88,-275.5 7.88,-239.5 166.38,-239.5 166.38,-275.5"/>
<text xml:space="preserve" text-anchor="middle" x="87.12" y="-252.45" font-family="Times New Roman,serif" font-size="14.00">encodeSerRecordsToTlv()</text>
</g>
<!-- Records&#45;&gt;Encode -->
<g id="edge1" class="edge">
<title>Records&#45;&gt;Encode</title>
<path fill="none" stroke="black" d="M87.12,-327.91C87.12,-316.26 87.12,-300.55 87.12,-287.02"/>
<polygon fill="black" stroke="black" points="90.63,-287.36 87.13,-277.36 83.63,-287.36 90.63,-287.36"/>
<text xml:space="preserve" text-anchor="middle" x="109.62" y="-296.7" font-family="Times New Roman,serif" font-size="14.00">serialize</text>
</g>
<!-- Binary -->
<g id="node3" class="node">
<title>Binary</title>
<polygon fill="lightgreen" stroke="black" points="139.38,-202.5 34.88,-202.5 34.88,-161.5 139.38,-161.5 139.38,-202.5"/>
<text xml:space="preserve" text-anchor="middle" x="87.12" y="-185.2" font-family="Times New Roman,serif" font-size="14.00">vector&lt;uint8_t&gt;</text>
<text xml:space="preserve" text-anchor="middle" x="87.12" y="-168.7" font-family="Times New Roman,serif" font-size="14.00">(TLV payload)</text>
</g>
<!-- Encode&#45;&gt;Binary -->
<g id="edge2" class="edge">
<title>Encode&#45;&gt;Binary</title>
<path fill="none" stroke="black" d="M87.12,-239.08C87.12,-231.7 87.12,-222.85 87.12,-214.4"/>
<polygon fill="black" stroke="black" points="90.63,-214.4 87.13,-204.4 83.63,-214.4 90.63,-214.4"/>
</g>
<!-- Decode -->
<g id="node4" class="node">
<title>Decode</title>
<polygon fill="lightyellow" stroke="black" points="174.25,-109 0,-109 0,-73 174.25,-73 174.25,-109"/>
<text xml:space="preserve" text-anchor="middle" x="87.12" y="-85.95" font-family="Times New Roman,serif" font-size="14.00">decodeSerRecordsFromTlv()</text>
</g>
<!-- Binary&#45;&gt;Decode -->
<g id="edge3" class="edge">
<title>Binary&#45;&gt;Decode</title>
<path fill="none" stroke="black" d="M87.12,-161.25C87.12,-149.33 87.12,-133.94 87.12,-120.69"/>
<polygon fill="black" stroke="black" points="90.63,-120.81 87.13,-110.81 83.63,-120.81 90.63,-120.81"/>
<text xml:space="preserve" text-anchor="middle" x="116" y="-130.2" font-family="Times New Roman,serif" font-size="14.00">deserialize</text>
</g>
<!-- Output -->
<g id="node5" class="node">
<title>Output</title>
<polygon fill="lightyellow" stroke="black" points="152.12,-36 22.12,-36 22.12,0 152.12,0 152.12,-36"/>
<text xml:space="preserve" text-anchor="middle" x="87.12" y="-12.95" font-family="Times New Roman,serif" font-size="14.00">vector&lt;SERRecord&gt;</text>
</g>
<!-- Decode&#45;&gt;Output -->
<g id="edge4" class="edge">
<title>Decode&#45;&gt;Output</title>
<path fill="none" stroke="black" d="M87.12,-72.81C87.12,-65.23 87.12,-56.1 87.12,-47.54"/>
<polygon fill="black" stroke="black" points="90.63,-47.54 87.13,-37.54 83.63,-47.54 90.63,-47.54"/>
</g>
</g>
</svg>
</svg>

<style type='text/css'>
<![CDATA[
[data-mouse-over-selected='false'] { opacity: 0.7; }
[data-mouse-over-selected='true']  { opacity: 1.0; }
]]>
</style>
<script type="application/ecmascript"><![CDATA[
document.addEventListener('DOMContentLoaded', (event) => {
  highlightEdges();
  highlightAdjacentNodes();
});
]]></script>
</svg>
