<?xml version="1.0" encoding="UTF-8" standalone="no"?>
<!DOCTYPE svg PUBLIC "-//W3C//DTD SVG 1.1//EN"
 "http://www.w3.org/Graphics/SVG/1.1/DTD/svg11.dtd">
<!-- Generated by graphviz version 14.1.2 (20260124.0452)
 -->
<!-- Title: TelnetSmlApp Pages: 1 -->
<!--zoomable 295 -->

<svg id="main" version="1.1" xmlns="http://www.w3.org/2000/svg" xmlns:xlink="http://www.w3.org/1999/xlink" xml:space="preserve" onload="init(evt)">

<style type="text/css"><![CDATA[
.node, .edge {opacity: 0.7;}
.node.selected, .edge.selected {opacity: 1;}
.edge:hover path { stroke: red; }
.edge:hover polygon { stroke: red; fill: red; }
]]></style>

<defs>
  <circle id="rim" cx="0" cy="0" r="7"/>
  <circle id="rim2" cx="0" cy="0" r="3.5"/>
  <g id="zoomPlus">
    <use xlink:href="#rim" fill="#404040"><set attributeName="fill" to="#808080" begin="zoomplus.mouseover" end="zoomplus.mouseout"/></use>
    <path d="M-4,0h8M0,-4v8" fill="none" stroke="white" stroke-width="1.5" pointer-events="none"/>
  </g>
  <g id="zoomMin">
    <use xlink:href="#rim" fill="#404040"><set attributeName="fill" to="#808080" begin="zoomminus.mouseover" end="zoomminus.mouseout"/></use>
    <path d="M-4,0h8" fill="none" stroke="white" stroke-width="1.5" pointer-events="none"/>
  </g>
  <g id="arrowUp" transform="translate(30 24)">
    <use xlink:href="#rim"/>
    <path pointer-events="none" fill="none" stroke="white" stroke-width="1.5" d="M0,-3.0v7 M-2.5,-0.5L0,-3.0L2.5,-0.5"/>
  </g>
  <g id="arrowRight" transform="rotate(90) translate(36 -43)">
    <use xlink:href="#rim"/>
    <path pointer-events="none" fill="none" stroke="white" stroke-width="1.5" d="M0,-3.0v7 M-2.5,-0.5L0,-3.0L2.5,-0.5"/>
  </g>
  <g id="arrowDown" transform="rotate(180) translate(-30 -48)">
    <use xlink:href="#rim"/>
    <path pointer-events="none" fill="none" stroke="white" stroke-width="1.5" d="M0,-3.0v7 M-2.5,-0.5L0,-3.0L2.5,-0.5"/>
  </g>
  <g id="arrowLeft" transform="rotate(270) translate(-36 17)">
    <use xlink:href="#rim"/>
    <path pointer-events="none" fill="none" stroke="white" stroke-width="1.5" d="M0,-3.0v7 M-2.5,-0.5L0,-3.0L2.5,-0.5"/>
  </g>
  <g id="resetDef">
    <use xlink:href="#rim2" fill="#404040"><set attributeName="fill" to="#808080" begin="reset.mouseover" end="reset.mouseout"/></use>
  </g>
</defs>
<script type="application/ecmascript">
var viewWidth = 524;
var viewHeight = 295;
</script>
<script type="application/ecmascript" xlink:href="svg.min.js"/>
<svg id="graph" class="graph">
<g id="viewport">
<title>TelnetSmlApp</title>
<polygon fill="white" stroke="none" points="-4,4 -4,-290.5 520,-290.5 520,4 -4,4"/>
<g id="clust1" class="cluster">
<title>cluster_public</title>
<polygon fill="none" stroke="black" points="213,-197 213,-278.5 325,-278.5 325,-197 213,-197"/>
<text xml:space="preserve" text-anchor="middle" x="269" y="-261.2" font-family="Times New Roman,serif" font-size="14.00">Public API</text>
</g>
<g id="clust2" class="cluster">
<title>cluster_impl</title>
<polygon fill="none" stroke="black" points="8,-8 8,-162.5 508,-162.5 508,-8 8,-8"/>
<text xml:space="preserve" text-anchor="middle" x="258" y="-145.2" font-family="Times New Roman,serif" font-size="14.00">Implementation (Hidden)</text>
</g>
<!-- App -->
<g id="node1" class="node">
<title>App</title>
<polygon fill="lightgreen" stroke="black" points="316.75,-246 221.25,-246 221.25,-205 316.75,-205 316.75,-246"/>
<text xml:space="preserve" text-anchor="middle" x="269" y="-228.7" font-family="Times New Roman,serif" font-size="14.00">TelnetSmlApp</text>
<text xml:space="preserve" text-anchor="middle" x="269" y="-212.2" font-family="Times New Roman,serif" font-size="14.00">(Facade)</text>
</g>
<!-- Impl -->
<g id="node2" class="node">
<title>Impl</title>
<polygon fill="lightyellow" stroke="black" points="301.75,-130 236.25,-130 236.25,-89 301.75,-89 301.75,-130"/>
<text xml:space="preserve" text-anchor="middle" x="269" y="-112.7" font-family="Times New Roman,serif" font-size="14.00">Impl</text>
<text xml:space="preserve" text-anchor="middle" x="269" y="-96.2" font-family="Times New Roman,serif" font-size="14.00">(PIMPL)</text>
</g>
<!-- App&#45;&gt;Impl -->
<g id="edge1" class="edge">
<title>App&#45;&gt;Impl</title>
<path fill="none" stroke="black" d="M269,-204.64C269,-187.23 269,-161.64 269,-141.53"/>
<polygon fill="black" stroke="black" points="272.5,-141.64 269,-131.64 265.5,-141.64 272.5,-141.64"/>
<text xml:space="preserve" text-anchor="middle" x="283.25" y="-173.7" font-family="Times New Roman,serif" font-size="14.00">owns</text>
</g>
<!-- Reception -->
<g id="node3" class="node">
<title>Reception</title>
<polygon fill="lightyellow" stroke="black" points="127.62,-52 16.38,-52 16.38,-16 127.62,-16 127.62,-52"/>
<text xml:space="preserve" text-anchor="middle" x="72" y="-28.95" font-family="Times New Roman,serif" font-size="14.00">ReceptionWorker</text>
</g>
<!-- Impl&#45;&gt;Reception -->
<g id="edge2" class="edge">
<title>Impl&#45;&gt;Reception</title>
<path fill="none" stroke="black" d="M236.03,-96.2C206.94,-85.35 163.91,-69.29 129.22,-56.35"/>
<polygon fill="black" stroke="black" points="130.75,-53.18 120.16,-52.97 128.31,-59.74 130.75,-53.18"/>
</g>
<!-- Processing -->
<g id="node4" class="node">
<title>Processing</title>
<polygon fill="lightyellow" stroke="black" points="260.5,-52 145.5,-52 145.5,-16 260.5,-16 260.5,-52"/>
<text xml:space="preserve" text-anchor="middle" x="203" y="-28.95" font-family="Times New Roman,serif" font-size="14.00">ProcessingWorker</text>
</g>
<!-- Impl&#45;&gt;Processing -->
<g id="edge3" class="edge">
<title>Impl&#45;&gt;Processing</title>
<path fill="none" stroke="black" d="M251.31,-88.8C243.56,-80.17 234.35,-69.92 226.07,-60.69"/>
<polygon fill="black" stroke="black" points="228.78,-58.48 219.5,-53.37 223.58,-63.15 228.78,-58.48"/>
</g>
<!-- WS -->
<g id="node5" class="node">
<title>WS</title>
<polygon fill="lightyellow" stroke="black" points="391.38,-52 278.62,-52 278.62,-16 391.38,-16 391.38,-52"/>
<text xml:space="preserve" text-anchor="middle" x="335" y="-28.95" font-family="Times New Roman,serif" font-size="14.00">WebSocketServer</text>
</g>
<!-- Impl&#45;&gt;WS -->
<g id="edge4" class="edge">
<title>Impl&#45;&gt;WS</title>
<path fill="none" stroke="black" d="M286.69,-88.8C294.44,-80.17 303.65,-69.92 311.93,-60.69"/>
<polygon fill="black" stroke="black" points="314.42,-63.15 318.5,-53.37 309.22,-58.48 314.42,-63.15"/>
</g>
<!-- DB -->
<g id="node6" class="node">
<title>DB</title>
<polygon fill="lightyellow" stroke="black" points="500.12,-52 409.88,-52 409.88,-16 500.12,-16 500.12,-52"/>
<text xml:space="preserve" text-anchor="middle" x="455" y="-28.95" font-family="Times New Roman,serif" font-size="14.00">SERDatabase</text>
</g>
<!-- Impl&#45;&gt;DB -->
<g id="edge5" class="edge">
<title>Impl&#45;&gt;DB</title>
<path fill="none" stroke="black" d="M301.82,-95.53C329.09,-84.75 368.45,-69.2 400.44,-56.56"/>
<polygon fill="black" stroke="black" points="401.56,-59.88 409.58,-52.95 398.99,-53.37 401.56,-59.88"/>
</g>
</g>
</svg>

<g id="navigator" transform="translate(0 0)" fill="#404254">
  <rect fill="#f2f5e9" fill-opacity="0.5" stroke="#606060" stroke-width=".5" x="0" y="0" width="60" height="60"/>
  <use id="zoomplus" xlink:href="#zoomPlus" x="17" y="9" onmousedown="handleZoom(evt,'in')"/>
  <use id="zoomminus" xlink:href="#zoomMin" x="42" y="9" onmousedown="handleZoom(evt,'out')"/>
  <use id="reset" xlink:href="#resetDef" x="30" y="36" onmousedown="handleReset()"/>
   <use id="arrowup" xlink:href="#arrowUp" x="0" y="0" onmousedown="handlePan(0,-1)"/>
  <use id="arrowright" xlink:href="#arrowRight" x="0" y="0" onmousedown="handlePan(1,0)"/>
  <use id="arrowdown" xlink:href="#arrowDown" x="0" y="0" onmousedown="handlePan(0,1)"/>
  <use id="arrowleft" xlink:href="#arrowLeft" x="0" y="0" onmousedown="handlePan(-1,0)"/>
</g>
<svg viewBox="0 0 15 15" width="100%" height="30px" preserveAspectRatio="xMaxYMin meet">
 <g id="arrow_out" transform="scale(0.3 0.3)">
  <a xlink:href="dot_inline_dotgraph_12_org.svg" target="_base">
   <rect id="button" ry="5" rx="5" y="6" x="6" height="38" width="38"
        fill="#f2f5e9" fill-opacity="0.5" stroke="#606060" stroke-width="1.0"/>
   <path id="arrow"
     d="M 11.500037,31.436501 C 11.940474,20.09759 22.043105,11.32322 32.158766,21.979434 L 37.068811,17.246167 C 37.068811,17.246167 37.088388,32 37.088388,32 L 22.160133,31.978069 C 22.160133,31.978069 26.997745,27.140456 26.997745,27.140456 C 18.528582,18.264221 13.291696,25.230495 11.500037,31.436501 z"
     style="fill:#404040;"/>
  </a>
 </g>
</svg>

<style type='text/css'>
<![CDATA[
[data-mouse-over-selected='false'] { opacity: 0.7; }
[data-mouse-over-selected='true']  { opacity: 1.0; }
]]>
</style>
<script type="application/ecmascript"><![CDATA[
document.addEventListener('DOMContentLoaded', (event) => {
  highlightEdges();
  highlightAdjacentNodes();
});
]]></script>
</svg>
