<?xml version="1.0" encoding="UTF-8" standalone="no"?>
<!DOCTYPE svg PUBLIC "-//W3C//DTD SVG 1.1//EN"
 "http://www.w3.org/Graphics/SVG/1.1/DTD/svg11.dtd">
<!-- Generated by graphviz version 14.1.2 (20260124.0452)
 -->
<!-- Title: AcceptLoop Pages: 1 -->
<svg width="153pt" height="279pt"
 viewBox="0.00 0.00 153.00 279.00" xmlns="http://www.w3.org/2000/svg" xmlns:xlink="http://www.w3.org/1999/xlink">

<svg id="main" version="1.1" xmlns="http://www.w3.org/2000/svg" xmlns:xlink="http://www.w3.org/1999/xlink" xml:space="preserve">

<style type="text/css"><![CDATA[
.node, .edge {opacity: 0.7;}
.node.selected, .edge.selected {opacity: 1;}
.edge:hover path { stroke: red; }
.edge:hover polygon { stroke: red; fill: red; }
]]></style>
<script type="application/ecmascript" xlink:href="svg.min.js"/>
<svg id="graph" class="graph">
<g id="graph0" class="graph" transform="scale(1 1) rotate(0) translate(4 274.5)">
<title>AcceptLoop</title>
<polygon fill="white" stroke="none" points="-4,4 -4,-274.5 149.32,-274.5 149.32,4 -4,4"/>
<!-- start -->
<g id="node1" class="node">
<title>start</title>
<ellipse fill="none" stroke="black" cx="95.12" cy="-252.5" rx="29.34" ry="18"/>
<text xml:space="preserve" text-anchor="middle" x="95.12" y="-247.45" font-family="Times New Roman,serif" font-size="14.00">run()</text>
</g>
<!-- accept -->
<g id="node2" class="node">
<title>accept</title>
<polygon fill="none" stroke="black" points="143.62,-197.5 46.62,-197.5 46.62,-161.5 143.62,-161.5 143.62,-197.5"/>
<text xml:space="preserve" text-anchor="middle" x="95.12" y="-174.45" font-family="Times New Roman,serif" font-size="14.00">async_accept()</text>
</g>
<!-- start&#45;&gt;accept -->
<g id="edge1" class="edge">
<title>start&#45;&gt;accept</title>
<path fill="none" stroke="black" d="M95.12,-234.31C95.12,-226.73 95.12,-217.6 95.12,-209.04"/>
<polygon fill="black" stroke="black" points="98.63,-209.04 95.13,-199.04 91.63,-209.04 98.63,-209.04"/>
</g>
<!-- create -->
<g id="node3" class="node">
<title>create</title>
<polygon fill="none" stroke="black" points="96.25,-109 0,-109 0,-73 96.25,-73 96.25,-109"/>
<text xml:space="preserve" text-anchor="middle" x="48.12" y="-85.95" font-family="Times New Roman,serif" font-size="14.00">Create Session</text>
</g>
<!-- accept&#45;&gt;create -->
<g id="edge2" class="edge">
<title>accept&#45;&gt;create</title>
<path fill="none" stroke="black" d="M72.83,-161.04C67.55,-155.91 62.43,-149.93 58.88,-143.5 55.01,-136.49 52.53,-128.24 50.94,-120.43"/>
<polygon fill="black" stroke="black" points="54.4,-119.94 49.38,-110.61 47.49,-121.03 54.4,-119.94"/>
<text xml:space="preserve" text-anchor="middle" x="88.5" y="-130.2" font-family="Times New Roman,serif" font-size="14.00">connection</text>
</g>
<!-- run -->
<g id="node4" class="node">
<title>run</title>
<polygon fill="none" stroke="black" points="137.5,-36 42.75,-36 42.75,0 137.5,0 137.5,-36"/>
<text xml:space="preserve" text-anchor="middle" x="90.12" y="-12.95" font-family="Times New Roman,serif" font-size="14.00">session&#45;&gt;run()</text>
</g>
<!-- create&#45;&gt;run -->
<g id="edge3" class="edge">
<title>create&#45;&gt;run</title>
<path fill="none" stroke="black" d="M58.29,-72.81C63.09,-64.7 68.93,-54.84 74.29,-45.78"/>
<polygon fill="black" stroke="black" points="77.2,-47.72 79.28,-37.33 71.18,-44.16 77.2,-47.72"/>
</g>
<!-- run&#45;&gt;accept -->
<g id="edge4" class="edge">
<title>run&#45;&gt;accept</title>
<path fill="none" stroke="black" d="M99.49,-36.11C111.48,-60.29 129.43,-105.72 118.12,-143.5 117.3,-146.24 116.19,-148.97 114.9,-151.62"/>
<polygon fill="black" stroke="black" points="112,-149.63 109.99,-160.04 118.05,-153.16 112,-149.63"/>
<text xml:space="preserve" text-anchor="middle" x="133.32" y="-85.95" font-family="Times New Roman,serif" font-size="14.00">loop</text>
</g>
</g>
</svg>
</svg>

<style type='text/css'>
<![CDATA[
[data-mouse-over-selected='false'] { opacity: 0.7; }
[data-mouse-over-selected='true']  { opacity: 1.0; }
]]>
</style>
<script type="application/ecmascript"><![CDATA[
document.addEventListener('DOMContentLoaded', (event) => {
  highlightEdges();
  highlightAdjacentNodes();
});
]]></script>
</svg>
