<?xml version="1.0" encoding="UTF-8" standalone="no"?>
<!DOCTYPE svg PUBLIC "-//W3C//DTD SVG 1.1//EN"
 "http://www.w3.org/Graphics/SVG/1.1/DTD/svg11.dtd">
<!-- Generated by graphviz version 14.1.1 (20251213.1925)
 -->
<!-- Title: Schema Pages: 1 -->
<svg width="532pt" height="270pt"
 viewBox="0.00 0.00 532.00 270.00" xmlns="http://www.w3.org/2000/svg" xmlns:xlink="http://www.w3.org/1999/xlink">
<g id="graph0" class="graph" transform="scale(1 1) rotate(0) translate(4 266)">
<title>Schema</title>
<polygon fill="white" stroke="none" points="-4,4 -4,-266 528.2,-266 528.2,4 -4,4"/>
<!-- ser_records -->
<g id="node1" class="node">
<title>ser_records</title>
<polygon fill="lightyellow" stroke="black" points="136.74,-72.5 136.74,-261.5 382.24,-261.5 382.24,-72.5 136.74,-72.5"/>
<text xml:space="preserve" text-anchor="middle" x="259.49" y="-244.2" font-family="Times New Roman,serif" font-size="14.00">ser_records</text>
<polyline fill="none" stroke="black" points="136.74,-237 382.24,-237"/>
<text xml:space="preserve" text-anchor="start" x="144.74" y="-219.7" font-family="Times New Roman,serif" font-size="14.00">id : INTEGER PRIMARY KEY</text>
<text xml:space="preserve" text-anchor="start" x="144.74" y="-203.2" font-family="Times New Roman,serif" font-size="14.00"> relay_id : TEXT NOT NULL</text>
<text xml:space="preserve" text-anchor="start" x="144.74" y="-186.7" font-family="Times New Roman,serif" font-size="14.00"> relay_name : TEXT NOT NULL</text>
<text xml:space="preserve" text-anchor="start" x="144.74" y="-170.2" font-family="Times New Roman,serif" font-size="14.00"> record_id : TEXT NOT NULL</text>
<text xml:space="preserve" text-anchor="start" x="144.74" y="-153.7" font-family="Times New Roman,serif" font-size="14.00"> timestamp : TEXT NOT NULL</text>
<text xml:space="preserve" text-anchor="start" x="144.74" y="-137.2" font-family="Times New Roman,serif" font-size="14.00"> status : TEXT NOT NULL</text>
<text xml:space="preserve" text-anchor="start" x="144.74" y="-120.7" font-family="Times New Roman,serif" font-size="14.00"> description : TEXT</text>
<text xml:space="preserve" text-anchor="start" x="144.74" y="-104.2" font-family="Times New Roman,serif" font-size="14.00"> created_at : DATETIME</text>
<polyline fill="none" stroke="black" points="136.74,-97 382.24,-97"/>
<text xml:space="preserve" text-anchor="start" x="144.74" y="-79.7" font-family="Times New Roman,serif" font-size="14.00">UNIQUE(relay_id, record_id, timestamp)</text>
</g>
<!-- idx0 -->
<g id="node2" class="node">
<title>idx0</title>
<ellipse fill="lightblue" stroke="black" cx="57.49" cy="-18" rx="57.49" ry="18"/>
<text xml:space="preserve" text-anchor="middle" x="57.49" y="-12.95" font-family="Times New Roman,serif" font-size="14.00">idx_relay_id</text>
</g>
<!-- ser_records&#45;&gt;idx0 -->
<g id="edge1" class="edge">
<title>ser_records&#45;&gt;idx0</title>
<path fill="none" stroke="black" d="M136.46,-76.47C118.83,-63.63 102.14,-51.49 88.68,-41.7"/>
<polygon fill="black" stroke="black" points="90.86,-38.95 80.71,-35.9 86.74,-44.61 90.86,-38.95"/>
</g>
<!-- idx1 -->
<g id="node3" class="node">
<title>idx1</title>
<ellipse fill="lightblue" stroke="black" cx="195.49" cy="-18" rx="62.61" ry="18"/>
<text xml:space="preserve" text-anchor="middle" x="195.49" y="-12.95" font-family="Times New Roman,serif" font-size="14.00">idx_record_id</text>
</g>
<!-- ser_records&#45;&gt;idx1 -->
<g id="edge2" class="edge">
<title>ser_records&#45;&gt;idx1</title>
<path fill="none" stroke="black" d="M218.6,-72.07C214.58,-62.85 210.77,-54.09 207.44,-46.44"/>
<polygon fill="black" stroke="black" points="210.75,-45.27 203.55,-37.5 204.33,-48.07 210.75,-45.27"/>
</g>
<!-- idx2 -->
<g id="node4" class="node">
<title>idx2</title>
<ellipse fill="lightblue" stroke="black" cx="324.49" cy="-18" rx="48.28" ry="18"/>
<text xml:space="preserve" text-anchor="middle" x="324.49" y="-12.95" font-family="Times New Roman,serif" font-size="14.00">idx_status</text>
</g>
<!-- ser_records&#45;&gt;idx2 -->
<g id="edge3" class="edge">
<title>ser_records&#45;&gt;idx2</title>
<path fill="none" stroke="black" d="M301.03,-72.07C305.11,-62.85 308.98,-54.09 312.36,-46.44"/>
<polygon fill="black" stroke="black" points="315.47,-48.06 316.31,-37.5 309.07,-45.23 315.47,-48.06"/>
</g>
<!-- idx3 -->
<g id="node5" class="node">
<title>idx3</title>
<ellipse fill="lightblue" stroke="black" cx="457.49" cy="-18" rx="66.71" ry="18"/>
<text xml:space="preserve" text-anchor="middle" x="457.49" y="-12.95" font-family="Times New Roman,serif" font-size="14.00">idx_timestamp</text>
</g>
<!-- ser_records&#45;&gt;idx3 -->
<g id="edge4" class="edge">
<title>ser_records&#45;&gt;idx3</title>
<path fill="none" stroke="black" d="M382.64,-74.57C398.81,-62.57 414.06,-51.25 426.53,-41.99"/>
<polygon fill="black" stroke="black" points="428.33,-45.01 434.27,-36.24 424.15,-39.39 428.33,-45.01"/>
</g>
</g>
</svg>
