<?xml version="1.0" encoding="UTF-8" standalone="no"?>
<!DOCTYPE svg PUBLIC "-//W3C//DTD SVG 1.1//EN"
 "http://www.w3.org/Graphics/SVG/1.1/DTD/svg11.dtd">
<!-- Generated by graphviz version 14.1.2 (20260124.0452)
 -->
<!-- Title: ThreadModel Pages: 1 -->
<svg width="228pt" height="158pt"
 viewBox="0.00 0.00 228.00 158.00" xmlns="http://www.w3.org/2000/svg" xmlns:xlink="http://www.w3.org/1999/xlink">

<svg id="main" version="1.1" xmlns="http://www.w3.org/2000/svg" xmlns:xlink="http://www.w3.org/1999/xlink" xml:space="preserve">

<style type="text/css"><![CDATA[
.node, .edge {opacity: 0.7;}
.node.selected, .edge.selected {opacity: 1;}
.edge:hover path { stroke: red; }
.edge:hover polygon { stroke: red; fill: red; }
]]></style>
<script type="application/ecmascript" xlink:href="svg.min.js"/>
<svg id="graph" class="graph">
<g id="graph0" class="graph" transform="scale(1 1) rotate(0) translate(4 153.88)">
<title>ThreadModel</title>
<polygon fill="white" stroke="none" points="-4,4 -4,-153.88 223.75,-153.88 223.75,4 -4,4"/>
<!-- main -->
<g id="node1" class="node">
<title>main</title>
<polygon fill="lightyellow" stroke="black" points="93.25,-149.88 0,-149.88 0,-108.88 93.25,-108.88 93.25,-149.88"/>
<text xml:space="preserve" text-anchor="middle" x="46.62" y="-132.57" font-family="Times New Roman,serif" font-size="14.00">Main Thread</text>
<text xml:space="preserve" text-anchor="middle" x="46.62" y="-116.08" font-family="Times New Roman,serif" font-size="14.00">(FSM, Telnet)</text>
</g>
<!-- db -->
<g id="node3" class="node">
<title>db</title>
<path fill="lightblue" stroke="black" d="M150.75,-51.25C150.75,-54.08 130.52,-56.38 105.62,-56.38 80.73,-56.38 60.5,-54.08 60.5,-51.25 60.5,-51.25 60.5,-5.12 60.5,-5.12 60.5,-2.3 80.73,0 105.62,0 130.52,0 150.75,-2.3 150.75,-5.12 150.75,-5.12 150.75,-51.25 150.75,-51.25"/>
<path fill="none" stroke="black" d="M150.75,-51.25C150.75,-48.42 130.52,-46.12 105.62,-46.12 80.73,-46.12 60.5,-48.42 60.5,-51.25"/>
<text xml:space="preserve" text-anchor="middle" x="105.62" y="-31.39" font-family="Times New Roman,serif" font-size="14.00">SERDatabase</text>
<text xml:space="preserve" text-anchor="middle" x="105.62" y="-14.89" font-family="Times New Roman,serif" font-size="14.00">(Shared)</text>
</g>
<!-- main&#45;&gt;db -->
<g id="edge1" class="edge">
<title>main&#45;&gt;db</title>
<path fill="none" stroke="black" d="M58.28,-108.78C65.49,-96.67 74.96,-80.74 83.54,-66.31"/>
<polygon fill="black" stroke="black" points="86.42,-68.31 88.53,-57.93 80.41,-64.73 86.42,-68.31"/>
<text xml:space="preserve" text-anchor="middle" x="91.77" y="-77.58" font-family="Times New Roman,serif" font-size="14.00">write</text>
</g>
<!-- server -->
<g id="node2" class="node">
<title>server</title>
<polygon fill="lightyellow" stroke="black" points="219.75,-149.88 111.5,-149.88 111.5,-108.88 219.75,-108.88 219.75,-149.88"/>
<text xml:space="preserve" text-anchor="middle" x="165.62" y="-132.57" font-family="Times New Roman,serif" font-size="14.00">Server Thread</text>
<text xml:space="preserve" text-anchor="middle" x="165.62" y="-116.08" font-family="Times New Roman,serif" font-size="14.00">(WebSocket I/O)</text>
</g>
<!-- server&#45;&gt;db -->
<g id="edge2" class="edge">
<title>server&#45;&gt;db</title>
<path fill="none" stroke="black" d="M153.77,-108.78C146.45,-96.67 136.81,-80.74 128.08,-66.31"/>
<polygon fill="black" stroke="black" points="131.18,-64.67 123.01,-57.92 125.19,-68.29 131.18,-64.67"/>
<text xml:space="preserve" text-anchor="middle" x="154.39" y="-77.58" font-family="Times New Roman,serif" font-size="14.00">read</text>
</g>
</g>
</svg>
</svg>

<style type='text/css'>
<![CDATA[
[data-mouse-over-selected='false'] { opacity: 0.7; }
[data-mouse-over-selected='true']  { opacity: 1.0; }
]]>
</style>
<script type="application/ecmascript"><![CDATA[
document.addEventListener('DOMContentLoaded', (event) => {
  highlightEdges();
  highlightAdjacentNodes();
});
]]></script>
</svg>
