<?xml version="1.0" encoding="UTF-8" standalone="no"?>
<!DOCTYPE svg PUBLIC "-//W3C//DTD SVG 1.1//EN"
 "http://www.w3.org/Graphics/SVG/1.1/DTD/svg11.dtd">
<!-- Generated by graphviz version 14.1.1 (20251213.1925)
 -->
<!-- Title: Transitions Pages: 1 -->
<svg width="315pt" height="266pt"
 viewBox="0.00 0.00 315.00 266.00" xmlns="http://www.w3.org/2000/svg" xmlns:xlink="http://www.w3.org/1999/xlink">
<g id="graph0" class="graph" transform="scale(1 1) rotate(0) translate(4 261.5)">
<title>Transitions</title>
<polygon fill="white" stroke="none" points="-4,4 -4,-261.5 310.75,-261.5 310.75,4 -4,4"/>
<!-- table -->
<g id="node1" class="node">
<title>table</title>
<polygon fill="lightyellow" stroke="none" points="306.75,-257.5 0,-257.5 0,0 306.75,0 306.75,-257.5"/>
<polygon fill="none" stroke="black" points="9,-230 9,-252.5 87.75,-252.5 87.75,-230 9,-230"/>
<text xml:space="preserve" text-anchor="start" x="28.5" y="-237.2" font-family="Times New Roman,serif" font-weight="bold" font-size="14.00">Source</text>
<polygon fill="none" stroke="black" points="87.75,-230 87.75,-252.5 127.5,-252.5 127.5,-230 87.75,-230"/>
<text xml:space="preserve" text-anchor="start" x="90.75" y="-237.2" font-family="Times New Roman,serif" font-weight="bold" font-size="14.00">Event</text>
<polygon fill="none" stroke="black" points="127.5,-230 127.5,-252.5 219,-252.5 219,-230 127.5,-230"/>
<text xml:space="preserve" text-anchor="start" x="153.75" y="-237.2" font-family="Times New Roman,serif" font-weight="bold" font-size="14.00">Guard</text>
<polygon fill="none" stroke="black" points="219,-230 219,-252.5 297.75,-252.5 297.75,-230 219,-230"/>
<text xml:space="preserve" text-anchor="start" x="239.25" y="-237.2" font-family="Times New Roman,serif" font-weight="bold" font-size="14.00">Target</text>
<polygon fill="none" stroke="black" points="9,-207.5 9,-230 87.75,-230 87.75,-207.5 9,-207.5"/>
<text xml:space="preserve" text-anchor="start" x="37.88" y="-213.7" font-family="Times New Roman,serif" font-size="14.00">Idle</text>
<polygon fill="none" stroke="black" points="87.75,-207.5 87.75,-230 127.5,-230 127.5,-207.5 87.75,-207.5"/>
<text xml:space="preserve" text-anchor="start" x="96" y="-213.7" font-family="Times New Roman,serif" font-size="14.00">start</text>
<polygon fill="none" stroke="black" points="127.5,-207.5 127.5,-230 219,-230 219,-207.5 127.5,-207.5"/>
<text xml:space="preserve" text-anchor="start" x="171" y="-213.7" font-family="Times New Roman,serif" font-size="14.00">&#45;</text>
<polygon fill="none" stroke="black" points="219,-207.5 219,-230 297.75,-230 297.75,-207.5 219,-207.5"/>
<text xml:space="preserve" text-anchor="start" x="227.25" y="-213.7" font-family="Times New Roman,serif" font-size="14.00">Connecting</text>
<polygon fill="none" stroke="black" points="9,-185 9,-207.5 87.75,-207.5 87.75,-185 9,-185"/>
<text xml:space="preserve" text-anchor="start" x="17.25" y="-191.2" font-family="Times New Roman,serif" font-size="14.00">Connecting</text>
<polygon fill="none" stroke="black" points="87.75,-185 87.75,-207.5 127.5,-207.5 127.5,-185 87.75,-185"/>
<text xml:space="preserve" text-anchor="start" x="96.75" y="-191.2" font-family="Times New Roman,serif" font-size="14.00">step</text>
<polygon fill="none" stroke="black" points="127.5,-185 127.5,-207.5 219,-207.5 219,-185 127.5,-185"/>
<text xml:space="preserve" text-anchor="start" x="142.5" y="-191.2" font-family="Times New Roman,serif" font-size="14.00">ConnectOk</text>
<polygon fill="none" stroke="black" points="219,-185 219,-207.5 297.75,-207.5 297.75,-185 219,-185"/>
<text xml:space="preserve" text-anchor="start" x="231.38" y="-191.2" font-family="Times New Roman,serif" font-size="14.00">Login_L1</text>
<polygon fill="none" stroke="black" points="9,-162.5 9,-185 87.75,-185 87.75,-162.5 9,-162.5"/>
<text xml:space="preserve" text-anchor="start" x="17.25" y="-168.7" font-family="Times New Roman,serif" font-size="14.00">Connecting</text>
<polygon fill="none" stroke="black" points="87.75,-162.5 87.75,-185 127.5,-185 127.5,-162.5 87.75,-162.5"/>
<text xml:space="preserve" text-anchor="start" x="96.75" y="-168.7" font-family="Times New Roman,serif" font-size="14.00">step</text>
<polygon fill="none" stroke="black" points="127.5,-162.5 127.5,-185 219,-185 219,-162.5 127.5,-162.5"/>
<text xml:space="preserve" text-anchor="start" x="140.25" y="-168.7" font-family="Times New Roman,serif" font-size="14.00">ConnectFail</text>
<polygon fill="none" stroke="black" points="219,-162.5 219,-185 297.75,-185 297.75,-162.5 219,-162.5"/>
<text xml:space="preserve" text-anchor="start" x="244.12" y="-168.7" font-family="Times New Roman,serif" font-size="14.00">Error</text>
<polygon fill="none" stroke="black" points="9,-140 9,-162.5 87.75,-162.5 87.75,-140 9,-140"/>
<text xml:space="preserve" text-anchor="start" x="21.38" y="-146.2" font-family="Times New Roman,serif" font-size="14.00">Login_L1</text>
<polygon fill="none" stroke="black" points="87.75,-140 87.75,-162.5 127.5,-162.5 127.5,-140 87.75,-140"/>
<text xml:space="preserve" text-anchor="start" x="96.75" y="-146.2" font-family="Times New Roman,serif" font-size="14.00">step</text>
<polygon fill="none" stroke="black" points="127.5,-140 127.5,-162.5 219,-162.5 219,-140 127.5,-140"/>
<text xml:space="preserve" text-anchor="start" x="130.5" y="-146.2" font-family="Times New Roman,serif" font-size="14.00">LoginComplete</text>
<polygon fill="none" stroke="black" points="219,-140 219,-162.5 297.75,-162.5 297.75,-140 219,-140"/>
<text xml:space="preserve" text-anchor="start" x="226.5" y="-146.2" font-family="Times New Roman,serif" font-size="14.00">Operational</text>
<polygon fill="none" stroke="black" points="9,-117.5 9,-140 87.75,-140 87.75,-117.5 9,-117.5"/>
<text xml:space="preserve" text-anchor="start" x="21.38" y="-123.7" font-family="Times New Roman,serif" font-size="14.00">Login_L1</text>
<polygon fill="none" stroke="black" points="87.75,-117.5 87.75,-140 127.5,-140 127.5,-117.5 87.75,-117.5"/>
<text xml:space="preserve" text-anchor="start" x="96.75" y="-123.7" font-family="Times New Roman,serif" font-size="14.00">step</text>
<polygon fill="none" stroke="black" points="127.5,-117.5 127.5,-140 219,-140 219,-117.5 127.5,-117.5"/>
<text xml:space="preserve" text-anchor="start" x="147.38" y="-123.7" font-family="Times New Roman,serif" font-size="14.00">CanRetry</text>
<polygon fill="none" stroke="black" points="219,-117.5 219,-140 297.75,-140 297.75,-117.5 219,-117.5"/>
<text xml:space="preserve" text-anchor="start" x="222" y="-123.7" font-family="Times New Roman,serif" font-size="14.00">WaitingRetry</text>
<polygon fill="none" stroke="black" points="9,-95 9,-117.5 87.75,-117.5 87.75,-95 9,-95"/>
<text xml:space="preserve" text-anchor="start" x="21.38" y="-101.2" font-family="Times New Roman,serif" font-size="14.00">Login_L1</text>
<polygon fill="none" stroke="black" points="87.75,-95 87.75,-117.5 127.5,-117.5 127.5,-95 87.75,-95"/>
<text xml:space="preserve" text-anchor="start" x="96.75" y="-101.2" font-family="Times New Roman,serif" font-size="14.00">step</text>
<polygon fill="none" stroke="black" points="127.5,-95 127.5,-117.5 219,-117.5 219,-95 127.5,-95"/>
<text xml:space="preserve" text-anchor="start" x="141.38" y="-101.2" font-family="Times New Roman,serif" font-size="14.00">MaxRetries</text>
<polygon fill="none" stroke="black" points="219,-95 219,-117.5 297.75,-117.5 297.75,-95 219,-95"/>
<text xml:space="preserve" text-anchor="start" x="244.12" y="-101.2" font-family="Times New Roman,serif" font-size="14.00">Error</text>
<polygon fill="none" stroke="black" points="9,-72.5 9,-95 87.75,-95 87.75,-72.5 9,-72.5"/>
<text xml:space="preserve" text-anchor="start" x="12" y="-78.7" font-family="Times New Roman,serif" font-size="14.00">WaitingRetry</text>
<polygon fill="none" stroke="black" points="87.75,-72.5 87.75,-95 127.5,-95 127.5,-72.5 87.75,-72.5"/>
<text xml:space="preserve" text-anchor="start" x="96.75" y="-78.7" font-family="Times New Roman,serif" font-size="14.00">step</text>
<polygon fill="none" stroke="black" points="127.5,-72.5 127.5,-95 219,-95 219,-72.5 127.5,-72.5"/>
<text xml:space="preserve" text-anchor="start" x="171" y="-78.7" font-family="Times New Roman,serif" font-size="14.00">&#45;</text>
<polygon fill="none" stroke="black" points="219,-72.5 219,-95 297.75,-95 297.75,-72.5 219,-72.5"/>
<text xml:space="preserve" text-anchor="start" x="227.25" y="-78.7" font-family="Times New Roman,serif" font-size="14.00">Connecting</text>
<polygon fill="none" stroke="black" points="9,-50 9,-72.5 87.75,-72.5 87.75,-50 9,-50"/>
<text xml:space="preserve" text-anchor="start" x="16.5" y="-56.2" font-family="Times New Roman,serif" font-size="14.00">Operational</text>
<polygon fill="none" stroke="black" points="87.75,-50 87.75,-72.5 127.5,-72.5 127.5,-50 87.75,-50"/>
<text xml:space="preserve" text-anchor="start" x="96.75" y="-56.2" font-family="Times New Roman,serif" font-size="14.00">step</text>
<polygon fill="none" stroke="black" points="127.5,-50 127.5,-72.5 219,-72.5 219,-50 127.5,-50"/>
<text xml:space="preserve" text-anchor="start" x="171" y="-56.2" font-family="Times New Roman,serif" font-size="14.00">&#45;</text>
<polygon fill="none" stroke="black" points="219,-50 219,-72.5 297.75,-72.5 297.75,-50 219,-50"/>
<text xml:space="preserve" text-anchor="start" x="238.88" y="-56.2" font-family="Times New Roman,serif" font-size="14.00">Polling</text>
<polygon fill="none" stroke="black" points="9,-27.5 9,-50 87.75,-50 87.75,-27.5 9,-27.5"/>
<text xml:space="preserve" text-anchor="start" x="28.88" y="-33.7" font-family="Times New Roman,serif" font-size="14.00">Polling</text>
<polygon fill="none" stroke="black" points="87.75,-27.5 87.75,-50 127.5,-50 127.5,-27.5 87.75,-27.5"/>
<text xml:space="preserve" text-anchor="start" x="96.75" y="-33.7" font-family="Times New Roman,serif" font-size="14.00">step</text>
<polygon fill="none" stroke="black" points="127.5,-27.5 127.5,-50 219,-50 219,-27.5 127.5,-27.5"/>
<text xml:space="preserve" text-anchor="start" x="137.62" y="-33.7" font-family="Times New Roman,serif" font-size="14.00">SerComplete</text>
<polygon fill="none" stroke="black" points="219,-27.5 219,-50 297.75,-50 297.75,-27.5 219,-27.5"/>
<text xml:space="preserve" text-anchor="start" x="243.75" y="-33.7" font-family="Times New Roman,serif" font-size="14.00">Done</text>
<polygon fill="none" stroke="black" points="9,-5 9,-27.5 87.75,-27.5 87.75,-5 9,-5"/>
<text xml:space="preserve" text-anchor="start" x="28.88" y="-11.2" font-family="Times New Roman,serif" font-size="14.00">Polling</text>
<polygon fill="none" stroke="black" points="87.75,-5 87.75,-27.5 127.5,-27.5 127.5,-5 87.75,-5"/>
<text xml:space="preserve" text-anchor="start" x="96.75" y="-11.2" font-family="Times New Roman,serif" font-size="14.00">step</text>
<polygon fill="none" stroke="black" points="127.5,-5 127.5,-27.5 219,-27.5 219,-5 127.5,-5"/>
<text xml:space="preserve" text-anchor="start" x="153.75" y="-11.2" font-family="Times New Roman,serif" font-size="14.00">SerFail</text>
<polygon fill="none" stroke="black" points="219,-5 219,-27.5 297.75,-27.5 297.75,-5 219,-5"/>
<text xml:space="preserve" text-anchor="start" x="244.12" y="-11.2" font-family="Times New Roman,serif" font-size="14.00">Error</text>
<polygon fill="none" stroke="black" points="8,-4 8,-253.5 298.75,-253.5 298.75,-4 8,-4"/>
</g>
</g>
</svg>
