<?xml version="1.0" encoding="UTF-8" standalone="no"?>
<!DOCTYPE svg PUBLIC "-//W3C//DTD SVG 1.1//EN"
 "http://www.w3.org/Graphics/SVG/1.1/DTD/svg11.dtd">
<!-- Generated by graphviz version 14.1.1 (20251213.1925)
 -->
<!-- Title: Architecture Pages: 1 -->
<!--zoomable 525 -->

<svg id="main" version="1.1" xmlns="http://www.w3.org/2000/svg" xmlns:xlink="http://www.w3.org/1999/xlink" xml:space="preserve" onload="init(evt)">

<style type="text/css"><![CDATA[
.node, .edge {opacity: 0.7;}
.node.selected, .edge.selected {opacity: 1;}
.edge:hover path { stroke: red; }
.edge:hover polygon { stroke: red; fill: red; }
]]></style>

<defs>
  <circle id="rim" cx="0" cy="0" r="7"/>
  <circle id="rim2" cx="0" cy="0" r="3.5"/>
  <g id="zoomPlus">
    <use xlink:href="#rim" fill="#404040"><set attributeName="fill" to="#808080" begin="zoomplus.mouseover" end="zoomplus.mouseout"/></use>
    <path d="M-4,0h8M0,-4v8" fill="none" stroke="white" stroke-width="1.5" pointer-events="none"/>
  </g>
  <g id="zoomMin">
    <use xlink:href="#rim" fill="#404040"><set attributeName="fill" to="#808080" begin="zoomminus.mouseover" end="zoomminus.mouseout"/></use>
    <path d="M-4,0h8" fill="none" stroke="white" stroke-width="1.5" pointer-events="none"/>
  </g>
  <g id="arrowUp" transform="translate(30 24)">
    <use xlink:href="#rim"/>
    <path pointer-events="none" fill="none" stroke="white" stroke-width="1.5" d="M0,-3.0v7 M-2.5,-0.5L0,-3.0L2.5,-0.5"/>
  </g>
  <g id="arrowRight" transform="rotate(90) translate(36 -43)">
    <use xlink:href="#rim"/>
    <path pointer-events="none" fill="none" stroke="white" stroke-width="1.5" d="M0,-3.0v7 M-2.5,-0.5L0,-3.0L2.5,-0.5"/>
  </g>
  <g id="arrowDown" transform="rotate(180) translate(-30 -48)">
    <use xlink:href="#rim"/>
    <path pointer-events="none" fill="none" stroke="white" stroke-width="1.5" d="M0,-3.0v7 M-2.5,-0.5L0,-3.0L2.5,-0.5"/>
  </g>
  <g id="arrowLeft" transform="rotate(270) translate(-36 17)">
    <use xlink:href="#rim"/>
    <path pointer-events="none" fill="none" stroke="white" stroke-width="1.5" d="M0,-3.0v7 M-2.5,-0.5L0,-3.0L2.5,-0.5"/>
  </g>
  <g id="resetDef">
    <use xlink:href="#rim2" fill="#404040"><set attributeName="fill" to="#808080" begin="reset.mouseover" end="reset.mouseout"/></use>
  </g>
</defs>
<script type="application/ecmascript">
var viewWidth = 419;
var viewHeight = 525;
</script>
<script type="application/ecmascript" xlink:href="svg.min.js"/>
<svg id="graph" class="graph">
<g id="viewport">
<title>Architecture</title>
<polygon fill="white" stroke="none" points="-4,4 -4,-520.5 415,-520.5 415,4 -4,4"/>
<g id="clust1" class="cluster">
<title>cluster_client</title>
<polygon fill="none" stroke="black" points="19,-217.5 19,-508.5 139,-508.5 139,-217.5 19,-217.5"/>
<text xml:space="preserve" text-anchor="middle" x="79" y="-491.2" font-family="Times New Roman,serif" font-size="14.00">Client Application</text>
</g>
<g id="clust2" class="cluster">
<title>cluster_storage</title>
<polygon fill="none" stroke="black" points="157,-101.5 157,-299 263,-299 263,-101.5 157,-101.5"/>
<text xml:space="preserve" text-anchor="middle" x="210" y="-281.7" font-family="Times New Roman,serif" font-size="14.00">Data Layer</text>
</g>
<g id="clust3" class="cluster">
<title>cluster_ui</title>
<polygon fill="none" stroke="black" points="271,-8 271,-180.5 403,-180.5 403,-8 271,-8"/>
<text xml:space="preserve" text-anchor="middle" x="337" y="-163.2" font-family="Times New Roman,serif" font-size="14.00">User Interface</text>
</g>
<g id="clust4" class="cluster">
<title>cluster_external</title>
<polygon fill="none" stroke="black" points="8,-101.5 8,-183 132,-183 132,-101.5 8,-101.5"/>
<text xml:space="preserve" text-anchor="middle" x="70" y="-165.7" font-family="Times New Roman,serif" font-size="14.00">External</text>
</g>
<!-- main -->
<g id="node1" class="node">
<title>main</title>
<polygon fill="lightblue" stroke="black" points="122.62,-476 35.38,-476 35.38,-435 122.62,-435 122.62,-476"/>
<text xml:space="preserve" text-anchor="middle" x="79" y="-458.7" font-family="Times New Roman,serif" font-size="14.00">main.cpp</text>
<text xml:space="preserve" text-anchor="middle" x="79" y="-442.2" font-family="Times New Roman,serif" font-size="14.00">(Entry Point)</text>
</g>
<!-- fsm -->
<g id="node2" class="node">
<title>fsm</title>
<polygon fill="lightblue" stroke="black" points="130.88,-382.5 27.12,-382.5 27.12,-341.5 130.88,-341.5 130.88,-382.5"/>
<text xml:space="preserve" text-anchor="middle" x="79" y="-365.2" font-family="Times New Roman,serif" font-size="14.00">TelnetFSM</text>
<text xml:space="preserve" text-anchor="middle" x="79" y="-348.7" font-family="Times New Roman,serif" font-size="14.00">(State Machine)</text>
</g>
<!-- main&#45;&gt;fsm -->
<g id="edge1" class="edge">
<title>main&#45;&gt;fsm</title>
<path fill="none" stroke="black" d="M79,-434.65C79,-422.78 79,-407.44 79,-394"/>
<polygon fill="black" stroke="black" points="82.5,-394.33 79,-384.33 75.5,-394.33 82.5,-394.33"/>
<text xml:space="preserve" text-anchor="middle" x="100.75" y="-403.7" font-family="Times New Roman,serif" font-size="14.00">controls</text>
</g>
<!-- client -->
<g id="node3" class="node">
<title>client</title>
<polygon fill="lightblue" stroke="black" points="118.62,-266.5 31.38,-266.5 31.38,-225.5 118.62,-225.5 118.62,-266.5"/>
<text xml:space="preserve" text-anchor="middle" x="75" y="-249.2" font-family="Times New Roman,serif" font-size="14.00">TelnetClient</text>
<text xml:space="preserve" text-anchor="middle" x="75" y="-232.7" font-family="Times New Roman,serif" font-size="14.00">(TCP/Telnet)</text>
</g>
<!-- fsm&#45;&gt;client -->
<g id="edge2" class="edge">
<title>fsm&#45;&gt;client</title>
<path fill="none" stroke="black" d="M78.3,-341.14C77.69,-323.73 76.79,-298.14 76.09,-278.03"/>
<polygon fill="black" stroke="black" points="79.59,-278.01 75.74,-268.14 72.59,-278.26 79.59,-278.01"/>
<text xml:space="preserve" text-anchor="middle" x="96.72" y="-310.2" font-family="Times New Roman,serif" font-size="14.00">actions</text>
</g>
<!-- db -->
<g id="node4" class="node">
<title>db</title>
<polygon fill="lightblue" stroke="black" points="255.12,-266.5 164.88,-266.5 164.88,-225.5 255.12,-225.5 255.12,-266.5"/>
<text xml:space="preserve" text-anchor="middle" x="210" y="-249.2" font-family="Times New Roman,serif" font-size="14.00">SERDatabase</text>
<text xml:space="preserve" text-anchor="middle" x="210" y="-232.7" font-family="Times New Roman,serif" font-size="14.00">(SQLite)</text>
</g>
<!-- fsm&#45;&gt;db -->
<g id="edge4" class="edge">
<title>fsm&#45;&gt;db</title>
<path fill="none" stroke="black" d="M101.82,-341.14C123.14,-322.59 155.15,-294.74 178.82,-274.14"/>
<polygon fill="black" stroke="black" points="181.06,-276.83 186.3,-267.62 176.46,-271.55 181.06,-276.83"/>
<text xml:space="preserve" text-anchor="middle" x="170.57" y="-310.2" font-family="Times New Roman,serif" font-size="14.00">stores SER</text>
</g>
<!-- relay -->
<g id="node8" class="node">
<title>relay</title>
<polygon fill="lightblue" stroke="black" points="124.12,-150.5 15.88,-150.5 15.88,-109.5 124.12,-109.5 124.12,-150.5"/>
<text xml:space="preserve" text-anchor="middle" x="70" y="-133.2" font-family="Times New Roman,serif" font-size="14.00">Substation Relay</text>
<text xml:space="preserve" text-anchor="middle" x="70" y="-116.7" font-family="Times New Roman,serif" font-size="14.00">(Telnet Server)</text>
</g>
<!-- client&#45;&gt;relay -->
<g id="edge3" class="edge">
<title>client&#45;&gt;relay</title>
<path fill="none" stroke="black" d="M74.13,-225.14C73.37,-207.73 72.24,-182.14 71.36,-162.03"/>
<polygon fill="black" stroke="black" points="74.86,-161.98 70.93,-152.14 67.87,-162.29 74.86,-161.98"/>
<text xml:space="preserve" text-anchor="middle" x="112.62" y="-194.2" font-family="Times New Roman,serif" font-size="14.00">Telnet TCP:23</text>
</g>
<!-- json -->
<g id="node5" class="node">
<title>json</title>
<polygon fill="lightblue" stroke="black" points="249.88,-150.5 170.12,-150.5 170.12,-109.5 249.88,-109.5 249.88,-150.5"/>
<text xml:space="preserve" text-anchor="middle" x="210" y="-133.2" font-family="Times New Roman,serif" font-size="14.00">data.json</text>
<text xml:space="preserve" text-anchor="middle" x="210" y="-116.7" font-family="Times New Roman,serif" font-size="14.00">(UI Export)</text>
</g>
<!-- db&#45;&gt;json -->
<g id="edge5" class="edge">
<title>db&#45;&gt;json</title>
<path fill="none" stroke="black" d="M210,-225.14C210,-207.73 210,-182.14 210,-162.03"/>
<polygon fill="black" stroke="black" points="213.5,-162.14 210,-152.14 206.5,-162.14 213.5,-162.14"/>
<text xml:space="preserve" text-anchor="middle" x="229.88" y="-194.2" font-family="Times New Roman,serif" font-size="14.00">exports</text>
</g>
<!-- ws -->
<g id="node6" class="node">
<title>ws</title>
<polygon fill="lightblue" stroke="black" points="395.25,-148 278.75,-148 278.75,-112 395.25,-112 395.25,-148"/>
<text xml:space="preserve" text-anchor="middle" x="337" y="-124.95" font-family="Times New Roman,serif" font-size="14.00">WebSocket Server</text>
</g>
<!-- db&#45;&gt;ws -->
<g id="edge6" class="edge">
<title>db&#45;&gt;ws</title>
<path fill="none" stroke="black" d="M233.44,-225.32C240.13,-219.62 247.39,-213.36 254,-207.5 273.23,-190.45 294.54,-170.8 310.75,-155.68"/>
<polygon fill="black" stroke="black" points="312.71,-158.64 317.62,-149.26 307.93,-153.53 312.71,-158.64"/>
<text xml:space="preserve" text-anchor="middle" x="294.84" y="-194.2" font-family="Times New Roman,serif" font-size="14.00">real&#45;time</text>
</g>
<!-- html -->
<g id="node7" class="node">
<title>html</title>
<polygon fill="lightblue" stroke="black" points="370.62,-57 295.38,-57 295.38,-16 370.62,-16 370.62,-57"/>
<text xml:space="preserve" text-anchor="middle" x="333" y="-39.7" font-family="Times New Roman,serif" font-size="14.00">index.html</text>
<text xml:space="preserve" text-anchor="middle" x="333" y="-23.2" font-family="Times New Roman,serif" font-size="14.00">(Web UI)</text>
</g>
<!-- ws&#45;&gt;html -->
<g id="edge7" class="edge">
<title>ws&#45;&gt;html</title>
<path fill="none" stroke="black" d="M336.25,-111.79C335.72,-99.66 334.99,-83.06 334.36,-68.64"/>
<polygon fill="black" stroke="black" points="337.86,-68.52 333.93,-58.69 330.87,-68.83 337.86,-68.52"/>
<text xml:space="preserve" text-anchor="middle" x="366.11" y="-78.2" font-family="Times New Roman,serif" font-size="14.00">WebSocket</text>
</g>
</g>
</svg>

<g id="navigator" transform="translate(0 0)" fill="#404254">
  <rect fill="#f2f5e9" fill-opacity="0.5" stroke="#606060" stroke-width=".5" x="0" y="0" width="60" height="60"/>
  <use id="zoomplus" xlink:href="#zoomPlus" x="17" y="9" onmousedown="handleZoom(evt,'in')"/>
  <use id="zoomminus" xlink:href="#zoomMin" x="42" y="9" onmousedown="handleZoom(evt,'out')"/>
  <use id="reset" xlink:href="#resetDef" x="30" y="36" onmousedown="handleReset()"/>
   <use id="arrowup" xlink:href="#arrowUp" x="0" y="0" onmousedown="handlePan(0,-1)"/>
  <use id="arrowright" xlink:href="#arrowRight" x="0" y="0" onmousedown="handlePan(1,0)"/>
  <use id="arrowdown" xlink:href="#arrowDown" x="0" y="0" onmousedown="handlePan(0,1)"/>
  <use id="arrowleft" xlink:href="#arrowLeft" x="0" y="0" onmousedown="handlePan(-1,0)"/>
</g>
<svg viewBox="0 0 15 15" width="100%" height="30px" preserveAspectRatio="xMaxYMin meet">
 <g id="arrow_out" transform="scale(0.3 0.3)">
  <a xlink:href="dot_inline_dotgraph_3_org.svg" target="_base">
   <rect id="button" ry="5" rx="5" y="6" x="6" height="38" width="38"
        fill="#f2f5e9" fill-opacity="0.5" stroke="#606060" stroke-width="1.0"/>
   <path id="arrow"
     d="M 11.500037,31.436501 C 11.940474,20.09759 22.043105,11.32322 32.158766,21.979434 L 37.068811,17.246167 C 37.068811,17.246167 37.088388,32 37.088388,32 L 22.160133,31.978069 C 22.160133,31.978069 26.997745,27.140456 26.997745,27.140456 C 18.528582,18.264221 13.291696,25.230495 11.500037,31.436501 z"
     style="fill:#404040;"/>
  </a>
 </g>
</svg>

<style type='text/css'>
<![CDATA[
[data-mouse-over-selected='false'] { opacity: 0.7; }
[data-mouse-over-selected='true']  { opacity: 1.0; }
]]>
</style>
<script type="application/ecmascript"><![CDATA[
document.addEventListener('DOMContentLoaded', (event) => {
  highlightEdges();
  highlightAdjacentNodes();
});
]]></script>
</svg>
