<?xml version="1.0" encoding="UTF-8" standalone="no"?>
<!DOCTYPE svg PUBLIC "-//W3C//DTD SVG 1.1//EN"
 "http://www.w3.org/Graphics/SVG/1.1/DTD/svg11.dtd">
<!-- Generated by graphviz version 14.1.1 (20251213.1925)
 -->
<!-- Title: Components Pages: 1 -->
<svg width="381pt" height="294pt"
 viewBox="0.00 0.00 381.00 294.00" xmlns="http://www.w3.org/2000/svg" xmlns:xlink="http://www.w3.org/1999/xlink">

<svg id="main" version="1.1" xmlns="http://www.w3.org/2000/svg" xmlns:xlink="http://www.w3.org/1999/xlink" xml:space="preserve">

<style type="text/css"><![CDATA[
.node, .edge {opacity: 0.7;}
.node.selected, .edge.selected {opacity: 1;}
.edge:hover path { stroke: red; }
.edge:hover polygon { stroke: red; fill: red; }
]]></style>
<script type="application/ecmascript" xlink:href="svg.min.js"/>
<svg id="graph" class="graph">
<g id="graph0" class="graph" transform="scale(1 1) rotate(0) translate(4 290)">
<title>Components</title>
<polygon fill="white" stroke="none" points="-4,4 -4,-290 377,-290 377,4 -4,4"/>
<g id="clust1" class="cluster">
<title>cluster_fsm</title>
<polygon fill="none" stroke="black" points="8,-8 8,-267 165.25,-267 165.25,-8 8,-8"/>
<text xml:space="preserve" text-anchor="middle" x="86.62" y="-249.7" font-family="Times New Roman,serif" font-size="14.00">TelnetFSM</text>
</g>
<g id="clust2" class="cluster">
<title>cluster_deps</title>
<polygon fill="none" stroke="black" points="233.25,-33 233.25,-278 365,-278 365,-33 233.25,-33"/>
<text xml:space="preserve" text-anchor="middle" x="299.12" y="-260.7" font-family="Times New Roman,serif" font-size="14.00">Dependencies</text>
</g>
<!-- Events -->
<g id="node1" class="node">
<title>Events</title>
<polygon fill="lightblue" stroke="black" points="157.25,-57.5 16,-57.5 16,-16.5 157.25,-16.5 157.25,-57.5"/>
<text xml:space="preserve" text-anchor="middle" x="86.62" y="-40.2" font-family="Times New Roman,serif" font-size="14.00">Events</text>
<text xml:space="preserve" text-anchor="middle" x="86.62" y="-23.7" font-family="Times New Roman,serif" font-size="14.00">(start, step, unhandled)</text>
</g>
<!-- States -->
<g id="node2" class="node">
<title>States</title>
<polygon fill="lightblue" stroke="black" points="119.38,-116.5 53.88,-116.5 53.88,-75.5 119.38,-75.5 119.38,-116.5"/>
<text xml:space="preserve" text-anchor="middle" x="86.62" y="-99.2" font-family="Times New Roman,serif" font-size="14.00">States</text>
<text xml:space="preserve" text-anchor="middle" x="86.62" y="-82.7" font-family="Times New Roman,serif" font-size="14.00">(7 states)</text>
</g>
<!-- Guards -->
<g id="node3" class="node">
<title>Guards</title>
<polygon fill="lightblue" stroke="black" points="144.88,-234.5 28.38,-234.5 28.38,-193.5 144.88,-193.5 144.88,-234.5"/>
<text xml:space="preserve" text-anchor="middle" x="86.62" y="-217.2" font-family="Times New Roman,serif" font-size="14.00">Guards</text>
<text xml:space="preserve" text-anchor="middle" x="86.62" y="-200.7" font-family="Times New Roman,serif" font-size="14.00">(condition checks)</text>
</g>
<!-- Client -->
<g id="node5" class="node">
<title>Client</title>
<polygon fill="lightblue" stroke="black" points="340.5,-191 257.75,-191 257.75,-155 340.5,-155 340.5,-191"/>
<text xml:space="preserve" text-anchor="middle" x="299.12" y="-167.95" font-family="Times New Roman,serif" font-size="14.00">TelnetClient</text>
</g>
<!-- Guards&#45;&gt;Client -->
<g id="edge5" class="edge">
<title>Guards&#45;&gt;Client</title>
<path fill="none" stroke="black" d="M145.27,-212.48C169.58,-210.92 198.04,-207.87 223.25,-202 231,-200.19 239.02,-197.75 246.8,-195.05"/>
<polygon fill="black" stroke="black" points="247.99,-198.34 256.17,-191.61 245.57,-191.77 247.99,-198.34"/>
<text xml:space="preserve" text-anchor="middle" x="199.25" y="-213.08" font-family="Times New Roman,serif" font-size="14.00">checks</text>
</g>
<!-- Retry -->
<g id="node7" class="node">
<title>Retry</title>
<polygon fill="lightblue" stroke="black" points="335.62,-245 262.62,-245 262.62,-209 335.62,-209 335.62,-245"/>
<text xml:space="preserve" text-anchor="middle" x="299.12" y="-221.95" font-family="Times New Roman,serif" font-size="14.00">RetryState</text>
</g>
<!-- Guards&#45;&gt;Retry -->
<g id="edge6" class="edge">
<title>Guards&#45;&gt;Retry</title>
<path fill="none" stroke="black" d="M144.52,-234.97C154.62,-237.89 165.15,-240.43 175.25,-242 196.33,-245.29 202.02,-244.11 223.25,-242 232.25,-241.11 241.77,-239.63 250.89,-237.93"/>
<polygon fill="black" stroke="black" points="251.55,-241.37 260.68,-236 250.19,-234.5 251.55,-241.37"/>
<text xml:space="preserve" text-anchor="middle" x="199.25" y="-247.25" font-family="Times New Roman,serif" font-size="14.00">checks</text>
</g>
<!-- Actions -->
<g id="node4" class="node">
<title>Actions</title>
<polygon fill="lightblue" stroke="black" points="129.88,-175.5 43.38,-175.5 43.38,-134.5 129.88,-134.5 129.88,-175.5"/>
<text xml:space="preserve" text-anchor="middle" x="86.62" y="-158.2" font-family="Times New Roman,serif" font-size="14.00">Actions</text>
<text xml:space="preserve" text-anchor="middle" x="86.62" y="-141.7" font-family="Times New Roman,serif" font-size="14.00">(side effects)</text>
</g>
<!-- Actions&#45;&gt;Client -->
<g id="edge1" class="edge">
<title>Actions&#45;&gt;Client</title>
<path fill="none" stroke="black" d="M130.36,-146.68C157.21,-142.76 192.46,-140.02 223.25,-145.5 230.94,-146.87 238.88,-148.97 246.58,-151.41"/>
<polygon fill="black" stroke="black" points="245.24,-154.65 255.83,-154.57 247.5,-148.03 245.24,-154.65"/>
<text xml:space="preserve" text-anchor="middle" x="199.25" y="-148.7" font-family="Times New Roman,serif" font-size="14.00">uses</text>
</g>
<!-- Config -->
<g id="node6" class="node">
<title>Config</title>
<polygon fill="lightblue" stroke="black" points="357,-82.5 241.25,-82.5 241.25,-41.5 357,-41.5 357,-82.5"/>
<text xml:space="preserve" text-anchor="middle" x="299.12" y="-65.2" font-family="Times New Roman,serif" font-size="14.00">ConnectionConfig</text>
<text xml:space="preserve" text-anchor="middle" x="299.12" y="-48.7" font-family="Times New Roman,serif" font-size="14.00">LoginConfig</text>
</g>
<!-- Actions&#45;&gt;Config -->
<g id="edge2" class="edge">
<title>Actions&#45;&gt;Config</title>
<path fill="none" stroke="black" d="M130.29,-146.58C142.93,-142.26 155.88,-135.75 165.25,-126 175.13,-115.71 164.91,-105.33 175.25,-95.5 190.06,-81.43 210.18,-73.15 229.85,-68.31"/>
<polygon fill="black" stroke="black" points="230.5,-71.76 239.54,-66.23 229.02,-64.91 230.5,-71.76"/>
<text xml:space="preserve" text-anchor="middle" x="199.25" y="-98.7" font-family="Times New Roman,serif" font-size="14.00">reads</text>
</g>
<!-- Actions&#45;&gt;Retry -->
<g id="edge3" class="edge">
<title>Actions&#45;&gt;Retry</title>
<path fill="none" stroke="black" d="M130.33,-159.34C164.39,-163.53 208.71,-170.8 223.25,-181.5 230.78,-187.04 226.32,-193.73 233.25,-200 238.78,-205 245.38,-209.15 252.2,-212.58"/>
<polygon fill="black" stroke="black" points="250.34,-215.58 260.9,-216.47 253.2,-209.19 250.34,-215.58"/>
<text xml:space="preserve" text-anchor="middle" x="199.25" y="-184.7" font-family="Times New Roman,serif" font-size="14.00">modifies</text>
</g>
<!-- DB -->
<g id="node8" class="node">
<title>DB</title>
<polygon fill="lightblue" stroke="black" points="344.25,-137 254,-137 254,-101 344.25,-101 344.25,-137"/>
<text xml:space="preserve" text-anchor="middle" x="299.12" y="-113.95" font-family="Times New Roman,serif" font-size="14.00">SERDatabase</text>
</g>
<!-- Actions&#45;&gt;DB -->
<g id="edge4" class="edge">
<title>Actions&#45;&gt;DB</title>
<path fill="none" stroke="black" d="M130.12,-139.69C141.58,-135.41 153.94,-130.65 165.25,-126 169.76,-124.15 170.5,-122.57 175.25,-121.5 196.76,-116.65 220.94,-115.31 242.11,-115.44"/>
<polygon fill="black" stroke="black" points="241.96,-118.93 252.02,-115.62 242.08,-111.94 241.96,-118.93"/>
<text xml:space="preserve" text-anchor="middle" x="199.25" y="-124.7" font-family="Times New Roman,serif" font-size="14.00">stores</text>
</g>
</g>
</svg>
</svg>

<style type='text/css'>
<![CDATA[
[data-mouse-over-selected='false'] { opacity: 0.7; }
[data-mouse-over-selected='true']  { opacity: 1.0; }
]]>
</style>
<script type="application/ecmascript"><![CDATA[
document.addEventListener('DOMContentLoaded', (event) => {
  highlightEdges();
  highlightAdjacentNodes();
});
]]></script>
</svg>
