<?xml version="1.0" encoding="UTF-8" standalone="no"?>
<!DOCTYPE svg PUBLIC "-//W3C//DTD SVG 1.1//EN"
 "http://www.w3.org/Graphics/SVG/1.1/DTD/svg11.dtd">
<!-- Generated by graphviz version 14.1.2 (20260124.0452)
 -->
<!-- Title: PollFlow Pages: 1 -->
<svg width="334pt" height="44pt"
 viewBox="0.00 0.00 334.00 44.00" xmlns="http://www.w3.org/2000/svg" xmlns:xlink="http://www.w3.org/1999/xlink">

<svg id="main" version="1.1" xmlns="http://www.w3.org/2000/svg" xmlns:xlink="http://www.w3.org/1999/xlink" xml:space="preserve">

<style type="text/css"><![CDATA[
.node, .edge {opacity: 0.7;}
.node.selected, .edge.selected {opacity: 1;}
.edge:hover path { stroke: red; }
.edge:hover polygon { stroke: red; fill: red; }
]]></style>
<script type="application/ecmascript" xlink:href="svg.min.js"/>
<svg id="graph" class="graph">
<g id="graph0" class="graph" transform="scale(1 1) rotate(0) translate(4 40)">
<title>PollFlow</title>
<polygon fill="white" stroke="none" points="-4,4 -4,-40 329.5,-40 329.5,4 -4,4"/>
<!-- SER -->
<g id="node1" class="node">
<title>SER</title>
<polygon fill="none" stroke="black" points="71.5,-36 0,-36 0,0 71.5,0 71.5,-36"/>
<text xml:space="preserve" text-anchor="middle" x="35.75" y="-12.95" font-family="Times New Roman,serif" font-size="14.00">Send SER</text>
</g>
<!-- Parse -->
<g id="node2" class="node">
<title>Parse</title>
<polygon fill="none" stroke="black" points="208.25,-36 107.5,-36 107.5,0 208.25,0 208.25,-36"/>
<text xml:space="preserve" text-anchor="middle" x="157.88" y="-12.95" font-family="Times New Roman,serif" font-size="14.00">Parse Response</text>
</g>
<!-- SER&#45;&gt;Parse -->
<g id="edge1" class="edge">
<title>SER&#45;&gt;Parse</title>
<path fill="none" stroke="black" d="M71.82,-18C79.44,-18 87.71,-18 96,-18"/>
<polygon fill="black" stroke="black" points="95.74,-21.5 105.74,-18 95.74,-14.5 95.74,-21.5"/>
</g>
<!-- Store -->
<g id="node3" class="node">
<title>Store</title>
<polygon fill="none" stroke="black" points="325.5,-36 244.25,-36 244.25,0 325.5,0 325.5,-36"/>
<text xml:space="preserve" text-anchor="middle" x="284.88" y="-12.95" font-family="Times New Roman,serif" font-size="14.00">Store in DB</text>
</g>
<!-- Parse&#45;&gt;Store -->
<g id="edge2" class="edge">
<title>Parse&#45;&gt;Store</title>
<path fill="none" stroke="black" d="M208.64,-18C216.51,-18 224.65,-18 232.56,-18"/>
<polygon fill="black" stroke="black" points="232.38,-21.5 242.38,-18 232.38,-14.5 232.38,-21.5"/>
</g>
</g>
</svg>
</svg>

<style type='text/css'>
<![CDATA[
[data-mouse-over-selected='false'] { opacity: 0.7; }
[data-mouse-over-selected='true']  { opacity: 1.0; }
]]>
</style>
<script type="application/ecmascript"><![CDATA[
document.addEventListener('DOMContentLoaded', (event) => {
  highlightEdges();
  highlightAdjacentNodes();
});
]]></script>
</svg>
