<?xml version="1.0" encoding="UTF-8" standalone="no"?>
<!DOCTYPE svg PUBLIC "-//W3C//DTD SVG 1.1//EN"
 "http://www.w3.org/Graphics/SVG/1.1/DTD/svg11.dtd">
<!-- Generated by graphviz version 14.1.2 (20260124.0452)
 -->
<!-- Title: DBWriter Pages: 1 -->
<svg width="443pt" height="44pt"
 viewBox="0.00 0.00 443.00 44.00" xmlns="http://www.w3.org/2000/svg" xmlns:xlink="http://www.w3.org/1999/xlink">
<g id="graph0" class="graph" transform="scale(1 1) rotate(0) translate(4 40)">
<title>DBWriter</title>
<polygon fill="white" stroke="none" points="-4,4 -4,-40 439,-40 439,4 -4,4"/>
<!-- Queue -->
<g id="node1" class="node">
<title>Queue</title>
<polygon fill="lightyellow" stroke="black" points="85.75,-36 0,-36 0,0 85.75,0 85.75,-36"/>
<text xml:space="preserve" text-anchor="middle" x="42.88" y="-12.95" font-family="Times New Roman,serif" font-size="14.00">Write Queue</text>
</g>
<!-- Thread -->
<g id="node2" class="node">
<title>Thread</title>
<polygon fill="lightblue" stroke="black" points="243.5,-36 151,-36 151,0 243.5,0 243.5,-36"/>
<text xml:space="preserve" text-anchor="middle" x="197.25" y="-12.95" font-family="Times New Roman,serif" font-size="14.00">Writer Thread</text>
</g>
<!-- Queue&#45;&gt;Thread -->
<g id="edge1" class="edge">
<title>Queue&#45;&gt;Thread</title>
<path fill="none" stroke="black" d="M85.92,-18C102.39,-18 121.55,-18 139.24,-18"/>
<polygon fill="black" stroke="black" points="139.09,-21.5 149.09,-18 139.09,-14.5 139.09,-21.5"/>
<text xml:space="preserve" text-anchor="middle" x="118.38" y="-21.2" font-family="Times New Roman,serif" font-size="14.00">pop()</text>
</g>
<!-- DB -->
<g id="node3" class="node">
<title>DB</title>
<path fill="lightgreen" stroke="black" d="M435,-32.73C435,-34.53 417.63,-36 396.25,-36 374.87,-36 357.5,-34.53 357.5,-32.73 357.5,-32.73 357.5,-3.27 357.5,-3.27 357.5,-1.47 374.87,0 396.25,0 417.63,0 435,-1.47 435,-3.27 435,-3.27 435,-32.73 435,-32.73"/>
<path fill="none" stroke="black" d="M435,-32.73C435,-30.92 417.63,-29.45 396.25,-29.45 374.87,-29.45 357.5,-30.92 357.5,-32.73"/>
<text xml:space="preserve" text-anchor="middle" x="396.25" y="-12.95" font-family="Times New Roman,serif" font-size="14.00">SQLite DB</text>
</g>
<!-- Thread&#45;&gt;DB -->
<g id="edge2" class="edge">
<title>Thread&#45;&gt;DB</title>
<path fill="none" stroke="black" d="M243.94,-18C274.38,-18 314.37,-18 345.59,-18"/>
<polygon fill="black" stroke="black" points="345.58,-21.5 355.58,-18 345.58,-14.5 345.58,-21.5"/>
<text xml:space="preserve" text-anchor="middle" x="300.5" y="-21.2" font-family="Times New Roman,serif" font-size="14.00">insertRecord()</text>
</g>
</g>
</svg>
