<?xml version="1.0" encoding="UTF-8" standalone="no"?>
<!DOCTYPE svg PUBLIC "-//W3C//DTD SVG 1.1//EN"
 "http://www.w3.org/Graphics/SVG/1.1/DTD/svg11.dtd">
<!-- Generated by graphviz version 14.1.2 (20260124.0452)
 -->
<!-- Title: DataFlow Pages: 1 -->
<svg width="725pt" height="62pt"
 viewBox="0.00 0.00 725.00 62.00" xmlns="http://www.w3.org/2000/svg" xmlns:xlink="http://www.w3.org/1999/xlink">
<g id="graph0" class="graph" transform="scale(1 1) rotate(0) translate(4 57.5)">
<title>DataFlow</title>
<polygon fill="white" stroke="none" points="-4,4 -4,-57.5 720.9,-57.5 720.9,4 -4,4"/>
<!-- Relay -->
<g id="node1" class="node">
<title>Relay</title>
<ellipse fill="lightblue" stroke="black" cx="61.08" cy="-20.5" rx="61.08" ry="18"/>
<text xml:space="preserve" text-anchor="middle" x="61.08" y="-15.45" font-family="Times New Roman,serif" font-size="14.00">Relay Device</text>
</g>
<!-- Telnet -->
<g id="node2" class="node">
<title>Telnet</title>
<polygon fill="lightyellow" stroke="black" points="265.65,-41 182.9,-41 182.9,0 265.65,0 265.65,-41"/>
<text xml:space="preserve" text-anchor="middle" x="224.28" y="-23.7" font-family="Times New Roman,serif" font-size="14.00">TelnetClient</text>
<text xml:space="preserve" text-anchor="middle" x="224.28" y="-7.2" font-family="Times New Roman,serif" font-size="14.00">(Reception)</text>
</g>
<!-- Relay&#45;&gt;Telnet -->
<g id="edge1" class="edge">
<title>Relay&#45;&gt;Telnet</title>
<path fill="none" stroke="black" d="M122.56,-20.5C138.51,-20.5 155.58,-20.5 171.05,-20.5"/>
<polygon fill="black" stroke="black" points="171.01,-24 181.01,-20.5 171.01,-17 171.01,-24"/>
<text xml:space="preserve" text-anchor="middle" x="152.53" y="-23.7" font-family="Times New Roman,serif" font-size="14.00">TCP</text>
</g>
<!-- Ring -->
<g id="node3" class="node">
<title>Ring</title>
<polygon fill="lightgreen" stroke="black" points="510.4,-41 382.65,-41 382.65,0 510.4,0 510.4,-41"/>
<text xml:space="preserve" text-anchor="middle" x="446.53" y="-23.7" font-family="Times New Roman,serif" font-size="14.00">RawDataRingBuffer</text>
<text xml:space="preserve" text-anchor="middle" x="446.53" y="-7.2" font-family="Times New Roman,serif" font-size="14.00">(SPSC)</text>
</g>
<!-- Telnet&#45;&gt;Ring -->
<g id="edge2" class="edge">
<title>Telnet&#45;&gt;Ring</title>
<path fill="none" stroke="black" d="M265.93,-20.5C295.32,-20.5 335.86,-20.5 370.98,-20.5"/>
<polygon fill="black" stroke="black" points="370.66,-24 380.66,-20.5 370.66,-17 370.66,-24"/>
<text xml:space="preserve" text-anchor="middle" x="324.15" y="-40.2" font-family="Times New Roman,serif" font-size="14.00">push</text>
<text xml:space="preserve" text-anchor="middle" x="324.15" y="-23.7" font-family="Times New Roman,serif" font-size="14.00">(non&#45;blocking)</text>
</g>
<!-- FSM -->
<g id="node4" class="node">
<title>FSM</title>
<polygon fill="lightyellow" stroke="black" points="716.9,-41 629.65,-41 629.65,0 716.9,0 716.9,-41"/>
<text xml:space="preserve" text-anchor="middle" x="673.28" y="-23.7" font-family="Times New Roman,serif" font-size="14.00">FSM Worker</text>
<text xml:space="preserve" text-anchor="middle" x="673.28" y="-7.2" font-family="Times New Roman,serif" font-size="14.00">(Processing)</text>
</g>
<!-- Ring&#45;&gt;FSM -->
<g id="edge3" class="edge">
<title>Ring&#45;&gt;FSM</title>
<path fill="none" stroke="black" d="M510.73,-20.5C544.5,-20.5 585.64,-20.5 617.95,-20.5"/>
<polygon fill="black" stroke="black" points="617.91,-24 627.91,-20.5 617.91,-17 617.91,-24"/>
<text xml:space="preserve" text-anchor="middle" x="570.03" y="-40.2" font-family="Times New Roman,serif" font-size="14.00">pop</text>
<text xml:space="preserve" text-anchor="middle" x="570.03" y="-23.7" font-family="Times New Roman,serif" font-size="14.00">(blocking wait)</text>
</g>
</g>
</svg>
