<?xml version="1.0" encoding="UTF-8" standalone="no"?>
<!DOCTYPE svg PUBLIC "-//W3C//DTD SVG 1.1//EN"
 "http://www.w3.org/Graphics/SVG/1.1/DTD/svg11.dtd">
<!-- Generated by graphviz version 14.1.1 (20251213.1925)
 -->
<!-- Title: ClientState Pages: 1 -->
<svg width="356pt" height="154pt"
 viewBox="0.00 0.00 356.00 154.00" xmlns="http://www.w3.org/2000/svg" xmlns:xlink="http://www.w3.org/1999/xlink">
<g id="graph0" class="graph" transform="scale(1 1) rotate(0) translate(4 149.9)">
<title>ClientState</title>
<polygon fill="white" stroke="none" points="-4,4 -4,-149.9 351.98,-149.9 351.98,4 -4,4"/>
<!-- Disconnected -->
<g id="node1" class="node">
<title>Disconnected</title>
<ellipse fill="lightcoral" stroke="black" cx="61.08" cy="-61.08" rx="61.08" ry="61.08"/>
<text xml:space="preserve" text-anchor="middle" x="61.08" y="-56.03" font-family="Times New Roman,serif" font-size="14.00">Disconnected</text>
</g>
<!-- Connected -->
<g id="node2" class="node">
<title>Connected</title>
<ellipse fill="lightgreen" stroke="black" cx="293.98" cy="-61.08" rx="50.33" ry="50.33"/>
<text xml:space="preserve" text-anchor="middle" x="293.98" y="-56.03" font-family="Times New Roman,serif" font-size="14.00">Connected</text>
</g>
<!-- Disconnected&#45;&gt;Connected -->
<g id="edge1" class="edge">
<title>Disconnected&#45;&gt;Connected</title>
<path fill="none" stroke="black" d="M122.44,-61.08C156.3,-61.08 198.4,-61.08 232.31,-61.08"/>
<polygon fill="black" stroke="black" points="231.95,-64.58 241.95,-61.08 231.95,-57.58 231.95,-64.58"/>
<text xml:space="preserve" text-anchor="middle" x="182.9" y="-80.78" font-family="Times New Roman,serif" font-size="14.00">connectCheck()</text>
<text xml:space="preserve" text-anchor="middle" x="182.9" y="-64.28" font-family="Times New Roman,serif" font-size="14.00">success</text>
</g>
<!-- Connected&#45;&gt;Disconnected -->
<g id="edge2" class="edge">
<title>Connected&#45;&gt;Disconnected</title>
<path fill="none" stroke="black" d="M245.93,-44.84C239.2,-43.08 232.3,-41.57 225.65,-40.58 188.07,-34.98 177.84,-35.71 140.15,-40.58 137.19,-40.96 134.18,-41.42 131.16,-41.94"/>
<polygon fill="black" stroke="black" points="130.79,-38.45 121.65,-43.79 132.13,-45.32 130.79,-38.45"/>
<text xml:space="preserve" text-anchor="middle" x="182.9" y="-43.78" font-family="Times New Roman,serif" font-size="14.00">error/timeout</text>
</g>
<!-- Connected&#45;&gt;Connected -->
<g id="edge3" class="edge">
<title>Connected&#45;&gt;Connected</title>
<path fill="none" stroke="black" d="M273.31,-107.38C274.4,-119.89 281.29,-129.4 293.98,-129.4 302.51,-129.4 308.42,-125.11 311.71,-118.5"/>
<polygon fill="black" stroke="black" points="315.08,-119.41 314.26,-108.85 308.32,-117.61 315.08,-119.41"/>
<text xml:space="preserve" text-anchor="middle" x="293.98" y="-132.6" font-family="Times New Roman,serif" font-size="14.00">SendCmd()/Login()</text>
</g>
</g>
</svg>
