<?xml version="1.0" encoding="UTF-8" standalone="no"?>
<!DOCTYPE svg PUBLIC "-//W3C//DTD SVG 1.1//EN"
 "http://www.w3.org/Graphics/SVG/1.1/DTD/svg11.dtd">
<!-- Generated by graphviz version 14.1.2 (20260124.0452)
 -->
<!-- Title: Schema Pages: 1 -->
<svg width="399pt" height="237pt"
 viewBox="0.00 0.00 399.00 237.00" xmlns="http://www.w3.org/2000/svg" xmlns:xlink="http://www.w3.org/1999/xlink">
<g id="graph0" class="graph" transform="scale(1 1) rotate(0) translate(4 233)">
<title>Schema</title>
<polygon fill="white" stroke="none" points="-4,4 -4,-233 395.32,-233 395.32,4 -4,4"/>
<!-- ser_records -->
<g id="node1" class="node">
<title>ser_records</title>
<polygon fill="lightyellow" stroke="black" points="94.74,-72.5 94.74,-228.5 288.49,-228.5 288.49,-72.5 94.74,-72.5"/>
<text xml:space="preserve" text-anchor="middle" x="191.61" y="-211.2" font-family="Times New Roman,serif" font-size="14.00">ser_records</text>
<polyline fill="none" stroke="black" points="94.74,-204 288.49,-204"/>
<text xml:space="preserve" text-anchor="start" x="102.74" y="-186.7" font-family="Times New Roman,serif" font-size="14.00">id : INTEGER PRIMARY KEY</text>
<text xml:space="preserve" text-anchor="start" x="102.74" y="-170.2" font-family="Times New Roman,serif" font-size="14.00"> record_id : TEXT NOT NULL</text>
<text xml:space="preserve" text-anchor="start" x="102.74" y="-153.7" font-family="Times New Roman,serif" font-size="14.00"> timestamp : TEXT NOT NULL</text>
<text xml:space="preserve" text-anchor="start" x="102.74" y="-137.2" font-family="Times New Roman,serif" font-size="14.00"> status : TEXT NOT NULL</text>
<text xml:space="preserve" text-anchor="start" x="102.74" y="-120.7" font-family="Times New Roman,serif" font-size="14.00"> description : TEXT</text>
<text xml:space="preserve" text-anchor="start" x="102.74" y="-104.2" font-family="Times New Roman,serif" font-size="14.00"> created_at : DATETIME</text>
<polyline fill="none" stroke="black" points="94.74,-97 288.49,-97"/>
<text xml:space="preserve" text-anchor="start" x="102.74" y="-79.7" font-family="Times New Roman,serif" font-size="14.00">UNIQUE(record_id, timestamp)</text>
</g>
<!-- idx1 -->
<g id="node2" class="node">
<title>idx1</title>
<ellipse fill="lightblue" stroke="black" cx="62.61" cy="-18" rx="62.61" ry="18"/>
<text xml:space="preserve" text-anchor="middle" x="62.61" y="-12.95" font-family="Times New Roman,serif" font-size="14.00">idx_record_id</text>
</g>
<!-- ser_records&#45;&gt;idx1 -->
<g id="edge1" class="edge">
<title>ser_records&#45;&gt;idx1</title>
<path fill="none" stroke="black" d="M115.08,-72.08C104.93,-61.81 95.2,-51.97 86.93,-43.6"/>
<polygon fill="black" stroke="black" points="89.47,-41.19 79.95,-36.54 84.49,-46.11 89.47,-41.19"/>
</g>
<!-- idx2 -->
<g id="node3" class="node">
<title>idx2</title>
<ellipse fill="lightblue" stroke="black" cx="191.61" cy="-18" rx="48.28" ry="18"/>
<text xml:space="preserve" text-anchor="middle" x="191.61" y="-12.95" font-family="Times New Roman,serif" font-size="14.00">idx_status</text>
</g>
<!-- ser_records&#45;&gt;idx2 -->
<g id="edge2" class="edge">
<title>ser_records&#45;&gt;idx2</title>
<path fill="none" stroke="black" d="M191.61,-72.08C191.61,-63.5 191.61,-55.21 191.61,-47.84"/>
<polygon fill="black" stroke="black" points="195.11,-47.91 191.61,-37.91 188.11,-47.91 195.11,-47.91"/>
</g>
<!-- idx3 -->
<g id="node4" class="node">
<title>idx3</title>
<ellipse fill="lightblue" stroke="black" cx="324.61" cy="-18" rx="66.71" ry="18"/>
<text xml:space="preserve" text-anchor="middle" x="324.61" y="-12.95" font-family="Times New Roman,serif" font-size="14.00">idx_timestamp</text>
</g>
<!-- ser_records&#45;&gt;idx3 -->
<g id="edge3" class="edge">
<title>ser_records&#45;&gt;idx3</title>
<path fill="none" stroke="black" d="M270.52,-72.08C281.09,-61.71 291.23,-51.76 299.81,-43.34"/>
<polygon fill="black" stroke="black" points="302.07,-46.02 306.75,-36.52 297.16,-41.03 302.07,-46.02"/>
</g>
</g>
</svg>
