<?xml version="1.0" encoding="UTF-8" standalone="no"?>
<!DOCTYPE svg PUBLIC "-//W3C//DTD SVG 1.1//EN"
 "http://www.w3.org/Graphics/SVG/1.1/DTD/svg11.dtd">
<!-- Generated by graphviz version 14.1.2 (20260124.0452)
 -->
<!-- Title: ServerLifecycle Pages: 1 -->
<svg width="266pt" height="72pt"
 viewBox="0.00 0.00 266.00 72.00" xmlns="http://www.w3.org/2000/svg" xmlns:xlink="http://www.w3.org/1999/xlink">

<svg id="main" version="1.1" xmlns="http://www.w3.org/2000/svg" xmlns:xlink="http://www.w3.org/1999/xlink" xml:space="preserve">

<style type="text/css"><![CDATA[
.node, .edge {opacity: 0.7;}
.node.selected, .edge.selected {opacity: 1;}
.edge:hover path { stroke: red; }
.edge:hover polygon { stroke: red; fill: red; }
]]></style>
<script type="application/ecmascript" xlink:href="svg.min.js"/>
<svg id="graph" class="graph">
<g id="graph0" class="graph" transform="scale(1 1) rotate(0) translate(4 68.07)">
<title>ServerLifecycle</title>
<polygon fill="white" stroke="none" points="-4,4 -4,-68.07 261.53,-68.07 261.53,4 -4,4"/>
<!-- Stopped -->
<g id="node1" class="node">
<title>Stopped</title>
<ellipse fill="lightgray" stroke="black" cx="41.12" cy="-26.91" rx="41.12" ry="18"/>
<text xml:space="preserve" text-anchor="middle" x="41.12" y="-21.86" font-family="Times New Roman,serif" font-size="14.00">Stopped</text>
</g>
<!-- Running -->
<g id="node2" class="node">
<title>Running</title>
<ellipse fill="lightgreen" stroke="black" cx="214.88" cy="-26.91" rx="42.65" ry="18"/>
<text xml:space="preserve" text-anchor="middle" x="214.88" y="-21.86" font-family="Times New Roman,serif" font-size="14.00">Running</text>
</g>
<!-- Stopped&#45;&gt;Running -->
<g id="edge1" class="edge">
<title>Stopped&#45;&gt;Running</title>
<path fill="none" stroke="black" d="M73.38,-38.48C81.96,-41.13 91.35,-43.57 100.23,-44.91 123.96,-48.5 130.49,-48.41 154.23,-44.91 159.57,-44.12 165.09,-42.96 170.52,-41.6"/>
<polygon fill="black" stroke="black" points="171.29,-45.01 180,-38.98 169.43,-38.27 171.29,-45.01"/>
<text xml:space="preserve" text-anchor="middle" x="127.23" y="-50.77" font-family="Times New Roman,serif" font-size="14.00">start()</text>
</g>
<!-- Running&#45;&gt;Stopped -->
<g id="edge2" class="edge">
<title>Running&#45;&gt;Stopped</title>
<path fill="none" stroke="black" d="M172.17,-24.94C166.15,-24.72 160.03,-24.53 154.23,-24.41 130.24,-23.91 124.22,-23.89 100.23,-24.41 98.16,-24.46 96.05,-24.51 93.92,-24.57"/>
<polygon fill="black" stroke="black" points="93.83,-21.07 83.95,-24.9 94.06,-28.07 93.83,-21.07"/>
<text xml:space="preserve" text-anchor="middle" x="127.23" y="-27.61" font-family="Times New Roman,serif" font-size="14.00">stop()</text>
</g>
<!-- Running&#45;&gt;Stopped -->
<g id="edge3" class="edge">
<title>Running&#45;&gt;Stopped</title>
<path fill="none" stroke="black" d="M185.71,-13.31C175.97,-9.29 164.84,-5.42 154.23,-3.41 130.65,1.07 123.79,1.17 100.23,-3.41 93.36,-4.75 86.27,-6.9 79.51,-9.36"/>
<polygon fill="black" stroke="black" points="78.65,-5.94 70.64,-12.88 81.23,-12.45 78.65,-5.94"/>
<text xml:space="preserve" text-anchor="middle" x="127.23" y="-6.61" font-family="Times New Roman,serif" font-size="14.00">destructor</text>
</g>
</g>
</svg>
</svg>

<style type='text/css'>
<![CDATA[
[data-mouse-over-selected='false'] { opacity: 0.7; }
[data-mouse-over-selected='true']  { opacity: 1.0; }
]]>
</style>
<script type="application/ecmascript"><![CDATA[
document.addEventListener('DOMContentLoaded', (event) => {
  highlightEdges();
  highlightAdjacentNodes();
});
]]></script>
</svg>
