<?xml version="1.0" encoding="UTF-8" standalone="no"?>
<!DOCTYPE svg PUBLIC "-//W3C//DTD SVG 1.1//EN"
 "http://www.w3.org/Graphics/SVG/1.1/DTD/svg11.dtd">
<!-- Generated by graphviz version 14.1.2 (20260124.0452)
 -->
<!-- Title: Graphical Class Hierarchy Pages: 1 -->
<svg width="244pt" height="66pt"
 viewBox="0.00 0.00 244.00 66.00" xmlns="http://www.w3.org/2000/svg" xmlns:xlink="http://www.w3.org/1999/xlink">
<g id="graph0" class="graph" transform="scale(1 1) rotate(0) translate(4 62)">
<title>Graphical Class Hierarchy</title>
<!-- Node0 -->
<g id="Node000000" class="node">
<title>Node0</title>
<g id="a_Node000000"><a xlink:title=" ">
<polygon fill="#e0e0e0" stroke="#999999" points="98.5,-45 0,-45 0,-13 98.5,-13 98.5,-45"/>
<text xml:space="preserve" text-anchor="start" x="8" y="-31.5" font-family="Helvetica,sans-Serif" font-size="10.00">std::enable_shared</text>
<text xml:space="preserve" text-anchor="middle" x="49.25" y="-19.5" font-family="Helvetica,sans-Serif" font-size="10.00">_from_this</text>
</a>
</g>
</g>
<!-- Node1 -->
<g id="Node000001" class="node">
<title>Node1</title>
<g id="a_Node000001"><a xlink:href="class_web_socket_listener.html" target="_top" xlink:title="Listens for and accepts incoming WebSocket connections.">
<polygon fill="white" stroke="#666666" points="235.62,-58 134.88,-58 134.88,-38 235.62,-38 235.62,-58"/>
<text xml:space="preserve" text-anchor="middle" x="185.25" y="-44.5" font-family="Helvetica,sans-Serif" font-size="10.00">WebSocketListener</text>
</a>
</g>
</g>
<!-- Node0&#45;&gt;Node1 -->
<g id="edge1_Node000000_Node000001" class="edge">
<title>Node0&#45;&gt;Node1</title>
<g id="a_edge1_Node000000_Node000001"><a xlink:title=" ">
<path fill="none" stroke="#63b8ff" d="M109.78,-37.44C118.07,-38.62 126.51,-39.81 134.59,-40.96"/>
<polygon fill="#63b8ff" stroke="#63b8ff" points="110.52,-34.01 100.13,-36.07 109.54,-40.94 110.52,-34.01"/>
</a>
</g>
</g>
<!-- Node2 -->
<g id="Node000002" class="node">
<title>Node2</title>
<g id="a_Node000002"><a xlink:href="class_web_socket_session.html" target="_top" xlink:title="Handles a single WebSocket client connection.">
<polygon fill="white" stroke="#666666" points="236,-20 134.5,-20 134.5,0 236,0 236,-20"/>
<text xml:space="preserve" text-anchor="middle" x="185.25" y="-6.5" font-family="Helvetica,sans-Serif" font-size="10.00">WebSocketSession</text>
</a>
</g>
</g>
<!-- Node0&#45;&gt;Node2 -->
<g id="edge2_Node000000_Node000002" class="edge">
<title>Node0&#45;&gt;Node2</title>
<g id="a_edge2_Node000000_Node000002"><a xlink:title=" ">
<path fill="none" stroke="#63b8ff" d="M109.92,-20.54C118.01,-19.39 126.24,-18.23 134.14,-17.11"/>
<polygon fill="#63b8ff" stroke="#63b8ff" points="109.54,-17.06 100.13,-21.93 110.52,-23.99 109.54,-17.06"/>
</a>
</g>
</g>
</g>
</svg>
