<?xml version="1.0" encoding="UTF-8" standalone="no"?>
<!DOCTYPE svg PUBLIC "-//W3C//DTD SVG 1.1//EN"
 "http://www.w3.org/Graphics/SVG/1.1/DTD/svg11.dtd">
<!-- Generated by graphviz version 14.1.2 (20260124.0452)
 -->
<!-- Title: main.cpp Pages: 1 -->
<svg width="209pt" height="140pt"
 viewBox="0.00 0.00 209.00 140.00" xmlns="http://www.w3.org/2000/svg" xmlns:xlink="http://www.w3.org/1999/xlink">
<g id="graph0" class="graph" transform="scale(1 1) rotate(0) translate(4 136)">
<title>main.cpp</title>
<!-- Node1 -->
<g id="Node000001" class="node">
<title>Node1</title>
<g id="a_Node000001"><a xlink:title="Main entry point for Telnet&#45;SML Substation Monitoring System.">
<polygon fill="#999999" stroke="#666666" points="101.62,-132 45.88,-132 45.88,-112 101.62,-112 101.62,-132"/>
<text xml:space="preserve" text-anchor="middle" x="73.75" y="-118.5" font-family="Helvetica,sans-Serif" font-size="10.00">main.cpp</text>
</a>
</g>
</g>
<!-- Node2 -->
<g id="Node000002" class="node">
<title>Node2</title>
<g id="a_Node000002"><a xlink:title=" ">
<polygon fill="#e0e0e0" stroke="#999999" points="53.5,-76 0,-76 0,-56 53.5,-56 53.5,-76"/>
<text xml:space="preserve" text-anchor="middle" x="26.75" y="-62.5" font-family="Helvetica,sans-Serif" font-size="10.00">iostream</text>
</a>
</g>
</g>
<!-- Node1&#45;&gt;Node2 -->
<g id="edge1_Node000001_Node000002" class="edge">
<title>Node1&#45;&gt;Node2</title>
<g id="a_edge1_Node000001_Node000002"><a xlink:title=" ">
<path fill="none" stroke="#63b8ff" d="M65.56,-111.59C59.16,-104.24 50.07,-93.8 42.3,-84.87"/>
<polygon fill="#63b8ff" stroke="#63b8ff" points="45.04,-82.69 35.84,-77.44 39.76,-87.28 45.04,-82.69"/>
</a>
</g>
</g>
<!-- Node3 -->
<g id="Node000003" class="node">
<title>Node3</title>
<g id="a_Node000003"><a xlink:href="telnet__sml__app_8hpp.html" target="_top" xlink:title="Telnet&#45;SML application facade (public API).">
<polygon fill="white" stroke="#666666" points="172.12,-76 71.38,-76 71.38,-56 172.12,-56 172.12,-76"/>
<text xml:space="preserve" text-anchor="middle" x="121.75" y="-62.5" font-family="Helvetica,sans-Serif" font-size="10.00">telnet_sml_app.hpp</text>
</a>
</g>
</g>
<!-- Node1&#45;&gt;Node3 -->
<g id="edge2_Node000001_Node000003" class="edge">
<title>Node1&#45;&gt;Node3</title>
<g id="a_edge2_Node000001_Node000003"><a xlink:title=" ">
<path fill="none" stroke="#63b8ff" d="M82.11,-111.59C88.65,-104.24 97.93,-93.8 105.87,-84.87"/>
<polygon fill="#63b8ff" stroke="#63b8ff" points="108.45,-87.23 112.48,-77.43 103.22,-82.58 108.45,-87.23"/>
</a>
</g>
</g>
<!-- Node4 -->
<g id="Node000004" class="node">
<title>Node4</title>
<g id="a_Node000004"><a xlink:title=" ">
<polygon fill="#e0e0e0" stroke="#999999" points="106.38,-20 55.12,-20 55.12,0 106.38,0 106.38,-20"/>
<text xml:space="preserve" text-anchor="middle" x="80.75" y="-6.5" font-family="Helvetica,sans-Serif" font-size="10.00">memory</text>
</a>
</g>
</g>
<!-- Node3&#45;&gt;Node4 -->
<g id="edge3_Node000003_Node000004" class="edge">
<title>Node3&#45;&gt;Node4</title>
<g id="a_edge3_Node000003_Node000004"><a xlink:title=" ">
<path fill="none" stroke="#63b8ff" d="M114.61,-55.59C109.14,-48.39 101.43,-38.23 94.74,-29.43"/>
<polygon fill="#63b8ff" stroke="#63b8ff" points="97.56,-27.35 88.73,-21.5 91.98,-31.58 97.56,-27.35"/>
</a>
</g>
</g>
<!-- Node5 -->
<g id="Node000005" class="node">
<title>Node5</title>
<g id="a_Node000005"><a xlink:href="dll__export_8hpp.html" target="_top" xlink:title="DLL Export/Import Macros for Windows.">
<polygon fill="white" stroke="#666666" points="201.12,-20 124.38,-20 124.38,0 201.12,0 201.12,-20"/>
<text xml:space="preserve" text-anchor="middle" x="162.75" y="-6.5" font-family="Helvetica,sans-Serif" font-size="10.00">dll_export.hpp</text>
</a>
</g>
</g>
<!-- Node3&#45;&gt;Node5 -->
<g id="edge4_Node000003_Node000005" class="edge">
<title>Node3&#45;&gt;Node5</title>
<g id="a_edge4_Node000003_Node000005"><a xlink:title=" ">
<path fill="none" stroke="#63b8ff" d="M128.89,-55.59C134.36,-48.39 142.07,-38.23 148.76,-29.43"/>
<polygon fill="#63b8ff" stroke="#63b8ff" points="151.52,-31.58 154.77,-21.5 145.94,-27.35 151.52,-31.58"/>
</a>
</g>
</g>
</g>
</svg>
