<!DOCTYPE svg PUBLIC "-//W3C//DTD SVG 1.1//EN"
 "http://www.w3.org/Graphics/SVG/1.1/DTD/svg11.dtd">
<svg version="1.1"
 width="600px" height="274px"
 viewBox="0 0 600 274"
 xmlns="http://www.w3.org/2000/svg" shape-rendering="crispEdges"
 stroke-width="1" text-rendering="geometricPrecision">
<polygon fill="white" points="76,7 122,7 122,16 76,16"/>
<text x="100" y="16" textLength="44" font-family="Helvetica" font-size="12" fill="black" text-anchor="middle">

Browser
</text>
<polygon fill="white" points="277,7 321,7 321,16 277,16"/>
<text x="300" y="16" textLength="43" font-family="Helvetica" font-size="12" fill="black" text-anchor="middle">

Session
</text>
<polygon fill="white" points="473,7 525,7 525,16 473,16"/>
<text x="500" y="16" textLength="51" font-family="Helvetica" font-size="12" fill="black" text-anchor="middle">

Database
</text>
<line x1="100" y1="22" x2="100" y2="50" stroke="black"/>
<line x1="300" y1="22" x2="300" y2="50" stroke="black"/>
<line x1="500" y1="22" x2="500" y2="50" stroke="black"/>
<line x1="100" y1="33" x2="300" y2="33" stroke="black"/>
<line x1="300" y1="33" x2="290" y2="39" stroke="black"/>
<polygon fill="white" points="177,23 221,23 221,32 177,32"/>
<text x="178" y="32" textLength="42" font-family="Helvetica" font-size="12" fill="black">
connect
</text>
<line x1="100" y1="50" x2="100" y2="78" stroke="black"/>
<line x1="300" y1="50" x2="300" y2="78" stroke="black"/>
<line x1="500" y1="50" x2="500" y2="78" stroke="black"/>
<line x1="300" y1="61" x2="500" y2="61" stroke="black"/>
<line x1="500" y1="61" x2="490" y2="67" stroke="black"/>
<polygon fill="white" points="357,51 442,51 442,60 357,60"/>
<text x="358" y="60" textLength="83" font-family="Helvetica" font-size="12" fill="black">
getAllRecords()
</text>
<line x1="100" y1="78" x2="100" y2="106" stroke="black"/>
<line x1="300" y1="78" x2="300" y2="106" stroke="black"/>
<line x1="500" y1="78" x2="500" y2="106" stroke="black"/>
<line x1="500" y1="89" x2="300" y2="89" stroke="black"/>
<line x1="300" y1="89" x2="310" y2="95" stroke="black"/>
<polygon fill="white" points="378,79 420,79 420,88 378,88"/>
<text x="379" y="88" textLength="40" font-family="Helvetica" font-size="12" fill="black">
records
</text>
<line x1="100" y1="106" x2="100" y2="134" stroke="black"/>
<line x1="300" y1="106" x2="300" y2="134" stroke="black"/>
<line x1="500" y1="106" x2="500" y2="134" stroke="black"/>
<line x1="300" y1="117" x2="100" y2="117" stroke="black"/>
<line x1="100" y1="117" x2="110" y2="123" stroke="black"/>
<polygon fill="white" points="154,107 244,107 244,116 154,116"/>
<text x="155" y="116" textLength="88" font-family="Helvetica" font-size="12" fill="black">
ASN.1 BER/TLV
</text>
<line x1="100" y1="134" x2="100" y2="162" stroke="black"/>
<line x1="300" y1="134" x2="300" y2="162" stroke="black"/>
<line x1="500" y1="134" x2="500" y2="162" stroke="black"/>
<line x1="100" y1="145" x2="300" y2="145" stroke="black"/>
<line x1="300" y1="145" x2="290" y2="151" stroke="black"/>
<polygon fill="white" points="175,135 223,135 223,144 175,144"/>
<text x="176" y="144" textLength="46" font-family="Helvetica" font-size="12" fill="black">
&quot;refresh&quot;
</text>
<line x1="100" y1="162" x2="100" y2="190" stroke="black"/>
<line x1="300" y1="162" x2="300" y2="190" stroke="black"/>
<line x1="500" y1="162" x2="500" y2="190" stroke="black"/>
<line x1="300" y1="173" x2="500" y2="173" stroke="black"/>
<line x1="500" y1="173" x2="490" y2="179" stroke="black"/>
<polygon fill="white" points="357,163 442,163 442,172 357,172"/>
<text x="358" y="172" textLength="83" font-family="Helvetica" font-size="12" fill="black">
getAllRecords()
</text>
<line x1="100" y1="190" x2="100" y2="218" stroke="black"/>
<line x1="300" y1="190" x2="300" y2="218" stroke="black"/>
<line x1="500" y1="190" x2="500" y2="218" stroke="black"/>
<line x1="500" y1="201" x2="300" y2="201" stroke="black"/>
<line x1="300" y1="201" x2="310" y2="207" stroke="black"/>
<polygon fill="white" points="378,191 420,191 420,200 378,200"/>
<text x="379" y="200" textLength="40" font-family="Helvetica" font-size="12" fill="black">
records
</text>
<line x1="100" y1="218" x2="100" y2="246" stroke="black"/>
<line x1="300" y1="218" x2="300" y2="246" stroke="black"/>
<line x1="500" y1="218" x2="500" y2="246" stroke="black"/>
<line x1="300" y1="229" x2="100" y2="229" stroke="black"/>
<line x1="100" y1="229" x2="110" y2="235" stroke="black"/>
<polygon fill="white" points="154,219 244,219 244,228 154,228"/>
<text x="155" y="228" textLength="88" font-family="Helvetica" font-size="12" fill="black">
ASN.1 BER/TLV
</text>
<line x1="100" y1="246" x2="100" y2="274" stroke="black"/>
<line x1="300" y1="246" x2="300" y2="274" stroke="black"/>
<line x1="500" y1="246" x2="500" y2="274" stroke="black"/>
<line x1="100" y1="257" x2="300" y2="257" stroke="black"/>
<line x1="300" y1="257" x2="290" y2="263" stroke="black"/>
<polygon fill="white" points="184,247 214,247 214,256 184,256"/>
<text x="185" y="256" textLength="28" font-family="Helvetica" font-size="12" fill="black">
close
</text>
<line x1="100" y1="268" x2="100" y2="274" stroke="black"/>
<line x1="300" y1="268" x2="300" y2="274" stroke="black"/>
<line x1="500" y1="268" x2="500" y2="274" stroke="black"/>
</svg>
