<!DOCTYPE svg PUBLIC "-//W3C//DTD SVG 1.1//EN"
 "http://www.w3.org/Graphics/SVG/1.1/DTD/svg11.dtd">
<svg version="1.1"
 width="600px" height="330px"
 viewBox="0 0 600 330"
 xmlns="http://www.w3.org/2000/svg" shape-rendering="crispEdges"
 stroke-width="1" text-rendering="geometricPrecision">
<polygon fill="white" points="86,7 112,7 112,16 86,16"/>
<text x="100" y="16" textLength="25" font-family="Helvetica" font-size="12" fill="black" text-anchor="middle">

User
</text>
<polygon fill="white" points="288,7 310,7 310,16 288,16"/>
<text x="300" y="16" textLength="21" font-family="Helvetica" font-size="12" fill="black" text-anchor="middle">

App
</text>
<polygon fill="white" points="487,7 511,7 511,16 487,16"/>
<text x="500" y="16" textLength="23" font-family="Helvetica" font-size="12" fill="black" text-anchor="middle">

Impl
</text>
<line x1="100" y1="22" x2="100" y2="50" stroke="black"/>
<line x1="300" y1="22" x2="300" y2="50" stroke="black"/>
<line x1="500" y1="22" x2="500" y2="50" stroke="black"/>
<line x1="100" y1="33" x2="300" y2="33" stroke="black"/>
<line x1="300" y1="33" x2="290" y2="39" stroke="black"/>
<polygon fill="white" points="182,23 217,23 217,32 182,32"/>
<text x="183" y="32" textLength="33" font-family="Helvetica" font-size="12" fill="black">
create
</text>
<line x1="100" y1="50" x2="100" y2="78" stroke="black"/>
<line x1="300" y1="50" x2="300" y2="78" stroke="black"/>
<line x1="500" y1="50" x2="500" y2="78" stroke="black"/>
<line x1="300" y1="61" x2="500" y2="61" stroke="black"/>
<line x1="500" y1="61" x2="490" y2="67" stroke="black"/>
<polygon fill="white" points="369,51 430,51 430,60 369,60"/>
<text x="370" y="60" textLength="59" font-family="Helvetica" font-size="12" fill="black">
create Impl
</text>
<line x1="100" y1="78" x2="100" y2="106" stroke="black"/>
<line x1="300" y1="78" x2="300" y2="106" stroke="black"/>
<line x1="500" y1="78" x2="500" y2="106" stroke="black"/>
<line x1="100" y1="89" x2="300" y2="89" stroke="black"/>
<line x1="300" y1="89" x2="290" y2="95" stroke="black"/>
<polygon fill="white" points="183,79 216,79 216,88 183,88"/>
<text x="184" y="88" textLength="31" font-family="Helvetica" font-size="12" fill="black">
start()
</text>
<line x1="100" y1="106" x2="100" y2="134" stroke="black"/>
<line x1="300" y1="106" x2="300" y2="134" stroke="black"/>
<line x1="500" y1="106" x2="500" y2="134" stroke="black"/>
<path d="M 500 111 A100,6 0 0,1 500,123" stroke="black" fill="none"/><line x1="500" y1="123" x2="510" y2="129" stroke="black"/>
<polygon fill="white" points="418,107 498,107 498,116 418,116"/>
<text x="419" y="116" textLength="78" font-family="Helvetica" font-size="12" fill="black">
spawn threads
</text>
<line x1="100" y1="134" x2="100" y2="162" stroke="black"/>
<line x1="300" y1="134" x2="300" y2="162" stroke="black"/>
<line x1="500" y1="134" x2="500" y2="162" stroke="black"/>
<line x1="300" y1="145" x2="100" y2="145" stroke="black"/>
<line x1="100" y1="145" x2="110" y2="151" stroke="black"/>
<polygon fill="white" points="188,135 211,135 211,144 188,144"/>
<text x="189" y="144" textLength="21" font-family="Helvetica" font-size="12" fill="black">
true
</text>
<line x1="100" y1="162" x2="100" y2="190" stroke="black"/>
<line x1="300" y1="162" x2="300" y2="190" stroke="black"/>
<line x1="500" y1="162" x2="500" y2="190" stroke="black"/>
<line x1="100" y1="173" x2="300" y2="173" stroke="black"/>
<line x1="300" y1="173" x2="290" y2="179" stroke="black"/>
<polygon fill="white" points="165,163 234,163 234,172 165,172"/>
<text x="166" y="172" textLength="67" font-family="Helvetica" font-size="12" fill="black">
waitForExit()
</text>
<line x1="100" y1="190" x2="100" y2="218" stroke="black"/>
<line x1="300" y1="190" x2="300" y2="218" stroke="black"/>
<line x1="500" y1="190" x2="500" y2="218" stroke="black"/>
<polygon fill="white" points="8,190 180,190 180,212 8,212"/>
<polygon fill="white" points="8,202 192,202 192,212 8,212"/>
<polygon fill="white" points="180,190 192,202 180,202"/>
<line x1="8" y1="190" x2="180" y2="190" stroke="black"/>
<line x1="8" y1="212" x2="192" y2="212" stroke="black"/>
<line x1="8" y1="190" x2="8" y2="212" stroke="black"/>
<line x1="192" y1="202" x2="192" y2="212" stroke="black"/>
<line x1="180" y1="190" x2="192" y2="202" stroke="black"/>
<line x1="180" y1="190" x2="180" y2="202" stroke="black"/>
<line x1="192" y1="202" x2="180" y2="202" stroke="black"/>
<polygon fill="white" points="68,197 130,197 130,206 68,206"/>
<text x="69" y="206" textLength="60" font-family="Helvetica" font-size="12" fill="black">
...running...
</text>
<line x1="100" y1="218" x2="100" y2="246" stroke="black"/>
<line x1="300" y1="218" x2="300" y2="246" stroke="black"/>
<line x1="500" y1="218" x2="500" y2="246" stroke="black"/>
<line x1="100" y1="229" x2="300" y2="229" stroke="black"/>
<line x1="300" y1="229" x2="290" y2="235" stroke="black"/>
<polygon fill="white" points="183,219 216,219 216,228 183,228"/>
<text x="184" y="228" textLength="31" font-family="Helvetica" font-size="12" fill="black">
stop()
</text>
<line x1="100" y1="246" x2="100" y2="274" stroke="black"/>
<line x1="300" y1="246" x2="300" y2="274" stroke="black"/>
<line x1="500" y1="246" x2="500" y2="274" stroke="black"/>
<path d="M 500 251 A100,6 0 0,1 500,263" stroke="black" fill="none"/><line x1="500" y1="263" x2="510" y2="269" stroke="black"/>
<polygon fill="white" points="434,247 498,247 498,256 434,256"/>
<text x="435" y="256" textLength="62" font-family="Helvetica" font-size="12" fill="black">
join threads
</text>
<line x1="100" y1="274" x2="100" y2="302" stroke="black"/>
<line x1="300" y1="274" x2="300" y2="302" stroke="black"/>
<line x1="500" y1="274" x2="500" y2="302" stroke="black"/>
<line x1="100" y1="285" x2="300" y2="285" stroke="black"/>
<line x1="300" y1="285" x2="290" y2="291" stroke="black"/>
<polygon fill="white" points="179,275 220,275 220,284 179,284"/>
<text x="180" y="284" textLength="39" font-family="Helvetica" font-size="12" fill="black">
destroy
</text>
<line x1="100" y1="302" x2="100" y2="330" stroke="black"/>
<line x1="300" y1="302" x2="300" y2="330" stroke="black"/>
<line x1="500" y1="302" x2="500" y2="330" stroke="black"/>
<line x1="300" y1="313" x2="500" y2="313" stroke="black"/>
<line x1="500" y1="313" x2="490" y2="319" stroke="black"/>
<polygon fill="white" points="366,303 433,303 433,312 366,312"/>
<text x="367" y="312" textLength="65" font-family="Helvetica" font-size="12" fill="black">
destroy Impl
</text>
<line x1="100" y1="324" x2="100" y2="330" stroke="black"/>
<line x1="300" y1="324" x2="300" y2="330" stroke="black"/>
<line x1="500" y1="324" x2="500" y2="330" stroke="black"/>
</svg>
