<!DOCTYPE svg PUBLIC "-//W3C//DTD SVG 1.1//EN"
 "http://www.w3.org/Graphics/SVG/1.1/DTD/svg11.dtd">
<svg version="1.1"
 width="600px" height="274px"
 viewBox="0 0 600 274"
 xmlns="http://www.w3.org/2000/svg" shape-rendering="crispEdges"
 stroke-width="1" text-rendering="geometricPrecision">
<polygon fill="white" points="83,7 115,7 115,16 83,16"/>
<text x="100" y="16" textLength="31" font-family="Helvetica" font-size="12" fill="black" text-anchor="middle">

Client
</text>
<polygon fill="white" points="280,7 318,7 318,16 280,16"/>
<text x="300" y="16" textLength="37" font-family="Helvetica" font-size="12" fill="black" text-anchor="middle">

Socket
</text>
<polygon fill="white" points="483,7 515,7 515,16 483,16"/>
<text x="500" y="16" textLength="31" font-family="Helvetica" font-size="12" fill="black" text-anchor="middle">

Relay
</text>
<line x1="100" y1="22" x2="100" y2="50" stroke="black"/>
<line x1="300" y1="22" x2="300" y2="50" stroke="black"/>
<line x1="500" y1="22" x2="500" y2="50" stroke="black"/>
<line x1="100" y1="33" x2="300" y2="33" stroke="black"/>
<line x1="300" y1="33" x2="290" y2="39" stroke="black"/>
<polygon fill="white" points="156,23 242,23 242,32 156,32"/>
<text x="157" y="32" textLength="84" font-family="Helvetica" font-size="12" fill="black">
connectCheck()
</text>
<line x1="100" y1="50" x2="100" y2="78" stroke="black"/>
<line x1="300" y1="50" x2="300" y2="78" stroke="black"/>
<line x1="500" y1="50" x2="500" y2="78" stroke="black"/>
<line x1="300" y1="61" x2="500" y2="61" stroke="black"/>
<line x1="500" y1="61" x2="490" y2="67" stroke="black"/>
<polygon fill="white" points="372,51 426,51 426,60 372,60"/>
<text x="373" y="60" textLength="52" font-family="Helvetica" font-size="12" fill="black">
TCP SYN
</text>
<line x1="100" y1="78" x2="100" y2="106" stroke="black"/>
<line x1="300" y1="78" x2="300" y2="106" stroke="black"/>
<line x1="500" y1="78" x2="500" y2="106" stroke="black"/>
<line x1="500" y1="89" x2="300" y2="89" stroke="black"/>
<line x1="300" y1="89" x2="310" y2="95" stroke="black"/>
<polygon fill="white" points="372,79 426,79 426,88 372,88"/>
<text x="373" y="88" textLength="52" font-family="Helvetica" font-size="12" fill="black">
TCP ACK
</text>
<line x1="100" y1="106" x2="100" y2="134" stroke="black"/>
<line x1="300" y1="106" x2="300" y2="134" stroke="black"/>
<line x1="500" y1="106" x2="500" y2="134" stroke="black"/>
<line x1="300" y1="117" x2="100" y2="117" stroke="black"/>
<line x1="100" y1="117" x2="110" y2="123" stroke="black"/>
<polygon fill="white" points="171,107 228,107 228,116 171,116"/>
<text x="172" y="116" textLength="55" font-family="Helvetica" font-size="12" fill="black">
connected
</text>
<line x1="100" y1="134" x2="100" y2="162" stroke="black"/>
<line x1="300" y1="134" x2="300" y2="162" stroke="black"/>
<line x1="500" y1="134" x2="500" y2="162" stroke="black"/>
<line x1="100" y1="145" x2="300" y2="145" stroke="black"/>
<line x1="300" y1="145" x2="290" y2="151" stroke="black"/>
<polygon fill="white" points="122,135 277,135 277,144 122,144"/>
<text x="123" y="144" textLength="153" font-family="Helvetica" font-size="12" fill="black">
SendCmdReceiveData(cmd)
</text>
<line x1="100" y1="162" x2="100" y2="190" stroke="black"/>
<line x1="300" y1="162" x2="300" y2="190" stroke="black"/>
<line x1="500" y1="162" x2="500" y2="190" stroke="black"/>
<line x1="300" y1="173" x2="500" y2="173" stroke="black"/>
<line x1="500" y1="173" x2="490" y2="179" stroke="black"/>
<polygon fill="white" points="364,163 434,163 434,172 364,172"/>
<text x="365" y="172" textLength="68" font-family="Helvetica" font-size="12" fill="black">
cmd + CRLF
</text>
<line x1="100" y1="190" x2="100" y2="218" stroke="black"/>
<line x1="300" y1="190" x2="300" y2="218" stroke="black"/>
<line x1="500" y1="190" x2="500" y2="218" stroke="black"/>
<line x1="500" y1="201" x2="300" y2="201" stroke="black"/>
<line x1="300" y1="201" x2="310" y2="207" stroke="black"/>
<polygon fill="white" points="360,191 438,191 438,200 360,200"/>
<text x="361" y="200" textLength="76" font-family="Helvetica" font-size="12" fill="black">
response data
</text>
<line x1="100" y1="218" x2="100" y2="246" stroke="black"/>
<line x1="300" y1="218" x2="300" y2="246" stroke="black"/>
<line x1="500" y1="218" x2="500" y2="246" stroke="black"/>
<line x1="300" y1="229" x2="100" y2="229" stroke="black"/>
<line x1="100" y1="229" x2="110" y2="235" stroke="black"/>
<polygon fill="white" points="183,219 216,219 216,228 183,228"/>
<text x="184" y="228" textLength="31" font-family="Helvetica" font-size="12" fill="black">
buffer
</text>
<line x1="100" y1="246" x2="100" y2="274" stroke="black"/>
<line x1="300" y1="246" x2="300" y2="274" stroke="black"/>
<line x1="500" y1="246" x2="500" y2="274" stroke="black"/>
<polygon fill="white" points="8,246 180,246 180,268 8,268"/>
<polygon fill="white" points="8,258 192,258 192,268 8,268"/>
<polygon fill="white" points="180,246 192,258 180,258"/>
<line x1="8" y1="246" x2="180" y2="246" stroke="black"/>
<line x1="8" y1="268" x2="192" y2="268" stroke="black"/>
<line x1="8" y1="246" x2="8" y2="268" stroke="black"/>
<line x1="192" y1="258" x2="192" y2="268" stroke="black"/>
<line x1="180" y1="246" x2="192" y2="258" stroke="black"/>
<line x1="180" y1="246" x2="180" y2="258" stroke="black"/>
<line x1="192" y1="258" x2="180" y2="258" stroke="black"/>
<polygon fill="white" points="61,253 138,253 138,262 61,262"/>
<text x="62" y="262" textLength="75" font-family="Helvetica" font-size="12" fill="black">
Check prompt
</text>
<line x1="100" y1="268" x2="100" y2="274" stroke="black"/>
<line x1="300" y1="268" x2="300" y2="274" stroke="black"/>
<line x1="500" y1="268" x2="500" y2="274" stroke="black"/>
</svg>
