<!DOCTYPE svg PUBLIC "-//W3C//DTD SVG 1.1//EN"
 "http://www.w3.org/Graphics/SVG/1.1/DTD/svg11.dtd">
<svg version="1.1"
 width="600px" height="470px"
 viewBox="0 0 600 470"
 xmlns="http://www.w3.org/2000/svg" shape-rendering="crispEdges"
 stroke-width="1" text-rendering="geometricPrecision">
<polygon fill="white" points="35,7 63,7 63,16 35,16"/>
<text x="50" y="16" textLength="26" font-family="Helvetica" font-size="12" fill="black" text-anchor="middle">

main
</text>
<polygon fill="white" points="136,7 162,7 162,16 136,16"/>
<text x="150" y="16" textLength="25" font-family="Helvetica" font-size="12" fill="black" text-anchor="middle">

FSM
</text>
<polygon fill="white" points="233,7 265,7 265,16 233,16"/>
<text x="250" y="16" textLength="31" font-family="Helvetica" font-size="12" fill="black" text-anchor="middle">

Client
</text>
<polygon fill="white" points="333,7 365,7 365,16 333,16"/>
<text x="350" y="16" textLength="31" font-family="Helvetica" font-size="12" fill="black" text-anchor="middle">

Relay
</text>
<polygon fill="white" points="423,7 475,7 475,16 423,16"/>
<text x="450" y="16" textLength="51" font-family="Helvetica" font-size="12" fill="black" text-anchor="middle">

Database
</text>
<polygon fill="white" points="518,7 580,7 580,16 518,16"/>
<text x="550" y="16" textLength="61" font-family="Helvetica" font-size="12" fill="black" text-anchor="middle">

WebSocket
</text>
<line x1="50" y1="22" x2="50" y2="50" stroke="black"/>
<line x1="150" y1="22" x2="150" y2="50" stroke="black"/>
<line x1="250" y1="22" x2="250" y2="50" stroke="black"/>
<line x1="350" y1="22" x2="350" y2="50" stroke="black"/>
<line x1="450" y1="22" x2="450" y2="50" stroke="black"/>
<line x1="550" y1="22" x2="550" y2="50" stroke="black"/>
<line x1="50" y1="33" x2="150" y2="33" stroke="black"/>
<line x1="150" y1="33" x2="140" y2="39" stroke="black"/>
<polygon fill="white" points="82,23 117,23 117,32 82,32"/>
<text x="83" y="32" textLength="33" font-family="Helvetica" font-size="12" fill="black">
create
</text>
<line x1="50" y1="50" x2="50" y2="78" stroke="black"/>
<line x1="150" y1="50" x2="150" y2="78" stroke="black"/>
<line x1="250" y1="50" x2="250" y2="78" stroke="black"/>
<line x1="350" y1="50" x2="350" y2="78" stroke="black"/>
<line x1="450" y1="50" x2="450" y2="78" stroke="black"/>
<line x1="550" y1="50" x2="550" y2="78" stroke="black"/>
<line x1="50" y1="61" x2="450" y2="61" stroke="black"/>
<line x1="450" y1="61" x2="440" y2="67" stroke="black"/>
<polygon fill="white" points="231,51 268,51 268,60 231,60"/>
<text x="232" y="60" textLength="35" font-family="Helvetica" font-size="12" fill="black">
open()
</text>
<line x1="50" y1="78" x2="50" y2="106" stroke="black"/>
<line x1="150" y1="78" x2="150" y2="106" stroke="black"/>
<line x1="250" y1="78" x2="250" y2="106" stroke="black"/>
<line x1="350" y1="78" x2="350" y2="106" stroke="black"/>
<line x1="450" y1="78" x2="450" y2="106" stroke="black"/>
<line x1="550" y1="78" x2="550" y2="106" stroke="black"/>
<line x1="50" y1="89" x2="550" y2="89" stroke="black"/>
<line x1="550" y1="89" x2="540" y2="95" stroke="black"/>
<polygon fill="white" points="283,79 316,79 316,88 283,88"/>
<text x="284" y="88" textLength="31" font-family="Helvetica" font-size="12" fill="black">
start()
</text>
<line x1="50" y1="106" x2="50" y2="134" stroke="black"/>
<line x1="150" y1="106" x2="150" y2="134" stroke="black"/>
<line x1="250" y1="106" x2="250" y2="134" stroke="black"/>
<line x1="350" y1="106" x2="350" y2="134" stroke="black"/>
<line x1="450" y1="106" x2="450" y2="134" stroke="black"/>
<line x1="550" y1="106" x2="550" y2="134" stroke="black"/>
<line x1="50" y1="117" x2="150" y2="117" stroke="black"/>
<line x1="150" y1="117" x2="140" y2="123" stroke="black"/>
<polygon fill="white" points="69,107 130,107 130,116 69,116"/>
<text x="70" y="116" textLength="59" font-family="Helvetica" font-size="12" fill="black">
start_event
</text>
<line x1="50" y1="134" x2="50" y2="162" stroke="black"/>
<line x1="150" y1="134" x2="150" y2="162" stroke="black"/>
<line x1="250" y1="134" x2="250" y2="162" stroke="black"/>
<line x1="350" y1="134" x2="350" y2="162" stroke="black"/>
<line x1="450" y1="134" x2="450" y2="162" stroke="black"/>
<line x1="550" y1="134" x2="550" y2="162" stroke="black"/>
<line x1="150" y1="145" x2="250" y2="145" stroke="black"/>
<line x1="250" y1="145" x2="240" y2="151" stroke="black"/>
<polygon fill="white" points="173,135 225,135 225,144 173,144"/>
<text x="174" y="144" textLength="50" font-family="Helvetica" font-size="12" fill="black">
connect()
</text>
<line x1="50" y1="162" x2="50" y2="190" stroke="black"/>
<line x1="150" y1="162" x2="150" y2="190" stroke="black"/>
<line x1="250" y1="162" x2="250" y2="190" stroke="black"/>
<line x1="350" y1="162" x2="350" y2="190" stroke="black"/>
<line x1="450" y1="162" x2="450" y2="190" stroke="black"/>
<line x1="550" y1="162" x2="550" y2="190" stroke="black"/>
<line x1="250" y1="173" x2="350" y2="173" stroke="black"/>
<line x1="350" y1="173" x2="340" y2="179" stroke="black"/>
<polygon fill="white" points="264,163 335,163 335,172 264,172"/>
<text x="265" y="172" textLength="69" font-family="Helvetica" font-size="12" fill="black">
TCP connect
</text>
<line x1="50" y1="190" x2="50" y2="218" stroke="black"/>
<line x1="150" y1="190" x2="150" y2="218" stroke="black"/>
<line x1="250" y1="190" x2="250" y2="218" stroke="black"/>
<line x1="350" y1="190" x2="350" y2="218" stroke="black"/>
<line x1="450" y1="190" x2="450" y2="218" stroke="black"/>
<line x1="550" y1="190" x2="550" y2="218" stroke="black"/>
<line x1="350" y1="201" x2="250" y2="201" stroke="black"/>
<line x1="250" y1="201" x2="260" y2="207" stroke="black"/>
<polygon fill="white" points="271,191 328,191 328,200 271,200"/>
<text x="272" y="200" textLength="55" font-family="Helvetica" font-size="12" fill="black">
connected
</text>
<line x1="50" y1="218" x2="50" y2="246" stroke="black"/>
<line x1="150" y1="218" x2="150" y2="246" stroke="black"/>
<line x1="250" y1="218" x2="250" y2="246" stroke="black"/>
<line x1="350" y1="218" x2="350" y2="246" stroke="black"/>
<line x1="450" y1="218" x2="450" y2="246" stroke="black"/>
<line x1="550" y1="218" x2="550" y2="246" stroke="black"/>
<line x1="150" y1="229" x2="250" y2="229" stroke="black"/>
<line x1="250" y1="229" x2="240" y2="235" stroke="black"/>
<polygon fill="white" points="182,219 217,219 217,228 182,228"/>
<text x="183" y="228" textLength="33" font-family="Helvetica" font-size="12" fill="black">
login()
</text>
<line x1="50" y1="246" x2="50" y2="274" stroke="black"/>
<line x1="150" y1="246" x2="150" y2="274" stroke="black"/>
<line x1="250" y1="246" x2="250" y2="274" stroke="black"/>
<line x1="350" y1="246" x2="350" y2="274" stroke="black"/>
<line x1="450" y1="246" x2="450" y2="274" stroke="black"/>
<line x1="550" y1="246" x2="550" y2="274" stroke="black"/>
<line x1="250" y1="257" x2="350" y2="257" stroke="black"/>
<line x1="350" y1="257" x2="340" y2="263" stroke="black"/>
<polygon fill="white" points="269,247 329,247 329,256 269,256"/>
<text x="270" y="256" textLength="58" font-family="Helvetica" font-size="12" fill="black">
credentials
</text>
<line x1="50" y1="274" x2="50" y2="302" stroke="black"/>
<line x1="150" y1="274" x2="150" y2="302" stroke="black"/>
<line x1="250" y1="274" x2="250" y2="302" stroke="black"/>
<line x1="350" y1="274" x2="350" y2="302" stroke="black"/>
<line x1="450" y1="274" x2="450" y2="302" stroke="black"/>
<line x1="550" y1="274" x2="550" y2="302" stroke="black"/>
<line x1="350" y1="285" x2="250" y2="285" stroke="black"/>
<line x1="250" y1="285" x2="260" y2="291" stroke="black"/>
<polygon fill="white" points="280,275 319,275 319,284 280,284"/>
<text x="281" y="284" textLength="37" font-family="Helvetica" font-size="12" fill="black">
prompt
</text>
<line x1="50" y1="302" x2="50" y2="330" stroke="black"/>
<line x1="150" y1="302" x2="150" y2="330" stroke="black"/>
<line x1="250" y1="302" x2="250" y2="330" stroke="black"/>
<line x1="350" y1="302" x2="350" y2="330" stroke="black"/>
<line x1="450" y1="302" x2="450" y2="330" stroke="black"/>
<line x1="550" y1="302" x2="550" y2="330" stroke="black"/>
<line x1="150" y1="313" x2="250" y2="313" stroke="black"/>
<line x1="250" y1="313" x2="240" y2="319" stroke="black"/>
<polygon fill="white" points="158,303 241,303 241,312 158,312"/>
<text x="159" y="312" textLength="81" font-family="Helvetica" font-size="12" fill="black">
SER command
</text>
<line x1="50" y1="330" x2="50" y2="358" stroke="black"/>
<line x1="150" y1="330" x2="150" y2="358" stroke="black"/>
<line x1="250" y1="330" x2="250" y2="358" stroke="black"/>
<line x1="350" y1="330" x2="350" y2="358" stroke="black"/>
<line x1="450" y1="330" x2="450" y2="358" stroke="black"/>
<line x1="550" y1="330" x2="550" y2="358" stroke="black"/>
<line x1="250" y1="341" x2="350" y2="341" stroke="black"/>
<line x1="350" y1="341" x2="340" y2="347" stroke="black"/>
<polygon fill="white" points="286,331 313,331 313,340 286,340"/>
<text x="287" y="340" textLength="25" font-family="Helvetica" font-size="12" fill="black">
SER
</text>
<line x1="50" y1="358" x2="50" y2="386" stroke="black"/>
<line x1="150" y1="358" x2="150" y2="386" stroke="black"/>
<line x1="250" y1="358" x2="250" y2="386" stroke="black"/>
<line x1="350" y1="358" x2="350" y2="386" stroke="black"/>
<line x1="450" y1="358" x2="450" y2="386" stroke="black"/>
<line x1="550" y1="358" x2="550" y2="386" stroke="black"/>
<line x1="350" y1="369" x2="250" y2="369" stroke="black"/>
<line x1="250" y1="369" x2="260" y2="375" stroke="black"/>
<polygon fill="white" points="264,359 334,359 334,368 264,368"/>
<text x="265" y="368" textLength="68" font-family="Helvetica" font-size="12" fill="black">
SER records
</text>
<line x1="50" y1="386" x2="50" y2="414" stroke="black"/>
<line x1="150" y1="386" x2="150" y2="414" stroke="black"/>
<line x1="250" y1="386" x2="250" y2="414" stroke="black"/>
<line x1="350" y1="386" x2="350" y2="414" stroke="black"/>
<line x1="450" y1="386" x2="450" y2="414" stroke="black"/>
<line x1="550" y1="386" x2="550" y2="414" stroke="black"/>
<line x1="150" y1="397" x2="450" y2="397" stroke="black"/>
<line x1="450" y1="397" x2="440" y2="403" stroke="black"/>
<polygon fill="white" points="257,387 341,387 341,396 257,396"/>
<text x="258" y="396" textLength="82" font-family="Helvetica" font-size="12" fill="black">
insertRecords()
</text>
<line x1="50" y1="414" x2="50" y2="442" stroke="black"/>
<line x1="150" y1="414" x2="150" y2="442" stroke="black"/>
<line x1="250" y1="414" x2="250" y2="442" stroke="black"/>
<line x1="350" y1="414" x2="350" y2="442" stroke="black"/>
<line x1="450" y1="414" x2="450" y2="442" stroke="black"/>
<line x1="550" y1="414" x2="550" y2="442" stroke="black"/>
<line x1="550" y1="425" x2="250" y2="425" stroke="black"/>
<line x1="250" y1="425" x2="260" y2="431" stroke="black"/>
<polygon fill="white" points="377,415 421,415 421,424 377,424"/>
<text x="378" y="424" textLength="42" font-family="Helvetica" font-size="12" fill="black">
getData
</text>
<line x1="50" y1="442" x2="50" y2="470" stroke="black"/>
<line x1="150" y1="442" x2="150" y2="470" stroke="black"/>
<line x1="250" y1="442" x2="250" y2="470" stroke="black"/>
<line x1="350" y1="442" x2="350" y2="470" stroke="black"/>
<line x1="450" y1="442" x2="450" y2="470" stroke="black"/>
<line x1="550" y1="442" x2="550" y2="470" stroke="black"/>
<line x1="550" y1="453" x2="450" y2="453" stroke="black"/>
<line x1="450" y1="453" x2="460" y2="459" stroke="black"/>
<polygon fill="white" points="457,443 542,443 542,452 457,452"/>
<text x="458" y="452" textLength="83" font-family="Helvetica" font-size="12" fill="black">
getAllRecords()
</text>
<line x1="50" y1="464" x2="50" y2="470" stroke="black"/>
<line x1="150" y1="464" x2="150" y2="470" stroke="black"/>
<line x1="250" y1="464" x2="250" y2="470" stroke="black"/>
<line x1="350" y1="464" x2="350" y2="470" stroke="black"/>
<line x1="450" y1="464" x2="450" y2="470" stroke="black"/>
<line x1="550" y1="464" x2="550" y2="470" stroke="black"/>
</svg>
