<?xml version="1.0" encoding="UTF-8" standalone="no"?>
<!DOCTYPE svg PUBLIC "-//W3C//DTD SVG 1.1//EN"
 "http://www.w3.org/Graphics/SVG/1.1/DTD/svg11.dtd">
<!-- Generated by graphviz version 14.1.2 (20260124.0452)
 -->
<!-- Title: asn_tlv::berAppendString Pages: 1 -->
<!--zoomable 220 -->

<svg id="main" version="1.1" xmlns="http://www.w3.org/2000/svg" xmlns:xlink="http://www.w3.org/1999/xlink" xml:space="preserve" onload="init(evt)">

<style type="text/css"><![CDATA[
.node, .edge {opacity: 0.7;}
.node.selected, .edge.selected {opacity: 1;}
.edge:hover path { stroke: red; }
.edge:hover polygon { stroke: red; fill: red; }
]]></style>

<defs>
  <circle id="rim" cx="0" cy="0" r="7"/>
  <circle id="rim2" cx="0" cy="0" r="3.5"/>
  <g id="zoomPlus">
    <use xlink:href="#rim" fill="#404040"><set attributeName="fill" to="#808080" begin="zoomplus.mouseover" end="zoomplus.mouseout"/></use>
    <path d="M-4,0h8M0,-4v8" fill="none" stroke="white" stroke-width="1.5" pointer-events="none"/>
  </g>
  <g id="zoomMin">
    <use xlink:href="#rim" fill="#404040"><set attributeName="fill" to="#808080" begin="zoomminus.mouseover" end="zoomminus.mouseout"/></use>
    <path d="M-4,0h8" fill="none" stroke="white" stroke-width="1.5" pointer-events="none"/>
  </g>
  <g id="arrowUp" transform="translate(30 24)">
    <use xlink:href="#rim"/>
    <path pointer-events="none" fill="none" stroke="white" stroke-width="1.5" d="M0,-3.0v7 M-2.5,-0.5L0,-3.0L2.5,-0.5"/>
  </g>
  <g id="arrowRight" transform="rotate(90) translate(36 -43)">
    <use xlink:href="#rim"/>
    <path pointer-events="none" fill="none" stroke="white" stroke-width="1.5" d="M0,-3.0v7 M-2.5,-0.5L0,-3.0L2.5,-0.5"/>
  </g>
  <g id="arrowDown" transform="rotate(180) translate(-30 -48)">
    <use xlink:href="#rim"/>
    <path pointer-events="none" fill="none" stroke="white" stroke-width="1.5" d="M0,-3.0v7 M-2.5,-0.5L0,-3.0L2.5,-0.5"/>
  </g>
  <g id="arrowLeft" transform="rotate(270) translate(-36 17)">
    <use xlink:href="#rim"/>
    <path pointer-events="none" fill="none" stroke="white" stroke-width="1.5" d="M0,-3.0v7 M-2.5,-0.5L0,-3.0L2.5,-0.5"/>
  </g>
  <g id="resetDef">
    <use xlink:href="#rim2" fill="#404040"><set attributeName="fill" to="#808080" begin="reset.mouseover" end="reset.mouseout"/></use>
  </g>
</defs>
<script type="application/ecmascript">
var viewWidth = 1237;
var viewHeight = 220;
var sectionId = 'dynsection-2';
</script>
<script type="application/ecmascript" xlink:href="svg.min.js"/>
<svg id="graph" class="graph">
<g id="viewport">
<title>asn_tlv::berAppendString</title>
<!-- Node1 -->
<g id="Node000001" class="node">
<title>Node1</title>
<g id="a_Node000001"><a xlink:title="Append a string as a TLV structure.">
<polygon fill="#999999" stroke="#666666" points="1228.75,-168 1103.25,-168 1103.25,-148 1228.75,-148 1228.75,-168"/>
<text xml:space="preserve" text-anchor="middle" x="1166" y="-154.5" font-family="Helvetica,sans-Serif" font-size="10.00">asn_tlv::berAppendString</text>
</a>
</g>
</g>
<!-- Node2 -->
<g id="Node000002" class="node">
<title>Node2</title>
<g id="a_Node000002"><a xlink:href="namespaceasn__date.html#a27b4dc67aa0799ad11cb2d32d2183ded" target="_top" xlink:title="Encode a datetime string as ASN.1 BER TLV with Tag 33.">
<polygon fill="white" stroke="#666666" points="1066.12,-212 925.62,-212 925.62,-192 1066.12,-192 1066.12,-212"/>
<text xml:space="preserve" text-anchor="middle" x="995.88" y="-198.5" font-family="Helvetica,sans-Serif" font-size="10.00">asn_date::encodeASN1Date</text>
</a>
</g>
</g>
<!-- Node1&#45;&gt;Node2 -->
<g id="edge1_Node000001_Node000002" class="edge">
<title>Node1&#45;&gt;Node2</title>
<g id="a_edge1_Node000001_Node000002"><a xlink:title=" ">
<path fill="none" stroke="#63b8ff" d="M1114.12,-171.32C1089.3,-177.81 1059.88,-185.51 1036.72,-191.57"/>
<polygon fill="#63b8ff" stroke="#63b8ff" points="1114.9,-174.73 1123.69,-168.81 1113.13,-167.96 1114.9,-174.73"/>
</a>
</g>
</g>
<!-- Node4 -->
<g id="Node000004" class="node">
<title>Node4</title>
<g id="a_Node000004"><a xlink:href="namespaceasn__password.html#aeb64a1d95d10374e93a21d05ba30acfd" target="_top" xlink:title="Encode a password string as ASN.1 BER TLV with Tag 34.">
<polygon fill="white" stroke="#666666" points="1067.25,-174 924.5,-174 924.5,-142 1067.25,-142 1067.25,-174"/>
<text xml:space="preserve" text-anchor="start" x="932.5" y="-160.5" font-family="Helvetica,sans-Serif" font-size="10.00">asn_password::encodeASN1</text>
<text xml:space="preserve" text-anchor="middle" x="995.88" y="-148.5" font-family="Helvetica,sans-Serif" font-size="10.00">Password</text>
</a>
</g>
</g>
<!-- Node1&#45;&gt;Node4 -->
<g id="edge3_Node000001_Node000004" class="edge">
<title>Node1&#45;&gt;Node4</title>
<g id="a_edge3_Node000001_Node000004"><a xlink:title=" ">
<path fill="none" stroke="#63b8ff" d="M1091.39,-158C1083.47,-158 1075.42,-158 1067.54,-158"/>
<polygon fill="#63b8ff" stroke="#63b8ff" points="1091.36,-161.5 1101.36,-158 1091.36,-154.5 1091.36,-161.5"/>
</a>
</g>
</g>
<!-- Node7 -->
<g id="Node000007" class="node">
<title>Node7</title>
<g id="a_Node000007"><a xlink:href="namespaceasn__tlv.html#a03c61eaf7c30d4bb4e8f50d6cd2f5f03" target="_top" xlink:title="Encode SER records to ASN.1 BER/TLV format.">
<polygon fill="white" stroke="#666666" points="1064.25,-108 927.5,-108 927.5,-76 1064.25,-76 1064.25,-108"/>
<text xml:space="preserve" text-anchor="start" x="935.5" y="-94.5" font-family="Helvetica,sans-Serif" font-size="10.00">asn_tlv::encodeSerRecords</text>
<text xml:space="preserve" text-anchor="middle" x="995.88" y="-82.5" font-family="Helvetica,sans-Serif" font-size="10.00">ToTlv</text>
</a>
</g>
</g>
<!-- Node1&#45;&gt;Node7 -->
<g id="edge6_Node000001_Node000007" class="edge">
<title>Node1&#45;&gt;Node7</title>
<g id="a_edge6_Node000001_Node000007"><a xlink:title=" ">
<path fill="none" stroke="#63b8ff" d="M1127.68,-143.35C1101.36,-133.02 1066.07,-119.17 1038.79,-108.45"/>
<polygon fill="#63b8ff" stroke="#63b8ff" points="1126.36,-146.59 1136.95,-146.99 1128.92,-140.08 1126.36,-146.59"/>
</a>
</g>
</g>
<!-- Node3 -->
<g id="Node000003" class="node">
<title>Node3</title>
<g id="a_Node000003"><a xlink:href="class_relay_service.html#ab628ff2ff50e3bb41dcaca21c785f93d" target="_top" xlink:title="Send SETTIME command with the given datetime to the relay.">
<polygon fill="white" stroke="#666666" points="873.88,-212 725.12,-212 725.12,-192 873.88,-192 873.88,-212"/>
<text xml:space="preserve" text-anchor="middle" x="799.5" y="-198.5" font-family="Helvetica,sans-Serif" font-size="10.00">RelayService::syncRelayTime</text>
</a>
</g>
</g>
<!-- Node2&#45;&gt;Node3 -->
<g id="edge2_Node000002_Node000003" class="edge">
<title>Node2&#45;&gt;Node3</title>
<g id="a_edge2_Node000002_Node000003"><a xlink:title=" ">
<path fill="none" stroke="#63b8ff" d="M913.84,-202C900.71,-202 887.18,-202 874.24,-202"/>
<polygon fill="#63b8ff" stroke="#63b8ff" points="913.74,-205.5 923.74,-202 913.74,-198.5 913.74,-205.5"/>
</a>
</g>
</g>
<!-- Node5 -->
<g id="Node000005" class="node">
<title>Node5</title>
<g id="a_Node000005"><a xlink:href="class_password_manager.html#a0453a3ea3ba69ce8ce21794cde5503ba" target="_top" xlink:title="Change relay password for specified access level.">
<polygon fill="white" stroke="#666666" points="888.5,-171 710.5,-171 710.5,-151 888.5,-151 888.5,-171"/>
<text xml:space="preserve" text-anchor="middle" x="799.5" y="-157.5" font-family="Helvetica,sans-Serif" font-size="10.00">PasswordManager::changePassword</text>
</a>
</g>
</g>
<!-- Node4&#45;&gt;Node5 -->
<g id="edge4_Node000004_Node000005" class="edge">
<title>Node4&#45;&gt;Node5</title>
<g id="a_edge4_Node000004_Node000005"><a xlink:title=" ">
<path fill="none" stroke="#63b8ff" d="M912.68,-159.27C904.76,-159.39 896.71,-159.52 888.74,-159.64"/>
<polygon fill="#63b8ff" stroke="#63b8ff" points="912.69,-162.77 922.64,-159.11 912.59,-155.77 912.69,-162.77"/>
</a>
</g>
</g>
<!-- Node6 -->
<g id="Node000006" class="node">
<title>Node6</title>
<g id="a_Node000006"><a xlink:href="class_password_manager.html#aa1f1fd21060064488e7ed8bc8b41f61e" target="_top" xlink:title="Process a full JSON message for the &quot;change_password&quot; action.">
<polygon fill="white" stroke="#666666" points="674.5,-171 515.25,-171 515.25,-151 674.5,-151 674.5,-171"/>
<text xml:space="preserve" text-anchor="middle" x="594.88" y="-157.5" font-family="Helvetica,sans-Serif" font-size="10.00">PasswordManager::handleAction</text>
</a>
</g>
</g>
<!-- Node5&#45;&gt;Node6 -->
<g id="edge5_Node000005_Node000006" class="edge">
<title>Node5&#45;&gt;Node6</title>
<g id="a_edge5_Node000005_Node000006"><a xlink:title=" ">
<path fill="none" stroke="#63b8ff" d="M698.89,-161C690.86,-161 682.81,-161 674.95,-161"/>
<polygon fill="#63b8ff" stroke="#63b8ff" points="698.7,-164.5 708.7,-161 698.7,-157.5 698.7,-164.5"/>
</a>
</g>
</g>
<!-- Node8 -->
<g id="Node000008" class="node">
<title>Node8</title>
<g id="a_Node000008"><a xlink:href="class_s_e_r_web_socket_server.html#a969d54fda0937b5a1a3036cdefc4fed3" target="_top" xlink:title="Broadcast data to all connected clients (push model)">
<polygon fill="white" stroke="#666666" points="857,-133 742,-133 742,-101 857,-101 857,-133"/>
<text xml:space="preserve" text-anchor="start" x="750" y="-119.5" font-family="Helvetica,sans-Serif" font-size="10.00">SERWebSocketServer</text>
<text xml:space="preserve" text-anchor="middle" x="799.5" y="-107.5" font-family="Helvetica,sans-Serif" font-size="10.00">::broadcast</text>
</a>
</g>
</g>
<!-- Node7&#45;&gt;Node8 -->
<g id="edge7_Node000007_Node000008" class="edge">
<title>Node7&#45;&gt;Node8</title>
<g id="a_edge7_Node000007_Node000008"><a xlink:title=" ">
<path fill="none" stroke="#63b8ff" d="M915.78,-102.17C896.2,-104.69 875.61,-107.34 857.33,-109.69"/>
<polygon fill="#63b8ff" stroke="#63b8ff" points="916.19,-105.65 925.66,-100.9 915.3,-98.71 916.19,-105.65"/>
</a>
</g>
</g>
<!-- Node9 -->
<g id="Node000009" class="node">
<title>Node9</title>
<g id="a_Node000009"><a xlink:href="struct_poll_ser_action.html#a80290394273450b8c46083cc224c529f" target="_top" xlink:title="Execute SER polling and storage.">
<polygon fill="white" stroke="#666666" points="860.75,-83 738.25,-83 738.25,-63 860.75,-63 860.75,-83"/>
<text xml:space="preserve" text-anchor="middle" x="799.5" y="-69.5" font-family="Helvetica,sans-Serif" font-size="10.00">PollSerAction::operator()</text>
</a>
</g>
</g>
<!-- Node7&#45;&gt;Node9 -->
<g id="edge8_Node000007_Node000009" class="edge">
<title>Node7&#45;&gt;Node9</title>
<g id="a_edge8_Node000007_Node000009"><a xlink:title=" ">
<path fill="none" stroke="#63b8ff" d="M915.93,-84.28C897.66,-82.5 878.5,-80.62 861.15,-78.93"/>
<polygon fill="#63b8ff" stroke="#63b8ff" points="915.37,-87.74 925.66,-85.23 916.05,-80.78 915.37,-87.74"/>
</a>
</g>
</g>
<!-- Node10 -->
<g id="Node000010" class="node">
<title>Node10</title>
<g id="a_Node000010"><a xlink:href="class_web_socket_session.html#a2529887f34770366fc2c225bd085edba" target="_top" xlink:title="Send current database records to client as JSON.">
<polygon fill="white" stroke="#666666" points="874.25,-45 724.75,-45 724.75,-25 874.25,-25 874.25,-45"/>
<text xml:space="preserve" text-anchor="middle" x="799.5" y="-31.5" font-family="Helvetica,sans-Serif" font-size="10.00">WebSocketSession::sendData</text>
</a>
</g>
</g>
<!-- Node7&#45;&gt;Node10 -->
<g id="edge9_Node000007_Node000010" class="edge">
<title>Node7&#45;&gt;Node10</title>
<g id="a_edge9_Node000007_Node000010"><a xlink:title=" ">
<path fill="none" stroke="#63b8ff" d="M942.51,-71.76C925.44,-65.58 906.3,-59.08 888.5,-54 877.53,-50.87 865.66,-47.98 854.29,-45.45"/>
<polygon fill="#63b8ff" stroke="#63b8ff" points="940.83,-74.87 951.42,-75.03 943.24,-68.3 940.83,-74.87"/>
</a>
</g>
</g>
<!-- Node11 -->
<g id="Node000011" class="node">
<title>Node11</title>
<g id="a_Node000011"><a xlink:href="class_web_socket_session.html#a7b82f2e9c71f6822c2d2f6dcc1a251c5" target="_top" xlink:title="Handle WebSocket handshake completion.">
<polygon fill="white" stroke="#666666" points="653.88,-95 535.88,-95 535.88,-63 653.88,-63 653.88,-95"/>
<text xml:space="preserve" text-anchor="start" x="543.88" y="-81.5" font-family="Helvetica,sans-Serif" font-size="10.00">WebSocketSession::on</text>
<text xml:space="preserve" text-anchor="middle" x="594.88" y="-69.5" font-family="Helvetica,sans-Serif" font-size="10.00">_accept</text>
</a>
</g>
</g>
<!-- Node10&#45;&gt;Node11 -->
<g id="edge10_Node000010_Node000011" class="edge">
<title>Node10&#45;&gt;Node11</title>
<g id="a_edge10_Node000010_Node000011"><a xlink:title=" ">
<path fill="none" stroke="#63b8ff" d="M739.03,-47.82C729.49,-49.88 719.72,-52 710.5,-54 692.19,-57.97 672.23,-62.32 654.18,-66.26"/>
<polygon fill="#63b8ff" stroke="#63b8ff" points="739.57,-51.29 748.6,-45.75 738.09,-44.45 739.57,-51.29"/>
</a>
</g>
</g>
<!-- Node13 -->
<g id="Node000013" class="node">
<title>Node13</title>
<g id="a_Node000013"><a xlink:href="class_web_socket_session.html#a6c0557f87f9f6050a8848237ace942bb" target="_top" xlink:title="Handle received client message.">
<polygon fill="white" stroke="#666666" points="665.88,-45 523.88,-45 523.88,-25 665.88,-25 665.88,-45"/>
<text xml:space="preserve" text-anchor="middle" x="594.88" y="-31.5" font-family="Helvetica,sans-Serif" font-size="10.00">WebSocketSession::on_read</text>
</a>
</g>
</g>
<!-- Node10&#45;&gt;Node13 -->
<g id="edge12_Node000010_Node000013" class="edge">
<title>Node10&#45;&gt;Node13</title>
<g id="a_edge12_Node000010_Node000013"><a xlink:title=" ">
<path fill="none" stroke="#63b8ff" d="M713.22,-35C697.6,-35 681.45,-35 666.31,-35"/>
<polygon fill="#63b8ff" stroke="#63b8ff" points="712.97,-38.5 722.97,-35 712.97,-31.5 712.97,-38.5"/>
</a>
</g>
</g>
<!-- Node12 -->
<g id="Node000012" class="node">
<title>Node12</title>
<g id="a_Node000012"><a xlink:href="class_web_socket_session.html#aa60a520432526e90b74fd97713469a56" target="_top" xlink:title="Start the session by accepting WebSocket handshake.">
<polygon fill="white" stroke="#666666" points="468.75,-89 347.75,-89 347.75,-69 468.75,-69 468.75,-89"/>
<text xml:space="preserve" text-anchor="middle" x="408.25" y="-75.5" font-family="Helvetica,sans-Serif" font-size="10.00">WebSocketSession::run</text>
</a>
</g>
</g>
<!-- Node11&#45;&gt;Node12 -->
<g id="edge11_Node000011_Node000012" class="edge">
<title>Node11&#45;&gt;Node12</title>
<g id="a_edge11_Node000011_Node000012"><a xlink:title=" ">
<path fill="none" stroke="#63b8ff" d="M524.09,-79C506.02,-79 486.71,-79 469.19,-79"/>
<polygon fill="#63b8ff" stroke="#63b8ff" points="523.94,-82.5 533.94,-79 523.94,-75.5 523.94,-82.5"/>
</a>
</g>
</g>
<!-- Node14 -->
<g id="Node000014" class="node">
<title>Node14</title>
<g id="a_Node000014"><a xlink:href="class_web_socket_session.html#a2bc079950c2e39e8ff745f0da57646ba" target="_top" xlink:title="Initiate async read for next client message.">
<polygon fill="white" stroke="#666666" points="479.25,-45 337.25,-45 337.25,-25 479.25,-25 479.25,-45"/>
<text xml:space="preserve" text-anchor="middle" x="408.25" y="-31.5" font-family="Helvetica,sans-Serif" font-size="10.00">WebSocketSession::do_read</text>
</a>
</g>
</g>
<!-- Node13&#45;&gt;Node14 -->
<g id="edge13_Node000013_Node000014" class="edge">
<title>Node13&#45;&gt;Node14</title>
<g id="a_edge13_Node000013_Node000014"><a xlink:title=" ">
<path fill="none" stroke="#63b8ff" d="M512.31,-28.29C501.43,-28.21 490.35,-28.25 479.69,-28.42"/>
<polygon fill="#63b8ff" stroke="#63b8ff" points="512,-31.79 522.04,-28.41 512.08,-24.79 512,-31.79"/>
</a>
</g>
</g>
<!-- Node14&#45;&gt;Node13 -->
<g id="edge14_Node000014_Node000013" class="edge">
<title>Node14&#45;&gt;Node13</title>
<g id="a_edge14_Node000014_Node000013"><a xlink:title=" ">
<path fill="none" stroke="#63b8ff" d="M490.93,-41.71C501.81,-41.79 512.89,-41.75 523.55,-41.58"/>
<polygon fill="#63b8ff" stroke="#63b8ff" points="491.24,-38.21 481.2,-41.6 491.16,-45.21 491.24,-38.21"/>
</a>
</g>
</g>
<!-- Node15 -->
<g id="Node000015" class="node">
<title>Node15</title>
<g id="a_Node000015"><a xlink:href="class_web_socket_session.html#a0fed81151d5dcbe23dbee79f1bf12c66" target="_top" xlink:title="Handle write completion.">
<polygon fill="white" stroke="#666666" points="301.25,-32 183.25,-32 183.25,0 301.25,0 301.25,-32"/>
<text xml:space="preserve" text-anchor="start" x="191.25" y="-18.5" font-family="Helvetica,sans-Serif" font-size="10.00">WebSocketSession::on</text>
<text xml:space="preserve" text-anchor="middle" x="242.25" y="-6.5" font-family="Helvetica,sans-Serif" font-size="10.00">_write</text>
</a>
</g>
</g>
<!-- Node14&#45;&gt;Node15 -->
<g id="edge15_Node000014_Node000015" class="edge">
<title>Node14&#45;&gt;Node15</title>
<g id="a_edge15_Node000014_Node000015"><a xlink:title=" ">
<path fill="none" stroke="#63b8ff" d="M326.05,-25.59C317.84,-24.64 309.61,-23.69 301.7,-22.77"/>
<polygon fill="#63b8ff" stroke="#63b8ff" points="325.38,-29.04 335.72,-26.71 326.19,-22.09 325.38,-29.04"/>
</a>
</g>
</g>
<!-- Node15&#45;&gt;Node10 -->
<g id="edge16_Node000015_Node000010" class="edge">
<title>Node15&#45;&gt;Node10</title>
<g id="a_edge16_Node000015_Node000010"><a xlink:title=" ">
<path fill="none" stroke="#63b8ff" d="M312.96,-12.75C398.33,-9.52 547.28,-6.31 674.5,-16 696.76,-17.7 721.07,-21.08 742.23,-24.53"/>
<polygon fill="#63b8ff" stroke="#63b8ff" points="312.97,-9.25 303.11,-13.14 313.24,-16.24 312.97,-9.25"/>
</a>
</g>
</g>
<!-- Node16 -->
<g id="Node000016" class="node">
<title>Node16</title>
<g id="a_Node000016"><a xlink:href="class_web_socket_session.html#a6c789e228fc7a6101f1e586dc67ad8da" target="_top" xlink:title="Send a plain text response to this client (for FIL DIR etc.)">
<polygon fill="white" stroke="#666666" points="147.25,-32 0,-32 0,0 147.25,0 147.25,-32"/>
<text xml:space="preserve" text-anchor="start" x="8" y="-18.5" font-family="Helvetica,sans-Serif" font-size="10.00">WebSocketSession::sendText</text>
<text xml:space="preserve" text-anchor="middle" x="73.62" y="-6.5" font-family="Helvetica,sans-Serif" font-size="10.00">Response</text>
</a>
</g>
</g>
<!-- Node15&#45;&gt;Node16 -->
<g id="edge17_Node000015_Node000016" class="edge">
<title>Node15&#45;&gt;Node16</title>
<g id="a_edge17_Node000015_Node000016"><a xlink:title=" ">
<path fill="none" stroke="#63b8ff" d="M171.51,-16C163.58,-16 155.49,-16 147.52,-16"/>
<polygon fill="#63b8ff" stroke="#63b8ff" points="171.46,-19.5 181.46,-16 171.46,-12.5 171.46,-19.5"/>
</a>
</g>
</g>
</g>
</svg>

<g id="navigator" transform="translate(0 0)" fill="#404254">
  <rect fill="#f2f5e9" fill-opacity="0.5" stroke="#606060" stroke-width=".5" x="0" y="0" width="60" height="60"/>
  <use id="zoomplus" xlink:href="#zoomPlus" x="17" y="9" onmousedown="handleZoom(evt,'in')"/>
  <use id="zoomminus" xlink:href="#zoomMin" x="42" y="9" onmousedown="handleZoom(evt,'out')"/>
  <use id="reset" xlink:href="#resetDef" x="30" y="36" onmousedown="handleReset()"/>
   <use id="arrowup" xlink:href="#arrowUp" x="0" y="0" onmousedown="handlePan(0,-1)"/>
  <use id="arrowright" xlink:href="#arrowRight" x="0" y="0" onmousedown="handlePan(1,0)"/>
  <use id="arrowdown" xlink:href="#arrowDown" x="0" y="0" onmousedown="handlePan(0,1)"/>
  <use id="arrowleft" xlink:href="#arrowLeft" x="0" y="0" onmousedown="handlePan(-1,0)"/>
</g>
<svg viewBox="0 0 15 15" width="100%" height="30px" preserveAspectRatio="xMaxYMin meet">
 <g id="arrow_out" transform="scale(0.3 0.3)">
  <a xlink:href="namespaceasn__tlv_a0cc9af3d4e8aba5f164c66bb47750767_icgraph_org.svg" target="_base">
   <rect id="button" ry="5" rx="5" y="6" x="6" height="38" width="38"
        fill="#f2f5e9" fill-opacity="0.5" stroke="#606060" stroke-width="1.0"/>
   <path id="arrow"
     d="M 11.500037,31.436501 C 11.940474,20.09759 22.043105,11.32322 32.158766,21.979434 L 37.068811,17.246167 C 37.068811,17.246167 37.088388,32 37.088388,32 L 22.160133,31.978069 C 22.160133,31.978069 26.997745,27.140456 26.997745,27.140456 C 18.528582,18.264221 13.291696,25.230495 11.500037,31.436501 z"
     style="fill:#404040;"/>
  </a>
 </g>
</svg>

<style type='text/css'>
<![CDATA[
[data-mouse-over-selected='false'] { opacity: 0.7; }
[data-mouse-over-selected='true']  { opacity: 1.0; }
]]>
</style>
<script type="application/ecmascript"><![CDATA[
document.addEventListener('DOMContentLoaded', (event) => {
  highlightEdges();
  highlightAdjacentNodes();
});
]]></script>
</svg>
