<?xml version="1.0" encoding="UTF-8" standalone="no"?>
<!DOCTYPE svg PUBLIC "-//W3C//DTD SVG 1.1//EN"
 "http://www.w3.org/Graphics/SVG/1.1/DTD/svg11.dtd">
<!-- Generated by graphviz version 14.1.2 (20260124.0452)
 -->
<!-- Title: asn_password::encodeASN1Password Pages: 1 -->
<svg width="560pt" height="40pt"
 viewBox="0.00 0.00 560.00 40.00" xmlns="http://www.w3.org/2000/svg" xmlns:xlink="http://www.w3.org/1999/xlink">
<g id="graph0" class="graph" transform="scale(1 1) rotate(0) translate(4 36)">
<title>asn_password::encodeASN1Password</title>
<!-- Node1 -->
<g id="Node000001" class="node">
<title>Node1</title>
<g id="a_Node000001"><a xlink:title="Encode a password string as ASN.1 BER TLV with Tag 34.">
<polygon fill="#999999" stroke="#666666" points="552,-32 409.25,-32 409.25,0 552,0 552,-32"/>
<text xml:space="preserve" text-anchor="start" x="417.25" y="-18.5" font-family="Helvetica,sans-Serif" font-size="10.00">asn_password::encodeASN1</text>
<text xml:space="preserve" text-anchor="middle" x="480.62" y="-6.5" font-family="Helvetica,sans-Serif" font-size="10.00">Password</text>
</a>
</g>
</g>
<!-- Node2 -->
<g id="Node000002" class="node">
<title>Node2</title>
<g id="a_Node000002"><a xlink:href="class_password_manager.html#a0453a3ea3ba69ce8ce21794cde5503ba" target="_top" xlink:title="Change relay password for specified access level.">
<polygon fill="white" stroke="#666666" points="373.25,-26 195.25,-26 195.25,-6 373.25,-6 373.25,-26"/>
<text xml:space="preserve" text-anchor="middle" x="284.25" y="-12.5" font-family="Helvetica,sans-Serif" font-size="10.00">PasswordManager::changePassword</text>
</a>
</g>
</g>
<!-- Node1&#45;&gt;Node2 -->
<g id="edge1_Node000001_Node000002" class="edge">
<title>Node1&#45;&gt;Node2</title>
<g id="a_edge1_Node000001_Node000002"><a xlink:title=" ">
<path fill="none" stroke="#63b8ff" d="M397.43,-16C389.51,-16 381.46,-16 373.49,-16"/>
<polygon fill="#63b8ff" stroke="#63b8ff" points="397.39,-19.5 407.39,-16 397.39,-12.5 397.39,-19.5"/>
</a>
</g>
</g>
<!-- Node3 -->
<g id="Node000003" class="node">
<title>Node3</title>
<g id="a_Node000003"><a xlink:href="class_password_manager.html#aa1f1fd21060064488e7ed8bc8b41f61e" target="_top" xlink:title="Process a full JSON message for the &quot;change_password&quot; action.">
<polygon fill="white" stroke="#666666" points="159.25,-26 0,-26 0,-6 159.25,-6 159.25,-26"/>
<text xml:space="preserve" text-anchor="middle" x="79.62" y="-12.5" font-family="Helvetica,sans-Serif" font-size="10.00">PasswordManager::handleAction</text>
</a>
</g>
</g>
<!-- Node2&#45;&gt;Node3 -->
<g id="edge2_Node000002_Node000003" class="edge">
<title>Node2&#45;&gt;Node3</title>
<g id="a_edge2_Node000002_Node000003"><a xlink:title=" ">
<path fill="none" stroke="#63b8ff" d="M183.64,-16C175.61,-16 167.56,-16 159.7,-16"/>
<polygon fill="#63b8ff" stroke="#63b8ff" points="183.45,-19.5 193.45,-16 183.45,-12.5 183.45,-19.5"/>
</a>
</g>
</g>
</g>
</svg>
