<?xml version="1.0" encoding="UTF-8" standalone="no"?>
<!DOCTYPE svg PUBLIC "-//W3C//DTD SVG 1.1//EN"
 "http://www.w3.org/Graphics/SVG/1.1/DTD/svg11.dtd">
<!-- Generated by graphviz version 14.1.2 (20260124.0452)
 -->
<!-- Title: asn_password::encodeASN1Password Pages: 1 -->
<svg width="627pt" height="40pt"
 viewBox="0.00 0.00 627.00 40.00" xmlns="http://www.w3.org/2000/svg" xmlns:xlink="http://www.w3.org/1999/xlink">
<g id="graph0" class="graph" transform="scale(1 1) rotate(0) translate(4 36)">
<title>asn_password::encodeASN1Password</title>
<!-- Node1 -->
<g id="Node000001" class="node">
<title>Node1</title>
<g id="a_Node000001"><a xlink:title="Encode a password string as ASN.1 BER TLV with Tag 34.">
<polygon fill="#999999" stroke="#666666" points="142.75,-32 0,-32 0,0 142.75,0 142.75,-32"/>
<text xml:space="preserve" text-anchor="start" x="8" y="-18.5" font-family="Helvetica,sans-Serif" font-size="10.00">asn_password::encodeASN1</text>
<text xml:space="preserve" text-anchor="middle" x="71.38" y="-6.5" font-family="Helvetica,sans-Serif" font-size="10.00">Password</text>
</a>
</g>
</g>
<!-- Node2 -->
<g id="Node000002" class="node">
<title>Node2</title>
<g id="a_Node000002"><a xlink:href="namespaceasn__tlv.html#a0cc9af3d4e8aba5f164c66bb47750767" target="_top" xlink:title="Append a string as a TLV structure.">
<polygon fill="white" stroke="#666666" points="304.25,-26 178.75,-26 178.75,-6 304.25,-6 304.25,-26"/>
<text xml:space="preserve" text-anchor="middle" x="241.5" y="-12.5" font-family="Helvetica,sans-Serif" font-size="10.00">asn_tlv::berAppendString</text>
</a>
</g>
</g>
<!-- Node1&#45;&gt;Node2 -->
<g id="edge1_Node000001_Node000002" class="edge">
<title>Node1&#45;&gt;Node2</title>
<g id="a_edge1_Node000001_Node000002"><a xlink:title=" ">
<path fill="none" stroke="#63b8ff" d="M143.19,-16C151.03,-16 159.02,-16 166.89,-16"/>
<polygon fill="#63b8ff" stroke="#63b8ff" points="166.79,-19.5 176.79,-16 166.79,-12.5 166.79,-19.5"/>
</a>
</g>
</g>
<!-- Node3 -->
<g id="Node000003" class="node">
<title>Node3</title>
<g id="a_Node000003"><a xlink:href="namespaceasn__tlv.html#a4a9f3333d71c851f9002020ffd417b18" target="_top" xlink:title="Append a complete TLV structure to an output buffer.">
<polygon fill="white" stroke="#666666" points="453.75,-26 340.25,-26 340.25,-6 453.75,-6 453.75,-26"/>
<text xml:space="preserve" text-anchor="middle" x="397" y="-12.5" font-family="Helvetica,sans-Serif" font-size="10.00">asn_tlv::berAppendTlv</text>
</a>
</g>
</g>
<!-- Node2&#45;&gt;Node3 -->
<g id="edge2_Node000002_Node000003" class="edge">
<title>Node2&#45;&gt;Node3</title>
<g id="a_edge2_Node000002_Node000003"><a xlink:title=" ">
<path fill="none" stroke="#63b8ff" d="M304.49,-16C312.52,-16 320.78,-16 328.89,-16"/>
<polygon fill="#63b8ff" stroke="#63b8ff" points="328.7,-19.5 338.7,-16 328.7,-12.5 328.7,-19.5"/>
</a>
</g>
</g>
<!-- Node4 -->
<g id="Node000004" class="node">
<title>Node4</title>
<g id="a_Node000004"><a xlink:href="namespaceasn__tlv.html#af1ae5498c52c5e99d18f2cd5cb4f2609" target="_top" xlink:title="Append BER length encoding to an output buffer.">
<polygon fill="white" stroke="#666666" points="619,-26 489.75,-26 489.75,-6 619,-6 619,-26"/>
<text xml:space="preserve" text-anchor="middle" x="554.38" y="-12.5" font-family="Helvetica,sans-Serif" font-size="10.00">asn_tlv::berAppendLength</text>
</a>
</g>
</g>
<!-- Node3&#45;&gt;Node4 -->
<g id="edge3_Node000003_Node000004" class="edge">
<title>Node3&#45;&gt;Node4</title>
<g id="a_edge3_Node000003_Node000004"><a xlink:title=" ">
<path fill="none" stroke="#63b8ff" d="M454.09,-16C461.89,-16 470.01,-16 478.09,-16"/>
<polygon fill="#63b8ff" stroke="#63b8ff" points="477.94,-19.5 487.94,-16 477.94,-12.5 477.94,-19.5"/>
</a>
</g>
</g>
</g>
</svg>
