<?xml version="1.0" encoding="UTF-8" standalone="no"?>
<!DOCTYPE svg PUBLIC "-//W3C//DTD SVG 1.1//EN"
 "http://www.w3.org/Graphics/SVG/1.1/DTD/svg11.dtd">
<!-- Generated by graphviz version 14.1.1 (20251213.1925)
 -->
<!-- Title: asn_tlv::berAppendTlv Pages: 1 -->
<svg width="1386pt" height="387pt"
 viewBox="0.00 0.00 1386.00 387.00" xmlns="http://www.w3.org/2000/svg" xmlns:xlink="http://www.w3.org/1999/xlink">
<g id="graph0" class="graph" transform="scale(1 1) rotate(0) translate(4 382.55)">
<title>asn_tlv::berAppendTlv</title>
<!-- Node1 -->
<g id="Node000001" class="node">
<title>Node1</title>
<g id="a_Node000001"><a xlink:title="Append a complete TLV structure to an output buffer.">
<polygon fill="#999999" stroke="#666666" points="1378.25,-271.55 1264.75,-271.55 1264.75,-251.55 1378.25,-251.55 1378.25,-271.55"/>
<text xml:space="preserve" text-anchor="middle" x="1321.5" y="-258.05" font-family="Helvetica,sans-Serif" font-size="10.00">asn_tlv::berAppendTlv</text>
</a>
</g>
</g>
<!-- Node2 -->
<g id="Node000002" class="node">
<title>Node2</title>
<g id="a_Node000002"><a xlink:href="namespaceasn__tlv.html#a0cc9af3d4e8aba5f164c66bb47750767" target="_top" xlink:title="Append a string as a TLV structure.">
<polygon fill="white" stroke="#666666" points="1228.75,-293.55 1103.25,-293.55 1103.25,-273.55 1228.75,-273.55 1228.75,-293.55"/>
<text xml:space="preserve" text-anchor="middle" x="1166" y="-280.05" font-family="Helvetica,sans-Serif" font-size="10.00">asn_tlv::berAppendString</text>
</a>
</g>
</g>
<!-- Node1&#45;&gt;Node2 -->
<g id="edge1_Node000001_Node000002" class="edge">
<title>Node1&#45;&gt;Node2</title>
<g id="a_edge1_Node000001_Node000002"><a xlink:title=" ">
<path fill="none" stroke="#63b8ff" d="M1253.36,-271.17C1245.27,-272.33 1237.04,-273.51 1229.04,-274.65"/>
<polygon fill="#63b8ff" stroke="#63b8ff" points="1253.75,-274.65 1263.15,-269.76 1252.76,-267.72 1253.75,-274.65"/>
</a>
</g>
</g>
<!-- Node8 -->
<g id="Node000008" class="node">
<title>Node8</title>
<g id="a_Node000008"><a xlink:href="namespaceasn__tlv.html#a03c61eaf7c30d4bb4e8f50d6cd2f5f03" target="_top" xlink:title="Encode SER records to ASN.1 BER/TLV format.">
<polygon fill="white" stroke="#666666" points="1064.25,-252.55 927.5,-252.55 927.5,-220.55 1064.25,-220.55 1064.25,-252.55"/>
<text xml:space="preserve" text-anchor="start" x="935.5" y="-239.05" font-family="Helvetica,sans-Serif" font-size="10.00">asn_tlv::encodeSerRecords</text>
<text xml:space="preserve" text-anchor="middle" x="995.88" y="-227.05" font-family="Helvetica,sans-Serif" font-size="10.00">ToTlv</text>
</a>
</g>
</g>
<!-- Node1&#45;&gt;Node8 -->
<g id="edge27_Node000001_Node000008" class="edge">
<title>Node1&#45;&gt;Node8</title>
<g id="a_edge27_Node000001_Node000008"><a xlink:title=" ">
<path fill="none" stroke="#63b8ff" d="M1253.06,-256.34C1197.76,-252.06 1119.87,-246.05 1064.52,-241.77"/>
<polygon fill="#63b8ff" stroke="#63b8ff" points="1252.75,-259.82 1262.99,-257.1 1253.29,-252.84 1252.75,-259.82"/>
</a>
</g>
</g>
<!-- Node3 -->
<g id="Node000003" class="node">
<title>Node3</title>
<g id="a_Node000003"><a xlink:href="namespaceasn__date.html#a27b4dc67aa0799ad11cb2d32d2183ded" target="_top" xlink:title="Encode a datetime string as ASN.1 BER TLV with Tag 33.">
<polygon fill="white" stroke="#666666" points="1066.12,-368.55 925.62,-368.55 925.62,-348.55 1066.12,-348.55 1066.12,-368.55"/>
<text xml:space="preserve" text-anchor="middle" x="995.88" y="-355.05" font-family="Helvetica,sans-Serif" font-size="10.00">asn_date::encodeASN1Date</text>
</a>
</g>
</g>
<!-- Node2&#45;&gt;Node3 -->
<g id="edge2_Node000002_Node000003" class="edge">
<title>Node2&#45;&gt;Node3</title>
<g id="a_edge2_Node000002_Node000003"><a xlink:title=" ">
<path fill="none" stroke="#63b8ff" d="M1134.37,-298.95C1115.23,-308.4 1089.99,-320.57 1067.25,-330.55 1053.28,-336.67 1037.52,-343 1024.46,-348.08"/>
<polygon fill="#63b8ff" stroke="#63b8ff" points="1135.84,-302.12 1143.24,-294.54 1132.73,-295.86 1135.84,-302.12"/>
</a>
</g>
</g>
<!-- Node5 -->
<g id="Node000005" class="node">
<title>Node5</title>
<g id="a_Node000005"><a xlink:href="namespaceasn__password.html#aeb64a1d95d10374e93a21d05ba30acfd" target="_top" xlink:title="Encode a password string as ASN.1 BER TLV with Tag 34.">
<polygon fill="white" stroke="#666666" points="1067.25,-321.55 924.5,-321.55 924.5,-289.55 1067.25,-289.55 1067.25,-321.55"/>
<text xml:space="preserve" text-anchor="start" x="932.5" y="-308.05" font-family="Helvetica,sans-Serif" font-size="10.00">asn_password::encodeASN1</text>
<text xml:space="preserve" text-anchor="middle" x="995.88" y="-296.05" font-family="Helvetica,sans-Serif" font-size="10.00">Password</text>
</a>
</g>
</g>
<!-- Node2&#45;&gt;Node5 -->
<g id="edge4_Node000002_Node000005" class="edge">
<title>Node2&#45;&gt;Node5</title>
<g id="a_edge4_Node000002_Node000005"><a xlink:title=" ">
<path fill="none" stroke="#63b8ff" d="M1091.67,-293.14C1083.66,-294.19 1075.51,-295.26 1067.54,-296.3"/>
<polygon fill="#63b8ff" stroke="#63b8ff" points="1091.91,-296.64 1101.37,-291.87 1091,-289.7 1091.91,-296.64"/>
</a>
</g>
</g>
<!-- Node2&#45;&gt;Node8 -->
<g id="edge7_Node000002_Node000008" class="edge">
<title>Node2&#45;&gt;Node8</title>
<g id="a_edge7_Node000002_Node000008"><a xlink:title=" ">
<path fill="none" stroke="#63b8ff" d="M1116.61,-270.02C1097.66,-264.72 1075.74,-258.59 1055.88,-253.04"/>
<polygon fill="#63b8ff" stroke="#63b8ff" points="1115.66,-273.39 1126.23,-272.71 1117.54,-266.64 1115.66,-273.39"/>
</a>
</g>
</g>
<!-- Node4 -->
<g id="Node000004" class="node">
<title>Node4</title>
<g id="a_Node000004"><a xlink:href="class_relay_service.html#ab628ff2ff50e3bb41dcaca21c785f93d" target="_top" xlink:title="Send SETTIME command with the given datetime to the relay.">
<polygon fill="white" stroke="#666666" points="873.88,-378.55 725.12,-378.55 725.12,-358.55 873.88,-358.55 873.88,-378.55"/>
<text xml:space="preserve" text-anchor="middle" x="799.5" y="-365.05" font-family="Helvetica,sans-Serif" font-size="10.00">RelayService::syncRelayTime</text>
</a>
</g>
</g>
<!-- Node3&#45;&gt;Node4 -->
<g id="edge3_Node000003_Node000004" class="edge">
<title>Node3&#45;&gt;Node4</title>
<g id="a_edge3_Node000003_Node000004"><a xlink:title=" ">
<path fill="none" stroke="#63b8ff" d="M913.84,-362.71C900.71,-363.39 887.18,-364.09 874.24,-364.75"/>
<polygon fill="#63b8ff" stroke="#63b8ff" points="913.93,-366.21 923.74,-362.21 913.57,-359.22 913.93,-366.21"/>
</a>
</g>
</g>
<!-- Node6 -->
<g id="Node000006" class="node">
<title>Node6</title>
<g id="a_Node000006"><a xlink:href="class_password_manager.html#a0453a3ea3ba69ce8ce21794cde5503ba" target="_top" xlink:title="Change relay password for specified access level.">
<polygon fill="white" stroke="#666666" points="888.5,-340.55 710.5,-340.55 710.5,-320.55 888.5,-320.55 888.5,-340.55"/>
<text xml:space="preserve" text-anchor="middle" x="799.5" y="-327.05" font-family="Helvetica,sans-Serif" font-size="10.00">PasswordManager::changePassword</text>
</a>
</g>
</g>
<!-- Node5&#45;&gt;Node6 -->
<g id="edge5_Node000005_Node000006" class="edge">
<title>Node5&#45;&gt;Node6</title>
<g id="a_edge5_Node000005_Node000006"><a xlink:title=" ">
<path fill="none" stroke="#63b8ff" d="M912.79,-316.1C902.61,-317.41 892.21,-318.75 882.05,-320.06"/>
<polygon fill="#63b8ff" stroke="#63b8ff" points="913.18,-319.58 922.65,-314.83 912.29,-312.64 913.18,-319.58"/>
</a>
</g>
</g>
<!-- Node7 -->
<g id="Node000007" class="node">
<title>Node7</title>
<g id="a_Node000007"><a xlink:href="class_password_manager.html#aa1f1fd21060064488e7ed8bc8b41f61e" target="_top" xlink:title="Process a full JSON message for the &quot;change_password&quot; action.">
<polygon fill="white" stroke="#666666" points="674.5,-340.55 515.25,-340.55 515.25,-320.55 674.5,-320.55 674.5,-340.55"/>
<text xml:space="preserve" text-anchor="middle" x="594.88" y="-327.05" font-family="Helvetica,sans-Serif" font-size="10.00">PasswordManager::handleAction</text>
</a>
</g>
</g>
<!-- Node6&#45;&gt;Node7 -->
<g id="edge6_Node000006_Node000007" class="edge">
<title>Node6&#45;&gt;Node7</title>
<g id="a_edge6_Node000006_Node000007"><a xlink:title=" ">
<path fill="none" stroke="#63b8ff" d="M698.89,-330.55C690.86,-330.55 682.81,-330.55 674.95,-330.55"/>
<polygon fill="#63b8ff" stroke="#63b8ff" points="698.7,-334.05 708.7,-330.55 698.7,-327.05 698.7,-334.05"/>
</a>
</g>
</g>
<!-- Node9 -->
<g id="Node000009" class="node">
<title>Node9</title>
<g id="a_Node000009"><a xlink:href="class_s_e_r_web_socket_server.html#a969d54fda0937b5a1a3036cdefc4fed3" target="_top" xlink:title="Broadcast data to all connected clients (push model).">
<polygon fill="white" stroke="#666666" points="857,-302.55 742,-302.55 742,-270.55 857,-270.55 857,-302.55"/>
<text xml:space="preserve" text-anchor="start" x="750" y="-289.05" font-family="Helvetica,sans-Serif" font-size="10.00">SERWebSocketServer</text>
<text xml:space="preserve" text-anchor="middle" x="799.5" y="-277.05" font-family="Helvetica,sans-Serif" font-size="10.00">::broadcast</text>
</a>
</g>
</g>
<!-- Node8&#45;&gt;Node9 -->
<g id="edge8_Node000008_Node000009" class="edge">
<title>Node8&#45;&gt;Node9</title>
<g id="a_edge8_Node000008_Node000009"><a xlink:title=" ">
<path fill="none" stroke="#63b8ff" d="M919.9,-255.83C899.09,-261.19 876.84,-266.91 857.25,-271.95"/>
<polygon fill="#63b8ff" stroke="#63b8ff" points="920.68,-259.24 929.49,-253.36 918.94,-252.47 920.68,-259.24"/>
</a>
</g>
</g>
<!-- Node10 -->
<g id="Node000010" class="node">
<title>Node10</title>
<g id="a_Node000010"><a xlink:href="class_s_e_r_web_socket_server.html#abc886f3926f2d4bbde0e04100ac0b6ad" target="_top" xlink:title="Broadcast all SER records from the database to all clients.">
<polygon fill="white" stroke="#666666" points="857,-252.55 742,-252.55 742,-220.55 857,-220.55 857,-252.55"/>
<text xml:space="preserve" text-anchor="start" x="750" y="-239.05" font-family="Helvetica,sans-Serif" font-size="10.00">SERWebSocketServer</text>
<text xml:space="preserve" text-anchor="middle" x="799.5" y="-227.05" font-family="Helvetica,sans-Serif" font-size="10.00">::broadcastAll</text>
</a>
</g>
</g>
<!-- Node8&#45;&gt;Node10 -->
<g id="edge9_Node000008_Node000010" class="edge">
<title>Node8&#45;&gt;Node10</title>
<g id="a_edge9_Node000008_Node000010"><a xlink:title=" ">
<path fill="none" stroke="#63b8ff" d="M915.78,-236.55C896.2,-236.55 875.61,-236.55 857.33,-236.55"/>
<polygon fill="#63b8ff" stroke="#63b8ff" points="915.65,-240.05 925.65,-236.55 915.65,-233.05 915.65,-240.05"/>
</a>
</g>
</g>
<!-- Node11 -->
<g id="Node000011" class="node">
<title>Node11</title>
<g id="a_Node000011"><a xlink:href="struct_poll_ser_action.html#a80290394273450b8c46083cc224c529f" target="_top" xlink:title="Execute SER polling and storage.">
<polygon fill="white" stroke="#666666" points="860.75,-202.55 738.25,-202.55 738.25,-182.55 860.75,-182.55 860.75,-202.55"/>
<text xml:space="preserve" text-anchor="middle" x="799.5" y="-189.05" font-family="Helvetica,sans-Serif" font-size="10.00">PollSerAction::operator()</text>
</a>
</g>
</g>
<!-- Node8&#45;&gt;Node11 -->
<g id="edge10_Node000008_Node000011" class="edge">
<title>Node8&#45;&gt;Node11</title>
<g id="a_edge10_Node000008_Node000011"><a xlink:title=" ">
<path fill="none" stroke="#63b8ff" d="M915.9,-217.82C906.67,-215.68 897.38,-213.55 888.5,-211.55 876,-208.73 862.48,-205.76 849.87,-203.04"/>
<polygon fill="#63b8ff" stroke="#63b8ff" points="915.1,-221.22 925.63,-220.08 916.68,-214.41 915.1,-221.22"/>
</a>
</g>
</g>
<!-- Node12 -->
<g id="Node000012" class="node">
<title>Node12</title>
<g id="a_Node000012"><a xlink:href="class_pipeline_processing_worker.html#a4b7df7922a70ab4c8542b73118f0c864" target="_top" xlink:title=" ">
<polygon fill="white" stroke="#666666" points="864.5,-164.55 734.5,-164.55 734.5,-132.55 864.5,-132.55 864.5,-164.55"/>
<text xml:space="preserve" text-anchor="start" x="742.5" y="-151.05" font-family="Helvetica,sans-Serif" font-size="10.00">PipelineProcessingWorker</text>
<text xml:space="preserve" text-anchor="middle" x="799.5" y="-139.05" font-family="Helvetica,sans-Serif" font-size="10.00">::runLoop</text>
</a>
</g>
</g>
<!-- Node8&#45;&gt;Node12 -->
<g id="edge11_Node000008_Node000012" class="edge">
<title>Node8&#45;&gt;Node12</title>
<g id="a_edge11_Node000008_Node000012"><a xlink:title=" ">
<path fill="none" stroke="#63b8ff" d="M961.86,-213.98C941.43,-200.79 914.26,-184.61 888.5,-173.55 880.91,-170.29 872.78,-167.32 864.63,-164.66"/>
<polygon fill="#63b8ff" stroke="#63b8ff" points="959.77,-216.79 970.05,-219.35 963.6,-210.94 959.77,-216.79"/>
</a>
</g>
</g>
<!-- Node14 -->
<g id="Node000014" class="node">
<title>Node14</title>
<g id="a_Node000014"><a xlink:href="class_web_socket_session.html#a2529887f34770366fc2c225bd085edba" target="_top" xlink:title="Send current database records to client as ASN.1 BER/TLV.">
<polygon fill="white" stroke="#666666" points="874.25,-92.55 724.75,-92.55 724.75,-72.55 874.25,-72.55 874.25,-92.55"/>
<text xml:space="preserve" text-anchor="middle" x="799.5" y="-79.05" font-family="Helvetica,sans-Serif" font-size="10.00">WebSocketSession::sendData</text>
</a>
</g>
</g>
<!-- Node8&#45;&gt;Node14 -->
<g id="edge13_Node000008_Node000014" class="edge">
<title>Node8&#45;&gt;Node14</title>
<g id="a_edge13_Node000008_Node000014"><a xlink:title=" ">
<path fill="none" stroke="#63b8ff" d="M975.81,-211.26C956.1,-186.44 923.35,-148.73 888.5,-123.55 870.47,-110.51 847.64,-100.02 829.75,-92.91"/>
<polygon fill="#63b8ff" stroke="#63b8ff" points="972.86,-213.17 981.78,-218.9 978.38,-208.86 972.86,-213.17"/>
</a>
</g>
</g>
<!-- Node13 -->
<g id="Node000013" class="node">
<title>Node13</title>
<g id="a_Node000013"><a xlink:href="class_pipeline_processing_worker.html#ab0168acad7f6865fe4244c69c3046d32" target="_top" xlink:title="Start the processing worker: register a reader and launch its thread.">
<polygon fill="white" stroke="#666666" points="659.88,-186.55 529.88,-186.55 529.88,-154.55 659.88,-154.55 659.88,-186.55"/>
<text xml:space="preserve" text-anchor="start" x="537.88" y="-173.05" font-family="Helvetica,sans-Serif" font-size="10.00">PipelineProcessingWorker</text>
<text xml:space="preserve" text-anchor="middle" x="594.88" y="-161.05" font-family="Helvetica,sans-Serif" font-size="10.00">::start</text>
</a>
</g>
</g>
<!-- Node12&#45;&gt;Node13 -->
<g id="edge12_Node000012_Node000013" class="edge">
<title>Node12&#45;&gt;Node13</title>
<g id="a_edge12_Node000012_Node000013"><a xlink:title=" ">
<path fill="none" stroke="#63b8ff" d="M722.82,-156.76C702.19,-159 680.03,-161.41 660.1,-163.57"/>
<polygon fill="#63b8ff" stroke="#63b8ff" points="723.04,-160.26 732.61,-155.7 722.29,-153.3 723.04,-160.26"/>
</a>
</g>
</g>
<!-- Node15 -->
<g id="Node000015" class="node">
<title>Node15</title>
<g id="a_Node000015"><a xlink:href="class_web_socket_session.html#a124943db6c094918e372c94bfb7ec533" target="_top" xlink:title="Send the next queued message (if any).">
<polygon fill="white" stroke="#666666" points="673.38,-136.55 516.38,-136.55 516.38,-116.55 673.38,-116.55 673.38,-136.55"/>
<text xml:space="preserve" text-anchor="middle" x="594.88" y="-123.05" font-family="Helvetica,sans-Serif" font-size="10.00">WebSocketSession::drainQueue</text>
</a>
</g>
</g>
<!-- Node14&#45;&gt;Node15 -->
<g id="edge14_Node000014_Node000015" class="edge">
<title>Node14&#45;&gt;Node15</title>
<g id="a_edge14_Node000014_Node000015"><a xlink:title=" ">
<path fill="none" stroke="#63b8ff" d="M739.37,-95.39C709.09,-101.96 672.69,-109.86 644.13,-116.07"/>
<polygon fill="#63b8ff" stroke="#63b8ff" points="739.72,-98.89 748.74,-93.35 738.23,-92.05 739.72,-98.89"/>
</a>
</g>
</g>
<!-- Node20 -->
<g id="Node000020" class="node">
<title>Node20</title>
<g id="a_Node000020"><a xlink:href="class_web_socket_session.html#a7b82f2e9c71f6822c2d2f6dcc1a251c5" target="_top" xlink:title="Handle WebSocket handshake completion.">
<polygon fill="white" stroke="#666666" points="653.88,-98.55 535.88,-98.55 535.88,-66.55 653.88,-66.55 653.88,-98.55"/>
<text xml:space="preserve" text-anchor="start" x="543.88" y="-85.05" font-family="Helvetica,sans-Serif" font-size="10.00">WebSocketSession::on</text>
<text xml:space="preserve" text-anchor="middle" x="594.88" y="-73.05" font-family="Helvetica,sans-Serif" font-size="10.00">_accept</text>
</a>
</g>
</g>
<!-- Node14&#45;&gt;Node20 -->
<g id="edge21_Node000014_Node000020" class="edge">
<title>Node14&#45;&gt;Node20</title>
<g id="a_edge21_Node000014_Node000020"><a xlink:title=" ">
<path fill="none" stroke="#63b8ff" d="M713.22,-82.55C693.31,-82.55 672.56,-82.55 654.15,-82.55"/>
<polygon fill="#63b8ff" stroke="#63b8ff" points="712.97,-86.05 722.97,-82.55 712.97,-79.05 712.97,-86.05"/>
</a>
</g>
</g>
<!-- Node22 -->
<g id="Node000022" class="node">
<title>Node22</title>
<g id="a_Node000022"><a xlink:href="class_web_socket_session.html#a6c0557f87f9f6050a8848237ace942bb" target="_top" xlink:title="Handle received client message.">
<polygon fill="white" stroke="#666666" points="665.88,-48.55 523.88,-48.55 523.88,-28.55 665.88,-28.55 665.88,-48.55"/>
<text xml:space="preserve" text-anchor="middle" x="594.88" y="-35.05" font-family="Helvetica,sans-Serif" font-size="10.00">WebSocketSession::on_read</text>
</a>
</g>
</g>
<!-- Node14&#45;&gt;Node22 -->
<g id="edge23_Node000014_Node000022" class="edge">
<title>Node14&#45;&gt;Node22</title>
<g id="a_edge23_Node000014_Node000022"><a xlink:title=" ">
<path fill="none" stroke="#63b8ff" d="M739.37,-69.71C709.09,-63.13 672.69,-55.23 644.13,-49.02"/>
<polygon fill="#63b8ff" stroke="#63b8ff" points="738.23,-73.04 748.74,-71.74 739.72,-66.2 738.23,-73.04"/>
</a>
</g>
</g>
<!-- Node16 -->
<g id="Node000016" class="node">
<title>Node16</title>
<g id="a_Node000016"><a xlink:href="class_web_socket_session.html#afe8845301daa6254f51e87dd9dd4cc3d" target="_top" xlink:title="Handle broadcast write completion — drains pending queue.">
<polygon fill="white" stroke="#666666" points="467.25,-174.55 349.25,-174.55 349.25,-142.55 467.25,-142.55 467.25,-174.55"/>
<text xml:space="preserve" text-anchor="start" x="357.25" y="-161.05" font-family="Helvetica,sans-Serif" font-size="10.00">WebSocketSession::on</text>
<text xml:space="preserve" text-anchor="middle" x="408.25" y="-149.05" font-family="Helvetica,sans-Serif" font-size="10.00">_broadcast_write</text>
</a>
</g>
</g>
<!-- Node15&#45;&gt;Node16 -->
<g id="edge15_Node000015_Node000016" class="edge">
<title>Node15&#45;&gt;Node16</title>
<g id="a_edge15_Node000015_Node000016"><a xlink:title=" ">
<path fill="none" stroke="#63b8ff" d="M504.99,-135.21C492.28,-137.38 479.48,-139.74 467.56,-142.11"/>
<polygon fill="#63b8ff" stroke="#63b8ff" points="505.33,-138.7 514.62,-133.6 504.18,-131.79 505.33,-138.7"/>
</a>
</g>
</g>
<!-- Node18 -->
<g id="Node000018" class="node">
<title>Node18</title>
<g id="a_Node000018"><a xlink:href="class_web_socket_session.html#a0fed81151d5dcbe23dbee79f1bf12c66" target="_top" xlink:title="Handle write completion.">
<polygon fill="white" stroke="#666666" points="301.25,-54.55 183.25,-54.55 183.25,-22.55 301.25,-22.55 301.25,-54.55"/>
<text xml:space="preserve" text-anchor="start" x="191.25" y="-41.05" font-family="Helvetica,sans-Serif" font-size="10.00">WebSocketSession::on</text>
<text xml:space="preserve" text-anchor="middle" x="242.25" y="-29.05" font-family="Helvetica,sans-Serif" font-size="10.00">_write</text>
</a>
</g>
</g>
<!-- Node15&#45;&gt;Node18 -->
<g id="edge18_Node000015_Node000018" class="edge">
<title>Node15&#45;&gt;Node18</title>
<g id="a_edge18_Node000015_Node000018"><a xlink:title=" ">
<path fill="none" stroke="#63b8ff" d="M504.7,-125.02C454.37,-121.89 390.98,-114.11 337.25,-95.55 310.19,-86.2 282.57,-68.23 264.33,-54.96"/>
<polygon fill="#63b8ff" stroke="#63b8ff" points="504.2,-128.49 514.38,-125.56 504.59,-121.51 504.2,-128.49"/>
</a>
</g>
</g>
<!-- Node16&#45;&gt;Node15 -->
<g id="edge17_Node000016_Node000015" class="edge">
<title>Node16&#45;&gt;Node15</title>
<g id="a_edge17_Node000016_Node000015"><a xlink:title=" ">
<path fill="none" stroke="#63b8ff" d="M478.44,-153.11C507.72,-148.53 540.32,-142.42 563.39,-137"/>
<polygon fill="#63b8ff" stroke="#63b8ff" points="478.26,-149.6 468.9,-154.56 479.31,-156.52 478.26,-149.6"/>
</a>
</g>
</g>
<!-- Node17 -->
<g id="Node000017" class="node">
<title>Node17</title>
<g id="a_Node000017"><a xlink:href="class_web_socket_session.html#a24aad98befc1c2d007af7a64bee4864f" target="_top" xlink:title="Perform broadcast write operation (called on strand).">
<polygon fill="white" stroke="#666666" points="301.25,-174.55 183.25,-174.55 183.25,-142.55 301.25,-142.55 301.25,-174.55"/>
<text xml:space="preserve" text-anchor="start" x="191.25" y="-161.05" font-family="Helvetica,sans-Serif" font-size="10.00">WebSocketSession::do</text>
<text xml:space="preserve" text-anchor="middle" x="242.25" y="-149.05" font-family="Helvetica,sans-Serif" font-size="10.00">_broadcast</text>
</a>
</g>
</g>
<!-- Node16&#45;&gt;Node17 -->
<g id="edge16_Node000016_Node000017" class="edge">
<title>Node16&#45;&gt;Node17</title>
<g id="a_edge16_Node000016_Node000017"><a xlink:title=" ">
<path fill="none" stroke="#63b8ff" d="M337.62,-158.55C325.63,-158.55 313.28,-158.55 301.62,-158.55"/>
<polygon fill="#63b8ff" stroke="#63b8ff" points="337.45,-162.05 347.45,-158.55 337.45,-155.05 337.45,-162.05"/>
</a>
</g>
</g>
<!-- Node18&#45;&gt;Node14 -->
<g id="edge19_Node000018_Node000014" class="edge">
<title>Node18&#45;&gt;Node14</title>
<g id="a_edge19_Node000018_Node000014"><a xlink:title=" ">
<path fill="none" stroke="#63b8ff" d="M312.76,-22.89C320.98,-21.51 329.28,-20.34 337.25,-19.55 486.39,-4.62 528.73,15.36 674.5,-19.55 717,-29.72 761.39,-57 783.75,-72.11"/>
<polygon fill="#63b8ff" stroke="#63b8ff" points="312.36,-19.4 303.13,-24.6 313.59,-26.29 312.36,-19.4"/>
</a>
</g>
</g>
<!-- Node19 -->
<g id="Node000019" class="node">
<title>Node19</title>
<g id="a_Node000019"><a xlink:href="class_web_socket_session.html#a6c789e228fc7a6101f1e586dc67ad8da" target="_top" xlink:title="Send a plain text response to this client (for FIL DIR etc.).">
<polygon fill="white" stroke="#666666" points="147.25,-54.55 0,-54.55 0,-22.55 147.25,-22.55 147.25,-54.55"/>
<text xml:space="preserve" text-anchor="start" x="8" y="-41.05" font-family="Helvetica,sans-Serif" font-size="10.00">WebSocketSession::sendText</text>
<text xml:space="preserve" text-anchor="middle" x="73.62" y="-29.05" font-family="Helvetica,sans-Serif" font-size="10.00">Response</text>
</a>
</g>
</g>
<!-- Node18&#45;&gt;Node19 -->
<g id="edge20_Node000018_Node000019" class="edge">
<title>Node18&#45;&gt;Node19</title>
<g id="a_edge20_Node000018_Node000019"><a xlink:title=" ">
<path fill="none" stroke="#63b8ff" d="M171.51,-38.55C163.58,-38.55 155.49,-38.55 147.52,-38.55"/>
<polygon fill="#63b8ff" stroke="#63b8ff" points="171.46,-42.05 181.46,-38.55 171.46,-35.05 171.46,-42.05"/>
</a>
</g>
</g>
<!-- Node21 -->
<g id="Node000021" class="node">
<title>Node21</title>
<g id="a_Node000021"><a xlink:href="class_web_socket_session.html#aa60a520432526e90b74fd97713469a56" target="_top" xlink:title="Start the session by accepting WebSocket handshake.">
<polygon fill="white" stroke="#666666" points="468.75,-86.55 347.75,-86.55 347.75,-66.55 468.75,-66.55 468.75,-86.55"/>
<text xml:space="preserve" text-anchor="middle" x="408.25" y="-73.05" font-family="Helvetica,sans-Serif" font-size="10.00">WebSocketSession::run</text>
</a>
</g>
</g>
<!-- Node20&#45;&gt;Node21 -->
<g id="edge22_Node000020_Node000021" class="edge">
<title>Node20&#45;&gt;Node21</title>
<g id="a_edge22_Node000020_Node000021"><a xlink:title=" ">
<path fill="none" stroke="#63b8ff" d="M524.09,-80.28C506.02,-79.69 486.71,-79.06 469.19,-78.49"/>
<polygon fill="#63b8ff" stroke="#63b8ff" points="523.84,-83.77 533.95,-80.6 524.06,-76.77 523.84,-83.77"/>
</a>
</g>
</g>
<!-- Node23 -->
<g id="Node000023" class="node">
<title>Node23</title>
<g id="a_Node000023"><a xlink:href="class_web_socket_session.html#a2bc079950c2e39e8ff745f0da57646ba" target="_top" xlink:title="Initiate async read for next client message.">
<polygon fill="white" stroke="#666666" points="479.25,-48.55 337.25,-48.55 337.25,-28.55 479.25,-28.55 479.25,-48.55"/>
<text xml:space="preserve" text-anchor="middle" x="408.25" y="-35.05" font-family="Helvetica,sans-Serif" font-size="10.00">WebSocketSession::do_read</text>
</a>
</g>
</g>
<!-- Node22&#45;&gt;Node23 -->
<g id="edge24_Node000022_Node000023" class="edge">
<title>Node22&#45;&gt;Node23</title>
<g id="a_edge24_Node000022_Node000023"><a xlink:title=" ">
<path fill="none" stroke="#63b8ff" d="M512.31,-31.84C501.43,-31.75 490.35,-31.8 479.69,-31.97"/>
<polygon fill="#63b8ff" stroke="#63b8ff" points="512,-35.33 522.04,-31.95 512.08,-28.33 512,-35.33"/>
</a>
</g>
</g>
<!-- Node23&#45;&gt;Node18 -->
<g id="edge26_Node000023_Node000018" class="edge">
<title>Node23&#45;&gt;Node18</title>
<g id="a_edge26_Node000023_Node000018"><a xlink:title=" ">
<path fill="none" stroke="#63b8ff" d="M325.77,-38.55C317.65,-38.55 309.52,-38.55 301.7,-38.55"/>
<polygon fill="#63b8ff" stroke="#63b8ff" points="325.71,-42.05 335.71,-38.55 325.71,-35.05 325.71,-42.05"/>
</a>
</g>
</g>
<!-- Node23&#45;&gt;Node22 -->
<g id="edge25_Node000023_Node000022" class="edge">
<title>Node23&#45;&gt;Node22</title>
<g id="a_edge25_Node000023_Node000022"><a xlink:title=" ">
<path fill="none" stroke="#63b8ff" d="M490.93,-45.26C501.81,-45.34 512.89,-45.29 523.55,-45.12"/>
<polygon fill="#63b8ff" stroke="#63b8ff" points="491.24,-41.76 481.2,-45.14 491.16,-48.76 491.24,-41.76"/>
</a>
</g>
</g>
</g>
</svg>
