<?xml version="1.0" encoding="UTF-8" standalone="no"?>
<!DOCTYPE svg PUBLIC "-//W3C//DTD SVG 1.1//EN"
 "http://www.w3.org/Graphics/SVG/1.1/DTD/svg11.dtd">
<!-- Generated by graphviz version 14.1.2 (20260124.0452)
 -->
<!-- Title: asn_tlv::encodeSerRecordsToTlv Pages: 1 -->
<svg width="1024pt" height="141pt"
 viewBox="0.00 0.00 1024.00 141.00" xmlns="http://www.w3.org/2000/svg" xmlns:xlink="http://www.w3.org/1999/xlink">
<g id="graph0" class="graph" transform="scale(1 1) rotate(0) translate(4 137)">
<title>asn_tlv::encodeSerRecordsToTlv</title>
<!-- Node1 -->
<g id="Node000001" class="node">
<title>Node1</title>
<g id="a_Node000001"><a xlink:title="Encode SER records to ASN.1 BER/TLV format.">
<polygon fill="#999999" stroke="#666666" points="1015.5,-89 878.75,-89 878.75,-57 1015.5,-57 1015.5,-89"/>
<text xml:space="preserve" text-anchor="start" x="886.75" y="-75.5" font-family="Helvetica,sans-Serif" font-size="10.00">asn_tlv::encodeSerRecords</text>
<text xml:space="preserve" text-anchor="middle" x="947.12" y="-63.5" font-family="Helvetica,sans-Serif" font-size="10.00">ToTlv</text>
</a>
</g>
</g>
<!-- Node2 -->
<g id="Node000002" class="node">
<title>Node2</title>
<g id="a_Node000002"><a xlink:href="class_s_e_r_web_socket_server.html#a969d54fda0937b5a1a3036cdefc4fed3" target="_top" xlink:title="Broadcast data to all connected clients (push model)">
<polygon fill="white" stroke="#666666" points="825.5,-133 710.5,-133 710.5,-101 825.5,-101 825.5,-133"/>
<text xml:space="preserve" text-anchor="start" x="718.5" y="-119.5" font-family="Helvetica,sans-Serif" font-size="10.00">SERWebSocketServer</text>
<text xml:space="preserve" text-anchor="middle" x="768" y="-107.5" font-family="Helvetica,sans-Serif" font-size="10.00">::broadcast</text>
</a>
</g>
</g>
<!-- Node1&#45;&gt;Node2 -->
<g id="edge1_Node000001_Node000002" class="edge">
<title>Node1&#45;&gt;Node2</title>
<g id="a_edge1_Node000001_Node000002"><a xlink:title=" ">
<path fill="none" stroke="#63b8ff" d="M868.95,-92.17C854.46,-95.77 839.56,-99.47 825.83,-102.88"/>
<polygon fill="#63b8ff" stroke="#63b8ff" points="869.59,-95.62 878.45,-89.81 867.9,-88.83 869.59,-95.62"/>
</a>
</g>
</g>
<!-- Node3 -->
<g id="Node000003" class="node">
<title>Node3</title>
<g id="a_Node000003"><a xlink:href="struct_poll_ser_action.html#a80290394273450b8c46083cc224c529f" target="_top" xlink:title="Execute SER polling and storage.">
<polygon fill="white" stroke="#666666" points="829.25,-83 706.75,-83 706.75,-63 829.25,-63 829.25,-83"/>
<text xml:space="preserve" text-anchor="middle" x="768" y="-69.5" font-family="Helvetica,sans-Serif" font-size="10.00">PollSerAction::operator()</text>
</a>
</g>
</g>
<!-- Node1&#45;&gt;Node3 -->
<g id="edge2_Node000001_Node000003" class="edge">
<title>Node1&#45;&gt;Node3</title>
<g id="a_edge2_Node000001_Node000003"><a xlink:title=" ">
<path fill="none" stroke="#63b8ff" d="M867.01,-73C854.5,-73 841.73,-73 829.72,-73"/>
<polygon fill="#63b8ff" stroke="#63b8ff" points="866.89,-76.5 876.89,-73 866.89,-69.5 866.89,-76.5"/>
</a>
</g>
</g>
<!-- Node4 -->
<g id="Node000004" class="node">
<title>Node4</title>
<g id="a_Node000004"><a xlink:href="class_web_socket_session.html#a2529887f34770366fc2c225bd085edba" target="_top" xlink:title="Send current database records to client as JSON.">
<polygon fill="white" stroke="#666666" points="842.75,-45 693.25,-45 693.25,-25 842.75,-25 842.75,-45"/>
<text xml:space="preserve" text-anchor="middle" x="768" y="-31.5" font-family="Helvetica,sans-Serif" font-size="10.00">WebSocketSession::sendData</text>
</a>
</g>
</g>
<!-- Node1&#45;&gt;Node4 -->
<g id="edge3_Node000001_Node000004" class="edge">
<title>Node1&#45;&gt;Node4</title>
<g id="a_edge3_Node000001_Node000004"><a xlink:title=" ">
<path fill="none" stroke="#63b8ff" d="M867.38,-56.11C850.47,-52.48 833.07,-48.74 817.69,-45.45"/>
<polygon fill="#63b8ff" stroke="#63b8ff" points="866.41,-59.48 876.92,-58.15 867.88,-52.63 866.41,-59.48"/>
</a>
</g>
</g>
<!-- Node5 -->
<g id="Node000005" class="node">
<title>Node5</title>
<g id="a_Node000005"><a xlink:href="class_web_socket_session.html#a7b82f2e9c71f6822c2d2f6dcc1a251c5" target="_top" xlink:title="Handle WebSocket handshake completion.">
<polygon fill="white" stroke="#666666" points="645.25,-95 527.25,-95 527.25,-63 645.25,-63 645.25,-95"/>
<text xml:space="preserve" text-anchor="start" x="535.25" y="-81.5" font-family="Helvetica,sans-Serif" font-size="10.00">WebSocketSession::on</text>
<text xml:space="preserve" text-anchor="middle" x="586.25" y="-69.5" font-family="Helvetica,sans-Serif" font-size="10.00">_accept</text>
</a>
</g>
</g>
<!-- Node4&#45;&gt;Node5 -->
<g id="edge4_Node000004_Node000005" class="edge">
<title>Node4&#45;&gt;Node5</title>
<g id="a_edge4_Node000004_Node000005"><a xlink:title=" ">
<path fill="none" stroke="#63b8ff" d="M713.24,-48.16C691.9,-53.38 667.29,-59.41 645.52,-64.74"/>
<polygon fill="#63b8ff" stroke="#63b8ff" points="714.05,-51.56 722.93,-45.79 712.39,-44.77 714.05,-51.56"/>
</a>
</g>
</g>
<!-- Node7 -->
<g id="Node000007" class="node">
<title>Node7</title>
<g id="a_Node000007"><a xlink:href="class_web_socket_session.html#a6c0557f87f9f6050a8848237ace942bb" target="_top" xlink:title="Handle received client message.">
<polygon fill="white" stroke="#666666" points="657.25,-45 515.25,-45 515.25,-25 657.25,-25 657.25,-45"/>
<text xml:space="preserve" text-anchor="middle" x="586.25" y="-31.5" font-family="Helvetica,sans-Serif" font-size="10.00">WebSocketSession::on_read</text>
</a>
</g>
</g>
<!-- Node4&#45;&gt;Node7 -->
<g id="edge6_Node000004_Node000007" class="edge">
<title>Node4&#45;&gt;Node7</title>
<g id="a_edge6_Node000004_Node000007"><a xlink:title=" ">
<path fill="none" stroke="#63b8ff" d="M681.52,-35C673.47,-35 665.36,-35 657.47,-35"/>
<polygon fill="#63b8ff" stroke="#63b8ff" points="681.34,-38.5 691.34,-35 681.34,-31.5 681.34,-38.5"/>
</a>
</g>
</g>
<!-- Node6 -->
<g id="Node000006" class="node">
<title>Node6</title>
<g id="a_Node000006"><a xlink:href="class_web_socket_session.html#aa60a520432526e90b74fd97713469a56" target="_top" xlink:title="Start the session by accepting WebSocket handshake.">
<polygon fill="white" stroke="#666666" points="468.75,-89 347.75,-89 347.75,-69 468.75,-69 468.75,-89"/>
<text xml:space="preserve" text-anchor="middle" x="408.25" y="-75.5" font-family="Helvetica,sans-Serif" font-size="10.00">WebSocketSession::run</text>
</a>
</g>
</g>
<!-- Node5&#45;&gt;Node6 -->
<g id="edge5_Node000005_Node000006" class="edge">
<title>Node5&#45;&gt;Node6</title>
<g id="a_edge5_Node000005_Node000006"><a xlink:title=" ">
<path fill="none" stroke="#63b8ff" d="M516.02,-79C500.52,-79 484.2,-79 469.11,-79"/>
<polygon fill="#63b8ff" stroke="#63b8ff" points="515.62,-82.5 525.62,-79 515.62,-75.5 515.62,-82.5"/>
</a>
</g>
</g>
<!-- Node8 -->
<g id="Node000008" class="node">
<title>Node8</title>
<g id="a_Node000008"><a xlink:href="class_web_socket_session.html#a2bc079950c2e39e8ff745f0da57646ba" target="_top" xlink:title="Initiate async read for next client message.">
<polygon fill="white" stroke="#666666" points="479.25,-45 337.25,-45 337.25,-25 479.25,-25 479.25,-45"/>
<text xml:space="preserve" text-anchor="middle" x="408.25" y="-31.5" font-family="Helvetica,sans-Serif" font-size="10.00">WebSocketSession::do_read</text>
</a>
</g>
</g>
<!-- Node7&#45;&gt;Node8 -->
<g id="edge7_Node000007_Node000008" class="edge">
<title>Node7&#45;&gt;Node8</title>
<g id="a_edge7_Node000007_Node000008"><a xlink:title=" ">
<path fill="none" stroke="#63b8ff" d="M503.42,-28.26C495.51,-28.23 487.53,-28.26 479.74,-28.37"/>
<polygon fill="#63b8ff" stroke="#63b8ff" points="503.39,-31.76 513.42,-28.36 503.45,-24.76 503.39,-31.76"/>
</a>
</g>
</g>
<!-- Node8&#45;&gt;Node7 -->
<g id="edge8_Node000008_Node000007" class="edge">
<title>Node8&#45;&gt;Node7</title>
<g id="a_edge8_Node000008_Node000007"><a xlink:title=" ">
<path fill="none" stroke="#63b8ff" d="M490.98,-41.73C498.99,-41.77 507.06,-41.74 514.93,-41.63"/>
<polygon fill="#63b8ff" stroke="#63b8ff" points="491.29,-38.24 481.26,-41.64 491.22,-45.24 491.29,-38.24"/>
</a>
</g>
</g>
<!-- Node9 -->
<g id="Node000009" class="node">
<title>Node9</title>
<g id="a_Node000009"><a xlink:href="class_web_socket_session.html#a0fed81151d5dcbe23dbee79f1bf12c66" target="_top" xlink:title="Handle write completion.">
<polygon fill="white" stroke="#666666" points="301.25,-32 183.25,-32 183.25,0 301.25,0 301.25,-32"/>
<text xml:space="preserve" text-anchor="start" x="191.25" y="-18.5" font-family="Helvetica,sans-Serif" font-size="10.00">WebSocketSession::on</text>
<text xml:space="preserve" text-anchor="middle" x="242.25" y="-6.5" font-family="Helvetica,sans-Serif" font-size="10.00">_write</text>
</a>
</g>
</g>
<!-- Node8&#45;&gt;Node9 -->
<g id="edge9_Node000008_Node000009" class="edge">
<title>Node8&#45;&gt;Node9</title>
<g id="a_edge9_Node000008_Node000009"><a xlink:title=" ">
<path fill="none" stroke="#63b8ff" d="M326.05,-25.59C317.84,-24.64 309.61,-23.69 301.7,-22.77"/>
<polygon fill="#63b8ff" stroke="#63b8ff" points="325.38,-29.04 335.72,-26.71 326.19,-22.09 325.38,-29.04"/>
</a>
</g>
</g>
<!-- Node9&#45;&gt;Node4 -->
<g id="edge10_Node000009_Node000004" class="edge">
<title>Node9&#45;&gt;Node4</title>
<g id="a_edge10_Node000009_Node000004"><a xlink:title=" ">
<path fill="none" stroke="#63b8ff" d="M313.14,-12.36C395.58,-8.91 536.66,-5.64 657.25,-16 677,-17.7 698.53,-21.08 717.24,-24.53"/>
<polygon fill="#63b8ff" stroke="#63b8ff" points="313.01,-8.86 303.17,-12.79 313.32,-15.86 313.01,-8.86"/>
</a>
</g>
</g>
<!-- Node10 -->
<g id="Node000010" class="node">
<title>Node10</title>
<g id="a_Node000010"><a xlink:href="class_web_socket_session.html#a6c789e228fc7a6101f1e586dc67ad8da" target="_top" xlink:title="Send a plain text response to this client (for FIL DIR etc.)">
<polygon fill="white" stroke="#666666" points="147.25,-32 0,-32 0,0 147.25,0 147.25,-32"/>
<text xml:space="preserve" text-anchor="start" x="8" y="-18.5" font-family="Helvetica,sans-Serif" font-size="10.00">WebSocketSession::sendText</text>
<text xml:space="preserve" text-anchor="middle" x="73.62" y="-6.5" font-family="Helvetica,sans-Serif" font-size="10.00">Response</text>
</a>
</g>
</g>
<!-- Node9&#45;&gt;Node10 -->
<g id="edge11_Node000009_Node000010" class="edge">
<title>Node9&#45;&gt;Node10</title>
<g id="a_edge11_Node000009_Node000010"><a xlink:title=" ">
<path fill="none" stroke="#63b8ff" d="M171.51,-16C163.58,-16 155.49,-16 147.52,-16"/>
<polygon fill="#63b8ff" stroke="#63b8ff" points="171.46,-19.5 181.46,-16 171.46,-12.5 171.46,-19.5"/>
</a>
</g>
</g>
</g>
</svg>
