<?xml version="1.0" encoding="UTF-8" standalone="no"?>
<!DOCTYPE svg PUBLIC "-//W3C//DTD SVG 1.1//EN"
 "http://www.w3.org/Graphics/SVG/1.1/DTD/svg11.dtd">
<!-- Generated by graphviz version 14.1.2 (20260124.0452)
 -->
<!-- Title: asn_tlv::readLength Pages: 1 -->
<svg width="747pt" height="128pt"
 viewBox="0.00 0.00 747.00 128.00" xmlns="http://www.w3.org/2000/svg" xmlns:xlink="http://www.w3.org/1999/xlink">
<g id="graph0" class="graph" transform="scale(1 1) rotate(0) translate(4 124)">
<title>asn_tlv::readLength</title>
<!-- Node1 -->
<g id="Node000001" class="node">
<title>Node1</title>
<g id="a_Node000001"><a xlink:title="Read BER length encoding from a buffer.">
<polygon fill="#999999" stroke="#666666" points="739.25,-76 637.75,-76 637.75,-56 739.25,-56 739.25,-76"/>
<text xml:space="preserve" text-anchor="middle" x="688.5" y="-62.5" font-family="Helvetica,sans-Serif" font-size="10.00">asn_tlv::readLength</text>
</a>
</g>
</g>
<!-- Node2 -->
<g id="Node000002" class="node">
<title>Node2</title>
<g id="a_Node000002"><a xlink:href="namespaceasn__tlv.html#ac435b195a3c3b9168277f982e3106625" target="_top" xlink:title="Read and parse a complete TLV structure.">
<polygon fill="white" stroke="#666666" points="601.75,-76 516,-76 516,-56 601.75,-56 601.75,-76"/>
<text xml:space="preserve" text-anchor="middle" x="558.88" y="-62.5" font-family="Helvetica,sans-Serif" font-size="10.00">asn_tlv::readTlv</text>
</a>
</g>
</g>
<!-- Node1&#45;&gt;Node2 -->
<g id="edge1_Node000001_Node000002" class="edge">
<title>Node1&#45;&gt;Node2</title>
<g id="a_edge1_Node000001_Node000002"><a xlink:title=" ">
<path fill="none" stroke="#63b8ff" d="M626.01,-66C617.87,-66 609.68,-66 601.97,-66"/>
<polygon fill="#63b8ff" stroke="#63b8ff" points="625.91,-69.5 635.91,-66 625.91,-62.5 625.91,-69.5"/>
</a>
</g>
</g>
<!-- Node3 -->
<g id="Node000003" class="node">
<title>Node3</title>
<g id="a_Node000003"><a xlink:href="namespaceasn__date.html#a62faa5915f9a06dc675236af0c576d8e" target="_top" xlink:title="Decode an ASN.1 BER TLV payload with Tag 33 to a datetime string.">
<polygon fill="white" stroke="#666666" points="478.88,-120 338.38,-120 338.38,-100 478.88,-100 478.88,-120"/>
<text xml:space="preserve" text-anchor="middle" x="408.62" y="-106.5" font-family="Helvetica,sans-Serif" font-size="10.00">asn_date::decodeASN1Date</text>
</a>
</g>
</g>
<!-- Node2&#45;&gt;Node3 -->
<g id="edge2_Node000002_Node000003" class="edge">
<title>Node2&#45;&gt;Node3</title>
<g id="a_edge2_Node000002_Node000003"><a xlink:title=" ">
<path fill="none" stroke="#63b8ff" d="M515.81,-79.9C504.24,-83.62 491.66,-87.56 480,-91 470.17,-93.9 459.51,-96.87 449.54,-99.57"/>
<polygon fill="#63b8ff" stroke="#63b8ff" points="516.65,-83.31 525.09,-76.9 514.5,-76.65 516.65,-83.31"/>
</a>
</g>
</g>
<!-- Node5 -->
<g id="Node000005" class="node">
<title>Node5</title>
<g id="a_Node000005"><a xlink:href="namespaceasn__password.html#a7a7efc8852aa6765056a6da803938af7" target="_top" xlink:title="Decode an ASN.1 BER TLV payload with Tag 34 to a password string.">
<polygon fill="white" stroke="#666666" points="480,-82 337.25,-82 337.25,-50 480,-50 480,-82"/>
<text xml:space="preserve" text-anchor="start" x="345.25" y="-68.5" font-family="Helvetica,sans-Serif" font-size="10.00">asn_password::decodeASN1</text>
<text xml:space="preserve" text-anchor="middle" x="408.62" y="-56.5" font-family="Helvetica,sans-Serif" font-size="10.00">Password</text>
</a>
</g>
</g>
<!-- Node2&#45;&gt;Node5 -->
<g id="edge4_Node000002_Node000005" class="edge">
<title>Node2&#45;&gt;Node5</title>
<g id="a_edge4_Node000002_Node000005"><a xlink:title=" ">
<path fill="none" stroke="#63b8ff" d="M504.31,-66C496.55,-66 488.46,-66 480.43,-66"/>
<polygon fill="#63b8ff" stroke="#63b8ff" points="504.28,-69.5 514.28,-66 504.28,-62.5 504.28,-69.5"/>
</a>
</g>
</g>
<!-- Node6 -->
<g id="Node000006" class="node">
<title>Node6</title>
<g id="a_Node000006"><a xlink:href="namespaceasn__tlv.html#af09e11865c2150ad1989d730491dd729" target="_top" xlink:title="Decode ASN.1 BER/TLV payload to SER records.">
<polygon fill="white" stroke="#666666" points="477,-32 340.25,-32 340.25,0 477,0 477,-32"/>
<text xml:space="preserve" text-anchor="start" x="348.25" y="-18.5" font-family="Helvetica,sans-Serif" font-size="10.00">asn_tlv::decodeSerRecords</text>
<text xml:space="preserve" text-anchor="middle" x="408.62" y="-6.5" font-family="Helvetica,sans-Serif" font-size="10.00">FromTlv</text>
</a>
</g>
</g>
<!-- Node2&#45;&gt;Node6 -->
<g id="edge5_Node000002_Node000006" class="edge">
<title>Node2&#45;&gt;Node6</title>
<g id="a_edge5_Node000002_Node000006"><a xlink:title=" ">
<path fill="none" stroke="#63b8ff" d="M516.09,-51.91C498.17,-45.86 477.1,-38.76 458.46,-32.47"/>
<polygon fill="#63b8ff" stroke="#63b8ff" points="514.77,-55.16 525.36,-55.03 517.01,-48.52 514.77,-55.16"/>
</a>
</g>
</g>
<!-- Node4 -->
<g id="Node000004" class="node">
<title>Node4</title>
<g id="a_Node000004"><a xlink:href="class_relay_service.html#a0cbdd298b64e29af13e074b1a6cd3383" target="_top" xlink:title="Send DATE read command and decode ASN.1 response.">
<polygon fill="white" stroke="#666666" points="301.25,-120 154.75,-120 154.75,-100 301.25,-100 301.25,-120"/>
<text xml:space="preserve" text-anchor="middle" x="228" y="-106.5" font-family="Helvetica,sans-Serif" font-size="10.00">RelayService::readRelayTime</text>
</a>
</g>
</g>
<!-- Node3&#45;&gt;Node4 -->
<g id="edge3_Node000003_Node000004" class="edge">
<title>Node3&#45;&gt;Node4</title>
<g id="a_edge3_Node000003_Node000004"><a xlink:title=" ">
<path fill="none" stroke="#63b8ff" d="M326.73,-110C318.36,-110 309.9,-110 301.63,-110"/>
<polygon fill="#63b8ff" stroke="#63b8ff" points="326.54,-113.5 336.54,-110 326.54,-106.5 326.54,-113.5"/>
</a>
</g>
</g>
<!-- Node7 -->
<g id="Node000007" class="node">
<title>Node7</title>
<g id="a_Node000007"><a xlink:href="class_shared_ser_reader.html#a9ca0e190a57fd3c195a860076ac729c7" target="_top" xlink:title="Main worker thread loop.">
<polygon fill="white" stroke="#666666" points="294.88,-26 161.12,-26 161.12,-6 294.88,-6 294.88,-26"/>
<text xml:space="preserve" text-anchor="middle" x="228" y="-12.5" font-family="Helvetica,sans-Serif" font-size="10.00">SharedSerReader::runLoop</text>
</a>
</g>
</g>
<!-- Node6&#45;&gt;Node7 -->
<g id="edge6_Node000006_Node000007" class="edge">
<title>Node6&#45;&gt;Node7</title>
<g id="a_edge6_Node000006_Node000007"><a xlink:title=" ">
<path fill="none" stroke="#63b8ff" d="M328.41,-16C317.34,-16 306.06,-16 295.26,-16"/>
<polygon fill="#63b8ff" stroke="#63b8ff" points="328.33,-19.5 338.33,-16 328.33,-12.5 328.33,-19.5"/>
</a>
</g>
</g>
<!-- Node8 -->
<g id="Node000008" class="node">
<title>Node8</title>
<g id="a_Node000008"><a xlink:href="class_shared_ser_reader.html#aabd6c5c15122509fe63d3eef072ff6df" target="_top" xlink:title="Starts the worker thread.">
<polygon fill="white" stroke="#666666" points="118.75,-26 0,-26 0,-6 118.75,-6 118.75,-26"/>
<text xml:space="preserve" text-anchor="middle" x="59.38" y="-12.5" font-family="Helvetica,sans-Serif" font-size="10.00">SharedSerReader::start</text>
</a>
</g>
</g>
<!-- Node7&#45;&gt;Node8 -->
<g id="edge7_Node000007_Node000008" class="edge">
<title>Node7&#45;&gt;Node8</title>
<g id="a_edge7_Node000007_Node000008"><a xlink:title=" ">
<path fill="none" stroke="#63b8ff" d="M149.31,-16C139.19,-16 128.95,-16 119.2,-16"/>
<polygon fill="#63b8ff" stroke="#63b8ff" points="149.15,-19.5 159.15,-16 149.15,-12.5 149.15,-19.5"/>
</a>
</g>
</g>
</g>
</svg>
