<?xml version="1.0" encoding="UTF-8" standalone="no"?>
<!DOCTYPE svg PUBLIC "-//W3C//DTD SVG 1.1//EN"
 "http://www.w3.org/Graphics/SVG/1.1/DTD/svg11.dtd">
<!-- Generated by graphviz version 14.1.1 (20251213.1925)
 -->
<!-- Title: asn_tlv::encodeSerRecordsToTlv Pages: 1 -->
<!--zoomable 309 -->

<svg id="main" version="1.1" xmlns="http://www.w3.org/2000/svg" xmlns:xlink="http://www.w3.org/1999/xlink" xml:space="preserve" onload="init(evt)">

<style type="text/css"><![CDATA[
.node, .edge {opacity: 0.7;}
.node.selected, .edge.selected {opacity: 1;}
.edge:hover path { stroke: red; }
.edge:hover polygon { stroke: red; fill: red; }
]]></style>

<defs>
  <circle id="rim" cx="0" cy="0" r="7"/>
  <circle id="rim2" cx="0" cy="0" r="3.5"/>
  <g id="zoomPlus">
    <use xlink:href="#rim" fill="#404040"><set attributeName="fill" to="#808080" begin="zoomplus.mouseover" end="zoomplus.mouseout"/></use>
    <path d="M-4,0h8M0,-4v8" fill="none" stroke="white" stroke-width="1.5" pointer-events="none"/>
  </g>
  <g id="zoomMin">
    <use xlink:href="#rim" fill="#404040"><set attributeName="fill" to="#808080" begin="zoomminus.mouseover" end="zoomminus.mouseout"/></use>
    <path d="M-4,0h8" fill="none" stroke="white" stroke-width="1.5" pointer-events="none"/>
  </g>
  <g id="arrowUp" transform="translate(30 24)">
    <use xlink:href="#rim"/>
    <path pointer-events="none" fill="none" stroke="white" stroke-width="1.5" d="M0,-3.0v7 M-2.5,-0.5L0,-3.0L2.5,-0.5"/>
  </g>
  <g id="arrowRight" transform="rotate(90) translate(36 -43)">
    <use xlink:href="#rim"/>
    <path pointer-events="none" fill="none" stroke="white" stroke-width="1.5" d="M0,-3.0v7 M-2.5,-0.5L0,-3.0L2.5,-0.5"/>
  </g>
  <g id="arrowDown" transform="rotate(180) translate(-30 -48)">
    <use xlink:href="#rim"/>
    <path pointer-events="none" fill="none" stroke="white" stroke-width="1.5" d="M0,-3.0v7 M-2.5,-0.5L0,-3.0L2.5,-0.5"/>
  </g>
  <g id="arrowLeft" transform="rotate(270) translate(-36 17)">
    <use xlink:href="#rim"/>
    <path pointer-events="none" fill="none" stroke="white" stroke-width="1.5" d="M0,-3.0v7 M-2.5,-0.5L0,-3.0L2.5,-0.5"/>
  </g>
  <g id="resetDef">
    <use xlink:href="#rim2" fill="#404040"><set attributeName="fill" to="#808080" begin="reset.mouseover" end="reset.mouseout"/></use>
  </g>
</defs>
<script type="application/ecmascript">
var viewWidth = 1039;
var viewHeight = 309;
var sectionId = 'dynsection-8';
</script>
<script type="application/ecmascript" xlink:href="svg.min.js"/>
<svg id="graph" class="graph">
<g id="viewport">
<title>asn_tlv::encodeSerRecordsToTlv</title>
<!-- Node1 -->
<g id="Node000001" class="node">
<title>Node1</title>
<g id="a_Node000001"><a xlink:title="Encode SER records to ASN.1 BER/TLV format.">
<polygon fill="#999999" stroke="#666666" points="1030.5,-206.95 893.75,-206.95 893.75,-174.95 1030.5,-174.95 1030.5,-206.95"/>
<text xml:space="preserve" text-anchor="start" x="901.75" y="-193.45" font-family="Helvetica,sans-Serif" font-size="10.00">asn_tlv::encodeSerRecords</text>
<text xml:space="preserve" text-anchor="middle" x="962.12" y="-181.45" font-family="Helvetica,sans-Serif" font-size="10.00">ToTlv</text>
</a>
</g>
</g>
<!-- Node2 -->
<g id="Node000002" class="node">
<title>Node2</title>
<g id="a_Node000002"><a xlink:href="class_s_e_r_web_socket_server.html#a969d54fda0937b5a1a3036cdefc4fed3" target="_top" xlink:title="Broadcast data to all connected clients (push model).">
<polygon fill="white" stroke="#666666" points="840.5,-300.95 725.5,-300.95 725.5,-268.95 840.5,-268.95 840.5,-300.95"/>
<text xml:space="preserve" text-anchor="start" x="733.5" y="-287.45" font-family="Helvetica,sans-Serif" font-size="10.00">SERWebSocketServer</text>
<text xml:space="preserve" text-anchor="middle" x="783" y="-275.45" font-family="Helvetica,sans-Serif" font-size="10.00">::broadcast</text>
</a>
</g>
</g>
<!-- Node1&#45;&gt;Node2 -->
<g id="edge1_Node000001_Node000002" class="edge">
<title>Node1&#45;&gt;Node2</title>
<g id="a_edge1_Node000001_Node000002"><a xlink:title=" ">
<path fill="none" stroke="#63b8ff" d="M931.15,-214.02C911.17,-228.61 883.87,-247.08 857.75,-259.95 851.44,-263.05 844.66,-265.93 837.84,-268.54"/>
<polygon fill="#63b8ff" stroke="#63b8ff" points="933.17,-216.87 939.12,-208.11 929,-211.25 933.17,-216.87"/>
</a>
</g>
</g>
<!-- Node3 -->
<g id="Node000003" class="node">
<title>Node3</title>
<g id="a_Node000003"><a xlink:href="class_s_e_r_web_socket_server.html#abc886f3926f2d4bbde0e04100ac0b6ad" target="_top" xlink:title="Broadcast all SER records from the database to all clients.">
<polygon fill="white" stroke="#666666" points="840.5,-250.95 725.5,-250.95 725.5,-218.95 840.5,-218.95 840.5,-250.95"/>
<text xml:space="preserve" text-anchor="start" x="733.5" y="-237.45" font-family="Helvetica,sans-Serif" font-size="10.00">SERWebSocketServer</text>
<text xml:space="preserve" text-anchor="middle" x="783" y="-225.45" font-family="Helvetica,sans-Serif" font-size="10.00">::broadcastAll</text>
</a>
</g>
</g>
<!-- Node1&#45;&gt;Node3 -->
<g id="edge2_Node000001_Node000003" class="edge">
<title>Node1&#45;&gt;Node3</title>
<g id="a_edge2_Node000001_Node000003"><a xlink:title=" ">
<path fill="none" stroke="#63b8ff" d="M883.95,-210.12C869.46,-213.72 854.56,-217.42 840.83,-220.83"/>
<polygon fill="#63b8ff" stroke="#63b8ff" points="884.59,-213.56 893.45,-207.76 882.9,-206.77 884.59,-213.56"/>
</a>
</g>
</g>
<!-- Node4 -->
<g id="Node000004" class="node">
<title>Node4</title>
<g id="a_Node000004"><a xlink:href="struct_poll_ser_action.html#a80290394273450b8c46083cc224c529f" target="_top" xlink:title="Execute SER polling and storage.">
<polygon fill="white" stroke="#666666" points="844.25,-200.95 721.75,-200.95 721.75,-180.95 844.25,-180.95 844.25,-200.95"/>
<text xml:space="preserve" text-anchor="middle" x="783" y="-187.45" font-family="Helvetica,sans-Serif" font-size="10.00">PollSerAction::operator()</text>
</a>
</g>
</g>
<!-- Node1&#45;&gt;Node4 -->
<g id="edge3_Node000001_Node000004" class="edge">
<title>Node1&#45;&gt;Node4</title>
<g id="a_edge3_Node000001_Node000004"><a xlink:title=" ">
<path fill="none" stroke="#63b8ff" d="M882.01,-190.95C869.5,-190.95 856.73,-190.95 844.72,-190.95"/>
<polygon fill="#63b8ff" stroke="#63b8ff" points="881.89,-194.45 891.89,-190.95 881.89,-187.45 881.89,-194.45"/>
</a>
</g>
</g>
<!-- Node5 -->
<g id="Node000005" class="node">
<title>Node5</title>
<g id="a_Node000005"><a xlink:href="class_pipeline_processing_worker.html#a4b7df7922a70ab4c8542b73118f0c864" target="_top" xlink:title=" ">
<polygon fill="white" stroke="#666666" points="848,-162.95 718,-162.95 718,-130.95 848,-130.95 848,-162.95"/>
<text xml:space="preserve" text-anchor="start" x="726" y="-149.45" font-family="Helvetica,sans-Serif" font-size="10.00">PipelineProcessingWorker</text>
<text xml:space="preserve" text-anchor="middle" x="783" y="-137.45" font-family="Helvetica,sans-Serif" font-size="10.00">::runLoop</text>
</a>
</g>
</g>
<!-- Node1&#45;&gt;Node5 -->
<g id="edge4_Node000001_Node000005" class="edge">
<title>Node1&#45;&gt;Node5</title>
<g id="a_edge4_Node000001_Node000005"><a xlink:title=" ">
<path fill="none" stroke="#63b8ff" d="M884.08,-171.81C872.16,-168.85 859.96,-165.82 848.36,-162.93"/>
<polygon fill="#63b8ff" stroke="#63b8ff" points="882.9,-175.12 893.45,-174.13 884.59,-168.33 882.9,-175.12"/>
</a>
</g>
</g>
<!-- Node7 -->
<g id="Node000007" class="node">
<title>Node7</title>
<g id="a_Node000007"><a xlink:href="class_web_socket_session.html#a2529887f34770366fc2c225bd085edba" target="_top" xlink:title="Send current database records to client as ASN.1 BER/TLV.">
<polygon fill="white" stroke="#666666" points="857.75,-90.95 708.25,-90.95 708.25,-70.95 857.75,-70.95 857.75,-90.95"/>
<text xml:space="preserve" text-anchor="middle" x="783" y="-77.45" font-family="Helvetica,sans-Serif" font-size="10.00">WebSocketSession::sendData</text>
</a>
</g>
</g>
<!-- Node1&#45;&gt;Node7 -->
<g id="edge6_Node000001_Node000007" class="edge">
<title>Node1&#45;&gt;Node7</title>
<g id="a_edge6_Node000001_Node000007"><a xlink:title=" ">
<path fill="none" stroke="#63b8ff" d="M928.34,-168.07C908.23,-154.29 881.81,-136.63 857.75,-121.95 839.74,-110.96 818.66,-99.36 803.66,-91.31"/>
<polygon fill="#63b8ff" stroke="#63b8ff" points="926.2,-170.85 936.42,-173.64 930.17,-165.08 926.2,-170.85"/>
</a>
</g>
</g>
<!-- Node6 -->
<g id="Node000006" class="node">
<title>Node6</title>
<g id="a_Node000006"><a xlink:href="class_pipeline_processing_worker.html#ab0168acad7f6865fe4244c69c3046d32" target="_top" xlink:title="Start the processing worker: register a reader and launch its thread.">
<polygon fill="white" stroke="#666666" points="658.75,-184.95 528.75,-184.95 528.75,-152.95 658.75,-152.95 658.75,-184.95"/>
<text xml:space="preserve" text-anchor="start" x="536.75" y="-171.45" font-family="Helvetica,sans-Serif" font-size="10.00">PipelineProcessingWorker</text>
<text xml:space="preserve" text-anchor="middle" x="593.75" y="-159.45" font-family="Helvetica,sans-Serif" font-size="10.00">::start</text>
</a>
</g>
</g>
<!-- Node5&#45;&gt;Node6 -->
<g id="edge5_Node000005_Node000006" class="edge">
<title>Node5&#45;&gt;Node6</title>
<g id="a_edge5_Node000005_Node000006"><a xlink:title=" ">
<path fill="none" stroke="#63b8ff" d="M706.29,-155.84C690.6,-157.68 674.22,-159.61 658.99,-161.4"/>
<polygon fill="#63b8ff" stroke="#63b8ff" points="706.53,-159.34 716.06,-154.69 705.72,-152.38 706.53,-159.34"/>
</a>
</g>
</g>
<!-- Node8 -->
<g id="Node000008" class="node">
<title>Node8</title>
<g id="a_Node000008"><a xlink:href="class_web_socket_session.html#a124943db6c094918e372c94bfb7ec533" target="_top" xlink:title="Send the next queued message (if any).">
<polygon fill="white" stroke="#666666" points="672.25,-134.95 515.25,-134.95 515.25,-114.95 672.25,-114.95 672.25,-134.95"/>
<text xml:space="preserve" text-anchor="middle" x="593.75" y="-121.45" font-family="Helvetica,sans-Serif" font-size="10.00">WebSocketSession::drainQueue</text>
</a>
</g>
</g>
<!-- Node7&#45;&gt;Node8 -->
<g id="edge7_Node000007_Node000008" class="edge">
<title>Node7&#45;&gt;Node8</title>
<g id="a_edge7_Node000007_Node000008"><a xlink:title=" ">
<path fill="none" stroke="#63b8ff" d="M726.45,-94C698.57,-100.55 665.27,-108.37 639.13,-114.52"/>
<polygon fill="#63b8ff" stroke="#63b8ff" points="727.22,-97.41 736.15,-91.72 725.62,-90.6 727.22,-97.41"/>
</a>
</g>
</g>
<!-- Node13 -->
<g id="Node000013" class="node">
<title>Node13</title>
<g id="a_Node000013"><a xlink:href="class_web_socket_session.html#a7b82f2e9c71f6822c2d2f6dcc1a251c5" target="_top" xlink:title="Handle WebSocket handshake completion.">
<polygon fill="white" stroke="#666666" points="652.75,-96.95 534.75,-96.95 534.75,-64.95 652.75,-64.95 652.75,-96.95"/>
<text xml:space="preserve" text-anchor="start" x="542.75" y="-83.45" font-family="Helvetica,sans-Serif" font-size="10.00">WebSocketSession::on</text>
<text xml:space="preserve" text-anchor="middle" x="593.75" y="-71.45" font-family="Helvetica,sans-Serif" font-size="10.00">_accept</text>
</a>
</g>
</g>
<!-- Node7&#45;&gt;Node13 -->
<g id="edge14_Node000007_Node000013" class="edge">
<title>Node7&#45;&gt;Node13</title>
<g id="a_edge14_Node000007_Node000013"><a xlink:title=" ">
<path fill="none" stroke="#63b8ff" d="M696.8,-80.95C682.06,-80.95 667.04,-80.95 653.22,-80.95"/>
<polygon fill="#63b8ff" stroke="#63b8ff" points="696.48,-84.45 706.48,-80.95 696.48,-77.45 696.48,-84.45"/>
</a>
</g>
</g>
<!-- Node15 -->
<g id="Node000015" class="node">
<title>Node15</title>
<g id="a_Node000015"><a xlink:href="class_web_socket_session.html#a6c0557f87f9f6050a8848237ace942bb" target="_top" xlink:title="Handle received client message.">
<polygon fill="white" stroke="#666666" points="664.75,-46.95 522.75,-46.95 522.75,-26.95 664.75,-26.95 664.75,-46.95"/>
<text xml:space="preserve" text-anchor="middle" x="593.75" y="-33.45" font-family="Helvetica,sans-Serif" font-size="10.00">WebSocketSession::on_read</text>
</a>
</g>
</g>
<!-- Node7&#45;&gt;Node15 -->
<g id="edge16_Node000007_Node000015" class="edge">
<title>Node7&#45;&gt;Node15</title>
<g id="a_edge16_Node000007_Node000015"><a xlink:title=" ">
<path fill="none" stroke="#63b8ff" d="M726.45,-67.89C698.57,-61.34 665.27,-53.52 639.13,-47.37"/>
<polygon fill="#63b8ff" stroke="#63b8ff" points="725.62,-71.29 736.15,-70.17 727.22,-64.48 725.62,-71.29"/>
</a>
</g>
</g>
<!-- Node9 -->
<g id="Node000009" class="node">
<title>Node9</title>
<g id="a_Node000009"><a xlink:href="class_web_socket_session.html#afe8845301daa6254f51e87dd9dd4cc3d" target="_top" xlink:title="Handle broadcast write completion — drains pending queue.">
<polygon fill="white" stroke="#666666" points="467.25,-172.95 349.25,-172.95 349.25,-140.95 467.25,-140.95 467.25,-172.95"/>
<text xml:space="preserve" text-anchor="start" x="357.25" y="-159.45" font-family="Helvetica,sans-Serif" font-size="10.00">WebSocketSession::on</text>
<text xml:space="preserve" text-anchor="middle" x="408.25" y="-147.45" font-family="Helvetica,sans-Serif" font-size="10.00">_broadcast_write</text>
</a>
</g>
</g>
<!-- Node8&#45;&gt;Node9 -->
<g id="edge8_Node000008_Node000009" class="edge">
<title>Node8&#45;&gt;Node9</title>
<g id="a_edge8_Node000008_Node000009"><a xlink:title=" ">
<path fill="none" stroke="#63b8ff" d="M503.67,-133.73C491.35,-135.86 478.98,-138.15 467.42,-140.47"/>
<polygon fill="#63b8ff" stroke="#63b8ff" points="504.16,-137.2 513.44,-132.09 502.99,-130.3 504.16,-137.2"/>
</a>
</g>
</g>
<!-- Node11 -->
<g id="Node000011" class="node">
<title>Node11</title>
<g id="a_Node000011"><a xlink:href="class_web_socket_session.html#a0fed81151d5dcbe23dbee79f1bf12c66" target="_top" xlink:title="Handle write completion.">
<polygon fill="white" stroke="#666666" points="301.25,-52.95 183.25,-52.95 183.25,-20.95 301.25,-20.95 301.25,-52.95"/>
<text xml:space="preserve" text-anchor="start" x="191.25" y="-39.45" font-family="Helvetica,sans-Serif" font-size="10.00">WebSocketSession::on</text>
<text xml:space="preserve" text-anchor="middle" x="242.25" y="-27.45" font-family="Helvetica,sans-Serif" font-size="10.00">_write</text>
</a>
</g>
</g>
<!-- Node8&#45;&gt;Node11 -->
<g id="edge11_Node000008_Node000011" class="edge">
<title>Node8&#45;&gt;Node11</title>
<g id="a_edge11_Node000008_Node000011"><a xlink:title=" ">
<path fill="none" stroke="#63b8ff" d="M503.37,-123.33C453.36,-120.16 390.53,-112.37 337.25,-93.95 310.19,-84.59 282.57,-66.63 264.34,-53.36"/>
<polygon fill="#63b8ff" stroke="#63b8ff" points="503.12,-126.82 513.31,-123.9 503.53,-119.83 503.12,-126.82"/>
</a>
</g>
</g>
<!-- Node9&#45;&gt;Node8 -->
<g id="edge10_Node000009_Node000008" class="edge">
<title>Node9&#45;&gt;Node8</title>
<g id="a_edge10_Node000009_Node000008"><a xlink:title=" ">
<path fill="none" stroke="#63b8ff" d="M478.74,-151.4C507.66,-146.83 539.71,-140.77 562.45,-135.4"/>
<polygon fill="#63b8ff" stroke="#63b8ff" points="478.28,-147.93 468.92,-152.9 479.34,-154.85 478.28,-147.93"/>
</a>
</g>
</g>
<!-- Node10 -->
<g id="Node000010" class="node">
<title>Node10</title>
<g id="a_Node000010"><a xlink:href="class_web_socket_session.html#a24aad98befc1c2d007af7a64bee4864f" target="_top" xlink:title="Perform broadcast write operation (called on strand).">
<polygon fill="white" stroke="#666666" points="301.25,-172.95 183.25,-172.95 183.25,-140.95 301.25,-140.95 301.25,-172.95"/>
<text xml:space="preserve" text-anchor="start" x="191.25" y="-159.45" font-family="Helvetica,sans-Serif" font-size="10.00">WebSocketSession::do</text>
<text xml:space="preserve" text-anchor="middle" x="242.25" y="-147.45" font-family="Helvetica,sans-Serif" font-size="10.00">_broadcast</text>
</a>
</g>
</g>
<!-- Node9&#45;&gt;Node10 -->
<g id="edge9_Node000009_Node000010" class="edge">
<title>Node9&#45;&gt;Node10</title>
<g id="a_edge9_Node000009_Node000010"><a xlink:title=" ">
<path fill="none" stroke="#63b8ff" d="M337.62,-156.95C325.63,-156.95 313.28,-156.95 301.62,-156.95"/>
<polygon fill="#63b8ff" stroke="#63b8ff" points="337.45,-160.45 347.45,-156.95 337.45,-153.45 337.45,-160.45"/>
</a>
</g>
</g>
<!-- Node11&#45;&gt;Node7 -->
<g id="edge12_Node000011_Node000007" class="edge">
<title>Node11&#45;&gt;Node7</title>
<g id="a_edge12_Node000011_Node000007"><a xlink:title=" ">
<path fill="none" stroke="#63b8ff" d="M312.88,-21.21C398.92,-4.63 549.02,14.91 672.25,-17.95 710.67,-28.19 749.63,-55.44 769.15,-70.53"/>
<polygon fill="#63b8ff" stroke="#63b8ff" points="312.31,-17.76 303.18,-23.13 313.66,-24.62 312.31,-17.76"/>
</a>
</g>
</g>
<!-- Node12 -->
<g id="Node000012" class="node">
<title>Node12</title>
<g id="a_Node000012"><a xlink:href="class_web_socket_session.html#a6c789e228fc7a6101f1e586dc67ad8da" target="_top" xlink:title="Send a plain text response to this client (for FIL DIR etc.).">
<polygon fill="white" stroke="#666666" points="147.25,-52.95 0,-52.95 0,-20.95 147.25,-20.95 147.25,-52.95"/>
<text xml:space="preserve" text-anchor="start" x="8" y="-39.45" font-family="Helvetica,sans-Serif" font-size="10.00">WebSocketSession::sendText</text>
<text xml:space="preserve" text-anchor="middle" x="73.62" y="-27.45" font-family="Helvetica,sans-Serif" font-size="10.00">Response</text>
</a>
</g>
</g>
<!-- Node11&#45;&gt;Node12 -->
<g id="edge13_Node000011_Node000012" class="edge">
<title>Node11&#45;&gt;Node12</title>
<g id="a_edge13_Node000011_Node000012"><a xlink:title=" ">
<path fill="none" stroke="#63b8ff" d="M171.51,-36.95C163.58,-36.95 155.49,-36.95 147.52,-36.95"/>
<polygon fill="#63b8ff" stroke="#63b8ff" points="171.46,-40.45 181.46,-36.95 171.46,-33.45 171.46,-40.45"/>
</a>
</g>
</g>
<!-- Node14 -->
<g id="Node000014" class="node">
<title>Node14</title>
<g id="a_Node000014"><a xlink:href="class_web_socket_session.html#aa60a520432526e90b74fd97713469a56" target="_top" xlink:title="Start the session by accepting WebSocket handshake.">
<polygon fill="white" stroke="#666666" points="468.75,-84.95 347.75,-84.95 347.75,-64.95 468.75,-64.95 468.75,-84.95"/>
<text xml:space="preserve" text-anchor="middle" x="408.25" y="-71.45" font-family="Helvetica,sans-Serif" font-size="10.00">WebSocketSession::run</text>
</a>
</g>
</g>
<!-- Node13&#45;&gt;Node14 -->
<g id="edge15_Node000013_Node000014" class="edge">
<title>Node13&#45;&gt;Node14</title>
<g id="a_edge15_Node000013_Node000014"><a xlink:title=" ">
<path fill="none" stroke="#63b8ff" d="M522.95,-78.66C505.17,-78.08 486.22,-77.46 468.99,-76.9"/>
<polygon fill="#63b8ff" stroke="#63b8ff" points="522.82,-82.16 532.92,-78.99 523.04,-75.16 522.82,-82.16"/>
</a>
</g>
</g>
<!-- Node16 -->
<g id="Node000016" class="node">
<title>Node16</title>
<g id="a_Node000016"><a xlink:href="class_web_socket_session.html#a2bc079950c2e39e8ff745f0da57646ba" target="_top" xlink:title="Initiate async read for next client message.">
<polygon fill="white" stroke="#666666" points="479.25,-46.95 337.25,-46.95 337.25,-26.95 479.25,-26.95 479.25,-46.95"/>
<text xml:space="preserve" text-anchor="middle" x="408.25" y="-33.45" font-family="Helvetica,sans-Serif" font-size="10.00">WebSocketSession::do_read</text>
</a>
</g>
</g>
<!-- Node15&#45;&gt;Node16 -->
<g id="edge17_Node000015_Node000016" class="edge">
<title>Node15&#45;&gt;Node16</title>
<g id="a_edge17_Node000015_Node000016"><a xlink:title=" ">
<path fill="none" stroke="#63b8ff" d="M511.01,-30.23C500.49,-30.16 489.8,-30.2 479.48,-30.36"/>
<polygon fill="#63b8ff" stroke="#63b8ff" points="510.78,-33.73 520.82,-30.34 510.86,-26.73 510.78,-33.73"/>
</a>
</g>
</g>
<!-- Node16&#45;&gt;Node11 -->
<g id="edge19_Node000016_Node000011" class="edge">
<title>Node16&#45;&gt;Node11</title>
<g id="a_edge19_Node000016_Node000011"><a xlink:title=" ">
<path fill="none" stroke="#63b8ff" d="M325.77,-36.95C317.65,-36.95 309.52,-36.95 301.7,-36.95"/>
<polygon fill="#63b8ff" stroke="#63b8ff" points="325.71,-40.45 335.71,-36.95 325.71,-33.45 325.71,-40.45"/>
</a>
</g>
</g>
<!-- Node16&#45;&gt;Node15 -->
<g id="edge18_Node000016_Node000015" class="edge">
<title>Node16&#45;&gt;Node15</title>
<g id="a_edge18_Node000016_Node000015"><a xlink:title=" ">
<path fill="none" stroke="#63b8ff" d="M490.8,-43.66C501.31,-43.73 512.01,-43.69 522.33,-43.53"/>
<polygon fill="#63b8ff" stroke="#63b8ff" points="491.04,-40.16 481,-43.54 490.96,-47.16 491.04,-40.16"/>
</a>
</g>
</g>
</g>
</svg>

<g id="navigator" transform="translate(0 0)" fill="#404254">
  <rect fill="#f2f5e9" fill-opacity="0.5" stroke="#606060" stroke-width=".5" x="0" y="0" width="60" height="60"/>
  <use id="zoomplus" xlink:href="#zoomPlus" x="17" y="9" onmousedown="handleZoom(evt,'in')"/>
  <use id="zoomminus" xlink:href="#zoomMin" x="42" y="9" onmousedown="handleZoom(evt,'out')"/>
  <use id="reset" xlink:href="#resetDef" x="30" y="36" onmousedown="handleReset()"/>
   <use id="arrowup" xlink:href="#arrowUp" x="0" y="0" onmousedown="handlePan(0,-1)"/>
  <use id="arrowright" xlink:href="#arrowRight" x="0" y="0" onmousedown="handlePan(1,0)"/>
  <use id="arrowdown" xlink:href="#arrowDown" x="0" y="0" onmousedown="handlePan(0,1)"/>
  <use id="arrowleft" xlink:href="#arrowLeft" x="0" y="0" onmousedown="handlePan(-1,0)"/>
</g>
<svg viewBox="0 0 15 15" width="100%" height="30px" preserveAspectRatio="xMaxYMin meet">
 <g id="arrow_out" transform="scale(0.3 0.3)">
  <a xlink:href="namespaceasn__tlv_a03c61eaf7c30d4bb4e8f50d6cd2f5f03_icgraph_org.svg" target="_base">
   <rect id="button" ry="5" rx="5" y="6" x="6" height="38" width="38"
        fill="#f2f5e9" fill-opacity="0.5" stroke="#606060" stroke-width="1.0"/>
   <path id="arrow"
     d="M 11.500037,31.436501 C 11.940474,20.09759 22.043105,11.32322 32.158766,21.979434 L 37.068811,17.246167 C 37.068811,17.246167 37.088388,32 37.088388,32 L 22.160133,31.978069 C 22.160133,31.978069 26.997745,27.140456 26.997745,27.140456 C 18.528582,18.264221 13.291696,25.230495 11.500037,31.436501 z"
     style="fill:#404040;"/>
  </a>
 </g>
</svg>

<style type='text/css'>
<![CDATA[
[data-mouse-over-selected='false'] { opacity: 0.7; }
[data-mouse-over-selected='true']  { opacity: 1.0; }
]]>
</style>
<script type="application/ecmascript"><![CDATA[
document.addEventListener('DOMContentLoaded', (event) => {
  highlightEdges();
  highlightAdjacentNodes();
});
]]></script>
</svg>
