<?xml version="1.0" encoding="UTF-8" standalone="no"?>
<!DOCTYPE svg PUBLIC "-//W3C//DTD SVG 1.1//EN"
 "http://www.w3.org/Graphics/SVG/1.1/DTD/svg11.dtd">
<!-- Generated by graphviz version 14.1.2 (20260124.0452)
 -->
<!-- Title: password_manager.hpp Pages: 1 -->
<!--zoomable 252 -->

<svg id="main" version="1.1" xmlns="http://www.w3.org/2000/svg" xmlns:xlink="http://www.w3.org/1999/xlink" xml:space="preserve" onload="init(evt)">

<style type="text/css"><![CDATA[
.node, .edge {opacity: 0.7;}
.node.selected, .edge.selected {opacity: 1;}
.edge:hover path { stroke: red; }
.edge:hover polygon { stroke: red; fill: red; }
]]></style>

<defs>
  <circle id="rim" cx="0" cy="0" r="7"/>
  <circle id="rim2" cx="0" cy="0" r="3.5"/>
  <g id="zoomPlus">
    <use xlink:href="#rim" fill="#404040"><set attributeName="fill" to="#808080" begin="zoomplus.mouseover" end="zoomplus.mouseout"/></use>
    <path d="M-4,0h8M0,-4v8" fill="none" stroke="white" stroke-width="1.5" pointer-events="none"/>
  </g>
  <g id="zoomMin">
    <use xlink:href="#rim" fill="#404040"><set attributeName="fill" to="#808080" begin="zoomminus.mouseover" end="zoomminus.mouseout"/></use>
    <path d="M-4,0h8" fill="none" stroke="white" stroke-width="1.5" pointer-events="none"/>
  </g>
  <g id="arrowUp" transform="translate(30 24)">
    <use xlink:href="#rim"/>
    <path pointer-events="none" fill="none" stroke="white" stroke-width="1.5" d="M0,-3.0v7 M-2.5,-0.5L0,-3.0L2.5,-0.5"/>
  </g>
  <g id="arrowRight" transform="rotate(90) translate(36 -43)">
    <use xlink:href="#rim"/>
    <path pointer-events="none" fill="none" stroke="white" stroke-width="1.5" d="M0,-3.0v7 M-2.5,-0.5L0,-3.0L2.5,-0.5"/>
  </g>
  <g id="arrowDown" transform="rotate(180) translate(-30 -48)">
    <use xlink:href="#rim"/>
    <path pointer-events="none" fill="none" stroke="white" stroke-width="1.5" d="M0,-3.0v7 M-2.5,-0.5L0,-3.0L2.5,-0.5"/>
  </g>
  <g id="arrowLeft" transform="rotate(270) translate(-36 17)">
    <use xlink:href="#rim"/>
    <path pointer-events="none" fill="none" stroke="white" stroke-width="1.5" d="M0,-3.0v7 M-2.5,-0.5L0,-3.0L2.5,-0.5"/>
  </g>
  <g id="resetDef">
    <use xlink:href="#rim2" fill="#404040"><set attributeName="fill" to="#808080" begin="reset.mouseover" end="reset.mouseout"/></use>
  </g>
</defs>
<script type="application/ecmascript">
var viewWidth = 848;
var viewHeight = 252;
var sectionId = 'dynsection-0';
</script>
<script type="application/ecmascript" xlink:href="svg.min.js"/>
<svg id="graph" class="graph">
<g id="viewport">
<title>password_manager.hpp</title>
<!-- Node1 -->
<g id="Node000001" class="node">
<title>Node1</title>
<g id="a_Node000001"><a xlink:title="Password management for relay LEVEL1 / LEVEL2 password changes.">
<polygon fill="#999999" stroke="#666666" points="713.41,-244 593.91,-244 593.91,-224 713.41,-224 713.41,-244"/>
<text xml:space="preserve" text-anchor="middle" x="653.66" y="-230.5" font-family="Helvetica,sans-Serif" font-size="10.00">password_manager.hpp</text>
</a>
</g>
</g>
<!-- Node2 -->
<g id="Node000002" class="node">
<title>Node2</title>
<g id="a_Node000002"><a xlink:href="dll__export_8hpp.html" target="_top" xlink:title="DLL Export/Import Macros for Windows.">
<polygon fill="white" stroke="#666666" points="98.04,-20 21.29,-20 21.29,0 98.04,0 98.04,-20"/>
<text xml:space="preserve" text-anchor="middle" x="59.66" y="-6.5" font-family="Helvetica,sans-Serif" font-size="10.00">dll_export.hpp</text>
</a>
</g>
</g>
<!-- Node1&#45;&gt;Node2 -->
<g id="edge1_Node000001_Node000002" class="edge">
<title>Node1&#45;&gt;Node2</title>
<g id="a_edge1_Node000001_Node000002"><a xlink:title=" ">
<path fill="none" stroke="#63b8ff" d="M593.65,-232.7C503.71,-231.02 329.19,-223.04 185.66,-188 93.03,-165.39 33.83,-166.12 2.66,-76 -0.24,-67.6 -1.21,-64 2.66,-56 8.6,-43.75 19.67,-33.83 30.48,-26.45"/>
<polygon fill="#63b8ff" stroke="#63b8ff" points="32.27,-29.46 38.9,-21.2 28.56,-23.52 32.27,-29.46"/>
</a>
</g>
</g>
<!-- Node3 -->
<g id="Node000003" class="node">
<title>Node3</title>
<g id="a_Node000003"><a xlink:href="relay__service_8hpp.html" target="_top" xlink:title="Thread&#45;safe relay communication service for DATE operations.">
<polygon fill="white" stroke="#666666" points="416.91,-188 324.41,-188 324.41,-168 416.91,-168 416.91,-188"/>
<text xml:space="preserve" text-anchor="middle" x="370.66" y="-174.5" font-family="Helvetica,sans-Serif" font-size="10.00">relay_service.hpp</text>
</a>
</g>
</g>
<!-- Node1&#45;&gt;Node3 -->
<g id="edge2_Node000001_Node000003" class="edge">
<title>Node1&#45;&gt;Node3</title>
<g id="a_edge2_Node000001_Node000003"><a xlink:title=" ">
<path fill="none" stroke="#63b8ff" d="M604.05,-223.53C555.12,-214.2 480.37,-199.93 428.71,-190.08"/>
<polygon fill="#63b8ff" stroke="#63b8ff" points="429.37,-186.64 418.89,-188.2 428.06,-193.51 429.37,-186.64"/>
</a>
</g>
</g>
<!-- Node4 -->
<g id="Node000004" class="node">
<title>Node4</title>
<g id="a_Node000004"><a xlink:href="asn__tlv__codec_8hpp.html" target="_top" xlink:title="ASN.1 BER/TLV codec for SER record payloads.">
<polygon fill="white" stroke="#666666" points="616.54,-132 518.79,-132 518.79,-112 616.54,-112 616.54,-132"/>
<text xml:space="preserve" text-anchor="middle" x="567.66" y="-118.5" font-family="Helvetica,sans-Serif" font-size="10.00">asn_tlv_codec.hpp</text>
</a>
</g>
</g>
<!-- Node1&#45;&gt;Node4 -->
<g id="edge29_Node000001_Node000004" class="edge">
<title>Node1&#45;&gt;Node4</title>
<g id="a_edge29_Node000001_Node000004"><a xlink:title=" ">
<path fill="none" stroke="#63b8ff" d="M646.33,-223.62C632.12,-205.44 600.57,-165.09 582.04,-141.38"/>
<polygon fill="#63b8ff" stroke="#63b8ff" points="584.83,-139.27 575.91,-133.55 579.31,-143.58 584.83,-139.27"/>
</a>
</g>
</g>
<!-- Node6 -->
<g id="Node000006" class="node">
<title>Node6</title>
<g id="a_Node000006"><a xlink:title=" ">
<polygon fill="#e0e0e0" stroke="#999999" points="668.29,-76 623.04,-76 623.04,-56 668.29,-56 668.29,-76"/>
<text xml:space="preserve" text-anchor="middle" x="645.66" y="-62.5" font-family="Helvetica,sans-Serif" font-size="10.00">cstdint</text>
</a>
</g>
</g>
<!-- Node1&#45;&gt;Node6 -->
<g id="edge30_Node000001_Node000006" class="edge">
<title>Node1&#45;&gt;Node6</title>
<g id="a_edge30_Node000001_Node000006"><a xlink:title=" ">
<path fill="none" stroke="#63b8ff" d="M653.21,-223.6C651.95,-197.46 648.39,-123.48 646.65,-87.36"/>
<polygon fill="#63b8ff" stroke="#63b8ff" points="650.16,-87.63 646.19,-77.81 643.17,-87.97 650.16,-87.63"/>
</a>
</g>
</g>
<!-- Node7 -->
<g id="Node000007" class="node">
<title>Node7</title>
<g id="a_Node000007"><a xlink:title=" ">
<polygon fill="#e0e0e0" stroke="#999999" points="281.66,-20 241.66,-20 241.66,0 281.66,0 281.66,-20"/>
<text xml:space="preserve" text-anchor="middle" x="261.66" y="-6.5" font-family="Helvetica,sans-Serif" font-size="10.00">string</text>
</a>
</g>
</g>
<!-- Node1&#45;&gt;Node7 -->
<g id="edge33_Node000001_Node000007" class="edge">
<title>Node1&#45;&gt;Node7</title>
<g id="a_edge33_Node000001_Node000007"><a xlink:title=" ">
<path fill="none" stroke="#63b8ff" d="M593.62,-229.13C444.67,-218.01 66.21,-179.78 10.66,-76 6.47,-68.16 4.96,-62.82 10.66,-56 38.3,-22.97 168.87,-14.16 229.98,-11.83"/>
<polygon fill="#63b8ff" stroke="#63b8ff" points="229.84,-15.33 239.71,-11.49 229.6,-8.34 229.84,-15.33"/>
</a>
</g>
</g>
<!-- Node8 -->
<g id="Node000008" class="node">
<title>Node8</title>
<g id="a_Node000008"><a xlink:title=" ">
<polygon fill="#e0e0e0" stroke="#999999" points="587.16,-20 544.16,-20 544.16,0 587.16,0 587.16,-20"/>
<text xml:space="preserve" text-anchor="middle" x="565.66" y="-6.5" font-family="Helvetica,sans-Serif" font-size="10.00">vector</text>
</a>
</g>
</g>
<!-- Node1&#45;&gt;Node8 -->
<g id="edge34_Node000001_Node000008" class="edge">
<title>Node1&#45;&gt;Node8</title>
<g id="a_edge34_Node000001_Node000008"><a xlink:title=" ">
<path fill="none" stroke="#63b8ff" d="M686.75,-223.65C704.29,-216.82 724.3,-205.61 734.66,-188 764.42,-137.44 770.41,-102.52 734.66,-56 718.22,-34.61 643.17,-21.23 598.8,-15.05"/>
<polygon fill="#63b8ff" stroke="#63b8ff" points="599.32,-11.59 588.94,-13.73 598.39,-18.53 599.32,-11.59"/>
</a>
</g>
</g>
<!-- Node10 -->
<g id="Node000010" class="node">
<title>Node10</title>
<g id="a_Node000010"><a xlink:title=" ">
<polygon fill="#e0e0e0" stroke="#999999" points="488.29,-20 437.04,-20 437.04,0 488.29,0 488.29,-20"/>
<text xml:space="preserve" text-anchor="middle" x="462.66" y="-6.5" font-family="Helvetica,sans-Serif" font-size="10.00">sstream</text>
</a>
</g>
</g>
<!-- Node1&#45;&gt;Node10 -->
<g id="edge32_Node000001_Node000010" class="edge">
<title>Node1&#45;&gt;Node10</title>
<g id="a_edge32_Node000001_Node000010"><a xlink:title=" ">
<path fill="none" stroke="#63b8ff" d="M659.22,-223.63C675.45,-194.93 719.12,-107.03 677.66,-56 666.5,-42.26 558.4,-24.77 499.87,-16.21"/>
<polygon fill="#63b8ff" stroke="#63b8ff" points="500.42,-12.75 490.02,-14.78 499.42,-19.68 500.42,-12.75"/>
</a>
</g>
</g>
<!-- Node19 -->
<g id="Node000019" class="node">
<title>Node19</title>
<g id="a_Node000019"><a xlink:title=" ">
<polygon fill="#e0e0e0" stroke="#999999" points="840.41,-188 786.91,-188 786.91,-168 840.41,-168 840.41,-188"/>
<text xml:space="preserve" text-anchor="middle" x="813.66" y="-174.5" font-family="Helvetica,sans-Serif" font-size="10.00">iostream</text>
</a>
</g>
</g>
<!-- Node1&#45;&gt;Node19 -->
<g id="edge31_Node000001_Node000019" class="edge">
<title>Node1&#45;&gt;Node19</title>
<g id="a_edge31_Node000001_Node000019"><a xlink:title=" ">
<path fill="none" stroke="#63b8ff" d="M681.53,-223.59C707.73,-214.75 747.14,-201.45 776.11,-191.68"/>
<polygon fill="#63b8ff" stroke="#63b8ff" points="776.86,-195.12 785.21,-188.6 774.62,-188.48 776.86,-195.12"/>
</a>
</g>
</g>
<!-- Node3&#45;&gt;Node2 -->
<g id="edge3_Node000003_Node000002" class="edge">
<title>Node3&#45;&gt;Node2</title>
<g id="a_edge3_Node000003_Node000002"><a xlink:title=" ">
<path fill="none" stroke="#63b8ff" d="M324.15,-175.41C267.98,-172.15 171.47,-162.22 94.66,-132 52.91,-115.57 31.84,-115.56 10.66,-76 0.99,-57.92 18.03,-39.45 34.61,-26.84"/>
<polygon fill="#63b8ff" stroke="#63b8ff" points="36.22,-29.99 42.36,-21.35 32.17,-24.27 36.22,-29.99"/>
</a>
</g>
</g>
<!-- Node3&#45;&gt;Node4 -->
<g id="edge4_Node000003_Node000004" class="edge">
<title>Node3&#45;&gt;Node4</title>
<g id="a_edge4_Node000003_Node000004"><a xlink:title=" ">
<path fill="none" stroke="#63b8ff" d="M404.98,-167.59C437.41,-158.71 486.27,-145.31 521.99,-135.52"/>
<polygon fill="#63b8ff" stroke="#63b8ff" points="522.9,-138.9 531.62,-132.88 521.05,-132.15 522.9,-138.9"/>
</a>
</g>
</g>
<!-- Node3&#45;&gt;Node6 -->
<g id="edge22_Node000003_Node000006" class="edge">
<title>Node3&#45;&gt;Node6</title>
<g id="a_edge22_Node000003_Node000006"><a xlink:title=" ">
<path fill="none" stroke="#63b8ff" d="M417.27,-174.5C482.22,-170.09 595.42,-158.71 625.66,-132 638.26,-120.88 643.03,-102.03 644.79,-87.49"/>
<polygon fill="#63b8ff" stroke="#63b8ff" points="648.27,-87.87 645.55,-77.63 641.29,-87.33 648.27,-87.87"/>
</a>
</g>
</g>
<!-- Node3&#45;&gt;Node7 -->
<g id="edge27_Node000003_Node000007" class="edge">
<title>Node3&#45;&gt;Node7</title>
<g id="a_edge27_Node000003_Node000007"><a xlink:title=" ">
<path fill="none" stroke="#63b8ff" d="M324.09,-173.04C296.69,-168.03 264.08,-156.85 246.66,-132 241.03,-123.97 251.42,-64.11 257.59,-31.7"/>
<polygon fill="#63b8ff" stroke="#63b8ff" points="261.01,-32.4 259.48,-21.92 254.14,-31.07 261.01,-32.4"/>
</a>
</g>
</g>
<!-- Node3&#45;&gt;Node8 -->
<g id="edge28_Node000003_Node000008" class="edge">
<title>Node3&#45;&gt;Node8</title>
<g id="a_edge28_Node000003_Node000008"><a xlink:title=" ">
<path fill="none" stroke="#63b8ff" d="M393.51,-167.66C410.93,-159.82 434.88,-147.43 452.66,-132 484.56,-104.33 480.31,-86.35 509.66,-56 519.76,-45.57 532.24,-35.32 542.87,-27.25"/>
<polygon fill="#63b8ff" stroke="#63b8ff" points="544.8,-30.17 550.76,-21.4 540.64,-24.54 544.8,-30.17"/>
</a>
</g>
</g>
<!-- Node3&#45;&gt;Node10 -->
<g id="edge26_Node000003_Node000010" class="edge">
<title>Node3&#45;&gt;Node10</title>
<g id="a_edge26_Node000003_Node000010"><a xlink:title=" ">
<path fill="none" stroke="#63b8ff" d="M390.67,-167.59C404.78,-159.94 423,-147.83 433.66,-132 454.42,-101.2 460.38,-57.18 462.05,-31.6"/>
<polygon fill="#63b8ff" stroke="#63b8ff" points="465.53,-32.04 462.51,-21.88 458.54,-31.7 465.53,-32.04"/>
</a>
</g>
</g>
<!-- Node13 -->
<g id="Node000013" class="node">
<title>Node13</title>
<g id="a_Node000013"><a xlink:href="client_8hpp.html" target="_top" xlink:title="Telnet Client for Substation Communication.">
<polygon fill="white" stroke="#666666" points="161.66,-132 103.66,-132 103.66,-112 161.66,-112 161.66,-132"/>
<text xml:space="preserve" text-anchor="middle" x="132.66" y="-118.5" font-family="Helvetica,sans-Serif" font-size="10.00">client.hpp</text>
</a>
</g>
</g>
<!-- Node3&#45;&gt;Node13 -->
<g id="edge16_Node000003_Node000013" class="edge">
<title>Node3&#45;&gt;Node13</title>
<g id="a_edge16_Node000003_Node000013"><a xlink:title=" ">
<path fill="none" stroke="#63b8ff" d="M328.94,-167.53C285,-157.56 216.31,-141.98 172.93,-132.14"/>
<polygon fill="#63b8ff" stroke="#63b8ff" points="173.95,-128.78 163.42,-129.98 172.4,-135.61 173.95,-128.78"/>
</a>
</g>
</g>
<!-- Node15 -->
<g id="Node000015" class="node">
<title>Node15</title>
<g id="a_Node000015"><a xlink:title=" ">
<polygon fill="#e0e0e0" stroke="#999999" points="239.29,-76 194.04,-76 194.04,-56 239.29,-56 239.29,-76"/>
<text xml:space="preserve" text-anchor="middle" x="216.66" y="-62.5" font-family="Helvetica,sans-Serif" font-size="10.00">chrono</text>
</a>
</g>
</g>
<!-- Node3&#45;&gt;Node15 -->
<g id="edge21_Node000003_Node000015" class="edge">
<title>Node3&#45;&gt;Node15</title>
<g id="a_edge21_Node000003_Node000015"><a xlink:title=" ">
<path fill="none" stroke="#63b8ff" d="M324,-169.92C282.72,-162.59 227.02,-149.72 213.66,-132 204.2,-119.44 205.92,-101.32 209.45,-87.4"/>
<polygon fill="#63b8ff" stroke="#63b8ff" points="212.77,-88.52 212.35,-77.94 206.07,-86.47 212.77,-88.52"/>
</a>
</g>
</g>
<!-- Node16 -->
<g id="Node000016" class="node">
<title>Node16</title>
<g id="a_Node000016"><a xlink:title=" ">
<polygon fill="#e0e0e0" stroke="#999999" points="295.66,-132 255.66,-132 255.66,-112 295.66,-112 295.66,-132"/>
<text xml:space="preserve" text-anchor="middle" x="275.66" y="-118.5" font-family="Helvetica,sans-Serif" font-size="10.00">ctime</text>
</a>
</g>
</g>
<!-- Node3&#45;&gt;Node16 -->
<g id="edge23_Node000003_Node000016" class="edge">
<title>Node3&#45;&gt;Node16</title>
<g id="a_edge23_Node000003_Node000016"><a xlink:title=" ">
<path fill="none" stroke="#63b8ff" d="M354.12,-167.59C339.77,-159.44 318.74,-147.48 302.06,-138"/>
<polygon fill="#63b8ff" stroke="#63b8ff" points="304.08,-135.13 293.66,-133.23 300.62,-141.21 304.08,-135.13"/>
</a>
</g>
</g>
<!-- Node17 -->
<g id="Node000017" class="node">
<title>Node17</title>
<g id="a_Node000017"><a xlink:title=" ">
<polygon fill="#e0e0e0" stroke="#999999" points="363.54,-132 313.79,-132 313.79,-112 363.54,-112 363.54,-132"/>
<text xml:space="preserve" text-anchor="middle" x="338.66" y="-118.5" font-family="Helvetica,sans-Serif" font-size="10.00">iomanip</text>
</a>
</g>
</g>
<!-- Node3&#45;&gt;Node17 -->
<g id="edge24_Node000003_Node000017" class="edge">
<title>Node3&#45;&gt;Node17</title>
<g id="a_edge24_Node000003_Node000017"><a xlink:title=" ">
<path fill="none" stroke="#63b8ff" d="M365.09,-167.59C360.91,-160.55 355.06,-150.67 349.92,-142"/>
<polygon fill="#63b8ff" stroke="#63b8ff" points="353.06,-140.42 344.95,-133.6 347.03,-143.99 353.06,-140.42"/>
</a>
</g>
</g>
<!-- Node18 -->
<g id="Node000018" class="node">
<title>Node18</title>
<g id="a_Node000018"><a xlink:title=" ">
<polygon fill="#e0e0e0" stroke="#999999" points="424.16,-132 381.16,-132 381.16,-112 424.16,-112 424.16,-132"/>
<text xml:space="preserve" text-anchor="middle" x="402.66" y="-118.5" font-family="Helvetica,sans-Serif" font-size="10.00">mutex</text>
</a>
</g>
</g>
<!-- Node3&#45;&gt;Node18 -->
<g id="edge25_Node000003_Node000018" class="edge">
<title>Node3&#45;&gt;Node18</title>
<g id="a_edge25_Node000003_Node000018"><a xlink:title=" ">
<path fill="none" stroke="#63b8ff" d="M376.24,-167.59C380.41,-160.55 386.27,-150.67 391.4,-142"/>
<polygon fill="#63b8ff" stroke="#63b8ff" points="394.3,-143.99 396.38,-133.6 388.27,-140.42 394.3,-143.99"/>
</a>
</g>
</g>
<!-- Node5 -->
<g id="Node000005" class="node">
<title>Node5</title>
<g id="a_Node000005"><a xlink:title=" ">
<polygon fill="#e0e0e0" stroke="#999999" points="566.79,-76 518.54,-76 518.54,-56 566.79,-56 566.79,-76"/>
<text xml:space="preserve" text-anchor="middle" x="542.66" y="-62.5" font-family="Helvetica,sans-Serif" font-size="10.00">cstddef</text>
</a>
</g>
</g>
<!-- Node4&#45;&gt;Node5 -->
<g id="edge5_Node000004_Node000005" class="edge">
<title>Node4&#45;&gt;Node5</title>
<g id="a_edge5_Node000004_Node000005"><a xlink:title=" ">
<path fill="none" stroke="#63b8ff" d="M563.31,-111.59C560.12,-104.7 555.67,-95.1 551.73,-86.57"/>
<polygon fill="#63b8ff" stroke="#63b8ff" points="554.98,-85.28 547.61,-77.67 548.63,-88.22 554.98,-85.28"/>
</a>
</g>
</g>
<!-- Node4&#45;&gt;Node6 -->
<g id="edge6_Node000004_Node000006" class="edge">
<title>Node4&#45;&gt;Node6</title>
<g id="a_edge6_Node000004_Node000006"><a xlink:title=" ">
<path fill="none" stroke="#63b8ff" d="M581.25,-111.59C592.7,-103.67 609.33,-92.16 622.82,-82.82"/>
<polygon fill="#63b8ff" stroke="#63b8ff" points="624.5,-85.91 630.73,-77.34 620.51,-80.16 624.5,-85.91"/>
</a>
</g>
</g>
<!-- Node4&#45;&gt;Node7 -->
<g id="edge7_Node000004_Node000007" class="edge">
<title>Node4&#45;&gt;Node7</title>
<g id="a_edge7_Node000004_Node000007"><a xlink:title=" ">
<path fill="none" stroke="#63b8ff" d="M518.66,-118.93C470.02,-115.2 394.41,-104.83 335.66,-76 312.27,-64.52 290.51,-43.68 276.73,-28.69"/>
<polygon fill="#63b8ff" stroke="#63b8ff" points="279.49,-26.53 270.23,-21.38 274.26,-31.18 279.49,-26.53"/>
</a>
</g>
</g>
<!-- Node4&#45;&gt;Node8 -->
<g id="edge8_Node000004_Node000008" class="edge">
<title>Node4&#45;&gt;Node8</title>
<g id="a_edge8_Node000004_Node000008"><a xlink:title=" ">
<path fill="none" stroke="#63b8ff" d="M570.16,-111.75C573.25,-99.15 577.85,-75.89 575.66,-56 574.77,-47.85 572.99,-39.02 571.18,-31.35"/>
<polygon fill="#63b8ff" stroke="#63b8ff" points="574.57,-30.5 568.71,-21.68 567.79,-32.23 574.57,-30.5"/>
</a>
</g>
</g>
<!-- Node9 -->
<g id="Node000009" class="node">
<title>Node9</title>
<g id="a_Node000009"><a xlink:href="ser__record_8hpp.html" target="_top" xlink:title="System Event Record (SER) data structure and parser.">
<polygon fill="white" stroke="#666666" points="424.91,-76 344.41,-76 344.41,-56 424.91,-56 424.91,-76"/>
<text xml:space="preserve" text-anchor="middle" x="384.66" y="-62.5" font-family="Helvetica,sans-Serif" font-size="10.00">ser_record.hpp</text>
</a>
</g>
</g>
<!-- Node4&#45;&gt;Node9 -->
<g id="edge9_Node000004_Node000009" class="edge">
<title>Node4&#45;&gt;Node9</title>
<g id="a_edge9_Node000004_Node000009"><a xlink:title=" ">
<path fill="none" stroke="#63b8ff" d="M535.79,-111.59C505.8,-102.74 460.66,-89.43 427.53,-79.65"/>
<polygon fill="#63b8ff" stroke="#63b8ff" points="428.82,-76.38 418.24,-76.91 426.84,-83.09 428.82,-76.38"/>
</a>
</g>
</g>
<!-- Node9&#45;&gt;Node2 -->
<g id="edge10_Node000009_Node000002" class="edge">
<title>Node9&#45;&gt;Node2</title>
<g id="a_edge10_Node000009_Node000002"><a xlink:title=" ">
<path fill="none" stroke="#63b8ff" d="M344.16,-58.27C284.69,-48.39 173.84,-29.97 109.47,-19.27"/>
<polygon fill="#63b8ff" stroke="#63b8ff" points="110.33,-15.87 99.89,-17.68 109.18,-22.78 110.33,-15.87"/>
</a>
</g>
</g>
<!-- Node9&#45;&gt;Node7 -->
<g id="edge11_Node000009_Node000007" class="edge">
<title>Node9&#45;&gt;Node7</title>
<g id="a_edge11_Node000009_Node000007"><a xlink:title=" ">
<path fill="none" stroke="#63b8ff" d="M363.24,-55.59C343.69,-47.01 314.57,-34.23 292.52,-24.55"/>
<polygon fill="#63b8ff" stroke="#63b8ff" points="293.98,-21.36 283.41,-20.55 291.16,-27.77 293.98,-21.36"/>
</a>
</g>
</g>
<!-- Node9&#45;&gt;Node8 -->
<g id="edge12_Node000009_Node000008" class="edge">
<title>Node9&#45;&gt;Node8</title>
<g id="a_edge12_Node000009_Node000008"><a xlink:title=" ">
<path fill="none" stroke="#63b8ff" d="M416.19,-55.59C448.9,-45.84 499.81,-30.65 532.95,-20.76"/>
<polygon fill="#63b8ff" stroke="#63b8ff" points="533.84,-24.15 542.42,-17.93 531.84,-17.44 533.84,-24.15"/>
</a>
</g>
</g>
<!-- Node9&#45;&gt;Node10 -->
<g id="edge13_Node000009_Node000010" class="edge">
<title>Node9&#45;&gt;Node10</title>
<g id="a_edge13_Node000009_Node000010"><a xlink:title=" ">
<path fill="none" stroke="#63b8ff" d="M398.25,-55.59C409.7,-47.67 426.33,-36.16 439.82,-26.82"/>
<polygon fill="#63b8ff" stroke="#63b8ff" points="441.5,-29.91 447.73,-21.34 437.51,-24.16 441.5,-29.91"/>
</a>
</g>
</g>
<!-- Node11 -->
<g id="Node000011" class="node">
<title>Node11</title>
<g id="a_Node000011"><a xlink:title=" ">
<polygon fill="#e0e0e0" stroke="#999999" points="355.54,-20 299.79,-20 299.79,0 355.54,0 355.54,-20"/>
<text xml:space="preserve" text-anchor="middle" x="327.66" y="-6.5" font-family="Helvetica,sans-Serif" font-size="10.00">algorithm</text>
</a>
</g>
</g>
<!-- Node9&#45;&gt;Node11 -->
<g id="edge14_Node000009_Node000011" class="edge">
<title>Node9&#45;&gt;Node11</title>
<g id="a_edge14_Node000009_Node000011"><a xlink:title=" ">
<path fill="none" stroke="#63b8ff" d="M374.74,-55.59C366.73,-48.01 355.25,-37.13 345.63,-28.02"/>
<polygon fill="#63b8ff" stroke="#63b8ff" points="348.24,-25.68 338.58,-21.34 343.43,-30.76 348.24,-25.68"/>
</a>
</g>
</g>
<!-- Node12 -->
<g id="Node000012" class="node">
<title>Node12</title>
<g id="a_Node000012"><a xlink:title=" ">
<polygon fill="#e0e0e0" stroke="#999999" points="419.29,-20 374.04,-20 374.04,0 419.29,0 419.29,-20"/>
<text xml:space="preserve" text-anchor="middle" x="396.66" y="-6.5" font-family="Helvetica,sans-Serif" font-size="10.00">cctype</text>
</a>
</g>
</g>
<!-- Node9&#45;&gt;Node12 -->
<g id="edge15_Node000009_Node000012" class="edge">
<title>Node9&#45;&gt;Node12</title>
<g id="a_edge15_Node000009_Node000012"><a xlink:title=" ">
<path fill="none" stroke="#63b8ff" d="M386.75,-55.59C388.23,-48.93 390.28,-39.75 392.12,-31.44"/>
<polygon fill="#63b8ff" stroke="#63b8ff" points="395.52,-32.3 394.27,-21.78 388.68,-30.78 395.52,-32.3"/>
</a>
</g>
</g>
<!-- Node13&#45;&gt;Node2 -->
<g id="edge17_Node000013_Node000002" class="edge">
<title>Node13&#45;&gt;Node2</title>
<g id="a_edge17_Node000013_Node000002"><a xlink:title=" ">
<path fill="none" stroke="#63b8ff" d="M130.66,-111.53C127.54,-98.26 120.59,-73.78 108.66,-56 101.43,-45.21 91.09,-35.21 81.77,-27.39"/>
<polygon fill="#63b8ff" stroke="#63b8ff" points="84.13,-24.8 74.13,-21.3 79.76,-30.27 84.13,-24.8"/>
</a>
</g>
</g>
<!-- Node13&#45;&gt;Node7 -->
<g id="edge19_Node000013_Node000007" class="edge">
<title>Node13&#45;&gt;Node7</title>
<g id="a_edge19_Node000013_Node000007"><a xlink:title=" ">
<path fill="none" stroke="#63b8ff" d="M138.49,-111.71C147.27,-98.23 164.98,-73 184.66,-56 198.62,-43.95 216.25,-33.37 231.13,-25.5"/>
<polygon fill="#63b8ff" stroke="#63b8ff" points="232.71,-28.62 240.03,-20.96 229.53,-22.39 232.71,-28.62"/>
</a>
</g>
</g>
<!-- Node14 -->
<g id="Node000014" class="node">
<title>Node14</title>
<g id="a_Node000014"><a xlink:title=" ">
<polygon fill="#e0e0e0" stroke="#999999" points="99.54,-76 19.79,-76 19.79,-56 99.54,-56 99.54,-76"/>
<text xml:space="preserve" text-anchor="middle" x="59.66" y="-62.5" font-family="Helvetica,sans-Serif" font-size="10.00">boost/asio.hpp</text>
</a>
</g>
</g>
<!-- Node13&#45;&gt;Node14 -->
<g id="edge18_Node000013_Node000014" class="edge">
<title>Node13&#45;&gt;Node14</title>
<g id="a_edge18_Node000013_Node000014"><a xlink:title=" ">
<path fill="none" stroke="#63b8ff" d="M119.95,-111.59C109.27,-103.7 93.79,-92.24 81.18,-82.92"/>
<polygon fill="#63b8ff" stroke="#63b8ff" points="83.57,-80.33 73.45,-77.2 79.41,-85.96 83.57,-80.33"/>
</a>
</g>
</g>
<!-- Node13&#45;&gt;Node15 -->
<g id="edge20_Node000013_Node000015" class="edge">
<title>Node13&#45;&gt;Node15</title>
<g id="a_edge20_Node000013_Node000015"><a xlink:title=" ">
<path fill="none" stroke="#63b8ff" d="M147.3,-111.59C159.75,-103.59 177.88,-91.93 192.48,-82.54"/>
<polygon fill="#63b8ff" stroke="#63b8ff" points="194.13,-85.65 200.65,-77.3 190.34,-79.76 194.13,-85.65"/>
</a>
</g>
</g>
</g>
</svg>

<g id="navigator" transform="translate(0 0)" fill="#404254">
  <rect fill="#f2f5e9" fill-opacity="0.5" stroke="#606060" stroke-width=".5" x="0" y="0" width="60" height="60"/>
  <use id="zoomplus" xlink:href="#zoomPlus" x="17" y="9" onmousedown="handleZoom(evt,'in')"/>
  <use id="zoomminus" xlink:href="#zoomMin" x="42" y="9" onmousedown="handleZoom(evt,'out')"/>
  <use id="reset" xlink:href="#resetDef" x="30" y="36" onmousedown="handleReset()"/>
   <use id="arrowup" xlink:href="#arrowUp" x="0" y="0" onmousedown="handlePan(0,-1)"/>
  <use id="arrowright" xlink:href="#arrowRight" x="0" y="0" onmousedown="handlePan(1,0)"/>
  <use id="arrowdown" xlink:href="#arrowDown" x="0" y="0" onmousedown="handlePan(0,1)"/>
  <use id="arrowleft" xlink:href="#arrowLeft" x="0" y="0" onmousedown="handlePan(-1,0)"/>
</g>
<svg viewBox="0 0 15 15" width="100%" height="30px" preserveAspectRatio="xMaxYMin meet">
 <g id="arrow_out" transform="scale(0.3 0.3)">
  <a xlink:href="password__manager_8hpp__incl_org.svg" target="_base">
   <rect id="button" ry="5" rx="5" y="6" x="6" height="38" width="38"
        fill="#f2f5e9" fill-opacity="0.5" stroke="#606060" stroke-width="1.0"/>
   <path id="arrow"
     d="M 11.500037,31.436501 C 11.940474,20.09759 22.043105,11.32322 32.158766,21.979434 L 37.068811,17.246167 C 37.068811,17.246167 37.088388,32 37.088388,32 L 22.160133,31.978069 C 22.160133,31.978069 26.997745,27.140456 26.997745,27.140456 C 18.528582,18.264221 13.291696,25.230495 11.500037,31.436501 z"
     style="fill:#404040;"/>
  </a>
 </g>
</svg>

<style type='text/css'>
<![CDATA[
[data-mouse-over-selected='false'] { opacity: 0.7; }
[data-mouse-over-selected='true']  { opacity: 1.0; }
]]>
</style>
<script type="application/ecmascript"><![CDATA[
document.addEventListener('DOMContentLoaded', (event) => {
  highlightEdges();
  highlightAdjacentNodes();
});
]]></script>
</svg>
