<?xml version="1.0" encoding="UTF-8" standalone="no"?>
<!DOCTYPE svg PUBLIC "-//W3C//DTD SVG 1.1//EN"
 "http://www.w3.org/Graphics/SVG/1.1/DTD/svg11.dtd">
<!-- Generated by graphviz version 14.1.2 (20260124.0452)
 -->
<!-- Title: relay_service.hpp Pages: 1 -->
<svg width="861pt" height="196pt"
 viewBox="0.00 0.00 861.00 196.00" xmlns="http://www.w3.org/2000/svg" xmlns:xlink="http://www.w3.org/1999/xlink">
<g id="graph0" class="graph" transform="scale(1 1) rotate(0) translate(4 192)">
<title>relay_service.hpp</title>
<!-- Node1 -->
<g id="Node000001" class="node">
<title>Node1</title>
<g id="a_Node000001"><a xlink:title="Thread&#45;safe relay communication service for DATE operations.">
<polygon fill="#999999" stroke="#666666" points="476.62,-188 384.12,-188 384.12,-168 476.62,-168 476.62,-188"/>
<text xml:space="preserve" text-anchor="middle" x="430.38" y="-174.5" font-family="Helvetica,sans-Serif" font-size="10.00">relay_service.hpp</text>
</a>
</g>
</g>
<!-- Node2 -->
<g id="Node000002" class="node">
<title>Node2</title>
<g id="a_Node000002"><a xlink:href="dll__export_8hpp.html" target="_top" xlink:title="DLL Export/Import Macros for Windows.">
<polygon fill="white" stroke="#666666" points="76.75,-20 0,-20 0,0 76.75,0 76.75,-20"/>
<text xml:space="preserve" text-anchor="middle" x="38.38" y="-6.5" font-family="Helvetica,sans-Serif" font-size="10.00">dll_export.hpp</text>
</a>
</g>
</g>
<!-- Node1&#45;&gt;Node2 -->
<g id="edge1_Node000001_Node000002" class="edge">
<title>Node1&#45;&gt;Node2</title>
<g id="a_edge1_Node000001_Node000002"><a xlink:title=" ">
<path fill="none" stroke="#63b8ff" d="M383.7,-175.36C324.55,-172.06 220.21,-162.09 136.38,-132 90.6,-115.57 67.69,-117.52 42.38,-76 34.26,-62.7 33.73,-44.88 34.96,-31.26"/>
<polygon fill="#63b8ff" stroke="#63b8ff" points="38.38,-32.06 36.22,-21.69 31.44,-31.15 38.38,-32.06"/>
</a>
</g>
</g>
<!-- Node3 -->
<g id="Node000003" class="node">
<title>Node3</title>
<g id="a_Node000003"><a xlink:href="asn__tlv__codec_8hpp.html" target="_top" xlink:title="ASN.1 BER/TLV codec for SER record payloads.">
<polygon fill="white" stroke="#666666" points="479.25,-132 381.5,-132 381.5,-112 479.25,-112 479.25,-132"/>
<text xml:space="preserve" text-anchor="middle" x="430.38" y="-118.5" font-family="Helvetica,sans-Serif" font-size="10.00">asn_tlv_codec.hpp</text>
</a>
</g>
</g>
<!-- Node1&#45;&gt;Node3 -->
<g id="edge2_Node000001_Node000003" class="edge">
<title>Node1&#45;&gt;Node3</title>
<g id="a_edge2_Node000001_Node000003"><a xlink:title=" ">
<path fill="none" stroke="#63b8ff" d="M430.38,-167.59C430.38,-161.01 430.38,-151.96 430.38,-143.73"/>
<polygon fill="#63b8ff" stroke="#63b8ff" points="433.88,-143.81 430.38,-133.81 426.88,-143.81 433.88,-143.81"/>
</a>
</g>
</g>
<!-- Node5 -->
<g id="Node000005" class="node">
<title>Node5</title>
<g id="a_Node000005"><a xlink:title=" ">
<polygon fill="#e0e0e0" stroke="#999999" points="350,-76 304.75,-76 304.75,-56 350,-56 350,-76"/>
<text xml:space="preserve" text-anchor="middle" x="327.38" y="-62.5" font-family="Helvetica,sans-Serif" font-size="10.00">cstdint</text>
</a>
</g>
</g>
<!-- Node1&#45;&gt;Node5 -->
<g id="edge20_Node000001_Node000005" class="edge">
<title>Node1&#45;&gt;Node5</title>
<g id="a_edge20_Node000001_Node000005"><a xlink:title=" ">
<path fill="none" stroke="#63b8ff" d="M416.03,-167.72C403.65,-159.29 385.7,-146.06 372.38,-132 359.12,-118 346.86,-99.8 338.5,-86.22"/>
<polygon fill="#63b8ff" stroke="#63b8ff" points="341.59,-84.57 333.46,-77.78 335.59,-88.16 341.59,-84.57"/>
</a>
</g>
</g>
<!-- Node6 -->
<g id="Node000006" class="node">
<title>Node6</title>
<g id="a_Node000006"><a xlink:title=" ">
<polygon fill="#e0e0e0" stroke="#999999" points="347.38,-20 307.38,-20 307.38,0 347.38,0 347.38,-20"/>
<text xml:space="preserve" text-anchor="middle" x="327.38" y="-6.5" font-family="Helvetica,sans-Serif" font-size="10.00">string</text>
</a>
</g>
</g>
<!-- Node1&#45;&gt;Node6 -->
<g id="edge25_Node000001_Node000006" class="edge">
<title>Node1&#45;&gt;Node6</title>
<g id="a_edge25_Node000001_Node000006"><a xlink:title=" ">
<path fill="none" stroke="#63b8ff" d="M405.24,-167.59C372.09,-153.55 315.56,-123.56 295.38,-76 288.41,-59.6 298.95,-41.45 309.75,-28.51"/>
<polygon fill="#63b8ff" stroke="#63b8ff" points="312.25,-30.97 316.4,-21.22 307.07,-26.25 312.25,-30.97"/>
</a>
</g>
</g>
<!-- Node7 -->
<g id="Node000007" class="node">
<title>Node7</title>
<g id="a_Node000007"><a xlink:title=" ">
<polygon fill="#e0e0e0" stroke="#999999" points="601.88,-20 558.88,-20 558.88,0 601.88,0 601.88,-20"/>
<text xml:space="preserve" text-anchor="middle" x="580.38" y="-6.5" font-family="Helvetica,sans-Serif" font-size="10.00">vector</text>
</a>
</g>
</g>
<!-- Node1&#45;&gt;Node7 -->
<g id="edge26_Node000001_Node000007" class="edge">
<title>Node1&#45;&gt;Node7</title>
<g id="a_edge26_Node000001_Node000007"><a xlink:title=" ">
<path fill="none" stroke="#63b8ff" d="M458.66,-167.57C494.7,-153.84 555.44,-124.54 581.38,-76 588.62,-62.43 587.87,-44.89 585.58,-31.45"/>
<polygon fill="#63b8ff" stroke="#63b8ff" points="589.07,-31.02 583.55,-21.97 582.22,-32.48 589.07,-31.02"/>
</a>
</g>
</g>
<!-- Node9 -->
<g id="Node000009" class="node">
<title>Node9</title>
<g id="a_Node000009"><a xlink:title=" ">
<polygon fill="#e0e0e0" stroke="#999999" points="676,-20 624.75,-20 624.75,0 676,0 676,-20"/>
<text xml:space="preserve" text-anchor="middle" x="650.38" y="-6.5" font-family="Helvetica,sans-Serif" font-size="10.00">sstream</text>
</a>
</g>
</g>
<!-- Node1&#45;&gt;Node9 -->
<g id="edge24_Node000001_Node000009" class="edge">
<title>Node1&#45;&gt;Node9</title>
<g id="a_edge24_Node000001_Node000009"><a xlink:title=" ">
<path fill="none" stroke="#63b8ff" d="M473.95,-167.51C499.1,-160.56 530.4,-149.26 554.38,-132 593.03,-104.17 624.26,-56.7 639.76,-30.25"/>
<polygon fill="#63b8ff" stroke="#63b8ff" points="642.76,-32.06 644.67,-21.64 636.68,-28.59 642.76,-32.06"/>
</a>
</g>
</g>
<!-- Node12 -->
<g id="Node000012" class="node">
<title>Node12</title>
<g id="a_Node000012"><a xlink:href="client_8hpp.html" target="_top" xlink:title="Telnet Client for Substation Communication.">
<polygon fill="white" stroke="#666666" points="203.38,-132 145.38,-132 145.38,-112 203.38,-112 203.38,-132"/>
<text xml:space="preserve" text-anchor="middle" x="174.38" y="-118.5" font-family="Helvetica,sans-Serif" font-size="10.00">client.hpp</text>
</a>
</g>
</g>
<!-- Node1&#45;&gt;Node12 -->
<g id="edge14_Node000001_Node000012" class="edge">
<title>Node1&#45;&gt;Node12</title>
<g id="a_edge14_Node000001_Node000012"><a xlink:title=" ">
<path fill="none" stroke="#63b8ff" d="M385.49,-167.53C337.24,-157.35 261.23,-141.32 214.78,-131.52"/>
<polygon fill="#63b8ff" stroke="#63b8ff" points="215.63,-128.13 205.13,-129.49 214.19,-134.98 215.63,-128.13"/>
</a>
</g>
</g>
<!-- Node14 -->
<g id="Node000014" class="node">
<title>Node14</title>
<g id="a_Node000014"><a xlink:title=" ">
<polygon fill="#e0e0e0" stroke="#999999" points="248,-76 202.75,-76 202.75,-56 248,-56 248,-76"/>
<text xml:space="preserve" text-anchor="middle" x="225.38" y="-62.5" font-family="Helvetica,sans-Serif" font-size="10.00">chrono</text>
</a>
</g>
</g>
<!-- Node1&#45;&gt;Node14 -->
<g id="edge19_Node000001_Node000014" class="edge">
<title>Node1&#45;&gt;Node14</title>
<g id="a_edge19_Node000001_Node000014"><a xlink:title=" ">
<path fill="none" stroke="#63b8ff" d="M383.68,-174.18C347.35,-169.86 297.39,-159.03 262.38,-132 247.45,-120.48 237.56,-101.12 231.78,-86.52"/>
<polygon fill="#63b8ff" stroke="#63b8ff" points="235.21,-85.71 228.53,-77.49 228.63,-88.09 235.21,-85.71"/>
</a>
</g>
</g>
<!-- Node15 -->
<g id="Node000015" class="node">
<title>Node15</title>
<g id="a_Node000015"><a xlink:title=" ">
<polygon fill="#e0e0e0" stroke="#999999" points="724.38,-132 684.38,-132 684.38,-112 724.38,-112 724.38,-132"/>
<text xml:space="preserve" text-anchor="middle" x="704.38" y="-118.5" font-family="Helvetica,sans-Serif" font-size="10.00">ctime</text>
</a>
</g>
</g>
<!-- Node1&#45;&gt;Node15 -->
<g id="edge21_Node000001_Node000015" class="edge">
<title>Node1&#45;&gt;Node15</title>
<g id="a_edge21_Node000001_Node000015"><a xlink:title=" ">
<path fill="none" stroke="#63b8ff" d="M477.04,-169.3C525.55,-161.04 603.59,-147.08 670.38,-132 671.2,-131.81 672.04,-131.62 672.88,-131.42"/>
<polygon fill="#63b8ff" stroke="#63b8ff" points="673.61,-134.85 682.47,-129.04 671.92,-128.06 673.61,-134.85"/>
</a>
</g>
</g>
<!-- Node16 -->
<g id="Node000016" class="node">
<title>Node16</title>
<g id="a_Node000016"><a xlink:title=" ">
<polygon fill="#e0e0e0" stroke="#999999" points="792.25,-132 742.5,-132 742.5,-112 792.25,-112 792.25,-132"/>
<text xml:space="preserve" text-anchor="middle" x="767.38" y="-118.5" font-family="Helvetica,sans-Serif" font-size="10.00">iomanip</text>
</a>
</g>
</g>
<!-- Node1&#45;&gt;Node16 -->
<g id="edge22_Node000001_Node000016" class="edge">
<title>Node1&#45;&gt;Node16</title>
<g id="a_edge22_Node000001_Node000016"><a xlink:title=" ">
<path fill="none" stroke="#63b8ff" d="M477.12,-171.7C534.66,-164.81 635.55,-151.56 731.17,-132.26"/>
<polygon fill="#63b8ff" stroke="#63b8ff" points="731.62,-135.74 740.72,-130.3 730.22,-128.88 731.62,-135.74"/>
</a>
</g>
</g>
<!-- Node17 -->
<g id="Node000017" class="node">
<title>Node17</title>
<g id="a_Node000017"><a xlink:title=" ">
<polygon fill="#e0e0e0" stroke="#999999" points="852.88,-132 809.88,-132 809.88,-112 852.88,-112 852.88,-132"/>
<text xml:space="preserve" text-anchor="middle" x="831.38" y="-118.5" font-family="Helvetica,sans-Serif" font-size="10.00">mutex</text>
</a>
</g>
</g>
<!-- Node1&#45;&gt;Node17 -->
<g id="edge23_Node000001_Node000017" class="edge">
<title>Node1&#45;&gt;Node17</title>
<g id="a_edge23_Node000001_Node000017"><a xlink:title=" ">
<path fill="none" stroke="#63b8ff" d="M477.06,-173.91C545.66,-168.8 677.79,-156.85 798.28,-132.35"/>
<polygon fill="#63b8ff" stroke="#63b8ff" points="798.97,-135.79 808.05,-130.33 797.55,-128.93 798.97,-135.79"/>
</a>
</g>
</g>
<!-- Node4 -->
<g id="Node000004" class="node">
<title>Node4</title>
<g id="a_Node000004"><a xlink:title=" ">
<polygon fill="#e0e0e0" stroke="#999999" points="454.5,-76 406.25,-76 406.25,-56 454.5,-56 454.5,-76"/>
<text xml:space="preserve" text-anchor="middle" x="430.38" y="-62.5" font-family="Helvetica,sans-Serif" font-size="10.00">cstddef</text>
</a>
</g>
</g>
<!-- Node3&#45;&gt;Node4 -->
<g id="edge3_Node000003_Node000004" class="edge">
<title>Node3&#45;&gt;Node4</title>
<g id="a_edge3_Node000003_Node000004"><a xlink:title=" ">
<path fill="none" stroke="#63b8ff" d="M430.38,-111.59C430.38,-105.01 430.38,-95.96 430.38,-87.73"/>
<polygon fill="#63b8ff" stroke="#63b8ff" points="433.88,-87.81 430.38,-77.81 426.88,-87.81 433.88,-87.81"/>
</a>
</g>
</g>
<!-- Node3&#45;&gt;Node5 -->
<g id="edge4_Node000003_Node000005" class="edge">
<title>Node3&#45;&gt;Node5</title>
<g id="a_edge4_Node000003_Node000005"><a xlink:title=" ">
<path fill="none" stroke="#63b8ff" d="M412.43,-111.59C396.73,-103.36 373.64,-91.26 355.49,-81.74"/>
<polygon fill="#63b8ff" stroke="#63b8ff" points="357.28,-78.73 346.8,-77.18 354.03,-84.93 357.28,-78.73"/>
</a>
</g>
</g>
<!-- Node3&#45;&gt;Node6 -->
<g id="edge5_Node000003_Node000006" class="edge">
<title>Node3&#45;&gt;Node6</title>
<g id="a_edge5_Node000003_Node000006"><a xlink:title=" ">
<path fill="none" stroke="#63b8ff" d="M421.59,-111.62C404.41,-93.27 366.11,-52.37 344,-28.75"/>
<polygon fill="#63b8ff" stroke="#63b8ff" points="346.56,-26.37 337.17,-21.46 341.45,-31.15 346.56,-26.37"/>
</a>
</g>
</g>
<!-- Node3&#45;&gt;Node7 -->
<g id="edge6_Node000003_Node000007" class="edge">
<title>Node3&#45;&gt;Node7</title>
<g id="a_edge6_Node000003_Node000007"><a xlink:title=" ">
<path fill="none" stroke="#63b8ff" d="M479.61,-115.27C507.12,-109.6 540.04,-98.35 561.38,-76 572.8,-64.03 577.41,-45.57 579.24,-31.38"/>
<polygon fill="#63b8ff" stroke="#63b8ff" points="582.69,-32.05 580.1,-21.78 575.72,-31.43 582.69,-32.05"/>
</a>
</g>
</g>
<!-- Node8 -->
<g id="Node000008" class="node">
<title>Node8</title>
<g id="a_Node000008"><a xlink:href="ser__record_8hpp.html" target="_top" xlink:title="System Event Record (SER) data structure and parser.">
<polygon fill="white" stroke="#666666" points="552.62,-76 472.12,-76 472.12,-56 552.62,-56 552.62,-76"/>
<text xml:space="preserve" text-anchor="middle" x="512.38" y="-62.5" font-family="Helvetica,sans-Serif" font-size="10.00">ser_record.hpp</text>
</a>
</g>
</g>
<!-- Node3&#45;&gt;Node8 -->
<g id="edge7_Node000003_Node000008" class="edge">
<title>Node3&#45;&gt;Node8</title>
<g id="a_edge7_Node000003_Node000008"><a xlink:title=" ">
<path fill="none" stroke="#63b8ff" d="M444.66,-111.59C456.81,-103.59 474.51,-91.93 488.77,-82.54"/>
<polygon fill="#63b8ff" stroke="#63b8ff" points="490.29,-85.73 496.72,-77.31 486.44,-79.89 490.29,-85.73"/>
</a>
</g>
</g>
<!-- Node8&#45;&gt;Node2 -->
<g id="edge8_Node000008_Node000002" class="edge">
<title>Node8&#45;&gt;Node2</title>
<g id="a_edge8_Node000008_Node000002"><a xlink:title=" ">
<path fill="none" stroke="#63b8ff" d="M471.77,-57.3C468.93,-56.83 466.11,-56.4 463.38,-56 328.29,-36.47 167.9,-21.77 88.32,-15.05"/>
<polygon fill="#63b8ff" stroke="#63b8ff" points="88.94,-11.59 78.68,-14.24 88.35,-18.56 88.94,-11.59"/>
</a>
</g>
</g>
<!-- Node8&#45;&gt;Node6 -->
<g id="edge9_Node000008_Node000006" class="edge">
<title>Node8&#45;&gt;Node6</title>
<g id="a_edge9_Node000008_Node000006"><a xlink:title=" ">
<path fill="none" stroke="#63b8ff" d="M480.15,-55.59C445.92,-45.6 392.19,-29.92 358.42,-20.06"/>
<polygon fill="#63b8ff" stroke="#63b8ff" points="359.82,-16.83 349.24,-17.38 357.86,-23.55 359.82,-16.83"/>
</a>
</g>
</g>
<!-- Node8&#45;&gt;Node7 -->
<g id="edge10_Node000008_Node000007" class="edge">
<title>Node8&#45;&gt;Node7</title>
<g id="a_edge10_Node000008_Node000007"><a xlink:title=" ">
<path fill="none" stroke="#63b8ff" d="M524.22,-55.59C534.07,-47.77 548.31,-36.46 559.98,-27.19"/>
<polygon fill="#63b8ff" stroke="#63b8ff" points="561.83,-30.2 567.48,-21.24 557.47,-24.72 561.83,-30.2"/>
</a>
</g>
</g>
<!-- Node8&#45;&gt;Node9 -->
<g id="edge11_Node000008_Node000009" class="edge">
<title>Node8&#45;&gt;Node9</title>
<g id="a_edge11_Node000008_Node000009"><a xlink:title=" ">
<path fill="none" stroke="#63b8ff" d="M536.41,-55.59C558.34,-47.01 591,-34.23 615.75,-24.55"/>
<polygon fill="#63b8ff" stroke="#63b8ff" points="616.7,-27.93 624.74,-21.03 614.15,-21.42 616.7,-27.93"/>
</a>
</g>
</g>
<!-- Node10 -->
<g id="Node000010" class="node">
<title>Node10</title>
<g id="a_Node000010"><a xlink:title=" ">
<polygon fill="#e0e0e0" stroke="#999999" points="540.25,-20 484.5,-20 484.5,0 540.25,0 540.25,-20"/>
<text xml:space="preserve" text-anchor="middle" x="512.38" y="-6.5" font-family="Helvetica,sans-Serif" font-size="10.00">algorithm</text>
</a>
</g>
</g>
<!-- Node8&#45;&gt;Node10 -->
<g id="edge12_Node000008_Node000010" class="edge">
<title>Node8&#45;&gt;Node10</title>
<g id="a_edge12_Node000008_Node000010"><a xlink:title=" ">
<path fill="none" stroke="#63b8ff" d="M512.38,-55.59C512.38,-49.01 512.38,-39.96 512.38,-31.73"/>
<polygon fill="#63b8ff" stroke="#63b8ff" points="515.88,-31.81 512.38,-21.81 508.88,-31.81 515.88,-31.81"/>
</a>
</g>
</g>
<!-- Node11 -->
<g id="Node000011" class="node">
<title>Node11</title>
<g id="a_Node000011"><a xlink:title=" ">
<polygon fill="#e0e0e0" stroke="#999999" points="466,-20 420.75,-20 420.75,0 466,0 466,-20"/>
<text xml:space="preserve" text-anchor="middle" x="443.38" y="-6.5" font-family="Helvetica,sans-Serif" font-size="10.00">cctype</text>
</a>
</g>
</g>
<!-- Node8&#45;&gt;Node11 -->
<g id="edge13_Node000008_Node000011" class="edge">
<title>Node8&#45;&gt;Node11</title>
<g id="a_edge13_Node000008_Node000011"><a xlink:title=" ">
<path fill="none" stroke="#63b8ff" d="M500.36,-55.59C490.36,-47.77 475.91,-36.46 464.07,-27.19"/>
<polygon fill="#63b8ff" stroke="#63b8ff" points="466.48,-24.64 456.45,-21.23 462.17,-30.15 466.48,-24.64"/>
</a>
</g>
</g>
<!-- Node12&#45;&gt;Node2 -->
<g id="edge15_Node000012_Node000002" class="edge">
<title>Node12&#45;&gt;Node2</title>
<g id="a_edge15_Node000012_Node000002"><a xlink:title=" ">
<path fill="none" stroke="#63b8ff" d="M145.03,-117.15C118.54,-112.15 80.29,-100.9 57.38,-76 46.17,-63.82 41.54,-45.38 39.65,-31.25"/>
<polygon fill="#63b8ff" stroke="#63b8ff" points="43.17,-31.33 38.73,-21.71 36.2,-32 43.17,-31.33"/>
</a>
</g>
</g>
<!-- Node12&#45;&gt;Node6 -->
<g id="edge17_Node000012_Node000006" class="edge">
<title>Node12&#45;&gt;Node6</title>
<g id="a_edge17_Node000012_Node000006"><a xlink:title=" ">
<path fill="none" stroke="#63b8ff" d="M174.5,-111.71C175.2,-97.77 178.55,-71.43 193.38,-56 220.4,-27.88 265.5,-17.33 295.83,-13.38"/>
<polygon fill="#63b8ff" stroke="#63b8ff" points="296,-16.88 305.55,-12.29 295.22,-9.92 296,-16.88"/>
</a>
</g>
</g>
<!-- Node13 -->
<g id="Node000013" class="node">
<title>Node13</title>
<g id="a_Node000013"><a xlink:title=" ">
<polygon fill="#e0e0e0" stroke="#999999" points="146.25,-76 66.5,-76 66.5,-56 146.25,-56 146.25,-76"/>
<text xml:space="preserve" text-anchor="middle" x="106.38" y="-62.5" font-family="Helvetica,sans-Serif" font-size="10.00">boost/asio.hpp</text>
</a>
</g>
</g>
<!-- Node12&#45;&gt;Node13 -->
<g id="edge16_Node000012_Node000013" class="edge">
<title>Node12&#45;&gt;Node13</title>
<g id="a_edge16_Node000012_Node000013"><a xlink:title=" ">
<path fill="none" stroke="#63b8ff" d="M162.53,-111.59C152.68,-103.77 138.44,-92.46 126.77,-83.19"/>
<polygon fill="#63b8ff" stroke="#63b8ff" points="129.28,-80.72 119.27,-77.24 124.92,-86.2 129.28,-80.72"/>
</a>
</g>
</g>
<!-- Node12&#45;&gt;Node14 -->
<g id="edge18_Node000012_Node000014" class="edge">
<title>Node12&#45;&gt;Node14</title>
<g id="a_edge18_Node000012_Node000014"><a xlink:title=" ">
<path fill="none" stroke="#63b8ff" d="M183.26,-111.59C190.28,-104.16 200.28,-93.58 208.77,-84.58"/>
<polygon fill="#63b8ff" stroke="#63b8ff" points="211.23,-87.07 215.55,-77.4 206.14,-82.27 211.23,-87.07"/>
</a>
</g>
</g>
</g>
</svg>
