<?xml version="1.0" encoding="UTF-8" standalone="no"?>
<!DOCTYPE svg PUBLIC "-//W3C//DTD SVG 1.1//EN"
 "http://www.w3.org/Graphics/SVG/1.1/DTD/svg11.dtd">
<!-- Generated by graphviz version 14.1.1 (20251213.1925)
 -->
<!-- Title: relay_pipeline.hpp Pages: 1 -->
<svg width="146pt" height="140pt"
 viewBox="0.00 0.00 146.00 140.00" xmlns="http://www.w3.org/2000/svg" xmlns:xlink="http://www.w3.org/1999/xlink">
<g id="graph0" class="graph" transform="scale(1 1) rotate(0) translate(4 136)">
<title>relay_pipeline.hpp</title>
<!-- Node1 -->
<g id="Node000001" class="node">
<title>Node1</title>
<g id="a_Node000001"><a xlink:title="Per&#45;relay processing pipeline for on&#45;demand relay connections.">
<polygon fill="#999999" stroke="#666666" points="134.25,-132 40.25,-132 40.25,-112 134.25,-112 134.25,-132"/>
<text xml:space="preserve" text-anchor="middle" x="87.25" y="-118.5" font-family="Helvetica,sans-Serif" font-size="10.00">relay_pipeline.hpp</text>
</a>
</g>
</g>
<!-- Node2 -->
<g id="Node000002" class="node">
<title>Node2</title>
<g id="a_Node000002"><a xlink:href="relay__manager_8hpp.html" target="_top" xlink:title="On&#45;demand coordinator for multiple relay pipelines.">
<polygon fill="white" stroke="#666666" points="98.5,-76 0,-76 0,-56 98.5,-56 98.5,-76"/>
<text xml:space="preserve" text-anchor="middle" x="49.25" y="-62.5" font-family="Helvetica,sans-Serif" font-size="10.00">relay_manager.hpp</text>
</a>
</g>
</g>
<!-- Node1&#45;&gt;Node2 -->
<g id="edge1_Node000001_Node000002" class="edge">
<title>Node1&#45;&gt;Node2</title>
<g id="a_edge1_Node000001_Node000002"><a xlink:title=" ">
<path fill="none" stroke="#63b8ff" d="M74.19,-102.44C67.98,-93.62 60.84,-83.47 55.79,-76.3"/>
<polygon fill="#63b8ff" stroke="#63b8ff" points="71.14,-104.19 79.76,-110.36 76.87,-100.16 71.14,-104.19"/>
</a>
</g>
</g>
<!-- Node3 -->
<g id="Node000003" class="node">
<title>Node3</title>
<g id="a_Node000003"><a xlink:href="telnet__sml__app_8cpp.html" target="_top" xlink:title="Telnet SML Application &#45; Main orchestrator implementation.">
<polygon fill="white" stroke="#666666" points="137.62,-20 36.88,-20 36.88,0 137.62,0 137.62,-20"/>
<text xml:space="preserve" text-anchor="middle" x="87.25" y="-6.5" font-family="Helvetica,sans-Serif" font-size="10.00">telnet_sml_app.cpp</text>
</a>
</g>
</g>
<!-- Node1&#45;&gt;Node3 -->
<g id="edge3_Node000001_Node000003" class="edge">
<title>Node1&#45;&gt;Node3</title>
<g id="a_edge3_Node000001_Node000003"><a xlink:title=" ">
<path fill="none" stroke="#63b8ff" d="M97.99,-101.62C101.7,-93.9 105.39,-84.77 107.25,-76 111.56,-55.67 100.49,-32.57 93.15,-20.12"/>
<polygon fill="#63b8ff" stroke="#63b8ff" points="94.94,-99.9 93.45,-110.39 101.16,-103.12 94.94,-99.9"/>
</a>
</g>
</g>
<!-- Node2&#45;&gt;Node3 -->
<g id="edge2_Node000002_Node000003" class="edge">
<title>Node2&#45;&gt;Node3</title>
<g id="a_edge2_Node000002_Node000003"><a xlink:title=" ">
<path fill="none" stroke="#63b8ff" d="M62.31,-46.44C68.52,-37.62 75.66,-27.47 80.71,-20.3"/>
<polygon fill="#63b8ff" stroke="#63b8ff" points="59.63,-44.16 56.74,-54.36 65.36,-48.19 59.63,-44.16"/>
</a>
</g>
</g>
</g>
</svg>
