<?xml version="1.0" encoding="UTF-8" standalone="no"?>
<!DOCTYPE svg PUBLIC "-//W3C//DTD SVG 1.1//EN"
 "http://www.w3.org/Graphics/SVG/1.1/DTD/svg11.dtd">
<!-- Generated by graphviz version 14.1.2 (20260124.0452)
 -->
<!-- Title: recordsToJsonTable Pages: 1 -->
<svg width="436pt" height="78pt"
 viewBox="0.00 0.00 436.00 78.00" xmlns="http://www.w3.org/2000/svg" xmlns:xlink="http://www.w3.org/1999/xlink">
<g id="graph0" class="graph" transform="scale(1 1) rotate(0) translate(4 74)">
<title>recordsToJsonTable</title>
<!-- Node1 -->
<g id="Node000001" class="node">
<title>Node1</title>
<g id="a_Node000001"><a xlink:title="Convert SER records to a JSON array string.">
<polygon fill="#999999" stroke="#666666" points="427.5,-48 324.5,-48 324.5,-28 427.5,-28 427.5,-48"/>
<text xml:space="preserve" text-anchor="middle" x="376" y="-34.5" font-family="Helvetica,sans-Serif" font-size="10.00">recordsToJsonTable</text>
</a>
</g>
</g>
<!-- Node2 -->
<g id="Node000002" class="node">
<title>Node2</title>
<g id="a_Node000002"><a xlink:href="class_shared_ser_reader.html#a9ca0e190a57fd3c195a860076ac729c7" target="_top" xlink:title="Main worker thread loop.">
<polygon fill="white" stroke="#666666" points="288.5,-70 154.75,-70 154.75,-50 288.5,-50 288.5,-70"/>
<text xml:space="preserve" text-anchor="middle" x="221.62" y="-56.5" font-family="Helvetica,sans-Serif" font-size="10.00">SharedSerReader::runLoop</text>
</a>
</g>
</g>
<!-- Node1&#45;&gt;Node2 -->
<g id="edge1_Node000001_Node000002" class="edge">
<title>Node1&#45;&gt;Node2</title>
<g id="a_edge1_Node000001_Node000002"><a xlink:title=" ">
<path fill="none" stroke="#63b8ff" d="M313.14,-46.93C305.14,-48.09 296.93,-49.27 288.87,-50.44"/>
<polygon fill="#63b8ff" stroke="#63b8ff" points="313.37,-50.44 322.76,-45.54 312.37,-43.51 313.37,-50.44"/>
</a>
</g>
</g>
<!-- Node4 -->
<g id="Node000004" class="node">
<title>Node4</title>
<g id="a_Node000004"><a xlink:href="class_telnet_sml_app_1_1_impl.html#a64957945d93500acea2140ec59b07802" target="_top" xlink:title="Seed database with test SER records when empty (relay unavailable).">
<polygon fill="white" stroke="#666666" points="272.38,-32 170.88,-32 170.88,0 272.38,0 272.38,-32"/>
<text xml:space="preserve" text-anchor="start" x="178.88" y="-18.5" font-family="Helvetica,sans-Serif" font-size="10.00">TelnetSmlApp::Impl</text>
<text xml:space="preserve" text-anchor="middle" x="221.62" y="-6.5" font-family="Helvetica,sans-Serif" font-size="10.00">::start</text>
</a>
</g>
</g>
<!-- Node1&#45;&gt;Node4 -->
<g id="edge3_Node000001_Node000004" class="edge">
<title>Node1&#45;&gt;Node4</title>
<g id="a_edge3_Node000001_Node000004"><a xlink:title=" ">
<path fill="none" stroke="#63b8ff" d="M313.13,-29.07C299.66,-27.12 285.57,-25.09 272.62,-23.22"/>
<polygon fill="#63b8ff" stroke="#63b8ff" points="312.37,-32.49 322.76,-30.46 313.37,-25.56 312.37,-32.49"/>
</a>
</g>
</g>
<!-- Node3 -->
<g id="Node000003" class="node">
<title>Node3</title>
<g id="a_Node000003"><a xlink:href="class_shared_ser_reader.html#aabd6c5c15122509fe63d3eef072ff6df" target="_top" xlink:title="Starts the worker thread.">
<polygon fill="white" stroke="#666666" points="118.75,-70 0,-70 0,-50 118.75,-50 118.75,-70"/>
<text xml:space="preserve" text-anchor="middle" x="59.38" y="-56.5" font-family="Helvetica,sans-Serif" font-size="10.00">SharedSerReader::start</text>
</a>
</g>
</g>
<!-- Node2&#45;&gt;Node3 -->
<g id="edge2_Node000002_Node000003" class="edge">
<title>Node2&#45;&gt;Node3</title>
<g id="a_edge2_Node000002_Node000003"><a xlink:title=" ">
<path fill="none" stroke="#63b8ff" d="M143.16,-60C135.08,-60 126.97,-60 119.15,-60"/>
<polygon fill="#63b8ff" stroke="#63b8ff" points="143.01,-63.5 153.01,-60 143.01,-56.5 143.01,-63.5"/>
</a>
</g>
</g>
</g>
</svg>
