<?xml version="1.0" encoding="UTF-8" standalone="no"?>
<!DOCTYPE svg PUBLIC "-//W3C//DTD SVG 1.1//EN"
 "http://www.w3.org/Graphics/SVG/1.1/DTD/svg11.dtd">
<!-- Generated by graphviz version 14.1.2 (20260124.0452)
 -->
<!-- Title: ser_record.hpp Pages: 1 -->
<svg width="717pt" height="252pt"
 viewBox="0.00 0.00 717.00 252.00" xmlns="http://www.w3.org/2000/svg" xmlns:xlink="http://www.w3.org/1999/xlink">
<g id="graph0" class="graph" transform="scale(1 1) rotate(0) translate(4 248)">
<title>ser_record.hpp</title>
<!-- Node1 -->
<g id="Node000001" class="node">
<title>Node1</title>
<g id="a_Node000001"><a xlink:title="System Event Record (SER) data structure and parser.">
<polygon fill="#999999" stroke="#666666" points="476.15,-244 395.65,-244 395.65,-224 476.15,-224 476.15,-244"/>
<text xml:space="preserve" text-anchor="middle" x="435.9" y="-230.5" font-family="Helvetica,sans-Serif" font-size="10.00">ser_record.hpp</text>
</a>
</g>
</g>
<!-- Node2 -->
<g id="Node000002" class="node">
<title>Node2</title>
<g id="a_Node000002"><a xlink:href="asn__tlv__codec_8hpp.html" target="_top" xlink:title="ASN.1 BER/TLV codec for SER record payloads.">
<polygon fill="white" stroke="#666666" points="229.77,-188 132.02,-188 132.02,-168 229.77,-168 229.77,-188"/>
<text xml:space="preserve" text-anchor="middle" x="180.9" y="-174.5" font-family="Helvetica,sans-Serif" font-size="10.00">asn_tlv_codec.hpp</text>
</a>
</g>
</g>
<!-- Node1&#45;&gt;Node2 -->
<g id="edge1_Node000001_Node000002" class="edge">
<title>Node1&#45;&gt;Node2</title>
<g id="a_edge1_Node000001_Node000002"><a xlink:title=" ">
<path fill="none" stroke="#63b8ff" d="M384.16,-222.04C337.63,-212.19 270,-197.87 225.73,-188.49"/>
<polygon fill="#63b8ff" stroke="#63b8ff" points="383.22,-225.42 393.73,-224.07 384.67,-218.57 383.22,-225.42"/>
</a>
</g>
</g>
<!-- Node7 -->
<g id="Node000007" class="node">
<title>Node7</title>
<g id="a_Node000007"><a xlink:href="telnet__fsm_8hpp.html" target="_top" xlink:title="Boost.SML Finite State Machine for Telnet Communication.">
<polygon fill="white" stroke="#666666" points="371.15,-132 290.65,-132 290.65,-112 371.15,-112 371.15,-132"/>
<text xml:space="preserve" text-anchor="middle" x="330.9" y="-118.5" font-family="Helvetica,sans-Serif" font-size="10.00">telnet_fsm.hpp</text>
</a>
</g>
</g>
<!-- Node1&#45;&gt;Node7 -->
<g id="edge23_Node000001_Node000007" class="edge">
<title>Node1&#45;&gt;Node7</title>
<g id="a_edge23_Node000001_Node000007"><a xlink:title=" ">
<path fill="none" stroke="#63b8ff" d="M413.53,-217.06C402.82,-208.94 390.13,-198.56 379.9,-188 362.39,-169.94 345.54,-145.57 336.89,-132.4"/>
<polygon fill="#63b8ff" stroke="#63b8ff" points="411.34,-219.8 421.46,-222.93 415.5,-214.17 411.34,-219.8"/>
</a>
</g>
</g>
<!-- Node9 -->
<g id="Node000009" class="node">
<title>Node9</title>
<g id="a_Node000009"><a xlink:href="ser__database_8hpp.html" target="_top" xlink:title="SQLite database handler for SER records.">
<polygon fill="white" stroke="#666666" points="482.52,-188 389.27,-188 389.27,-168 482.52,-168 482.52,-188"/>
<text xml:space="preserve" text-anchor="middle" x="435.9" y="-174.5" font-family="Helvetica,sans-Serif" font-size="10.00">ser_database.hpp</text>
</a>
</g>
</g>
<!-- Node1&#45;&gt;Node9 -->
<g id="edge14_Node000001_Node000009" class="edge">
<title>Node1&#45;&gt;Node9</title>
<g id="a_edge14_Node000001_Node000009"><a xlink:title=" ">
<path fill="none" stroke="#63b8ff" d="M435.9,-212.13C435.9,-203.9 435.9,-194.85 435.9,-188.3"/>
<polygon fill="#63b8ff" stroke="#63b8ff" points="432.4,-212.08 435.9,-222.08 439.4,-212.08 432.4,-212.08"/>
</a>
</g>
</g>
<!-- Node11 -->
<g id="Node000011" class="node">
<title>Node11</title>
<g id="a_Node000011"><a xlink:href="thread__manager_8hpp.html" target="_top" xlink:title="Thread management utilities for the Telnet&#45;SML application.">
<polygon fill="white" stroke="#666666" points="643.15,-132 538.65,-132 538.65,-112 643.15,-112 643.15,-132"/>
<text xml:space="preserve" text-anchor="middle" x="590.9" y="-118.5" font-family="Helvetica,sans-Serif" font-size="10.00">thread_manager.hpp</text>
</a>
</g>
</g>
<!-- Node1&#45;&gt;Node11 -->
<g id="edge24_Node000001_Node000011" class="edge">
<title>Node1&#45;&gt;Node11</title>
<g id="a_edge24_Node000001_Node000011"><a xlink:title=" ">
<path fill="none" stroke="#63b8ff" d="M458.36,-217.06C491.17,-193.77 551.2,-151.17 577.71,-132.35"/>
<polygon fill="#63b8ff" stroke="#63b8ff" points="456.47,-214.1 450.35,-222.75 460.53,-219.81 456.47,-214.1"/>
</a>
</g>
</g>
<!-- Node12 -->
<g id="Node000012" class="node">
<title>Node12</title>
<g id="a_Node000012"><a xlink:href="ser__json__writer_8hpp.html" target="_top" xlink:title="JSON serialization and file output for SER records.">
<polygon fill="white" stroke="#666666" points="709.27,-76 608.52,-76 608.52,-56 709.27,-56 709.27,-76"/>
<text xml:space="preserve" text-anchor="middle" x="658.9" y="-62.5" font-family="Helvetica,sans-Serif" font-size="10.00">ser_json_writer.hpp</text>
</a>
</g>
</g>
<!-- Node1&#45;&gt;Node12 -->
<g id="edge21_Node000001_Node000012" class="edge">
<title>Node1&#45;&gt;Node12</title>
<g id="a_edge21_Node000001_Node000012"><a xlink:title=" ">
<path fill="none" stroke="#63b8ff" d="M487.64,-223.86C538.3,-211.99 613.3,-186.02 651.9,-132 663.77,-115.38 662.41,-89.99 660.55,-76.39"/>
<polygon fill="#63b8ff" stroke="#63b8ff" points="487.08,-220.4 478.07,-225.99 488.59,-227.24 487.08,-220.4"/>
</a>
</g>
</g>
<!-- Node3 -->
<g id="Node000003" class="node">
<title>Node3</title>
<g id="a_Node000003"><a xlink:href="password__manager_8hpp.html" target="_top" xlink:title="Password management for relay LEVEL1 / LEVEL2 password changes.">
<polygon fill="white" stroke="#666666" points="139.65,-76 20.15,-76 20.15,-56 139.65,-56 139.65,-76"/>
<text xml:space="preserve" text-anchor="middle" x="79.9" y="-62.5" font-family="Helvetica,sans-Serif" font-size="10.00">password_manager.hpp</text>
</a>
</g>
</g>
<!-- Node2&#45;&gt;Node3 -->
<g id="edge2_Node000002_Node000003" class="edge">
<title>Node2&#45;&gt;Node3</title>
<g id="a_edge2_Node000002_Node000003"><a xlink:title=" ">
<path fill="none" stroke="#63b8ff" d="M121.07,-165.41C102.84,-158.77 84.76,-148.35 73.9,-132 62.61,-115.01 70.16,-89.78 75.64,-76.29"/>
<polygon fill="#63b8ff" stroke="#63b8ff" points="119.75,-168.66 130.34,-168.43 121.92,-162 119.75,-168.66"/>
</a>
</g>
</g>
<!-- Node4 -->
<g id="Node000004" class="node">
<title>Node4</title>
<g id="a_Node000004"><a xlink:href="telnet__sml__app_8cpp.html" target="_top" xlink:title="Telnet SML Application &#45; Main orchestrator implementation.">
<polygon fill="white" stroke="#666666" points="396.27,-20 295.52,-20 295.52,0 396.27,0 396.27,-20"/>
<text xml:space="preserve" text-anchor="middle" x="345.9" y="-6.5" font-family="Helvetica,sans-Serif" font-size="10.00">telnet_sml_app.cpp</text>
</a>
</g>
</g>
<!-- Node2&#45;&gt;Node4 -->
<g id="edge11_Node000002_Node000004" class="edge">
<title>Node2&#45;&gt;Node4</title>
<g id="a_edge11_Node000002_Node000004"><a xlink:title=" ">
<path fill="none" stroke="#63b8ff" d="M134.08,-164.49C70.08,-145.21 -32.17,-105.23 10.9,-56 47.21,-14.48 210.86,-9.67 295.23,-10.05"/>
<polygon fill="#63b8ff" stroke="#63b8ff" points="132.74,-167.75 143.32,-167.21 134.71,-161.03 132.74,-167.75"/>
</a>
</g>
</g>
<!-- Node5 -->
<g id="Node000005" class="node">
<title>Node5</title>
<g id="a_Node000005"><a xlink:href="relay__service_8hpp.html" target="_top" xlink:title="Thread&#45;safe relay communication service for DATE operations.">
<polygon fill="white" stroke="#666666" points="175.15,-132 82.65,-132 82.65,-112 175.15,-112 175.15,-132"/>
<text xml:space="preserve" text-anchor="middle" x="128.9" y="-118.5" font-family="Helvetica,sans-Serif" font-size="10.00">relay_service.hpp</text>
</a>
</g>
</g>
<!-- Node2&#45;&gt;Node5 -->
<g id="edge4_Node000002_Node000005" class="edge">
<title>Node2&#45;&gt;Node5</title>
<g id="a_edge4_Node000002_Node000005"><a xlink:title=" ">
<path fill="none" stroke="#63b8ff" d="M164.11,-159.57C155.38,-150.5 145.05,-139.78 137.85,-132.3"/>
<polygon fill="#63b8ff" stroke="#63b8ff" points="161.33,-161.73 170.79,-166.5 166.37,-156.87 161.33,-161.73"/>
</a>
</g>
</g>
<!-- Node2&#45;&gt;Node7 -->
<g id="edge9_Node000002_Node000007" class="edge">
<title>Node2&#45;&gt;Node7</title>
<g id="a_edge9_Node000002_Node000007"><a xlink:title=" ">
<path fill="none" stroke="#63b8ff" d="M217.59,-163.79C244.51,-154.1 280.45,-141.16 304.56,-132.48"/>
<polygon fill="#63b8ff" stroke="#63b8ff" points="216.67,-160.4 208.45,-167.08 219.04,-166.99 216.67,-160.4"/>
</a>
</g>
</g>
<!-- Node8 -->
<g id="Node000008" class="node">
<title>Node8</title>
<g id="a_Node000008"><a xlink:href="ws__server_8hpp.html" target="_top" xlink:title="WebSocket Server for Real&#45;time SER Data Access.">
<polygon fill="white" stroke="#666666" points="272.77,-132 193.02,-132 193.02,-112 272.77,-112 272.77,-132"/>
<text xml:space="preserve" text-anchor="middle" x="232.9" y="-118.5" font-family="Helvetica,sans-Serif" font-size="10.00">ws_server.hpp</text>
</a>
</g>
</g>
<!-- Node2&#45;&gt;Node8 -->
<g id="edge12_Node000002_Node000008" class="edge">
<title>Node2&#45;&gt;Node8</title>
<g id="a_edge12_Node000002_Node000008"><a xlink:title=" ">
<path fill="none" stroke="#63b8ff" d="M197.68,-159.57C206.42,-150.5 216.74,-139.78 223.94,-132.3"/>
<polygon fill="#63b8ff" stroke="#63b8ff" points="195.42,-156.87 191,-166.5 200.46,-161.73 195.42,-156.87"/>
</a>
</g>
</g>
<!-- Node3&#45;&gt;Node4 -->
<g id="edge3_Node000003_Node000004" class="edge">
<title>Node3&#45;&gt;Node4</title>
<g id="a_edge3_Node000003_Node000004"><a xlink:title=" ">
<path fill="none" stroke="#63b8ff" d="M137.77,-53.25C186.19,-43.42 254.36,-29.58 299.31,-20.46"/>
<polygon fill="#63b8ff" stroke="#63b8ff" points="137.12,-49.81 128.02,-55.23 138.51,-56.67 137.12,-49.81"/>
</a>
</g>
</g>
<!-- Node5&#45;&gt;Node3 -->
<g id="edge5_Node000005_Node000003" class="edge">
<title>Node5&#45;&gt;Node3</title>
<g id="a_edge5_Node000005_Node000003"><a xlink:title=" ">
<path fill="none" stroke="#63b8ff" d="M112.82,-103.29C104.65,-94.28 95.05,-83.7 88.33,-76.3"/>
<polygon fill="#63b8ff" stroke="#63b8ff" points="110.03,-105.42 119.34,-110.47 115.22,-100.72 110.03,-105.42"/>
</a>
</g>
</g>
<!-- Node5&#45;&gt;Node4 -->
<g id="edge6_Node000005_Node000004" class="edge">
<title>Node5&#45;&gt;Node4</title>
<g id="a_edge6_Node000005_Node000004"><a xlink:title=" ">
<path fill="none" stroke="#63b8ff" d="M184.16,-108.99C223.12,-99.87 271.36,-87.05 288.9,-76 312.26,-61.27 331.48,-34.14 340.45,-20.04"/>
<polygon fill="#63b8ff" stroke="#63b8ff" points="183.62,-105.53 174.67,-111.18 185.2,-112.35 183.62,-105.53"/>
</a>
</g>
</g>
<!-- Node6 -->
<g id="Node000006" class="node">
<title>Node6</title>
<g id="a_Node000006"><a xlink:href="time__sync__manager_8hpp.html" target="_top" xlink:title="DATE synchronization manager for relay ↔ local&#45;PC time operations.">
<polygon fill="white" stroke="#666666" points="280.15,-76 157.65,-76 157.65,-56 280.15,-56 280.15,-76"/>
<text xml:space="preserve" text-anchor="middle" x="218.9" y="-62.5" font-family="Helvetica,sans-Serif" font-size="10.00">time_sync_manager.hpp</text>
</a>
</g>
</g>
<!-- Node5&#45;&gt;Node6 -->
<g id="edge7_Node000005_Node000006" class="edge">
<title>Node5&#45;&gt;Node6</title>
<g id="a_edge7_Node000005_Node000006"><a xlink:title=" ">
<path fill="none" stroke="#63b8ff" d="M154.21,-105.81C169.91,-96.39 189.59,-84.58 203.1,-76.48"/>
<polygon fill="#63b8ff" stroke="#63b8ff" points="152.64,-102.67 145.87,-110.82 156.25,-108.67 152.64,-102.67"/>
</a>
</g>
</g>
<!-- Node6&#45;&gt;Node4 -->
<g id="edge8_Node000006_Node000004" class="edge">
<title>Node6&#45;&gt;Node4</title>
<g id="a_edge8_Node000006_Node000004"><a xlink:title=" ">
<path fill="none" stroke="#63b8ff" d="M251.49,-51.14C274.11,-41.52 303.64,-28.97 323.6,-20.48"/>
<polygon fill="#63b8ff" stroke="#63b8ff" points="250.24,-47.87 242.41,-55 252.98,-54.31 250.24,-47.87"/>
</a>
</g>
</g>
<!-- Node7&#45;&gt;Node4 -->
<g id="edge10_Node000007_Node000004" class="edge">
<title>Node7&#45;&gt;Node4</title>
<g id="a_edge10_Node000007_Node000004"><a xlink:title=" ">
<path fill="none" stroke="#63b8ff" d="M346.07,-102.73C351.55,-94.98 357.09,-85.55 359.9,-76 365.63,-56.51 356.86,-33.1 350.82,-20.37"/>
<polygon fill="#63b8ff" stroke="#63b8ff" points="343.34,-100.53 340.03,-110.6 348.89,-104.79 343.34,-100.53"/>
</a>
</g>
</g>
<!-- Node8&#45;&gt;Node4 -->
<g id="edge13_Node000008_Node000004" class="edge">
<title>Node8&#45;&gt;Node4</title>
<g id="a_edge13_Node000008_Node000004"><a xlink:title=" ">
<path fill="none" stroke="#63b8ff" d="M275.13,-107.32C291.57,-100.2 309.42,-89.99 321.9,-76 336.47,-59.66 342.45,-33.7 344.69,-20.06"/>
<polygon fill="#63b8ff" stroke="#63b8ff" points="273.98,-104.01 266.01,-111 276.59,-110.51 273.98,-104.01"/>
</a>
</g>
</g>
<!-- Node9&#45;&gt;Node4 -->
<g id="edge17_Node000009_Node000004" class="edge">
<title>Node9&#45;&gt;Node4</title>
<g id="a_edge17_Node000009_Node000004"><a xlink:title=" ">
<path fill="none" stroke="#63b8ff" d="M464.35,-161.5C482.86,-149.21 501.86,-131.01 491.9,-112 466.78,-64.09 407.49,-34.4 372.68,-20.47"/>
<polygon fill="#63b8ff" stroke="#63b8ff" points="462.55,-158.49 455.88,-166.72 466.23,-164.45 462.55,-158.49"/>
</a>
</g>
</g>
<!-- Node9&#45;&gt;Node7 -->
<g id="edge16_Node000009_Node000007" class="edge">
<title>Node9&#45;&gt;Node7</title>
<g id="a_edge16_Node000009_Node000007"><a xlink:title=" ">
<path fill="none" stroke="#63b8ff" d="M407.4,-162.35C388.92,-152.84 365.38,-140.74 349.33,-132.48"/>
<polygon fill="#63b8ff" stroke="#63b8ff" points="405.77,-165.44 416.26,-166.9 408.97,-159.22 405.77,-165.44"/>
</a>
</g>
</g>
<!-- Node9&#45;&gt;Node8 -->
<g id="edge20_Node000009_Node000008" class="edge">
<title>Node9&#45;&gt;Node8</title>
<g id="a_edge20_Node000009_Node000008"><a xlink:title=" ">
<path fill="none" stroke="#63b8ff" d="M389.61,-164.69C352.84,-154.91 302.19,-141.43 268.53,-132.48"/>
<polygon fill="#63b8ff" stroke="#63b8ff" points="388.51,-168.02 399.07,-167.2 390.31,-161.25 388.51,-168.02"/>
</a>
</g>
</g>
<!-- Node10 -->
<g id="Node000010" class="node">
<title>Node10</title>
<g id="a_Node000010"><a xlink:href="ser__database_8cpp.html" target="_top" xlink:title="Implementation of SERDatabase class for SQLite storage.">
<polygon fill="white" stroke="#666666" points="482.52,-132 389.27,-132 389.27,-112 482.52,-112 482.52,-132"/>
<text xml:space="preserve" text-anchor="middle" x="435.9" y="-118.5" font-family="Helvetica,sans-Serif" font-size="10.00">ser_database.cpp</text>
</a>
</g>
</g>
<!-- Node9&#45;&gt;Node10 -->
<g id="edge15_Node000009_Node000010" class="edge">
<title>Node9&#45;&gt;Node10</title>
<g id="a_edge15_Node000009_Node000010"><a xlink:title=" ">
<path fill="none" stroke="#63b8ff" d="M435.9,-156.13C435.9,-147.9 435.9,-138.85 435.9,-132.3"/>
<polygon fill="#63b8ff" stroke="#63b8ff" points="432.4,-156.08 435.9,-166.08 439.4,-156.08 432.4,-156.08"/>
</a>
</g>
</g>
<!-- Node9&#45;&gt;Node11 -->
<g id="edge18_Node000009_Node000011" class="edge">
<title>Node9&#45;&gt;Node11</title>
<g id="a_edge18_Node000009_Node000011"><a xlink:title=" ">
<path fill="none" stroke="#63b8ff" d="M473.44,-163.92C501.3,-154.21 538.65,-141.2 563.69,-132.48"/>
<polygon fill="#63b8ff" stroke="#63b8ff" points="472.62,-160.5 464.32,-167.1 474.92,-167.11 472.62,-160.5"/>
</a>
</g>
</g>
<!-- Node11&#45;&gt;Node4 -->
<g id="edge19_Node000011_Node000004" class="edge">
<title>Node11&#45;&gt;Node4</title>
<g id="a_edge19_Node000011_Node000004"><a xlink:title=" ">
<path fill="none" stroke="#63b8ff" d="M577.36,-103.15C565.21,-88.36 546.06,-67.89 524.9,-56 484.95,-33.55 433.78,-22.14 396.39,-16.44"/>
<polygon fill="#63b8ff" stroke="#63b8ff" points="574.4,-105.05 583.35,-110.72 579.89,-100.71 574.4,-105.05"/>
</a>
</g>
</g>
<!-- Node12&#45;&gt;Node4 -->
<g id="edge22_Node000012_Node000004" class="edge">
<title>Node12&#45;&gt;Node4</title>
<g id="a_edge22_Node000012_Node000004"><a xlink:title=" ">
<path fill="none" stroke="#63b8ff" d="M596.93,-54.31C538.3,-44.2 451.38,-29.2 396.72,-19.77"/>
<polygon fill="#63b8ff" stroke="#63b8ff" points="596.32,-57.76 606.77,-56.01 597.51,-50.86 596.32,-57.76"/>
</a>
</g>
</g>
</g>
</svg>
