<?xml version="1.0" encoding="UTF-8" standalone="no"?>
<!DOCTYPE svg PUBLIC "-//W3C//DTD SVG 1.1//EN"
 "http://www.w3.org/Graphics/SVG/1.1/DTD/svg11.dtd">
<!-- Generated by graphviz version 14.1.2 (20260124.0452)
 -->
<!-- Title: escapeJson Pages: 1 -->
<!--zoomable 230 -->

<svg id="main" version="1.1" xmlns="http://www.w3.org/2000/svg" xmlns:xlink="http://www.w3.org/1999/xlink" xml:space="preserve" onload="init(evt)">

<style type="text/css"><![CDATA[
.node, .edge {opacity: 0.7;}
.node.selected, .edge.selected {opacity: 1;}
.edge:hover path { stroke: red; }
.edge:hover polygon { stroke: red; fill: red; }
]]></style>

<defs>
  <circle id="rim" cx="0" cy="0" r="7"/>
  <circle id="rim2" cx="0" cy="0" r="3.5"/>
  <g id="zoomPlus">
    <use xlink:href="#rim" fill="#404040"><set attributeName="fill" to="#808080" begin="zoomplus.mouseover" end="zoomplus.mouseout"/></use>
    <path d="M-4,0h8M0,-4v8" fill="none" stroke="white" stroke-width="1.5" pointer-events="none"/>
  </g>
  <g id="zoomMin">
    <use xlink:href="#rim" fill="#404040"><set attributeName="fill" to="#808080" begin="zoomminus.mouseover" end="zoomminus.mouseout"/></use>
    <path d="M-4,0h8" fill="none" stroke="white" stroke-width="1.5" pointer-events="none"/>
  </g>
  <g id="arrowUp" transform="translate(30 24)">
    <use xlink:href="#rim"/>
    <path pointer-events="none" fill="none" stroke="white" stroke-width="1.5" d="M0,-3.0v7 M-2.5,-0.5L0,-3.0L2.5,-0.5"/>
  </g>
  <g id="arrowRight" transform="rotate(90) translate(36 -43)">
    <use xlink:href="#rim"/>
    <path pointer-events="none" fill="none" stroke="white" stroke-width="1.5" d="M0,-3.0v7 M-2.5,-0.5L0,-3.0L2.5,-0.5"/>
  </g>
  <g id="arrowDown" transform="rotate(180) translate(-30 -48)">
    <use xlink:href="#rim"/>
    <path pointer-events="none" fill="none" stroke="white" stroke-width="1.5" d="M0,-3.0v7 M-2.5,-0.5L0,-3.0L2.5,-0.5"/>
  </g>
  <g id="arrowLeft" transform="rotate(270) translate(-36 17)">
    <use xlink:href="#rim"/>
    <path pointer-events="none" fill="none" stroke="white" stroke-width="1.5" d="M0,-3.0v7 M-2.5,-0.5L0,-3.0L2.5,-0.5"/>
  </g>
  <g id="resetDef">
    <use xlink:href="#rim2" fill="#404040"><set attributeName="fill" to="#808080" begin="reset.mouseover" end="reset.mouseout"/></use>
  </g>
</defs>
<script type="application/ecmascript">
var viewWidth = 698;
var viewHeight = 230;
var sectionId = 'dynsection-2';
</script>
<script type="application/ecmascript" xlink:href="svg.min.js"/>
<svg id="graph" class="graph">
<g id="viewport">
<title>escapeJson</title>
<!-- Node1 -->
<g id="Node000001" class="node">
<title>Node1</title>
<g id="a_Node000001"><a xlink:title="Escape special characters for JSON string values.">
<polygon fill="#999999" stroke="#666666" points="690.25,-146 621.75,-146 621.75,-126 690.25,-126 690.25,-146"/>
<text xml:space="preserve" text-anchor="middle" x="656" y="-132.5" font-family="Helvetica,sans-Serif" font-size="10.00">escapeJson</text>
</a>
</g>
</g>
<!-- Node2 -->
<g id="Node000002" class="node">
<title>Node2</title>
<g id="a_Node000002"><a xlink:href="class_password_manager.html#ab3a9f620e1060286541f535dbad52d58" target="_top" xlink:title=" ">
<polygon fill="white" stroke="#666666" points="579.75,-222 414.5,-222 414.5,-202 579.75,-202 579.75,-222"/>
<text xml:space="preserve" text-anchor="middle" x="497.12" y="-208.5" font-family="Helvetica,sans-Serif" font-size="10.00">PasswordManager::buildErrorJson</text>
</a>
</g>
</g>
<!-- Node1&#45;&gt;Node2 -->
<g id="edge1_Node000001_Node000002" class="edge">
<title>Node1&#45;&gt;Node2</title>
<g id="a_edge1_Node000001_Node000002"><a xlink:title=" ">
<path fill="none" stroke="#63b8ff" d="M637.7,-154.28C624.61,-167.02 605.56,-183.4 585.75,-193 578.61,-196.46 570.83,-199.3 562.96,-201.62"/>
<polygon fill="#63b8ff" stroke="#63b8ff" points="640.12,-156.8 644.68,-147.24 635.15,-151.88 640.12,-156.8"/>
</a>
</g>
</g>
<!-- Node4 -->
<g id="Node000004" class="node">
<title>Node4</title>
<g id="a_Node000004"><a xlink:href="class_time_sync_manager.html#a729b318dd4e664a91323c6096211fa82" target="_top" xlink:title=" ">
<polygon fill="white" stroke="#666666" points="580.12,-184 414.12,-184 414.12,-164 580.12,-164 580.12,-184"/>
<text xml:space="preserve" text-anchor="middle" x="497.12" y="-170.5" font-family="Helvetica,sans-Serif" font-size="10.00">TimeSyncManager::buildErrorJson</text>
</a>
</g>
</g>
<!-- Node1&#45;&gt;Node4 -->
<g id="edge3_Node000001_Node000004" class="edge">
<title>Node1&#45;&gt;Node4</title>
<g id="a_edge3_Node000001_Node000004"><a xlink:title=" ">
<path fill="none" stroke="#63b8ff" d="M610.44,-146.79C588.75,-152.05 562.78,-158.34 541.28,-163.55"/>
<polygon fill="#63b8ff" stroke="#63b8ff" points="610.98,-150.26 619.88,-144.51 609.33,-143.46 610.98,-150.26"/>
</a>
</g>
</g>
<!-- Node6 -->
<g id="Node000006" class="node">
<title>Node6</title>
<g id="a_Node000006"><a xlink:href="class_time_sync_manager.html#ab03b40ab388284d44f5a30a63fa0f432" target="_top" xlink:title=" ">
<polygon fill="white" stroke="#666666" points="372.5,-146 196,-146 196,-126 372.5,-126 372.5,-146"/>
<text xml:space="preserve" text-anchor="middle" x="284.25" y="-132.5" font-family="Helvetica,sans-Serif" font-size="10.00">TimeSyncManager::handleSyncTime</text>
</a>
</g>
</g>
<!-- Node1&#45;&gt;Node6 -->
<g id="edge9_Node000001_Node000006" class="edge">
<title>Node1&#45;&gt;Node6</title>
<g id="a_edge9_Node000001_Node000006"><a xlink:title=" ">
<path fill="none" stroke="#63b8ff" d="M610.08,-136C551.43,-136 447.47,-136 372.95,-136"/>
<polygon fill="#63b8ff" stroke="#63b8ff" points="610.02,-139.5 620.02,-136 610.02,-132.5 610.02,-139.5"/>
</a>
</g>
</g>
<!-- Node7 -->
<g id="Node000007" class="node">
<title>Node7</title>
<g id="a_Node000007"><a xlink:href="class_time_sync_manager.html#a6d7aefdf9577ff2f38b502ddbe603d66" target="_top" xlink:title=" ">
<polygon fill="white" stroke="#666666" points="585.75,-108 408.5,-108 408.5,-88 585.75,-88 585.75,-108"/>
<text xml:space="preserve" text-anchor="middle" x="497.12" y="-94.5" font-family="Helvetica,sans-Serif" font-size="10.00">TimeSyncManager::handleReadTime</text>
</a>
</g>
</g>
<!-- Node1&#45;&gt;Node7 -->
<g id="edge7_Node000001_Node000007" class="edge">
<title>Node1&#45;&gt;Node7</title>
<g id="a_edge7_Node000001_Node000007"><a xlink:title=" ">
<path fill="none" stroke="#63b8ff" d="M610.44,-125.21C588.75,-119.95 562.78,-113.66 541.28,-108.45"/>
<polygon fill="#63b8ff" stroke="#63b8ff" points="609.33,-128.54 619.88,-127.49 610.98,-121.74 609.33,-128.54"/>
</a>
</g>
</g>
<!-- Node8 -->
<g id="Node000008" class="node">
<title>Node8</title>
<g id="a_Node000008"><a xlink:href="ser__json__writer_8hpp.html#a0201bcca7300a0ca2317b4b737232aa0" target="_top" xlink:title="Convert SER records to a JSON array string.">
<polygon fill="white" stroke="#666666" points="548.62,-70 445.62,-70 445.62,-50 548.62,-50 548.62,-70"/>
<text xml:space="preserve" text-anchor="middle" x="497.12" y="-56.5" font-family="Helvetica,sans-Serif" font-size="10.00">recordsToJsonTable</text>
</a>
</g>
</g>
<!-- Node1&#45;&gt;Node8 -->
<g id="edge10_Node000001_Node000008" class="edge">
<title>Node1&#45;&gt;Node8</title>
<g id="a_edge10_Node000001_Node000008"><a xlink:title=" ">
<path fill="none" stroke="#63b8ff" d="M637.7,-117.72C624.61,-104.98 605.56,-88.6 585.75,-79 574.4,-73.5 561.46,-69.58 549.08,-66.79"/>
<polygon fill="#63b8ff" stroke="#63b8ff" points="635.15,-120.12 644.68,-124.76 640.12,-115.2 635.15,-120.12"/>
</a>
</g>
</g>
<!-- Node3 -->
<g id="Node000003" class="node">
<title>Node3</title>
<g id="a_Node000003"><a xlink:href="class_password_manager.html#aa1f1fd21060064488e7ed8bc8b41f61e" target="_top" xlink:title="Process a full JSON message for the &quot;change_password&quot; action.">
<polygon fill="white" stroke="#666666" points="363.88,-222 204.62,-222 204.62,-202 363.88,-202 363.88,-222"/>
<text xml:space="preserve" text-anchor="middle" x="284.25" y="-208.5" font-family="Helvetica,sans-Serif" font-size="10.00">PasswordManager::handleAction</text>
</a>
</g>
</g>
<!-- Node2&#45;&gt;Node3 -->
<g id="edge2_Node000002_Node000003" class="edge">
<title>Node2&#45;&gt;Node3</title>
<g id="a_edge2_Node000002_Node000003"><a xlink:title=" ">
<path fill="none" stroke="#63b8ff" d="M403.02,-212C390.09,-212 376.9,-212 364.27,-212"/>
<polygon fill="#63b8ff" stroke="#63b8ff" points="402.78,-215.5 412.78,-212 402.78,-208.5 402.78,-215.5"/>
</a>
</g>
</g>
<!-- Node5 -->
<g id="Node000005" class="node">
<title>Node5</title>
<g id="a_Node000005"><a xlink:href="class_time_sync_manager.html#ab7e1061ae8a4a1bae60ed0411ff4b825" target="_top" xlink:title="Process a JSON action string from WebSocket and return a JSON response.">
<polygon fill="white" stroke="#666666" points="160,-146 0,-146 0,-126 160,-126 160,-146"/>
<text xml:space="preserve" text-anchor="middle" x="80" y="-132.5" font-family="Helvetica,sans-Serif" font-size="10.00">TimeSyncManager::handleAction</text>
</a>
</g>
</g>
<!-- Node4&#45;&gt;Node5 -->
<g id="edge4_Node000004_Node000005" class="edge">
<title>Node4&#45;&gt;Node5</title>
<g id="a_edge4_Node000004_Node000005"><a xlink:title=" ">
<path fill="none" stroke="#63b8ff" d="M402.54,-170.5C343.23,-167.68 264.96,-162.86 196,-155 176.8,-152.81 155.92,-149.61 137.29,-146.46"/>
<polygon fill="#63b8ff" stroke="#63b8ff" points="402.1,-173.98 412.25,-170.95 402.43,-166.99 402.1,-173.98"/>
</a>
</g>
</g>
<!-- Node4&#45;&gt;Node6 -->
<g id="edge5_Node000004_Node000006" class="edge">
<title>Node4&#45;&gt;Node6</title>
<g id="a_edge5_Node000004_Node000006"><a xlink:title=" ">
<path fill="none" stroke="#63b8ff" d="M426.61,-161.47C399.61,-156.61 369.03,-151.1 343.24,-146.45"/>
<polygon fill="#63b8ff" stroke="#63b8ff" points="425.99,-164.92 436.45,-163.25 427.23,-158.03 425.99,-164.92"/>
</a>
</g>
</g>
<!-- Node6&#45;&gt;Node5 -->
<g id="edge6_Node000006_Node000005" class="edge">
<title>Node6&#45;&gt;Node5</title>
<g id="a_edge6_Node000006_Node000005"><a xlink:title=" ">
<path fill="none" stroke="#63b8ff" d="M184.38,-136C176.33,-136 168.27,-136 160.39,-136"/>
<polygon fill="#63b8ff" stroke="#63b8ff" points="184.2,-139.5 194.2,-136 184.2,-132.5 184.2,-139.5"/>
</a>
</g>
</g>
<!-- Node7&#45;&gt;Node5 -->
<g id="edge8_Node000007_Node000005" class="edge">
<title>Node7&#45;&gt;Node5</title>
<g id="a_edge8_Node000007_Node000005"><a xlink:title=" ">
<path fill="none" stroke="#63b8ff" d="M396.78,-101.78C338.22,-104.63 262.75,-109.39 196,-117 176.8,-119.19 155.92,-122.39 137.29,-125.54"/>
<polygon fill="#63b8ff" stroke="#63b8ff" points="396.92,-105.28 406.75,-101.31 396.59,-98.28 396.92,-105.28"/>
</a>
</g>
</g>
<!-- Node9 -->
<g id="Node000009" class="node">
<title>Node9</title>
<g id="a_Node000009"><a xlink:href="class_shared_ser_reader.html#a9ca0e190a57fd3c195a860076ac729c7" target="_top" xlink:title="Main worker thread loop.">
<polygon fill="white" stroke="#666666" points="351.12,-70 217.38,-70 217.38,-50 351.12,-50 351.12,-70"/>
<text xml:space="preserve" text-anchor="middle" x="284.25" y="-56.5" font-family="Helvetica,sans-Serif" font-size="10.00">SharedSerReader::runLoop</text>
</a>
</g>
</g>
<!-- Node8&#45;&gt;Node9 -->
<g id="edge11_Node000008_Node000009" class="edge">
<title>Node8&#45;&gt;Node9</title>
<g id="a_edge11_Node000008_Node000009"><a xlink:title=" ">
<path fill="none" stroke="#63b8ff" d="M434.13,-60C408.17,-60 377.95,-60 351.55,-60"/>
<polygon fill="#63b8ff" stroke="#63b8ff" points="433.83,-63.5 443.83,-60 433.83,-56.5 433.83,-63.5"/>
</a>
</g>
</g>
<!-- Node11 -->
<g id="Node000011" class="node">
<title>Node11</title>
<g id="a_Node000011"><a xlink:href="class_telnet_sml_app_1_1_impl.html#a64957945d93500acea2140ec59b07802" target="_top" xlink:title="Seed database with test SER records when empty (relay unavailable).">
<polygon fill="white" stroke="#666666" points="335,-32 233.5,-32 233.5,0 335,0 335,-32"/>
<text xml:space="preserve" text-anchor="start" x="241.5" y="-18.5" font-family="Helvetica,sans-Serif" font-size="10.00">TelnetSmlApp::Impl</text>
<text xml:space="preserve" text-anchor="middle" x="284.25" y="-6.5" font-family="Helvetica,sans-Serif" font-size="10.00">::start</text>
</a>
</g>
</g>
<!-- Node8&#45;&gt;Node11 -->
<g id="edge13_Node000008_Node000011" class="edge">
<title>Node8&#45;&gt;Node11</title>
<g id="a_edge13_Node000008_Node000011"><a xlink:title=" ">
<path fill="none" stroke="#63b8ff" d="M435,-47.25C403.41,-40.65 365.33,-32.71 335.47,-26.48"/>
<polygon fill="#63b8ff" stroke="#63b8ff" points="433.9,-50.59 444.4,-49.21 435.33,-43.74 433.9,-50.59"/>
</a>
</g>
</g>
<!-- Node10 -->
<g id="Node000010" class="node">
<title>Node10</title>
<g id="a_Node000010"><a xlink:href="class_shared_ser_reader.html#aabd6c5c15122509fe63d3eef072ff6df" target="_top" xlink:title="Starts the worker thread.">
<polygon fill="white" stroke="#666666" points="139.38,-70 20.62,-70 20.62,-50 139.38,-50 139.38,-70"/>
<text xml:space="preserve" text-anchor="middle" x="80" y="-56.5" font-family="Helvetica,sans-Serif" font-size="10.00">SharedSerReader::start</text>
</a>
</g>
</g>
<!-- Node9&#45;&gt;Node10 -->
<g id="edge12_Node000009_Node000010" class="edge">
<title>Node9&#45;&gt;Node10</title>
<g id="a_edge12_Node000009_Node000010"><a xlink:title=" ">
<path fill="none" stroke="#63b8ff" d="M205.76,-60C183.89,-60 160.46,-60 139.87,-60"/>
<polygon fill="#63b8ff" stroke="#63b8ff" points="205.51,-63.5 215.51,-60 205.51,-56.5 205.51,-63.5"/>
</a>
</g>
</g>
</g>
</svg>

<g id="navigator" transform="translate(0 0)" fill="#404254">
  <rect fill="#f2f5e9" fill-opacity="0.5" stroke="#606060" stroke-width=".5" x="0" y="0" width="60" height="60"/>
  <use id="zoomplus" xlink:href="#zoomPlus" x="17" y="9" onmousedown="handleZoom(evt,'in')"/>
  <use id="zoomminus" xlink:href="#zoomMin" x="42" y="9" onmousedown="handleZoom(evt,'out')"/>
  <use id="reset" xlink:href="#resetDef" x="30" y="36" onmousedown="handleReset()"/>
   <use id="arrowup" xlink:href="#arrowUp" x="0" y="0" onmousedown="handlePan(0,-1)"/>
  <use id="arrowright" xlink:href="#arrowRight" x="0" y="0" onmousedown="handlePan(1,0)"/>
  <use id="arrowdown" xlink:href="#arrowDown" x="0" y="0" onmousedown="handlePan(0,1)"/>
  <use id="arrowleft" xlink:href="#arrowLeft" x="0" y="0" onmousedown="handlePan(-1,0)"/>
</g>
<svg viewBox="0 0 15 15" width="100%" height="30px" preserveAspectRatio="xMaxYMin meet">
 <g id="arrow_out" transform="scale(0.3 0.3)">
  <a xlink:href="ser__json__writer_8hpp_a5c077d95f29d39a73aa9b32b93ceddda_icgraph_org.svg" target="_base">
   <rect id="button" ry="5" rx="5" y="6" x="6" height="38" width="38"
        fill="#f2f5e9" fill-opacity="0.5" stroke="#606060" stroke-width="1.0"/>
   <path id="arrow"
     d="M 11.500037,31.436501 C 11.940474,20.09759 22.043105,11.32322 32.158766,21.979434 L 37.068811,17.246167 C 37.068811,17.246167 37.088388,32 37.088388,32 L 22.160133,31.978069 C 22.160133,31.978069 26.997745,27.140456 26.997745,27.140456 C 18.528582,18.264221 13.291696,25.230495 11.500037,31.436501 z"
     style="fill:#404040;"/>
  </a>
 </g>
</svg>

<style type='text/css'>
<![CDATA[
[data-mouse-over-selected='false'] { opacity: 0.7; }
[data-mouse-over-selected='true']  { opacity: 1.0; }
]]>
</style>
<script type="application/ecmascript"><![CDATA[
document.addEventListener('DOMContentLoaded', (event) => {
  highlightEdges();
  highlightAdjacentNodes();
});
]]></script>
</svg>
