<?xml version="1.0" encoding="UTF-8" standalone="no"?>
<!DOCTYPE svg PUBLIC "-//W3C//DTD SVG 1.1//EN"
 "http://www.w3.org/Graphics/SVG/1.1/DTD/svg11.dtd">
<!-- Generated by graphviz version 14.1.2 (20260124.0452)
 -->
<!-- Title: ser_database.hpp Pages: 1 -->
<svg width="458pt" height="140pt"
 viewBox="0.00 0.00 458.00 140.00" xmlns="http://www.w3.org/2000/svg" xmlns:xlink="http://www.w3.org/1999/xlink">

<svg id="main" version="1.1" xmlns="http://www.w3.org/2000/svg" xmlns:xlink="http://www.w3.org/1999/xlink" xml:space="preserve">

<style type="text/css"><![CDATA[
.node, .edge {opacity: 0.7;}
.node.selected, .edge.selected {opacity: 1;}
.edge:hover path { stroke: red; }
.edge:hover polygon { stroke: red; fill: red; }
]]></style>
<script type="application/ecmascript" xlink:href="svg.min.js"/>
<svg id="graph" class="graph">
<g id="graph0" class="graph" transform="scale(1 1) rotate(0) translate(4 136)">
<title>ser_database.hpp</title>
<!-- Node1 -->
<g id="Node000001" class="node">
<title>Node1</title>
<g id="a_Node000001"><a xlink:title="SQLite database handler for SER records.">
<polygon fill="#999999" stroke="#666666" points="266.25,-132 173,-132 173,-112 266.25,-112 266.25,-132"/>
<text xml:space="preserve" text-anchor="middle" x="219.62" y="-118.5" font-family="Helvetica,sans-Serif" font-size="10.00">ser_database.hpp</text>
</a>
</g>
</g>
<!-- Node2 -->
<g id="Node000002" class="node">
<title>Node2</title>
<g id="a_Node000002"><a xlink:href="ser__database_8cpp.html" target="_top" xlink:title="Implementation of SERDatabase class for SQLite storage.">
<polygon fill="white" stroke="#666666" points="93.25,-76 0,-76 0,-56 93.25,-56 93.25,-76"/>
<text xml:space="preserve" text-anchor="middle" x="46.62" y="-62.5" font-family="Helvetica,sans-Serif" font-size="10.00">ser_database.cpp</text>
</a>
</g>
</g>
<!-- Node1&#45;&gt;Node2 -->
<g id="edge1_Node000001_Node000002" class="edge">
<title>Node1&#45;&gt;Node2</title>
<g id="a_edge1_Node000001_Node000002"><a xlink:title=" ">
<path fill="none" stroke="#63b8ff" d="M178.55,-108.18C147.36,-98.44 105.18,-85.28 76.99,-76.48"/>
<polygon fill="#63b8ff" stroke="#63b8ff" points="177.46,-111.5 188.05,-111.14 179.54,-104.82 177.46,-111.5"/>
</a>
</g>
</g>
<!-- Node3 -->
<g id="Node000003" class="node">
<title>Node3</title>
<g id="a_Node000003"><a xlink:href="telnet__fsm_8hpp.html" target="_top" xlink:title="Boost.SML Finite State Machine for Telnet Communication.">
<polygon fill="white" stroke="#666666" points="191.88,-76 111.38,-76 111.38,-56 191.88,-56 191.88,-76"/>
<text xml:space="preserve" text-anchor="middle" x="151.62" y="-62.5" font-family="Helvetica,sans-Serif" font-size="10.00">telnet_fsm.hpp</text>
</a>
</g>
</g>
<!-- Node1&#45;&gt;Node3 -->
<g id="edge2_Node000001_Node000003" class="edge">
<title>Node1&#45;&gt;Node3</title>
<g id="a_edge2_Node000001_Node000003"><a xlink:title=" ">
<path fill="none" stroke="#63b8ff" d="M199.07,-104.68C187.37,-95.39 173.14,-84.09 163.33,-76.3"/>
<polygon fill="#63b8ff" stroke="#63b8ff" points="196.59,-107.17 206.6,-110.65 200.94,-101.69 196.59,-107.17"/>
</a>
</g>
</g>
<!-- Node4 -->
<g id="Node000004" class="node">
<title>Node4</title>
<g id="a_Node000004"><a xlink:href="telnet__sml__app_8cpp.html" target="_top" xlink:title="Telnet SML Application &#45; Main orchestrator implementation.">
<polygon fill="white" stroke="#666666" points="310,-20 209.25,-20 209.25,0 310,0 310,-20"/>
<text xml:space="preserve" text-anchor="middle" x="259.62" y="-6.5" font-family="Helvetica,sans-Serif" font-size="10.00">telnet_sml_app.cpp</text>
</a>
</g>
</g>
<!-- Node1&#45;&gt;Node4 -->
<g id="edge4_Node000001_Node000004" class="edge">
<title>Node1&#45;&gt;Node4</title>
<g id="a_edge4_Node000001_Node000004"><a xlink:title=" ">
<path fill="none" stroke="#63b8ff" d="M224.72,-100.65C228.17,-87.7 233.09,-70.67 238.62,-56 243.37,-43.42 250.13,-29.46 254.69,-20.47"/>
<polygon fill="#63b8ff" stroke="#63b8ff" points="221.38,-99.57 222.27,-110.13 228.16,-101.32 221.38,-99.57"/>
</a>
</g>
</g>
<!-- Node5 -->
<g id="Node000005" class="node">
<title>Node5</title>
<g id="a_Node000005"><a xlink:href="thread__manager_8hpp.html" target="_top" xlink:title="Thread management utilities for the Telnet&#45;SML application.">
<polygon fill="white" stroke="#666666" points="351.88,-76 247.38,-76 247.38,-56 351.88,-56 351.88,-76"/>
<text xml:space="preserve" text-anchor="middle" x="299.62" y="-62.5" font-family="Helvetica,sans-Serif" font-size="10.00">thread_manager.hpp</text>
</a>
</g>
</g>
<!-- Node1&#45;&gt;Node5 -->
<g id="edge5_Node000001_Node000005" class="edge">
<title>Node1&#45;&gt;Node5</title>
<g id="a_edge5_Node000001_Node000005"><a xlink:title=" ">
<path fill="none" stroke="#63b8ff" d="M242.93,-105.27C256.75,-95.94 273.81,-84.43 285.58,-76.48"/>
<polygon fill="#63b8ff" stroke="#63b8ff" points="241.14,-102.25 234.81,-110.75 245.06,-108.05 241.14,-102.25"/>
</a>
</g>
</g>
<!-- Node6 -->
<g id="Node000006" class="node">
<title>Node6</title>
<g id="a_Node000006"><a xlink:href="ws__server_8hpp.html" target="_top" xlink:title="WebSocket Server for Real&#45;time SER Data Access.">
<polygon fill="white" stroke="#666666" points="449.5,-76 369.75,-76 369.75,-56 449.5,-56 449.5,-76"/>
<text xml:space="preserve" text-anchor="middle" x="409.62" y="-62.5" font-family="Helvetica,sans-Serif" font-size="10.00">ws_server.hpp</text>
</a>
</g>
</g>
<!-- Node1&#45;&gt;Node6 -->
<g id="edge7_Node000001_Node000006" class="edge">
<title>Node1&#45;&gt;Node6</title>
<g id="a_edge7_Node000001_Node000006"><a xlink:title=" ">
<path fill="none" stroke="#63b8ff" d="M263.4,-108.56C297.77,-98.79 344.91,-85.39 376.27,-76.48"/>
<polygon fill="#63b8ff" stroke="#63b8ff" points="262.84,-105.08 254.18,-111.18 264.75,-111.81 262.84,-105.08"/>
</a>
</g>
</g>
<!-- Node3&#45;&gt;Node4 -->
<g id="edge3_Node000003_Node000004" class="edge">
<title>Node3&#45;&gt;Node4</title>
<g id="a_edge3_Node000003_Node000004"><a xlink:title=" ">
<path fill="none" stroke="#63b8ff" d="M180.66,-50.48C199.71,-40.96 224.07,-28.78 240.67,-20.48"/>
<polygon fill="#63b8ff" stroke="#63b8ff" points="179.17,-47.31 171.79,-54.92 182.3,-53.58 179.17,-47.31"/>
</a>
</g>
</g>
<!-- Node5&#45;&gt;Node4 -->
<g id="edge6_Node000005_Node000004" class="edge">
<title>Node5&#45;&gt;Node4</title>
<g id="a_edge6_Node000005_Node000004"><a xlink:title=" ">
<path fill="none" stroke="#63b8ff" d="M285.87,-46.44C279.34,-37.62 271.82,-27.47 266.51,-20.3"/>
<polygon fill="#63b8ff" stroke="#63b8ff" points="282.99,-48.43 291.76,-54.38 288.62,-44.26 282.99,-48.43"/>
</a>
</g>
</g>
<!-- Node6&#45;&gt;Node4 -->
<g id="edge8_Node000006_Node000004" class="edge">
<title>Node6&#45;&gt;Node4</title>
<g id="a_edge8_Node000006_Node000004"><a xlink:title=" ">
<path fill="none" stroke="#63b8ff" d="M372.93,-51.79C346.01,-42.1 310.07,-29.16 285.96,-20.48"/>
<polygon fill="#63b8ff" stroke="#63b8ff" points="371.48,-54.99 382.07,-55.08 373.85,-48.4 371.48,-54.99"/>
</a>
</g>
</g>
</g>
</svg>
</svg>

<style type='text/css'>
<![CDATA[
[data-mouse-over-selected='false'] { opacity: 0.7; }
[data-mouse-over-selected='true']  { opacity: 1.0; }
]]>
</style>
<script type="application/ecmascript"><![CDATA[
document.addEventListener('DOMContentLoaded', (event) => {
  highlightEdges();
  highlightAdjacentNodes();
});
]]></script>
</svg>
