<?xml version="1.0" encoding="UTF-8" standalone="no"?>
<!DOCTYPE svg PUBLIC "-//W3C//DTD SVG 1.1//EN"
 "http://www.w3.org/Graphics/SVG/1.1/DTD/svg11.dtd">
<!-- Generated by graphviz version 14.1.2 (20260124.0452)
 -->
<!-- Title: ser_json_writer.hpp Pages: 1 -->
<svg width="446pt" height="140pt"
 viewBox="0.00 0.00 446.00 140.00" xmlns="http://www.w3.org/2000/svg" xmlns:xlink="http://www.w3.org/1999/xlink">
<g id="graph0" class="graph" transform="scale(1 1) rotate(0) translate(4 136)">
<title>ser_json_writer.hpp</title>
<!-- Node1 -->
<g id="Node000001" class="node">
<title>Node1</title>
<g id="a_Node000001"><a xlink:title="JSON serialization and file output for SER records.">
<polygon fill="#999999" stroke="#666666" points="146.88,-132 46.12,-132 46.12,-112 146.88,-112 146.88,-132"/>
<text xml:space="preserve" text-anchor="middle" x="96.5" y="-118.5" font-family="Helvetica,sans-Serif" font-size="10.00">ser_json_writer.hpp</text>
</a>
</g>
</g>
<!-- Node2 -->
<g id="Node000002" class="node">
<title>Node2</title>
<g id="a_Node000002"><a xlink:title=" ">
<polygon fill="#e0e0e0" stroke="#999999" points="49,-76 0,-76 0,-56 49,-56 49,-76"/>
<text xml:space="preserve" text-anchor="middle" x="24.5" y="-62.5" font-family="Helvetica,sans-Serif" font-size="10.00">fstream</text>
</a>
</g>
</g>
<!-- Node1&#45;&gt;Node2 -->
<g id="edge1_Node000001_Node000002" class="edge">
<title>Node1&#45;&gt;Node2</title>
<g id="a_edge1_Node000001_Node000002"><a xlink:title=" ">
<path fill="none" stroke="#63b8ff" d="M83.96,-111.59C73.53,-103.77 58.45,-92.46 46.09,-83.19"/>
<polygon fill="#63b8ff" stroke="#63b8ff" points="48.21,-80.41 38.11,-77.21 44.01,-86.01 48.21,-80.41"/>
</a>
</g>
</g>
<!-- Node3 -->
<g id="Node000003" class="node">
<title>Node3</title>
<g id="a_Node000003"><a xlink:title=" ">
<polygon fill="#e0e0e0" stroke="#999999" points="75.5,-20 35.5,-20 35.5,0 75.5,0 75.5,-20"/>
<text xml:space="preserve" text-anchor="middle" x="55.5" y="-6.5" font-family="Helvetica,sans-Serif" font-size="10.00">string</text>
</a>
</g>
</g>
<!-- Node1&#45;&gt;Node3 -->
<g id="edge2_Node000001_Node000003" class="edge">
<title>Node1&#45;&gt;Node3</title>
<g id="a_edge2_Node000001_Node000003"><a xlink:title=" ">
<path fill="none" stroke="#63b8ff" d="M93,-111.62C86.38,-93.84 71.86,-54.88 62.95,-31"/>
<polygon fill="#63b8ff" stroke="#63b8ff" points="66.29,-29.92 59.52,-21.77 59.73,-32.37 66.29,-29.92"/>
</a>
</g>
</g>
<!-- Node4 -->
<g id="Node000004" class="node">
<title>Node4</title>
<g id="a_Node000004"><a xlink:title=" ">
<polygon fill="#e0e0e0" stroke="#999999" points="137,-20 94,-20 94,0 137,0 137,-20"/>
<text xml:space="preserve" text-anchor="middle" x="115.5" y="-6.5" font-family="Helvetica,sans-Serif" font-size="10.00">vector</text>
</a>
</g>
</g>
<!-- Node1&#45;&gt;Node4 -->
<g id="edge3_Node000001_Node000004" class="edge">
<title>Node1&#45;&gt;Node4</title>
<g id="a_edge3_Node000001_Node000004"><a xlink:title=" ">
<path fill="none" stroke="#63b8ff" d="M98.12,-111.62C101.16,-94.01 107.8,-55.59 111.93,-31.65"/>
<polygon fill="#63b8ff" stroke="#63b8ff" points="115.37,-32.3 113.63,-21.85 108.48,-31.1 115.37,-32.3"/>
</a>
</g>
</g>
<!-- Node5 -->
<g id="Node000005" class="node">
<title>Node5</title>
<g id="a_Node000005"><a xlink:href="ser__record_8hpp.html" target="_top" xlink:title="System Event Record (SER) data structure and parser.">
<polygon fill="white" stroke="#666666" points="223.75,-76 143.25,-76 143.25,-56 223.75,-56 223.75,-76"/>
<text xml:space="preserve" text-anchor="middle" x="183.5" y="-62.5" font-family="Helvetica,sans-Serif" font-size="10.00">ser_record.hpp</text>
</a>
</g>
</g>
<!-- Node1&#45;&gt;Node5 -->
<g id="edge4_Node000001_Node000005" class="edge">
<title>Node1&#45;&gt;Node5</title>
<g id="a_edge4_Node000001_Node000005"><a xlink:title=" ">
<path fill="none" stroke="#63b8ff" d="M111.65,-111.59C124.55,-103.59 143.33,-91.93 158.46,-82.54"/>
<polygon fill="#63b8ff" stroke="#63b8ff" points="160.29,-85.53 166.94,-77.28 156.6,-79.58 160.29,-85.53"/>
</a>
</g>
</g>
<!-- Node5&#45;&gt;Node3 -->
<g id="edge6_Node000005_Node000003" class="edge">
<title>Node5&#45;&gt;Node3</title>
<g id="a_edge6_Node000005_Node000003"><a xlink:title=" ">
<path fill="none" stroke="#63b8ff" d="M161.2,-55.59C140.43,-46.83 109.27,-33.68 86.15,-23.93"/>
<polygon fill="#63b8ff" stroke="#63b8ff" points="87.82,-20.84 77.25,-20.17 85.1,-27.29 87.82,-20.84"/>
</a>
</g>
</g>
<!-- Node5&#45;&gt;Node4 -->
<g id="edge7_Node000005_Node000004" class="edge">
<title>Node5&#45;&gt;Node4</title>
<g id="a_edge7_Node000005_Node000004"><a xlink:title=" ">
<path fill="none" stroke="#63b8ff" d="M171.66,-55.59C161.81,-47.77 147.57,-36.46 135.89,-27.19"/>
<polygon fill="#63b8ff" stroke="#63b8ff" points="138.4,-24.72 128.39,-21.24 134.05,-30.2 138.4,-24.72"/>
</a>
</g>
</g>
<!-- Node6 -->
<g id="Node000006" class="node">
<title>Node6</title>
<g id="a_Node000006"><a xlink:href="dll__export_8hpp.html" target="_top" xlink:title="DLL Export/Import Macros for Windows.">
<polygon fill="white" stroke="#666666" points="368.88,-20 292.12,-20 292.12,0 368.88,0 368.88,-20"/>
<text xml:space="preserve" text-anchor="middle" x="330.5" y="-6.5" font-family="Helvetica,sans-Serif" font-size="10.00">dll_export.hpp</text>
</a>
</g>
</g>
<!-- Node5&#45;&gt;Node6 -->
<g id="edge5_Node000005_Node000006" class="edge">
<title>Node5&#45;&gt;Node6</title>
<g id="a_edge5_Node000005_Node000006"><a xlink:title=" ">
<path fill="none" stroke="#63b8ff" d="M209.11,-55.59C232.57,-46.97 267.57,-34.12 293.97,-24.42"/>
<polygon fill="#63b8ff" stroke="#63b8ff" points="295.09,-27.73 303.27,-21 292.68,-21.16 295.09,-27.73"/>
</a>
</g>
</g>
<!-- Node7 -->
<g id="Node000007" class="node">
<title>Node7</title>
<g id="a_Node000007"><a xlink:title=" ">
<polygon fill="#e0e0e0" stroke="#999999" points="438.12,-20 386.88,-20 386.88,0 438.12,0 438.12,-20"/>
<text xml:space="preserve" text-anchor="middle" x="412.5" y="-6.5" font-family="Helvetica,sans-Serif" font-size="10.00">sstream</text>
</a>
</g>
</g>
<!-- Node5&#45;&gt;Node7 -->
<g id="edge8_Node000005_Node000007" class="edge">
<title>Node5&#45;&gt;Node7</title>
<g id="a_edge8_Node000005_Node000007"><a xlink:title=" ">
<path fill="none" stroke="#63b8ff" d="M224.07,-55.89C261.06,-47.51 317.5,-34.56 375.65,-20.41"/>
<polygon fill="#63b8ff" stroke="#63b8ff" points="376.17,-23.89 385.05,-18.11 374.51,-17.09 376.17,-23.89"/>
</a>
</g>
</g>
<!-- Node8 -->
<g id="Node000008" class="node">
<title>Node8</title>
<g id="a_Node000008"><a xlink:title=" ">
<polygon fill="#e0e0e0" stroke="#999999" points="210.38,-20 154.62,-20 154.62,0 210.38,0 210.38,-20"/>
<text xml:space="preserve" text-anchor="middle" x="182.5" y="-6.5" font-family="Helvetica,sans-Serif" font-size="10.00">algorithm</text>
</a>
</g>
</g>
<!-- Node5&#45;&gt;Node8 -->
<g id="edge9_Node000005_Node000008" class="edge">
<title>Node5&#45;&gt;Node8</title>
<g id="a_edge9_Node000005_Node000008"><a xlink:title=" ">
<path fill="none" stroke="#63b8ff" d="M183.33,-55.59C183.2,-49.01 183.04,-39.96 182.88,-31.73"/>
<polygon fill="#63b8ff" stroke="#63b8ff" points="186.38,-31.75 182.7,-21.81 179.39,-31.87 186.38,-31.75"/>
</a>
</g>
</g>
<!-- Node9 -->
<g id="Node000009" class="node">
<title>Node9</title>
<g id="a_Node000009"><a xlink:title=" ">
<polygon fill="#e0e0e0" stroke="#999999" points="274.12,-20 228.88,-20 228.88,0 274.12,0 274.12,-20"/>
<text xml:space="preserve" text-anchor="middle" x="251.5" y="-6.5" font-family="Helvetica,sans-Serif" font-size="10.00">cctype</text>
</a>
</g>
</g>
<!-- Node5&#45;&gt;Node9 -->
<g id="edge10_Node000005_Node000009" class="edge">
<title>Node5&#45;&gt;Node9</title>
<g id="a_edge10_Node000005_Node000009"><a xlink:title=" ">
<path fill="none" stroke="#63b8ff" d="M195.34,-55.59C205.19,-47.77 219.43,-36.46 231.11,-27.19"/>
<polygon fill="#63b8ff" stroke="#63b8ff" points="232.95,-30.2 238.61,-21.24 228.6,-24.72 232.95,-30.2"/>
</a>
</g>
</g>
</g>
</svg>
