<?xml version="1.0" encoding="UTF-8" standalone="no"?>
<!DOCTYPE svg PUBLIC "-//W3C//DTD SVG 1.1//EN"
 "http://www.w3.org/Graphics/SVG/1.1/DTD/svg11.dtd">
<!-- Generated by graphviz version 14.1.1 (20251213.1925)
 -->
<!-- Title: ser_record.hpp Pages: 1 -->
<!--zoomable 308 -->

<svg id="main" version="1.1" xmlns="http://www.w3.org/2000/svg" xmlns:xlink="http://www.w3.org/1999/xlink" xml:space="preserve" onload="init(evt)">

<style type="text/css"><![CDATA[
.node, .edge {opacity: 0.7;}
.node.selected, .edge.selected {opacity: 1;}
.edge:hover path { stroke: red; }
.edge:hover polygon { stroke: red; fill: red; }
]]></style>

<defs>
  <circle id="rim" cx="0" cy="0" r="7"/>
  <circle id="rim2" cx="0" cy="0" r="3.5"/>
  <g id="zoomPlus">
    <use xlink:href="#rim" fill="#404040"><set attributeName="fill" to="#808080" begin="zoomplus.mouseover" end="zoomplus.mouseout"/></use>
    <path d="M-4,0h8M0,-4v8" fill="none" stroke="white" stroke-width="1.5" pointer-events="none"/>
  </g>
  <g id="zoomMin">
    <use xlink:href="#rim" fill="#404040"><set attributeName="fill" to="#808080" begin="zoomminus.mouseover" end="zoomminus.mouseout"/></use>
    <path d="M-4,0h8" fill="none" stroke="white" stroke-width="1.5" pointer-events="none"/>
  </g>
  <g id="arrowUp" transform="translate(30 24)">
    <use xlink:href="#rim"/>
    <path pointer-events="none" fill="none" stroke="white" stroke-width="1.5" d="M0,-3.0v7 M-2.5,-0.5L0,-3.0L2.5,-0.5"/>
  </g>
  <g id="arrowRight" transform="rotate(90) translate(36 -43)">
    <use xlink:href="#rim"/>
    <path pointer-events="none" fill="none" stroke="white" stroke-width="1.5" d="M0,-3.0v7 M-2.5,-0.5L0,-3.0L2.5,-0.5"/>
  </g>
  <g id="arrowDown" transform="rotate(180) translate(-30 -48)">
    <use xlink:href="#rim"/>
    <path pointer-events="none" fill="none" stroke="white" stroke-width="1.5" d="M0,-3.0v7 M-2.5,-0.5L0,-3.0L2.5,-0.5"/>
  </g>
  <g id="arrowLeft" transform="rotate(270) translate(-36 17)">
    <use xlink:href="#rim"/>
    <path pointer-events="none" fill="none" stroke="white" stroke-width="1.5" d="M0,-3.0v7 M-2.5,-0.5L0,-3.0L2.5,-0.5"/>
  </g>
  <g id="resetDef">
    <use xlink:href="#rim2" fill="#404040"><set attributeName="fill" to="#808080" begin="reset.mouseover" end="reset.mouseout"/></use>
  </g>
</defs>
<script type="application/ecmascript">
var viewWidth = 843;
var viewHeight = 308;
var sectionId = 'dynsection-1';
</script>
<script type="application/ecmascript" xlink:href="svg.min.js"/>
<svg id="graph" class="graph">
<g id="viewport">
<title>ser_record.hpp</title>
<!-- Node1 -->
<g id="Node000001" class="node">
<title>Node1</title>
<g id="a_Node000001"><a xlink:title="System Event Record (SER) data structure and parser.">
<polygon fill="#999999" stroke="#666666" points="404.8,-300 324.3,-300 324.3,-280 404.8,-280 404.8,-300"/>
<text xml:space="preserve" text-anchor="middle" x="364.55" y="-286.5" font-family="Helvetica,sans-Serif" font-size="10.00">ser_record.hpp</text>
</a>
</g>
</g>
<!-- Node2 -->
<g id="Node000002" class="node">
<title>Node2</title>
<g id="a_Node000002"><a xlink:href="asn__tlv__codec_8hpp.html" target="_top" xlink:title="ASN.1 BER/TLV codec for SER record payloads.">
<polygon fill="white" stroke="#666666" points="224.42,-244 126.67,-244 126.67,-224 224.42,-224 224.42,-244"/>
<text xml:space="preserve" text-anchor="middle" x="175.55" y="-230.5" font-family="Helvetica,sans-Serif" font-size="10.00">asn_tlv_codec.hpp</text>
</a>
</g>
</g>
<!-- Node1&#45;&gt;Node2 -->
<g id="edge1_Node000001_Node000002" class="edge">
<title>Node1&#45;&gt;Node2</title>
<g id="a_edge1_Node000001_Node000002"><a xlink:title=" ">
<path fill="none" stroke="#63b8ff" d="M320.56,-276.43C286.41,-266.67 239.79,-253.35 208.73,-244.48"/>
<polygon fill="#63b8ff" stroke="#63b8ff" points="319.59,-279.8 330.17,-279.18 321.52,-273.07 319.59,-279.8"/>
</a>
</g>
</g>
<!-- Node5 -->
<g id="Node000005" class="node">
<title>Node5</title>
<g id="a_Node000005"><a xlink:href="relay__pipeline_8hpp.html" target="_top" xlink:title="Per&#45;relay processing pipeline for on&#45;demand relay connections.">
<polygon fill="white" stroke="#666666" points="396.55,-132 302.55,-132 302.55,-112 396.55,-112 396.55,-132"/>
<text xml:space="preserve" text-anchor="middle" x="349.55" y="-118.5" font-family="Helvetica,sans-Serif" font-size="10.00">relay_pipeline.hpp</text>
</a>
</g>
</g>
<!-- Node1&#45;&gt;Node5 -->
<g id="edge21_Node000001_Node000005" class="edge">
<title>Node1&#45;&gt;Node5</title>
<g id="a_edge21_Node000001_Node000005"><a xlink:title=" ">
<path fill="none" stroke="#63b8ff" d="M362,-268.23C359.56,-247.83 355.92,-215.81 353.55,-188 351.86,-168.17 350.6,-144.89 349.98,-132.27"/>
<polygon fill="#63b8ff" stroke="#63b8ff" points="358.51,-268.54 363.19,-278.04 365.46,-267.69 358.51,-268.54"/>
</a>
</g>
</g>
<!-- Node9 -->
<g id="Node000009" class="node">
<title>Node9</title>
<g id="a_Node000009"><a xlink:href="telnet__fsm_8hpp.html" target="_top" xlink:title="Boost.SML Finite State Machine for Telnet Communication.">
<polygon fill="white" stroke="#666666" points="283.8,-188 203.3,-188 203.3,-168 283.8,-168 283.8,-188"/>
<text xml:space="preserve" text-anchor="middle" x="243.55" y="-174.5" font-family="Helvetica,sans-Serif" font-size="10.00">telnet_fsm.hpp</text>
</a>
</g>
</g>
<!-- Node1&#45;&gt;Node9 -->
<g id="edge33_Node000001_Node000009" class="edge">
<title>Node1&#45;&gt;Node9</title>
<g id="a_edge33_Node000001_Node000009"><a xlink:title=" ">
<path fill="none" stroke="#63b8ff" d="M338.2,-273.76C325.31,-265.71 309.94,-255.19 297.55,-244 277.95,-226.3 259.21,-201.36 249.82,-188.11"/>
<polygon fill="#63b8ff" stroke="#63b8ff" points="336.25,-276.67 346.61,-278.87 339.88,-270.69 336.25,-276.67"/>
</a>
</g>
</g>
<!-- Node11 -->
<g id="Node000011" class="node">
<title>Node11</title>
<g id="a_Node000011"><a xlink:href="ser__database_8hpp.html" target="_top" xlink:title="SQLite database handler for SER records.">
<polygon fill="white" stroke="#666666" points="516.17,-244 422.92,-244 422.92,-224 516.17,-224 516.17,-244"/>
<text xml:space="preserve" text-anchor="middle" x="469.55" y="-230.5" font-family="Helvetica,sans-Serif" font-size="10.00">ser_database.hpp</text>
</a>
</g>
</g>
<!-- Node1&#45;&gt;Node11 -->
<g id="edge22_Node000001_Node000011" class="edge">
<title>Node1&#45;&gt;Node11</title>
<g id="a_edge22_Node000001_Node000011"><a xlink:title=" ">
<path fill="none" stroke="#63b8ff" d="M393.04,-274.35C411.52,-264.84 435.06,-252.74 451.12,-244.48"/>
<polygon fill="#63b8ff" stroke="#63b8ff" points="391.48,-271.22 384.18,-278.9 394.68,-277.44 391.48,-271.22"/>
</a>
</g>
</g>
<!-- Node13 -->
<g id="Node000013" class="node">
<title>Node13</title>
<g id="a_Node000013"><a xlink:href="thread__manager_8hpp.html" target="_top" xlink:title="Thread management utilities for the Telnet&#45;SML application.">
<polygon fill="white" stroke="#666666" points="767.8,-188 663.3,-188 663.3,-168 767.8,-168 767.8,-188"/>
<text xml:space="preserve" text-anchor="middle" x="715.55" y="-174.5" font-family="Helvetica,sans-Serif" font-size="10.00">thread_manager.hpp</text>
</a>
</g>
</g>
<!-- Node1&#45;&gt;Node13 -->
<g id="edge34_Node000001_Node000013" class="edge">
<title>Node1&#45;&gt;Node13</title>
<g id="a_edge34_Node000001_Node000013"><a xlink:title=" ">
<path fill="none" stroke="#63b8ff" d="M411.42,-276.66C443.66,-267.98 487.37,-255.86 525.55,-244 584.65,-225.65 653.13,-201.5 689.58,-188.41"/>
<polygon fill="#63b8ff" stroke="#63b8ff" points="410.75,-273.21 401.99,-279.18 412.56,-279.98 410.75,-273.21"/>
</a>
</g>
</g>
<!-- Node14 -->
<g id="Node000014" class="node">
<title>Node14</title>
<g id="a_Node000014"><a xlink:href="ser__json__writer_8hpp.html" target="_top" xlink:title="JSON serialization and file output for SER records.">
<polygon fill="white" stroke="#666666" points="834.92,-132 734.17,-132 734.17,-112 834.92,-112 834.92,-132"/>
<text xml:space="preserve" text-anchor="middle" x="784.55" y="-118.5" font-family="Helvetica,sans-Serif" font-size="10.00">ser_json_writer.hpp</text>
</a>
</g>
</g>
<!-- Node1&#45;&gt;Node14 -->
<g id="edge31_Node000001_Node000014" class="edge">
<title>Node1&#45;&gt;Node14</title>
<g id="a_edge31_Node000001_Node000014"><a xlink:title=" ">
<path fill="none" stroke="#63b8ff" d="M416.25,-283.68C516.06,-272.3 729.57,-242.09 776.55,-188 790.12,-172.38 788.44,-146.11 786.33,-132.24"/>
<polygon fill="#63b8ff" stroke="#63b8ff" points="416,-280.19 406.45,-284.78 416.78,-287.15 416,-280.19"/>
</a>
</g>
</g>
<!-- Node3 -->
<g id="Node000003" class="node">
<title>Node3</title>
<g id="a_Node000003"><a xlink:href="password__manager_8hpp.html" target="_top" xlink:title="Password management for relay LEVEL1 / LEVEL2 password changes.">
<polygon fill="white" stroke="#666666" points="142.3,-76 22.8,-76 22.8,-56 142.3,-56 142.3,-76"/>
<text xml:space="preserve" text-anchor="middle" x="82.55" y="-62.5" font-family="Helvetica,sans-Serif" font-size="10.00">password_manager.hpp</text>
</a>
</g>
</g>
<!-- Node2&#45;&gt;Node3 -->
<g id="edge2_Node000002_Node000003" class="edge">
<title>Node2&#45;&gt;Node3</title>
<g id="a_edge2_Node000002_Node000003"><a xlink:title=" ">
<path fill="none" stroke="#63b8ff" d="M164.85,-213.9C144.86,-178.22 102.52,-102.65 87.76,-76.3"/>
<polygon fill="#63b8ff" stroke="#63b8ff" points="161.6,-215.27 169.54,-222.28 167.71,-211.84 161.6,-215.27"/>
</a>
</g>
</g>
<!-- Node4 -->
<g id="Node000004" class="node">
<title>Node4</title>
<g id="a_Node000004"><a xlink:href="telnet__sml__app_8cpp.html" target="_top" xlink:title="Telnet SML Application &#45; Main orchestrator implementation.">
<polygon fill="white" stroke="#666666" points="436.92,-20 336.17,-20 336.17,0 436.92,0 436.92,-20"/>
<text xml:space="preserve" text-anchor="middle" x="386.55" y="-6.5" font-family="Helvetica,sans-Serif" font-size="10.00">telnet_sml_app.cpp</text>
</a>
</g>
</g>
<!-- Node2&#45;&gt;Node4 -->
<g id="edge16_Node000002_Node000004" class="edge">
<title>Node2&#45;&gt;Node4</title>
<g id="a_edge16_Node000002_Node000004"><a xlink:title=" ">
<path fill="none" stroke="#63b8ff" d="M144.3,-218.56C83.4,-188.55 -40.68,-117.16 13.55,-56 34.59,-32.27 238.97,-18.62 335.95,-13.43"/>
<polygon fill="#63b8ff" stroke="#63b8ff" points="142.65,-221.64 153.17,-222.84 145.69,-215.34 142.65,-221.64"/>
</a>
</g>
</g>
<!-- Node2&#45;&gt;Node5 -->
<g id="edge4_Node000002_Node000005" class="edge">
<title>Node2&#45;&gt;Node5</title>
<g id="a_edge4_Node000002_Node000005"><a xlink:title=" ">
<path fill="none" stroke="#63b8ff" d="M176.51,-212.45C178.26,-198.18 182.83,-179.69 194.55,-168 222.91,-139.69 267.95,-128.97 302.19,-125.02"/>
<polygon fill="#63b8ff" stroke="#63b8ff" points="173.05,-211.87 175.72,-222.13 180.02,-212.45 173.05,-211.87"/>
</a>
</g>
</g>
<!-- Node7 -->
<g id="Node000007" class="node">
<title>Node7</title>
<g id="a_Node000007"><a xlink:href="relay__service_8hpp.html" target="_top" xlink:title="Thread&#45;safe relay communication service for DATE operations.">
<polygon fill="white" stroke="#666666" points="224.8,-132 132.3,-132 132.3,-112 224.8,-112 224.8,-132"/>
<text xml:space="preserve" text-anchor="middle" x="178.55" y="-118.5" font-family="Helvetica,sans-Serif" font-size="10.00">relay_service.hpp</text>
</a>
</g>
</g>
<!-- Node2&#45;&gt;Node7 -->
<g id="edge8_Node000002_Node000007" class="edge">
<title>Node2&#45;&gt;Node7</title>
<g id="a_edge8_Node000002_Node000007"><a xlink:title=" ">
<path fill="none" stroke="#63b8ff" d="M167.22,-213.37C162.78,-200.5 158.75,-183.3 161.55,-168 163.89,-155.18 169.69,-141.28 173.86,-132.37"/>
<polygon fill="#63b8ff" stroke="#63b8ff" points="163.83,-214.29 170.69,-222.37 170.36,-211.78 163.83,-214.29"/>
</a>
</g>
</g>
<!-- Node2&#45;&gt;Node9 -->
<g id="edge13_Node000002_Node000009" class="edge">
<title>Node2&#45;&gt;Node9</title>
<g id="a_edge13_Node000002_Node000009"><a xlink:title=" ">
<path fill="none" stroke="#63b8ff" d="M196.1,-216.68C207.8,-207.39 222.03,-196.09 231.84,-188.3"/>
<polygon fill="#63b8ff" stroke="#63b8ff" points="194.23,-213.69 188.58,-222.65 198.59,-219.17 194.23,-213.69"/>
</a>
</g>
</g>
<!-- Node10 -->
<g id="Node000010" class="node">
<title>Node10</title>
<g id="a_Node000010"><a xlink:href="ws__server_8hpp.html" target="_top" xlink:title="WebSocket Server for Real&#45;time SER Data Access.">
<polygon fill="white" stroke="#666666" points="457.42,-188 377.67,-188 377.67,-168 457.42,-168 457.42,-188"/>
<text xml:space="preserve" text-anchor="middle" x="417.55" y="-174.5" font-family="Helvetica,sans-Serif" font-size="10.00">ws_server.hpp</text>
</a>
</g>
</g>
<!-- Node2&#45;&gt;Node10 -->
<g id="edge17_Node000002_Node000010" class="edge">
<title>Node2&#45;&gt;Node10</title>
<g id="a_edge17_Node000002_Node000010"><a xlink:title=" ">
<path fill="none" stroke="#63b8ff" d="M228.93,-221.09C273.67,-211.11 336.55,-197.07 377.18,-188.01"/>
<polygon fill="#63b8ff" stroke="#63b8ff" points="228.45,-217.61 219.46,-223.2 229.98,-224.44 228.45,-217.61"/>
</a>
</g>
</g>
<!-- Node3&#45;&gt;Node4 -->
<g id="edge3_Node000003_Node000004" class="edge">
<title>Node3&#45;&gt;Node4</title>
<g id="a_edge3_Node000003_Node000004"><a xlink:title=" ">
<path fill="none" stroke="#63b8ff" d="M147.13,-53.53C203.45,-43.52 284.05,-29.21 335.84,-20.01"/>
<polygon fill="#63b8ff" stroke="#63b8ff" points="146.57,-50.07 137.34,-55.27 147.8,-56.96 146.57,-50.07"/>
</a>
</g>
</g>
<!-- Node5&#45;&gt;Node4 -->
<g id="edge7_Node000005_Node000004" class="edge">
<title>Node5&#45;&gt;Node4</title>
<g id="a_edge7_Node000005_Node000004"><a xlink:title=" ">
<path fill="none" stroke="#63b8ff" d="M356.28,-100.97C364.32,-77.07 377.43,-38.11 383.4,-20.35"/>
<polygon fill="#63b8ff" stroke="#63b8ff" points="353.06,-99.59 353.19,-110.19 359.69,-101.82 353.06,-99.59"/>
</a>
</g>
</g>
<!-- Node6 -->
<g id="Node000006" class="node">
<title>Node6</title>
<g id="a_Node000006"><a xlink:href="relay__manager_8hpp.html" target="_top" xlink:title="On&#45;demand coordinator for multiple relay pipelines.">
<polygon fill="white" stroke="#666666" points="550.8,-76 452.3,-76 452.3,-56 550.8,-56 550.8,-76"/>
<text xml:space="preserve" text-anchor="middle" x="501.55" y="-62.5" font-family="Helvetica,sans-Serif" font-size="10.00">relay_manager.hpp</text>
</a>
</g>
</g>
<!-- Node5&#45;&gt;Node6 -->
<g id="edge5_Node000005_Node000006" class="edge">
<title>Node5&#45;&gt;Node6</title>
<g id="a_edge5_Node000005_Node000006"><a xlink:title=" ">
<path fill="none" stroke="#63b8ff" d="M386.73,-107.79C414.01,-98.1 450.43,-85.16 474.87,-76.48"/>
<polygon fill="#63b8ff" stroke="#63b8ff" points="385.7,-104.44 377.45,-111.09 388.05,-111.04 385.7,-104.44"/>
</a>
</g>
</g>
<!-- Node6&#45;&gt;Node4 -->
<g id="edge6_Node000006_Node000004" class="edge">
<title>Node6&#45;&gt;Node4</title>
<g id="a_edge6_Node000006_Node000004"><a xlink:title=" ">
<path fill="none" stroke="#63b8ff" d="M471.19,-50.75C450.83,-41.18 424.57,-28.85 406.74,-20.48"/>
<polygon fill="#63b8ff" stroke="#63b8ff" points="469.61,-53.87 480.15,-54.95 472.58,-47.53 469.61,-53.87"/>
</a>
</g>
</g>
<!-- Node7&#45;&gt;Node3 -->
<g id="edge9_Node000007_Node000003" class="edge">
<title>Node7&#45;&gt;Node3</title>
<g id="a_edge9_Node000007_Node000003"><a xlink:title=" ">
<path fill="none" stroke="#63b8ff" d="M152.02,-106.08C135.2,-96.62 113.94,-84.66 99.4,-76.48"/>
<polygon fill="#63b8ff" stroke="#63b8ff" points="150.08,-109 160.51,-110.85 153.51,-102.9 150.08,-109"/>
</a>
</g>
</g>
<!-- Node7&#45;&gt;Node4 -->
<g id="edge10_Node000007_Node000004" class="edge">
<title>Node7&#45;&gt;Node4</title>
<g id="a_edge10_Node000007_Node000004"><a xlink:title=" ">
<path fill="none" stroke="#63b8ff" d="M217.89,-107.77C240.06,-99.71 267.95,-88.57 291.55,-76 323.3,-59.09 357.36,-33.82 374.8,-20.31"/>
<polygon fill="#63b8ff" stroke="#63b8ff" points="216.86,-104.42 208.61,-111.07 219.21,-111.01 216.86,-104.42"/>
</a>
</g>
</g>
<!-- Node8 -->
<g id="Node000008" class="node">
<title>Node8</title>
<g id="a_Node000008"><a xlink:href="time__sync__manager_8hpp.html" target="_top" xlink:title="DATE synchronization manager for relay ↔ local&#45;PC time operations.">
<polygon fill="white" stroke="#666666" points="282.8,-76 160.3,-76 160.3,-56 282.8,-56 282.8,-76"/>
<text xml:space="preserve" text-anchor="middle" x="221.55" y="-62.5" font-family="Helvetica,sans-Serif" font-size="10.00">time_sync_manager.hpp</text>
</a>
</g>
</g>
<!-- Node7&#45;&gt;Node8 -->
<g id="edge11_Node000007_Node000008" class="edge">
<title>Node7&#45;&gt;Node8</title>
<g id="a_edge11_Node000007_Node000008"><a xlink:title=" ">
<path fill="none" stroke="#63b8ff" d="M193.1,-102.72C200.18,-93.84 208.37,-83.55 214.14,-76.3"/>
<polygon fill="#63b8ff" stroke="#63b8ff" points="190.47,-100.41 186.98,-110.41 195.95,-104.77 190.47,-100.41"/>
</a>
</g>
</g>
<!-- Node8&#45;&gt;Node4 -->
<g id="edge12_Node000008_Node000004" class="edge">
<title>Node8&#45;&gt;Node4</title>
<g id="a_edge12_Node000008_Node000004"><a xlink:title=" ">
<path fill="none" stroke="#63b8ff" d="M261.12,-52.05C290.82,-42.33 330.82,-29.24 357.58,-20.48"/>
<polygon fill="#63b8ff" stroke="#63b8ff" points="260.14,-48.69 251.73,-55.12 262.32,-55.34 260.14,-48.69"/>
</a>
</g>
</g>
<!-- Node9&#45;&gt;Node4 -->
<g id="edge15_Node000009_Node000004" class="edge">
<title>Node9&#45;&gt;Node4</title>
<g id="a_edge15_Node000009_Node000004"><a xlink:title=" ">
<path fill="none" stroke="#63b8ff" d="M257.08,-158.52C266.91,-145.32 280.69,-127.27 293.55,-112 322.88,-77.18 360.21,-38.09 377.28,-20.49"/>
<polygon fill="#63b8ff" stroke="#63b8ff" points="254.44,-156.2 251.32,-166.32 260.07,-160.36 254.44,-156.2"/>
</a>
</g>
</g>
<!-- Node9&#45;&gt;Node5 -->
<g id="edge14_Node000009_Node000005" class="edge">
<title>Node9&#45;&gt;Node5</title>
<g id="a_edge14_Node000009_Node000005"><a xlink:title=" ">
<path fill="none" stroke="#63b8ff" d="M272.05,-162.48C290.75,-152.96 314.66,-140.78 330.94,-132.48"/>
<polygon fill="#63b8ff" stroke="#63b8ff" points="270.68,-159.25 263.36,-166.91 273.86,-165.49 270.68,-159.25"/>
</a>
</g>
</g>
<!-- Node10&#45;&gt;Node4 -->
<g id="edge20_Node000010_Node000004" class="edge">
<title>Node10&#45;&gt;Node4</title>
<g id="a_edge20_Node000010_Node000004"><a xlink:title=" ">
<path fill="none" stroke="#63b8ff" d="M413.78,-156.5C411.43,-143.71 408.32,-126.89 405.55,-112 399.27,-78.32 391.72,-38.35 388.34,-20.47"/>
<polygon fill="#63b8ff" stroke="#63b8ff" points="410.32,-157.05 415.58,-166.25 417.21,-155.78 410.32,-157.05"/>
</a>
</g>
</g>
<!-- Node10&#45;&gt;Node5 -->
<g id="edge19_Node000010_Node000005" class="edge">
<title>Node10&#45;&gt;Node5</title>
<g id="a_edge19_Node000010_Node000005"><a xlink:title=" ">
<path fill="none" stroke="#63b8ff" d="M397,-160.68C385.3,-151.39 371.06,-140.09 361.26,-132.3"/>
<polygon fill="#63b8ff" stroke="#63b8ff" points="394.51,-163.17 404.52,-166.65 398.86,-157.69 394.51,-163.17"/>
</a>
</g>
</g>
<!-- Node10&#45;&gt;Node6 -->
<g id="edge18_Node000010_Node000006" class="edge">
<title>Node10&#45;&gt;Node6</title>
<g id="a_edge18_Node000010_Node000006"><a xlink:title=" ">
<path fill="none" stroke="#63b8ff" d="M431.61,-158.58C449.73,-134.86 480.53,-94.52 494.4,-76.35"/>
<polygon fill="#63b8ff" stroke="#63b8ff" points="428.92,-156.35 425.63,-166.42 434.48,-160.6 428.92,-156.35"/>
</a>
</g>
</g>
<!-- Node11&#45;&gt;Node4 -->
<g id="edge27_Node000011_Node000004" class="edge">
<title>Node11&#45;&gt;Node4</title>
<g id="a_edge27_Node000011_Node000004"><a xlink:title=" ">
<path fill="none" stroke="#63b8ff" d="M522.29,-220.67C552.69,-212.38 586.61,-200.68 595.55,-188 606.06,-173.08 588.72,-137.49 580.55,-112 572.43,-86.69 579.3,-73.79 559.55,-56 526.11,-25.88 475.05,-15.45 437.06,-12.06"/>
<polygon fill="#63b8ff" stroke="#63b8ff" points="521.55,-217.25 512.77,-223.18 523.33,-224.02 521.55,-217.25"/>
</a>
</g>
</g>
<!-- Node11&#45;&gt;Node5 -->
<g id="edge24_Node000011_Node000005" class="edge">
<title>Node11&#45;&gt;Node5</title>
<g id="a_edge24_Node000011_Node000005"><a xlink:title=" ">
<path fill="none" stroke="#63b8ff" d="M418.04,-219.82C400.2,-212.95 381.47,-202.8 368.55,-188 354.47,-171.89 350.81,-145.83 349.86,-132.11"/>
<polygon fill="#63b8ff" stroke="#63b8ff" points="416.65,-223.04 427.24,-223.08 418.98,-216.44 416.65,-223.04"/>
</a>
</g>
</g>
<!-- Node11&#45;&gt;Node6 -->
<g id="edge23_Node000011_Node000006" class="edge">
<title>Node11&#45;&gt;Node6</title>
<g id="a_edge23_Node000011_Node000006"><a xlink:title=" ">
<path fill="none" stroke="#63b8ff" d="M514.22,-220.11C540.82,-211.43 570.84,-199.52 578.55,-188 606.1,-146.82 544.29,-96.54 515.4,-76.2"/>
<polygon fill="#63b8ff" stroke="#63b8ff" points="513.42,-216.69 504.94,-223.04 515.53,-223.37 513.42,-216.69"/>
</a>
</g>
</g>
<!-- Node11&#45;&gt;Node9 -->
<g id="edge26_Node000011_Node000009" class="edge">
<title>Node11&#45;&gt;Node9</title>
<g id="a_edge26_Node000011_Node000009"><a xlink:title=" ">
<path fill="none" stroke="#63b8ff" d="M418.8,-220.88C377.78,-211.07 320.83,-197.47 283.13,-188.46"/>
<polygon fill="#63b8ff" stroke="#63b8ff" points="417.91,-224.26 428.45,-223.18 419.54,-217.45 417.91,-224.26"/>
</a>
</g>
</g>
<!-- Node11&#45;&gt;Node10 -->
<g id="edge30_Node000011_Node000010" class="edge">
<title>Node11&#45;&gt;Node10</title>
<g id="a_edge30_Node000011_Node000010"><a xlink:title=" ">
<path fill="none" stroke="#63b8ff" d="M452.76,-215.57C444.03,-206.5 433.7,-195.78 426.5,-188.3"/>
<polygon fill="#63b8ff" stroke="#63b8ff" points="449.98,-217.73 459.44,-222.5 455.03,-212.87 449.98,-217.73"/>
</a>
</g>
</g>
<!-- Node12 -->
<g id="Node000012" class="node">
<title>Node12</title>
<g id="a_Node000012"><a xlink:href="ser__database_8cpp.html" target="_top" xlink:title="Implementation of SERDatabase class for SQLite storage.">
<polygon fill="white" stroke="#666666" points="569.17,-188 475.92,-188 475.92,-168 569.17,-168 569.17,-188"/>
<text xml:space="preserve" text-anchor="middle" x="522.55" y="-174.5" font-family="Helvetica,sans-Serif" font-size="10.00">ser_database.cpp</text>
</a>
</g>
</g>
<!-- Node11&#45;&gt;Node12 -->
<g id="edge25_Node000011_Node000012" class="edge">
<title>Node11&#45;&gt;Node12</title>
<g id="a_edge25_Node000011_Node000012"><a xlink:title=" ">
<path fill="none" stroke="#63b8ff" d="M486.66,-215.57C495.56,-206.5 506.08,-195.78 513.42,-188.3"/>
<polygon fill="#63b8ff" stroke="#63b8ff" points="484.35,-212.93 479.84,-222.51 489.34,-217.83 484.35,-212.93"/>
</a>
</g>
</g>
<!-- Node11&#45;&gt;Node13 -->
<g id="edge28_Node000011_Node000013" class="edge">
<title>Node11&#45;&gt;Node13</title>
<g id="a_edge28_Node000011_Node000013"><a xlink:title=" ">
<path fill="none" stroke="#63b8ff" d="M523.64,-221.13C568.38,-211.31 631.07,-197.54 672.47,-188.46"/>
<polygon fill="#63b8ff" stroke="#63b8ff" points="523.17,-217.64 514.16,-223.21 524.68,-224.48 523.17,-217.64"/>
</a>
</g>
</g>
<!-- Node13&#45;&gt;Node4 -->
<g id="edge29_Node000013_Node000004" class="edge">
<title>Node13&#45;&gt;Node4</title>
<g id="a_edge29_Node000013_Node000004"><a xlink:title=" ">
<path fill="none" stroke="#63b8ff" d="M710.4,-156.53C702.35,-128.99 683.99,-80.61 649.55,-56 616.29,-32.23 503.87,-19.85 437.26,-14.45"/>
<polygon fill="#63b8ff" stroke="#63b8ff" points="707,-157.37 713,-166.1 713.76,-155.54 707,-157.37"/>
</a>
</g>
</g>
<!-- Node14&#45;&gt;Node4 -->
<g id="edge32_Node000014_Node000004" class="edge">
<title>Node14&#45;&gt;Node4</title>
<g id="a_edge32_Node000014_Node000004"><a xlink:title=" ">
<path fill="none" stroke="#63b8ff" d="M767.53,-103.92C751.28,-88.71 725.36,-67.19 698.55,-56 611.67,-19.76 500.7,-11.9 437.22,-10.65"/>
<polygon fill="#63b8ff" stroke="#63b8ff" points="764.79,-106.14 774.42,-110.56 769.65,-101.1 764.79,-106.14"/>
</a>
</g>
</g>
</g>
</svg>

<g id="navigator" transform="translate(0 0)" fill="#404254">
  <rect fill="#f2f5e9" fill-opacity="0.5" stroke="#606060" stroke-width=".5" x="0" y="0" width="60" height="60"/>
  <use id="zoomplus" xlink:href="#zoomPlus" x="17" y="9" onmousedown="handleZoom(evt,'in')"/>
  <use id="zoomminus" xlink:href="#zoomMin" x="42" y="9" onmousedown="handleZoom(evt,'out')"/>
  <use id="reset" xlink:href="#resetDef" x="30" y="36" onmousedown="handleReset()"/>
   <use id="arrowup" xlink:href="#arrowUp" x="0" y="0" onmousedown="handlePan(0,-1)"/>
  <use id="arrowright" xlink:href="#arrowRight" x="0" y="0" onmousedown="handlePan(1,0)"/>
  <use id="arrowdown" xlink:href="#arrowDown" x="0" y="0" onmousedown="handlePan(0,1)"/>
  <use id="arrowleft" xlink:href="#arrowLeft" x="0" y="0" onmousedown="handlePan(-1,0)"/>
</g>
<svg viewBox="0 0 15 15" width="100%" height="30px" preserveAspectRatio="xMaxYMin meet">
 <g id="arrow_out" transform="scale(0.3 0.3)">
  <a xlink:href="ser__record_8hpp__dep__incl_org.svg" target="_base">
   <rect id="button" ry="5" rx="5" y="6" x="6" height="38" width="38"
        fill="#f2f5e9" fill-opacity="0.5" stroke="#606060" stroke-width="1.0"/>
   <path id="arrow"
     d="M 11.500037,31.436501 C 11.940474,20.09759 22.043105,11.32322 32.158766,21.979434 L 37.068811,17.246167 C 37.068811,17.246167 37.088388,32 37.088388,32 L 22.160133,31.978069 C 22.160133,31.978069 26.997745,27.140456 26.997745,27.140456 C 18.528582,18.264221 13.291696,25.230495 11.500037,31.436501 z"
     style="fill:#404040;"/>
  </a>
 </g>
</svg>

<style type='text/css'>
<![CDATA[
[data-mouse-over-selected='false'] { opacity: 0.7; }
[data-mouse-over-selected='true']  { opacity: 1.0; }
]]>
</style>
<script type="application/ecmascript"><![CDATA[
document.addEventListener('DOMContentLoaded', (event) => {
  highlightEdges();
  highlightAdjacentNodes();
});
]]></script>
</svg>
