<?xml version="1.0" encoding="UTF-8" standalone="no"?>
<!DOCTYPE svg PUBLIC "-//W3C//DTD SVG 1.1//EN"
 "http://www.w3.org/Graphics/SVG/1.1/DTD/svg11.dtd">
<!-- Generated by graphviz version 14.1.2 (20260124.0452)
 -->
<!-- Title: ser_database.cpp Pages: 1 -->
<svg width="411pt" height="196pt"
 viewBox="0.00 0.00 411.00 196.00" xmlns="http://www.w3.org/2000/svg" xmlns:xlink="http://www.w3.org/1999/xlink">
<g id="graph0" class="graph" transform="scale(1 1) rotate(0) translate(4 192)">
<title>ser_database.cpp</title>
<!-- Node1 -->
<g id="Node000001" class="node">
<title>Node1</title>
<g id="a_Node000001"><a xlink:title="Implementation of SERDatabase class for SQLite storage.">
<polygon fill="#999999" stroke="#666666" points="278,-188 184.75,-188 184.75,-168 278,-168 278,-188"/>
<text xml:space="preserve" text-anchor="middle" x="231.38" y="-174.5" font-family="Helvetica,sans-Serif" font-size="10.00">ser_database.cpp</text>
</a>
</g>
</g>
<!-- Node2 -->
<g id="Node000002" class="node">
<title>Node2</title>
<g id="a_Node000002"><a xlink:href="ser__database_8hpp.html" target="_top" xlink:title="SQLite database handler for SER records.">
<polygon fill="white" stroke="#666666" points="233,-132 139.75,-132 139.75,-112 233,-112 233,-132"/>
<text xml:space="preserve" text-anchor="middle" x="186.38" y="-118.5" font-family="Helvetica,sans-Serif" font-size="10.00">ser_database.hpp</text>
</a>
</g>
</g>
<!-- Node1&#45;&gt;Node2 -->
<g id="edge1_Node000001_Node000002" class="edge">
<title>Node1&#45;&gt;Node2</title>
<g id="a_edge1_Node000001_Node000002"><a xlink:title=" ">
<path fill="none" stroke="#63b8ff" d="M223.54,-167.59C217.41,-160.24 208.7,-149.8 201.26,-140.87"/>
<polygon fill="#63b8ff" stroke="#63b8ff" points="204.18,-138.9 195.09,-133.46 198.81,-143.38 204.18,-138.9"/>
</a>
</g>
</g>
<!-- Node12 -->
<g id="Node000012" class="node">
<title>Node12</title>
<g id="a_Node000012"><a xlink:title=" ">
<polygon fill="#e0e0e0" stroke="#999999" points="304.12,-132 250.62,-132 250.62,-112 304.12,-112 304.12,-132"/>
<text xml:space="preserve" text-anchor="middle" x="277.38" y="-118.5" font-family="Helvetica,sans-Serif" font-size="10.00">iostream</text>
</a>
</g>
</g>
<!-- Node1&#45;&gt;Node12 -->
<g id="edge14_Node000001_Node000012" class="edge">
<title>Node1&#45;&gt;Node12</title>
<g id="a_edge14_Node000001_Node000012"><a xlink:title=" ">
<path fill="none" stroke="#63b8ff" d="M239.39,-167.59C245.65,-160.24 254.55,-149.8 262.16,-140.87"/>
<polygon fill="#63b8ff" stroke="#63b8ff" points="264.65,-143.33 268.47,-133.45 259.32,-138.79 264.65,-143.33"/>
</a>
</g>
</g>
<!-- Node3 -->
<g id="Node000003" class="node">
<title>Node3</title>
<g id="a_Node000003"><a xlink:href="dll__export_8hpp.html" target="_top" xlink:title="DLL Export/Import Macros for Windows.">
<polygon fill="white" stroke="#666666" points="76.75,-20 0,-20 0,0 76.75,0 76.75,-20"/>
<text xml:space="preserve" text-anchor="middle" x="38.38" y="-6.5" font-family="Helvetica,sans-Serif" font-size="10.00">dll_export.hpp</text>
</a>
</g>
</g>
<!-- Node2&#45;&gt;Node3 -->
<g id="edge2_Node000002_Node000003" class="edge">
<title>Node2&#45;&gt;Node3</title>
<g id="a_edge2_Node000002_Node000003"><a xlink:title=" ">
<path fill="none" stroke="#63b8ff" d="M173.76,-111.62C148.53,-92.87 91.59,-50.55 60.19,-27.21"/>
<polygon fill="#63b8ff" stroke="#63b8ff" points="62.29,-24.41 52.18,-21.26 58.11,-30.03 62.29,-24.41"/>
</a>
</g>
</g>
<!-- Node4 -->
<g id="Node000004" class="node">
<title>Node4</title>
<g id="a_Node000004"><a xlink:title=" ">
<polygon fill="#e0e0e0" stroke="#999999" points="134.38,-20 94.38,-20 94.38,0 134.38,0 134.38,-20"/>
<text xml:space="preserve" text-anchor="middle" x="114.38" y="-6.5" font-family="Helvetica,sans-Serif" font-size="10.00">string</text>
</a>
</g>
</g>
<!-- Node2&#45;&gt;Node4 -->
<g id="edge3_Node000002_Node000004" class="edge">
<title>Node2&#45;&gt;Node4</title>
<g id="a_edge3_Node000002_Node000004"><a xlink:title=" ">
<path fill="none" stroke="#63b8ff" d="M180.24,-111.62C168.39,-93.52 142.16,-53.45 126.62,-29.7"/>
<polygon fill="#63b8ff" stroke="#63b8ff" points="129.73,-28.07 121.33,-21.62 123.88,-31.91 129.73,-28.07"/>
</a>
</g>
</g>
<!-- Node5 -->
<g id="Node000005" class="node">
<title>Node5</title>
<g id="a_Node000005"><a xlink:title=" ">
<polygon fill="#e0e0e0" stroke="#999999" points="195.88,-20 152.88,-20 152.88,0 195.88,0 195.88,-20"/>
<text xml:space="preserve" text-anchor="middle" x="174.38" y="-6.5" font-family="Helvetica,sans-Serif" font-size="10.00">vector</text>
</a>
</g>
</g>
<!-- Node2&#45;&gt;Node5 -->
<g id="edge4_Node000002_Node000005" class="edge">
<title>Node2&#45;&gt;Node5</title>
<g id="a_edge4_Node000002_Node000005"><a xlink:title=" ">
<path fill="none" stroke="#63b8ff" d="M182.24,-111.57C178.55,-102.62 173.43,-88.68 171.38,-76 168.99,-61.28 169.86,-44.46 171.26,-31.62"/>
<polygon fill="#63b8ff" stroke="#63b8ff" points="174.72,-32.2 172.55,-21.83 167.78,-31.29 174.72,-32.2"/>
</a>
</g>
</g>
<!-- Node6 -->
<g id="Node000006" class="node">
<title>Node6</title>
<g id="a_Node000006"><a xlink:title=" ">
<polygon fill="#e0e0e0" stroke="#999999" points="327.88,-76 278.88,-76 278.88,-56 327.88,-56 327.88,-76"/>
<text xml:space="preserve" text-anchor="middle" x="303.38" y="-62.5" font-family="Helvetica,sans-Serif" font-size="10.00">fstream</text>
</a>
</g>
</g>
<!-- Node2&#45;&gt;Node6 -->
<g id="edge5_Node000002_Node000006" class="edge">
<title>Node2&#45;&gt;Node6</title>
<g id="a_edge5_Node000002_Node000006"><a xlink:title=" ">
<path fill="none" stroke="#63b8ff" d="M206.75,-111.59C224.93,-103.21 251.8,-90.8 272.59,-81.21"/>
<polygon fill="#63b8ff" stroke="#63b8ff" points="273.85,-84.48 281.46,-77.11 270.92,-78.13 273.85,-84.48"/>
</a>
</g>
</g>
<!-- Node7 -->
<g id="Node000007" class="node">
<title>Node7</title>
<g id="a_Node000007"><a xlink:title=" ">
<polygon fill="#e0e0e0" stroke="#999999" points="398.75,-76 346,-76 346,-56 398.75,-56 398.75,-76"/>
<text xml:space="preserve" text-anchor="middle" x="372.38" y="-62.5" font-family="Helvetica,sans-Serif" font-size="10.00">sqlite3.h</text>
</a>
</g>
</g>
<!-- Node2&#45;&gt;Node7 -->
<g id="edge6_Node000002_Node000007" class="edge">
<title>Node2&#45;&gt;Node7</title>
<g id="a_edge6_Node000002_Node000007"><a xlink:title=" ">
<path fill="none" stroke="#63b8ff" d="M218.77,-111.59C251.13,-102.2 300.82,-87.77 334.86,-77.89"/>
<polygon fill="#63b8ff" stroke="#63b8ff" points="335.68,-81.3 344.31,-75.15 333.73,-74.58 335.68,-81.3"/>
</a>
</g>
</g>
<!-- Node8 -->
<g id="Node000008" class="node">
<title>Node8</title>
<g id="a_Node000008"><a xlink:href="ser__record_8hpp.html" target="_top" xlink:title="System Event Record (SER) data structure and parser.">
<polygon fill="white" stroke="#666666" points="260.62,-76 180.12,-76 180.12,-56 260.62,-56 260.62,-76"/>
<text xml:space="preserve" text-anchor="middle" x="220.38" y="-62.5" font-family="Helvetica,sans-Serif" font-size="10.00">ser_record.hpp</text>
</a>
</g>
</g>
<!-- Node2&#45;&gt;Node8 -->
<g id="edge7_Node000002_Node000008" class="edge">
<title>Node2&#45;&gt;Node8</title>
<g id="a_edge7_Node000002_Node000008"><a xlink:title=" ">
<path fill="none" stroke="#63b8ff" d="M192.3,-111.59C196.73,-104.55 202.95,-94.67 208.41,-86"/>
<polygon fill="#63b8ff" stroke="#63b8ff" points="211.35,-87.91 213.71,-77.58 205.42,-84.18 211.35,-87.91"/>
</a>
</g>
</g>
<!-- Node8&#45;&gt;Node3 -->
<g id="edge8_Node000008_Node000003" class="edge">
<title>Node8&#45;&gt;Node3</title>
<g id="a_edge8_Node000008_Node000003"><a xlink:title=" ">
<path fill="none" stroke="#63b8ff" d="M188.67,-55.59C158.84,-46.74 113.96,-33.43 81,-23.65"/>
<polygon fill="#63b8ff" stroke="#63b8ff" points="82.36,-20.4 71.78,-20.91 80.37,-27.11 82.36,-20.4"/>
</a>
</g>
</g>
<!-- Node8&#45;&gt;Node4 -->
<g id="edge9_Node000008_Node000004" class="edge">
<title>Node8&#45;&gt;Node4</title>
<g id="a_edge9_Node000008_Node000004"><a xlink:title=" ">
<path fill="none" stroke="#63b8ff" d="M201.91,-55.59C185.67,-47.32 161.77,-35.14 143.04,-25.6"/>
<polygon fill="#63b8ff" stroke="#63b8ff" points="144.83,-22.59 134.33,-21.17 141.65,-28.82 144.83,-22.59"/>
</a>
</g>
</g>
<!-- Node8&#45;&gt;Node5 -->
<g id="edge10_Node000008_Node000005" class="edge">
<title>Node8&#45;&gt;Node5</title>
<g id="a_edge10_Node000008_Node000005"><a xlink:title=" ">
<path fill="none" stroke="#63b8ff" d="M212.36,-55.59C206.1,-48.24 197.2,-37.8 189.59,-28.87"/>
<polygon fill="#63b8ff" stroke="#63b8ff" points="192.43,-26.79 183.28,-21.45 187.1,-31.33 192.43,-26.79"/>
</a>
</g>
</g>
<!-- Node9 -->
<g id="Node000009" class="node">
<title>Node9</title>
<g id="a_Node000009"><a xlink:title=" ">
<polygon fill="#e0e0e0" stroke="#999999" points="265,-20 213.75,-20 213.75,0 265,0 265,-20"/>
<text xml:space="preserve" text-anchor="middle" x="239.38" y="-6.5" font-family="Helvetica,sans-Serif" font-size="10.00">sstream</text>
</a>
</g>
</g>
<!-- Node8&#45;&gt;Node9 -->
<g id="edge11_Node000008_Node000009" class="edge">
<title>Node8&#45;&gt;Node9</title>
<g id="a_edge11_Node000008_Node000009"><a xlink:title=" ">
<path fill="none" stroke="#63b8ff" d="M223.68,-55.59C226.05,-48.86 229.34,-39.53 232.28,-31.15"/>
<polygon fill="#63b8ff" stroke="#63b8ff" points="235.58,-32.32 235.6,-21.73 228.98,-30 235.58,-32.32"/>
</a>
</g>
</g>
<!-- Node10 -->
<g id="Node000010" class="node">
<title>Node10</title>
<g id="a_Node000010"><a xlink:title=" ">
<polygon fill="#e0e0e0" stroke="#999999" points="339.25,-20 283.5,-20 283.5,0 339.25,0 339.25,-20"/>
<text xml:space="preserve" text-anchor="middle" x="311.38" y="-6.5" font-family="Helvetica,sans-Serif" font-size="10.00">algorithm</text>
</a>
</g>
</g>
<!-- Node8&#45;&gt;Node10 -->
<g id="edge12_Node000008_Node000010" class="edge">
<title>Node8&#45;&gt;Node10</title>
<g id="a_edge12_Node000008_Node000010"><a xlink:title=" ">
<path fill="none" stroke="#63b8ff" d="M236.23,-55.59C249.84,-47.51 269.74,-35.71 285.64,-26.27"/>
<polygon fill="#63b8ff" stroke="#63b8ff" points="287.28,-29.37 294.1,-21.25 283.71,-23.35 287.28,-29.37"/>
</a>
</g>
</g>
<!-- Node11 -->
<g id="Node000011" class="node">
<title>Node11</title>
<g id="a_Node000011"><a xlink:title=" ">
<polygon fill="#e0e0e0" stroke="#999999" points="403,-20 357.75,-20 357.75,0 403,0 403,-20"/>
<text xml:space="preserve" text-anchor="middle" x="380.38" y="-6.5" font-family="Helvetica,sans-Serif" font-size="10.00">cctype</text>
</a>
</g>
</g>
<!-- Node8&#45;&gt;Node11 -->
<g id="edge13_Node000008_Node000011" class="edge">
<title>Node8&#45;&gt;Node11</title>
<g id="a_edge13_Node000008_Node000011"><a xlink:title=" ">
<path fill="none" stroke="#63b8ff" d="M248.24,-55.59C275.71,-46.32 317.71,-32.15 346.95,-22.28"/>
<polygon fill="#63b8ff" stroke="#63b8ff" points="347.69,-25.72 356.05,-19.21 345.45,-19.09 347.69,-25.72"/>
</a>
</g>
</g>
</g>
</svg>
