<?xml version="1.0" encoding="UTF-8" standalone="no"?>
<!DOCTYPE svg PUBLIC "-//W3C//DTD SVG 1.1//EN"
 "http://www.w3.org/Graphics/SVG/1.1/DTD/svg11.dtd">
<!-- Generated by graphviz version 14.1.1 (20251213.1925)
 -->
<!-- Title: ser_database.hpp Pages: 1 -->
<svg width="424pt" height="252pt"
 viewBox="0.00 0.00 424.00 252.00" xmlns="http://www.w3.org/2000/svg" xmlns:xlink="http://www.w3.org/1999/xlink">
<g id="graph0" class="graph" transform="scale(1 1) rotate(0) translate(4 248)">
<title>ser_database.hpp</title>
<!-- Node1 -->
<g id="Node000001" class="node">
<title>Node1</title>
<g id="a_Node000001"><a xlink:title="SQLite database handler for SER records.">
<polygon fill="#999999" stroke="#666666" points="205.25,-244 112,-244 112,-224 205.25,-224 205.25,-244"/>
<text xml:space="preserve" text-anchor="middle" x="158.63" y="-230.5" font-family="Helvetica,sans-Serif" font-size="10.00">ser_database.hpp</text>
</a>
</g>
</g>
<!-- Node2 -->
<g id="Node000002" class="node">
<title>Node2</title>
<g id="a_Node000002"><a xlink:href="relay__manager_8hpp.html" target="_top" xlink:title="On&#45;demand coordinator for multiple relay pipelines.">
<polygon fill="white" stroke="#666666" points="174.88,-76 76.38,-76 76.38,-56 174.88,-56 174.88,-76"/>
<text xml:space="preserve" text-anchor="middle" x="125.63" y="-62.5" font-family="Helvetica,sans-Serif" font-size="10.00">relay_manager.hpp</text>
</a>
</g>
</g>
<!-- Node1&#45;&gt;Node2 -->
<g id="edge1_Node000001_Node000002" class="edge">
<title>Node1&#45;&gt;Node2</title>
<g id="a_edge1_Node000001_Node000002"><a xlink:title=" ">
<path fill="none" stroke="#63b8ff" d="M100.53,-224.88C78.29,-218.63 55.07,-207.57 41.63,-188 12.96,-146.26 78.89,-96.7 110.23,-76.39"/>
<polygon fill="#63b8ff" stroke="#63b8ff" points="99.64,-228.27 110.19,-227.29 101.34,-221.48 99.64,-228.27"/>
</a>
</g>
</g>
<!-- Node3 -->
<g id="Node000003" class="node">
<title>Node3</title>
<g id="a_Node000003"><a xlink:href="telnet__sml__app_8cpp.html" target="_top" xlink:title="Telnet SML Application &#45; Main orchestrator implementation.">
<polygon fill="white" stroke="#666666" points="214,-20 113.25,-20 113.25,0 214,0 214,-20"/>
<text xml:space="preserve" text-anchor="middle" x="163.63" y="-6.5" font-family="Helvetica,sans-Serif" font-size="10.00">telnet_sml_app.cpp</text>
</a>
</g>
</g>
<!-- Node1&#45;&gt;Node3 -->
<g id="edge10_Node000001_Node000003" class="edge">
<title>Node1&#45;&gt;Node3</title>
<g id="a_edge10_Node000001_Node000003"><a xlink:title=" ">
<path fill="none" stroke="#63b8ff" d="M100.31,-227.46C74.54,-221.77 46.52,-210.44 30.63,-188 8.56,-156.85 -35.71,-164.93 55.63,-56 70.77,-37.95 94.36,-27.01 115.64,-20.46"/>
<polygon fill="#63b8ff" stroke="#63b8ff" points="99.59,-230.88 110.07,-229.34 100.92,-224.01 99.59,-230.88"/>
</a>
</g>
</g>
<!-- Node4 -->
<g id="Node000004" class="node">
<title>Node4</title>
<g id="a_Node000004"><a xlink:href="relay__pipeline_8hpp.html" target="_top" xlink:title="Per&#45;relay processing pipeline for on&#45;demand relay connections.">
<polygon fill="white" stroke="#666666" points="212.63,-132 118.63,-132 118.63,-112 212.63,-112 212.63,-132"/>
<text xml:space="preserve" text-anchor="middle" x="165.63" y="-118.5" font-family="Helvetica,sans-Serif" font-size="10.00">relay_pipeline.hpp</text>
</a>
</g>
</g>
<!-- Node1&#45;&gt;Node4 -->
<g id="edge3_Node000001_Node000004" class="edge">
<title>Node1&#45;&gt;Node4</title>
<g id="a_edge3_Node000001_Node000004"><a xlink:title=" ">
<path fill="none" stroke="#63b8ff" d="M159.95,-212.31C161.47,-188.36 163.91,-149.95 165.03,-132.35"/>
<polygon fill="#63b8ff" stroke="#63b8ff" points="156.46,-211.91 159.32,-222.11 163.45,-212.35 156.46,-211.91"/>
</a>
</g>
</g>
<!-- Node5 -->
<g id="Node000005" class="node">
<title>Node5</title>
<g id="a_Node000005"><a xlink:href="ser__database_8cpp.html" target="_top" xlink:title="Implementation of SERDatabase class for SQLite storage.">
<polygon fill="white" stroke="#666666" points="416.25,-188 323,-188 323,-168 416.25,-168 416.25,-188"/>
<text xml:space="preserve" text-anchor="middle" x="369.63" y="-174.5" font-family="Helvetica,sans-Serif" font-size="10.00">ser_database.cpp</text>
</a>
</g>
</g>
<!-- Node1&#45;&gt;Node5 -->
<g id="edge6_Node000001_Node000005" class="edge">
<title>Node1&#45;&gt;Node5</title>
<g id="a_edge6_Node000001_Node000005"><a xlink:title=" ">
<path fill="none" stroke="#63b8ff" d="M206.25,-220.81C244.5,-211.02 297.46,-197.47 332.59,-188.48"/>
<polygon fill="#63b8ff" stroke="#63b8ff" points="205.67,-217.35 196.85,-223.22 207.4,-224.13 205.67,-217.35"/>
</a>
</g>
</g>
<!-- Node6 -->
<g id="Node000006" class="node">
<title>Node6</title>
<g id="a_Node000006"><a xlink:href="telnet__fsm_8hpp.html" target="_top" xlink:title="Boost.SML Finite State Machine for Telnet Communication.">
<polygon fill="white" stroke="#666666" points="266.88,-188 186.38,-188 186.38,-168 266.88,-168 266.88,-188"/>
<text xml:space="preserve" text-anchor="middle" x="226.63" y="-174.5" font-family="Helvetica,sans-Serif" font-size="10.00">telnet_fsm.hpp</text>
</a>
</g>
</g>
<!-- Node1&#45;&gt;Node6 -->
<g id="edge7_Node000001_Node000006" class="edge">
<title>Node1&#45;&gt;Node6</title>
<g id="a_edge7_Node000001_Node000006"><a xlink:title=" ">
<path fill="none" stroke="#63b8ff" d="M179.18,-216.68C190.88,-207.39 205.11,-196.09 214.92,-188.3"/>
<polygon fill="#63b8ff" stroke="#63b8ff" points="177.31,-213.69 171.66,-222.65 181.67,-219.17 177.31,-213.69"/>
</a>
</g>
</g>
<!-- Node7 -->
<g id="Node000007" class="node">
<title>Node7</title>
<g id="a_Node000007"><a xlink:href="thread__manager_8hpp.html" target="_top" xlink:title="Thread management utilities for the Telnet&#45;SML application.">
<polygon fill="white" stroke="#666666" points="372.88,-132 268.38,-132 268.38,-112 372.88,-112 372.88,-132"/>
<text xml:space="preserve" text-anchor="middle" x="320.63" y="-118.5" font-family="Helvetica,sans-Serif" font-size="10.00">thread_manager.hpp</text>
</a>
</g>
</g>
<!-- Node1&#45;&gt;Node7 -->
<g id="edge11_Node000001_Node000007" class="edge">
<title>Node1&#45;&gt;Node7</title>
<g id="a_edge11_Node000001_Node000007"><a xlink:title=" ">
<path fill="none" stroke="#63b8ff" d="M211.11,-220.19C232.63,-213.16 256.83,-202.77 275.63,-188 295.27,-172.56 309.73,-146.22 316.45,-132.28"/>
<polygon fill="#63b8ff" stroke="#63b8ff" points="210.12,-216.84 201.59,-223.13 212.18,-223.53 210.12,-216.84"/>
</a>
</g>
</g>
<!-- Node8 -->
<g id="Node000008" class="node">
<title>Node8</title>
<g id="a_Node000008"><a xlink:href="ws__server_8hpp.html" target="_top" xlink:title="WebSocket Server for Real&#45;time SER Data Access.">
<polygon fill="white" stroke="#666666" points="130.5,-188 50.75,-188 50.75,-168 130.5,-168 130.5,-188"/>
<text xml:space="preserve" text-anchor="middle" x="90.63" y="-174.5" font-family="Helvetica,sans-Serif" font-size="10.00">ws_server.hpp</text>
</a>
</g>
</g>
<!-- Node1&#45;&gt;Node8 -->
<g id="edge13_Node000001_Node000008" class="edge">
<title>Node1&#45;&gt;Node8</title>
<g id="a_edge13_Node000001_Node000008"><a xlink:title=" ">
<path fill="none" stroke="#63b8ff" d="M138.08,-216.68C126.38,-207.39 112.15,-196.09 102.34,-188.3"/>
<polygon fill="#63b8ff" stroke="#63b8ff" points="135.59,-219.17 145.6,-222.65 139.95,-213.69 135.59,-219.17"/>
</a>
</g>
</g>
<!-- Node2&#45;&gt;Node3 -->
<g id="edge2_Node000002_Node000003" class="edge">
<title>Node2&#45;&gt;Node3</title>
<g id="a_edge2_Node000002_Node000003"><a xlink:title=" ">
<path fill="none" stroke="#63b8ff" d="M138.69,-46.44C144.9,-37.62 152.04,-27.47 157.09,-20.3"/>
<polygon fill="#63b8ff" stroke="#63b8ff" points="136.01,-44.16 133.12,-54.36 141.74,-48.19 136.01,-44.16"/>
</a>
</g>
</g>
<!-- Node4&#45;&gt;Node2 -->
<g id="edge4_Node000004_Node000002" class="edge">
<title>Node4&#45;&gt;Node2</title>
<g id="a_edge4_Node000004_Node000002"><a xlink:title=" ">
<path fill="none" stroke="#63b8ff" d="M151.88,-102.44C145.35,-93.62 137.83,-83.47 132.52,-76.3"/>
<polygon fill="#63b8ff" stroke="#63b8ff" points="149,-104.43 157.76,-110.38 154.62,-100.26 149,-104.43"/>
</a>
</g>
</g>
<!-- Node4&#45;&gt;Node3 -->
<g id="edge5_Node000004_Node000003" class="edge">
<title>Node4&#45;&gt;Node3</title>
<g id="a_edge5_Node000004_Node000003"><a xlink:title=" ">
<path fill="none" stroke="#63b8ff" d="M175.95,-101.85C181.64,-88.98 186.94,-71.59 183.63,-56 180.86,-42.95 174.04,-29.1 169.13,-20.26"/>
<polygon fill="#63b8ff" stroke="#63b8ff" points="172.98,-99.95 171.72,-110.47 179.27,-103.03 172.98,-99.95"/>
</a>
</g>
</g>
<!-- Node6&#45;&gt;Node3 -->
<g id="edge9_Node000006_Node000003" class="edge">
<title>Node6&#45;&gt;Node3</title>
<g id="a_edge9_Node000006_Node000003"><a xlink:title=" ">
<path fill="none" stroke="#63b8ff" d="M226.68,-156.25C226.3,-143.36 225.08,-126.54 221.63,-112 215.41,-85.82 212.12,-79.28 198.63,-56 190.99,-42.81 179.87,-29.21 172.23,-20.46"/>
<polygon fill="#63b8ff" stroke="#63b8ff" points="223.18,-156.13 226.8,-166.09 230.17,-156.05 223.18,-156.13"/>
</a>
</g>
</g>
<!-- Node6&#45;&gt;Node4 -->
<g id="edge8_Node000006_Node000004" class="edge">
<title>Node6&#45;&gt;Node4</title>
<g id="a_edge8_Node000006_Node000004"><a xlink:title=" ">
<path fill="none" stroke="#63b8ff" d="M207.57,-160.13C197.19,-150.94 184.76,-139.93 176.13,-132.3"/>
<polygon fill="#63b8ff" stroke="#63b8ff" points="205.06,-162.58 214.87,-166.59 209.7,-157.34 205.06,-162.58"/>
</a>
</g>
</g>
<!-- Node7&#45;&gt;Node3 -->
<g id="edge12_Node000007_Node000003" class="edge">
<title>Node7&#45;&gt;Node3</title>
<g id="a_edge12_Node000007_Node000003"><a xlink:title=" ">
<path fill="none" stroke="#63b8ff" d="M305.57,-103.33C292.96,-89.28 273.98,-69.77 254.63,-56 233.52,-40.98 206.65,-28.37 187.59,-20.36"/>
<polygon fill="#63b8ff" stroke="#63b8ff" points="302.65,-105.3 311.87,-110.52 307.91,-100.69 302.65,-105.3"/>
</a>
</g>
</g>
<!-- Node8&#45;&gt;Node2 -->
<g id="edge14_Node000008_Node000002" class="edge">
<title>Node8&#45;&gt;Node2</title>
<g id="a_edge14_Node000008_Node000002"><a xlink:title=" ">
<path fill="none" stroke="#63b8ff" d="M96.21,-156.82C99.85,-143.94 104.8,-126.92 109.63,-112 113.66,-99.54 118.81,-85.32 122.16,-76.25"/>
<polygon fill="#63b8ff" stroke="#63b8ff" points="92.9,-155.66 93.58,-166.23 99.64,-157.54 92.9,-155.66"/>
</a>
</g>
</g>
<!-- Node8&#45;&gt;Node3 -->
<g id="edge16_Node000008_Node000003" class="edge">
<title>Node8&#45;&gt;Node3</title>
<g id="a_edge16_Node000008_Node000003"><a xlink:title=" ">
<path fill="none" stroke="#63b8ff" d="M79.17,-157.85C65.69,-132.57 47.55,-87.6 67.63,-56 79.08,-37.98 99.87,-27.05 119.18,-20.49"/>
<polygon fill="#63b8ff" stroke="#63b8ff" points="76,-159.36 83.96,-166.35 82.1,-155.92 76,-159.36"/>
</a>
</g>
</g>
<!-- Node8&#45;&gt;Node4 -->
<g id="edge15_Node000008_Node000004" class="edge">
<title>Node8&#45;&gt;Node4</title>
<g id="a_edge15_Node000008_Node000004"><a xlink:title=" ">
<path fill="none" stroke="#63b8ff" d="M112.85,-161C125.74,-151.72 141.53,-140.35 152.46,-132.48"/>
<polygon fill="#63b8ff" stroke="#63b8ff" points="110.99,-158.03 104.92,-166.71 115.08,-163.71 110.99,-158.03"/>
</a>
</g>
</g>
</g>
</svg>
