<?xml version="1.0" encoding="UTF-8" standalone="no"?>
<!DOCTYPE svg PUBLIC "-//W3C//DTD SVG 1.1//EN"
 "http://www.w3.org/Graphics/SVG/1.1/DTD/svg11.dtd">
<!-- Generated by graphviz version 14.1.2 (20260124.0452)
 -->
<!-- Title: ser_record.hpp Pages: 1 -->
<svg width="411pt" height="84pt"
 viewBox="0.00 0.00 411.00 84.00" xmlns="http://www.w3.org/2000/svg" xmlns:xlink="http://www.w3.org/1999/xlink">

<svg id="main" version="1.1" xmlns="http://www.w3.org/2000/svg" xmlns:xlink="http://www.w3.org/1999/xlink" xml:space="preserve">

<style type="text/css"><![CDATA[
.node, .edge {opacity: 0.7;}
.node.selected, .edge.selected {opacity: 1;}
.edge:hover path { stroke: red; }
.edge:hover polygon { stroke: red; fill: red; }
]]></style>
<script type="application/ecmascript" xlink:href="svg.min.js"/>
<svg id="graph" class="graph">
<g id="graph0" class="graph" transform="scale(1 1) rotate(0) translate(4 80)">
<title>ser_record.hpp</title>
<!-- Node1 -->
<g id="Node000001" class="node">
<title>Node1</title>
<g id="a_Node000001"><a xlink:title="System Event Record (SER) data structure and parser.">
<polygon fill="#999999" stroke="#666666" points="246.62,-76 166.12,-76 166.12,-56 246.62,-56 246.62,-76"/>
<text xml:space="preserve" text-anchor="middle" x="206.38" y="-62.5" font-family="Helvetica,sans-Serif" font-size="10.00">ser_record.hpp</text>
</a>
</g>
</g>
<!-- Node2 -->
<g id="Node000002" class="node">
<title>Node2</title>
<g id="a_Node000002"><a xlink:href="dll__export_8hpp.html" target="_top" xlink:title="DLL Export/Import Macros for Windows.">
<polygon fill="white" stroke="#666666" points="76.75,-20 0,-20 0,0 76.75,0 76.75,-20"/>
<text xml:space="preserve" text-anchor="middle" x="38.38" y="-6.5" font-family="Helvetica,sans-Serif" font-size="10.00">dll_export.hpp</text>
</a>
</g>
</g>
<!-- Node1&#45;&gt;Node2 -->
<g id="edge1_Node000001_Node000002" class="edge">
<title>Node1&#45;&gt;Node2</title>
<g id="a_edge1_Node000001_Node000002"><a xlink:title=" ">
<path fill="none" stroke="#63b8ff" d="M177.11,-55.59C149.82,-46.82 108.86,-33.66 78.52,-23.9"/>
<polygon fill="#63b8ff" stroke="#63b8ff" points="79.9,-20.67 69.31,-20.94 77.76,-27.33 79.9,-20.67"/>
</a>
</g>
</g>
<!-- Node3 -->
<g id="Node000003" class="node">
<title>Node3</title>
<g id="a_Node000003"><a xlink:title=" ">
<polygon fill="#e0e0e0" stroke="#999999" points="134.38,-20 94.38,-20 94.38,0 134.38,0 134.38,-20"/>
<text xml:space="preserve" text-anchor="middle" x="114.38" y="-6.5" font-family="Helvetica,sans-Serif" font-size="10.00">string</text>
</a>
</g>
</g>
<!-- Node1&#45;&gt;Node3 -->
<g id="edge2_Node000001_Node000003" class="edge">
<title>Node1&#45;&gt;Node3</title>
<g id="a_edge2_Node000001_Node000003"><a xlink:title=" ">
<path fill="none" stroke="#63b8ff" d="M190.35,-55.59C176.58,-47.51 156.47,-35.71 140.4,-26.27"/>
<polygon fill="#63b8ff" stroke="#63b8ff" points="142.23,-23.29 131.83,-21.25 138.68,-29.33 142.23,-23.29"/>
</a>
</g>
</g>
<!-- Node4 -->
<g id="Node000004" class="node">
<title>Node4</title>
<g id="a_Node000004"><a xlink:title=" ">
<polygon fill="#e0e0e0" stroke="#999999" points="195.88,-20 152.88,-20 152.88,0 195.88,0 195.88,-20"/>
<text xml:space="preserve" text-anchor="middle" x="174.38" y="-6.5" font-family="Helvetica,sans-Serif" font-size="10.00">vector</text>
</a>
</g>
</g>
<!-- Node1&#45;&gt;Node4 -->
<g id="edge3_Node000001_Node000004" class="edge">
<title>Node1&#45;&gt;Node4</title>
<g id="a_edge3_Node000001_Node000004"><a xlink:title=" ">
<path fill="none" stroke="#63b8ff" d="M200.8,-55.59C196.63,-48.55 190.77,-38.67 185.63,-30"/>
<polygon fill="#63b8ff" stroke="#63b8ff" points="188.77,-28.42 180.66,-21.6 182.74,-31.99 188.77,-28.42"/>
</a>
</g>
</g>
<!-- Node5 -->
<g id="Node000005" class="node">
<title>Node5</title>
<g id="a_Node000005"><a xlink:title=" ">
<polygon fill="#e0e0e0" stroke="#999999" points="265,-20 213.75,-20 213.75,0 265,0 265,-20"/>
<text xml:space="preserve" text-anchor="middle" x="239.38" y="-6.5" font-family="Helvetica,sans-Serif" font-size="10.00">sstream</text>
</a>
</g>
</g>
<!-- Node1&#45;&gt;Node5 -->
<g id="edge4_Node000001_Node000005" class="edge">
<title>Node1&#45;&gt;Node5</title>
<g id="a_edge4_Node000001_Node000005"><a xlink:title=" ">
<path fill="none" stroke="#63b8ff" d="M212.12,-55.59C216.43,-48.55 222.47,-38.67 227.76,-30"/>
<polygon fill="#63b8ff" stroke="#63b8ff" points="230.68,-31.95 232.9,-21.59 224.7,-28.3 230.68,-31.95"/>
</a>
</g>
</g>
<!-- Node6 -->
<g id="Node000006" class="node">
<title>Node6</title>
<g id="a_Node000006"><a xlink:title=" ">
<polygon fill="#e0e0e0" stroke="#999999" points="339.25,-20 283.5,-20 283.5,0 339.25,0 339.25,-20"/>
<text xml:space="preserve" text-anchor="middle" x="311.38" y="-6.5" font-family="Helvetica,sans-Serif" font-size="10.00">algorithm</text>
</a>
</g>
</g>
<!-- Node1&#45;&gt;Node6 -->
<g id="edge5_Node000001_Node000006" class="edge">
<title>Node1&#45;&gt;Node6</title>
<g id="a_edge5_Node000001_Node000006"><a xlink:title=" ">
<path fill="none" stroke="#63b8ff" d="M224.66,-55.59C240.68,-47.36 264.21,-35.26 282.72,-25.74"/>
<polygon fill="#63b8ff" stroke="#63b8ff" points="284.3,-28.86 291.6,-21.17 281.1,-22.63 284.3,-28.86"/>
</a>
</g>
</g>
<!-- Node7 -->
<g id="Node000007" class="node">
<title>Node7</title>
<g id="a_Node000007"><a xlink:title=" ">
<polygon fill="#e0e0e0" stroke="#999999" points="403,-20 357.75,-20 357.75,0 403,0 403,-20"/>
<text xml:space="preserve" text-anchor="middle" x="380.38" y="-6.5" font-family="Helvetica,sans-Serif" font-size="10.00">cctype</text>
</a>
</g>
</g>
<!-- Node1&#45;&gt;Node7 -->
<g id="edge6_Node000001_Node000007" class="edge">
<title>Node1&#45;&gt;Node7</title>
<g id="a_edge6_Node000001_Node000007"><a xlink:title=" ">
<path fill="none" stroke="#63b8ff" d="M236.68,-55.59C267.29,-46.09 314.49,-31.45 346.36,-21.56"/>
<polygon fill="#63b8ff" stroke="#63b8ff" points="347.39,-24.9 355.91,-18.59 345.32,-18.21 347.39,-24.9"/>
</a>
</g>
</g>
</g>
</svg>
</svg>

<style type='text/css'>
<![CDATA[
[data-mouse-over-selected='false'] { opacity: 0.7; }
[data-mouse-over-selected='true']  { opacity: 1.0; }
]]>
</style>
<script type="application/ecmascript"><![CDATA[
document.addEventListener('DOMContentLoaded', (event) => {
  highlightEdges();
  highlightAdjacentNodes();
});
]]></script>
</svg>
