<?xml version="1.0" encoding="UTF-8" standalone="no"?>
<!DOCTYPE svg PUBLIC "-//W3C//DTD SVG 1.1//EN"
 "http://www.w3.org/Graphics/SVG/1.1/DTD/svg11.dtd">
<!-- Generated by graphviz version 14.1.1 (20251213.1925)
 -->
<!-- Title: sanitizeSerLine Pages: 1 -->
<svg width="564pt" height="78pt"
 viewBox="0.00 0.00 564.00 78.00" xmlns="http://www.w3.org/2000/svg" xmlns:xlink="http://www.w3.org/1999/xlink">
<g id="graph0" class="graph" transform="scale(1 1) rotate(0) translate(4 74)">
<title>sanitizeSerLine</title>
<!-- Node1 -->
<g id="Node000001" class="node">
<title>Node1</title>
<g id="a_Node000001"><a xlink:title="Parse SER response string into a vector of SERRecord.">
<polygon fill="#999999" stroke="#666666" points="556,-48 473.25,-48 473.25,-28 556,-28 556,-48"/>
<text xml:space="preserve" text-anchor="middle" x="514.62" y="-34.5" font-family="Helvetica,sans-Serif" font-size="10.00">sanitizeSerLine</text>
</a>
</g>
</g>
<!-- Node2 -->
<g id="Node000002" class="node">
<title>Node2</title>
<g id="a_Node000002"><a xlink:href="ser__record_8hpp.html#a74e4cd9a0d2e7f7483669c3f91e27f84" target="_top" xlink:title="Parse a raw SER command response into a vector of SERRecord.">
<polygon fill="white" stroke="#666666" points="437.25,-48 332,-48 332,-28 437.25,-28 437.25,-48"/>
<text xml:space="preserve" text-anchor="middle" x="384.62" y="-34.5" font-family="Helvetica,sans-Serif" font-size="10.00">parseSERResponse</text>
</a>
</g>
</g>
<!-- Node1&#45;&gt;Node2 -->
<g id="edge1_Node000001_Node000002" class="edge">
<title>Node1&#45;&gt;Node2</title>
<g id="a_edge1_Node000001_Node000002"><a xlink:title=" ">
<path fill="none" stroke="#63b8ff" d="M461.38,-38C453.45,-38 445.26,-38 437.34,-38"/>
<polygon fill="#63b8ff" stroke="#63b8ff" points="461.26,-41.5 471.26,-38 461.26,-34.5 461.26,-41.5"/>
</a>
</g>
</g>
<!-- Node3 -->
<g id="Node000003" class="node">
<title>Node3</title>
<g id="a_Node000003"><a xlink:href="struct_poll_ser_action.html#a80290394273450b8c46083cc224c529f" target="_top" xlink:title="Execute SER polling and storage.">
<polygon fill="white" stroke="#666666" points="292.25,-70 169.75,-70 169.75,-50 292.25,-50 292.25,-70"/>
<text xml:space="preserve" text-anchor="middle" x="231" y="-56.5" font-family="Helvetica,sans-Serif" font-size="10.00">PollSerAction::operator()</text>
</a>
</g>
</g>
<!-- Node2&#45;&gt;Node3 -->
<g id="edge2_Node000002_Node000003" class="edge">
<title>Node2&#45;&gt;Node3</title>
<g id="a_edge2_Node000002_Node000003"><a xlink:title=" ">
<path fill="none" stroke="#63b8ff" d="M320.72,-47.13C311.45,-48.47 301.9,-49.86 292.67,-51.2"/>
<polygon fill="#63b8ff" stroke="#63b8ff" points="320.98,-50.63 330.37,-45.73 319.97,-43.7 320.98,-50.63"/>
</a>
</g>
</g>
<!-- Node4 -->
<g id="Node000004" class="node">
<title>Node4</title>
<g id="a_Node000004"><a xlink:href="class_pipeline_processing_worker.html#a4b7df7922a70ab4c8542b73118f0c864" target="_top" xlink:title=" ">
<polygon fill="white" stroke="#666666" points="296,-32 166,-32 166,0 296,0 296,-32"/>
<text xml:space="preserve" text-anchor="start" x="174" y="-18.5" font-family="Helvetica,sans-Serif" font-size="10.00">PipelineProcessingWorker</text>
<text xml:space="preserve" text-anchor="middle" x="231" y="-6.5" font-family="Helvetica,sans-Serif" font-size="10.00">::runLoop</text>
</a>
</g>
</g>
<!-- Node2&#45;&gt;Node4 -->
<g id="edge3_Node000002_Node000004" class="edge">
<title>Node2&#45;&gt;Node4</title>
<g id="a_edge3_Node000002_Node000004"><a xlink:title=" ">
<path fill="none" stroke="#63b8ff" d="M320.69,-28.87C312.67,-27.7 304.44,-26.51 296.4,-25.34"/>
<polygon fill="#63b8ff" stroke="#63b8ff" points="319.97,-32.3 330.37,-30.27 320.98,-25.37 319.97,-32.3"/>
</a>
</g>
</g>
<!-- Node5 -->
<g id="Node000005" class="node">
<title>Node5</title>
<g id="a_Node000005"><a xlink:href="class_pipeline_processing_worker.html#ab0168acad7f6865fe4244c69c3046d32" target="_top" xlink:title="Start the processing worker: register a reader and launch its thread.">
<polygon fill="white" stroke="#666666" points="130,-32 0,-32 0,0 130,0 130,-32"/>
<text xml:space="preserve" text-anchor="start" x="8" y="-18.5" font-family="Helvetica,sans-Serif" font-size="10.00">PipelineProcessingWorker</text>
<text xml:space="preserve" text-anchor="middle" x="65" y="-6.5" font-family="Helvetica,sans-Serif" font-size="10.00">::start</text>
</a>
</g>
</g>
<!-- Node4&#45;&gt;Node5 -->
<g id="edge4_Node000004_Node000005" class="edge">
<title>Node4&#45;&gt;Node5</title>
<g id="a_edge4_Node000004_Node000005"><a xlink:title=" ">
<path fill="none" stroke="#63b8ff" d="M154.41,-16C146.4,-16 138.3,-16 130.43,-16"/>
<polygon fill="#63b8ff" stroke="#63b8ff" points="154.14,-19.5 164.14,-16 154.14,-12.5 154.14,-19.5"/>
</a>
</g>
</g>
</g>
</svg>
