<?xml version="1.0" encoding="UTF-8" standalone="no"?>
<!DOCTYPE svg PUBLIC "-//W3C//DTD SVG 1.1//EN"
 "http://www.w3.org/Graphics/SVG/1.1/DTD/svg11.dtd">
<!-- Generated by graphviz version 14.1.1 (20251213.1925)
 -->
<!-- Title: SERRecord Pages: 1 -->
<svg width="113pt" height="379pt"
 viewBox="0.00 0.00 113.00 379.00" xmlns="http://www.w3.org/2000/svg" xmlns:xlink="http://www.w3.org/1999/xlink">

<svg id="main" version="1.1" xmlns="http://www.w3.org/2000/svg" xmlns:xlink="http://www.w3.org/1999/xlink" xml:space="preserve">

<style type="text/css"><![CDATA[
.node, .edge {opacity: 0.7;}
.node.selected, .edge.selected {opacity: 1;}
.edge:hover path { stroke: red; }
.edge:hover polygon { stroke: red; fill: red; }
]]></style>
<script type="application/ecmascript" xlink:href="svg.min.js"/>
<svg id="graph" class="graph">
<g id="graph0" class="graph" transform="scale(1 1) rotate(0) translate(4 375)">
<title>SERRecord</title>
<!-- Node1 -->
<g id="Node000001" class="node">
<title>Node1</title>
<g id="a_Node000001"><a xlink:title="Structure representing a System Event Record (SER).">
<polygon fill="#999999" stroke="none" points="81.25,-84 4.75,-84 4.75,0 81.25,0 81.25,-84"/>
<text xml:space="preserve" text-anchor="start" x="16.75" y="-70.5" font-family="Helvetica,sans-Serif" font-size="10.00">SERRecord</text>
<text xml:space="preserve" text-anchor="start" x="41.5" y="-54.5" font-family="Helvetica,sans-Serif" font-size="10.00"> </text>
<text xml:space="preserve" text-anchor="start" x="8.75" y="-38.5" font-family="Helvetica,sans-Serif" font-size="10.00">+</text>
<text xml:space="preserve" text-anchor="start" x="18.75" y="-38.5" font-family="Helvetica,sans-Serif" font-size="10.00">SERRecord()</text>
<text xml:space="preserve" text-anchor="start" x="8.75" y="-22.5" font-family="Helvetica,sans-Serif" font-size="10.00">+</text>
<text xml:space="preserve" text-anchor="start" x="18.75" y="-22.5" font-family="Helvetica,sans-Serif" font-size="10.00">SERRecord()</text>
<text xml:space="preserve" text-anchor="start" x="8.75" y="-6.5" font-family="Helvetica,sans-Serif" font-size="10.00">+</text>
<text xml:space="preserve" text-anchor="start" x="18.75" y="-6.5" font-family="Helvetica,sans-Serif" font-size="10.00">SERRecord()</text>
<polygon fill="#666666" stroke="#666666" points="4.75,-66 4.75,-66 81.25,-66 81.25,-66 4.75,-66"/>
<polygon fill="#666666" stroke="#666666" points="4.75,-50 4.75,-50 81.25,-50 81.25,-50 4.75,-50"/>
<polygon fill="none" stroke="#666666" points="4.75,0 4.75,-84 81.25,-84 81.25,0 4.75,0"/>
</a>
</g>
</g>
<!-- Node2 -->
<g id="Node000002" class="node">
<title>Node2</title>
<g id="a_Node000002"><a xlink:title=" ">
<polygon fill="white" stroke="none" points="68.75,-270 17.25,-270 17.25,-218 68.75,-218 68.75,-270"/>
<text xml:space="preserve" text-anchor="start" x="21.25" y="-256.5" font-family="Helvetica,sans-Serif" font-size="10.00">std::string</text>
<text xml:space="preserve" text-anchor="start" x="41.5" y="-240.5" font-family="Helvetica,sans-Serif" font-size="10.00"> </text>
<text xml:space="preserve" text-anchor="start" x="41.5" y="-224.5" font-family="Helvetica,sans-Serif" font-size="10.00"> </text>
<polygon fill="#666666" stroke="#666666" points="17.25,-252 17.25,-252 68.75,-252 68.75,-252 17.25,-252"/>
<polygon fill="#666666" stroke="#666666" points="17.25,-236 17.25,-236 68.75,-236 68.75,-236 17.25,-236"/>
<polygon fill="none" stroke="#666666" points="17.25,-218 17.25,-270 68.75,-270 68.75,-218 17.25,-218"/>
</a>
</g>
</g>
<!-- Node2&#45;&gt;Node1 -->
<g id="edge1_Node000001_Node000002" class="edge">
<title>Node2&#45;&gt;Node1</title>
<g id="a_edge1_Node000001_Node000002"><a xlink:title=" ">
<path fill="none" stroke="#63b8ff" d="M43,-218.07C43,-187.87 43,-136.15 43,-96.73"/>
<polygon fill="none" stroke="#63b8ff" points="43,-96.78 39,-90.78 43,-84.78 47,-90.78 43,-96.78"/>
</a>
</g>
<text xml:space="preserve" text-anchor="start" x="46" y="-187.5" font-family="Helvetica,sans-Serif" font-size="10.00" fill="grey">+description</text>
<text xml:space="preserve" text-anchor="start" x="46" y="-171.5" font-family="Helvetica,sans-Serif" font-size="10.00" fill="grey">+record_id</text>
<text xml:space="preserve" text-anchor="start" x="46" y="-155.5" font-family="Helvetica,sans-Serif" font-size="10.00" fill="grey">+relay_id</text>
<text xml:space="preserve" text-anchor="start" x="46" y="-139.5" font-family="Helvetica,sans-Serif" font-size="10.00" fill="grey">+relay_name</text>
<text xml:space="preserve" text-anchor="start" x="46" y="-123.5" font-family="Helvetica,sans-Serif" font-size="10.00" fill="grey">+status</text>
<text xml:space="preserve" text-anchor="start" x="46" y="-107.5" font-family="Helvetica,sans-Serif" font-size="10.00" fill="grey">+timestamp</text>
</g>
<!-- Node3 -->
<g id="Node000003" class="node">
<title>Node3</title>
<g id="a_Node000003"><a xlink:title=" ">
<polygon fill="white" stroke="none" points="86,-371 0,-371 0,-307 86,-307 86,-371"/>
<text xml:space="preserve" text-anchor="start" x="4" y="-357.5" font-family="Helvetica,sans-Serif" font-size="10.00">std::basic_string&lt;</text>
<text xml:space="preserve" text-anchor="start" x="26.5" y="-345.5" font-family="Helvetica,sans-Serif" font-size="10.00"> Char &gt;</text>
<text xml:space="preserve" text-anchor="start" x="41.5" y="-329.5" font-family="Helvetica,sans-Serif" font-size="10.00"> </text>
<text xml:space="preserve" text-anchor="start" x="41.5" y="-313.5" font-family="Helvetica,sans-Serif" font-size="10.00"> </text>
<polygon fill="#666666" stroke="#666666" points="0,-341 0,-341 86,-341 86,-341 0,-341"/>
<polygon fill="#666666" stroke="#666666" points="0,-325 0,-325 86,-325 86,-325 0,-325"/>
<polygon fill="none" stroke="#666666" points="0,-307 0,-371 86,-371 86,-307 0,-307"/>
</a>
</g>
</g>
<!-- Node3&#45;&gt;Node2 -->
<g id="edge2_Node000002_Node000003" class="edge">
<title>Node3&#45;&gt;Node2</title>
<g id="a_edge2_Node000002_Node000003"><a xlink:title=" ">
<path fill="none" stroke="#63b8ff" d="M43,-295.69C43,-286.89 43,-277.89 43,-269.96"/>
<polygon fill="none" stroke="#63b8ff" points="39.5,-295.52 43,-305.52 46.5,-295.52 39.5,-295.52"/>
</a>
</g>
</g>
</g>
</svg>
</svg>

<style type='text/css'>
<![CDATA[
[data-mouse-over-selected='false'] { opacity: 0.7; }
[data-mouse-over-selected='true']  { opacity: 1.0; }
]]>
</style>
<script type="application/ecmascript"><![CDATA[
document.addEventListener('DOMContentLoaded', (event) => {
  highlightEdges();
  highlightAdjacentNodes();
});
]]></script>
</svg>
