<?xml version="1.0" encoding="UTF-8" standalone="no"?>
<!DOCTYPE svg PUBLIC "-//W3C//DTD SVG 1.1//EN"
 "http://www.w3.org/Graphics/SVG/1.1/DTD/svg11.dtd">
<!-- Generated by graphviz version 14.1.1 (20251213.1925)
 -->
<!-- Title: CmdSetAction::operator() Pages: 1 -->
<svg width="689pt" height="72pt"
 viewBox="0.00 0.00 689.00 72.00" xmlns="http://www.w3.org/2000/svg" xmlns:xlink="http://www.w3.org/1999/xlink">
<g id="graph0" class="graph" transform="scale(1 1) rotate(0) translate(4 68)">
<title>CmdSetAction::operator()</title>
<!-- Node1 -->
<g id="Node000001" class="node">
<title>Node1</title>
<g id="a_Node000001"><a xlink:title=" ">
<polygon fill="#999999" stroke="#666666" points="127,-45 0,-45 0,-25 127,-25 127,-45"/>
<text xml:space="preserve" text-anchor="middle" x="63.5" y="-31.5" font-family="Helvetica,sans-Serif" font-size="10.00">CmdSetAction::operator()</text>
</a>
</g>
</g>
<!-- Node2 -->
<g id="Node000002" class="node">
<title>Node2</title>
<g id="a_Node000002"><a xlink:href="class_telnet_client.html#a1cfe617f16e1055bdbe2577caaadce4e" target="_top" xlink:title="Clear the last response buffer.">
<polygon fill="white" stroke="#666666" points="329,-64 171.25,-64 171.25,-44 329,-44 329,-64"/>
<text xml:space="preserve" text-anchor="middle" x="250.12" y="-50.5" font-family="Helvetica,sans-Serif" font-size="10.00">TelnetClient::clearLastResponse</text>
</a>
</g>
</g>
<!-- Node1&#45;&gt;Node2 -->
<g id="edge1_Node000001_Node000002" class="edge">
<title>Node1&#45;&gt;Node2</title>
<g id="a_edge1_Node000001_Node000002"><a xlink:title=" ">
<path fill="none" stroke="#63b8ff" d="M127.26,-41.46C137.66,-42.53 148.62,-43.66 159.52,-44.78"/>
<polygon fill="#63b8ff" stroke="#63b8ff" points="159.03,-48.25 169.34,-45.79 159.75,-41.28 159.03,-48.25"/>
</a>
</g>
</g>
<!-- Node3 -->
<g id="Node000003" class="node">
<title>Node3</title>
<g id="a_Node000003"><a xlink:href="class_telnet_client.html#a39aee6a66b79184a3c7fe5072c2f422f" target="_top" xlink:title="Send command and receive response data.">
<polygon fill="white" stroke="#666666" points="337.25,-26 163,-26 163,-6 337.25,-6 337.25,-26"/>
<text xml:space="preserve" text-anchor="middle" x="250.12" y="-12.5" font-family="Helvetica,sans-Serif" font-size="10.00">TelnetClient::SendCmdReceiveData</text>
</a>
</g>
</g>
<!-- Node1&#45;&gt;Node3 -->
<g id="edge2_Node000001_Node000003" class="edge">
<title>Node1&#45;&gt;Node3</title>
<g id="a_edge2_Node000001_Node000003"><a xlink:title=" ">
<path fill="none" stroke="#63b8ff" d="M127.26,-28.54C135.1,-27.73 143.25,-26.9 151.46,-26.05"/>
<polygon fill="#63b8ff" stroke="#63b8ff" points="151.56,-29.56 161.15,-25.05 150.85,-22.6 151.56,-29.56"/>
</a>
</g>
</g>
<!-- Node4 -->
<g id="Node000004" class="node">
<title>Node4</title>
<g id="a_Node000004"><a xlink:href="class_telnet_client.html#afe6fcd4467c705692d781379926881e0" target="_top" xlink:title="Check if response is complete.">
<polygon fill="white" stroke="#666666" points="498.75,-32 373.25,-32 373.25,0 498.75,0 498.75,-32"/>
<text xml:space="preserve" text-anchor="start" x="381.25" y="-18.5" font-family="Helvetica,sans-Serif" font-size="10.00">TelnetClient::isResponse</text>
<text xml:space="preserve" text-anchor="middle" x="436" y="-6.5" font-family="Helvetica,sans-Serif" font-size="10.00">Complete</text>
</a>
</g>
</g>
<!-- Node3&#45;&gt;Node4 -->
<g id="edge3_Node000003_Node000004" class="edge">
<title>Node3&#45;&gt;Node4</title>
<g id="a_edge3_Node000003_Node000004"><a xlink:title=" ">
<path fill="none" stroke="#63b8ff" d="M337.68,-16C345.69,-16 353.75,-16 361.63,-16"/>
<polygon fill="#63b8ff" stroke="#63b8ff" points="361.49,-19.5 371.49,-16 361.49,-12.5 361.49,-19.5"/>
</a>
</g>
</g>
<!-- Node5 -->
<g id="Node000005" class="node">
<title>Node5</title>
<g id="a_Node000005"><a xlink:href="class_telnet_client.html#a9406bd467aec4aed263851fc076c360b" target="_top" xlink:title="Check if buffer ends with a command prompt.">
<polygon fill="white" stroke="#666666" points="681.25,-26 534.75,-26 534.75,-6 681.25,-6 681.25,-26"/>
<text xml:space="preserve" text-anchor="middle" x="608" y="-12.5" font-family="Helvetica,sans-Serif" font-size="10.00">TelnetClient::endsWithPrompt</text>
</a>
</g>
</g>
<!-- Node4&#45;&gt;Node5 -->
<g id="edge4_Node000004_Node000005" class="edge">
<title>Node4&#45;&gt;Node5</title>
<g id="a_edge4_Node000004_Node000005"><a xlink:title=" ">
<path fill="none" stroke="#63b8ff" d="M498.85,-16C506.73,-16 514.89,-16 523.03,-16"/>
<polygon fill="#63b8ff" stroke="#63b8ff" points="523,-19.5 533,-16 523,-12.5 523,-19.5"/>
</a>
</g>
</g>
</g>
</svg>
