<?xml version="1.0" encoding="UTF-8" standalone="no"?>
<!DOCTYPE svg PUBLIC "-//W3C//DTD SVG 1.1//EN"
 "http://www.w3.org/Graphics/SVG/1.1/DTD/svg11.dtd">
<!-- Generated by graphviz version 14.1.1 (20251213.1925)
 -->
<!-- Title: RetryState::increment Pages: 1 -->
<svg width="291pt" height="78pt"
 viewBox="0.00 0.00 291.00 78.00" xmlns="http://www.w3.org/2000/svg" xmlns:xlink="http://www.w3.org/1999/xlink">
<g id="graph0" class="graph" transform="scale(1 1) rotate(0) translate(4 74)">
<title>RetryState::increment</title>
<!-- Node1 -->
<g id="Node000001" class="node">
<title>Node1</title>
<g id="a_Node000001"><a xlink:title="Increment retry counter.">
<polygon fill="#999999" stroke="#666666" points="282.5,-42 170.5,-42 170.5,-22 282.5,-22 282.5,-42"/>
<text xml:space="preserve" text-anchor="middle" x="226.5" y="-28.5" font-family="Helvetica,sans-Serif" font-size="10.00">RetryState::increment</text>
</a>
</g>
</g>
<!-- Node2 -->
<g id="Node000002" class="node">
<title>Node2</title>
<g id="a_Node000002"><a xlink:href="struct_login_retry_incr_action.html#a1845673127ec7fbfc8cafffa5be7f077" target="_top" xlink:title=" ">
<polygon fill="white" stroke="#666666" points="121,-70 13.5,-70 13.5,-38 121,-38 121,-70"/>
<text xml:space="preserve" text-anchor="start" x="21.5" y="-56.5" font-family="Helvetica,sans-Serif" font-size="10.00">LoginRetryIncrAction</text>
<text xml:space="preserve" text-anchor="middle" x="67.25" y="-44.5" font-family="Helvetica,sans-Serif" font-size="10.00">::operator()</text>
</a>
</g>
</g>
<!-- Node1&#45;&gt;Node2 -->
<g id="edge1_Node000001_Node000002" class="edge">
<title>Node1&#45;&gt;Node2</title>
<g id="a_edge1_Node000001_Node000002"><a xlink:title=" ">
<path fill="none" stroke="#63b8ff" d="M158.74,-41.34C146.25,-43.09 133.35,-44.89 121.34,-46.57"/>
<polygon fill="#63b8ff" stroke="#63b8ff" points="159.14,-44.82 168.56,-39.97 158.17,-37.89 159.14,-44.82"/>
</a>
</g>
</g>
<!-- Node3 -->
<g id="Node000003" class="node">
<title>Node3</title>
<g id="a_Node000003"><a xlink:href="struct_retry_wait_action.html#a621c6c5cfaea0e48f7024e71bc9589e9" target="_top" xlink:title="Execute retry wait.">
<polygon fill="white" stroke="#666666" points="134.5,-20 0,-20 0,0 134.5,0 134.5,-20"/>
<text xml:space="preserve" text-anchor="middle" x="67.25" y="-6.5" font-family="Helvetica,sans-Serif" font-size="10.00">RetryWaitAction::operator()</text>
</a>
</g>
</g>
<!-- Node1&#45;&gt;Node3 -->
<g id="edge2_Node000001_Node000003" class="edge">
<title>Node1&#45;&gt;Node3</title>
<g id="a_edge2_Node000001_Node000003"><a xlink:title=" ">
<path fill="none" stroke="#63b8ff" d="M158.91,-22.68C150.93,-21.57 142.77,-20.43 134.78,-19.31"/>
<polygon fill="#63b8ff" stroke="#63b8ff" points="158.17,-26.11 168.56,-24.03 159.14,-19.18 158.17,-26.11"/>
</a>
</g>
</g>
</g>
</svg>
