<?xml version="1.0" encoding="UTF-8" standalone="no"?>
<!DOCTYPE svg PUBLIC "-//W3C//DTD SVG 1.1//EN"
 "http://www.w3.org/Graphics/SVG/1.1/DTD/svg11.dtd">
<!-- Generated by graphviz version 14.1.1 (20251213.1925)
 -->
<!-- Title: CmdResponseHolder Pages: 1 -->
<svg width="111pt" height="267pt"
 viewBox="0.00 0.00 111.00 267.00" xmlns="http://www.w3.org/2000/svg" xmlns:xlink="http://www.w3.org/1999/xlink">

<svg id="main" version="1.1" xmlns="http://www.w3.org/2000/svg" xmlns:xlink="http://www.w3.org/1999/xlink" xml:space="preserve">

<style type="text/css"><![CDATA[
.node, .edge {opacity: 0.7;}
.node.selected, .edge.selected {opacity: 1;}
.edge:hover path { stroke: red; }
.edge:hover polygon { stroke: red; fill: red; }
]]></style>
<script type="application/ecmascript" xlink:href="svg.min.js"/>
<svg id="graph" class="graph">
<g id="graph0" class="graph" transform="scale(1 1) rotate(0) translate(4 263)">
<title>CmdResponseHolder</title>
<!-- Node1 -->
<g id="Node000001" class="node">
<title>Node1</title>
<g id="a_Node000001"><a xlink:title="Shared holder for the last command FSM response.">
<polygon fill="#999999" stroke="none" points="101.75,-52 0,-52 0,0 101.75,0 101.75,-52"/>
<text xml:space="preserve" text-anchor="start" x="4" y="-38.5" font-family="Helvetica,sans-Serif" font-size="10.00">CmdResponseHolder</text>
<text xml:space="preserve" text-anchor="start" x="15.75" y="-22.5" font-family="Helvetica,sans-Serif" font-size="10.00">+</text>
<text xml:space="preserve" text-anchor="start" x="37.5" y="-22.5" font-family="Helvetica,sans-Serif" font-size="10.00">success</text>
<text xml:space="preserve" text-anchor="start" x="49.38" y="-6.5" font-family="Helvetica,sans-Serif" font-size="10.00"> </text>
<polygon fill="#666666" stroke="#666666" points="0,-34 0,-34 101.75,-34 101.75,-34 0,-34"/>
<polygon fill="#666666" stroke="#666666" points="0,-18 0,-18 35.5,-18 35.5,-18 0,-18"/>
<polygon fill="#666666" stroke="#666666" points="35.5,-18 35.5,-18 101.75,-18 101.75,-18 35.5,-18"/>
<polygon fill="none" stroke="#666666" points="0,0 0,-52 101.75,-52 101.75,0 0,0"/>
</a>
</g>
</g>
<!-- Node2 -->
<g id="Node000002" class="node">
<title>Node2</title>
<g id="a_Node000002"><a xlink:title=" ">
<polygon fill="white" stroke="none" points="76.62,-158 25.12,-158 25.12,-106 76.62,-106 76.62,-158"/>
<text xml:space="preserve" text-anchor="start" x="29.12" y="-144.5" font-family="Helvetica,sans-Serif" font-size="10.00">std::string</text>
<text xml:space="preserve" text-anchor="start" x="49.38" y="-128.5" font-family="Helvetica,sans-Serif" font-size="10.00"> </text>
<text xml:space="preserve" text-anchor="start" x="49.38" y="-112.5" font-family="Helvetica,sans-Serif" font-size="10.00"> </text>
<polygon fill="#666666" stroke="#666666" points="25.12,-140 25.12,-140 76.62,-140 76.62,-140 25.12,-140"/>
<polygon fill="#666666" stroke="#666666" points="25.12,-124 25.12,-124 76.62,-124 76.62,-124 25.12,-124"/>
<polygon fill="none" stroke="#666666" points="25.12,-106 25.12,-158 76.62,-158 76.62,-106 25.12,-106"/>
</a>
</g>
</g>
<!-- Node2&#45;&gt;Node1 -->
<g id="edge1_Node000001_Node000002" class="edge">
<title>Node2&#45;&gt;Node1</title>
<g id="a_edge1_Node000001_Node000002"><a xlink:title=" ">
<path fill="none" stroke="#63b8ff" d="M50.88,-106.09C50.88,-93.61 50.88,-78.25 50.88,-64.39"/>
<polygon fill="none" stroke="#63b8ff" points="50.88,-64.61 46.88,-58.61 50.88,-52.61 54.88,-58.61 50.88,-64.61"/>
</a>
</g>
<text xml:space="preserve" text-anchor="start" x="53.88" y="-75.5" font-family="Helvetica,sans-Serif" font-size="10.00" fill="grey">+response</text>
</g>
<!-- Node3 -->
<g id="Node000003" class="node">
<title>Node3</title>
<g id="a_Node000003"><a xlink:title=" ">
<polygon fill="white" stroke="none" points="93.88,-259 7.88,-259 7.88,-195 93.88,-195 93.88,-259"/>
<text xml:space="preserve" text-anchor="start" x="11.88" y="-245.5" font-family="Helvetica,sans-Serif" font-size="10.00">std::basic_string&lt;</text>
<text xml:space="preserve" text-anchor="start" x="34.38" y="-233.5" font-family="Helvetica,sans-Serif" font-size="10.00"> Char &gt;</text>
<text xml:space="preserve" text-anchor="start" x="49.38" y="-217.5" font-family="Helvetica,sans-Serif" font-size="10.00"> </text>
<text xml:space="preserve" text-anchor="start" x="49.38" y="-201.5" font-family="Helvetica,sans-Serif" font-size="10.00"> </text>
<polygon fill="#666666" stroke="#666666" points="7.88,-229 7.88,-229 93.88,-229 93.88,-229 7.88,-229"/>
<polygon fill="#666666" stroke="#666666" points="7.88,-213 7.88,-213 93.88,-213 93.88,-213 7.88,-213"/>
<polygon fill="none" stroke="#666666" points="7.88,-195 7.88,-259 93.88,-259 93.88,-195 7.88,-195"/>
</a>
</g>
</g>
<!-- Node3&#45;&gt;Node2 -->
<g id="edge2_Node000002_Node000003" class="edge">
<title>Node3&#45;&gt;Node2</title>
<g id="a_edge2_Node000002_Node000003"><a xlink:title=" ">
<path fill="none" stroke="#63b8ff" d="M50.88,-183.69C50.88,-174.89 50.88,-165.89 50.88,-157.96"/>
<polygon fill="none" stroke="#63b8ff" points="47.38,-183.52 50.88,-193.52 54.38,-183.52 47.38,-183.52"/>
</a>
</g>
</g>
</g>
</svg>
</svg>

<style type='text/css'>
<![CDATA[
[data-mouse-over-selected='false'] { opacity: 0.7; }
[data-mouse-over-selected='true']  { opacity: 1.0; }
]]>
</style>
<script type="application/ecmascript"><![CDATA[
document.addEventListener('DOMContentLoaded', (event) => {
  highlightEdges();
  highlightAdjacentNodes();
});
]]></script>
</svg>
