<?xml version="1.0" encoding="UTF-8" standalone="no"?>
<!DOCTYPE svg PUBLIC "-//W3C//DTD SVG 1.1//EN"
 "http://www.w3.org/Graphics/SVG/1.1/DTD/svg11.dtd">
<!-- Generated by graphviz version 14.1.2 (20260124.0452)
 -->
<!-- Title: ConnectionConfig Pages: 1 -->
<svg width="94pt" height="283pt"
 viewBox="0.00 0.00 94.00 283.00" xmlns="http://www.w3.org/2000/svg" xmlns:xlink="http://www.w3.org/1999/xlink">

<svg id="main" version="1.1" xmlns="http://www.w3.org/2000/svg" xmlns:xlink="http://www.w3.org/1999/xlink" xml:space="preserve">

<style type="text/css"><![CDATA[
.node, .edge {opacity: 0.7;}
.node.selected, .edge.selected {opacity: 1;}
.edge:hover path { stroke: red; }
.edge:hover polygon { stroke: red; fill: red; }
]]></style>
<script type="application/ecmascript" xlink:href="svg.min.js"/>
<svg id="graph" class="graph">
<g id="graph0" class="graph" transform="scale(1 1) rotate(0) translate(4 279)">
<title>ConnectionConfig</title>
<!-- Node1 -->
<g id="Node000001" class="node">
<title>Node1</title>
<g id="a_Node000001"><a xlink:title="Connection configuration parameters.">
<polygon fill="#999999" stroke="none" points="86,-68 0,-68 0,0 86,0 86,-68"/>
<text xml:space="preserve" text-anchor="start" x="4" y="-54.5" font-family="Helvetica,sans-Serif" font-size="10.00">ConnectionConfig</text>
<text xml:space="preserve" text-anchor="start" x="12.94" y="-38.5" font-family="Helvetica,sans-Serif" font-size="10.00">+</text>
<text xml:space="preserve" text-anchor="start" x="31.88" y="-38.5" font-family="Helvetica,sans-Serif" font-size="10.00">port</text>
<text xml:space="preserve" text-anchor="start" x="12.94" y="-22.5" font-family="Helvetica,sans-Serif" font-size="10.00">+</text>
<text xml:space="preserve" text-anchor="start" x="31.88" y="-22.5" font-family="Helvetica,sans-Serif" font-size="10.00">timeout</text>
<text xml:space="preserve" text-anchor="start" x="41.5" y="-6.5" font-family="Helvetica,sans-Serif" font-size="10.00"> </text>
<polygon fill="#666666" stroke="#666666" points="0,-50 0,-50 86,-50 86,-50 0,-50"/>
<polygon fill="#666666" stroke="#666666" points="0,-18 0,-18 29.88,-18 29.88,-18 0,-18"/>
<polygon fill="#666666" stroke="#666666" points="29.88,-18 29.88,-18 86,-18 86,-18 29.88,-18"/>
<polygon fill="none" stroke="#666666" points="0,0 0,-68 86,-68 86,0 0,0"/>
</a>
</g>
</g>
<!-- Node2 -->
<g id="Node000002" class="node">
<title>Node2</title>
<g id="a_Node000002"><a xlink:title=" ">
<polygon fill="white" stroke="none" points="68.75,-174 17.25,-174 17.25,-122 68.75,-122 68.75,-174"/>
<text xml:space="preserve" text-anchor="start" x="21.25" y="-160.5" font-family="Helvetica,sans-Serif" font-size="10.00">std::string</text>
<text xml:space="preserve" text-anchor="start" x="41.5" y="-144.5" font-family="Helvetica,sans-Serif" font-size="10.00"> </text>
<text xml:space="preserve" text-anchor="start" x="41.5" y="-128.5" font-family="Helvetica,sans-Serif" font-size="10.00"> </text>
<polygon fill="#666666" stroke="#666666" points="17.25,-156 17.25,-156 68.75,-156 68.75,-156 17.25,-156"/>
<polygon fill="#666666" stroke="#666666" points="17.25,-140 17.25,-140 68.75,-140 68.75,-140 17.25,-140"/>
<polygon fill="none" stroke="#666666" points="17.25,-122 17.25,-174 68.75,-174 68.75,-122 17.25,-122"/>
</a>
</g>
</g>
<!-- Node2&#45;&gt;Node1 -->
<g id="edge1_Node000001_Node000002" class="edge">
<title>Node2&#45;&gt;Node1</title>
<g id="a_edge1_Node000001_Node000002"><a xlink:title=" ">
<path fill="none" stroke="#63b8ff" d="M43,-122.14C43,-109.91 43,-94.76 43,-80.55"/>
<polygon fill="none" stroke="#63b8ff" points="43,-80.77 39,-74.77 43,-68.77 47,-74.77 43,-80.77"/>
</a>
</g>
<text xml:space="preserve" text-anchor="start" x="46" y="-91.5" font-family="Helvetica,sans-Serif" font-size="10.00" fill="grey">+host</text>
</g>
<!-- Node3 -->
<g id="Node000003" class="node">
<title>Node3</title>
<g id="a_Node000003"><a xlink:title=" ">
<polygon fill="white" stroke="none" points="86,-275 0,-275 0,-211 86,-211 86,-275"/>
<text xml:space="preserve" text-anchor="start" x="4" y="-261.5" font-family="Helvetica,sans-Serif" font-size="10.00">std::basic_string&lt;</text>
<text xml:space="preserve" text-anchor="start" x="26.5" y="-249.5" font-family="Helvetica,sans-Serif" font-size="10.00"> Char &gt;</text>
<text xml:space="preserve" text-anchor="start" x="41.5" y="-233.5" font-family="Helvetica,sans-Serif" font-size="10.00"> </text>
<text xml:space="preserve" text-anchor="start" x="41.5" y="-217.5" font-family="Helvetica,sans-Serif" font-size="10.00"> </text>
<polygon fill="#666666" stroke="#666666" points="0,-245 0,-245 86,-245 86,-245 0,-245"/>
<polygon fill="#666666" stroke="#666666" points="0,-229 0,-229 86,-229 86,-229 0,-229"/>
<polygon fill="none" stroke="#666666" points="0,-211 0,-275 86,-275 86,-211 0,-211"/>
</a>
</g>
</g>
<!-- Node3&#45;&gt;Node2 -->
<g id="edge2_Node000002_Node000003" class="edge">
<title>Node3&#45;&gt;Node2</title>
<g id="a_edge2_Node000002_Node000003"><a xlink:title=" ">
<path fill="none" stroke="#63b8ff" d="M43,-199.69C43,-190.89 43,-181.89 43,-173.96"/>
<polygon fill="none" stroke="#63b8ff" points="39.5,-199.52 43,-209.52 46.5,-199.52 39.5,-199.52"/>
</a>
</g>
</g>
</g>
</svg>
</svg>

<style type='text/css'>
<![CDATA[
[data-mouse-over-selected='false'] { opacity: 0.7; }
[data-mouse-over-selected='true']  { opacity: 1.0; }
]]>
</style>
<script type="application/ecmascript"><![CDATA[
document.addEventListener('DOMContentLoaded', (event) => {
  highlightEdges();
  highlightAdjacentNodes();
});
]]></script>
</svg>
