<?xml version="1.0" encoding="UTF-8" standalone="no"?>
<!DOCTYPE svg PUBLIC "-//W3C//DTD SVG 1.1//EN"
 "http://www.w3.org/Graphics/SVG/1.1/DTD/svg11.dtd">
<!-- Generated by graphviz version 14.1.2 (20260124.0452)
 -->
<!-- Title: PasswordManager::PasswordResult Pages: 1 -->
<svg width="147pt" height="279pt"
 viewBox="0.00 0.00 147.00 279.00" xmlns="http://www.w3.org/2000/svg" xmlns:xlink="http://www.w3.org/1999/xlink">
<g id="graph0" class="graph" transform="scale(1 1) rotate(0) translate(4 275)">
<title>PasswordManager::PasswordResult</title>
<!-- Node1 -->
<g id="Node000001" class="node">
<title>Node1</title>
<g id="a_Node000001"><a xlink:title="Result of a password change operation.">
<polygon fill="#999999" stroke="none" points="138.5,-64 0,-64 0,0 138.5,0 138.5,-64"/>
<text xml:space="preserve" text-anchor="start" x="4" y="-50.5" font-family="Helvetica,sans-Serif" font-size="10.00">PasswordManager::Password</text>
<text xml:space="preserve" text-anchor="start" x="55" y="-38.5" font-family="Helvetica,sans-Serif" font-size="10.00">Result</text>
<text xml:space="preserve" text-anchor="start" x="24.94" y="-22.5" font-family="Helvetica,sans-Serif" font-size="10.00">+</text>
<text xml:space="preserve" text-anchor="start" x="55.88" y="-22.5" font-family="Helvetica,sans-Serif" font-size="10.00">success</text>
<text xml:space="preserve" text-anchor="start" x="67.75" y="-6.5" font-family="Helvetica,sans-Serif" font-size="10.00"> </text>
<polygon fill="#666666" stroke="#666666" points="0,-34 0,-34 138.5,-34 138.5,-34 0,-34"/>
<polygon fill="#666666" stroke="#666666" points="0,-18 0,-18 53.88,-18 53.88,-18 0,-18"/>
<polygon fill="#666666" stroke="#666666" points="53.88,-18 53.88,-18 138.5,-18 138.5,-18 53.88,-18"/>
<polygon fill="none" stroke="#666666" points="0,0 0,-64 138.5,-64 138.5,0 0,0"/>
</a>
</g>
</g>
<!-- Node2 -->
<g id="Node000002" class="node">
<title>Node2</title>
<g id="a_Node000002"><a xlink:title=" ">
<polygon fill="white" stroke="none" points="95,-170 43.5,-170 43.5,-118 95,-118 95,-170"/>
<text xml:space="preserve" text-anchor="start" x="47.5" y="-156.5" font-family="Helvetica,sans-Serif" font-size="10.00">std::string</text>
<text xml:space="preserve" text-anchor="start" x="67.75" y="-140.5" font-family="Helvetica,sans-Serif" font-size="10.00"> </text>
<text xml:space="preserve" text-anchor="start" x="67.75" y="-124.5" font-family="Helvetica,sans-Serif" font-size="10.00"> </text>
<polygon fill="#666666" stroke="#666666" points="43.5,-152 43.5,-152 95,-152 95,-152 43.5,-152"/>
<polygon fill="#666666" stroke="#666666" points="43.5,-136 43.5,-136 95,-136 95,-136 43.5,-136"/>
<polygon fill="none" stroke="#666666" points="43.5,-118 43.5,-170 95,-170 95,-118 43.5,-118"/>
</a>
</g>
</g>
<!-- Node2&#45;&gt;Node1 -->
<g id="edge1_Node000001_Node000002" class="edge">
<title>Node2&#45;&gt;Node1</title>
<g id="a_edge1_Node000001_Node000002"><a xlink:title=" ">
<path fill="none" stroke="#63b8ff" d="M69.25,-118.04C69.25,-105.84 69.25,-90.79 69.25,-76.76"/>
<polygon fill="none" stroke="#63b8ff" points="69.25,-76.65 65.25,-70.65 69.25,-64.65 73.25,-70.65 69.25,-76.65"/>
</a>
</g>
<text xml:space="preserve" text-anchor="start" x="72.25" y="-87.5" font-family="Helvetica,sans-Serif" font-size="10.00" fill="grey">+error</text>
</g>
<!-- Node3 -->
<g id="Node000003" class="node">
<title>Node3</title>
<g id="a_Node000003"><a xlink:title=" ">
<polygon fill="white" stroke="none" points="112.25,-271 26.25,-271 26.25,-207 112.25,-207 112.25,-271"/>
<text xml:space="preserve" text-anchor="start" x="30.25" y="-257.5" font-family="Helvetica,sans-Serif" font-size="10.00">std::basic_string&lt;</text>
<text xml:space="preserve" text-anchor="start" x="52.75" y="-245.5" font-family="Helvetica,sans-Serif" font-size="10.00"> Char &gt;</text>
<text xml:space="preserve" text-anchor="start" x="67.75" y="-229.5" font-family="Helvetica,sans-Serif" font-size="10.00"> </text>
<text xml:space="preserve" text-anchor="start" x="67.75" y="-213.5" font-family="Helvetica,sans-Serif" font-size="10.00"> </text>
<polygon fill="#666666" stroke="#666666" points="26.25,-241 26.25,-241 112.25,-241 112.25,-241 26.25,-241"/>
<polygon fill="#666666" stroke="#666666" points="26.25,-225 26.25,-225 112.25,-225 112.25,-225 26.25,-225"/>
<polygon fill="none" stroke="#666666" points="26.25,-207 26.25,-271 112.25,-271 112.25,-207 26.25,-207"/>
</a>
</g>
</g>
<!-- Node3&#45;&gt;Node2 -->
<g id="edge2_Node000002_Node000003" class="edge">
<title>Node3&#45;&gt;Node2</title>
<g id="a_edge2_Node000002_Node000003"><a xlink:title=" ">
<path fill="none" stroke="#63b8ff" d="M69.25,-195.69C69.25,-186.89 69.25,-177.89 69.25,-169.96"/>
<polygon fill="none" stroke="#63b8ff" points="65.75,-195.52 69.25,-205.52 72.75,-195.52 65.75,-195.52"/>
</a>
</g>
</g>
</g>
</svg>
