<?xml version="1.0" encoding="UTF-8" standalone="no"?>
<!DOCTYPE svg PUBLIC "-//W3C//DTD SVG 1.1//EN"
 "http://www.w3.org/Graphics/SVG/1.1/DTD/svg11.dtd">
<!-- Generated by graphviz version 14.1.1 (20251213.1925)
 -->
<!-- Title: PollSerAction::operator() Pages: 1 -->
<svg width="865pt" height="204pt"
 viewBox="0.00 0.00 865.00 204.00" xmlns="http://www.w3.org/2000/svg" xmlns:xlink="http://www.w3.org/1999/xlink">
<g id="graph0" class="graph" transform="scale(1 1) rotate(0) translate(4 200)">
<title>PollSerAction::operator()</title>
<!-- Node1 -->
<g id="Node000001" class="node">
<title>Node1</title>
<g id="a_Node000001"><a xlink:title="Execute SER polling and storage.">
<polygon fill="#999999" stroke="#666666" points="122.5,-108 0,-108 0,-88 122.5,-88 122.5,-108"/>
<text xml:space="preserve" text-anchor="middle" x="61.25" y="-94.5" font-family="Helvetica,sans-Serif" font-size="10.00">PollSerAction::operator()</text>
</a>
</g>
</g>
<!-- Node2 -->
<g id="Node000002" class="node">
<title>Node2</title>
<g id="a_Node000002"><a xlink:href="class_telnet_client.html#a1cfe617f16e1055bdbe2577caaadce4e" target="_top" xlink:title="Clear the last response buffer.">
<polygon fill="white" stroke="#666666" points="324.5,-196 166.75,-196 166.75,-176 324.5,-176 324.5,-196"/>
<text xml:space="preserve" text-anchor="middle" x="245.62" y="-182.5" font-family="Helvetica,sans-Serif" font-size="10.00">TelnetClient::clearLastResponse</text>
</a>
</g>
</g>
<!-- Node1&#45;&gt;Node2 -->
<g id="edge1_Node000001_Node000002" class="edge">
<title>Node1&#45;&gt;Node2</title>
<g id="a_edge1_Node000001_Node000002"><a xlink:title=" ">
<path fill="none" stroke="#63b8ff" d="M73.44,-108.39C90.47,-123.63 124.51,-151.84 158.5,-167 162.83,-168.93 167.36,-170.67 172,-172.24"/>
<polygon fill="#63b8ff" stroke="#63b8ff" points="170.91,-175.57 181.5,-175.15 172.96,-168.87 170.91,-175.57"/>
</a>
</g>
</g>
<!-- Node3 -->
<g id="Node000003" class="node">
<title>Node3</title>
<g id="a_Node000003"><a xlink:href="namespaceasn__tlv.html#a03c61eaf7c30d4bb4e8f50d6cd2f5f03" target="_top" xlink:title="Encode SER records to ASN.1 BER/TLV format.">
<polygon fill="white" stroke="#666666" points="314,-158 177.25,-158 177.25,-126 314,-126 314,-158"/>
<text xml:space="preserve" text-anchor="start" x="185.25" y="-144.5" font-family="Helvetica,sans-Serif" font-size="10.00">asn_tlv::encodeSerRecords</text>
<text xml:space="preserve" text-anchor="middle" x="245.62" y="-132.5" font-family="Helvetica,sans-Serif" font-size="10.00">ToTlv</text>
</a>
</g>
</g>
<!-- Node1&#45;&gt;Node3 -->
<g id="edge2_Node000001_Node000003" class="edge">
<title>Node1&#45;&gt;Node3</title>
<g id="a_edge2_Node000001_Node000003"><a xlink:title=" ">
<path fill="none" stroke="#63b8ff" d="M105.47,-108.43C123.51,-112.78 145.04,-117.97 165.72,-122.96"/>
<polygon fill="#63b8ff" stroke="#63b8ff" points="164.75,-126.33 175.29,-125.27 166.39,-119.52 164.75,-126.33"/>
</a>
</g>
</g>
<!-- Node7 -->
<g id="Node000007" class="node">
<title>Node7</title>
<g id="a_Node000007"><a xlink:href="class_s_e_r_database.html#ac4611fbd8ff79ee0d8ec51cb04a171fc" target="_top" xlink:title="Insert multiple SER records with transaction support.">
<polygon fill="white" stroke="#666666" points="318.5,-108 172.75,-108 172.75,-88 318.5,-88 318.5,-108"/>
<text xml:space="preserve" text-anchor="middle" x="245.62" y="-94.5" font-family="Helvetica,sans-Serif" font-size="10.00">SERDatabase::insertRecords</text>
</a>
</g>
</g>
<!-- Node1&#45;&gt;Node7 -->
<g id="edge7_Node000001_Node000007" class="edge">
<title>Node1&#45;&gt;Node7</title>
<g id="a_edge7_Node000001_Node000007"><a xlink:title=" ">
<path fill="none" stroke="#63b8ff" d="M122.98,-98C135.24,-98 148.33,-98 161.22,-98"/>
<polygon fill="#63b8ff" stroke="#63b8ff" points="160.94,-101.5 170.94,-98 160.94,-94.5 160.94,-101.5"/>
</a>
</g>
</g>
<!-- Node10 -->
<g id="Node000010" class="node">
<title>Node10</title>
<g id="a_Node000010"><a xlink:href="ser__record_8hpp.html#a74e4cd9a0d2e7f7483669c3f91e27f84" target="_top" xlink:title="Parse a raw SER command response into a vector of SERRecord.">
<polygon fill="white" stroke="#666666" points="298.25,-70 193,-70 193,-50 298.25,-50 298.25,-70"/>
<text xml:space="preserve" text-anchor="middle" x="245.62" y="-56.5" font-family="Helvetica,sans-Serif" font-size="10.00">parseSERResponse</text>
</a>
</g>
</g>
<!-- Node1&#45;&gt;Node10 -->
<g id="edge10_Node000001_Node000010" class="edge">
<title>Node1&#45;&gt;Node10</title>
<g id="a_edge10_Node000001_Node000010"><a xlink:title=" ">
<path fill="none" stroke="#63b8ff" d="M112.57,-87.52C134.49,-82.95 160.4,-77.55 183.43,-72.75"/>
<polygon fill="#63b8ff" stroke="#63b8ff" points="183.91,-76.23 192.99,-70.76 182.49,-69.37 183.91,-76.23"/>
</a>
</g>
</g>
<!-- Node12 -->
<g id="Node000012" class="node">
<title>Node12</title>
<g id="a_Node000012"><a xlink:href="class_telnet_client.html#a39aee6a66b79184a3c7fe5072c2f422f" target="_top" xlink:title="Send command and receive response data.">
<polygon fill="white" stroke="#666666" points="332.75,-29 158.5,-29 158.5,-9 332.75,-9 332.75,-29"/>
<text xml:space="preserve" text-anchor="middle" x="245.62" y="-15.5" font-family="Helvetica,sans-Serif" font-size="10.00">TelnetClient::SendCmdReceiveData</text>
</a>
</g>
</g>
<!-- Node1&#45;&gt;Node12 -->
<g id="edge12_Node000001_Node000012" class="edge">
<title>Node1&#45;&gt;Node12</title>
<g id="a_edge12_Node000001_Node000012"><a xlink:title=" ">
<path fill="none" stroke="#63b8ff" d="M76.89,-87.52C95.18,-74.87 127.81,-53.7 158.5,-41 166.23,-37.8 174.56,-34.97 182.87,-32.49"/>
<polygon fill="#63b8ff" stroke="#63b8ff" points="183.61,-35.92 192.29,-29.85 181.71,-29.18 183.61,-35.92"/>
</a>
</g>
</g>
<!-- Node4 -->
<g id="Node000004" class="node">
<title>Node4</title>
<g id="a_Node000004"><a xlink:href="namespaceasn__tlv.html#a0cc9af3d4e8aba5f164c66bb47750767" target="_top" xlink:title="Append a string as a TLV structure.">
<polygon fill="white" stroke="#666666" points="501.75,-187 376.25,-187 376.25,-167 501.75,-167 501.75,-187"/>
<text xml:space="preserve" text-anchor="middle" x="439" y="-173.5" font-family="Helvetica,sans-Serif" font-size="10.00">asn_tlv::berAppendString</text>
</a>
</g>
</g>
<!-- Node3&#45;&gt;Node4 -->
<g id="edge3_Node000003_Node000004" class="edge">
<title>Node3&#45;&gt;Node4</title>
<g id="a_edge3_Node000003_Node000004"><a xlink:title=" ">
<path fill="none" stroke="#63b8ff" d="M314.37,-154.39C332.27,-157.66 351.6,-161.2 369.54,-164.48"/>
<polygon fill="#63b8ff" stroke="#63b8ff" points="368.85,-167.91 379.31,-166.27 370.1,-161.02 368.85,-167.91"/>
</a>
</g>
</g>
<!-- Node5 -->
<g id="Node000005" class="node">
<title>Node5</title>
<g id="a_Node000005"><a xlink:href="namespaceasn__tlv.html#a4a9f3333d71c851f9002020ffd417b18" target="_top" xlink:title="Append a complete TLV structure to an output buffer.">
<polygon fill="white" stroke="#666666" points="675.25,-168 561.75,-168 561.75,-148 675.25,-148 675.25,-168"/>
<text xml:space="preserve" text-anchor="middle" x="618.5" y="-154.5" font-family="Helvetica,sans-Serif" font-size="10.00">asn_tlv::berAppendTlv</text>
</a>
</g>
</g>
<!-- Node3&#45;&gt;Node5 -->
<g id="edge6_Node000003_Node000005" class="edge">
<title>Node3&#45;&gt;Node5</title>
<g id="a_edge6_Node000003_Node000005"><a xlink:title=" ">
<path fill="none" stroke="#63b8ff" d="M314.22,-144.92C381.17,-147.8 483.12,-152.2 550.03,-155.09"/>
<polygon fill="#63b8ff" stroke="#63b8ff" points="549.63,-158.58 559.77,-155.51 549.93,-151.58 549.63,-158.58"/>
</a>
</g>
</g>
<!-- Node4&#45;&gt;Node5 -->
<g id="edge4_Node000004_Node000005" class="edge">
<title>Node4&#45;&gt;Node5</title>
<g id="a_edge4_Node000004_Node000005"><a xlink:title=" ">
<path fill="none" stroke="#63b8ff" d="M502.08,-170.35C517.61,-168.69 534.33,-166.9 550.1,-165.21"/>
<polygon fill="#63b8ff" stroke="#63b8ff" points="550.31,-168.71 559.88,-164.17 549.57,-161.75 550.31,-168.71"/>
</a>
</g>
</g>
<!-- Node6 -->
<g id="Node000006" class="node">
<title>Node6</title>
<g id="a_Node000006"><a xlink:href="namespaceasn__tlv.html#af1ae5498c52c5e99d18f2cd5cb4f2609" target="_top" xlink:title="Append BER length encoding to an output buffer.">
<polygon fill="white" stroke="#666666" points="857,-168 727.75,-168 727.75,-148 857,-148 857,-168"/>
<text xml:space="preserve" text-anchor="middle" x="792.38" y="-154.5" font-family="Helvetica,sans-Serif" font-size="10.00">asn_tlv::berAppendLength</text>
</a>
</g>
</g>
<!-- Node5&#45;&gt;Node6 -->
<g id="edge5_Node000005_Node000006" class="edge">
<title>Node5&#45;&gt;Node6</title>
<g id="a_edge5_Node000005_Node000006"><a xlink:title=" ">
<path fill="none" stroke="#63b8ff" d="M675.3,-158C688.32,-158 702.4,-158 716.1,-158"/>
<polygon fill="#63b8ff" stroke="#63b8ff" points="715.99,-161.5 725.99,-158 715.99,-154.5 715.99,-161.5"/>
</a>
</g>
</g>
<!-- Node8 -->
<g id="Node000008" class="node">
<title>Node8</title>
<g id="a_Node000008"><a xlink:href="class_s_e_r_database.html#a7af7d201eef0336f5c599c3d05671f18" target="_top" xlink:title="Insert a single SER record into the database.">
<polygon fill="white" stroke="#666666" points="509.25,-108 368.75,-108 368.75,-88 509.25,-88 509.25,-108"/>
<text xml:space="preserve" text-anchor="middle" x="439" y="-94.5" font-family="Helvetica,sans-Serif" font-size="10.00">SERDatabase::insertRecord</text>
</a>
</g>
</g>
<!-- Node7&#45;&gt;Node8 -->
<g id="edge8_Node000007_Node000008" class="edge">
<title>Node7&#45;&gt;Node8</title>
<g id="a_edge8_Node000007_Node000008"><a xlink:title=" ">
<path fill="none" stroke="#63b8ff" d="M318.98,-98C331.37,-98 344.33,-98 356.94,-98"/>
<polygon fill="#63b8ff" stroke="#63b8ff" points="356.88,-101.5 366.88,-98 356.88,-94.5 356.88,-101.5"/>
</a>
</g>
</g>
<!-- Node9 -->
<g id="Node000009" class="node">
<title>Node9</title>
<g id="a_Node000009"><a xlink:href="class_s_e_r_database.html#a77ac29d719dfce9ffe151bb73c9295bd" target="_top" xlink:title="Check if a record already exists in the database.">
<polygon fill="white" stroke="#666666" points="688.38,-108 548.62,-108 548.62,-88 688.38,-88 688.38,-108"/>
<text xml:space="preserve" text-anchor="middle" x="618.5" y="-94.5" font-family="Helvetica,sans-Serif" font-size="10.00">SERDatabase::recordExists</text>
</a>
</g>
</g>
<!-- Node8&#45;&gt;Node9 -->
<g id="edge9_Node000008_Node000009" class="edge">
<title>Node8&#45;&gt;Node9</title>
<g id="a_edge9_Node000008_Node000009"><a xlink:title=" ">
<path fill="none" stroke="#63b8ff" d="M509.64,-98C518.59,-98 527.81,-98 536.91,-98"/>
<polygon fill="#63b8ff" stroke="#63b8ff" points="536.84,-101.5 546.84,-98 536.84,-94.5 536.84,-101.5"/>
</a>
</g>
</g>
<!-- Node11 -->
<g id="Node000011" class="node">
<title>Node11</title>
<g id="a_Node000011"><a xlink:href="ser__record_8hpp.html#a3b567ed0529e21ab4536d1df5192a033" target="_top" xlink:title="Parse SER response string into a vector of SERRecord.">
<polygon fill="white" stroke="#666666" points="480.38,-70 397.62,-70 397.62,-50 480.38,-50 480.38,-70"/>
<text xml:space="preserve" text-anchor="middle" x="439" y="-56.5" font-family="Helvetica,sans-Serif" font-size="10.00">sanitizeSerLine</text>
</a>
</g>
</g>
<!-- Node10&#45;&gt;Node11 -->
<g id="edge11_Node000010_Node000011" class="edge">
<title>Node10&#45;&gt;Node11</title>
<g id="a_edge11_Node000010_Node000011"><a xlink:title=" ">
<path fill="none" stroke="#63b8ff" d="M298.67,-60C325.78,-60 358.85,-60 385.97,-60"/>
<polygon fill="#63b8ff" stroke="#63b8ff" points="385.68,-63.5 395.68,-60 385.68,-56.5 385.68,-63.5"/>
</a>
</g>
</g>
<!-- Node13 -->
<g id="Node000013" class="node">
<title>Node13</title>
<g id="a_Node000013"><a xlink:href="class_telnet_client.html#afe6fcd4467c705692d781379926881e0" target="_top" xlink:title="Check if response is complete.">
<polygon fill="white" stroke="#666666" points="501.75,-32 376.25,-32 376.25,0 501.75,0 501.75,-32"/>
<text xml:space="preserve" text-anchor="start" x="384.25" y="-18.5" font-family="Helvetica,sans-Serif" font-size="10.00">TelnetClient::isResponse</text>
<text xml:space="preserve" text-anchor="middle" x="439" y="-6.5" font-family="Helvetica,sans-Serif" font-size="10.00">Complete</text>
</a>
</g>
</g>
<!-- Node12&#45;&gt;Node13 -->
<g id="edge13_Node000012_Node000013" class="edge">
<title>Node12&#45;&gt;Node13</title>
<g id="a_edge13_Node000012_Node000013"><a xlink:title=" ">
<path fill="none" stroke="#63b8ff" d="M333.07,-17.64C343.58,-17.48 354.24,-17.31 364.53,-17.15"/>
<polygon fill="#63b8ff" stroke="#63b8ff" points="364.52,-20.65 374.46,-17 364.41,-13.65 364.52,-20.65"/>
</a>
</g>
</g>
<!-- Node14 -->
<g id="Node000014" class="node">
<title>Node14</title>
<g id="a_Node000014"><a xlink:href="class_telnet_client.html#a9406bd467aec4aed263851fc076c360b" target="_top" xlink:title="Check if buffer ends with a command prompt.">
<polygon fill="white" stroke="#666666" points="691.75,-26 545.25,-26 545.25,-6 691.75,-6 691.75,-26"/>
<text xml:space="preserve" text-anchor="middle" x="618.5" y="-12.5" font-family="Helvetica,sans-Serif" font-size="10.00">TelnetClient::endsWithPrompt</text>
</a>
</g>
</g>
<!-- Node13&#45;&gt;Node14 -->
<g id="edge14_Node000013_Node000014" class="edge">
<title>Node13&#45;&gt;Node14</title>
<g id="a_edge14_Node000013_Node000014"><a xlink:title=" ">
<path fill="none" stroke="#63b8ff" d="M502.08,-16C512.21,-16 522.86,-16 533.41,-16"/>
<polygon fill="#63b8ff" stroke="#63b8ff" points="533.29,-19.5 543.29,-16 533.29,-12.5 533.29,-19.5"/>
</a>
</g>
</g>
</g>
</svg>
