<?xml version="1.0" encoding="UTF-8" standalone="no"?>
<!DOCTYPE svg PUBLIC "-//W3C//DTD SVG 1.1//EN"
 "http://www.w3.org/Graphics/SVG/1.1/DTD/svg11.dtd">
<!-- Generated by graphviz version 14.1.2 (20260124.0452)
 -->
<!-- Title: Login1CompleteGuard::operator() Pages: 1 -->
<svg width="307pt" height="104pt"
 viewBox="0.00 0.00 307.00 104.00" xmlns="http://www.w3.org/2000/svg" xmlns:xlink="http://www.w3.org/1999/xlink">
<g id="graph0" class="graph" transform="scale(1 1) rotate(0) translate(4 100)">
<title>Login1CompleteGuard::operator()</title>
<!-- Node1 -->
<g id="Node000001" class="node">
<title>Node1</title>
<g id="a_Node000001"><a xlink:title="Evaluate login completion.">
<polygon fill="#999999" stroke="#666666" points="112.75,-64 0,-64 0,-32 112.75,-32 112.75,-64"/>
<text xml:space="preserve" text-anchor="start" x="8" y="-50.5" font-family="Helvetica,sans-Serif" font-size="10.00">Login1CompleteGuard</text>
<text xml:space="preserve" text-anchor="middle" x="56.38" y="-38.5" font-family="Helvetica,sans-Serif" font-size="10.00">::operator()</text>
</a>
</g>
</g>
<!-- Node2 -->
<g id="Node000002" class="node">
<title>Node2</title>
<g id="a_Node000002"><a xlink:href="class_telnet_client.html#a6555ca7753fe6733a191cb2f9ce941d4" target="_top" xlink:title="Get the result of the last I/O operation.">
<polygon fill="white" stroke="#666666" points="295.25,-96 152.5,-96 152.5,-76 295.25,-76 295.25,-96"/>
<text xml:space="preserve" text-anchor="middle" x="223.88" y="-82.5" font-family="Helvetica,sans-Serif" font-size="10.00">TelnetClient::getLastIoResult</text>
</a>
</g>
</g>
<!-- Node1&#45;&gt;Node2 -->
<g id="edge1_Node000001_Node000002" class="edge">
<title>Node1&#45;&gt;Node2</title>
<g id="a_edge1_Node000001_Node000002"><a xlink:title=" ">
<path fill="none" stroke="#63b8ff" d="M112.94,-60.76C130.12,-64.7 149.06,-69.05 166.3,-73.01"/>
<polygon fill="#63b8ff" stroke="#63b8ff" points="165.35,-76.38 175.88,-75.21 166.92,-69.56 165.35,-76.38"/>
</a>
</g>
</g>
<!-- Node3 -->
<g id="Node000003" class="node">
<title>Node3</title>
<g id="a_Node000003"><a xlink:href="class_telnet_client.html#acc16b6263ed9b2ffca7ae9927f5ed1f3" target="_top" xlink:title="Get the last response received.">
<polygon fill="white" stroke="#666666" points="299,-58 148.75,-58 148.75,-38 299,-38 299,-58"/>
<text xml:space="preserve" text-anchor="middle" x="223.88" y="-44.5" font-family="Helvetica,sans-Serif" font-size="10.00">TelnetClient::getLastResponse</text>
</a>
</g>
</g>
<!-- Node1&#45;&gt;Node3 -->
<g id="edge2_Node000001_Node000003" class="edge">
<title>Node1&#45;&gt;Node3</title>
<g id="a_edge2_Node000001_Node000003"><a xlink:title=" ">
<path fill="none" stroke="#63b8ff" d="M112.94,-48C120.67,-48 128.75,-48 136.87,-48"/>
<polygon fill="#63b8ff" stroke="#63b8ff" points="136.83,-51.5 146.83,-48 136.83,-44.5 136.83,-51.5"/>
</a>
</g>
</g>
<!-- Node4 -->
<g id="Node000004" class="node">
<title>Node4</title>
<g id="a_Node000004"><a xlink:href="telnet__fsm_8hpp.html#a51079b13d7af47b82cefff3373c9c39a" target="_top" xlink:title="Check if buffer contains a command prompt.">
<polygon fill="white" stroke="#666666" points="255.5,-20 192.25,-20 192.25,0 255.5,0 255.5,-20"/>
<text xml:space="preserve" text-anchor="middle" x="223.88" y="-6.5" font-family="Helvetica,sans-Serif" font-size="10.00">hasPrompt</text>
</a>
</g>
</g>
<!-- Node1&#45;&gt;Node4 -->
<g id="edge3_Node000001_Node000004" class="edge">
<title>Node1&#45;&gt;Node4</title>
<g id="a_edge3_Node000001_Node000004"><a xlink:title=" ">
<path fill="none" stroke="#63b8ff" d="M112.94,-35.24C135.13,-30.15 160.25,-24.38 180.87,-19.65"/>
<polygon fill="#63b8ff" stroke="#63b8ff" points="181.37,-23.12 190.34,-17.47 179.81,-16.3 181.37,-23.12"/>
</a>
</g>
</g>
</g>
</svg>
