<?xml version="1.0" encoding="UTF-8" standalone="no"?>
<!DOCTYPE svg PUBLIC "-//W3C//DTD SVG 1.1//EN"
 "http://www.w3.org/Graphics/SVG/1.1/DTD/svg11.dtd">
<!-- Generated by graphviz version 14.1.2 (20260124.0452)
 -->
<!-- Title: RetryState::canRetry Pages: 1 -->
<svg width="285pt" height="78pt"
 viewBox="0.00 0.00 285.00 78.00" xmlns="http://www.w3.org/2000/svg" xmlns:xlink="http://www.w3.org/1999/xlink">
<g id="graph0" class="graph" transform="scale(1 1) rotate(0) translate(4 74)">
<title>RetryState::canRetry</title>
<!-- Node1 -->
<g id="Node000001" class="node">
<title>Node1</title>
<g id="a_Node000001"><a xlink:title="Check if more retry attempts are available.">
<polygon fill="#999999" stroke="#666666" points="276.5,-48 167.5,-48 167.5,-28 276.5,-28 276.5,-48"/>
<text xml:space="preserve" text-anchor="middle" x="222" y="-34.5" font-family="Helvetica,sans-Serif" font-size="10.00">RetryState::canRetry</text>
</a>
</g>
</g>
<!-- Node2 -->
<g id="Node000002" class="node">
<title>Node2</title>
<g id="a_Node000002"><a xlink:href="struct_can_retry_guard.html#a668a09c4192824c888208643b6e12b4d" target="_top" xlink:title="Evaluate if retry should be attempted.">
<polygon fill="white" stroke="#666666" points="131.5,-70 0,-70 0,-50 131.5,-50 131.5,-70"/>
<text xml:space="preserve" text-anchor="middle" x="65.75" y="-56.5" font-family="Helvetica,sans-Serif" font-size="10.00">CanRetryGuard::operator()</text>
</a>
</g>
</g>
<!-- Node1&#45;&gt;Node2 -->
<g id="edge1_Node000001_Node000002" class="edge">
<title>Node1&#45;&gt;Node2</title>
<g id="a_edge1_Node000001_Node000002"><a xlink:title=" ">
<path fill="none" stroke="#63b8ff" d="M155.92,-47.28C147.94,-48.42 139.79,-49.58 131.81,-50.72"/>
<polygon fill="#63b8ff" stroke="#63b8ff" points="156.15,-50.79 165.55,-45.91 155.16,-43.86 156.15,-50.79"/>
</a>
</g>
</g>
<!-- Node3 -->
<g id="Node000003" class="node">
<title>Node3</title>
<g id="a_Node000003"><a xlink:href="struct_max_retries_reached_guard.html#a2f4f94ac1625dcee38d1e6c99758f031" target="_top" xlink:title="Evaluate if max retries exceeded.">
<polygon fill="white" stroke="#666666" points="131.5,-32 0,-32 0,0 131.5,0 131.5,-32"/>
<text xml:space="preserve" text-anchor="start" x="8" y="-18.5" font-family="Helvetica,sans-Serif" font-size="10.00">MaxRetriesReachedGuard</text>
<text xml:space="preserve" text-anchor="middle" x="65.75" y="-6.5" font-family="Helvetica,sans-Serif" font-size="10.00">::operator()</text>
</a>
</g>
</g>
<!-- Node1&#45;&gt;Node3 -->
<g id="edge2_Node000001_Node000003" class="edge">
<title>Node1&#45;&gt;Node3</title>
<g id="a_edge2_Node000001_Node000003"><a xlink:title=" ">
<path fill="none" stroke="#63b8ff" d="M155.92,-28.72C147.94,-27.58 139.79,-26.42 131.81,-25.28"/>
<polygon fill="#63b8ff" stroke="#63b8ff" points="155.16,-32.14 165.55,-30.09 156.15,-25.21 155.16,-32.14"/>
</a>
</g>
</g>
</g>
</svg>
