<?xml version="1.0" encoding="UTF-8" standalone="no"?>
<!DOCTYPE svg PUBLIC "-//W3C//DTD SVG 1.1//EN"
 "http://www.w3.org/Graphics/SVG/1.1/DTD/svg11.dtd">
<!-- Generated by graphviz version 14.1.2 (20260124.0452)
 -->
<!-- Title: Login1Action::operator() Pages: 1 -->
<svg width="876pt" height="78pt"
 viewBox="0.00 0.00 876.00 78.00" xmlns="http://www.w3.org/2000/svg" xmlns:xlink="http://www.w3.org/1999/xlink">
<g id="graph0" class="graph" transform="scale(1 1) rotate(0) translate(4 74)">
<title>Login1Action::operator()</title>
<!-- Node1 -->
<g id="Node000001" class="node">
<title>Node1</title>
<g id="a_Node000001"><a xlink:title="Execute Level 1 login sequence.">
<polygon fill="#999999" stroke="#666666" points="119.5,-48 0,-48 0,-28 119.5,-28 119.5,-48"/>
<text xml:space="preserve" text-anchor="middle" x="59.75" y="-34.5" font-family="Helvetica,sans-Serif" font-size="10.00">Login1Action::operator()</text>
</a>
</g>
</g>
<!-- Node2 -->
<g id="Node000002" class="node">
<title>Node2</title>
<g id="a_Node000002"><a xlink:href="class_telnet_client.html#a1cfe617f16e1055bdbe2577caaadce4e" target="_top" xlink:title="Clear the last response buffer.">
<polygon fill="white" stroke="#666666" points="313.25,-70 155.5,-70 155.5,-50 313.25,-50 313.25,-70"/>
<text xml:space="preserve" text-anchor="middle" x="234.38" y="-56.5" font-family="Helvetica,sans-Serif" font-size="10.00">TelnetClient::clearLastResponse</text>
</a>
</g>
</g>
<!-- Node1&#45;&gt;Node2 -->
<g id="edge1_Node000001_Node000002" class="edge">
<title>Node1&#45;&gt;Node2</title>
<g id="a_edge1_Node000001_Node000002"><a xlink:title=" ">
<path fill="none" stroke="#63b8ff" d="M119.67,-45.51C127.53,-46.51 135.73,-47.56 143.96,-48.6"/>
<polygon fill="#63b8ff" stroke="#63b8ff" points="143.31,-52.05 153.68,-49.84 144.2,-45.11 143.31,-52.05"/>
</a>
</g>
</g>
<!-- Node3 -->
<g id="Node000003" class="node">
<title>Node3</title>
<g id="a_Node000003"><a xlink:href="class_telnet_client.html#a78c1579f7e5e5d21d3332e30c83092f8" target="_top" xlink:title="Perform Level 1 login authentication.">
<polygon fill="white" stroke="#666666" points="297.12,-32 171.62,-32 171.62,0 297.12,0 297.12,-32"/>
<text xml:space="preserve" text-anchor="start" x="179.62" y="-18.5" font-family="Helvetica,sans-Serif" font-size="10.00">TelnetClient::LoginLevel1</text>
<text xml:space="preserve" text-anchor="middle" x="234.38" y="-6.5" font-family="Helvetica,sans-Serif" font-size="10.00">Function</text>
</a>
</g>
</g>
<!-- Node1&#45;&gt;Node3 -->
<g id="edge2_Node000001_Node000003" class="edge">
<title>Node1&#45;&gt;Node3</title>
<g id="a_edge2_Node000001_Node000003"><a xlink:title=" ">
<path fill="none" stroke="#63b8ff" d="M119.67,-30.49C132.65,-28.84 146.54,-27.07 160,-25.35"/>
<polygon fill="#63b8ff" stroke="#63b8ff" points="160.2,-28.85 169.68,-24.12 159.32,-21.91 160.2,-28.85"/>
</a>
</g>
</g>
<!-- Node4 -->
<g id="Node000004" class="node">
<title>Node4</title>
<g id="a_Node000004"><a xlink:href="class_telnet_client.html#a39aee6a66b79184a3c7fe5072c2f422f" target="_top" xlink:title="Send command and receive response data.">
<polygon fill="white" stroke="#666666" points="523.5,-26 349.25,-26 349.25,-6 523.5,-6 523.5,-26"/>
<text xml:space="preserve" text-anchor="middle" x="436.38" y="-12.5" font-family="Helvetica,sans-Serif" font-size="10.00">TelnetClient::SendCmdReceiveData</text>
</a>
</g>
</g>
<!-- Node3&#45;&gt;Node4 -->
<g id="edge3_Node000003_Node000004" class="edge">
<title>Node3&#45;&gt;Node4</title>
<g id="a_edge3_Node000003_Node000004"><a xlink:title=" ">
<path fill="none" stroke="#63b8ff" d="M297.56,-16C310.28,-16 323.96,-16 337.58,-16"/>
<polygon fill="#63b8ff" stroke="#63b8ff" points="337.48,-19.5 347.48,-16 337.48,-12.5 337.48,-19.5"/>
</a>
</g>
</g>
<!-- Node5 -->
<g id="Node000005" class="node">
<title>Node5</title>
<g id="a_Node000005"><a xlink:href="class_telnet_client.html#afe6fcd4467c705692d781379926881e0" target="_top" xlink:title="Check if response is complete.">
<polygon fill="white" stroke="#666666" points="685,-32 559.5,-32 559.5,0 685,0 685,-32"/>
<text xml:space="preserve" text-anchor="start" x="567.5" y="-18.5" font-family="Helvetica,sans-Serif" font-size="10.00">TelnetClient::isResponse</text>
<text xml:space="preserve" text-anchor="middle" x="622.25" y="-6.5" font-family="Helvetica,sans-Serif" font-size="10.00">Complete</text>
</a>
</g>
</g>
<!-- Node4&#45;&gt;Node5 -->
<g id="edge4_Node000004_Node000005" class="edge">
<title>Node4&#45;&gt;Node5</title>
<g id="a_edge4_Node000004_Node000005"><a xlink:title=" ">
<path fill="none" stroke="#63b8ff" d="M523.93,-16C531.94,-16 540,-16 547.88,-16"/>
<polygon fill="#63b8ff" stroke="#63b8ff" points="547.74,-19.5 557.74,-16 547.74,-12.5 547.74,-19.5"/>
</a>
</g>
</g>
<!-- Node6 -->
<g id="Node000006" class="node">
<title>Node6</title>
<g id="a_Node000006"><a xlink:href="class_telnet_client.html#a9406bd467aec4aed263851fc076c360b" target="_top" xlink:title="Check if buffer ends with a command prompt.">
<polygon fill="white" stroke="#666666" points="867.5,-26 721,-26 721,-6 867.5,-6 867.5,-26"/>
<text xml:space="preserve" text-anchor="middle" x="794.25" y="-12.5" font-family="Helvetica,sans-Serif" font-size="10.00">TelnetClient::endsWithPrompt</text>
</a>
</g>
</g>
<!-- Node5&#45;&gt;Node6 -->
<g id="edge5_Node000005_Node000006" class="edge">
<title>Node5&#45;&gt;Node6</title>
<g id="a_edge5_Node000005_Node000006"><a xlink:title=" ">
<path fill="none" stroke="#63b8ff" d="M685.1,-16C692.98,-16 701.14,-16 709.28,-16"/>
<polygon fill="#63b8ff" stroke="#63b8ff" points="709.25,-19.5 719.25,-16 709.25,-12.5 709.25,-19.5"/>
</a>
</g>
</g>
</g>
</svg>
