<?xml version="1.0" encoding="UTF-8" standalone="no"?>
<!DOCTYPE svg PUBLIC "-//W3C//DTD SVG 1.1//EN"
 "http://www.w3.org/Graphics/SVG/1.1/DTD/svg11.dtd">
<!-- Generated by graphviz version 14.1.2 (20260124.0452)
 -->
<!-- Title: SERRecord Pages: 1 -->
<svg width="110pt" height="331pt"
 viewBox="0.00 0.00 110.00 331.00" xmlns="http://www.w3.org/2000/svg" xmlns:xlink="http://www.w3.org/1999/xlink">

<svg id="main" version="1.1" xmlns="http://www.w3.org/2000/svg" xmlns:xlink="http://www.w3.org/1999/xlink" xml:space="preserve">

<style type="text/css"><![CDATA[
.node, .edge {opacity: 0.7;}
.node.selected, .edge.selected {opacity: 1;}
.edge:hover path { stroke: red; }
.edge:hover polygon { stroke: red; fill: red; }
]]></style>
<script type="application/ecmascript" xlink:href="svg.min.js"/>
<svg id="graph" class="graph">
<g id="graph0" class="graph" transform="scale(1 1) rotate(0) translate(4 327)">
<title>SERRecord</title>
<!-- Node1 -->
<g id="Node000001" class="node">
<title>Node1</title>
<g id="a_Node000001"><a xlink:title="Structure representing a System Event Record (SER).">
<polygon fill="#999999" stroke="none" points="81.25,-68 4.75,-68 4.75,0 81.25,0 81.25,-68"/>
<text xml:space="preserve" text-anchor="start" x="16.75" y="-54.5" font-family="Helvetica,sans-Serif" font-size="10.00">SERRecord</text>
<text xml:space="preserve" text-anchor="start" x="41.5" y="-38.5" font-family="Helvetica,sans-Serif" font-size="10.00"> </text>
<text xml:space="preserve" text-anchor="start" x="8.75" y="-22.5" font-family="Helvetica,sans-Serif" font-size="10.00">+</text>
<text xml:space="preserve" text-anchor="start" x="18.75" y="-22.5" font-family="Helvetica,sans-Serif" font-size="10.00">SERRecord()</text>
<text xml:space="preserve" text-anchor="start" x="8.75" y="-6.5" font-family="Helvetica,sans-Serif" font-size="10.00">+</text>
<text xml:space="preserve" text-anchor="start" x="18.75" y="-6.5" font-family="Helvetica,sans-Serif" font-size="10.00">SERRecord()</text>
<polygon fill="#666666" stroke="#666666" points="4.75,-50 4.75,-50 81.25,-50 81.25,-50 4.75,-50"/>
<polygon fill="#666666" stroke="#666666" points="4.75,-34 4.75,-34 81.25,-34 81.25,-34 4.75,-34"/>
<polygon fill="none" stroke="#666666" points="4.75,0 4.75,-68 81.25,-68 81.25,0 4.75,0"/>
</a>
</g>
</g>
<!-- Node2 -->
<g id="Node000002" class="node">
<title>Node2</title>
<g id="a_Node000002"><a xlink:title=" ">
<polygon fill="white" stroke="none" points="68.75,-222 17.25,-222 17.25,-170 68.75,-170 68.75,-222"/>
<text xml:space="preserve" text-anchor="start" x="21.25" y="-208.5" font-family="Helvetica,sans-Serif" font-size="10.00">std::string</text>
<text xml:space="preserve" text-anchor="start" x="41.5" y="-192.5" font-family="Helvetica,sans-Serif" font-size="10.00"> </text>
<text xml:space="preserve" text-anchor="start" x="41.5" y="-176.5" font-family="Helvetica,sans-Serif" font-size="10.00"> </text>
<polygon fill="#666666" stroke="#666666" points="17.25,-204 17.25,-204 68.75,-204 68.75,-204 17.25,-204"/>
<polygon fill="#666666" stroke="#666666" points="17.25,-188 17.25,-188 68.75,-188 68.75,-188 17.25,-188"/>
<polygon fill="none" stroke="#666666" points="17.25,-170 17.25,-222 68.75,-222 68.75,-170 17.25,-170"/>
</a>
</g>
</g>
<!-- Node2&#45;&gt;Node1 -->
<g id="edge1_Node000001_Node000002" class="edge">
<title>Node2&#45;&gt;Node1</title>
<g id="a_edge1_Node000001_Node000002"><a xlink:title=" ">
<path fill="none" stroke="#63b8ff" d="M43,-170C43,-146.14 43,-109.64 43,-80.6"/>
<polygon fill="none" stroke="#63b8ff" points="43,-80.76 39,-74.76 43,-68.76 47,-74.76 43,-80.76"/>
</a>
</g>
<text xml:space="preserve" text-anchor="start" x="46" y="-139.5" font-family="Helvetica,sans-Serif" font-size="10.00" fill="grey">+description</text>
<text xml:space="preserve" text-anchor="start" x="46" y="-123.5" font-family="Helvetica,sans-Serif" font-size="10.00" fill="grey">+record_id</text>
<text xml:space="preserve" text-anchor="start" x="46" y="-107.5" font-family="Helvetica,sans-Serif" font-size="10.00" fill="grey">+status</text>
<text xml:space="preserve" text-anchor="start" x="46" y="-91.5" font-family="Helvetica,sans-Serif" font-size="10.00" fill="grey">+timestamp</text>
</g>
<!-- Node3 -->
<g id="Node000003" class="node">
<title>Node3</title>
<g id="a_Node000003"><a xlink:title=" ">
<polygon fill="white" stroke="none" points="86,-323 0,-323 0,-259 86,-259 86,-323"/>
<text xml:space="preserve" text-anchor="start" x="4" y="-309.5" font-family="Helvetica,sans-Serif" font-size="10.00">std::basic_string&lt;</text>
<text xml:space="preserve" text-anchor="start" x="26.5" y="-297.5" font-family="Helvetica,sans-Serif" font-size="10.00"> Char &gt;</text>
<text xml:space="preserve" text-anchor="start" x="41.5" y="-281.5" font-family="Helvetica,sans-Serif" font-size="10.00"> </text>
<text xml:space="preserve" text-anchor="start" x="41.5" y="-265.5" font-family="Helvetica,sans-Serif" font-size="10.00"> </text>
<polygon fill="#666666" stroke="#666666" points="0,-293 0,-293 86,-293 86,-293 0,-293"/>
<polygon fill="#666666" stroke="#666666" points="0,-277 0,-277 86,-277 86,-277 0,-277"/>
<polygon fill="none" stroke="#666666" points="0,-259 0,-323 86,-323 86,-259 0,-259"/>
</a>
</g>
</g>
<!-- Node3&#45;&gt;Node2 -->
<g id="edge2_Node000002_Node000003" class="edge">
<title>Node3&#45;&gt;Node2</title>
<g id="a_edge2_Node000002_Node000003"><a xlink:title=" ">
<path fill="none" stroke="#63b8ff" d="M43,-247.69C43,-238.89 43,-229.89 43,-221.96"/>
<polygon fill="none" stroke="#63b8ff" points="39.5,-247.52 43,-257.52 46.5,-247.52 39.5,-247.52"/>
</a>
</g>
</g>
</g>
</svg>
</svg>

<style type='text/css'>
<![CDATA[
[data-mouse-over-selected='false'] { opacity: 0.7; }
[data-mouse-over-selected='true']  { opacity: 1.0; }
]]>
</style>
<script type="application/ecmascript"><![CDATA[
document.addEventListener('DOMContentLoaded', (event) => {
  highlightEdges();
  highlightAdjacentNodes();
});
]]></script>
</svg>
