<?xml version="1.0" encoding="UTF-8" standalone="no"?>
<!DOCTYPE svg PUBLIC "-//W3C//DTD SVG 1.1//EN"
 "http://www.w3.org/Graphics/SVG/1.1/DTD/svg11.dtd">
<!-- Generated by graphviz version 14.1.2 (20260124.0452)
 -->
<!-- Title: RelayService::DateResult Pages: 1 -->
<svg width="130pt" height="283pt"
 viewBox="0.00 0.00 130.00 283.00" xmlns="http://www.w3.org/2000/svg" xmlns:xlink="http://www.w3.org/1999/xlink">

<svg id="main" version="1.1" xmlns="http://www.w3.org/2000/svg" xmlns:xlink="http://www.w3.org/1999/xlink" xml:space="preserve">

<style type="text/css"><![CDATA[
.node, .edge {opacity: 0.7;}
.node.selected, .edge.selected {opacity: 1;}
.edge:hover path { stroke: red; }
.edge:hover polygon { stroke: red; fill: red; }
]]></style>
<script type="application/ecmascript" xlink:href="svg.min.js"/>
<svg id="graph" class="graph">
<g id="graph0" class="graph" transform="scale(1 1) rotate(0) translate(4 279)">
<title>RelayService::DateResult</title>
<!-- Node1 -->
<g id="Node000001" class="node">
<title>Node1</title>
<g id="a_Node000001"><a xlink:title="Result of a relay DATE operation.">
<polygon fill="#999999" stroke="none" points="122,-52 0,-52 0,0 122,0 122,-52"/>
<text xml:space="preserve" text-anchor="start" x="4" y="-38.5" font-family="Helvetica,sans-Serif" font-size="10.00">RelayService::DateResult</text>
<text xml:space="preserve" text-anchor="start" x="20.81" y="-22.5" font-family="Helvetica,sans-Serif" font-size="10.00">+</text>
<text xml:space="preserve" text-anchor="start" x="47.62" y="-22.5" font-family="Helvetica,sans-Serif" font-size="10.00">success</text>
<text xml:space="preserve" text-anchor="start" x="59.5" y="-6.5" font-family="Helvetica,sans-Serif" font-size="10.00"> </text>
<polygon fill="#666666" stroke="#666666" points="0,-34 0,-34 122,-34 122,-34 0,-34"/>
<polygon fill="#666666" stroke="#666666" points="0,-18 0,-18 45.62,-18 45.62,-18 0,-18"/>
<polygon fill="#666666" stroke="#666666" points="45.62,-18 45.62,-18 122,-18 122,-18 45.62,-18"/>
<polygon fill="none" stroke="#666666" points="0,0 0,-52 122,-52 122,0 0,0"/>
</a>
</g>
</g>
<!-- Node2 -->
<g id="Node000002" class="node">
<title>Node2</title>
<g id="a_Node000002"><a xlink:title=" ">
<polygon fill="white" stroke="none" points="86.75,-174 35.25,-174 35.25,-122 86.75,-122 86.75,-174"/>
<text xml:space="preserve" text-anchor="start" x="39.25" y="-160.5" font-family="Helvetica,sans-Serif" font-size="10.00">std::string</text>
<text xml:space="preserve" text-anchor="start" x="59.5" y="-144.5" font-family="Helvetica,sans-Serif" font-size="10.00"> </text>
<text xml:space="preserve" text-anchor="start" x="59.5" y="-128.5" font-family="Helvetica,sans-Serif" font-size="10.00"> </text>
<polygon fill="#666666" stroke="#666666" points="35.25,-156 35.25,-156 86.75,-156 86.75,-156 35.25,-156"/>
<polygon fill="#666666" stroke="#666666" points="35.25,-140 35.25,-140 86.75,-140 86.75,-140 35.25,-140"/>
<polygon fill="none" stroke="#666666" points="35.25,-122 35.25,-174 86.75,-174 86.75,-122 35.25,-122"/>
</a>
</g>
</g>
<!-- Node2&#45;&gt;Node1 -->
<g id="edge1_Node000001_Node000002" class="edge">
<title>Node2&#45;&gt;Node1</title>
<g id="a_edge1_Node000001_Node000002"><a xlink:title=" ">
<path fill="none" stroke="#63b8ff" d="M61,-122.14C61,-105.56 61,-83.47 61,-64.74"/>
<polygon fill="none" stroke="#63b8ff" points="61,-64.73 57,-58.73 61,-52.73 65,-58.73 61,-64.73"/>
</a>
</g>
<text xml:space="preserve" text-anchor="start" x="64" y="-91.5" font-family="Helvetica,sans-Serif" font-size="10.00" fill="grey">+datetime</text>
<text xml:space="preserve" text-anchor="start" x="64" y="-75.5" font-family="Helvetica,sans-Serif" font-size="10.00" fill="grey">+error</text>
</g>
<!-- Node3 -->
<g id="Node000003" class="node">
<title>Node3</title>
<g id="a_Node000003"><a xlink:title=" ">
<polygon fill="white" stroke="none" points="104,-275 18,-275 18,-211 104,-211 104,-275"/>
<text xml:space="preserve" text-anchor="start" x="22" y="-261.5" font-family="Helvetica,sans-Serif" font-size="10.00">std::basic_string&lt;</text>
<text xml:space="preserve" text-anchor="start" x="44.5" y="-249.5" font-family="Helvetica,sans-Serif" font-size="10.00"> Char &gt;</text>
<text xml:space="preserve" text-anchor="start" x="59.5" y="-233.5" font-family="Helvetica,sans-Serif" font-size="10.00"> </text>
<text xml:space="preserve" text-anchor="start" x="59.5" y="-217.5" font-family="Helvetica,sans-Serif" font-size="10.00"> </text>
<polygon fill="#666666" stroke="#666666" points="18,-245 18,-245 104,-245 104,-245 18,-245"/>
<polygon fill="#666666" stroke="#666666" points="18,-229 18,-229 104,-229 104,-229 18,-229"/>
<polygon fill="none" stroke="#666666" points="18,-211 18,-275 104,-275 104,-211 18,-211"/>
</a>
</g>
</g>
<!-- Node3&#45;&gt;Node2 -->
<g id="edge2_Node000002_Node000003" class="edge">
<title>Node3&#45;&gt;Node2</title>
<g id="a_edge2_Node000002_Node000003"><a xlink:title=" ">
<path fill="none" stroke="#63b8ff" d="M61,-199.69C61,-190.89 61,-181.89 61,-173.96"/>
<polygon fill="none" stroke="#63b8ff" points="57.5,-199.52 61,-209.52 64.5,-199.52 57.5,-199.52"/>
</a>
</g>
</g>
</g>
</svg>
</svg>

<style type='text/css'>
<![CDATA[
[data-mouse-over-selected='false'] { opacity: 0.7; }
[data-mouse-over-selected='true']  { opacity: 1.0; }
]]>
</style>
<script type="application/ecmascript"><![CDATA[
document.addEventListener('DOMContentLoaded', (event) => {
  highlightEdges();
  highlightAdjacentNodes();
});
]]></script>
</svg>
