<?xml version="1.0" encoding="UTF-8" standalone="no"?>
<!DOCTYPE svg PUBLIC "-//W3C//DTD SVG 1.1//EN"
 "http://www.w3.org/Graphics/SVG/1.1/DTD/svg11.dtd">
<!-- Generated by graphviz version 14.1.1 (20251213.1925)
 -->
<!-- Title: CmdTarAction::operator() Pages: 1 -->
<svg width="688pt" height="72pt"
 viewBox="0.00 0.00 688.00 72.00" xmlns="http://www.w3.org/2000/svg" xmlns:xlink="http://www.w3.org/1999/xlink">
<g id="graph0" class="graph" transform="scale(1 1) rotate(0) translate(4 68)">
<title>CmdTarAction::operator()</title>
<!-- Node1 -->
<g id="Node000001" class="node">
<title>Node1</title>
<g id="a_Node000001"><a xlink:title=" ">
<polygon fill="#999999" stroke="#666666" points="125.5,-45 0,-45 0,-25 125.5,-25 125.5,-45"/>
<text xml:space="preserve" text-anchor="middle" x="62.75" y="-31.5" font-family="Helvetica,sans-Serif" font-size="10.00">CmdTarAction::operator()</text>
</a>
</g>
</g>
<!-- Node2 -->
<g id="Node000002" class="node">
<title>Node2</title>
<g id="a_Node000002"><a xlink:href="class_telnet_client.html#a1cfe617f16e1055bdbe2577caaadce4e" target="_top" xlink:title="Clear the last response buffer.">
<polygon fill="white" stroke="#666666" points="327.5,-64 169.75,-64 169.75,-44 327.5,-44 327.5,-64"/>
<text xml:space="preserve" text-anchor="middle" x="248.62" y="-50.5" font-family="Helvetica,sans-Serif" font-size="10.00">TelnetClient::clearLastResponse</text>
</a>
</g>
</g>
<!-- Node1&#45;&gt;Node2 -->
<g id="edge1_Node000001_Node000002" class="edge">
<title>Node1&#45;&gt;Node2</title>
<g id="a_edge1_Node000001_Node000002"><a xlink:title=" ">
<path fill="none" stroke="#63b8ff" d="M125.75,-41.41C136.11,-42.48 147.05,-43.61 157.95,-44.73"/>
<polygon fill="#63b8ff" stroke="#63b8ff" points="157.45,-48.2 167.76,-45.75 158.17,-41.24 157.45,-48.2"/>
</a>
</g>
</g>
<!-- Node3 -->
<g id="Node000003" class="node">
<title>Node3</title>
<g id="a_Node000003"><a xlink:href="class_telnet_client.html#a39aee6a66b79184a3c7fe5072c2f422f" target="_top" xlink:title="Send command and receive response data.">
<polygon fill="white" stroke="#666666" points="335.75,-26 161.5,-26 161.5,-6 335.75,-6 335.75,-26"/>
<text xml:space="preserve" text-anchor="middle" x="248.62" y="-12.5" font-family="Helvetica,sans-Serif" font-size="10.00">TelnetClient::SendCmdReceiveData</text>
</a>
</g>
</g>
<!-- Node1&#45;&gt;Node3 -->
<g id="edge2_Node000001_Node000003" class="edge">
<title>Node1&#45;&gt;Node3</title>
<g id="a_edge2_Node000001_Node000003"><a xlink:title=" ">
<path fill="none" stroke="#63b8ff" d="M125.75,-28.59C133.56,-27.79 141.7,-26.95 149.89,-26.1"/>
<polygon fill="#63b8ff" stroke="#63b8ff" points="149.99,-29.61 159.58,-25.1 149.27,-22.64 149.99,-29.61"/>
</a>
</g>
</g>
<!-- Node4 -->
<g id="Node000004" class="node">
<title>Node4</title>
<g id="a_Node000004"><a xlink:href="class_telnet_client.html#afe6fcd4467c705692d781379926881e0" target="_top" xlink:title="Check if response is complete.">
<polygon fill="white" stroke="#666666" points="497.25,-32 371.75,-32 371.75,0 497.25,0 497.25,-32"/>
<text xml:space="preserve" text-anchor="start" x="379.75" y="-18.5" font-family="Helvetica,sans-Serif" font-size="10.00">TelnetClient::isResponse</text>
<text xml:space="preserve" text-anchor="middle" x="434.5" y="-6.5" font-family="Helvetica,sans-Serif" font-size="10.00">Complete</text>
</a>
</g>
</g>
<!-- Node3&#45;&gt;Node4 -->
<g id="edge3_Node000003_Node000004" class="edge">
<title>Node3&#45;&gt;Node4</title>
<g id="a_edge3_Node000003_Node000004"><a xlink:title=" ">
<path fill="none" stroke="#63b8ff" d="M336.18,-16C344.19,-16 352.25,-16 360.13,-16"/>
<polygon fill="#63b8ff" stroke="#63b8ff" points="359.99,-19.5 369.99,-16 359.99,-12.5 359.99,-19.5"/>
</a>
</g>
</g>
<!-- Node5 -->
<g id="Node000005" class="node">
<title>Node5</title>
<g id="a_Node000005"><a xlink:href="class_telnet_client.html#a9406bd467aec4aed263851fc076c360b" target="_top" xlink:title="Check if buffer ends with a command prompt.">
<polygon fill="white" stroke="#666666" points="679.75,-26 533.25,-26 533.25,-6 679.75,-6 679.75,-26"/>
<text xml:space="preserve" text-anchor="middle" x="606.5" y="-12.5" font-family="Helvetica,sans-Serif" font-size="10.00">TelnetClient::endsWithPrompt</text>
</a>
</g>
</g>
<!-- Node4&#45;&gt;Node5 -->
<g id="edge4_Node000004_Node000005" class="edge">
<title>Node4&#45;&gt;Node5</title>
<g id="a_edge4_Node000004_Node000005"><a xlink:title=" ">
<path fill="none" stroke="#63b8ff" d="M497.35,-16C505.23,-16 513.39,-16 521.53,-16"/>
<polygon fill="#63b8ff" stroke="#63b8ff" points="521.5,-19.5 531.5,-16 521.5,-12.5 521.5,-19.5"/>
</a>
</g>
</g>
</g>
</svg>
