<?xml version="1.0" encoding="UTF-8" standalone="no"?>
<!DOCTYPE svg PUBLIC "-//W3C//DTD SVG 1.1//EN"
 "http://www.w3.org/Graphics/SVG/1.1/DTD/svg11.dtd">
<!-- Generated by graphviz version 14.1.1 (20251213.1925)
 -->
<!-- Title: RelayConfig Pages: 1 -->
<svg width="108pt" height="379pt"
 viewBox="0.00 0.00 108.00 379.00" xmlns="http://www.w3.org/2000/svg" xmlns:xlink="http://www.w3.org/1999/xlink">
<g id="graph0" class="graph" transform="scale(1 1) rotate(0) translate(4 375)">
<title>RelayConfig</title>
<!-- Node1 -->
<g id="Node000001" class="node">
<title>Node1</title>
<g id="a_Node000001"><a xlink:title="Configuration for a single relay device.">
<polygon fill="#999999" stroke="none" points="74,-68 12,-68 12,0 74,0 74,-68"/>
<text xml:space="preserve" text-anchor="start" x="16" y="-54.5" font-family="Helvetica,sans-Serif" font-size="10.00">RelayConfig</text>
<text xml:space="preserve" text-anchor="start" x="18.94" y="-38.5" font-family="Helvetica,sans-Serif" font-size="10.00">+</text>
<text xml:space="preserve" text-anchor="start" x="31.88" y="-38.5" font-family="Helvetica,sans-Serif" font-size="10.00">port</text>
<text xml:space="preserve" text-anchor="start" x="18.94" y="-22.5" font-family="Helvetica,sans-Serif" font-size="10.00">+</text>
<text xml:space="preserve" text-anchor="start" x="31.88" y="-22.5" font-family="Helvetica,sans-Serif" font-size="10.00">timeout</text>
<text xml:space="preserve" text-anchor="start" x="41.5" y="-6.5" font-family="Helvetica,sans-Serif" font-size="10.00"> </text>
<polygon fill="#666666" stroke="#666666" points="12,-50 12,-50 74,-50 74,-50 12,-50"/>
<polygon fill="#666666" stroke="#666666" points="12,-18 12,-18 29.88,-18 29.88,-18 12,-18"/>
<polygon fill="#666666" stroke="#666666" points="29.88,-18 29.88,-18 74,-18 74,-18 29.88,-18"/>
<polygon fill="none" stroke="#666666" points="12,0 12,-68 74,-68 74,0 12,0"/>
</a>
</g>
</g>
<!-- Node2 -->
<g id="Node000002" class="node">
<title>Node2</title>
<g id="a_Node000002"><a xlink:title=" ">
<polygon fill="white" stroke="none" points="68.75,-270 17.25,-270 17.25,-218 68.75,-218 68.75,-270"/>
<text xml:space="preserve" text-anchor="start" x="21.25" y="-256.5" font-family="Helvetica,sans-Serif" font-size="10.00">std::string</text>
<text xml:space="preserve" text-anchor="start" x="41.5" y="-240.5" font-family="Helvetica,sans-Serif" font-size="10.00"> </text>
<text xml:space="preserve" text-anchor="start" x="41.5" y="-224.5" font-family="Helvetica,sans-Serif" font-size="10.00"> </text>
<polygon fill="#666666" stroke="#666666" points="17.25,-252 17.25,-252 68.75,-252 68.75,-252 17.25,-252"/>
<polygon fill="#666666" stroke="#666666" points="17.25,-236 17.25,-236 68.75,-236 68.75,-236 17.25,-236"/>
<polygon fill="none" stroke="#666666" points="17.25,-218 17.25,-270 68.75,-270 68.75,-218 17.25,-218"/>
</a>
</g>
</g>
<!-- Node2&#45;&gt;Node1 -->
<g id="edge1_Node000001_Node000002" class="edge">
<title>Node2&#45;&gt;Node1</title>
<g id="a_edge1_Node000001_Node000002"><a xlink:title=" ">
<path fill="none" stroke="#63b8ff" d="M43,-218.32C43,-184.53 43,-123.23 43,-80.88"/>
<polygon fill="none" stroke="#63b8ff" points="43,-80.75 39,-74.75 43,-68.75 47,-74.75 43,-80.75"/>
</a>
</g>
<text xml:space="preserve" text-anchor="start" x="46" y="-187.5" font-family="Helvetica,sans-Serif" font-size="10.00" fill="grey">+bay</text>
<text xml:space="preserve" text-anchor="start" x="46" y="-171.5" font-family="Helvetica,sans-Serif" font-size="10.00" fill="grey">+host</text>
<text xml:space="preserve" text-anchor="start" x="46" y="-155.5" font-family="Helvetica,sans-Serif" font-size="10.00" fill="grey">+id</text>
<text xml:space="preserve" text-anchor="start" x="46" y="-139.5" font-family="Helvetica,sans-Serif" font-size="10.00" fill="grey">+name</text>
<text xml:space="preserve" text-anchor="start" x="46" y="-123.5" font-family="Helvetica,sans-Serif" font-size="10.00" fill="grey">+password</text>
<text xml:space="preserve" text-anchor="start" x="46" y="-107.5" font-family="Helvetica,sans-Serif" font-size="10.00" fill="grey">+substation</text>
<text xml:space="preserve" text-anchor="start" x="46" y="-91.5" font-family="Helvetica,sans-Serif" font-size="10.00" fill="grey">+username</text>
</g>
<!-- Node3 -->
<g id="Node000003" class="node">
<title>Node3</title>
<g id="a_Node000003"><a xlink:title=" ">
<polygon fill="white" stroke="none" points="86,-371 0,-371 0,-307 86,-307 86,-371"/>
<text xml:space="preserve" text-anchor="start" x="4" y="-357.5" font-family="Helvetica,sans-Serif" font-size="10.00">std::basic_string&lt;</text>
<text xml:space="preserve" text-anchor="start" x="26.5" y="-345.5" font-family="Helvetica,sans-Serif" font-size="10.00"> Char &gt;</text>
<text xml:space="preserve" text-anchor="start" x="41.5" y="-329.5" font-family="Helvetica,sans-Serif" font-size="10.00"> </text>
<text xml:space="preserve" text-anchor="start" x="41.5" y="-313.5" font-family="Helvetica,sans-Serif" font-size="10.00"> </text>
<polygon fill="#666666" stroke="#666666" points="0,-341 0,-341 86,-341 86,-341 0,-341"/>
<polygon fill="#666666" stroke="#666666" points="0,-325 0,-325 86,-325 86,-325 0,-325"/>
<polygon fill="none" stroke="#666666" points="0,-307 0,-371 86,-371 86,-307 0,-307"/>
</a>
</g>
</g>
<!-- Node3&#45;&gt;Node2 -->
<g id="edge2_Node000002_Node000003" class="edge">
<title>Node3&#45;&gt;Node2</title>
<g id="a_edge2_Node000002_Node000003"><a xlink:title=" ">
<path fill="none" stroke="#63b8ff" d="M43,-295.69C43,-286.89 43,-277.89 43,-269.96"/>
<polygon fill="none" stroke="#63b8ff" points="39.5,-295.52 43,-305.52 46.5,-295.52 39.5,-295.52"/>
</a>
</g>
</g>
</g>
</svg>
