<?xml version="1.0" encoding="UTF-8" standalone="no"?>
<!DOCTYPE svg PUBLIC "-//W3C//DTD SVG 1.1//EN"
 "http://www.w3.org/Graphics/SVG/1.1/DTD/svg11.dtd">
<!-- Generated by graphviz version 14.1.1 (20251213.1925)
 -->
<!-- Title: CmdEveAction::operator() Pages: 1 -->
<svg width="692pt" height="72pt"
 viewBox="0.00 0.00 692.00 72.00" xmlns="http://www.w3.org/2000/svg" xmlns:xlink="http://www.w3.org/1999/xlink">
<g id="graph0" class="graph" transform="scale(1 1) rotate(0) translate(4 68)">
<title>CmdEveAction::operator()</title>
<!-- Node1 -->
<g id="Node000001" class="node">
<title>Node1</title>
<g id="a_Node000001"><a xlink:title=" ">
<polygon fill="#999999" stroke="#666666" points="129.25,-45 0,-45 0,-25 129.25,-25 129.25,-45"/>
<text xml:space="preserve" text-anchor="middle" x="64.62" y="-31.5" font-family="Helvetica,sans-Serif" font-size="10.00">CmdEveAction::operator()</text>
</a>
</g>
</g>
<!-- Node2 -->
<g id="Node000002" class="node">
<title>Node2</title>
<g id="a_Node000002"><a xlink:href="class_telnet_client.html#a1cfe617f16e1055bdbe2577caaadce4e" target="_top" xlink:title="Clear the last response buffer.">
<polygon fill="white" stroke="#666666" points="331.25,-64 173.5,-64 173.5,-44 331.25,-44 331.25,-64"/>
<text xml:space="preserve" text-anchor="middle" x="252.38" y="-50.5" font-family="Helvetica,sans-Serif" font-size="10.00">TelnetClient::clearLastResponse</text>
</a>
</g>
</g>
<!-- Node1&#45;&gt;Node2 -->
<g id="edge1_Node000001_Node000002" class="edge">
<title>Node1&#45;&gt;Node2</title>
<g id="a_edge1_Node000001_Node000002"><a xlink:title=" ">
<path fill="none" stroke="#63b8ff" d="M129.55,-41.54C139.99,-42.61 150.97,-43.73 161.88,-44.85"/>
<polygon fill="#63b8ff" stroke="#63b8ff" points="161.4,-48.31 171.7,-45.85 162.11,-41.35 161.4,-48.31"/>
</a>
</g>
</g>
<!-- Node3 -->
<g id="Node000003" class="node">
<title>Node3</title>
<g id="a_Node000003"><a xlink:href="class_telnet_client.html#a39aee6a66b79184a3c7fe5072c2f422f" target="_top" xlink:title="Send command and receive response data.">
<polygon fill="white" stroke="#666666" points="339.5,-26 165.25,-26 165.25,-6 339.5,-6 339.5,-26"/>
<text xml:space="preserve" text-anchor="middle" x="252.38" y="-12.5" font-family="Helvetica,sans-Serif" font-size="10.00">TelnetClient::SendCmdReceiveData</text>
</a>
</g>
</g>
<!-- Node1&#45;&gt;Node3 -->
<g id="edge2_Node000001_Node000003" class="edge">
<title>Node1&#45;&gt;Node3</title>
<g id="a_edge2_Node000001_Node000003"><a xlink:title=" ">
<path fill="none" stroke="#63b8ff" d="M129.55,-28.46C137.41,-27.66 145.59,-26.82 153.81,-25.98"/>
<polygon fill="#63b8ff" stroke="#63b8ff" points="153.93,-29.49 163.52,-24.99 153.21,-22.52 153.93,-29.49"/>
</a>
</g>
</g>
<!-- Node4 -->
<g id="Node000004" class="node">
<title>Node4</title>
<g id="a_Node000004"><a xlink:href="class_telnet_client.html#afe6fcd4467c705692d781379926881e0" target="_top" xlink:title="Check if response is complete.">
<polygon fill="white" stroke="#666666" points="501,-32 375.5,-32 375.5,0 501,0 501,-32"/>
<text xml:space="preserve" text-anchor="start" x="383.5" y="-18.5" font-family="Helvetica,sans-Serif" font-size="10.00">TelnetClient::isResponse</text>
<text xml:space="preserve" text-anchor="middle" x="438.25" y="-6.5" font-family="Helvetica,sans-Serif" font-size="10.00">Complete</text>
</a>
</g>
</g>
<!-- Node3&#45;&gt;Node4 -->
<g id="edge3_Node000003_Node000004" class="edge">
<title>Node3&#45;&gt;Node4</title>
<g id="a_edge3_Node000003_Node000004"><a xlink:title=" ">
<path fill="none" stroke="#63b8ff" d="M339.93,-16C347.94,-16 356,-16 363.88,-16"/>
<polygon fill="#63b8ff" stroke="#63b8ff" points="363.74,-19.5 373.74,-16 363.74,-12.5 363.74,-19.5"/>
</a>
</g>
</g>
<!-- Node5 -->
<g id="Node000005" class="node">
<title>Node5</title>
<g id="a_Node000005"><a xlink:href="class_telnet_client.html#a9406bd467aec4aed263851fc076c360b" target="_top" xlink:title="Check if buffer ends with a command prompt.">
<polygon fill="white" stroke="#666666" points="683.5,-26 537,-26 537,-6 683.5,-6 683.5,-26"/>
<text xml:space="preserve" text-anchor="middle" x="610.25" y="-12.5" font-family="Helvetica,sans-Serif" font-size="10.00">TelnetClient::endsWithPrompt</text>
</a>
</g>
</g>
<!-- Node4&#45;&gt;Node5 -->
<g id="edge4_Node000004_Node000005" class="edge">
<title>Node4&#45;&gt;Node5</title>
<g id="a_edge4_Node000004_Node000005"><a xlink:title=" ">
<path fill="none" stroke="#63b8ff" d="M501.1,-16C508.98,-16 517.14,-16 525.28,-16"/>
<polygon fill="#63b8ff" stroke="#63b8ff" points="525.25,-19.5 535.25,-16 525.25,-12.5 525.25,-19.5"/>
</a>
</g>
</g>
</g>
</svg>
