<?xml version="1.0" encoding="UTF-8" standalone="no"?>
<!DOCTYPE svg PUBLIC "-//W3C//DTD SVG 1.1//EN"
 "http://www.w3.org/Graphics/SVG/1.1/DTD/svg11.dtd">
<!-- Generated by graphviz version 14.1.2 (20260124.0452)
 -->
<!-- Title: RelayService::CommandResult Pages: 1 -->
<svg width="154pt" height="283pt"
 viewBox="0.00 0.00 154.00 283.00" xmlns="http://www.w3.org/2000/svg" xmlns:xlink="http://www.w3.org/1999/xlink">
<g id="graph0" class="graph" transform="scale(1 1) rotate(0) translate(4 279)">
<title>RelayService::CommandResult</title>
<!-- Node1 -->
<g id="Node000001" class="node">
<title>Node1</title>
<g id="a_Node000001"><a xlink:title="Result of a generic relay command.">
<polygon fill="#999999" stroke="none" points="146,-52 0,-52 0,0 146,0 146,-52"/>
<text xml:space="preserve" text-anchor="start" x="4" y="-38.5" font-family="Helvetica,sans-Serif" font-size="10.00">RelayService::CommandResult</text>
<text xml:space="preserve" text-anchor="start" x="26.81" y="-22.5" font-family="Helvetica,sans-Serif" font-size="10.00">+</text>
<text xml:space="preserve" text-anchor="start" x="59.62" y="-22.5" font-family="Helvetica,sans-Serif" font-size="10.00">success</text>
<text xml:space="preserve" text-anchor="start" x="71.5" y="-6.5" font-family="Helvetica,sans-Serif" font-size="10.00"> </text>
<polygon fill="#666666" stroke="#666666" points="0,-34 0,-34 146,-34 146,-34 0,-34"/>
<polygon fill="#666666" stroke="#666666" points="0,-18 0,-18 57.62,-18 57.62,-18 0,-18"/>
<polygon fill="#666666" stroke="#666666" points="57.62,-18 57.62,-18 146,-18 146,-18 57.62,-18"/>
<polygon fill="none" stroke="#666666" points="0,0 0,-52 146,-52 146,0 0,0"/>
</a>
</g>
</g>
<!-- Node2 -->
<g id="Node000002" class="node">
<title>Node2</title>
<g id="a_Node000002"><a xlink:title=" ">
<polygon fill="white" stroke="none" points="98.75,-174 47.25,-174 47.25,-122 98.75,-122 98.75,-174"/>
<text xml:space="preserve" text-anchor="start" x="51.25" y="-160.5" font-family="Helvetica,sans-Serif" font-size="10.00">std::string</text>
<text xml:space="preserve" text-anchor="start" x="71.5" y="-144.5" font-family="Helvetica,sans-Serif" font-size="10.00"> </text>
<text xml:space="preserve" text-anchor="start" x="71.5" y="-128.5" font-family="Helvetica,sans-Serif" font-size="10.00"> </text>
<polygon fill="#666666" stroke="#666666" points="47.25,-156 47.25,-156 98.75,-156 98.75,-156 47.25,-156"/>
<polygon fill="#666666" stroke="#666666" points="47.25,-140 47.25,-140 98.75,-140 98.75,-140 47.25,-140"/>
<polygon fill="none" stroke="#666666" points="47.25,-122 47.25,-174 98.75,-174 98.75,-122 47.25,-122"/>
</a>
</g>
</g>
<!-- Node2&#45;&gt;Node1 -->
<g id="edge1_Node000001_Node000002" class="edge">
<title>Node2&#45;&gt;Node1</title>
<g id="a_edge1_Node000001_Node000002"><a xlink:title=" ">
<path fill="none" stroke="#63b8ff" d="M73,-122.14C73,-105.56 73,-83.47 73,-64.74"/>
<polygon fill="none" stroke="#63b8ff" points="73,-64.73 69,-58.73 73,-52.73 77,-58.73 73,-64.73"/>
</a>
</g>
<text xml:space="preserve" text-anchor="start" x="76" y="-91.5" font-family="Helvetica,sans-Serif" font-size="10.00" fill="grey">+error</text>
<text xml:space="preserve" text-anchor="start" x="76" y="-75.5" font-family="Helvetica,sans-Serif" font-size="10.00" fill="grey">+response</text>
</g>
<!-- Node3 -->
<g id="Node000003" class="node">
<title>Node3</title>
<g id="a_Node000003"><a xlink:title=" ">
<polygon fill="white" stroke="none" points="116,-275 30,-275 30,-211 116,-211 116,-275"/>
<text xml:space="preserve" text-anchor="start" x="34" y="-261.5" font-family="Helvetica,sans-Serif" font-size="10.00">std::basic_string&lt;</text>
<text xml:space="preserve" text-anchor="start" x="56.5" y="-249.5" font-family="Helvetica,sans-Serif" font-size="10.00"> Char &gt;</text>
<text xml:space="preserve" text-anchor="start" x="71.5" y="-233.5" font-family="Helvetica,sans-Serif" font-size="10.00"> </text>
<text xml:space="preserve" text-anchor="start" x="71.5" y="-217.5" font-family="Helvetica,sans-Serif" font-size="10.00"> </text>
<polygon fill="#666666" stroke="#666666" points="30,-245 30,-245 116,-245 116,-245 30,-245"/>
<polygon fill="#666666" stroke="#666666" points="30,-229 30,-229 116,-229 116,-229 30,-229"/>
<polygon fill="none" stroke="#666666" points="30,-211 30,-275 116,-275 116,-211 30,-211"/>
</a>
</g>
</g>
<!-- Node3&#45;&gt;Node2 -->
<g id="edge2_Node000002_Node000003" class="edge">
<title>Node3&#45;&gt;Node2</title>
<g id="a_edge2_Node000002_Node000003"><a xlink:title=" ">
<path fill="none" stroke="#63b8ff" d="M73,-199.69C73,-190.89 73,-181.89 73,-173.96"/>
<polygon fill="none" stroke="#63b8ff" points="69.5,-199.52 73,-209.52 76.5,-199.52 69.5,-199.52"/>
</a>
</g>
</g>
</g>
</svg>
