<?xml version="1.0" encoding="UTF-8" standalone="no"?>
<!DOCTYPE svg PUBLIC "-//W3C//DTD SVG 1.1//EN"
 "http://www.w3.org/Graphics/SVG/1.1/DTD/svg11.dtd">
<!-- Generated by graphviz version 14.1.1 (20251213.1925)
 -->
<!-- Title: WebSocketSession::PendingMsg Pages: 1 -->
<svg width="197pt" height="267pt"
 viewBox="0.00 0.00 197.00 267.00" xmlns="http://www.w3.org/2000/svg" xmlns:xlink="http://www.w3.org/1999/xlink">

<svg id="main" version="1.1" xmlns="http://www.w3.org/2000/svg" xmlns:xlink="http://www.w3.org/1999/xlink" xml:space="preserve">

<style type="text/css"><![CDATA[
.node, .edge {opacity: 0.7;}
.node.selected, .edge.selected {opacity: 1;}
.edge:hover path { stroke: red; }
.edge:hover polygon { stroke: red; fill: red; }
]]></style>
<script type="application/ecmascript" xlink:href="svg.min.js"/>
<svg id="graph" class="graph">
<g id="graph0" class="graph" transform="scale(1 1) rotate(0) translate(4 263)">
<title>WebSocketSession::PendingMsg</title>
<!-- Node1 -->
<g id="Node000001" class="node">
<title>Node1</title>
<g id="a_Node000001"><a xlink:title="Pending message: binary payload or text string, with mode flag.">
<polygon fill="#999999" stroke="none" points="169.62,-52 16.12,-52 16.12,0 169.62,0 169.62,-52"/>
<text xml:space="preserve" text-anchor="start" x="20.12" y="-38.5" font-family="Helvetica,sans-Serif" font-size="10.00">WebSocketSession::PendingMsg</text>
<text xml:space="preserve" text-anchor="start" x="49.5" y="-22.5" font-family="Helvetica,sans-Serif" font-size="10.00">+</text>
<text xml:space="preserve" text-anchor="start" x="88.88" y="-22.5" font-family="Helvetica,sans-Serif" font-size="10.00">kind</text>
<text xml:space="preserve" text-anchor="start" x="91.38" y="-6.5" font-family="Helvetica,sans-Serif" font-size="10.00"> </text>
<polygon fill="#666666" stroke="#666666" points="16.12,-34 16.12,-34 169.62,-34 169.62,-34 16.12,-34"/>
<polygon fill="#666666" stroke="#666666" points="16.12,-18 16.12,-18 86.88,-18 86.88,-18 16.12,-18"/>
<polygon fill="#666666" stroke="#666666" points="86.88,-18 86.88,-18 169.62,-18 169.62,-18 86.88,-18"/>
<polygon fill="none" stroke="#666666" points="16.12,0 16.12,-52 169.62,-52 169.62,0 16.12,0"/>
</a>
</g>
</g>
<!-- Node2 -->
<g id="Node000002" class="node">
<title>Node2</title>
<g id="a_Node000002"><a xlink:title=" ">
<polygon fill="white" stroke="none" points="101.75,-158 0,-158 0,-106 101.75,-106 101.75,-158"/>
<text xml:space="preserve" text-anchor="start" x="4" y="-144.5" font-family="Helvetica,sans-Serif" font-size="10.00">std::vector&lt; uint8_t &gt;</text>
<text xml:space="preserve" text-anchor="start" x="15" y="-128.5" font-family="Helvetica,sans-Serif" font-size="10.00">+</text>
<text xml:space="preserve" text-anchor="start" x="36" y="-128.5" font-family="Helvetica,sans-Serif" font-size="10.00">elements</text>
<text xml:space="preserve" text-anchor="start" x="49.38" y="-112.5" font-family="Helvetica,sans-Serif" font-size="10.00"> </text>
<polygon fill="#666666" stroke="#666666" points="0,-140 0,-140 101.75,-140 101.75,-140 0,-140"/>
<polygon fill="#666666" stroke="#666666" points="0,-124 0,-124 34,-124 34,-124 0,-124"/>
<polygon fill="#666666" stroke="#666666" points="34,-124 34,-124 101.75,-124 101.75,-124 34,-124"/>
<polygon fill="none" stroke="#666666" points="0,-106 0,-158 101.75,-158 101.75,-106 0,-106"/>
</a>
</g>
</g>
<!-- Node2&#45;&gt;Node1 -->
<g id="edge1_Node000001_Node000002" class="edge">
<title>Node2&#45;&gt;Node1</title>
<g id="a_edge1_Node000001_Node000002"><a xlink:title=" ">
<path fill="none" stroke="#63b8ff" d="M49.88,-106.14C50.25,-94.74 51.89,-81.28 56.62,-70 57.73,-67.37 59.06,-64.77 60.54,-62.25"/>
<polygon fill="none" stroke="#63b8ff" points="60.51,-62.29 60.62,-55.08 67.32,-52.4 67.21,-59.61 60.51,-62.29"/>
</a>
</g>
<text xml:space="preserve" text-anchor="start" x="59.62" y="-75.5" font-family="Helvetica,sans-Serif" font-size="10.00" fill="grey">+binary_data</text>
</g>
<!-- Node3 -->
<g id="Node000003" class="node">
<title>Node3</title>
<g id="a_Node000003"><a xlink:title=" ">
<polygon fill="white" stroke="none" points="171.62,-158 120.12,-158 120.12,-106 171.62,-106 171.62,-158"/>
<text xml:space="preserve" text-anchor="start" x="124.12" y="-144.5" font-family="Helvetica,sans-Serif" font-size="10.00">std::string</text>
<text xml:space="preserve" text-anchor="start" x="144.38" y="-128.5" font-family="Helvetica,sans-Serif" font-size="10.00"> </text>
<text xml:space="preserve" text-anchor="start" x="144.38" y="-112.5" font-family="Helvetica,sans-Serif" font-size="10.00"> </text>
<polygon fill="#666666" stroke="#666666" points="120.12,-140 120.12,-140 171.62,-140 171.62,-140 120.12,-140"/>
<polygon fill="#666666" stroke="#666666" points="120.12,-124 120.12,-124 171.62,-124 171.62,-124 120.12,-124"/>
<polygon fill="none" stroke="#666666" points="120.12,-106 120.12,-158 171.62,-158 171.62,-106 120.12,-106"/>
</a>
</g>
</g>
<!-- Node3&#45;&gt;Node1 -->
<g id="edge2_Node000001_Node000003" class="edge">
<title>Node3&#45;&gt;Node1</title>
<g id="a_edge2_Node000001_Node000003"><a xlink:title=" ">
<path fill="none" stroke="#63b8ff" d="M135.67,-106.03C130.89,-94.85 124.92,-81.61 118.88,-70 117.65,-67.64 116.34,-65.24 115,-62.83"/>
<polygon fill="none" stroke="#63b8ff" points="115.02,-62.86 108.55,-59.68 109,-52.48 115.47,-55.67 115.02,-62.86"/>
</a>
</g>
<text xml:space="preserve" text-anchor="start" x="129.94" y="-75.5" font-family="Helvetica,sans-Serif" font-size="10.00" fill="grey">+text_data</text>
</g>
<!-- Node4 -->
<g id="Node000004" class="node">
<title>Node4</title>
<g id="a_Node000004"><a xlink:title=" ">
<polygon fill="white" stroke="none" points="188.88,-259 102.88,-259 102.88,-195 188.88,-195 188.88,-259"/>
<text xml:space="preserve" text-anchor="start" x="106.88" y="-245.5" font-family="Helvetica,sans-Serif" font-size="10.00">std::basic_string&lt;</text>
<text xml:space="preserve" text-anchor="start" x="129.38" y="-233.5" font-family="Helvetica,sans-Serif" font-size="10.00"> Char &gt;</text>
<text xml:space="preserve" text-anchor="start" x="144.38" y="-217.5" font-family="Helvetica,sans-Serif" font-size="10.00"> </text>
<text xml:space="preserve" text-anchor="start" x="144.38" y="-201.5" font-family="Helvetica,sans-Serif" font-size="10.00"> </text>
<polygon fill="#666666" stroke="#666666" points="102.88,-229 102.88,-229 188.88,-229 188.88,-229 102.88,-229"/>
<polygon fill="#666666" stroke="#666666" points="102.88,-213 102.88,-213 188.88,-213 188.88,-213 102.88,-213"/>
<polygon fill="none" stroke="#666666" points="102.88,-195 102.88,-259 188.88,-259 188.88,-195 102.88,-195"/>
</a>
</g>
</g>
<!-- Node4&#45;&gt;Node3 -->
<g id="edge3_Node000003_Node000004" class="edge">
<title>Node4&#45;&gt;Node3</title>
<g id="a_edge3_Node000003_Node000004"><a xlink:title=" ">
<path fill="none" stroke="#63b8ff" d="M145.88,-183.69C145.88,-174.89 145.88,-165.89 145.88,-157.96"/>
<polygon fill="none" stroke="#63b8ff" points="142.38,-183.52 145.88,-193.52 149.38,-183.52 142.38,-183.52"/>
</a>
</g>
</g>
</g>
</svg>
</svg>

<style type='text/css'>
<![CDATA[
[data-mouse-over-selected='false'] { opacity: 0.7; }
[data-mouse-over-selected='true']  { opacity: 1.0; }
]]>
</style>
<script type="application/ecmascript"><![CDATA[
document.addEventListener('DOMContentLoaded', (event) => {
  highlightEdges();
  highlightAdjacentNodes();
});
]]></script>
</svg>
