<?xml version="1.0" encoding="UTF-8" standalone="no"?>
<!DOCTYPE svg PUBLIC "-//W3C//DTD SVG 1.1//EN"
 "http://www.w3.org/Graphics/SVG/1.1/DTD/svg11.dtd">
<!-- Generated by graphviz version 14.1.1 (20251213.1925)
 -->
<!-- Title: cmd_set_event Pages: 1 -->
<svg width="94pt" height="267pt"
 viewBox="0.00 0.00 94.00 267.00" xmlns="http://www.w3.org/2000/svg" xmlns:xlink="http://www.w3.org/1999/xlink">

<svg id="main" version="1.1" xmlns="http://www.w3.org/2000/svg" xmlns:xlink="http://www.w3.org/1999/xlink" xml:space="preserve">

<style type="text/css"><![CDATA[
.node, .edge {opacity: 0.7;}
.node.selected, .edge.selected {opacity: 1;}
.edge:hover path { stroke: red; }
.edge:hover polygon { stroke: red; fill: red; }
]]></style>
<script type="application/ecmascript" xlink:href="svg.min.js"/>
<svg id="graph" class="graph">
<g id="graph0" class="graph" transform="scale(1 1) rotate(0) translate(4 263)">
<title>cmd_set_event</title>
<!-- Node1 -->
<g id="Node000001" class="node">
<title>Node1</title>
<g id="a_Node000001"><a xlink:title="Event: User requested a SET (Settings) command.">
<polygon fill="#999999" stroke="none" points="80.38,-52 5.62,-52 5.62,0 80.38,0 80.38,-52"/>
<text xml:space="preserve" text-anchor="start" x="9.62" y="-38.5" font-family="Helvetica,sans-Serif" font-size="10.00">cmd_set_event</text>
<text xml:space="preserve" text-anchor="start" x="41.5" y="-22.5" font-family="Helvetica,sans-Serif" font-size="10.00"> </text>
<text xml:space="preserve" text-anchor="start" x="41.5" y="-6.5" font-family="Helvetica,sans-Serif" font-size="10.00"> </text>
<polygon fill="#666666" stroke="#666666" points="5.62,-34 5.62,-34 80.38,-34 80.38,-34 5.62,-34"/>
<polygon fill="#666666" stroke="#666666" points="5.62,-18 5.62,-18 80.38,-18 80.38,-18 5.62,-18"/>
<polygon fill="none" stroke="#666666" points="5.62,0 5.62,-52 80.38,-52 80.38,0 5.62,0"/>
</a>
</g>
</g>
<!-- Node2 -->
<g id="Node000002" class="node">
<title>Node2</title>
<g id="a_Node000002"><a xlink:title=" ">
<polygon fill="white" stroke="none" points="68.75,-158 17.25,-158 17.25,-106 68.75,-106 68.75,-158"/>
<text xml:space="preserve" text-anchor="start" x="21.25" y="-144.5" font-family="Helvetica,sans-Serif" font-size="10.00">std::string</text>
<text xml:space="preserve" text-anchor="start" x="41.5" y="-128.5" font-family="Helvetica,sans-Serif" font-size="10.00"> </text>
<text xml:space="preserve" text-anchor="start" x="41.5" y="-112.5" font-family="Helvetica,sans-Serif" font-size="10.00"> </text>
<polygon fill="#666666" stroke="#666666" points="17.25,-140 17.25,-140 68.75,-140 68.75,-140 17.25,-140"/>
<polygon fill="#666666" stroke="#666666" points="17.25,-124 17.25,-124 68.75,-124 68.75,-124 17.25,-124"/>
<polygon fill="none" stroke="#666666" points="17.25,-106 17.25,-158 68.75,-158 68.75,-106 17.25,-106"/>
</a>
</g>
</g>
<!-- Node2&#45;&gt;Node1 -->
<g id="edge1_Node000001_Node000002" class="edge">
<title>Node2&#45;&gt;Node1</title>
<g id="a_edge1_Node000001_Node000002"><a xlink:title=" ">
<path fill="none" stroke="#63b8ff" d="M43,-106.09C43,-93.61 43,-78.25 43,-64.39"/>
<polygon fill="none" stroke="#63b8ff" points="43,-64.61 39,-58.61 43,-52.61 47,-58.61 43,-64.61"/>
</a>
</g>
<text xml:space="preserve" text-anchor="start" x="46" y="-75.5" font-family="Helvetica,sans-Serif" font-size="10.00" fill="grey">+args</text>
</g>
<!-- Node3 -->
<g id="Node000003" class="node">
<title>Node3</title>
<g id="a_Node000003"><a xlink:title=" ">
<polygon fill="white" stroke="none" points="86,-259 0,-259 0,-195 86,-195 86,-259"/>
<text xml:space="preserve" text-anchor="start" x="4" y="-245.5" font-family="Helvetica,sans-Serif" font-size="10.00">std::basic_string&lt;</text>
<text xml:space="preserve" text-anchor="start" x="26.5" y="-233.5" font-family="Helvetica,sans-Serif" font-size="10.00"> Char &gt;</text>
<text xml:space="preserve" text-anchor="start" x="41.5" y="-217.5" font-family="Helvetica,sans-Serif" font-size="10.00"> </text>
<text xml:space="preserve" text-anchor="start" x="41.5" y="-201.5" font-family="Helvetica,sans-Serif" font-size="10.00"> </text>
<polygon fill="#666666" stroke="#666666" points="0,-229 0,-229 86,-229 86,-229 0,-229"/>
<polygon fill="#666666" stroke="#666666" points="0,-213 0,-213 86,-213 86,-213 0,-213"/>
<polygon fill="none" stroke="#666666" points="0,-195 0,-259 86,-259 86,-195 0,-195"/>
</a>
</g>
</g>
<!-- Node3&#45;&gt;Node2 -->
<g id="edge2_Node000002_Node000003" class="edge">
<title>Node3&#45;&gt;Node2</title>
<g id="a_edge2_Node000002_Node000003"><a xlink:title=" ">
<path fill="none" stroke="#63b8ff" d="M43,-183.69C43,-174.89 43,-165.89 43,-157.96"/>
<polygon fill="none" stroke="#63b8ff" points="39.5,-183.52 43,-193.52 46.5,-183.52 39.5,-183.52"/>
</a>
</g>
</g>
</g>
</svg>
</svg>

<style type='text/css'>
<![CDATA[
[data-mouse-over-selected='false'] { opacity: 0.7; }
[data-mouse-over-selected='true']  { opacity: 1.0; }
]]>
</style>
<script type="application/ecmascript"><![CDATA[
document.addEventListener('DOMContentLoaded', (event) => {
  highlightEdges();
  highlightAdjacentNodes();
});
]]></script>
</svg>
