<?xml version="1.0" encoding="UTF-8" standalone="no"?>
<!DOCTYPE svg PUBLIC "-//W3C//DTD SVG 1.1//EN"
 "http://www.w3.org/Graphics/SVG/1.1/DTD/svg11.dtd">
<!-- Generated by graphviz version 14.1.2 (20260124.0452)
 -->
<!-- Title: RawDataMessage Pages: 1 -->
<svg width="107pt" height="283pt"
 viewBox="0.00 0.00 107.00 283.00" xmlns="http://www.w3.org/2000/svg" xmlns:xlink="http://www.w3.org/1999/xlink">

<svg id="main" version="1.1" xmlns="http://www.w3.org/2000/svg" xmlns:xlink="http://www.w3.org/1999/xlink" xml:space="preserve">

<style type="text/css"><![CDATA[
.node, .edge {opacity: 0.7;}
.node.selected, .edge.selected {opacity: 1;}
.edge:hover path { stroke: red; }
.edge:hover polygon { stroke: red; fill: red; }
]]></style>
<script type="application/ecmascript" xlink:href="svg.min.js"/>
<svg id="graph" class="graph">
<g id="graph0" class="graph" transform="scale(1 1) rotate(0) translate(4 279)">
<title>RawDataMessage</title>
<!-- Node1 -->
<g id="Node000001" class="node">
<title>Node1</title>
<g id="a_Node000001"><a xlink:title="Container for raw Telnet command/response pair.">
<polygon fill="#999999" stroke="none" points="89,-52 0,-52 0,0 89,0 89,-52"/>
<text xml:space="preserve" text-anchor="start" x="4" y="-38.5" font-family="Helvetica,sans-Serif" font-size="10.00">RawDataMessage</text>
<text xml:space="preserve" text-anchor="start" x="43" y="-22.5" font-family="Helvetica,sans-Serif" font-size="10.00"> </text>
<text xml:space="preserve" text-anchor="start" x="43" y="-6.5" font-family="Helvetica,sans-Serif" font-size="10.00"> </text>
<polygon fill="#666666" stroke="#666666" points="0,-34 0,-34 89,-34 89,-34 0,-34"/>
<polygon fill="#666666" stroke="#666666" points="0,-18 0,-18 89,-18 89,-18 0,-18"/>
<polygon fill="none" stroke="#666666" points="0,0 0,-52 89,-52 89,0 0,0"/>
</a>
</g>
</g>
<!-- Node2 -->
<g id="Node000002" class="node">
<title>Node2</title>
<g id="a_Node000002"><a xlink:title=" ">
<polygon fill="white" stroke="none" points="70.25,-174 18.75,-174 18.75,-122 70.25,-122 70.25,-174"/>
<text xml:space="preserve" text-anchor="start" x="22.75" y="-160.5" font-family="Helvetica,sans-Serif" font-size="10.00">std::string</text>
<text xml:space="preserve" text-anchor="start" x="43" y="-144.5" font-family="Helvetica,sans-Serif" font-size="10.00"> </text>
<text xml:space="preserve" text-anchor="start" x="43" y="-128.5" font-family="Helvetica,sans-Serif" font-size="10.00"> </text>
<polygon fill="#666666" stroke="#666666" points="18.75,-156 18.75,-156 70.25,-156 70.25,-156 18.75,-156"/>
<polygon fill="#666666" stroke="#666666" points="18.75,-140 18.75,-140 70.25,-140 70.25,-140 18.75,-140"/>
<polygon fill="none" stroke="#666666" points="18.75,-122 18.75,-174 70.25,-174 70.25,-122 18.75,-122"/>
</a>
</g>
</g>
<!-- Node2&#45;&gt;Node1 -->
<g id="edge1_Node000001_Node000002" class="edge">
<title>Node2&#45;&gt;Node1</title>
<g id="a_edge1_Node000001_Node000002"><a xlink:title=" ">
<path fill="none" stroke="#63b8ff" d="M44.5,-122.14C44.5,-105.56 44.5,-83.47 44.5,-64.74"/>
<polygon fill="none" stroke="#63b8ff" points="44.5,-64.73 40.5,-58.73 44.5,-52.73 48.5,-58.73 44.5,-64.73"/>
</a>
</g>
<text xml:space="preserve" text-anchor="start" x="47.5" y="-91.5" font-family="Helvetica,sans-Serif" font-size="10.00" fill="grey">+command</text>
<text xml:space="preserve" text-anchor="start" x="47.5" y="-75.5" font-family="Helvetica,sans-Serif" font-size="10.00" fill="grey">+response</text>
</g>
<!-- Node3 -->
<g id="Node000003" class="node">
<title>Node3</title>
<g id="a_Node000003"><a xlink:title=" ">
<polygon fill="white" stroke="none" points="87.5,-275 1.5,-275 1.5,-211 87.5,-211 87.5,-275"/>
<text xml:space="preserve" text-anchor="start" x="5.5" y="-261.5" font-family="Helvetica,sans-Serif" font-size="10.00">std::basic_string&lt;</text>
<text xml:space="preserve" text-anchor="start" x="28" y="-249.5" font-family="Helvetica,sans-Serif" font-size="10.00"> Char &gt;</text>
<text xml:space="preserve" text-anchor="start" x="43" y="-233.5" font-family="Helvetica,sans-Serif" font-size="10.00"> </text>
<text xml:space="preserve" text-anchor="start" x="43" y="-217.5" font-family="Helvetica,sans-Serif" font-size="10.00"> </text>
<polygon fill="#666666" stroke="#666666" points="1.5,-245 1.5,-245 87.5,-245 87.5,-245 1.5,-245"/>
<polygon fill="#666666" stroke="#666666" points="1.5,-229 1.5,-229 87.5,-229 87.5,-229 1.5,-229"/>
<polygon fill="none" stroke="#666666" points="1.5,-211 1.5,-275 87.5,-275 87.5,-211 1.5,-211"/>
</a>
</g>
</g>
<!-- Node3&#45;&gt;Node2 -->
<g id="edge2_Node000002_Node000003" class="edge">
<title>Node3&#45;&gt;Node2</title>
<g id="a_edge2_Node000002_Node000003"><a xlink:title=" ">
<path fill="none" stroke="#63b8ff" d="M44.5,-199.69C44.5,-190.89 44.5,-181.89 44.5,-173.96"/>
<polygon fill="none" stroke="#63b8ff" points="41,-199.52 44.5,-209.52 48,-199.52 41,-199.52"/>
</a>
</g>
</g>
</g>
</svg>
</svg>

<style type='text/css'>
<![CDATA[
[data-mouse-over-selected='false'] { opacity: 0.7; }
[data-mouse-over-selected='true']  { opacity: 1.0; }
]]>
</style>
<script type="application/ecmascript"><![CDATA[
document.addEventListener('DOMContentLoaded', (event) => {
  highlightEdges();
  highlightAdjacentNodes();
});
]]></script>
</svg>
