<?xml version="1.0" encoding="UTF-8" standalone="no"?>
<!DOCTYPE svg PUBLIC "-//W3C//DTD SVG 1.1//EN"
 "http://www.w3.org/Graphics/SVG/1.1/DTD/svg11.dtd">
<!-- Generated by graphviz version 14.1.2 (20260124.0452)
 -->
<!-- Title: telnet_sml_app.hpp Pages: 1 -->
<svg width="154pt" height="84pt"
 viewBox="0.00 0.00 154.00 84.00" xmlns="http://www.w3.org/2000/svg" xmlns:xlink="http://www.w3.org/1999/xlink">
<g id="graph0" class="graph" transform="scale(1 1) rotate(0) translate(4 80)">
<title>telnet_sml_app.hpp</title>
<!-- Node1 -->
<g id="Node000001" class="node">
<title>Node1</title>
<g id="a_Node000001"><a xlink:title="Telnet&#45;SML application facade (public API).">
<polygon fill="#999999" stroke="#666666" points="117,-76 16.25,-76 16.25,-56 117,-56 117,-76"/>
<text xml:space="preserve" text-anchor="middle" x="66.62" y="-62.5" font-family="Helvetica,sans-Serif" font-size="10.00">telnet_sml_app.hpp</text>
</a>
</g>
</g>
<!-- Node2 -->
<g id="Node000002" class="node">
<title>Node2</title>
<g id="a_Node000002"><a xlink:title=" ">
<polygon fill="#e0e0e0" stroke="#999999" points="51.25,-20 0,-20 0,0 51.25,0 51.25,-20"/>
<text xml:space="preserve" text-anchor="middle" x="25.62" y="-6.5" font-family="Helvetica,sans-Serif" font-size="10.00">memory</text>
</a>
</g>
</g>
<!-- Node1&#45;&gt;Node2 -->
<g id="edge1_Node000001_Node000002" class="edge">
<title>Node1&#45;&gt;Node2</title>
<g id="a_edge1_Node000001_Node000002"><a xlink:title=" ">
<path fill="none" stroke="#63b8ff" d="M59.48,-55.59C54.02,-48.39 46.3,-38.23 39.62,-29.43"/>
<polygon fill="#63b8ff" stroke="#63b8ff" points="42.43,-27.35 33.6,-21.5 36.86,-31.58 42.43,-27.35"/>
</a>
</g>
</g>
<!-- Node3 -->
<g id="Node000003" class="node">
<title>Node3</title>
<g id="a_Node000003"><a xlink:href="dll__export_8hpp.html" target="_top" xlink:title="DLL Export/Import Macros for Windows.">
<polygon fill="white" stroke="#666666" points="146,-20 69.25,-20 69.25,0 146,0 146,-20"/>
<text xml:space="preserve" text-anchor="middle" x="107.62" y="-6.5" font-family="Helvetica,sans-Serif" font-size="10.00">dll_export.hpp</text>
</a>
</g>
</g>
<!-- Node1&#45;&gt;Node3 -->
<g id="edge2_Node000001_Node000003" class="edge">
<title>Node1&#45;&gt;Node3</title>
<g id="a_edge2_Node000001_Node000003"><a xlink:title=" ">
<path fill="none" stroke="#63b8ff" d="M73.77,-55.59C79.23,-48.39 86.95,-38.23 93.63,-29.43"/>
<polygon fill="#63b8ff" stroke="#63b8ff" points="96.39,-31.58 99.65,-21.5 90.82,-27.35 96.39,-31.58"/>
</a>
</g>
</g>
</g>
</svg>
