<?xml version="1.0" encoding="UTF-8" standalone="no"?>
<!DOCTYPE svg PUBLIC "-//W3C//DTD SVG 1.1//EN"
 "http://www.w3.org/Graphics/SVG/1.1/DTD/svg11.dtd">
<!-- Generated by graphviz version 14.1.2 (20260124.0452)
 -->
<!-- Title: telnet_sml_app.hpp Pages: 1 -->
<svg width="287pt" height="84pt"
 viewBox="0.00 0.00 287.00 84.00" xmlns="http://www.w3.org/2000/svg" xmlns:xlink="http://www.w3.org/1999/xlink">
<g id="graph0" class="graph" transform="scale(1 1) rotate(0) translate(4 80)">
<title>telnet_sml_app.hpp</title>
<!-- Node1 -->
<g id="Node000001" class="node">
<title>Node1</title>
<g id="a_Node000001"><a xlink:title="Telnet&#45;SML application facade (public API).">
<polygon fill="#999999" stroke="#666666" points="182.62,-76 81.88,-76 81.88,-56 182.62,-56 182.62,-76"/>
<text xml:space="preserve" text-anchor="middle" x="132.25" y="-62.5" font-family="Helvetica,sans-Serif" font-size="10.00">telnet_sml_app.hpp</text>
</a>
</g>
</g>
<!-- Node2 -->
<g id="Node000002" class="node">
<title>Node2</title>
<g id="a_Node000002"><a xlink:href="dll__example_8cpp.html" target="_top" xlink:title="Example Application Using Telnet&#45;SML DLL.">
<polygon fill="white" stroke="#666666" points="86.5,-20 0,-20 0,0 86.5,0 86.5,-20"/>
<text xml:space="preserve" text-anchor="middle" x="43.25" y="-6.5" font-family="Helvetica,sans-Serif" font-size="10.00">dll_example.cpp</text>
</a>
</g>
</g>
<!-- Node1&#45;&gt;Node2 -->
<g id="edge1_Node000001_Node000002" class="edge">
<title>Node1&#45;&gt;Node2</title>
<g id="a_edge1_Node000001_Node000002"><a xlink:title=" ">
<path fill="none" stroke="#63b8ff" d="M107.22,-49.81C91.69,-40.39 72.23,-28.58 58.87,-20.48"/>
<polygon fill="#63b8ff" stroke="#63b8ff" points="105.09,-52.61 115.45,-54.81 108.72,-46.63 105.09,-52.61"/>
</a>
</g>
</g>
<!-- Node3 -->
<g id="Node000003" class="node">
<title>Node3</title>
<g id="a_Node000003"><a xlink:href="main_8cpp.html" target="_top" xlink:title="Main entry point for Telnet&#45;SML Substation Monitoring System.">
<polygon fill="white" stroke="#666666" points="160.12,-20 104.38,-20 104.38,0 160.12,0 160.12,-20"/>
<text xml:space="preserve" text-anchor="middle" x="132.25" y="-6.5" font-family="Helvetica,sans-Serif" font-size="10.00">main.cpp</text>
</a>
</g>
</g>
<!-- Node1&#45;&gt;Node3 -->
<g id="edge2_Node000001_Node000003" class="edge">
<title>Node1&#45;&gt;Node3</title>
<g id="a_edge2_Node000001_Node000003"><a xlink:title=" ">
<path fill="none" stroke="#63b8ff" d="M132.25,-44.13C132.25,-35.9 132.25,-26.85 132.25,-20.3"/>
<polygon fill="#63b8ff" stroke="#63b8ff" points="128.75,-44.08 132.25,-54.08 135.75,-44.08 128.75,-44.08"/>
</a>
</g>
</g>
<!-- Node4 -->
<g id="Node000004" class="node">
<title>Node4</title>
<g id="a_Node000004"><a xlink:href="telnet__sml__app_8cpp.html" target="_top" xlink:title="Telnet SML Application &#45; Main orchestrator implementation.">
<polygon fill="white" stroke="#666666" points="278.62,-20 177.88,-20 177.88,0 278.62,0 278.62,-20"/>
<text xml:space="preserve" text-anchor="middle" x="228.25" y="-6.5" font-family="Helvetica,sans-Serif" font-size="10.00">telnet_sml_app.cpp</text>
</a>
</g>
</g>
<!-- Node1&#45;&gt;Node4 -->
<g id="edge3_Node000001_Node000004" class="edge">
<title>Node1&#45;&gt;Node4</title>
<g id="a_edge3_Node000001_Node000004"><a xlink:title=" ">
<path fill="none" stroke="#63b8ff" d="M158.77,-50.08C175.6,-40.62 196.85,-28.66 211.4,-20.48"/>
<polygon fill="#63b8ff" stroke="#63b8ff" points="157.29,-46.9 150.29,-54.85 160.72,-53 157.29,-46.9"/>
</a>
</g>
</g>
</g>
</svg>
