<?xml version="1.0" encoding="UTF-8" standalone="no"?>
<!DOCTYPE svg PUBLIC "-//W3C//DTD SVG 1.1//EN"
 "http://www.w3.org/Graphics/SVG/1.1/DTD/svg11.dtd">
<!-- Generated by graphviz version 14.1.2 (20260124.0452)
 -->
<!-- Title: hasPrompt Pages: 1 -->
<svg width="254pt" height="78pt"
 viewBox="0.00 0.00 254.00 78.00" xmlns="http://www.w3.org/2000/svg" xmlns:xlink="http://www.w3.org/1999/xlink">
<g id="graph0" class="graph" transform="scale(1 1) rotate(0) translate(4 74)">
<title>hasPrompt</title>
<!-- Node1 -->
<g id="Node000001" class="node">
<title>Node1</title>
<g id="a_Node000001"><a xlink:title="Check if buffer contains a command prompt.">
<polygon fill="#999999" stroke="#666666" points="245.75,-42 182.5,-42 182.5,-22 245.75,-22 245.75,-42"/>
<text xml:space="preserve" text-anchor="middle" x="214.12" y="-28.5" font-family="Helvetica,sans-Serif" font-size="10.00">hasPrompt</text>
</a>
</g>
</g>
<!-- Node2 -->
<g id="Node000002" class="node">
<title>Node2</title>
<g id="a_Node000002"><a xlink:href="struct_login1_complete_guard.html#a09b327fb3ba790784df03f831db1ad6a" target="_top" xlink:title="Evaluate login completion.">
<polygon fill="white" stroke="#666666" points="129.62,-70 16.88,-70 16.88,-38 129.62,-38 129.62,-70"/>
<text xml:space="preserve" text-anchor="start" x="24.88" y="-56.5" font-family="Helvetica,sans-Serif" font-size="10.00">Login1CompleteGuard</text>
<text xml:space="preserve" text-anchor="middle" x="73.25" y="-44.5" font-family="Helvetica,sans-Serif" font-size="10.00">::operator()</text>
</a>
</g>
</g>
<!-- Node1&#45;&gt;Node2 -->
<g id="edge1_Node000001_Node000002" class="edge">
<title>Node1&#45;&gt;Node2</title>
<g id="a_edge1_Node000001_Node000002"><a xlink:title=" ">
<path fill="none" stroke="#63b8ff" d="M171.31,-38.62C158.27,-40.69 143.68,-43 129.86,-45.19"/>
<polygon fill="#63b8ff" stroke="#63b8ff" points="171.48,-42.14 180.81,-37.12 170.38,-35.23 171.48,-42.14"/>
</a>
</g>
</g>
<!-- Node3 -->
<g id="Node000003" class="node">
<title>Node3</title>
<g id="a_Node000003"><a xlink:href="struct_ser_complete_guard.html#a9c929b1959e4c484e43b90c7accea21b" target="_top" xlink:title="Evaluate SER polling completion.">
<polygon fill="white" stroke="#666666" points="146.5,-20 0,-20 0,0 146.5,0 146.5,-20"/>
<text xml:space="preserve" text-anchor="middle" x="73.25" y="-6.5" font-family="Helvetica,sans-Serif" font-size="10.00">SerCompleteGuard::operator()</text>
</a>
</g>
</g>
<!-- Node1&#45;&gt;Node3 -->
<g id="edge2_Node000001_Node000003" class="edge">
<title>Node1&#45;&gt;Node3</title>
<g id="a_edge2_Node000001_Node000003"><a xlink:title=" ">
<path fill="none" stroke="#63b8ff" d="M171.02,-25.33C161.38,-23.8 150.91,-22.14 140.53,-20.5"/>
<polygon fill="#63b8ff" stroke="#63b8ff" points="170.38,-28.77 180.81,-26.88 171.48,-21.86 170.38,-28.77"/>
</a>
</g>
</g>
</g>
</svg>
