<?xml version="1.0" encoding="UTF-8" standalone="no"?>
<!DOCTYPE svg PUBLIC "-//W3C//DTD SVG 1.1//EN"
 "http://www.w3.org/Graphics/SVG/1.1/DTD/svg11.dtd">
<!-- Generated by graphviz version 14.1.2 (20260124.0452)
 -->
<!-- Title: telnet_fsm.hpp Pages: 1 -->
<!--zoomable 208 -->

<svg id="main" version="1.1" xmlns="http://www.w3.org/2000/svg" xmlns:xlink="http://www.w3.org/1999/xlink" xml:space="preserve" onload="init(evt)">

<style type="text/css"><![CDATA[
.node, .edge {opacity: 0.7;}
.node.selected, .edge.selected {opacity: 1;}
.edge:hover path { stroke: red; }
.edge:hover polygon { stroke: red; fill: red; }
]]></style>

<defs>
  <circle id="rim" cx="0" cy="0" r="7"/>
  <circle id="rim2" cx="0" cy="0" r="3.5"/>
  <g id="zoomPlus">
    <use xlink:href="#rim" fill="#404040"><set attributeName="fill" to="#808080" begin="zoomplus.mouseover" end="zoomplus.mouseout"/></use>
    <path d="M-4,0h8M0,-4v8" fill="none" stroke="white" stroke-width="1.5" pointer-events="none"/>
  </g>
  <g id="zoomMin">
    <use xlink:href="#rim" fill="#404040"><set attributeName="fill" to="#808080" begin="zoomminus.mouseover" end="zoomminus.mouseout"/></use>
    <path d="M-4,0h8" fill="none" stroke="white" stroke-width="1.5" pointer-events="none"/>
  </g>
  <g id="arrowUp" transform="translate(30 24)">
    <use xlink:href="#rim"/>
    <path pointer-events="none" fill="none" stroke="white" stroke-width="1.5" d="M0,-3.0v7 M-2.5,-0.5L0,-3.0L2.5,-0.5"/>
  </g>
  <g id="arrowRight" transform="rotate(90) translate(36 -43)">
    <use xlink:href="#rim"/>
    <path pointer-events="none" fill="none" stroke="white" stroke-width="1.5" d="M0,-3.0v7 M-2.5,-0.5L0,-3.0L2.5,-0.5"/>
  </g>
  <g id="arrowDown" transform="rotate(180) translate(-30 -48)">
    <use xlink:href="#rim"/>
    <path pointer-events="none" fill="none" stroke="white" stroke-width="1.5" d="M0,-3.0v7 M-2.5,-0.5L0,-3.0L2.5,-0.5"/>
  </g>
  <g id="arrowLeft" transform="rotate(270) translate(-36 17)">
    <use xlink:href="#rim"/>
    <path pointer-events="none" fill="none" stroke="white" stroke-width="1.5" d="M0,-3.0v7 M-2.5,-0.5L0,-3.0L2.5,-0.5"/>
  </g>
  <g id="resetDef">
    <use xlink:href="#rim2" fill="#404040"><set attributeName="fill" to="#808080" begin="reset.mouseover" end="reset.mouseout"/></use>
  </g>
</defs>
<script type="application/ecmascript">
var viewWidth = 928;
var viewHeight = 208;
var sectionId = 'dynsection-0';
</script>
<script type="application/ecmascript" xlink:href="svg.min.js"/>
<svg id="graph" class="graph">
<g id="viewport">
<title>telnet_fsm.hpp</title>
<!-- Node1 -->
<g id="Node000001" class="node">
<title>Node1</title>
<g id="a_Node000001"><a xlink:title="Boost.SML Finite State Machine for Telnet Communication.">
<polygon fill="#999999" stroke="#666666" points="369,-200 288.5,-200 288.5,-180 369,-180 369,-200"/>
<text xml:space="preserve" text-anchor="middle" x="328.75" y="-186.5" font-family="Helvetica,sans-Serif" font-size="10.00">telnet_fsm.hpp</text>
</a>
</g>
</g>
<!-- Node2 -->
<g id="Node000002" class="node">
<title>Node2</title>
<g id="a_Node000002"><a xlink:title=" ">
<polygon fill="#e0e0e0" stroke="#999999" points="77.5,-138 0,-138 0,-118 77.5,-118 77.5,-138"/>
<text xml:space="preserve" text-anchor="middle" x="38.75" y="-124.5" font-family="Helvetica,sans-Serif" font-size="10.00">boost/sml.hpp</text>
</a>
</g>
</g>
<!-- Node1&#45;&gt;Node2 -->
<g id="edge1_Node000001_Node000002" class="edge">
<title>Node1&#45;&gt;Node2</title>
<g id="a_edge1_Node000001_Node000002"><a xlink:title=" ">
<path fill="none" stroke="#63b8ff" d="M288.18,-182.97C239.86,-175.44 156.84,-161.4 86.75,-144 83.83,-143.28 80.83,-142.47 77.82,-141.63"/>
<polygon fill="#63b8ff" stroke="#63b8ff" points="79.05,-138.34 68.47,-138.88 77.07,-145.06 79.05,-138.34"/>
</a>
</g>
</g>
<!-- Node3 -->
<g id="Node000003" class="node">
<title>Node3</title>
<g id="a_Node000003"><a xlink:title=" ">
<polygon fill="#e0e0e0" stroke="#999999" points="149.5,-138 96,-138 96,-118 149.5,-118 149.5,-138"/>
<text xml:space="preserve" text-anchor="middle" x="122.75" y="-124.5" font-family="Helvetica,sans-Serif" font-size="10.00">iostream</text>
</a>
</g>
</g>
<!-- Node1&#45;&gt;Node3 -->
<g id="edge2_Node000001_Node000003" class="edge">
<title>Node1&#45;&gt;Node3</title>
<g id="a_edge2_Node000001_Node000003"><a xlink:title=" ">
<path fill="none" stroke="#63b8ff" d="M290.47,-179.54C256.86,-171 206.75,-157.7 163.75,-144 161.91,-143.41 160.04,-142.8 158.15,-142.16"/>
<polygon fill="#63b8ff" stroke="#63b8ff" points="159.37,-138.88 148.78,-138.88 157.06,-145.49 159.37,-138.88"/>
</a>
</g>
</g>
<!-- Node4 -->
<g id="Node000004" class="node">
<title>Node4</title>
<g id="a_Node000004"><a xlink:title=" ">
<polygon fill="#e0e0e0" stroke="#999999" points="517.75,-20 477.75,-20 477.75,0 517.75,0 517.75,-20"/>
<text xml:space="preserve" text-anchor="middle" x="497.75" y="-6.5" font-family="Helvetica,sans-Serif" font-size="10.00">string</text>
</a>
</g>
</g>
<!-- Node1&#45;&gt;Node4 -->
<g id="edge3_Node000001_Node000004" class="edge">
<title>Node1&#45;&gt;Node4</title>
<g id="a_edge3_Node000001_Node000004"><a xlink:title=" ">
<path fill="none" stroke="#63b8ff" d="M332.45,-179.78C342.22,-156.4 370.83,-93.93 411.75,-56 427.64,-41.27 449.26,-29.99 466.85,-22.4"/>
<polygon fill="#63b8ff" stroke="#63b8ff" points="468.13,-25.66 476.06,-18.63 465.48,-19.18 468.13,-25.66"/>
</a>
</g>
</g>
<!-- Node5 -->
<g id="Node000005" class="node">
<title>Node5</title>
<g id="a_Node000005"><a xlink:title=" ">
<polygon fill="#e0e0e0" stroke="#999999" points="151.38,-76 106.12,-76 106.12,-56 151.38,-56 151.38,-76"/>
<text xml:space="preserve" text-anchor="middle" x="128.75" y="-62.5" font-family="Helvetica,sans-Serif" font-size="10.00">chrono</text>
</a>
</g>
</g>
<!-- Node1&#45;&gt;Node5 -->
<g id="edge4_Node000001_Node000005" class="edge">
<title>Node1&#45;&gt;Node5</title>
<g id="a_edge4_Node000001_Node000005"><a xlink:title=" ">
<path fill="none" stroke="#63b8ff" d="M288.19,-180.94C260.74,-174.16 224.55,-162.53 196.75,-144 173.43,-128.45 153.11,-102.98 140.9,-85.62"/>
<polygon fill="#63b8ff" stroke="#63b8ff" points="144.06,-84.03 135.54,-77.73 138.27,-87.97 144.06,-84.03"/>
</a>
</g>
</g>
<!-- Node6 -->
<g id="Node000006" class="node">
<title>Node6</title>
<g id="a_Node000006"><a xlink:title=" ">
<polygon fill="#e0e0e0" stroke="#999999" points="325.25,-138 282.25,-138 282.25,-118 325.25,-118 325.25,-138"/>
<text xml:space="preserve" text-anchor="middle" x="303.75" y="-124.5" font-family="Helvetica,sans-Serif" font-size="10.00">thread</text>
</a>
</g>
</g>
<!-- Node1&#45;&gt;Node6 -->
<g id="edge5_Node000001_Node000006" class="edge">
<title>Node1&#45;&gt;Node6</title>
<g id="a_edge5_Node000001_Node000006"><a xlink:title=" ">
<path fill="none" stroke="#63b8ff" d="M324.84,-179.62C321.41,-171.39 316.3,-159.13 311.97,-148.74"/>
<polygon fill="#63b8ff" stroke="#63b8ff" points="315.21,-147.39 308.13,-139.51 308.74,-150.09 315.21,-147.39"/>
</a>
</g>
</g>
<!-- Node7 -->
<g id="Node000007" class="node">
<title>Node7</title>
<g id="a_Node000007"><a xlink:href="client_8hpp.html" target="_top" xlink:title="Telnet Client for Substation Communication.">
<polygon fill="white" stroke="#666666" points="263.75,-138 205.75,-138 205.75,-118 263.75,-118 263.75,-138"/>
<text xml:space="preserve" text-anchor="middle" x="234.75" y="-124.5" font-family="Helvetica,sans-Serif" font-size="10.00">client.hpp</text>
</a>
</g>
</g>
<!-- Node1&#45;&gt;Node7 -->
<g id="edge6_Node000001_Node000007" class="edge">
<title>Node1&#45;&gt;Node7</title>
<g id="a_edge6_Node000001_Node000007"><a xlink:title=" ">
<path fill="none" stroke="#63b8ff" d="M314.06,-179.62C299.3,-170.2 276.3,-155.52 258.86,-144.39"/>
<polygon fill="#63b8ff" stroke="#63b8ff" points="260.92,-141.55 250.61,-139.12 257.16,-147.45 260.92,-141.55"/>
</a>
</g>
</g>
<!-- Node10 -->
<g id="Node000010" class="node">
<title>Node10</title>
<g id="a_Node000010"><a xlink:href="ser__record_8hpp.html" target="_top" xlink:title="System Event Record (SER) data structure and parser.">
<polygon fill="white" stroke="#666666" points="714,-76 633.5,-76 633.5,-56 714,-56 714,-76"/>
<text xml:space="preserve" text-anchor="middle" x="673.75" y="-62.5" font-family="Helvetica,sans-Serif" font-size="10.00">ser_record.hpp</text>
</a>
</g>
</g>
<!-- Node1&#45;&gt;Node10 -->
<g id="edge11_Node000001_Node000010" class="edge">
<title>Node1&#45;&gt;Node10</title>
<g id="a_edge11_Node000001_Node000010"><a xlink:title=" ">
<path fill="none" stroke="#63b8ff" d="M369.47,-185.46C415.57,-180.41 492.25,-168.84 553.75,-144 591.71,-128.67 630.7,-101.01 653.55,-83.35"/>
<polygon fill="#63b8ff" stroke="#63b8ff" points="655.42,-86.33 661.12,-77.4 651.1,-80.83 655.42,-86.33"/>
</a>
</g>
</g>
<!-- Node15 -->
<g id="Node000015" class="node">
<title>Node15</title>
<g id="a_Node000015"><a xlink:href="ser__database_8hpp.html" target="_top" xlink:title="SQLite database handler for SER records.">
<polygon fill="white" stroke="#666666" points="544.38,-138 451.12,-138 451.12,-118 544.38,-118 544.38,-138"/>
<text xml:space="preserve" text-anchor="middle" x="497.75" y="-124.5" font-family="Helvetica,sans-Serif" font-size="10.00">ser_database.hpp</text>
</a>
</g>
</g>
<!-- Node1&#45;&gt;Node15 -->
<g id="edge18_Node000001_Node000015" class="edge">
<title>Node1&#45;&gt;Node15</title>
<g id="a_edge18_Node000001_Node000015"><a xlink:title=" ">
<path fill="none" stroke="#63b8ff" d="M355.16,-179.62C383.47,-169.57 428.66,-153.53 460.57,-142.2"/>
<polygon fill="#63b8ff" stroke="#63b8ff" points="461.57,-145.56 469.82,-138.91 459.23,-138.96 461.57,-145.56"/>
</a>
</g>
</g>
<!-- Node18 -->
<g id="Node000018" class="node">
<title>Node18</title>
<g id="a_Node000018"><a xlink:href="asn__tlv__codec_8hpp.html" target="_top" xlink:title="ASN.1 BER/TLV codec for SER record payloads.">
<polygon fill="white" stroke="#666666" points="722.62,-138 624.88,-138 624.88,-118 722.62,-118 722.62,-138"/>
<text xml:space="preserve" text-anchor="middle" x="673.75" y="-124.5" font-family="Helvetica,sans-Serif" font-size="10.00">asn_tlv_codec.hpp</text>
</a>
</g>
</g>
<!-- Node1&#45;&gt;Node18 -->
<g id="edge25_Node000001_Node000018" class="edge">
<title>Node1&#45;&gt;Node18</title>
<g id="a_edge25_Node000001_Node000018"><a xlink:title=" ">
<path fill="none" stroke="#63b8ff" d="M369.08,-182.7C421.91,-174.34 517.42,-158.91 598.75,-144 604.63,-142.92 610.76,-141.76 616.87,-140.58"/>
<polygon fill="#63b8ff" stroke="#63b8ff" points="617.16,-144.09 626.3,-138.73 615.81,-137.22 617.16,-144.09"/>
</a>
</g>
</g>
<!-- Node21 -->
<g id="Node000021" class="node">
<title>Node21</title>
<g id="a_Node000021"><a xlink:title=" ">
<polygon fill="#e0e0e0" stroke="#999999" points="858.75,-144 740.75,-144 740.75,-112 858.75,-112 858.75,-144"/>
<text xml:space="preserve" text-anchor="start" x="748.75" y="-130.5" font-family="Helvetica,sans-Serif" font-size="10.00">shared_memory/shared</text>
<text xml:space="preserve" text-anchor="middle" x="799.75" y="-118.5" font-family="Helvetica,sans-Serif" font-size="10.00">_ring_buffer.hpp</text>
</a>
</g>
</g>
<!-- Node1&#45;&gt;Node21 -->
<g id="edge31_Node000001_Node000021" class="edge">
<title>Node1&#45;&gt;Node21</title>
<g id="a_edge31_Node000001_Node000021"><a xlink:title=" ">
<path fill="none" stroke="#63b8ff" d="M369.27,-185.9C440.21,-180.18 591.7,-166.57 729.33,-144.29"/>
<polygon fill="#63b8ff" stroke="#63b8ff" points="729.69,-147.78 738.99,-142.71 728.56,-140.87 729.69,-147.78"/>
</a>
</g>
</g>
<!-- Node7&#45;&gt;Node4 -->
<g id="edge9_Node000007_Node000004" class="edge">
<title>Node7&#45;&gt;Node4</title>
<g id="a_edge9_Node000007_Node000004"><a xlink:title=" ">
<path fill="none" stroke="#63b8ff" d="M245.98,-117.61C264.45,-102.62 302.85,-73.19 339.75,-56 381.54,-36.53 433.55,-23.71 466.21,-16.9"/>
<polygon fill="#63b8ff" stroke="#63b8ff" points="466.72,-20.37 475.83,-14.96 465.34,-13.5 466.72,-20.37"/>
</a>
</g>
</g>
<!-- Node7&#45;&gt;Node5 -->
<g id="edge10_Node000007_Node000005" class="edge">
<title>Node7&#45;&gt;Node5</title>
<g id="a_edge10_Node000007_Node000005"><a xlink:title=" ">
<path fill="none" stroke="#63b8ff" d="M218.19,-117.62C201.31,-108.07 174.87,-93.11 155.11,-81.92"/>
<polygon fill="#63b8ff" stroke="#63b8ff" points="156.94,-78.93 146.51,-77.05 153.49,-85.03 156.94,-78.93"/>
</a>
</g>
</g>
<!-- Node8 -->
<g id="Node000008" class="node">
<title>Node8</title>
<g id="a_Node000008"><a xlink:href="dll__export_8hpp.html" target="_top" xlink:title="DLL Export/Import Macros for Windows.">
<polygon fill="white" stroke="#666666" points="430.12,-20 353.38,-20 353.38,0 430.12,0 430.12,-20"/>
<text xml:space="preserve" text-anchor="middle" x="391.75" y="-6.5" font-family="Helvetica,sans-Serif" font-size="10.00">dll_export.hpp</text>
</a>
</g>
</g>
<!-- Node7&#45;&gt;Node8 -->
<g id="edge7_Node000007_Node000008" class="edge">
<title>Node7&#45;&gt;Node8</title>
<g id="a_edge7_Node000007_Node000008"><a xlink:title=" ">
<path fill="none" stroke="#63b8ff" d="M223.55,-117.57C207.91,-103.28 183.11,-75.7 198.75,-56 216.3,-33.89 290.64,-21.64 341.77,-15.69"/>
<polygon fill="#63b8ff" stroke="#63b8ff" points="341.88,-19.2 351.43,-14.61 341.1,-12.24 341.88,-19.2"/>
</a>
</g>
</g>
<!-- Node9 -->
<g id="Node000009" class="node">
<title>Node9</title>
<g id="a_Node000009"><a xlink:title=" ">
<polygon fill="#e0e0e0" stroke="#999999" points="287.62,-76 207.88,-76 207.88,-56 287.62,-56 287.62,-76"/>
<text xml:space="preserve" text-anchor="middle" x="247.75" y="-62.5" font-family="Helvetica,sans-Serif" font-size="10.00">boost/asio.hpp</text>
</a>
</g>
</g>
<!-- Node7&#45;&gt;Node9 -->
<g id="edge8_Node000007_Node000009" class="edge">
<title>Node7&#45;&gt;Node9</title>
<g id="a_edge8_Node000007_Node000009"><a xlink:title=" ">
<path fill="none" stroke="#63b8ff" d="M236.78,-117.62C238.55,-109.48 241.17,-97.39 243.4,-87.07"/>
<polygon fill="#63b8ff" stroke="#63b8ff" points="246.76,-88.11 245.46,-77.59 239.92,-86.62 246.76,-88.11"/>
</a>
</g>
</g>
<!-- Node10&#45;&gt;Node4 -->
<g id="edge13_Node000010_Node000004" class="edge">
<title>Node10&#45;&gt;Node4</title>
<g id="a_edge13_Node000010_Node000004"><a xlink:title=" ">
<path fill="none" stroke="#63b8ff" d="M643.09,-55.59C611.02,-45.75 560.96,-30.39 528.76,-20.52"/>
<polygon fill="#63b8ff" stroke="#63b8ff" points="530.21,-17.3 519.62,-17.71 528.16,-23.99 530.21,-17.3"/>
</a>
</g>
</g>
<!-- Node10&#45;&gt;Node8 -->
<g id="edge12_Node000010_Node000008" class="edge">
<title>Node10&#45;&gt;Node8</title>
<g id="a_edge12_Node000010_Node000008"><a xlink:title=" ">
<path fill="none" stroke="#63b8ff" d="M633.05,-57.21C582.35,-47.5 495.79,-30.92 441.3,-20.49"/>
<polygon fill="#63b8ff" stroke="#63b8ff" points="442.15,-17.09 431.67,-18.64 440.83,-23.96 442.15,-17.09"/>
</a>
</g>
</g>
<!-- Node11 -->
<g id="Node000011" class="node">
<title>Node11</title>
<g id="a_Node000011"><a xlink:title=" ">
<polygon fill="#e0e0e0" stroke="#999999" points="809.25,-20 766.25,-20 766.25,0 809.25,0 809.25,-20"/>
<text xml:space="preserve" text-anchor="middle" x="787.75" y="-6.5" font-family="Helvetica,sans-Serif" font-size="10.00">vector</text>
</a>
</g>
</g>
<!-- Node10&#45;&gt;Node11 -->
<g id="edge14_Node000010_Node000011" class="edge">
<title>Node10&#45;&gt;Node11</title>
<g id="a_edge14_Node000010_Node000011"><a xlink:title=" ">
<path fill="none" stroke="#63b8ff" d="M693.61,-55.59C711.24,-47.24 737.26,-34.92 757.48,-25.34"/>
<polygon fill="#63b8ff" stroke="#63b8ff" points="758.83,-28.57 766.37,-21.13 755.83,-22.25 758.83,-28.57"/>
</a>
</g>
</g>
<!-- Node12 -->
<g id="Node000012" class="node">
<title>Node12</title>
<g id="a_Node000012"><a xlink:title=" ">
<polygon fill="#e0e0e0" stroke="#999999" points="674.38,-20 623.12,-20 623.12,0 674.38,0 674.38,-20"/>
<text xml:space="preserve" text-anchor="middle" x="648.75" y="-6.5" font-family="Helvetica,sans-Serif" font-size="10.00">sstream</text>
</a>
</g>
</g>
<!-- Node10&#45;&gt;Node12 -->
<g id="edge15_Node000010_Node000012" class="edge">
<title>Node10&#45;&gt;Node12</title>
<g id="a_edge15_Node000010_Node000012"><a xlink:title=" ">
<path fill="none" stroke="#63b8ff" d="M669.4,-55.59C666.2,-48.7 661.76,-39.1 657.81,-30.57"/>
<polygon fill="#63b8ff" stroke="#63b8ff" points="661.07,-29.28 653.69,-21.67 654.72,-32.22 661.07,-29.28"/>
</a>
</g>
</g>
<!-- Node13 -->
<g id="Node000013" class="node">
<title>Node13</title>
<g id="a_Node000013"><a xlink:title=" ">
<polygon fill="#e0e0e0" stroke="#999999" points="748.62,-20 692.88,-20 692.88,0 748.62,0 748.62,-20"/>
<text xml:space="preserve" text-anchor="middle" x="720.75" y="-6.5" font-family="Helvetica,sans-Serif" font-size="10.00">algorithm</text>
</a>
</g>
</g>
<!-- Node10&#45;&gt;Node13 -->
<g id="edge16_Node000010_Node000013" class="edge">
<title>Node10&#45;&gt;Node13</title>
<g id="a_edge16_Node000010_Node000013"><a xlink:title=" ">
<path fill="none" stroke="#63b8ff" d="M681.94,-55.59C688.34,-48.24 697.43,-37.8 705.2,-28.87"/>
<polygon fill="#63b8ff" stroke="#63b8ff" points="707.74,-31.28 711.66,-21.44 702.46,-26.69 707.74,-31.28"/>
</a>
</g>
</g>
<!-- Node14 -->
<g id="Node000014" class="node">
<title>Node14</title>
<g id="a_Node000014"><a xlink:title=" ">
<polygon fill="#e0e0e0" stroke="#999999" points="605.38,-20 560.12,-20 560.12,0 605.38,0 605.38,-20"/>
<text xml:space="preserve" text-anchor="middle" x="582.75" y="-6.5" font-family="Helvetica,sans-Serif" font-size="10.00">cctype</text>
</a>
</g>
</g>
<!-- Node10&#45;&gt;Node14 -->
<g id="edge17_Node000010_Node000014" class="edge">
<title>Node10&#45;&gt;Node14</title>
<g id="a_edge17_Node000010_Node000014"><a xlink:title=" ">
<path fill="none" stroke="#63b8ff" d="M657.9,-55.59C644.28,-47.51 624.39,-35.71 608.49,-26.27"/>
<polygon fill="#63b8ff" stroke="#63b8ff" points="610.41,-23.35 600.03,-21.25 606.84,-29.37 610.41,-23.35"/>
</a>
</g>
</g>
<!-- Node15&#45;&gt;Node4 -->
<g id="edge20_Node000015_Node000004" class="edge">
<title>Node15&#45;&gt;Node4</title>
<g id="a_edge20_Node000015_Node000004"><a xlink:title=" ">
<path fill="none" stroke="#63b8ff" d="M497.75,-117.51C497.75,-98.81 497.75,-56.82 497.75,-31.51"/>
<polygon fill="#63b8ff" stroke="#63b8ff" points="501.25,-31.81 497.75,-21.81 494.25,-31.81 501.25,-31.81"/>
</a>
</g>
</g>
<!-- Node15&#45;&gt;Node8 -->
<g id="edge19_Node000015_Node000008" class="edge">
<title>Node15&#45;&gt;Node8</title>
<g id="a_edge19_Node000015_Node000008"><a xlink:title=" ">
<path fill="none" stroke="#63b8ff" d="M471.65,-117.53C452.49,-109.32 427.21,-95.64 411.75,-76 401.68,-63.22 396.66,-45.36 394.17,-31.6"/>
<polygon fill="#63b8ff" stroke="#63b8ff" points="397.65,-31.25 392.74,-21.87 390.73,-32.27 397.65,-31.25"/>
</a>
</g>
</g>
<!-- Node15&#45;&gt;Node10 -->
<g id="edge24_Node000015_Node000010" class="edge">
<title>Node15&#45;&gt;Node10</title>
<g id="a_edge24_Node000015_Node000010"><a xlink:title=" ">
<path fill="none" stroke="#63b8ff" d="M525.25,-117.62C554.87,-107.53 602.21,-91.39 635.46,-80.05"/>
<polygon fill="#63b8ff" stroke="#63b8ff" points="636.38,-83.44 644.72,-76.9 634.13,-76.81 636.38,-83.44"/>
</a>
</g>
</g>
<!-- Node15&#45;&gt;Node11 -->
<g id="edge21_Node000015_Node000011" class="edge">
<title>Node15&#45;&gt;Node11</title>
<g id="a_edge21_Node000015_Node000011"><a xlink:title=" ">
<path fill="none" stroke="#63b8ff" d="M544.79,-119.51C601.39,-109.94 692.59,-92.64 722.75,-76 743.84,-64.36 762.66,-43.85 774.55,-28.98"/>
<polygon fill="#63b8ff" stroke="#63b8ff" points="777.08,-31.43 780.4,-21.37 771.53,-27.16 777.08,-31.43"/>
</a>
</g>
</g>
<!-- Node16 -->
<g id="Node000016" class="node">
<title>Node16</title>
<g id="a_Node000016"><a xlink:title=" ">
<polygon fill="#e0e0e0" stroke="#999999" points="469.25,-76 420.25,-76 420.25,-56 469.25,-56 469.25,-76"/>
<text xml:space="preserve" text-anchor="middle" x="444.75" y="-62.5" font-family="Helvetica,sans-Serif" font-size="10.00">fstream</text>
</a>
</g>
</g>
<!-- Node15&#45;&gt;Node16 -->
<g id="edge22_Node000015_Node000016" class="edge">
<title>Node15&#45;&gt;Node16</title>
<g id="a_edge22_Node000015_Node000016"><a xlink:title=" ">
<path fill="none" stroke="#63b8ff" d="M489.47,-117.62C481.64,-108.77 469.71,-95.26 460.14,-84.43"/>
<polygon fill="#63b8ff" stroke="#63b8ff" points="463.05,-82.42 453.8,-77.25 457.8,-87.06 463.05,-82.42"/>
</a>
</g>
</g>
<!-- Node17 -->
<g id="Node000017" class="node">
<title>Node17</title>
<g id="a_Node000017"><a xlink:title=" ">
<polygon fill="#e0e0e0" stroke="#999999" points="578.12,-76 525.38,-76 525.38,-56 578.12,-56 578.12,-76"/>
<text xml:space="preserve" text-anchor="middle" x="551.75" y="-62.5" font-family="Helvetica,sans-Serif" font-size="10.00">sqlite3.h</text>
</a>
</g>
</g>
<!-- Node15&#45;&gt;Node17 -->
<g id="edge23_Node000015_Node000017" class="edge">
<title>Node15&#45;&gt;Node17</title>
<g id="a_edge23_Node000015_Node000017"><a xlink:title=" ">
<path fill="none" stroke="#63b8ff" d="M506.19,-117.62C514.16,-108.77 526.32,-95.26 536.07,-84.43"/>
<polygon fill="#63b8ff" stroke="#63b8ff" points="538.45,-87.01 542.54,-77.24 533.24,-82.33 538.45,-87.01"/>
</a>
</g>
</g>
<!-- Node18&#45;&gt;Node4 -->
<g id="edge28_Node000018_Node000004" class="edge">
<title>Node18&#45;&gt;Node4</title>
<g id="a_edge28_Node000018_Node000004"><a xlink:title=" ">
<path fill="none" stroke="#63b8ff" d="M663.86,-117.72C648.27,-103.37 616.66,-75.44 586.75,-56 568.24,-43.97 546.08,-32.76 528.51,-24.53"/>
<polygon fill="#63b8ff" stroke="#63b8ff" points="530.15,-21.44 519.61,-20.45 527.24,-27.8 530.15,-21.44"/>
</a>
</g>
</g>
<!-- Node18&#45;&gt;Node10 -->
<g id="edge30_Node000018_Node000010" class="edge">
<title>Node18&#45;&gt;Node10</title>
<g id="a_edge30_Node000018_Node000010"><a xlink:title=" ">
<path fill="none" stroke="#63b8ff" d="M673.75,-117.62C673.75,-109.56 673.75,-97.65 673.75,-87.41"/>
<polygon fill="#63b8ff" stroke="#63b8ff" points="677.25,-87.63 673.75,-77.63 670.25,-87.63 677.25,-87.63"/>
</a>
</g>
</g>
<!-- Node18&#45;&gt;Node11 -->
<g id="edge29_Node000018_Node000011" class="edge">
<title>Node18&#45;&gt;Node11</title>
<g id="a_edge29_Node000018_Node000011"><a xlink:title=" ">
<path fill="none" stroke="#63b8ff" d="M708.51,-117.56C750.88,-105.71 817.75,-85.75 824.75,-76 835.85,-60.54 822.11,-41.47 808.33,-28"/>
<polygon fill="#63b8ff" stroke="#63b8ff" points="810.85,-25.56 801.1,-21.43 806.15,-30.74 810.85,-25.56"/>
</a>
</g>
</g>
<!-- Node19 -->
<g id="Node000019" class="node">
<title>Node19</title>
<g id="a_Node000019"><a xlink:title=" ">
<polygon fill="#e0e0e0" stroke="#999999" points="919.88,-76 871.62,-76 871.62,-56 919.88,-56 919.88,-76"/>
<text xml:space="preserve" text-anchor="middle" x="895.75" y="-62.5" font-family="Helvetica,sans-Serif" font-size="10.00">cstddef</text>
</a>
</g>
</g>
<!-- Node18&#45;&gt;Node19 -->
<g id="edge26_Node000018_Node000019" class="edge">
<title>Node18&#45;&gt;Node19</title>
<g id="a_edge26_Node000018_Node000019"><a xlink:title=" ">
<path fill="none" stroke="#63b8ff" d="M708.44,-117.62C749.79,-106.45 818.54,-87.87 860.25,-76.6"/>
<polygon fill="#63b8ff" stroke="#63b8ff" points="861.05,-80 869.79,-74.02 859.22,-73.25 861.05,-80"/>
</a>
</g>
</g>
<!-- Node20 -->
<g id="Node000020" class="node">
<title>Node20</title>
<g id="a_Node000020"><a xlink:title=" ">
<polygon fill="#e0e0e0" stroke="#999999" points="815.38,-76 770.12,-76 770.12,-56 815.38,-56 815.38,-76"/>
<text xml:space="preserve" text-anchor="middle" x="792.75" y="-62.5" font-family="Helvetica,sans-Serif" font-size="10.00">cstdint</text>
</a>
</g>
</g>
<!-- Node18&#45;&gt;Node20 -->
<g id="edge27_Node000018_Node000020" class="edge">
<title>Node18&#45;&gt;Node20</title>
<g id="a_edge27_Node000018_Node000020"><a xlink:title=" ">
<path fill="none" stroke="#63b8ff" d="M692.34,-117.62C711.56,-107.94 741.8,-92.69 764.07,-81.46"/>
<polygon fill="#63b8ff" stroke="#63b8ff" points="765.58,-84.62 772.94,-76.99 762.43,-78.37 765.58,-84.62"/>
</a>
</g>
</g>
</g>
</svg>

<g id="navigator" transform="translate(0 0)" fill="#404254">
  <rect fill="#f2f5e9" fill-opacity="0.5" stroke="#606060" stroke-width=".5" x="0" y="0" width="60" height="60"/>
  <use id="zoomplus" xlink:href="#zoomPlus" x="17" y="9" onmousedown="handleZoom(evt,'in')"/>
  <use id="zoomminus" xlink:href="#zoomMin" x="42" y="9" onmousedown="handleZoom(evt,'out')"/>
  <use id="reset" xlink:href="#resetDef" x="30" y="36" onmousedown="handleReset()"/>
   <use id="arrowup" xlink:href="#arrowUp" x="0" y="0" onmousedown="handlePan(0,-1)"/>
  <use id="arrowright" xlink:href="#arrowRight" x="0" y="0" onmousedown="handlePan(1,0)"/>
  <use id="arrowdown" xlink:href="#arrowDown" x="0" y="0" onmousedown="handlePan(0,1)"/>
  <use id="arrowleft" xlink:href="#arrowLeft" x="0" y="0" onmousedown="handlePan(-1,0)"/>
</g>
<svg viewBox="0 0 15 15" width="100%" height="30px" preserveAspectRatio="xMaxYMin meet">
 <g id="arrow_out" transform="scale(0.3 0.3)">
  <a xlink:href="telnet__fsm_8hpp__incl_org.svg" target="_base">
   <rect id="button" ry="5" rx="5" y="6" x="6" height="38" width="38"
        fill="#f2f5e9" fill-opacity="0.5" stroke="#606060" stroke-width="1.0"/>
   <path id="arrow"
     d="M 11.500037,31.436501 C 11.940474,20.09759 22.043105,11.32322 32.158766,21.979434 L 37.068811,17.246167 C 37.068811,17.246167 37.088388,32 37.088388,32 L 22.160133,31.978069 C 22.160133,31.978069 26.997745,27.140456 26.997745,27.140456 C 18.528582,18.264221 13.291696,25.230495 11.500037,31.436501 z"
     style="fill:#404040;"/>
  </a>
 </g>
</svg>

<style type='text/css'>
<![CDATA[
[data-mouse-over-selected='false'] { opacity: 0.7; }
[data-mouse-over-selected='true']  { opacity: 1.0; }
]]>
</style>
<script type="application/ecmascript"><![CDATA[
document.addEventListener('DOMContentLoaded', (event) => {
  highlightEdges();
  highlightAdjacentNodes();
});
]]></script>
</svg>
