<?xml version="1.0" encoding="UTF-8" standalone="no"?>
<!DOCTYPE svg PUBLIC "-//W3C//DTD SVG 1.1//EN"
 "http://www.w3.org/Graphics/SVG/1.1/DTD/svg11.dtd">
<!-- Generated by graphviz version 14.1.2 (20260124.0452)
 -->
<!-- Title: thread_manager.hpp Pages: 1 -->
<svg width="963pt" height="196pt"
 viewBox="0.00 0.00 963.00 196.00" xmlns="http://www.w3.org/2000/svg" xmlns:xlink="http://www.w3.org/1999/xlink">
<g id="graph0" class="graph" transform="scale(1 1) rotate(0) translate(4 192)">
<title>thread_manager.hpp</title>
<!-- Node1 -->
<g id="Node000001" class="node">
<title>Node1</title>
<g id="a_Node000001"><a xlink:title="Thread management utilities for the Telnet&#45;SML application.">
<polygon fill="#999999" stroke="#666666" points="439.75,-188 335.25,-188 335.25,-168 439.75,-168 439.75,-188"/>
<text xml:space="preserve" text-anchor="middle" x="387.5" y="-174.5" font-family="Helvetica,sans-Serif" font-size="10.00">thread_manager.hpp</text>
</a>
</g>
</g>
<!-- Node2 -->
<g id="Node000002" class="node">
<title>Node2</title>
<g id="a_Node000002"><a xlink:title=" ">
<polygon fill="#e0e0e0" stroke="#999999" points="43,-132 0,-132 0,-112 43,-112 43,-132"/>
<text xml:space="preserve" text-anchor="middle" x="21.5" y="-118.5" font-family="Helvetica,sans-Serif" font-size="10.00">thread</text>
</a>
</g>
</g>
<!-- Node1&#45;&gt;Node2 -->
<g id="edge1_Node000001_Node000002" class="edge">
<title>Node1&#45;&gt;Node2</title>
<g id="a_edge1_Node000001_Node000002"><a xlink:title=" ">
<path fill="none" stroke="#63b8ff" d="M334.97,-172.56C270.73,-166.56 158.6,-154.24 54.38,-132.35"/>
<polygon fill="#63b8ff" stroke="#63b8ff" points="55.34,-128.98 44.83,-130.31 53.88,-135.82 55.34,-128.98"/>
</a>
</g>
</g>
<!-- Node3 -->
<g id="Node000003" class="node">
<title>Node3</title>
<g id="a_Node000003"><a xlink:title=" ">
<polygon fill="#e0e0e0" stroke="#999999" points="104,-132 61,-132 61,-112 104,-112 104,-132"/>
<text xml:space="preserve" text-anchor="middle" x="82.5" y="-118.5" font-family="Helvetica,sans-Serif" font-size="10.00">mutex</text>
</a>
</g>
</g>
<!-- Node1&#45;&gt;Node3 -->
<g id="edge2_Node000001_Node000003" class="edge">
<title>Node1&#45;&gt;Node3</title>
<g id="a_edge2_Node000001_Node000003"><a xlink:title=" ">
<path fill="none" stroke="#63b8ff" d="M334.87,-170.26C281.82,-163.05 197.43,-150.42 115.45,-132.21"/>
<polygon fill="#63b8ff" stroke="#63b8ff" points="116.43,-128.84 105.91,-130.05 114.89,-135.67 116.43,-128.84"/>
</a>
</g>
</g>
<!-- Node4 -->
<g id="Node000004" class="node">
<title>Node4</title>
<g id="a_Node000004"><a xlink:title=" ">
<polygon fill="#e0e0e0" stroke="#999999" points="216.5,-132 122.5,-132 122.5,-112 216.5,-112 216.5,-132"/>
<text xml:space="preserve" text-anchor="middle" x="169.5" y="-118.5" font-family="Helvetica,sans-Serif" font-size="10.00">condition_variable</text>
</a>
</g>
</g>
<!-- Node1&#45;&gt;Node4 -->
<g id="edge3_Node000001_Node000004" class="edge">
<title>Node1&#45;&gt;Node4</title>
<g id="a_edge3_Node000001_Node000004"><a xlink:title=" ">
<path fill="none" stroke="#63b8ff" d="M349.28,-167.53C312.97,-158.54 258.2,-144.97 218.65,-135.18"/>
<polygon fill="#63b8ff" stroke="#63b8ff" points="219.7,-131.83 209.15,-132.82 218.01,-138.62 219.7,-131.83"/>
</a>
</g>
</g>
<!-- Node5 -->
<g id="Node000005" class="node">
<title>Node5</title>
<g id="a_Node000005"><a xlink:title=" ">
<polygon fill="#e0e0e0" stroke="#999999" points="276.62,-132 234.38,-132 234.38,-112 276.62,-112 276.62,-132"/>
<text xml:space="preserve" text-anchor="middle" x="255.5" y="-118.5" font-family="Helvetica,sans-Serif" font-size="10.00">queue</text>
</a>
</g>
</g>
<!-- Node1&#45;&gt;Node5 -->
<g id="edge4_Node000001_Node000005" class="edge">
<title>Node1&#45;&gt;Node5</title>
<g id="a_edge4_Node000001_Node000005"><a xlink:title=" ">
<path fill="none" stroke="#63b8ff" d="M364.51,-167.59C343.21,-158.88 311.33,-145.84 287.54,-136.11"/>
<polygon fill="#63b8ff" stroke="#63b8ff" points="288.9,-132.88 278.32,-132.34 286.25,-139.36 288.9,-132.88"/>
</a>
</g>
</g>
<!-- Node6 -->
<g id="Node000006" class="node">
<title>Node6</title>
<g id="a_Node000006"><a xlink:title=" ">
<polygon fill="#e0e0e0" stroke="#999999" points="340.12,-132 294.88,-132 294.88,-112 340.12,-112 340.12,-132"/>
<text xml:space="preserve" text-anchor="middle" x="317.5" y="-118.5" font-family="Helvetica,sans-Serif" font-size="10.00">atomic</text>
</a>
</g>
</g>
<!-- Node1&#45;&gt;Node6 -->
<g id="edge5_Node000001_Node000006" class="edge">
<title>Node1&#45;&gt;Node6</title>
<g id="a_edge5_Node000001_Node000006"><a xlink:title=" ">
<path fill="none" stroke="#63b8ff" d="M375.31,-167.59C365.17,-159.77 350.51,-148.46 338.49,-139.19"/>
<polygon fill="#63b8ff" stroke="#63b8ff" points="340.81,-136.56 330.75,-133.22 336.53,-142.1 340.81,-136.56"/>
</a>
</g>
</g>
<!-- Node7 -->
<g id="Node000007" class="node">
<title>Node7</title>
<g id="a_Node000007"><a xlink:title=" ">
<polygon fill="#e0e0e0" stroke="#999999" points="416.5,-132 358.5,-132 358.5,-112 416.5,-112 416.5,-132"/>
<text xml:space="preserve" text-anchor="middle" x="387.5" y="-118.5" font-family="Helvetica,sans-Serif" font-size="10.00">functional</text>
</a>
</g>
</g>
<!-- Node1&#45;&gt;Node7 -->
<g id="edge6_Node000001_Node000007" class="edge">
<title>Node1&#45;&gt;Node7</title>
<g id="a_edge6_Node000001_Node000007"><a xlink:title=" ">
<path fill="none" stroke="#63b8ff" d="M387.5,-167.59C387.5,-161.01 387.5,-151.96 387.5,-143.73"/>
<polygon fill="#63b8ff" stroke="#63b8ff" points="391,-143.81 387.5,-133.81 384,-143.81 391,-143.81"/>
</a>
</g>
</g>
<!-- Node8 -->
<g id="Node000008" class="node">
<title>Node8</title>
<g id="a_Node000008"><a xlink:title=" ">
<polygon fill="#e0e0e0" stroke="#999999" points="480.12,-132 434.88,-132 434.88,-112 480.12,-112 480.12,-132"/>
<text xml:space="preserve" text-anchor="middle" x="457.5" y="-118.5" font-family="Helvetica,sans-Serif" font-size="10.00">chrono</text>
</a>
</g>
</g>
<!-- Node1&#45;&gt;Node8 -->
<g id="edge7_Node000001_Node000008" class="edge">
<title>Node1&#45;&gt;Node8</title>
<g id="a_edge7_Node000001_Node000008"><a xlink:title=" ">
<path fill="none" stroke="#63b8ff" d="M399.69,-167.59C409.83,-159.77 424.49,-148.46 436.51,-139.19"/>
<polygon fill="#63b8ff" stroke="#63b8ff" points="438.47,-142.1 444.25,-133.22 434.19,-136.56 438.47,-142.1"/>
</a>
</g>
</g>
<!-- Node9 -->
<g id="Node000009" class="node">
<title>Node9</title>
<g id="a_Node000009"><a xlink:title=" ">
<polygon fill="#e0e0e0" stroke="#999999" points="551.25,-132 497.75,-132 497.75,-112 551.25,-112 551.25,-132"/>
<text xml:space="preserve" text-anchor="middle" x="524.5" y="-118.5" font-family="Helvetica,sans-Serif" font-size="10.00">iostream</text>
</a>
</g>
</g>
<!-- Node1&#45;&gt;Node9 -->
<g id="edge8_Node000001_Node000009" class="edge">
<title>Node1&#45;&gt;Node9</title>
<g id="a_edge8_Node000001_Node000009"><a xlink:title=" ">
<path fill="none" stroke="#63b8ff" d="M411.36,-167.59C433.04,-159.05 465.27,-146.35 489.79,-136.68"/>
<polygon fill="#63b8ff" stroke="#63b8ff" points="491.02,-139.96 499.04,-133.03 488.46,-133.45 491.02,-139.96"/>
</a>
</g>
</g>
<!-- Node10 -->
<g id="Node000010" class="node">
<title>Node10</title>
<g id="a_Node000010"><a xlink:title=" ">
<polygon fill="#e0e0e0" stroke="#999999" points="596,-20 553,-20 553,0 596,0 596,-20"/>
<text xml:space="preserve" text-anchor="middle" x="574.5" y="-6.5" font-family="Helvetica,sans-Serif" font-size="10.00">vector</text>
</a>
</g>
</g>
<!-- Node1&#45;&gt;Node10 -->
<g id="edge9_Node000001_Node000010" class="edge">
<title>Node1&#45;&gt;Node10</title>
<g id="a_edge9_Node000001_Node000010"><a xlink:title=" ">
<path fill="none" stroke="#63b8ff" d="M440.1,-169.92C485.01,-162.74 544.77,-150.09 560.5,-132 584.71,-104.16 582.42,-58.07 578.51,-31.54"/>
<polygon fill="#63b8ff" stroke="#63b8ff" points="581.97,-31 576.83,-21.74 575.07,-32.19 581.97,-31"/>
</a>
</g>
</g>
<!-- Node11 -->
<g id="Node000011" class="node">
<title>Node11</title>
<g id="a_Node000011"><a xlink:href="ser__database_8hpp.html" target="_top" xlink:title="SQLite database handler for SER records.">
<polygon fill="white" stroke="#666666" points="815.12,-132 721.88,-132 721.88,-112 815.12,-112 815.12,-132"/>
<text xml:space="preserve" text-anchor="middle" x="768.5" y="-118.5" font-family="Helvetica,sans-Serif" font-size="10.00">ser_database.hpp</text>
</a>
</g>
</g>
<!-- Node1&#45;&gt;Node11 -->
<g id="edge10_Node000001_Node000011" class="edge">
<title>Node1&#45;&gt;Node11</title>
<g id="a_edge10_Node000001_Node000011"><a xlink:title=" ">
<path fill="none" stroke="#63b8ff" d="M440.08,-169.55C510.9,-159.51 636.54,-141.7 710.19,-131.26"/>
<polygon fill="#63b8ff" stroke="#63b8ff" points="710.64,-134.74 720.05,-129.87 709.66,-127.81 710.64,-134.74"/>
</a>
</g>
</g>
<!-- Node16 -->
<g id="Node000016" class="node">
<title>Node16</title>
<g id="a_Node000016"><a xlink:href="ser__record_8hpp.html" target="_top" xlink:title="System Event Record (SER) data structure and parser.">
<polygon fill="white" stroke="#666666" points="725.75,-76 645.25,-76 645.25,-56 725.75,-56 725.75,-76"/>
<text xml:space="preserve" text-anchor="middle" x="685.5" y="-62.5" font-family="Helvetica,sans-Serif" font-size="10.00">ser_record.hpp</text>
</a>
</g>
</g>
<!-- Node1&#45;&gt;Node16 -->
<g id="edge23_Node000001_Node000016" class="edge">
<title>Node1&#45;&gt;Node16</title>
<g id="a_edge23_Node000001_Node000016"><a xlink:title=" ">
<path fill="none" stroke="#63b8ff" d="M440.08,-171.4C482.82,-165.47 543.92,-153.85 593.5,-132 621.13,-119.82 648.9,-98.69 666.59,-83.83"/>
<polygon fill="#63b8ff" stroke="#63b8ff" points="668.87,-86.49 674.17,-77.31 664.3,-81.18 668.87,-86.49"/>
</a>
</g>
</g>
<!-- Node11&#45;&gt;Node10 -->
<g id="edge13_Node000011_Node000010" class="edge">
<title>Node11&#45;&gt;Node10</title>
<g id="a_edge13_Node000011_Node000010"><a xlink:title=" ">
<path fill="none" stroke="#63b8ff" d="M723.93,-111.51C697.16,-104.47 663.22,-93.08 636.5,-76 617.07,-63.58 599.4,-43.82 587.94,-29.34"/>
<polygon fill="#63b8ff" stroke="#63b8ff" points="590.82,-27.35 581.97,-21.52 585.26,-31.6 590.82,-27.35"/>
</a>
</g>
</g>
<!-- Node12 -->
<g id="Node000012" class="node">
<title>Node12</title>
<g id="a_Node000012"><a xlink:href="dll__export_8hpp.html" target="_top" xlink:title="DLL Export/Import Macros for Windows.">
<polygon fill="white" stroke="#666666" points="896.88,-20 820.12,-20 820.12,0 896.88,0 896.88,-20"/>
<text xml:space="preserve" text-anchor="middle" x="858.5" y="-6.5" font-family="Helvetica,sans-Serif" font-size="10.00">dll_export.hpp</text>
</a>
</g>
</g>
<!-- Node11&#45;&gt;Node12 -->
<g id="edge11_Node000011_Node000012" class="edge">
<title>Node11&#45;&gt;Node12</title>
<g id="a_edge11_Node000011_Node000012"><a xlink:title=" ">
<path fill="none" stroke="#63b8ff" d="M815.47,-112.78C836.66,-106.48 859.75,-95.4 872.5,-76 881.5,-62.3 876.21,-43.79 869.71,-30.03"/>
<polygon fill="#63b8ff" stroke="#63b8ff" points="872.97,-28.72 865.19,-21.53 866.79,-32 872.97,-28.72"/>
</a>
</g>
</g>
<!-- Node13 -->
<g id="Node000013" class="node">
<title>Node13</title>
<g id="a_Node000013"><a xlink:title=" ">
<polygon fill="#e0e0e0" stroke="#999999" points="954.5,-20 914.5,-20 914.5,0 954.5,0 954.5,-20"/>
<text xml:space="preserve" text-anchor="middle" x="934.5" y="-6.5" font-family="Helvetica,sans-Serif" font-size="10.00">string</text>
</a>
</g>
</g>
<!-- Node11&#45;&gt;Node13 -->
<g id="edge12_Node000011_Node000013" class="edge">
<title>Node11&#45;&gt;Node13</title>
<g id="a_edge12_Node000011_Node000013"><a xlink:title=" ">
<path fill="none" stroke="#63b8ff" d="M811.58,-111.54C835.95,-104.64 865.95,-93.39 888.5,-76 904.38,-63.76 917.03,-44.52 925.01,-30.15"/>
<polygon fill="#63b8ff" stroke="#63b8ff" points="927.93,-32.12 929.48,-21.64 921.73,-28.87 927.93,-32.12"/>
</a>
</g>
</g>
<!-- Node14 -->
<g id="Node000014" class="node">
<title>Node14</title>
<g id="a_Node000014"><a xlink:title=" ">
<polygon fill="#e0e0e0" stroke="#999999" points="793,-76 744,-76 744,-56 793,-56 793,-76"/>
<text xml:space="preserve" text-anchor="middle" x="768.5" y="-62.5" font-family="Helvetica,sans-Serif" font-size="10.00">fstream</text>
</a>
</g>
</g>
<!-- Node11&#45;&gt;Node14 -->
<g id="edge14_Node000011_Node000014" class="edge">
<title>Node11&#45;&gt;Node14</title>
<g id="a_edge14_Node000011_Node000014"><a xlink:title=" ">
<path fill="none" stroke="#63b8ff" d="M768.5,-111.59C768.5,-105.01 768.5,-95.96 768.5,-87.73"/>
<polygon fill="#63b8ff" stroke="#63b8ff" points="772,-87.81 768.5,-77.81 765,-87.81 772,-87.81"/>
</a>
</g>
</g>
<!-- Node15 -->
<g id="Node000015" class="node">
<title>Node15</title>
<g id="a_Node000015"><a xlink:title=" ">
<polygon fill="#e0e0e0" stroke="#999999" points="863.88,-76 811.12,-76 811.12,-56 863.88,-56 863.88,-76"/>
<text xml:space="preserve" text-anchor="middle" x="837.5" y="-62.5" font-family="Helvetica,sans-Serif" font-size="10.00">sqlite3.h</text>
</a>
</g>
</g>
<!-- Node11&#45;&gt;Node15 -->
<g id="edge15_Node000011_Node000015" class="edge">
<title>Node11&#45;&gt;Node15</title>
<g id="a_edge15_Node000011_Node000015"><a xlink:title=" ">
<path fill="none" stroke="#63b8ff" d="M780.52,-111.59C790.51,-103.77 804.96,-92.46 816.81,-83.19"/>
<polygon fill="#63b8ff" stroke="#63b8ff" points="818.71,-86.15 824.43,-77.23 814.39,-80.64 818.71,-86.15"/>
</a>
</g>
</g>
<!-- Node11&#45;&gt;Node16 -->
<g id="edge16_Node000011_Node000016" class="edge">
<title>Node11&#45;&gt;Node16</title>
<g id="a_edge16_Node000011_Node000016"><a xlink:title=" ">
<path fill="none" stroke="#63b8ff" d="M754.04,-111.59C741.74,-103.59 723.82,-91.93 709.39,-82.54"/>
<polygon fill="#63b8ff" stroke="#63b8ff" points="711.63,-79.82 701.34,-77.3 707.81,-85.69 711.63,-79.82"/>
</a>
</g>
</g>
<!-- Node16&#45;&gt;Node10 -->
<g id="edge19_Node000016_Node000010" class="edge">
<title>Node16&#45;&gt;Node10</title>
<g id="a_edge19_Node000016_Node000010"><a xlink:title=" ">
<path fill="none" stroke="#63b8ff" d="M666.17,-55.59C649.08,-47.28 623.9,-35.03 604.25,-25.47"/>
<polygon fill="#63b8ff" stroke="#63b8ff" points="605.87,-22.37 595.35,-21.14 602.81,-28.66 605.87,-22.37"/>
</a>
</g>
</g>
<!-- Node16&#45;&gt;Node12 -->
<g id="edge17_Node000016_Node000012" class="edge">
<title>Node16&#45;&gt;Node12</title>
<g id="a_edge17_Node000016_Node000012"><a xlink:title=" ">
<path fill="none" stroke="#63b8ff" d="M715.63,-55.59C743.74,-46.82 785.91,-33.66 817.16,-23.9"/>
<polygon fill="#63b8ff" stroke="#63b8ff" points="818.18,-27.25 826.69,-20.93 816.1,-20.57 818.18,-27.25"/>
</a>
</g>
</g>
<!-- Node16&#45;&gt;Node13 -->
<g id="edge18_Node000016_Node000013" class="edge">
<title>Node16&#45;&gt;Node13</title>
<g id="a_edge18_Node000016_Node000013"><a xlink:title=" ">
<path fill="none" stroke="#63b8ff" d="M725.87,-57.24C775.39,-47.64 857.53,-31.45 903.23,-20.33"/>
<polygon fill="#63b8ff" stroke="#63b8ff" points="903.98,-23.75 912.82,-17.92 902.27,-16.96 903.98,-23.75"/>
</a>
</g>
</g>
<!-- Node17 -->
<g id="Node000017" class="node">
<title>Node17</title>
<g id="a_Node000017"><a xlink:title=" ">
<polygon fill="#e0e0e0" stroke="#999999" points="802.12,-20 750.88,-20 750.88,0 802.12,0 802.12,-20"/>
<text xml:space="preserve" text-anchor="middle" x="776.5" y="-6.5" font-family="Helvetica,sans-Serif" font-size="10.00">sstream</text>
</a>
</g>
</g>
<!-- Node16&#45;&gt;Node17 -->
<g id="edge20_Node000016_Node000017" class="edge">
<title>Node16&#45;&gt;Node17</title>
<g id="a_edge20_Node000016_Node000017"><a xlink:title=" ">
<path fill="none" stroke="#63b8ff" d="M701.35,-55.59C714.97,-47.51 734.86,-35.71 750.76,-26.27"/>
<polygon fill="#63b8ff" stroke="#63b8ff" points="752.41,-29.37 759.22,-21.25 748.84,-23.35 752.41,-29.37"/>
</a>
</g>
</g>
<!-- Node18 -->
<g id="Node000018" class="node">
<title>Node18</title>
<g id="a_Node000018"><a xlink:title=" ">
<polygon fill="#e0e0e0" stroke="#999999" points="669.38,-20 613.62,-20 613.62,0 669.38,0 669.38,-20"/>
<text xml:space="preserve" text-anchor="middle" x="641.5" y="-6.5" font-family="Helvetica,sans-Serif" font-size="10.00">algorithm</text>
</a>
</g>
</g>
<!-- Node16&#45;&gt;Node18 -->
<g id="edge21_Node000016_Node000018" class="edge">
<title>Node16&#45;&gt;Node18</title>
<g id="a_edge21_Node000016_Node000018"><a xlink:title=" ">
<path fill="none" stroke="#63b8ff" d="M677.84,-55.59C671.91,-48.32 663.51,-38.02 656.29,-29.15"/>
<polygon fill="#63b8ff" stroke="#63b8ff" points="659.06,-27.01 650.03,-21.47 653.64,-31.43 659.06,-27.01"/>
</a>
</g>
</g>
<!-- Node19 -->
<g id="Node000019" class="node">
<title>Node19</title>
<g id="a_Node000019"><a xlink:title=" ">
<polygon fill="#e0e0e0" stroke="#999999" points="733.12,-20 687.88,-20 687.88,0 733.12,0 733.12,-20"/>
<text xml:space="preserve" text-anchor="middle" x="710.5" y="-6.5" font-family="Helvetica,sans-Serif" font-size="10.00">cctype</text>
</a>
</g>
</g>
<!-- Node16&#45;&gt;Node19 -->
<g id="edge22_Node000016_Node000019" class="edge">
<title>Node16&#45;&gt;Node19</title>
<g id="a_edge22_Node000016_Node000019"><a xlink:title=" ">
<path fill="none" stroke="#63b8ff" d="M689.85,-55.59C693.05,-48.7 697.49,-39.1 701.44,-30.57"/>
<polygon fill="#63b8ff" stroke="#63b8ff" points="704.53,-32.22 705.56,-21.67 698.18,-29.28 704.53,-32.22"/>
</a>
</g>
</g>
</g>
</svg>
