<?xml version="1.0" encoding="UTF-8" standalone="no"?>
<!DOCTYPE svg PUBLIC "-//W3C//DTD SVG 1.1//EN"
 "http://www.w3.org/Graphics/SVG/1.1/DTD/svg11.dtd">
<!-- Generated by graphviz version 14.1.2 (20260124.0452)
 -->
<!-- Title: time_sync_manager.hpp Pages: 1 -->
<svg width="874pt" height="252pt"
 viewBox="0.00 0.00 874.00 252.00" xmlns="http://www.w3.org/2000/svg" xmlns:xlink="http://www.w3.org/1999/xlink">
<g id="graph0" class="graph" transform="scale(1 1) rotate(0) translate(4 248)">
<title>time_sync_manager.hpp</title>
<!-- Node1 -->
<g id="Node000001" class="node">
<title>Node1</title>
<g id="a_Node000001"><a xlink:title="DATE synchronization manager for relay ↔ local&#45;PC time operations.">
<polygon fill="#999999" stroke="#666666" points="538.5,-244 416,-244 416,-224 538.5,-224 538.5,-244"/>
<text xml:space="preserve" text-anchor="middle" x="477.25" y="-230.5" font-family="Helvetica,sans-Serif" font-size="10.00">time_sync_manager.hpp</text>
</a>
</g>
</g>
<!-- Node2 -->
<g id="Node000002" class="node">
<title>Node2</title>
<g id="a_Node000002"><a xlink:href="dll__export_8hpp.html" target="_top" xlink:title="DLL Export/Import Macros for Windows.">
<polygon fill="white" stroke="#666666" points="149.63,-20 72.88,-20 72.88,0 149.63,0 149.63,-20"/>
<text xml:space="preserve" text-anchor="middle" x="111.25" y="-6.5" font-family="Helvetica,sans-Serif" font-size="10.00">dll_export.hpp</text>
</a>
</g>
</g>
<!-- Node1&#45;&gt;Node2 -->
<g id="edge1_Node000001_Node000002" class="edge">
<title>Node1&#45;&gt;Node2</title>
<g id="a_edge1_Node000001_Node000002"><a xlink:title=" ">
<path fill="none" stroke="#63b8ff" d="M415.69,-228.39C334.18,-221.64 195.24,-207.69 148.25,-188 73.15,-156.53 39.15,-149.09 3.25,-76 -10.94,-47.11 26.83,-29.96 61.53,-20.6"/>
<polygon fill="#63b8ff" stroke="#63b8ff" points="62.3,-24.01 71.15,-18.19 60.6,-17.22 62.3,-24.01"/>
</a>
</g>
</g>
<!-- Node3 -->
<g id="Node000003" class="node">
<title>Node3</title>
<g id="a_Node000003"><a xlink:href="relay__service_8hpp.html" target="_top" xlink:title="Thread&#45;safe relay communication service for DATE operations.">
<polygon fill="white" stroke="#666666" points="523.5,-188 431,-188 431,-168 523.5,-168 523.5,-188"/>
<text xml:space="preserve" text-anchor="middle" x="477.25" y="-174.5" font-family="Helvetica,sans-Serif" font-size="10.00">relay_service.hpp</text>
</a>
</g>
</g>
<!-- Node1&#45;&gt;Node3 -->
<g id="edge2_Node000001_Node000003" class="edge">
<title>Node1&#45;&gt;Node3</title>
<g id="a_edge2_Node000001_Node000003"><a xlink:title=" ">
<path fill="none" stroke="#63b8ff" d="M477.25,-223.59C477.25,-217.01 477.25,-207.96 477.25,-199.73"/>
<polygon fill="#63b8ff" stroke="#63b8ff" points="480.75,-199.81 477.25,-189.81 473.75,-199.81 480.75,-199.81"/>
</a>
</g>
</g>
<!-- Node7 -->
<g id="Node000007" class="node">
<title>Node7</title>
<g id="a_Node000007"><a xlink:title=" ">
<polygon fill="#e0e0e0" stroke="#999999" points="326.25,-20 286.25,-20 286.25,0 326.25,0 326.25,-20"/>
<text xml:space="preserve" text-anchor="middle" x="306.25" y="-6.5" font-family="Helvetica,sans-Serif" font-size="10.00">string</text>
</a>
</g>
</g>
<!-- Node1&#45;&gt;Node7 -->
<g id="edge35_Node000001_Node000007" class="edge">
<title>Node1&#45;&gt;Node7</title>
<g id="a_edge35_Node000001_Node000007"><a xlink:title=" ">
<path fill="none" stroke="#63b8ff" d="M448.82,-223.61C412.07,-209.85 349.25,-180.44 319.25,-132 300.12,-101.11 300.83,-57.13 303.35,-31.58"/>
<polygon fill="#63b8ff" stroke="#63b8ff" points="306.8,-32.2 304.52,-21.86 299.85,-31.37 306.8,-32.2"/>
</a>
</g>
</g>
<!-- Node10 -->
<g id="Node000010" class="node">
<title>Node10</title>
<g id="a_Node000010"><a xlink:title=" ">
<polygon fill="#e0e0e0" stroke="#999999" points="711.88,-20 660.63,-20 660.63,0 711.88,0 711.88,-20"/>
<text xml:space="preserve" text-anchor="middle" x="686.25" y="-6.5" font-family="Helvetica,sans-Serif" font-size="10.00">sstream</text>
</a>
</g>
</g>
<!-- Node1&#45;&gt;Node10 -->
<g id="edge34_Node000001_Node000010" class="edge">
<title>Node1&#45;&gt;Node10</title>
<g id="a_edge34_Node000001_Node000010"><a xlink:title=" ">
<path fill="none" stroke="#63b8ff" d="M538.99,-232.29C609.83,-227.72 722.95,-208.08 775.25,-132 801.81,-93.37 747.19,-49.33 712.3,-26.53"/>
<polygon fill="#63b8ff" stroke="#63b8ff" points="714.24,-23.61 703.92,-21.23 710.5,-29.53 714.24,-23.61"/>
</a>
</g>
</g>
<!-- Node13 -->
<g id="Node000013" class="node">
<title>Node13</title>
<g id="a_Node000013"><a xlink:href="client_8hpp.html" target="_top" xlink:title="Telnet Client for Substation Communication.">
<polygon fill="white" stroke="#666666" points="157.25,-132 99.25,-132 99.25,-112 157.25,-112 157.25,-132"/>
<text xml:space="preserve" text-anchor="middle" x="128.25" y="-118.5" font-family="Helvetica,sans-Serif" font-size="10.00">client.hpp</text>
</a>
</g>
</g>
<!-- Node1&#45;&gt;Node13 -->
<g id="edge29_Node000001_Node000013" class="edge">
<title>Node1&#45;&gt;Node13</title>
<g id="a_edge29_Node000001_Node000013"><a xlink:title=" ">
<path fill="none" stroke="#63b8ff" d="M415.55,-229.73C338.41,-224.66 211.68,-212.78 172.25,-188 155.33,-177.37 143.36,-157.59 136.22,-142.63"/>
<polygon fill="#63b8ff" stroke="#63b8ff" points="139.54,-141.49 132.31,-133.75 133.13,-144.31 139.54,-141.49"/>
</a>
</g>
</g>
<!-- Node15 -->
<g id="Node000015" class="node">
<title>Node15</title>
<g id="a_Node000015"><a xlink:title=" ">
<polygon fill="#e0e0e0" stroke="#999999" points="201.88,-76 156.63,-76 156.63,-56 201.88,-56 201.88,-76"/>
<text xml:space="preserve" text-anchor="middle" x="179.25" y="-62.5" font-family="Helvetica,sans-Serif" font-size="10.00">chrono</text>
</a>
</g>
</g>
<!-- Node1&#45;&gt;Node15 -->
<g id="edge30_Node000001_Node000015" class="edge">
<title>Node1&#45;&gt;Node15</title>
<g id="a_edge30_Node000001_Node000015"><a xlink:title=" ">
<path fill="none" stroke="#63b8ff" d="M415.52,-230.24C346.17,-225.85 239.45,-214.85 210.25,-188 182.14,-162.15 178.03,-114.6 178.21,-87.45"/>
<polygon fill="#63b8ff" stroke="#63b8ff" points="181.7,-87.85 178.49,-77.76 174.7,-87.65 181.7,-87.85"/>
</a>
</g>
</g>
<!-- Node16 -->
<g id="Node000016" class="node">
<title>Node16</title>
<g id="a_Node000016"><a xlink:title=" ">
<polygon fill="#e0e0e0" stroke="#999999" points="698.25,-132 658.25,-132 658.25,-112 698.25,-112 698.25,-132"/>
<text xml:space="preserve" text-anchor="middle" x="678.25" y="-118.5" font-family="Helvetica,sans-Serif" font-size="10.00">ctime</text>
</a>
</g>
</g>
<!-- Node1&#45;&gt;Node16 -->
<g id="edge32_Node000001_Node000016" class="edge">
<title>Node1&#45;&gt;Node16</title>
<g id="a_edge32_Node000001_Node000016"><a xlink:title=" ">
<path fill="none" stroke="#63b8ff" d="M494.39,-223.62C529.32,-204.5 609.01,-160.89 651.08,-137.87"/>
<polygon fill="#63b8ff" stroke="#63b8ff" points="652.74,-140.95 659.83,-133.08 649.38,-134.81 652.74,-140.95"/>
</a>
</g>
</g>
<!-- Node17 -->
<g id="Node000017" class="node">
<title>Node17</title>
<g id="a_Node000017"><a xlink:title=" ">
<polygon fill="#e0e0e0" stroke="#999999" points="766.13,-132 716.38,-132 716.38,-112 766.13,-112 766.13,-132"/>
<text xml:space="preserve" text-anchor="middle" x="741.25" y="-118.5" font-family="Helvetica,sans-Serif" font-size="10.00">iomanip</text>
</a>
</g>
</g>
<!-- Node1&#45;&gt;Node17 -->
<g id="edge33_Node000001_Node000017" class="edge">
<title>Node1&#45;&gt;Node17</title>
<g id="a_edge33_Node000001_Node000017"><a xlink:title=" ">
<path fill="none" stroke="#63b8ff" d="M502.04,-223.62C525.4,-214.7 561.34,-200.78 592.25,-188 633.36,-171 680.34,-150.29 710.37,-136.88"/>
<polygon fill="#63b8ff" stroke="#63b8ff" points="711.55,-140.19 719.25,-132.91 708.69,-133.8 711.55,-140.19"/>
</a>
</g>
</g>
<!-- Node19 -->
<g id="Node000019" class="node">
<title>Node19</title>
<g id="a_Node000019"><a xlink:title=" ">
<polygon fill="#e0e0e0" stroke="#999999" points="865.75,-188 822.75,-188 822.75,-168 865.75,-168 865.75,-188"/>
<text xml:space="preserve" text-anchor="middle" x="844.25" y="-174.5" font-family="Helvetica,sans-Serif" font-size="10.00">cmath</text>
</a>
</g>
</g>
<!-- Node1&#45;&gt;Node19 -->
<g id="edge31_Node000001_Node000019" class="edge">
<title>Node1&#45;&gt;Node19</title>
<g id="a_edge31_Node000001_Node000019"><a xlink:title=" ">
<path fill="none" stroke="#63b8ff" d="M538.89,-226.67C605.61,-219.34 715,-205.94 808.25,-188 809.25,-187.81 810.26,-187.61 811.28,-187.4"/>
<polygon fill="#63b8ff" stroke="#63b8ff" points="811.8,-190.87 820.78,-185.24 810.25,-184.04 811.8,-190.87"/>
</a>
</g>
</g>
<!-- Node3&#45;&gt;Node2 -->
<g id="edge3_Node000003_Node000002" class="edge">
<title>Node3&#45;&gt;Node2</title>
<g id="a_edge3_Node000003_Node000002"><a xlink:title=" ">
<path fill="none" stroke="#63b8ff" d="M430.83,-168.09C398.54,-160.88 355.03,-149.08 319.25,-132 266.28,-106.72 262.24,-85.06 211.25,-56 190.41,-44.12 165.87,-33.04 146.31,-24.84"/>
<polygon fill="#63b8ff" stroke="#63b8ff" points="147.71,-21.63 137.13,-21.06 145.04,-28.1 147.71,-21.63"/>
</a>
</g>
</g>
<!-- Node4 -->
<g id="Node000004" class="node">
<title>Node4</title>
<g id="a_Node000004"><a xlink:href="asn__tlv__codec_8hpp.html" target="_top" xlink:title="ASN.1 BER/TLV codec for SER record payloads.">
<polygon fill="white" stroke="#666666" points="526.13,-132 428.38,-132 428.38,-112 526.13,-112 526.13,-132"/>
<text xml:space="preserve" text-anchor="middle" x="477.25" y="-118.5" font-family="Helvetica,sans-Serif" font-size="10.00">asn_tlv_codec.hpp</text>
</a>
</g>
</g>
<!-- Node3&#45;&gt;Node4 -->
<g id="edge4_Node000003_Node000004" class="edge">
<title>Node3&#45;&gt;Node4</title>
<g id="a_edge4_Node000003_Node000004"><a xlink:title=" ">
<path fill="none" stroke="#63b8ff" d="M477.25,-167.59C477.25,-161.01 477.25,-151.96 477.25,-143.73"/>
<polygon fill="#63b8ff" stroke="#63b8ff" points="480.75,-143.81 477.25,-133.81 473.75,-143.81 480.75,-143.81"/>
</a>
</g>
</g>
<!-- Node6 -->
<g id="Node000006" class="node">
<title>Node6</title>
<g id="a_Node000006"><a xlink:title=" ">
<polygon fill="#e0e0e0" stroke="#999999" points="619.88,-76 574.63,-76 574.63,-56 619.88,-56 619.88,-76"/>
<text xml:space="preserve" text-anchor="middle" x="597.25" y="-62.5" font-family="Helvetica,sans-Serif" font-size="10.00">cstdint</text>
</a>
</g>
</g>
<!-- Node3&#45;&gt;Node6 -->
<g id="edge22_Node000003_Node000006" class="edge">
<title>Node3&#45;&gt;Node6</title>
<g id="a_edge22_Node000003_Node000006"><a xlink:title=" ">
<path fill="none" stroke="#63b8ff" d="M490.6,-167.53C502.65,-158.77 520.68,-145.15 535.25,-132 551.99,-116.88 569.6,-98.1 581.76,-84.62"/>
<polygon fill="#63b8ff" stroke="#63b8ff" points="584.18,-87.17 588.22,-77.37 578.96,-82.51 584.18,-87.17"/>
</a>
</g>
</g>
<!-- Node3&#45;&gt;Node7 -->
<g id="edge27_Node000003_Node000007" class="edge">
<title>Node3&#45;&gt;Node7</title>
<g id="a_edge27_Node000003_Node000007"><a xlink:title=" ">
<path fill="none" stroke="#63b8ff" d="M462.49,-167.58C430.76,-147.14 357.37,-98.7 338.25,-76 326.97,-62.61 318.5,-44.56 313.11,-30.88"/>
<polygon fill="#63b8ff" stroke="#63b8ff" points="316.44,-29.8 309.7,-21.63 309.88,-32.22 316.44,-29.8"/>
</a>
</g>
</g>
<!-- Node8 -->
<g id="Node000008" class="node">
<title>Node8</title>
<g id="a_Node000008"><a xlink:title=" ">
<polygon fill="#e0e0e0" stroke="#999999" points="567.75,-20 524.75,-20 524.75,0 567.75,0 567.75,-20"/>
<text xml:space="preserve" text-anchor="middle" x="546.25" y="-6.5" font-family="Helvetica,sans-Serif" font-size="10.00">vector</text>
</a>
</g>
</g>
<!-- Node3&#45;&gt;Node8 -->
<g id="edge28_Node000003_Node000008" class="edge">
<title>Node3&#45;&gt;Node8</title>
<g id="a_edge28_Node000003_Node000008"><a xlink:title=" ">
<path fill="none" stroke="#63b8ff" d="M507.34,-167.61C544.44,-154.16 605.51,-125.4 629.25,-76 641.78,-49.93 607.22,-31.28 578.92,-20.82"/>
<polygon fill="#63b8ff" stroke="#63b8ff" points="580.14,-17.54 569.54,-17.58 577.85,-24.15 580.14,-17.54"/>
</a>
</g>
</g>
<!-- Node3&#45;&gt;Node10 -->
<g id="edge26_Node000003_Node000010" class="edge">
<title>Node3&#45;&gt;Node10</title>
<g id="a_edge26_Node000003_Node000010"><a xlink:title=" ">
<path fill="none" stroke="#63b8ff" d="M523.86,-168.03C549.75,-161.33 581.44,-150.11 605.25,-132 640.83,-104.94 665.9,-57.53 678.01,-30.79"/>
<polygon fill="#63b8ff" stroke="#63b8ff" points="681.14,-32.37 681.92,-21.8 674.72,-29.58 681.14,-32.37"/>
</a>
</g>
</g>
<!-- Node3&#45;&gt;Node13 -->
<g id="edge16_Node000003_Node000013" class="edge">
<title>Node3&#45;&gt;Node13</title>
<g id="a_edge16_Node000003_Node000013"><a xlink:title=" ">
<path fill="none" stroke="#63b8ff" d="M430.55,-169.77C361.51,-159.09 233.4,-139.27 168.36,-129.21"/>
<polygon fill="#63b8ff" stroke="#63b8ff" points="169.27,-125.81 158.85,-127.74 168.2,-132.72 169.27,-125.81"/>
</a>
</g>
</g>
<!-- Node3&#45;&gt;Node15 -->
<g id="edge21_Node000003_Node000015" class="edge">
<title>Node3&#45;&gt;Node15</title>
<g id="a_edge21_Node000003_Node000015"><a xlink:title=" ">
<path fill="none" stroke="#63b8ff" d="M430.85,-170.27C391.37,-163.57 333.7,-151.43 286.25,-132 254.79,-119.12 221.83,-97.71 200.95,-83.01"/>
<polygon fill="#63b8ff" stroke="#63b8ff" points="203.12,-80.26 192.96,-77.28 199.04,-85.95 203.12,-80.26"/>
</a>
</g>
</g>
<!-- Node3&#45;&gt;Node16 -->
<g id="edge23_Node000003_Node000016" class="edge">
<title>Node3&#45;&gt;Node16</title>
<g id="a_edge23_Node000003_Node000016"><a xlink:title=" ">
<path fill="none" stroke="#63b8ff" d="M512.26,-167.59C550.32,-157.37 610.58,-141.18 647.06,-131.38"/>
<polygon fill="#63b8ff" stroke="#63b8ff" points="647.81,-134.8 656.56,-128.83 645.99,-128.04 647.81,-134.8"/>
</a>
</g>
</g>
<!-- Node3&#45;&gt;Node17 -->
<g id="edge24_Node000003_Node000017" class="edge">
<title>Node3&#45;&gt;Node17</title>
<g id="a_edge24_Node000003_Node000017"><a xlink:title=" ">
<path fill="none" stroke="#63b8ff" d="M523.7,-168.84C567.92,-160.86 636.59,-147.94 705.06,-132.39"/>
<polygon fill="#63b8ff" stroke="#63b8ff" points="705.61,-135.85 714.57,-130.21 704.04,-129.03 705.61,-135.85"/>
</a>
</g>
</g>
<!-- Node18 -->
<g id="Node000018" class="node">
<title>Node18</title>
<g id="a_Node000018"><a xlink:title=" ">
<polygon fill="#e0e0e0" stroke="#999999" points="371.75,-132 328.75,-132 328.75,-112 371.75,-112 371.75,-132"/>
<text xml:space="preserve" text-anchor="middle" x="350.25" y="-118.5" font-family="Helvetica,sans-Serif" font-size="10.00">mutex</text>
</a>
</g>
</g>
<!-- Node3&#45;&gt;Node18 -->
<g id="edge25_Node000003_Node000018" class="edge">
<title>Node3&#45;&gt;Node18</title>
<g id="a_edge25_Node000003_Node000018"><a xlink:title=" ">
<path fill="none" stroke="#63b8ff" d="M455.13,-167.59C435.1,-159.08 405.33,-146.42 382.63,-136.77"/>
<polygon fill="#63b8ff" stroke="#63b8ff" points="384.08,-133.58 373.51,-132.89 381.35,-140.02 384.08,-133.58"/>
</a>
</g>
</g>
<!-- Node5 -->
<g id="Node000005" class="node">
<title>Node5</title>
<g id="a_Node000005"><a xlink:title=" ">
<polygon fill="#e0e0e0" stroke="#999999" points="420.38,-76 372.13,-76 372.13,-56 420.38,-56 420.38,-76"/>
<text xml:space="preserve" text-anchor="middle" x="396.25" y="-62.5" font-family="Helvetica,sans-Serif" font-size="10.00">cstddef</text>
</a>
</g>
</g>
<!-- Node4&#45;&gt;Node5 -->
<g id="edge5_Node000004_Node000005" class="edge">
<title>Node4&#45;&gt;Node5</title>
<g id="a_edge5_Node000004_Node000005"><a xlink:title=" ">
<path fill="none" stroke="#63b8ff" d="M463.14,-111.59C451.25,-103.67 433.99,-92.16 419.97,-82.82"/>
<polygon fill="#63b8ff" stroke="#63b8ff" points="421.99,-79.95 411.73,-77.32 418.11,-85.78 421.99,-79.95"/>
</a>
</g>
</g>
<!-- Node4&#45;&gt;Node6 -->
<g id="edge6_Node000004_Node000006" class="edge">
<title>Node4&#45;&gt;Node6</title>
<g id="a_edge6_Node000004_Node000006"><a xlink:title=" ">
<path fill="none" stroke="#63b8ff" d="M498.15,-111.59C516.88,-103.17 544.61,-90.69 565.97,-81.07"/>
<polygon fill="#63b8ff" stroke="#63b8ff" points="567.12,-84.4 574.81,-77.1 564.25,-78.01 567.12,-84.4"/>
</a>
</g>
</g>
<!-- Node4&#45;&gt;Node7 -->
<g id="edge7_Node000004_Node000007" class="edge">
<title>Node4&#45;&gt;Node7</title>
<g id="a_edge7_Node000004_Node000007"><a xlink:title=" ">
<path fill="none" stroke="#63b8ff" d="M440.92,-111.51C417.38,-104.23 386.83,-92.6 363.25,-76 345.28,-63.35 329.21,-43.9 318.76,-29.57"/>
<polygon fill="#63b8ff" stroke="#63b8ff" points="321.67,-27.62 313.06,-21.45 315.94,-31.65 321.67,-27.62"/>
</a>
</g>
</g>
<!-- Node4&#45;&gt;Node8 -->
<g id="edge8_Node000004_Node000008" class="edge">
<title>Node4&#45;&gt;Node8</title>
<g id="a_edge8_Node000004_Node000008"><a xlink:title=" ">
<path fill="none" stroke="#63b8ff" d="M491.53,-111.54C502.78,-103.39 518.05,-90.63 527.25,-76 535.78,-62.43 540.61,-44.89 543.27,-31.45"/>
<polygon fill="#63b8ff" stroke="#63b8ff" points="546.65,-32.43 544.88,-21.98 539.75,-31.25 546.65,-32.43"/>
</a>
</g>
</g>
<!-- Node9 -->
<g id="Node000009" class="node">
<title>Node9</title>
<g id="a_Node000009"><a xlink:href="ser__record_8hpp.html" target="_top" xlink:title="System Event Record (SER) data structure and parser.">
<polygon fill="white" stroke="#666666" points="518.5,-76 438,-76 438,-56 518.5,-56 518.5,-76"/>
<text xml:space="preserve" text-anchor="middle" x="478.25" y="-62.5" font-family="Helvetica,sans-Serif" font-size="10.00">ser_record.hpp</text>
</a>
</g>
</g>
<!-- Node4&#45;&gt;Node9 -->
<g id="edge9_Node000004_Node000009" class="edge">
<title>Node4&#45;&gt;Node9</title>
<g id="a_edge9_Node000004_Node000009"><a xlink:title=" ">
<path fill="none" stroke="#63b8ff" d="M477.43,-111.59C477.55,-105.01 477.71,-95.96 477.87,-87.73"/>
<polygon fill="#63b8ff" stroke="#63b8ff" points="481.36,-87.87 478.05,-77.81 474.37,-87.75 481.36,-87.87"/>
</a>
</g>
</g>
<!-- Node9&#45;&gt;Node2 -->
<g id="edge10_Node000009_Node000002" class="edge">
<title>Node9&#45;&gt;Node2</title>
<g id="a_edge10_Node000009_Node000002"><a xlink:title=" ">
<path fill="none" stroke="#63b8ff" d="M437.63,-57.41C434.8,-56.92 431.98,-56.44 429.25,-56 334.69,-40.63 223.83,-25.62 161.13,-17.41"/>
<polygon fill="#63b8ff" stroke="#63b8ff" points="161.87,-13.98 151.5,-16.16 160.96,-20.92 161.87,-13.98"/>
</a>
</g>
</g>
<!-- Node9&#45;&gt;Node7 -->
<g id="edge11_Node000009_Node000007" class="edge">
<title>Node9&#45;&gt;Node7</title>
<g id="a_edge11_Node000009_Node000007"><a xlink:title=" ">
<path fill="none" stroke="#63b8ff" d="M448.29,-55.59C417.26,-45.85 368.99,-30.7 337.49,-20.81"/>
<polygon fill="#63b8ff" stroke="#63b8ff" points="338.74,-17.53 328.15,-17.88 336.65,-24.21 338.74,-17.53"/>
</a>
</g>
</g>
<!-- Node9&#45;&gt;Node8 -->
<g id="edge12_Node000009_Node000008" class="edge">
<title>Node9&#45;&gt;Node8</title>
<g id="a_edge12_Node000009_Node000008"><a xlink:title=" ">
<path fill="none" stroke="#63b8ff" d="M490.1,-55.59C499.94,-47.77 514.18,-36.46 525.86,-27.19"/>
<polygon fill="#63b8ff" stroke="#63b8ff" points="527.7,-30.2 533.36,-21.24 523.35,-24.72 527.7,-30.2"/>
</a>
</g>
</g>
<!-- Node9&#45;&gt;Node10 -->
<g id="edge13_Node000009_Node000010" class="edge">
<title>Node9&#45;&gt;Node10</title>
<g id="a_edge13_Node000009_Node000010"><a xlink:title=" ">
<path fill="none" stroke="#63b8ff" d="M514.48,-55.59C552.24,-45.79 611.12,-30.51 649.19,-20.62"/>
<polygon fill="#63b8ff" stroke="#63b8ff" points="650.02,-24.02 658.82,-18.12 648.27,-17.25 650.02,-24.02"/>
</a>
</g>
</g>
<!-- Node11 -->
<g id="Node000011" class="node">
<title>Node11</title>
<g id="a_Node000011"><a xlink:title=" ">
<polygon fill="#e0e0e0" stroke="#999999" points="440.13,-20 384.38,-20 384.38,0 440.13,0 440.13,-20"/>
<text xml:space="preserve" text-anchor="middle" x="412.25" y="-6.5" font-family="Helvetica,sans-Serif" font-size="10.00">algorithm</text>
</a>
</g>
</g>
<!-- Node9&#45;&gt;Node11 -->
<g id="edge14_Node000009_Node000011" class="edge">
<title>Node9&#45;&gt;Node11</title>
<g id="a_edge14_Node000009_Node000011"><a xlink:title=" ">
<path fill="none" stroke="#63b8ff" d="M466.75,-55.59C457.29,-47.85 443.65,-36.69 432.38,-27.47"/>
<polygon fill="#63b8ff" stroke="#63b8ff" points="434.74,-24.88 424.79,-21.26 430.31,-30.3 434.74,-24.88"/>
</a>
</g>
</g>
<!-- Node12 -->
<g id="Node000012" class="node">
<title>Node12</title>
<g id="a_Node000012"><a xlink:title=" ">
<polygon fill="#e0e0e0" stroke="#999999" points="503.88,-20 458.63,-20 458.63,0 503.88,0 503.88,-20"/>
<text xml:space="preserve" text-anchor="middle" x="481.25" y="-6.5" font-family="Helvetica,sans-Serif" font-size="10.00">cctype</text>
</a>
</g>
</g>
<!-- Node9&#45;&gt;Node12 -->
<g id="edge15_Node000009_Node000012" class="edge">
<title>Node9&#45;&gt;Node12</title>
<g id="a_edge15_Node000009_Node000012"><a xlink:title=" ">
<path fill="none" stroke="#63b8ff" d="M478.77,-55.59C479.14,-49.01 479.64,-39.96 480.1,-31.73"/>
<polygon fill="#63b8ff" stroke="#63b8ff" points="483.59,-31.99 480.65,-21.81 476.6,-31.6 483.59,-31.99"/>
</a>
</g>
</g>
<!-- Node13&#45;&gt;Node2 -->
<g id="edge17_Node000013_Node000002" class="edge">
<title>Node13&#45;&gt;Node2</title>
<g id="a_edge17_Node000013_Node000002"><a xlink:title=" ">
<path fill="none" stroke="#63b8ff" d="M98.76,-118.76C70.98,-114.91 30.78,-104.43 11.25,-76 -5.83,-51.13 28.94,-33.51 62.06,-22.95"/>
<polygon fill="#63b8ff" stroke="#63b8ff" points="62.67,-26.42 71.24,-20.2 60.66,-19.71 62.67,-26.42"/>
</a>
</g>
</g>
<!-- Node13&#45;&gt;Node7 -->
<g id="edge19_Node000013_Node000007" class="edge">
<title>Node13&#45;&gt;Node7</title>
<g id="a_edge19_Node000013_Node000007"><a xlink:title=" ">
<path fill="none" stroke="#63b8ff" d="M128.29,-111.62C128.86,-97.56 132.06,-71.07 147.25,-56 181.39,-22.16 238.95,-13.34 274.65,-11.28"/>
<polygon fill="#63b8ff" stroke="#63b8ff" points="274.5,-14.79 284.35,-10.88 274.21,-7.8 274.5,-14.79"/>
</a>
</g>
</g>
<!-- Node14 -->
<g id="Node000014" class="node">
<title>Node14</title>
<g id="a_Node000014"><a xlink:title=" ">
<polygon fill="#e0e0e0" stroke="#999999" points="100.13,-76 20.38,-76 20.38,-56 100.13,-56 100.13,-76"/>
<text xml:space="preserve" text-anchor="middle" x="60.25" y="-62.5" font-family="Helvetica,sans-Serif" font-size="10.00">boost/asio.hpp</text>
</a>
</g>
</g>
<!-- Node13&#45;&gt;Node14 -->
<g id="edge18_Node000013_Node000014" class="edge">
<title>Node13&#45;&gt;Node14</title>
<g id="a_edge18_Node000013_Node000014"><a xlink:title=" ">
<path fill="none" stroke="#63b8ff" d="M116.41,-111.59C106.56,-103.77 92.32,-92.46 80.64,-83.19"/>
<polygon fill="#63b8ff" stroke="#63b8ff" points="83.15,-80.72 73.15,-77.24 78.8,-86.2 83.15,-80.72"/>
</a>
</g>
</g>
<!-- Node13&#45;&gt;Node15 -->
<g id="edge20_Node000013_Node000015" class="edge">
<title>Node13&#45;&gt;Node15</title>
<g id="a_edge20_Node000013_Node000015"><a xlink:title=" ">
<path fill="none" stroke="#63b8ff" d="M137.13,-111.59C144.15,-104.16 154.15,-93.58 162.64,-84.58"/>
<polygon fill="#63b8ff" stroke="#63b8ff" points="165.11,-87.07 169.43,-77.4 160.02,-82.27 165.11,-87.07"/>
</a>
</g>
</g>
</g>
</svg>
