<?xml version="1.0" encoding="UTF-8" standalone="no"?>
<!DOCTYPE svg PUBLIC "-//W3C//DTD SVG 1.1//EN"
 "http://www.w3.org/Graphics/SVG/1.1/DTD/svg11.dtd">
<!-- Generated by graphviz version 14.1.1 (20251213.1925)
 -->
<!-- Title: ws_server.hpp Pages: 1 -->
<svg width="174pt" height="196pt"
 viewBox="0.00 0.00 174.00 196.00" xmlns="http://www.w3.org/2000/svg" xmlns:xlink="http://www.w3.org/1999/xlink">

<svg id="main" version="1.1" xmlns="http://www.w3.org/2000/svg" xmlns:xlink="http://www.w3.org/1999/xlink" xml:space="preserve">

<style type="text/css"><![CDATA[
.node, .edge {opacity: 0.7;}
.node.selected, .edge.selected {opacity: 1;}
.edge:hover path { stroke: red; }
.edge:hover polygon { stroke: red; fill: red; }
]]></style>
<script type="application/ecmascript" xlink:href="svg.min.js"/>
<svg id="graph" class="graph">
<g id="graph0" class="graph" transform="scale(1 1) rotate(0) translate(4 192)">
<title>ws_server.hpp</title>
<!-- Node1 -->
<g id="Node000001" class="node">
<title>Node1</title>
<g id="a_Node000001"><a xlink:title="WebSocket Server for Real&#45;time SER Data Access.">
<polygon fill="#999999" stroke="#666666" points="83.72,-188 3.97,-188 3.97,-168 83.72,-168 83.72,-188"/>
<text xml:space="preserve" text-anchor="middle" x="43.85" y="-174.5" font-family="Helvetica,sans-Serif" font-size="10.00">ws_server.hpp</text>
</a>
</g>
</g>
<!-- Node2 -->
<g id="Node000002" class="node">
<title>Node2</title>
<g id="a_Node000002"><a xlink:href="relay__manager_8hpp.html" target="_top" xlink:title="On&#45;demand coordinator for multiple relay pipelines.">
<polygon fill="white" stroke="#666666" points="113.1,-76 14.6,-76 14.6,-56 113.1,-56 113.1,-76"/>
<text xml:space="preserve" text-anchor="middle" x="63.85" y="-62.5" font-family="Helvetica,sans-Serif" font-size="10.00">relay_manager.hpp</text>
</a>
</g>
</g>
<!-- Node1&#45;&gt;Node2 -->
<g id="edge1_Node000001_Node000002" class="edge">
<title>Node1&#45;&gt;Node2</title>
<g id="a_edge1_Node000001_Node000002"><a xlink:title=" ">
<path fill="none" stroke="#63b8ff" d="M47.61,-156.31C51.96,-132.36 58.94,-93.95 62.14,-76.35"/>
<polygon fill="#63b8ff" stroke="#63b8ff" points="44.17,-155.67 45.82,-166.13 51.05,-156.92 44.17,-155.67"/>
</a>
</g>
</g>
<!-- Node3 -->
<g id="Node000003" class="node">
<title>Node3</title>
<g id="a_Node000003"><a xlink:href="telnet__sml__app_8cpp.html" target="_top" xlink:title="Telnet SML Application &#45; Main orchestrator implementation.">
<polygon fill="white" stroke="#666666" points="114.22,-20 13.47,-20 13.47,0 114.22,0 114.22,-20"/>
<text xml:space="preserve" text-anchor="middle" x="63.85" y="-6.5" font-family="Helvetica,sans-Serif" font-size="10.00">telnet_sml_app.cpp</text>
</a>
</g>
</g>
<!-- Node1&#45;&gt;Node3 -->
<g id="edge6_Node000001_Node000003" class="edge">
<title>Node1&#45;&gt;Node3</title>
<g id="a_edge6_Node000001_Node000003"><a xlink:title=" ">
<path fill="none" stroke="#63b8ff" d="M29.5,-158.35C12.64,-134 -11.02,-90.43 5.85,-56 13.69,-39.98 30.3,-28.02 43.75,-20.48"/>
<polygon fill="#63b8ff" stroke="#63b8ff" points="26.56,-160.27 35.28,-166.3 32.23,-156.16 26.56,-160.27"/>
</a>
</g>
</g>
<!-- Node4 -->
<g id="Node000004" class="node">
<title>Node4</title>
<g id="a_Node000004"><a xlink:href="relay__pipeline_8hpp.html" target="_top" xlink:title="Per&#45;relay processing pipeline for on&#45;demand relay connections.">
<polygon fill="white" stroke="#666666" points="165.85,-132 71.85,-132 71.85,-112 165.85,-112 165.85,-132"/>
<text xml:space="preserve" text-anchor="middle" x="118.85" y="-118.5" font-family="Helvetica,sans-Serif" font-size="10.00">relay_pipeline.hpp</text>
</a>
</g>
</g>
<!-- Node1&#45;&gt;Node4 -->
<g id="edge3_Node000001_Node000004" class="edge">
<title>Node1&#45;&gt;Node4</title>
<g id="a_edge3_Node000001_Node000004"><a xlink:title=" ">
<path fill="none" stroke="#63b8ff" d="M66.07,-161C78.96,-151.72 94.75,-140.35 105.68,-132.48"/>
<polygon fill="#63b8ff" stroke="#63b8ff" points="64.21,-158.03 58.14,-166.71 68.3,-163.71 64.21,-158.03"/>
</a>
</g>
</g>
<!-- Node2&#45;&gt;Node3 -->
<g id="edge2_Node000002_Node000003" class="edge">
<title>Node2&#45;&gt;Node3</title>
<g id="a_edge2_Node000002_Node000003"><a xlink:title=" ">
<path fill="none" stroke="#63b8ff" d="M63.85,-44.13C63.85,-35.9 63.85,-26.85 63.85,-20.3"/>
<polygon fill="#63b8ff" stroke="#63b8ff" points="60.35,-44.08 63.85,-54.08 67.35,-44.08 60.35,-44.08"/>
</a>
</g>
</g>
<!-- Node4&#45;&gt;Node2 -->
<g id="edge4_Node000004_Node000002" class="edge">
<title>Node4&#45;&gt;Node2</title>
<g id="a_edge4_Node000004_Node000002"><a xlink:title=" ">
<path fill="none" stroke="#63b8ff" d="M101.09,-103.57C91.85,-94.5 80.93,-83.78 73.32,-76.3"/>
<polygon fill="#63b8ff" stroke="#63b8ff" points="98.6,-106.03 108.18,-110.53 103.5,-101.03 98.6,-106.03"/>
</a>
</g>
</g>
<!-- Node4&#45;&gt;Node3 -->
<g id="edge5_Node000004_Node000003" class="edge">
<title>Node4&#45;&gt;Node3</title>
<g id="a_edge5_Node000004_Node000003"><a xlink:title=" ">
<path fill="none" stroke="#63b8ff" d="M124.64,-100.72C127.33,-87.35 128.62,-69.83 121.85,-56 114,-39.98 97.39,-28.02 83.94,-20.48"/>
<polygon fill="#63b8ff" stroke="#63b8ff" points="121.32,-99.59 122.33,-110.13 128.12,-101.25 121.32,-99.59"/>
</a>
</g>
</g>
</g>
</svg>
</svg>

<style type='text/css'>
<![CDATA[
[data-mouse-over-selected='false'] { opacity: 0.7; }
[data-mouse-over-selected='true']  { opacity: 1.0; }
]]>
</style>
<script type="application/ecmascript"><![CDATA[
document.addEventListener('DOMContentLoaded', (event) => {
  highlightEdges();
  highlightAdjacentNodes();
});
]]></script>
</svg>
