<?xml version="1.0" encoding="UTF-8" standalone="no"?>
<!DOCTYPE svg PUBLIC "-//W3C//DTD SVG 1.1//EN"
 "http://www.w3.org/Graphics/SVG/1.1/DTD/svg11.dtd">
<!-- Generated by graphviz version 14.1.2 (20260124.0452)
 -->
<!-- Title: ws_server.hpp Pages: 1 -->
<svg width="1356pt" height="196pt"
 viewBox="0.00 0.00 1356.00 196.00" xmlns="http://www.w3.org/2000/svg" xmlns:xlink="http://www.w3.org/1999/xlink">
<g id="graph0" class="graph" transform="scale(1 1) rotate(0) translate(4 192)">
<title>ws_server.hpp</title>
<!-- Node1 -->
<g id="Node000001" class="node">
<title>Node1</title>
<g id="a_Node000001"><a xlink:title="WebSocket Server for Real&#45;time SER Data Access.">
<polygon fill="#999999" stroke="#666666" points="827.4,-188 747.65,-188 747.65,-168 827.4,-168 827.4,-188"/>
<text xml:space="preserve" text-anchor="middle" x="787.53" y="-174.5" font-family="Helvetica,sans-Serif" font-size="10.00">ws_server.hpp</text>
</a>
</g>
</g>
<!-- Node2 -->
<g id="Node000002" class="node">
<title>Node2</title>
<g id="a_Node000002"><a xlink:href="dll__export_8hpp.html" target="_top" xlink:title="DLL Export/Import Macros for Windows.">
<polygon fill="white" stroke="#666666" points="1347.9,-20 1271.15,-20 1271.15,0 1347.9,0 1347.9,-20"/>
<text xml:space="preserve" text-anchor="middle" x="1309.53" y="-6.5" font-family="Helvetica,sans-Serif" font-size="10.00">dll_export.hpp</text>
</a>
</g>
</g>
<!-- Node1&#45;&gt;Node2 -->
<g id="edge1_Node000001_Node000002" class="edge">
<title>Node1&#45;&gt;Node2</title>
<g id="a_edge1_Node000001_Node000002"><a xlink:title=" ">
<path fill="none" stroke="#63b8ff" d="M827.56,-176.57C943.95,-174.91 1276.05,-167.12 1308.53,-132 1333.64,-104.85 1324.69,-57.82 1316.65,-31.09"/>
<polygon fill="#63b8ff" stroke="#63b8ff" points="1320.05,-30.24 1313.61,-21.82 1313.4,-32.42 1320.05,-30.24"/>
</a>
</g>
</g>
<!-- Node3 -->
<g id="Node000003" class="node">
<title>Node3</title>
<g id="a_Node000003"><a xlink:title=" ">
<polygon fill="#e0e0e0" stroke="#999999" points="121.28,-132 13.78,-132 13.78,-112 121.28,-112 121.28,-132"/>
<text xml:space="preserve" text-anchor="middle" x="67.53" y="-118.5" font-family="Helvetica,sans-Serif" font-size="10.00">boost/beast/core.hpp</text>
</a>
</g>
</g>
<!-- Node1&#45;&gt;Node3 -->
<g id="edge2_Node000001_Node000003" class="edge">
<title>Node1&#45;&gt;Node3</title>
<g id="a_edge2_Node000001_Node000003"><a xlink:title=" ">
<path fill="none" stroke="#63b8ff" d="M747.45,-175.28C646.31,-170.73 372.35,-157.03 132.83,-132.16"/>
<polygon fill="#63b8ff" stroke="#63b8ff" points="133.27,-128.69 122.96,-131.13 132.54,-135.65 133.27,-128.69"/>
</a>
</g>
</g>
<!-- Node4 -->
<g id="Node000004" class="node">
<title>Node4</title>
<g id="a_Node000004"><a xlink:title=" ">
<polygon fill="#e0e0e0" stroke="#999999" points="275.53,-132 139.53,-132 139.53,-112 275.53,-112 275.53,-132"/>
<text xml:space="preserve" text-anchor="middle" x="207.53" y="-118.5" font-family="Helvetica,sans-Serif" font-size="10.00">boost/beast/websocket.hpp</text>
</a>
</g>
</g>
<!-- Node1&#45;&gt;Node4 -->
<g id="edge3_Node000001_Node000004" class="edge">
<title>Node1&#45;&gt;Node4</title>
<g id="a_edge3_Node000001_Node000004"><a xlink:title=" ">
<path fill="none" stroke="#63b8ff" d="M747.39,-173.78C663.9,-167.01 465.13,-150.46 287.36,-132.27"/>
<polygon fill="#63b8ff" stroke="#63b8ff" points="287.76,-128.79 277.46,-131.25 287.05,-135.75 287.76,-128.79"/>
</a>
</g>
</g>
<!-- Node5 -->
<g id="Node000005" class="node">
<title>Node5</title>
<g id="a_Node000005"><a xlink:title=" ">
<polygon fill="#e0e0e0" stroke="#999999" points="399.9,-132 293.15,-132 293.15,-112 399.9,-112 399.9,-132"/>
<text xml:space="preserve" text-anchor="middle" x="346.53" y="-118.5" font-family="Helvetica,sans-Serif" font-size="10.00">boost/asio/ip/tcp.hpp</text>
</a>
</g>
</g>
<!-- Node1&#45;&gt;Node5 -->
<g id="edge4_Node000001_Node000005" class="edge">
<title>Node1&#45;&gt;Node5</title>
<g id="a_edge4_Node000001_Node000005"><a xlink:title=" ">
<path fill="none" stroke="#63b8ff" d="M747.38,-172.58C680.11,-165.1 540.09,-149.2 411.5,-132.37"/>
<polygon fill="#63b8ff" stroke="#63b8ff" points="412.16,-128.92 401.79,-131.09 411.24,-135.86 412.16,-128.92"/>
</a>
</g>
</g>
<!-- Node6 -->
<g id="Node000006" class="node">
<title>Node6</title>
<g id="a_Node000006"><a xlink:title=" ">
<polygon fill="#e0e0e0" stroke="#999999" points="527.4,-132 417.65,-132 417.65,-112 527.4,-112 527.4,-132"/>
<text xml:space="preserve" text-anchor="middle" x="472.53" y="-118.5" font-family="Helvetica,sans-Serif" font-size="10.00">boost/asio/strand.hpp</text>
</a>
</g>
</g>
<!-- Node1&#45;&gt;Node6 -->
<g id="edge5_Node000001_Node000006" class="edge">
<title>Node1&#45;&gt;Node6</title>
<g id="a_edge5_Node000001_Node000006"><a xlink:title=" ">
<path fill="none" stroke="#63b8ff" d="M747.31,-170.11C694.74,-161.09 601.95,-145.19 538.88,-134.37"/>
<polygon fill="#63b8ff" stroke="#63b8ff" points="539.8,-130.98 529.35,-132.74 538.62,-137.88 539.8,-130.98"/>
</a>
</g>
</g>
<!-- Node7 -->
<g id="Node000007" class="node">
<title>Node7</title>
<g id="a_Node000007"><a xlink:title=" ">
<polygon fill="#e0e0e0" stroke="#999999" points="647.28,-132 545.78,-132 545.78,-112 647.28,-112 647.28,-132"/>
<text xml:space="preserve" text-anchor="middle" x="596.53" y="-118.5" font-family="Helvetica,sans-Serif" font-size="10.00">boost/asio/post.hpp</text>
</a>
</g>
</g>
<!-- Node1&#45;&gt;Node7 -->
<g id="edge6_Node000001_Node000007" class="edge">
<title>Node1&#45;&gt;Node7</title>
<g id="a_edge6_Node000001_Node000007"><a xlink:title=" ">
<path fill="none" stroke="#63b8ff" d="M754.26,-167.59C722.82,-158.71 675.44,-145.31 640.82,-135.52"/>
<polygon fill="#63b8ff" stroke="#63b8ff" points="642.09,-132.24 631.52,-132.89 640.19,-138.98 642.09,-132.24"/>
</a>
</g>
</g>
<!-- Node8 -->
<g id="Node000008" class="node">
<title>Node8</title>
<g id="a_Node000008"><a xlink:title=" ">
<polygon fill="#e0e0e0" stroke="#999999" points="708.03,-132 665.03,-132 665.03,-112 708.03,-112 708.03,-132"/>
<text xml:space="preserve" text-anchor="middle" x="686.53" y="-118.5" font-family="Helvetica,sans-Serif" font-size="10.00">thread</text>
</a>
</g>
</g>
<!-- Node1&#45;&gt;Node8 -->
<g id="edge7_Node000001_Node000008" class="edge">
<title>Node1&#45;&gt;Node8</title>
<g id="a_edge7_Node000001_Node000008"><a xlink:title=" ">
<path fill="none" stroke="#63b8ff" d="M769.94,-167.59C754.61,-159.4 732.11,-147.37 714.34,-137.87"/>
<polygon fill="#63b8ff" stroke="#63b8ff" points="716.06,-134.82 705.59,-133.19 712.76,-140.99 716.06,-134.82"/>
</a>
</g>
</g>
<!-- Node9 -->
<g id="Node000009" class="node">
<title>Node9</title>
<g id="a_Node000009"><a xlink:title=" ">
<polygon fill="#e0e0e0" stroke="#999999" points="777.15,-132 725.9,-132 725.9,-112 777.15,-112 777.15,-132"/>
<text xml:space="preserve" text-anchor="middle" x="751.53" y="-118.5" font-family="Helvetica,sans-Serif" font-size="10.00">memory</text>
</a>
</g>
</g>
<!-- Node1&#45;&gt;Node9 -->
<g id="edge8_Node000001_Node000009" class="edge">
<title>Node1&#45;&gt;Node9</title>
<g id="a_edge8_Node000001_Node000009"><a xlink:title=" ">
<path fill="none" stroke="#63b8ff" d="M781.26,-167.59C776.51,-160.47 769.83,-150.45 764.01,-141.72"/>
<polygon fill="#63b8ff" stroke="#63b8ff" points="767.03,-139.94 758.57,-133.56 761.2,-143.82 767.03,-139.94"/>
</a>
</g>
</g>
<!-- Node10 -->
<g id="Node000010" class="node">
<title>Node10</title>
<g id="a_Node000010"><a xlink:title=" ">
<polygon fill="#e0e0e0" stroke="#999999" points="853.53,-132 795.53,-132 795.53,-112 853.53,-112 853.53,-132"/>
<text xml:space="preserve" text-anchor="middle" x="824.53" y="-118.5" font-family="Helvetica,sans-Serif" font-size="10.00">functional</text>
</a>
</g>
</g>
<!-- Node1&#45;&gt;Node10 -->
<g id="edge9_Node000001_Node000010" class="edge">
<title>Node1&#45;&gt;Node10</title>
<g id="a_edge9_Node000001_Node000010"><a xlink:title=" ">
<path fill="none" stroke="#63b8ff" d="M793.97,-167.59C798.86,-160.47 805.72,-150.45 811.71,-141.72"/>
<polygon fill="#63b8ff" stroke="#63b8ff" points="814.54,-143.77 817.3,-133.55 808.76,-139.82 814.54,-143.77"/>
</a>
</g>
</g>
<!-- Node11 -->
<g id="Node000011" class="node">
<title>Node11</title>
<g id="a_Node000011"><a xlink:title=" ">
<polygon fill="#e0e0e0" stroke="#999999" points="897.53,-20 857.53,-20 857.53,0 897.53,0 897.53,-20"/>
<text xml:space="preserve" text-anchor="middle" x="877.53" y="-6.5" font-family="Helvetica,sans-Serif" font-size="10.00">string</text>
</a>
</g>
</g>
<!-- Node1&#45;&gt;Node11 -->
<g id="edge10_Node000001_Node000011" class="edge">
<title>Node1&#45;&gt;Node11</title>
<g id="a_edge10_Node000001_Node000011"><a xlink:title=" ">
<path fill="none" stroke="#63b8ff" d="M747.22,-176.2C590.66,-172.91 30.25,-159.24 4.53,-132 -1.57,-125.54 -1.38,-118.64 4.53,-112 61.78,-47.74 696.32,-18.29 846.02,-12.21"/>
<polygon fill="#63b8ff" stroke="#63b8ff" points="845.73,-15.73 855.58,-11.83 845.45,-8.73 845.73,-15.73"/>
</a>
</g>
</g>
<!-- Node12 -->
<g id="Node000012" class="node">
<title>Node12</title>
<g id="a_Node000012"><a xlink:title=" ">
<polygon fill="#e0e0e0" stroke="#999999" points="1019.03,-20 976.03,-20 976.03,0 1019.03,0 1019.03,-20"/>
<text xml:space="preserve" text-anchor="middle" x="997.53" y="-6.5" font-family="Helvetica,sans-Serif" font-size="10.00">vector</text>
</a>
</g>
</g>
<!-- Node1&#45;&gt;Node12 -->
<g id="edge11_Node000001_Node000012" class="edge">
<title>Node1&#45;&gt;Node12</title>
<g id="a_edge11_Node000001_Node000012"><a xlink:title=" ">
<path fill="none" stroke="#63b8ff" d="M827.56,-172.8C877.38,-166.71 958.38,-153.74 978.53,-132 1003.75,-104.8 1003.42,-58.48 1000.65,-31.73"/>
<polygon fill="#63b8ff" stroke="#63b8ff" points="1004.13,-31.32 999.39,-21.84 997.18,-32.21 1004.13,-31.32"/>
</a>
</g>
</g>
<!-- Node13 -->
<g id="Node000013" class="node">
<title>Node13</title>
<g id="a_Node000013"><a xlink:title=" ">
<polygon fill="#e0e0e0" stroke="#999999" points="1079.28,-132 1025.78,-132 1025.78,-112 1079.28,-112 1079.28,-132"/>
<text xml:space="preserve" text-anchor="middle" x="1052.53" y="-118.5" font-family="Helvetica,sans-Serif" font-size="10.00">iostream</text>
</a>
</g>
</g>
<!-- Node1&#45;&gt;Node13 -->
<g id="edge12_Node000001_Node000013" class="edge">
<title>Node1&#45;&gt;Node13</title>
<g id="a_edge12_Node000001_Node000013"><a xlink:title=" ">
<path fill="none" stroke="#63b8ff" d="M827.63,-169.17C872.49,-160.35 947.29,-145.5 1011.53,-132 1012.53,-131.79 1013.54,-131.58 1014.56,-131.36"/>
<polygon fill="#63b8ff" stroke="#63b8ff" points="1015.12,-134.82 1024.16,-129.29 1013.65,-127.98 1015.12,-134.82"/>
</a>
</g>
</g>
<!-- Node14 -->
<g id="Node000014" class="node">
<title>Node14</title>
<g id="a_Node000014"><a xlink:title=" ">
<polygon fill="#e0e0e0" stroke="#999999" points="1127.28,-132 1097.78,-132 1097.78,-112 1127.28,-112 1127.28,-132"/>
<text xml:space="preserve" text-anchor="middle" x="1112.53" y="-118.5" font-family="Helvetica,sans-Serif" font-size="10.00">set</text>
</a>
</g>
</g>
<!-- Node1&#45;&gt;Node14 -->
<g id="edge13_Node000001_Node000014" class="edge">
<title>Node1&#45;&gt;Node14</title>
<g id="a_edge13_Node000001_Node000014"><a xlink:title=" ">
<path fill="none" stroke="#63b8ff" d="M827.51,-173.72C883.57,-168.54 988.76,-156.69 1086.49,-132.03"/>
<polygon fill="#63b8ff" stroke="#63b8ff" points="1087.18,-135.47 1095.98,-129.58 1085.43,-128.69 1087.18,-135.47"/>
</a>
</g>
</g>
<!-- Node15 -->
<g id="Node000015" class="node">
<title>Node15</title>
<g id="a_Node000015"><a xlink:title=" ">
<polygon fill="#e0e0e0" stroke="#999999" points="1188.03,-132 1145.03,-132 1145.03,-112 1188.03,-112 1188.03,-132"/>
<text xml:space="preserve" text-anchor="middle" x="1166.53" y="-118.5" font-family="Helvetica,sans-Serif" font-size="10.00">mutex</text>
</a>
</g>
</g>
<!-- Node1&#45;&gt;Node15 -->
<g id="edge14_Node000001_Node000015" class="edge">
<title>Node1&#45;&gt;Node15</title>
<g id="a_edge14_Node000001_Node000015"><a xlink:title=" ">
<path fill="none" stroke="#63b8ff" d="M827.67,-173.97C890.91,-168.73 1017.74,-156.35 1133.51,-132.36"/>
<polygon fill="#63b8ff" stroke="#63b8ff" points="1134.14,-135.81 1143.2,-130.32 1132.69,-128.96 1134.14,-135.81"/>
</a>
</g>
</g>
<!-- Node16 -->
<g id="Node000016" class="node">
<title>Node16</title>
<g id="a_Node000016"><a xlink:href="asn__tlv__codec_8hpp.html" target="_top" xlink:title="ASN.1 BER/TLV codec for SER record payloads.">
<polygon fill="white" stroke="#666666" points="969.4,-132 871.65,-132 871.65,-112 969.4,-112 969.4,-132"/>
<text xml:space="preserve" text-anchor="middle" x="920.53" y="-118.5" font-family="Helvetica,sans-Serif" font-size="10.00">asn_tlv_codec.hpp</text>
</a>
</g>
</g>
<!-- Node1&#45;&gt;Node16 -->
<g id="edge15_Node000001_Node000016" class="edge">
<title>Node1&#45;&gt;Node16</title>
<g id="a_edge15_Node000001_Node000016"><a xlink:title=" ">
<path fill="none" stroke="#63b8ff" d="M810.7,-167.59C831.74,-159.05 863.03,-146.35 886.83,-136.68"/>
<polygon fill="#63b8ff" stroke="#63b8ff" points="887.83,-140.05 895.78,-133.05 885.2,-133.57 887.83,-140.05"/>
</a>
</g>
</g>
<!-- Node23 -->
<g id="Node000023" class="node">
<title>Node23</title>
<g id="a_Node000023"><a xlink:href="ser__database_8hpp.html" target="_top" xlink:title="SQLite database handler for SER records.">
<polygon fill="white" stroke="#666666" points="1299.15,-132 1205.9,-132 1205.9,-112 1299.15,-112 1299.15,-132"/>
<text xml:space="preserve" text-anchor="middle" x="1252.53" y="-118.5" font-family="Helvetica,sans-Serif" font-size="10.00">ser_database.hpp</text>
</a>
</g>
</g>
<!-- Node1&#45;&gt;Node23 -->
<g id="edge27_Node000001_Node000023" class="edge">
<title>Node1&#45;&gt;Node23</title>
<g id="a_edge27_Node000001_Node000023"><a xlink:title=" ">
<path fill="none" stroke="#63b8ff" d="M827.77,-173.3C899.39,-166.55 1053.94,-151.29 1194.1,-132.41"/>
<polygon fill="#63b8ff" stroke="#63b8ff" points="1194.51,-135.89 1203.95,-131.08 1193.57,-128.95 1194.51,-135.89"/>
</a>
</g>
</g>
<!-- Node16&#45;&gt;Node11 -->
<g id="edge18_Node000016_Node000011" class="edge">
<title>Node16&#45;&gt;Node11</title>
<g id="a_edge18_Node000016_Node000011"><a xlink:title=" ">
<path fill="none" stroke="#63b8ff" d="M885.4,-111.65C867.43,-104.89 847.15,-93.74 836.53,-76 826.6,-59.41 841.05,-40.77 855.46,-27.72"/>
<polygon fill="#63b8ff" stroke="#63b8ff" points="857.64,-30.47 863.05,-21.36 853.14,-25.1 857.64,-30.47"/>
</a>
</g>
</g>
<!-- Node16&#45;&gt;Node12 -->
<g id="edge19_Node000016_Node000012" class="edge">
<title>Node16&#45;&gt;Node12</title>
<g id="a_edge19_Node000016_Node000012"><a xlink:title=" ">
<path fill="none" stroke="#63b8ff" d="M927.09,-111.62C939.77,-93.52 967.81,-53.45 984.44,-29.7"/>
<polygon fill="#63b8ff" stroke="#63b8ff" points="987.25,-31.79 990.11,-21.59 981.51,-27.78 987.25,-31.79"/>
</a>
</g>
</g>
<!-- Node17 -->
<g id="Node000017" class="node">
<title>Node17</title>
<g id="a_Node000017"><a xlink:title=" ">
<polygon fill="#e0e0e0" stroke="#999999" points="893.65,-76 845.4,-76 845.4,-56 893.65,-56 893.65,-76"/>
<text xml:space="preserve" text-anchor="middle" x="869.53" y="-62.5" font-family="Helvetica,sans-Serif" font-size="10.00">cstddef</text>
</a>
</g>
</g>
<!-- Node16&#45;&gt;Node17 -->
<g id="edge16_Node000016_Node000017" class="edge">
<title>Node16&#45;&gt;Node17</title>
<g id="a_edge16_Node000016_Node000017"><a xlink:title=" ">
<path fill="none" stroke="#63b8ff" d="M911.65,-111.59C904.63,-104.16 894.63,-93.58 886.14,-84.58"/>
<polygon fill="#63b8ff" stroke="#63b8ff" points="888.76,-82.27 879.35,-77.4 883.67,-87.07 888.76,-82.27"/>
</a>
</g>
</g>
<!-- Node18 -->
<g id="Node000018" class="node">
<title>Node18</title>
<g id="a_Node000018"><a xlink:title=" ">
<polygon fill="#e0e0e0" stroke="#999999" points="789.15,-76 743.9,-76 743.9,-56 789.15,-56 789.15,-76"/>
<text xml:space="preserve" text-anchor="middle" x="766.53" y="-62.5" font-family="Helvetica,sans-Serif" font-size="10.00">cstdint</text>
</a>
</g>
</g>
<!-- Node16&#45;&gt;Node18 -->
<g id="edge17_Node000016_Node000018" class="edge">
<title>Node16&#45;&gt;Node18</title>
<g id="a_edge17_Node000016_Node000018"><a xlink:title=" ">
<path fill="none" stroke="#63b8ff" d="M893.7,-111.59C867.69,-102.47 828.13,-88.6 800.05,-78.75"/>
<polygon fill="#63b8ff" stroke="#63b8ff" points="801.56,-75.57 790.96,-75.57 799.24,-82.18 801.56,-75.57"/>
</a>
</g>
</g>
<!-- Node19 -->
<g id="Node000019" class="node">
<title>Node19</title>
<g id="a_Node000019"><a xlink:href="ser__record_8hpp.html" target="_top" xlink:title="System Event Record (SER) data structure and parser.">
<polygon fill="white" stroke="#666666" points="1143.78,-76 1063.28,-76 1063.28,-56 1143.78,-56 1143.78,-76"/>
<text xml:space="preserve" text-anchor="middle" x="1103.53" y="-62.5" font-family="Helvetica,sans-Serif" font-size="10.00">ser_record.hpp</text>
</a>
</g>
</g>
<!-- Node16&#45;&gt;Node19 -->
<g id="edge20_Node000016_Node000019" class="edge">
<title>Node16&#45;&gt;Node19</title>
<g id="a_edge20_Node000016_Node000019"><a xlink:title=" ">
<path fill="none" stroke="#63b8ff" d="M952.41,-111.59C982.4,-102.74 1027.53,-89.43 1060.67,-79.65"/>
<polygon fill="#63b8ff" stroke="#63b8ff" points="1061.35,-83.09 1069.95,-76.91 1059.37,-76.38 1061.35,-83.09"/>
</a>
</g>
</g>
<!-- Node19&#45;&gt;Node2 -->
<g id="edge21_Node000019_Node000002" class="edge">
<title>Node19&#45;&gt;Node2</title>
<g id="a_edge21_Node000019_Node000002"><a xlink:title=" ">
<path fill="none" stroke="#63b8ff" d="M1139.41,-55.59C1173.47,-46.67 1224.86,-33.19 1262.25,-23.39"/>
<polygon fill="#63b8ff" stroke="#63b8ff" points="1263.12,-26.78 1271.9,-20.86 1261.34,-20.01 1263.12,-26.78"/>
</a>
</g>
</g>
<!-- Node19&#45;&gt;Node11 -->
<g id="edge22_Node000019_Node000011" class="edge">
<title>Node19&#45;&gt;Node11</title>
<g id="a_edge22_Node000019_Node000011"><a xlink:title=" ">
<path fill="none" stroke="#63b8ff" d="M1063.9,-55.53C1019.78,-44.99 949.34,-28.16 908.88,-18.49"/>
<polygon fill="#63b8ff" stroke="#63b8ff" points="909.84,-15.12 899.3,-16.2 908.21,-21.93 909.84,-15.12"/>
</a>
</g>
</g>
<!-- Node19&#45;&gt;Node12 -->
<g id="edge23_Node000019_Node000012" class="edge">
<title>Node19&#45;&gt;Node12</title>
<g id="a_edge23_Node000019_Node000012"><a xlink:title=" ">
<path fill="none" stroke="#63b8ff" d="M1085.07,-55.59C1068.83,-47.32 1044.92,-35.14 1026.2,-25.6"/>
<polygon fill="#63b8ff" stroke="#63b8ff" points="1027.99,-22.59 1017.49,-21.17 1024.81,-28.82 1027.99,-22.59"/>
</a>
</g>
</g>
<!-- Node20 -->
<g id="Node000020" class="node">
<title>Node20</title>
<g id="a_Node000020"><a xlink:title=" ">
<polygon fill="#e0e0e0" stroke="#999999" points="1225.15,-20 1173.9,-20 1173.9,0 1225.15,0 1225.15,-20"/>
<text xml:space="preserve" text-anchor="middle" x="1199.53" y="-6.5" font-family="Helvetica,sans-Serif" font-size="10.00">sstream</text>
</a>
</g>
</g>
<!-- Node19&#45;&gt;Node20 -->
<g id="edge24_Node000019_Node000020" class="edge">
<title>Node19&#45;&gt;Node20</title>
<g id="a_edge24_Node000019_Node000020"><a xlink:title=" ">
<path fill="none" stroke="#63b8ff" d="M1120.25,-55.59C1134.75,-47.44 1156,-35.48 1172.85,-26"/>
<polygon fill="#63b8ff" stroke="#63b8ff" points="1174.36,-29.17 1181.36,-21.22 1170.93,-23.07 1174.36,-29.17"/>
</a>
</g>
</g>
<!-- Node21 -->
<g id="Node000021" class="node">
<title>Node21</title>
<g id="a_Node000021"><a xlink:title=" ">
<polygon fill="#e0e0e0" stroke="#999999" points="1092.4,-20 1036.65,-20 1036.65,0 1092.4,0 1092.4,-20"/>
<text xml:space="preserve" text-anchor="middle" x="1064.53" y="-6.5" font-family="Helvetica,sans-Serif" font-size="10.00">algorithm</text>
</a>
</g>
</g>
<!-- Node19&#45;&gt;Node21 -->
<g id="edge25_Node000019_Node000021" class="edge">
<title>Node19&#45;&gt;Node21</title>
<g id="a_edge25_Node000019_Node000021"><a xlink:title=" ">
<path fill="none" stroke="#63b8ff" d="M1096.74,-55.59C1091.54,-48.39 1084.2,-38.23 1077.84,-29.43"/>
<polygon fill="#63b8ff" stroke="#63b8ff" points="1080.82,-27.58 1072.13,-21.53 1075.15,-31.68 1080.82,-27.58"/>
</a>
</g>
</g>
<!-- Node22 -->
<g id="Node000022" class="node">
<title>Node22</title>
<g id="a_Node000022"><a xlink:title=" ">
<polygon fill="#e0e0e0" stroke="#999999" points="1156.15,-20 1110.9,-20 1110.9,0 1156.15,0 1156.15,-20"/>
<text xml:space="preserve" text-anchor="middle" x="1133.53" y="-6.5" font-family="Helvetica,sans-Serif" font-size="10.00">cctype</text>
</a>
</g>
</g>
<!-- Node19&#45;&gt;Node22 -->
<g id="edge26_Node000019_Node000022" class="edge">
<title>Node19&#45;&gt;Node22</title>
<g id="a_edge26_Node000019_Node000022"><a xlink:title=" ">
<path fill="none" stroke="#63b8ff" d="M1108.76,-55.59C1112.63,-48.63 1118.04,-38.89 1122.81,-30.29"/>
<polygon fill="#63b8ff" stroke="#63b8ff" points="1125.83,-32.06 1127.63,-21.62 1119.71,-28.66 1125.83,-32.06"/>
</a>
</g>
</g>
<!-- Node23&#45;&gt;Node2 -->
<g id="edge28_Node000023_Node000002" class="edge">
<title>Node23&#45;&gt;Node2</title>
<g id="a_edge28_Node000023_Node000002"><a xlink:title=" ">
<path fill="none" stroke="#63b8ff" d="M1262.61,-111.53C1271.16,-102.99 1283.18,-89.69 1290.53,-76 1298.03,-62.03 1302.9,-44.73 1305.83,-31.5"/>
<polygon fill="#63b8ff" stroke="#63b8ff" points="1309.25,-32.27 1307.77,-21.78 1302.38,-30.9 1309.25,-32.27"/>
</a>
</g>
</g>
<!-- Node23&#45;&gt;Node11 -->
<g id="edge29_Node000023_Node000011" class="edge">
<title>Node23&#45;&gt;Node11</title>
<g id="a_edge29_Node000023_Node000011"><a xlink:title=" ">
<path fill="none" stroke="#63b8ff" d="M1205.61,-112.88C1149.57,-102.97 1059.26,-86.27 1026.53,-76 982.88,-62.31 934.77,-39.9 905.35,-25.3"/>
<polygon fill="#63b8ff" stroke="#63b8ff" points="907.26,-22.34 896.75,-20.98 904.12,-28.59 907.26,-22.34"/>
</a>
</g>
</g>
<!-- Node23&#45;&gt;Node12 -->
<g id="edge30_Node000023_Node000012" class="edge">
<title>Node23&#45;&gt;Node12</title>
<g id="a_edge30_Node000023_Node000012"><a xlink:title=" ">
<path fill="none" stroke="#63b8ff" d="M1205.82,-111.96C1151.47,-101.2 1067.48,-83.71 1054.53,-76 1035.25,-64.52 1019.05,-44.28 1008.91,-29.43"/>
<polygon fill="#63b8ff" stroke="#63b8ff" points="1012.1,-27.92 1003.71,-21.45 1006.24,-31.74 1012.1,-27.92"/>
</a>
</g>
</g>
<!-- Node23&#45;&gt;Node19 -->
<g id="edge33_Node000023_Node000019" class="edge">
<title>Node23&#45;&gt;Node19</title>
<g id="a_edge33_Node000023_Node000019"><a xlink:title=" ">
<path fill="none" stroke="#63b8ff" d="M1226.58,-111.59C1202.69,-102.94 1167,-90 1140.2,-80.29"/>
<polygon fill="#63b8ff" stroke="#63b8ff" points="1141.7,-77.11 1131.11,-77 1139.32,-83.69 1141.7,-77.11"/>
</a>
</g>
</g>
<!-- Node24 -->
<g id="Node000024" class="node">
<title>Node24</title>
<g id="a_Node000024"><a xlink:title=" ">
<polygon fill="#e0e0e0" stroke="#999999" points="1211.03,-76 1162.03,-76 1162.03,-56 1211.03,-56 1211.03,-76"/>
<text xml:space="preserve" text-anchor="middle" x="1186.53" y="-62.5" font-family="Helvetica,sans-Serif" font-size="10.00">fstream</text>
</a>
</g>
</g>
<!-- Node23&#45;&gt;Node24 -->
<g id="edge31_Node000023_Node000024" class="edge">
<title>Node23&#45;&gt;Node24</title>
<g id="a_edge31_Node000023_Node000024"><a xlink:title=" ">
<path fill="none" stroke="#63b8ff" d="M1241.03,-111.59C1231.57,-103.85 1217.93,-92.69 1206.66,-83.47"/>
<polygon fill="#63b8ff" stroke="#63b8ff" points="1209.02,-80.88 1199.07,-77.26 1204.59,-86.3 1209.02,-80.88"/>
</a>
</g>
</g>
<!-- Node25 -->
<g id="Node000025" class="node">
<title>Node25</title>
<g id="a_Node000025"><a xlink:title=" ">
<polygon fill="#e0e0e0" stroke="#999999" points="1281.9,-76 1229.15,-76 1229.15,-56 1281.9,-56 1281.9,-76"/>
<text xml:space="preserve" text-anchor="middle" x="1255.53" y="-62.5" font-family="Helvetica,sans-Serif" font-size="10.00">sqlite3.h</text>
</a>
</g>
</g>
<!-- Node23&#45;&gt;Node25 -->
<g id="edge32_Node000023_Node000025" class="edge">
<title>Node23&#45;&gt;Node25</title>
<g id="a_edge32_Node000023_Node000025"><a xlink:title=" ">
<path fill="none" stroke="#63b8ff" d="M1253.05,-111.59C1253.42,-105.01 1253.92,-95.96 1254.38,-87.73"/>
<polygon fill="#63b8ff" stroke="#63b8ff" points="1257.87,-87.99 1254.93,-77.81 1250.88,-87.6 1257.87,-87.99"/>
</a>
</g>
</g>
</g>
</svg>
