<?xml version="1.0" encoding="UTF-8" standalone="no"?>
<!DOCTYPE svg PUBLIC "-//W3C//DTD SVG 1.1//EN"
 "http://www.w3.org/Graphics/SVG/1.1/DTD/svg11.dtd">
<!-- Generated by graphviz version 14.1.1 (20251213.1925)
 -->
<!-- Title: ws_server.hpp Pages: 1 -->
<svg width="1464pt" height="196pt"
 viewBox="0.00 0.00 1464.00 196.00" xmlns="http://www.w3.org/2000/svg" xmlns:xlink="http://www.w3.org/1999/xlink">
<g id="graph0" class="graph" transform="scale(1 1) rotate(0) translate(4 192)">
<title>ws_server.hpp</title>
<!-- Node1 -->
<g id="Node000001" class="node">
<title>Node1</title>
<g id="a_Node000001"><a xlink:title="WebSocket Server for Real&#45;time SER Data Access.">
<polygon fill="#999999" stroke="#666666" points="895.42,-188 815.67,-188 815.67,-168 895.42,-168 895.42,-188"/>
<text xml:space="preserve" text-anchor="middle" x="855.54" y="-174.5" font-family="Helvetica,sans-Serif" font-size="10.00">ws_server.hpp</text>
</a>
</g>
</g>
<!-- Node2 -->
<g id="Node000002" class="node">
<title>Node2</title>
<g id="a_Node000002"><a xlink:href="dll__export_8hpp.html" target="_top" xlink:title="DLL Export/Import Macros for Windows.">
<polygon fill="white" stroke="#666666" points="1455.92,-20 1379.17,-20 1379.17,0 1455.92,0 1455.92,-20"/>
<text xml:space="preserve" text-anchor="middle" x="1417.54" y="-6.5" font-family="Helvetica,sans-Serif" font-size="10.00">dll_export.hpp</text>
</a>
</g>
</g>
<!-- Node1&#45;&gt;Node2 -->
<g id="edge1_Node000001_Node000002" class="edge">
<title>Node1&#45;&gt;Node2</title>
<g id="a_edge1_Node000001_Node000002"><a xlink:title=" ">
<path fill="none" stroke="#63b8ff" d="M895.67,-176.97C1021.15,-176.45 1399.91,-171.58 1436.54,-132 1462.2,-104.28 1443.11,-56.77 1429.01,-30.28"/>
<polygon fill="#63b8ff" stroke="#63b8ff" points="1432.11,-28.66 1424.16,-21.66 1426.01,-32.09 1432.11,-28.66"/>
</a>
</g>
</g>
<!-- Node3 -->
<g id="Node000003" class="node">
<title>Node3</title>
<g id="a_Node000003"><a xlink:title=" ">
<polygon fill="#e0e0e0" stroke="#999999" points="63.42,-132 13.67,-132 13.67,-112 63.42,-112 63.42,-132"/>
<text xml:space="preserve" text-anchor="middle" x="38.54" y="-118.5" font-family="Helvetica,sans-Serif" font-size="10.00">optional</text>
</a>
</g>
</g>
<!-- Node1&#45;&gt;Node3 -->
<g id="edge2_Node000001_Node000003" class="edge">
<title>Node1&#45;&gt;Node3</title>
<g id="a_edge2_Node000001_Node000003"><a xlink:title=" ">
<path fill="none" stroke="#63b8ff" d="M815.31,-177.53C700.74,-178.44 362.97,-176.95 74.77,-132.01"/>
<polygon fill="#63b8ff" stroke="#63b8ff" points="75.59,-128.6 65.17,-130.49 74.5,-135.51 75.59,-128.6"/>
</a>
</g>
</g>
<!-- Node4 -->
<g id="Node000004" class="node">
<title>Node4</title>
<g id="a_Node000004"><a xlink:title=" ">
<polygon fill="#e0e0e0" stroke="#999999" points="189.29,-132 81.79,-132 81.79,-112 189.29,-112 189.29,-132"/>
<text xml:space="preserve" text-anchor="middle" x="135.54" y="-118.5" font-family="Helvetica,sans-Serif" font-size="10.00">boost/beast/core.hpp</text>
</a>
</g>
</g>
<!-- Node1&#45;&gt;Node4 -->
<g id="edge3_Node000001_Node000004" class="edge">
<title>Node1&#45;&gt;Node4</title>
<g id="a_edge3_Node000001_Node000004"><a xlink:title=" ">
<path fill="none" stroke="#63b8ff" d="M815.46,-175.28C714.32,-170.73 440.37,-157.03 200.85,-132.16"/>
<polygon fill="#63b8ff" stroke="#63b8ff" points="201.28,-128.69 190.97,-131.13 200.55,-135.65 201.28,-128.69"/>
</a>
</g>
</g>
<!-- Node5 -->
<g id="Node000005" class="node">
<title>Node5</title>
<g id="a_Node000005"><a xlink:title=" ">
<polygon fill="#e0e0e0" stroke="#999999" points="343.54,-132 207.54,-132 207.54,-112 343.54,-112 343.54,-132"/>
<text xml:space="preserve" text-anchor="middle" x="275.54" y="-118.5" font-family="Helvetica,sans-Serif" font-size="10.00">boost/beast/websocket.hpp</text>
</a>
</g>
</g>
<!-- Node1&#45;&gt;Node5 -->
<g id="edge4_Node000001_Node000005" class="edge">
<title>Node1&#45;&gt;Node5</title>
<g id="a_edge4_Node000001_Node000005"><a xlink:title=" ">
<path fill="none" stroke="#63b8ff" d="M815.41,-173.78C731.92,-167.01 533.15,-150.46 355.38,-132.27"/>
<polygon fill="#63b8ff" stroke="#63b8ff" points="355.78,-128.79 345.47,-131.25 355.06,-135.75 355.78,-128.79"/>
</a>
</g>
</g>
<!-- Node6 -->
<g id="Node000006" class="node">
<title>Node6</title>
<g id="a_Node000006"><a xlink:title=" ">
<polygon fill="#e0e0e0" stroke="#999999" points="467.92,-132 361.17,-132 361.17,-112 467.92,-112 467.92,-132"/>
<text xml:space="preserve" text-anchor="middle" x="414.54" y="-118.5" font-family="Helvetica,sans-Serif" font-size="10.00">boost/asio/ip/tcp.hpp</text>
</a>
</g>
</g>
<!-- Node1&#45;&gt;Node6 -->
<g id="edge5_Node000001_Node000006" class="edge">
<title>Node1&#45;&gt;Node6</title>
<g id="a_edge5_Node000001_Node000006"><a xlink:title=" ">
<path fill="none" stroke="#63b8ff" d="M815.39,-172.58C748.12,-165.1 608.1,-149.2 479.51,-132.37"/>
<polygon fill="#63b8ff" stroke="#63b8ff" points="480.17,-128.92 469.8,-131.09 479.26,-135.86 480.17,-128.92"/>
</a>
</g>
</g>
<!-- Node7 -->
<g id="Node000007" class="node">
<title>Node7</title>
<g id="a_Node000007"><a xlink:title=" ">
<polygon fill="#e0e0e0" stroke="#999999" points="595.42,-132 485.67,-132 485.67,-112 595.42,-112 595.42,-132"/>
<text xml:space="preserve" text-anchor="middle" x="540.54" y="-118.5" font-family="Helvetica,sans-Serif" font-size="10.00">boost/asio/strand.hpp</text>
</a>
</g>
</g>
<!-- Node1&#45;&gt;Node7 -->
<g id="edge6_Node000001_Node000007" class="edge">
<title>Node1&#45;&gt;Node7</title>
<g id="a_edge6_Node000001_Node000007"><a xlink:title=" ">
<path fill="none" stroke="#63b8ff" d="M815.33,-170.11C762.76,-161.09 669.96,-145.19 606.9,-134.37"/>
<polygon fill="#63b8ff" stroke="#63b8ff" points="607.82,-130.98 597.37,-132.74 606.63,-137.88 607.82,-130.98"/>
</a>
</g>
</g>
<!-- Node8 -->
<g id="Node000008" class="node">
<title>Node8</title>
<g id="a_Node000008"><a xlink:title=" ">
<polygon fill="#e0e0e0" stroke="#999999" points="715.29,-132 613.79,-132 613.79,-112 715.29,-112 715.29,-132"/>
<text xml:space="preserve" text-anchor="middle" x="664.54" y="-118.5" font-family="Helvetica,sans-Serif" font-size="10.00">boost/asio/post.hpp</text>
</a>
</g>
</g>
<!-- Node1&#45;&gt;Node8 -->
<g id="edge7_Node000001_Node000008" class="edge">
<title>Node1&#45;&gt;Node8</title>
<g id="a_edge7_Node000001_Node000008"><a xlink:title=" ">
<path fill="none" stroke="#63b8ff" d="M822.28,-167.59C790.83,-158.71 743.46,-145.31 708.83,-135.52"/>
<polygon fill="#63b8ff" stroke="#63b8ff" points="710.11,-132.24 699.53,-132.89 708.2,-138.98 710.11,-132.24"/>
</a>
</g>
</g>
<!-- Node9 -->
<g id="Node000009" class="node">
<title>Node9</title>
<g id="a_Node000009"><a xlink:title=" ">
<polygon fill="#e0e0e0" stroke="#999999" points="776.04,-132 733.04,-132 733.04,-112 776.04,-112 776.04,-132"/>
<text xml:space="preserve" text-anchor="middle" x="754.54" y="-118.5" font-family="Helvetica,sans-Serif" font-size="10.00">thread</text>
</a>
</g>
</g>
<!-- Node1&#45;&gt;Node9 -->
<g id="edge8_Node000001_Node000009" class="edge">
<title>Node1&#45;&gt;Node9</title>
<g id="a_edge8_Node000001_Node000009"><a xlink:title=" ">
<path fill="none" stroke="#63b8ff" d="M837.95,-167.59C822.62,-159.4 800.13,-147.37 782.36,-137.87"/>
<polygon fill="#63b8ff" stroke="#63b8ff" points="784.08,-134.82 773.61,-133.19 780.78,-140.99 784.08,-134.82"/>
</a>
</g>
</g>
<!-- Node10 -->
<g id="Node000010" class="node">
<title>Node10</title>
<g id="a_Node000010"><a xlink:title=" ">
<polygon fill="#e0e0e0" stroke="#999999" points="845.17,-132 793.92,-132 793.92,-112 845.17,-112 845.17,-132"/>
<text xml:space="preserve" text-anchor="middle" x="819.54" y="-118.5" font-family="Helvetica,sans-Serif" font-size="10.00">memory</text>
</a>
</g>
</g>
<!-- Node1&#45;&gt;Node10 -->
<g id="edge9_Node000001_Node000010" class="edge">
<title>Node1&#45;&gt;Node10</title>
<g id="a_edge9_Node000001_Node000010"><a xlink:title=" ">
<path fill="none" stroke="#63b8ff" d="M849.27,-167.59C844.52,-160.47 837.85,-150.45 832.02,-141.72"/>
<polygon fill="#63b8ff" stroke="#63b8ff" points="835.04,-139.94 826.58,-133.56 829.22,-143.82 835.04,-139.94"/>
</a>
</g>
</g>
<!-- Node11 -->
<g id="Node000011" class="node">
<title>Node11</title>
<g id="a_Node000011"><a xlink:title=" ">
<polygon fill="#e0e0e0" stroke="#999999" points="921.54,-132 863.54,-132 863.54,-112 921.54,-112 921.54,-132"/>
<text xml:space="preserve" text-anchor="middle" x="892.54" y="-118.5" font-family="Helvetica,sans-Serif" font-size="10.00">functional</text>
</a>
</g>
</g>
<!-- Node1&#45;&gt;Node11 -->
<g id="edge10_Node000001_Node000011" class="edge">
<title>Node1&#45;&gt;Node11</title>
<g id="a_edge10_Node000001_Node000011"><a xlink:title=" ">
<path fill="none" stroke="#63b8ff" d="M861.99,-167.59C866.87,-160.47 873.74,-150.45 879.72,-141.72"/>
<polygon fill="#63b8ff" stroke="#63b8ff" points="882.55,-143.77 885.32,-133.55 876.78,-139.82 882.55,-143.77"/>
</a>
</g>
</g>
<!-- Node12 -->
<g id="Node000012" class="node">
<title>Node12</title>
<g id="a_Node000012"><a xlink:title=" ">
<polygon fill="#e0e0e0" stroke="#999999" points="977.54,-20 937.54,-20 937.54,0 977.54,0 977.54,-20"/>
<text xml:space="preserve" text-anchor="middle" x="957.54" y="-6.5" font-family="Helvetica,sans-Serif" font-size="10.00">string</text>
</a>
</g>
</g>
<!-- Node1&#45;&gt;Node12 -->
<g id="edge11_Node000001_Node000012" class="edge">
<title>Node1&#45;&gt;Node12</title>
<g id="a_edge11_Node000001_Node000012"><a xlink:title=" ">
<path fill="none" stroke="#63b8ff" d="M815.44,-176.4C650.62,-173.73 32.77,-161.75 4.54,-132 -1.57,-125.55 -1.4,-118.61 4.54,-112 67.72,-41.78 768.69,-16.66 926.23,-11.89"/>
<polygon fill="#63b8ff" stroke="#63b8ff" points="926.01,-15.4 935.91,-11.6 925.81,-8.4 926.01,-15.4"/>
</a>
</g>
</g>
<!-- Node13 -->
<g id="Node000013" class="node">
<title>Node13</title>
<g id="a_Node000013"><a xlink:title=" ">
<polygon fill="#e0e0e0" stroke="#999999" points="1099.04,-20 1056.04,-20 1056.04,0 1099.04,0 1099.04,-20"/>
<text xml:space="preserve" text-anchor="middle" x="1077.54" y="-6.5" font-family="Helvetica,sans-Serif" font-size="10.00">vector</text>
</a>
</g>
</g>
<!-- Node1&#45;&gt;Node13 -->
<g id="edge12_Node000001_Node000013" class="edge">
<title>Node1&#45;&gt;Node13</title>
<g id="a_edge12_Node000001_Node000013"><a xlink:title=" ">
<path fill="none" stroke="#63b8ff" d="M895.69,-172.44C945.21,-166.01 1025.45,-152.69 1046.54,-132 1073.55,-105.51 1078.15,-58.93 1078.33,-31.95"/>
<polygon fill="#63b8ff" stroke="#63b8ff" points="1081.83,-31.9 1078.17,-21.96 1074.83,-32.02 1081.83,-31.9"/>
</a>
</g>
</g>
<!-- Node14 -->
<g id="Node000014" class="node">
<title>Node14</title>
<g id="a_Node000014"><a xlink:title=" ">
<polygon fill="#e0e0e0" stroke="#999999" points="1135.67,-132 1093.42,-132 1093.42,-112 1135.67,-112 1135.67,-132"/>
<text xml:space="preserve" text-anchor="middle" x="1114.54" y="-118.5" font-family="Helvetica,sans-Serif" font-size="10.00">deque</text>
</a>
</g>
</g>
<!-- Node1&#45;&gt;Node14 -->
<g id="edge13_Node000001_Node000014" class="edge">
<title>Node1&#45;&gt;Node14</title>
<g id="a_edge13_Node000001_Node000014"><a xlink:title=" ">
<path fill="none" stroke="#63b8ff" d="M895.74,-169.6C940.68,-161.16 1015.55,-146.64 1079.54,-132 1080.37,-131.81 1081.21,-131.62 1082.05,-131.42"/>
<polygon fill="#63b8ff" stroke="#63b8ff" points="1082.77,-134.85 1091.65,-129.06 1081.1,-128.05 1082.77,-134.85"/>
</a>
</g>
</g>
<!-- Node15 -->
<g id="Node000015" class="node">
<title>Node15</title>
<g id="a_Node000015"><a xlink:title=" ">
<polygon fill="#e0e0e0" stroke="#999999" points="1207.29,-132 1153.79,-132 1153.79,-112 1207.29,-112 1207.29,-132"/>
<text xml:space="preserve" text-anchor="middle" x="1180.54" y="-118.5" font-family="Helvetica,sans-Serif" font-size="10.00">iostream</text>
</a>
</g>
</g>
<!-- Node1&#45;&gt;Node15 -->
<g id="edge14_Node000001_Node000015" class="edge">
<title>Node1&#45;&gt;Node15</title>
<g id="a_edge14_Node000001_Node000015"><a xlink:title=" ">
<path fill="none" stroke="#63b8ff" d="M895.48,-171.95C949.3,-164.88 1048.3,-150.99 1142.33,-132.29"/>
<polygon fill="#63b8ff" stroke="#63b8ff" points="1142.88,-135.75 1151.99,-130.34 1141.5,-128.89 1142.88,-135.75"/>
</a>
</g>
</g>
<!-- Node16 -->
<g id="Node000016" class="node">
<title>Node16</title>
<g id="a_Node000016"><a xlink:title=" ">
<polygon fill="#e0e0e0" stroke="#999999" points="1255.29,-132 1225.79,-132 1225.79,-112 1255.29,-112 1255.29,-132"/>
<text xml:space="preserve" text-anchor="middle" x="1240.54" y="-118.5" font-family="Helvetica,sans-Serif" font-size="10.00">set</text>
</a>
</g>
</g>
<!-- Node1&#45;&gt;Node16 -->
<g id="edge15_Node000001_Node000016" class="edge">
<title>Node1&#45;&gt;Node16</title>
<g id="a_edge15_Node000001_Node000016"><a xlink:title=" ">
<path fill="none" stroke="#63b8ff" d="M895.9,-175.06C961.25,-171.26 1094.23,-160.76 1214.62,-131.92"/>
<polygon fill="#63b8ff" stroke="#63b8ff" points="1215.13,-135.4 1224.01,-129.62 1213.46,-128.6 1215.13,-135.4"/>
</a>
</g>
</g>
<!-- Node17 -->
<g id="Node000017" class="node">
<title>Node17</title>
<g id="a_Node000017"><a xlink:title=" ">
<polygon fill="#e0e0e0" stroke="#999999" points="1316.04,-132 1273.04,-132 1273.04,-112 1316.04,-112 1316.04,-132"/>
<text xml:space="preserve" text-anchor="middle" x="1294.54" y="-118.5" font-family="Helvetica,sans-Serif" font-size="10.00">mutex</text>
</a>
</g>
</g>
<!-- Node1&#45;&gt;Node17 -->
<g id="edge16_Node000001_Node000017" class="edge">
<title>Node1&#45;&gt;Node17</title>
<g id="a_edge16_Node000001_Node000017"><a xlink:title=" ">
<path fill="none" stroke="#63b8ff" d="M895.69,-175.01C967.45,-170.93 1122.55,-159.75 1261.46,-132.32"/>
<polygon fill="#63b8ff" stroke="#63b8ff" points="1262.11,-135.76 1271.22,-130.35 1260.73,-128.89 1262.11,-135.76"/>
</a>
</g>
</g>
<!-- Node18 -->
<g id="Node000018" class="node">
<title>Node18</title>
<g id="a_Node000018"><a xlink:href="asn__tlv__codec_8hpp.html" target="_top" xlink:title="ASN.1 BER/TLV codec for SER record payloads.">
<polygon fill="white" stroke="#666666" points="1037.42,-132 939.67,-132 939.67,-112 1037.42,-112 1037.42,-132"/>
<text xml:space="preserve" text-anchor="middle" x="988.54" y="-118.5" font-family="Helvetica,sans-Serif" font-size="10.00">asn_tlv_codec.hpp</text>
</a>
</g>
</g>
<!-- Node1&#45;&gt;Node18 -->
<g id="edge17_Node000001_Node000018" class="edge">
<title>Node1&#45;&gt;Node18</title>
<g id="a_edge17_Node000001_Node000018"><a xlink:title=" ">
<path fill="none" stroke="#63b8ff" d="M878.71,-167.59C899.75,-159.05 931.04,-146.35 954.85,-136.68"/>
<polygon fill="#63b8ff" stroke="#63b8ff" points="955.85,-140.05 963.79,-133.05 953.21,-133.57 955.85,-140.05"/>
</a>
</g>
</g>
<!-- Node25 -->
<g id="Node000025" class="node">
<title>Node25</title>
<g id="a_Node000025"><a xlink:href="ser__database_8hpp.html" target="_top" xlink:title="SQLite database handler for SER records.">
<polygon fill="white" stroke="#666666" points="1427.17,-132 1333.92,-132 1333.92,-112 1427.17,-112 1427.17,-132"/>
<text xml:space="preserve" text-anchor="middle" x="1380.54" y="-118.5" font-family="Helvetica,sans-Serif" font-size="10.00">ser_database.hpp</text>
</a>
</g>
</g>
<!-- Node1&#45;&gt;Node25 -->
<g id="edge29_Node000001_Node000025" class="edge">
<title>Node1&#45;&gt;Node25</title>
<g id="a_edge29_Node000001_Node000025"><a xlink:title=" ">
<path fill="none" stroke="#63b8ff" d="M895.88,-174.05C975.47,-168.03 1158.56,-153.22 1322.22,-132.36"/>
<polygon fill="#63b8ff" stroke="#63b8ff" points="1322.5,-135.86 1331.97,-131.11 1321.6,-128.91 1322.5,-135.86"/>
</a>
</g>
</g>
<!-- Node18&#45;&gt;Node12 -->
<g id="edge20_Node000018_Node000012" class="edge">
<title>Node18&#45;&gt;Node12</title>
<g id="a_edge20_Node000018_Node000012"><a xlink:title=" ">
<path fill="none" stroke="#63b8ff" d="M960.87,-111.53C944.83,-104.45 925.98,-93.02 916.54,-76 907.23,-59.18 921.39,-40.71 935.55,-27.76"/>
<polygon fill="#63b8ff" stroke="#63b8ff" points="937.62,-30.59 943,-21.46 933.1,-25.25 937.62,-30.59"/>
</a>
</g>
</g>
<!-- Node18&#45;&gt;Node13 -->
<g id="edge21_Node000018_Node000013" class="edge">
<title>Node18&#45;&gt;Node13</title>
<g id="a_edge21_Node000018_Node000013"><a xlink:title=" ">
<path fill="none" stroke="#63b8ff" d="M996.13,-111.62C1010.91,-93.36 1043.78,-52.73 1062.93,-29.07"/>
<polygon fill="#63b8ff" stroke="#63b8ff" points="1065.45,-31.51 1069.02,-21.53 1060.01,-27.1 1065.45,-31.51"/>
</a>
</g>
</g>
<!-- Node19 -->
<g id="Node000019" class="node">
<title>Node19</title>
<g id="a_Node000019"><a xlink:title=" ">
<polygon fill="#e0e0e0" stroke="#999999" points="973.67,-76 925.42,-76 925.42,-56 973.67,-56 973.67,-76"/>
<text xml:space="preserve" text-anchor="middle" x="949.54" y="-62.5" font-family="Helvetica,sans-Serif" font-size="10.00">cstddef</text>
</a>
</g>
</g>
<!-- Node18&#45;&gt;Node19 -->
<g id="edge18_Node000018_Node000019" class="edge">
<title>Node18&#45;&gt;Node19</title>
<g id="a_edge18_Node000018_Node000019"><a xlink:title=" ">
<path fill="none" stroke="#63b8ff" d="M981.75,-111.59C976.55,-104.39 969.21,-94.23 962.86,-85.43"/>
<polygon fill="#63b8ff" stroke="#63b8ff" points="965.84,-83.58 957.15,-77.53 960.16,-87.68 965.84,-83.58"/>
</a>
</g>
</g>
<!-- Node20 -->
<g id="Node000020" class="node">
<title>Node20</title>
<g id="a_Node000020"><a xlink:title=" ">
<polygon fill="#e0e0e0" stroke="#999999" points="869.17,-76 823.92,-76 823.92,-56 869.17,-56 869.17,-76"/>
<text xml:space="preserve" text-anchor="middle" x="846.54" y="-62.5" font-family="Helvetica,sans-Serif" font-size="10.00">cstdint</text>
</a>
</g>
</g>
<!-- Node18&#45;&gt;Node20 -->
<g id="edge19_Node000018_Node000020" class="edge">
<title>Node18&#45;&gt;Node20</title>
<g id="a_edge19_Node000018_Node000020"><a xlink:title=" ">
<path fill="none" stroke="#63b8ff" d="M963.81,-111.59C940.69,-102.8 905.98,-89.6 880.32,-79.84"/>
<polygon fill="#63b8ff" stroke="#63b8ff" points="881.59,-76.58 871,-76.3 879.1,-83.13 881.59,-76.58"/>
</a>
</g>
</g>
<!-- Node21 -->
<g id="Node000021" class="node">
<title>Node21</title>
<g id="a_Node000021"><a xlink:href="ser__record_8hpp.html" target="_top" xlink:title="System Event Record (SER) data structure and parser.">
<polygon fill="white" stroke="#666666" points="1246.79,-76 1166.29,-76 1166.29,-56 1246.79,-56 1246.79,-76"/>
<text xml:space="preserve" text-anchor="middle" x="1206.54" y="-62.5" font-family="Helvetica,sans-Serif" font-size="10.00">ser_record.hpp</text>
</a>
</g>
</g>
<!-- Node18&#45;&gt;Node21 -->
<g id="edge22_Node000018_Node000021" class="edge">
<title>Node18&#45;&gt;Node21</title>
<g id="a_edge22_Node000018_Node000021"><a xlink:title=" ">
<path fill="none" stroke="#63b8ff" d="M1026.77,-111.53C1063.08,-102.54 1117.85,-88.97 1157.39,-79.18"/>
<polygon fill="#63b8ff" stroke="#63b8ff" points="1158.03,-82.62 1166.9,-76.82 1156.35,-75.83 1158.03,-82.62"/>
</a>
</g>
</g>
<!-- Node21&#45;&gt;Node2 -->
<g id="edge23_Node000021_Node000002" class="edge">
<title>Node21&#45;&gt;Node2</title>
<g id="a_edge23_Node000021_Node000002"><a xlink:title=" ">
<path fill="none" stroke="#63b8ff" d="M1243.3,-55.59C1278.33,-46.63 1331.28,-33.08 1369.61,-23.27"/>
<polygon fill="#63b8ff" stroke="#63b8ff" points="1370.22,-26.72 1379.04,-20.85 1368.48,-19.94 1370.22,-26.72"/>
</a>
</g>
</g>
<!-- Node21&#45;&gt;Node12 -->
<g id="edge24_Node000021_Node000012" class="edge">
<title>Node21&#45;&gt;Node12</title>
<g id="a_edge24_Node000021_Node000012"><a xlink:title=" ">
<path fill="none" stroke="#63b8ff" d="M1165.98,-56.2C1116.52,-45.48 1033.97,-27.57 989.03,-17.83"/>
<polygon fill="#63b8ff" stroke="#63b8ff" points="989.93,-14.44 979.42,-15.74 988.45,-21.28 989.93,-14.44"/>
</a>
</g>
</g>
<!-- Node21&#45;&gt;Node13 -->
<g id="edge25_Node000021_Node000013" class="edge">
<title>Node21&#45;&gt;Node13</title>
<g id="a_edge25_Node000021_Node000013"><a xlink:title=" ">
<path fill="none" stroke="#63b8ff" d="M1184.07,-55.59C1163.51,-46.99 1132.85,-34.15 1109.69,-24.46"/>
<polygon fill="#63b8ff" stroke="#63b8ff" points="1111.3,-21.34 1100.72,-20.7 1108.6,-27.79 1111.3,-21.34"/>
</a>
</g>
</g>
<!-- Node22 -->
<g id="Node000022" class="node">
<title>Node22</title>
<g id="a_Node000022"><a xlink:title=" ">
<polygon fill="#e0e0e0" stroke="#999999" points="1305.17,-20 1253.92,-20 1253.92,0 1305.17,0 1305.17,-20"/>
<text xml:space="preserve" text-anchor="middle" x="1279.54" y="-6.5" font-family="Helvetica,sans-Serif" font-size="10.00">sstream</text>
</a>
</g>
</g>
<!-- Node21&#45;&gt;Node22 -->
<g id="edge26_Node000021_Node000022" class="edge">
<title>Node21&#45;&gt;Node22</title>
<g id="a_edge26_Node000021_Node000022"><a xlink:title=" ">
<path fill="none" stroke="#63b8ff" d="M1219.26,-55.59C1229.94,-47.7 1245.42,-36.24 1258.03,-26.92"/>
<polygon fill="#63b8ff" stroke="#63b8ff" points="1259.8,-29.96 1265.76,-21.2 1255.64,-24.33 1259.8,-29.96"/>
</a>
</g>
</g>
<!-- Node23 -->
<g id="Node000023" class="node">
<title>Node23</title>
<g id="a_Node000023"><a xlink:title=" ">
<polygon fill="#e0e0e0" stroke="#999999" points="1172.42,-20 1116.67,-20 1116.67,0 1172.42,0 1172.42,-20"/>
<text xml:space="preserve" text-anchor="middle" x="1144.54" y="-6.5" font-family="Helvetica,sans-Serif" font-size="10.00">algorithm</text>
</a>
</g>
</g>
<!-- Node21&#45;&gt;Node23 -->
<g id="edge27_Node000021_Node000023" class="edge">
<title>Node21&#45;&gt;Node23</title>
<g id="a_edge27_Node000021_Node000023"><a xlink:title=" ">
<path fill="none" stroke="#63b8ff" d="M1195.75,-55.59C1186.94,-47.93 1174.29,-36.91 1163.77,-27.75"/>
<polygon fill="#63b8ff" stroke="#63b8ff" points="1166.2,-25.22 1156.36,-21.29 1161.6,-30.5 1166.2,-25.22"/>
</a>
</g>
</g>
<!-- Node24 -->
<g id="Node000024" class="node">
<title>Node24</title>
<g id="a_Node000024"><a xlink:title=" ">
<polygon fill="#e0e0e0" stroke="#999999" points="1236.17,-20 1190.92,-20 1190.92,0 1236.17,0 1236.17,-20"/>
<text xml:space="preserve" text-anchor="middle" x="1213.54" y="-6.5" font-family="Helvetica,sans-Serif" font-size="10.00">cctype</text>
</a>
</g>
</g>
<!-- Node21&#45;&gt;Node24 -->
<g id="edge28_Node000021_Node000024" class="edge">
<title>Node21&#45;&gt;Node24</title>
<g id="a_edge28_Node000021_Node000024"><a xlink:title=" ">
<path fill="none" stroke="#63b8ff" d="M1207.76,-55.59C1208.63,-48.93 1209.82,-39.75 1210.9,-31.44"/>
<polygon fill="#63b8ff" stroke="#63b8ff" points="1214.33,-32.17 1212.14,-21.8 1207.39,-31.27 1214.33,-32.17"/>
</a>
</g>
</g>
<!-- Node25&#45;&gt;Node2 -->
<g id="edge30_Node000025_Node000002" class="edge">
<title>Node25&#45;&gt;Node2</title>
<g id="a_edge30_Node000025_Node000002"><a xlink:title=" ">
<path fill="none" stroke="#63b8ff" d="M1384.53,-111.79C1388.37,-102.76 1394.21,-88.57 1398.54,-76 1403.66,-61.18 1408.6,-44.16 1412.17,-31.25"/>
<polygon fill="#63b8ff" stroke="#63b8ff" points="1415.49,-32.37 1414.72,-21.81 1408.73,-30.55 1415.49,-32.37"/>
</a>
</g>
</g>
<!-- Node25&#45;&gt;Node12 -->
<g id="edge31_Node000025_Node000012" class="edge">
<title>Node25&#45;&gt;Node12</title>
<g id="a_edge31_Node000025_Node000012"><a xlink:title=" ">
<path fill="none" stroke="#63b8ff" d="M1333.48,-113.04C1261.84,-100.9 1132.63,-78.83 1122.54,-76 1074.21,-62.42 1020.51,-39.76 987.88,-25.11"/>
<polygon fill="#63b8ff" stroke="#63b8ff" points="989.6,-22.04 979.04,-21.09 986.7,-28.42 989.6,-22.04"/>
</a>
</g>
</g>
<!-- Node25&#45;&gt;Node13 -->
<g id="edge32_Node000025_Node000013" class="edge">
<title>Node25&#45;&gt;Node13</title>
<g id="a_edge32_Node000025_Node000013"><a xlink:title=" ">
<path fill="none" stroke="#63b8ff" d="M1333.43,-112.73C1272.77,-101.9 1173.26,-83.41 1157.54,-76 1132.65,-64.26 1108.79,-43.16 1093.71,-28.19"/>
<polygon fill="#63b8ff" stroke="#63b8ff" points="1096.45,-25.99 1086.96,-21.28 1091.45,-30.88 1096.45,-25.99"/>
</a>
</g>
</g>
<!-- Node25&#45;&gt;Node21 -->
<g id="edge35_Node000025_Node000021" class="edge">
<title>Node25&#45;&gt;Node21</title>
<g id="a_edge35_Node000025_Node000021"><a xlink:title=" ">
<path fill="none" stroke="#63b8ff" d="M1350.24,-111.59C1321.84,-102.78 1279.18,-89.54 1247.71,-79.78"/>
<polygon fill="#63b8ff" stroke="#63b8ff" points="1249.12,-76.55 1238.54,-76.93 1247.05,-83.23 1249.12,-76.55"/>
</a>
</g>
</g>
<!-- Node26 -->
<g id="Node000026" class="node">
<title>Node26</title>
<g id="a_Node000026"><a xlink:title=" ">
<polygon fill="#e0e0e0" stroke="#999999" points="1319.04,-76 1270.04,-76 1270.04,-56 1319.04,-56 1319.04,-76"/>
<text xml:space="preserve" text-anchor="middle" x="1294.54" y="-62.5" font-family="Helvetica,sans-Serif" font-size="10.00">fstream</text>
</a>
</g>
</g>
<!-- Node25&#45;&gt;Node26 -->
<g id="edge33_Node000025_Node000026" class="edge">
<title>Node25&#45;&gt;Node26</title>
<g id="a_edge33_Node000025_Node000026"><a xlink:title=" ">
<path fill="none" stroke="#63b8ff" d="M1365.56,-111.59C1352.82,-103.59 1334.25,-91.93 1319.3,-82.54"/>
<polygon fill="#63b8ff" stroke="#63b8ff" points="1321.25,-79.64 1310.92,-77.28 1317.53,-85.57 1321.25,-79.64"/>
</a>
</g>
</g>
<!-- Node27 -->
<g id="Node000027" class="node">
<title>Node27</title>
<g id="a_Node000027"><a xlink:title=" ">
<polygon fill="#e0e0e0" stroke="#999999" points="1389.92,-76 1337.17,-76 1337.17,-56 1389.92,-56 1389.92,-76"/>
<text xml:space="preserve" text-anchor="middle" x="1363.54" y="-62.5" font-family="Helvetica,sans-Serif" font-size="10.00">sqlite3.h</text>
</a>
</g>
</g>
<!-- Node25&#45;&gt;Node27 -->
<g id="edge34_Node000025_Node000027" class="edge">
<title>Node25&#45;&gt;Node27</title>
<g id="a_edge34_Node000025_Node000027"><a xlink:title=" ">
<path fill="none" stroke="#63b8ff" d="M1377.58,-111.59C1375.46,-104.86 1372.53,-95.53 1369.89,-87.15"/>
<polygon fill="#63b8ff" stroke="#63b8ff" points="1373.27,-86.23 1366.93,-77.74 1366.59,-88.33 1373.27,-86.23"/>
</a>
</g>
</g>
</g>
</svg>
